<?xml version="1.0" standalone="no"?>
<!DOCTYPE svg PUBLIC "-//W3C//DTD SVG 1.1//EN" "http://www.w3.org/Graphics/SVG/1.1/DTD/svg11.dtd" >
<svg xmlns="http://www.w3.org/2000/svg" xmlns:xlink="http://www.w3.org/1999/xlink" version="1.1">
<metadata>
Created by FontForge 20170731 at Fri Feb 16 16:57:33 2018
 By Aleksey,,,
Copyright 2018 IBM Corp. All rights reserved.
</metadata>
<defs>
<font id="IBMPlexSansCond-Bold" horiz-adv-x="540" >
  <font-face 
    font-family="IBM Plex Sans Condensed"
    font-weight="700"
    font-stretch="condensed"
    units-per-em="1000"
    panose-1="2 11 8 6 5 2 3 0 2 3"
    ascent="780"
    descent="-220"
    x-height="525"
    cap-height="698"
    bbox="-292 -275 1209 1150"
    underline-thickness="100"
    underline-position="-216"
    unicode-range="U+000D-FB02"
  />
<missing-glyph horiz-adv-x="424" 
d="M32 0v780h360v-780h-360zM132 100h160v580h-160v-580z" />
    <glyph glyph-name="fi" unicode="fi" horiz-adv-x="591" 
d="M84 418h-66v107h66v62q0 78 35 115.5t108 37.5h89v-109h-94v-106h308v-525h-138v418h-170v-418h-138v418zM460 589q-43 0 -62.5 18.5t-19.5 50.5v22q0 32 19.5 50.5t62.5 18.5t62.5 -18.5t19.5 -50.5v-22q0 -32 -19.5 -50.5t-62.5 -18.5z" />
    <glyph glyph-name=".notdef" horiz-adv-x="424" 
d="M32 0v780h360v-780h-360zM132 100h160v580h-160v-580z" />
    <glyph glyph-name=".null" horiz-adv-x="0" 
 />
    <glyph glyph-name=".null" horiz-adv-x="0" 
 />
    <glyph glyph-name="uni000D" unicode="&#xd;" horiz-adv-x="212" 
 />
    <glyph glyph-name="space" unicode=" " horiz-adv-x="212" 
 />
    <glyph glyph-name="exclam" unicode="!" horiz-adv-x="292" 
d="M115 215l-42 288v195h146v-195l-41 -288h-63zM146 -12q-45 0 -64 19t-19 51v30q0 32 19 51t64 19t64 -19t19 -51v-30q0 -32 -19 -51t-64 -19z" />
    <glyph glyph-name="quotedbl" unicode="&#x22;" horiz-adv-x="452" 
d="M60 420v320h124v-320h-124zM268 420v320h124v-320h-124z" />
    <glyph glyph-name="numbersign" unicode="#" horiz-adv-x="561" 
d="M329 173h-150l-27 -173h-85l27 173h-89v78h101l31 196h-91v78h103l27 173h84l-27 -173h151l27 173h84l-27 -173h88v-78h-100l-30 -196h89v-78h-101l-27 -173h-85zM341 251l31 196h-151l-30 -196h150z" />
    <glyph glyph-name="dollar" unicode="$" horiz-adv-x="535" 
d="M510 219q0 -91 -45 -142.5t-133 -65.5v-93h-108v91q-60 5 -110.5 28t-88.5 70l86 77q22 -30 55.5 -46.5t71.5 -21.5v192q-97 23 -145.5 67t-48.5 121q0 86 45.5 133.5t134.5 58.5v92h108v-92q107 -12 167 -85l-83 -75q-19 23 -44 35.5t-54 17.5v-174q51 -13 87 -29
t59.5 -38t34.5 -51.5t11 -69.5zM173 504q0 -30 16.5 -48.5t48.5 -28.5v154q-33 -5 -49 -23t-16 -54zM383 203q0 65 -65 86v-170q65 15 65 84z" />
    <glyph glyph-name="percent" unicode="%" horiz-adv-x="884" 
d="M165 0l434 698h120l-434 -698h-120zM209 314q-80 0 -122 46.5t-42 151.5t42 151.5t122 46.5q79 0 121.5 -46.5t42.5 -151.5t-42.5 -151.5t-121.5 -46.5zM209 394q45 0 45 60v116q0 60 -45 60t-45 -60v-116q0 -60 45 -60zM675 -12q-80 0 -122 46.5t-42 151.5t42 151.5
t122 46.5q79 0 121.5 -46.5t42.5 -151.5t-42.5 -151.5t-121.5 -46.5zM675 68q45 0 45 60v116q0 60 -45 60t-45 -60v-116q0 -60 45 -60z" />
    <glyph glyph-name="ampersand" unicode="&#x26;" horiz-adv-x="652" 
d="M404 106h-14q-5 -24 -16 -45.5t-30 -37.5t-47 -25.5t-67 -9.5q-91 0 -139 51.5t-48 144.5q0 33 6.5 60t21.5 50t39 43t59 40q-35 45 -53.5 87t-18.5 89q0 76 48.5 116.5t138.5 40.5q91 0 140 -40.5t49 -113.5q0 -66 -36 -114t-87 -78l93 -124q11 33 17 69.5t8 73.5h154
v-115h-56q-7 -32 -17 -62t-23 -56l125 -150h-168zM285 605q-25 0 -40.5 -12.5t-15.5 -41.5v-18q0 -17 12.5 -43t40.5 -52q29 17 44 41.5t15 54.5v17q0 29 -15.5 41.5t-40.5 12.5zM278 103q29 0 50 9t38 26l-129 165q-28 -16 -40 -40.5t-12 -55.5v-16q0 -41 23 -64.5
t70 -23.5z" />
    <glyph glyph-name="quotesingle" unicode="'" horiz-adv-x="244" 
d="M60 420v320h124v-320h-124z" />
    <glyph glyph-name="parenleft" unicode="(" horiz-adv-x="304" 
d="M29 311q0 78 12 146t33 124.5t49.5 101t62.5 77.5h131q-72 -75 -114 -173t-42 -220v-112q0 -122 42 -220t114 -173h-131q-34 33 -62.5 77.5t-49.5 101t-33 124.5t-12 146z" />
    <glyph glyph-name="parenright" unicode=")" horiz-adv-x="304" 
d="M275 311q0 -78 -12 -146t-33 -124.5t-49.5 -101t-62.5 -77.5h-131q72 75 114 173t42 220v112q0 122 -42 220t-114 173h131q34 -33 62.5 -77.5t49.5 -101t33 -124.5t12 -146z" />
    <glyph glyph-name="asterisk" unicode="*" horiz-adv-x="556" 
d="M371 264l-86 167h-14l-86 -167l-105 76l133 134l-3 12l-187 31l40 121l169 -86l10 7l-29 188h130l-29 -188l10 -7l169 86l40 -121l-187 -31l-3 -12l133 -134z" />
    <glyph glyph-name="plus" unicode="+" 
d="M210 90v163h-155v109h155v163h120v-163h155v-109h-155v-163h-120z" />
    <glyph glyph-name="comma" unicode="," horiz-adv-x="284" 
d="M142 160q42 0 62 -19.5t20 -52.5v-27q0 -60 -26 -115.5t-72 -90.5h-93q34 32 56.5 64t34.5 71q-33 5 -48.5 23.5t-15.5 47.5v27q0 33 20 52.5t62 19.5z" />
    <glyph glyph-name="hyphen" unicode="-" horiz-adv-x="360" 
d="M45 238v135h270v-135h-270z" />
    <glyph glyph-name="period" unicode="." horiz-adv-x="284" 
d="M142 -10q-42 0 -62 19.5t-20 52.5v26q0 33 20 52.5t62 19.5t62 -19.5t20 -52.5v-26q0 -33 -20 -52.5t-62 -19.5z" />
    <glyph glyph-name="slash" unicode="/" horiz-adv-x="422" 
d="M3 -151l272 891h115l-272 -891h-115z" />
    <glyph glyph-name="zero" unicode="0" 
d="M270 -12q-63 0 -108 20.5t-74.5 64t-43.5 112t-14 164.5t14 164.5t43.5 112t74.5 64t108 20.5t108 -20.5t74.5 -64t43.5 -112t14 -164.5t-14 -164.5t-43.5 -112t-74.5 -64t-108 -20.5zM270 108q25 0 42 7.5t27 24t14.5 43.5t4.5 67v198q0 79 -19 110.5t-69 31.5
t-69 -31.5t-19 -110.5v-198q0 -40 4.5 -67t14.5 -43.5t27 -24t42 -7.5z" />
    <glyph glyph-name="one" unicode="1" 
d="M73 0v120h155v448l-133 -85l-58 98l183 117h148v-578h135v-120h-430z" />
    <glyph glyph-name="two" unicode="2" 
d="M498 0h-448v130l191 187q52 51 73.5 87.5t21.5 77.5v32q0 34 -21.5 55t-59.5 21q-22 0 -38.5 -8.5t-28 -22.5t-19 -32.5t-11.5 -39.5l-124 47q10 36 27.5 68t45 56t67 38t94.5 14q60 0 101.5 -14t67.5 -39.5t37.5 -63t11.5 -83.5q0 -36 -7 -66t-24 -59.5t-46 -62.5
t-73 -75l-133 -127h295v-120z" />
    <glyph glyph-name="three" unicode="3" 
d="M236 417q24 0 42 7t29 18t16.5 24.5t5.5 26.5v32q0 29 -21 49.5t-60 20.5q-40 0 -71 -21t-57 -62l-88 81q38 58 95 87.5t129 29.5q102 0 160.5 -45t58.5 -138q0 -35 -9.5 -62t-25 -46.5t-37 -31.5t-45.5 -16v-16q28 -5 52 -15.5t41.5 -28t27 -44t9.5 -62.5
q0 -51 -16.5 -91t-48 -68t-76 -43t-100.5 -15q-47 0 -84.5 11t-66 29.5t-49 42.5t-35.5 51l104 80q20 -44 50.5 -71.5t79.5 -27.5q45 0 69.5 24t24.5 62v32q0 35 -28 58t-79 23h-55v115h58z" />
    <glyph glyph-name="four" unicode="4" 
d="M299 0v132h-273v122l226 444h182v-454h80v-112h-80v-132h-135zM134 244h165v311h-16z" />
    <glyph glyph-name="five" unicode="5" 
d="M472 573h-282l-15 -226h16q11 49 44.5 78t87.5 29q87 0 138 -53t51 -167q0 -118 -61 -182t-184 -64q-47 0 -83 10.5t-64 28.5t-48 42t-34 51l103 80q20 -44 51 -70.5t75 -26.5q95 0 95 106v32q0 51 -25 74.5t-67 23.5q-36 0 -59 -17t-34 -34l-121 16l24 394h392v-125z
" />
    <glyph glyph-name="six" unicode="6" 
d="M274 -12q-122 0 -181.5 71t-59.5 205q0 76 20.5 142.5t52.5 121.5t72.5 98t81.5 72h197q-59 -44 -105.5 -84.5t-81 -82t-56.5 -86.5t-31 -97h16q14 42 46 71t89 29q84 0 132.5 -56.5t48.5 -162.5q0 -114 -61.5 -177.5t-179.5 -63.5zM274 103q46 0 68.5 25.5t22.5 73.5v32
q0 48 -22.5 73.5t-68.5 25.5t-68.5 -25.5t-22.5 -73.5v-32q0 -48 22.5 -73.5t68.5 -25.5z" />
    <glyph glyph-name="seven" unicode="7" 
d="M147 0l210 583h-189v-125h-120v240h448v-123l-199 -575h-150z" />
    <glyph glyph-name="eight" unicode="8" 
d="M270 -12q-118 0 -177 54.5t-59 148.5q0 69 33.5 110.5t89.5 53.5v16q-46 14 -75 53.5t-29 102.5q0 87 52.5 135t164.5 48t164.5 -48t52.5 -135q0 -63 -29 -102.5t-75 -53.5v-16q56 -12 89.5 -53.5t33.5 -110.5q0 -94 -59 -148.5t-177 -54.5zM270 97q44 0 66 23t22 65v32
q0 42 -22 65t-66 23t-66 -23t-22 -65v-32q0 -42 22 -65t66 -23zM270 410q42 0 63.5 23t21.5 59v27q0 36 -21.5 59t-63.5 23t-63.5 -23t-21.5 -59v-27q0 -36 21.5 -59t63.5 -23z" />
    <glyph glyph-name="nine" unicode="9" 
d="M507 434q0 -76 -20.5 -142.5t-52.5 -121.5t-73 -98t-81 -72h-197q59 44 105.5 84.5t81 82t56.5 86.5t31 97h-16q-14 -42 -46 -71t-89 -29q-84 0 -132.5 56.5t-48.5 162.5q0 114 61.5 177.5t179.5 63.5q122 0 181.5 -71t59.5 -205zM266 365q46 0 68.5 25.5t22.5 73.5v32
q0 48 -22.5 73.5t-68.5 25.5t-68.5 -25.5t-22.5 -73.5v-32q0 -48 22.5 -73.5t68.5 -25.5z" />
    <glyph glyph-name="colon" unicode=":" horiz-adv-x="304" 
d="M152 -10q-42 0 -62 19.5t-20 52.5v26q0 33 20 52.5t62 19.5t62 -19.5t20 -52.5v-26q0 -33 -20 -52.5t-62 -19.5zM152 361q-42 0 -62 19.5t-20 52.5v26q0 33 20 52.5t62 19.5t62 -19.5t20 -52.5v-26q0 -33 -20 -52.5t-62 -19.5z" />
    <glyph glyph-name="semicolon" unicode=";" horiz-adv-x="304" 
d="M152 160q42 0 62 -19.5t20 -52.5v-27q0 -60 -26 -115.5t-72 -90.5h-93q34 32 56.5 64t34.5 71q-33 5 -48.5 23.5t-15.5 47.5v27q0 33 20 52.5t62 19.5zM152 361q-42 0 -62 19.5t-20 52.5v26q0 33 20 52.5t62 19.5t62 -19.5t20 -52.5v-26q0 -33 -20 -52.5t-62 -19.5z" />
    <glyph glyph-name="less" unicode="&#x3c;" 
d="M90 252v92l360 256v-149l-216 -145v-16l216 -145v-149z" />
    <glyph glyph-name="equal" unicode="=" 
d="M55 362v109h430v-109h-430zM55 144v109h430v-109h-430z" />
    <glyph glyph-name="greater" unicode="&#x3e;" 
d="M90 145l216 145v16l-216 145v149l360 -256v-92l-360 -256v149z" />
    <glyph glyph-name="question" unicode="?" horiz-adv-x="452" 
d="M140 230v154q74 3 107.5 26.5t33.5 80.5v22q0 78 -70 78q-36 0 -56.5 -24.5t-28.5 -64.5l-114 48q8 31 23 60t39.5 51t59 35.5t82.5 13.5q107 0 160 -51t53 -148q0 -45 -12 -80.5t-33 -61t-50 -41t-62 -22.5v-76h-132zM208 -12q-45 0 -64 19t-19 51v30q0 32 19 51t64 19
t64 -19t19 -51v-30q0 -32 -19 -51t-64 -19z" />
    <glyph glyph-name="at" unicode="@" horiz-adv-x="814" 
d="M602 -120h-188q-86 0 -155 29t-117 83t-73.5 131t-25.5 172t25.5 172t73.5 131t117 83t155 29q79 0 145 -24.5t113 -72t73 -118t26 -162.5q0 -127 -47 -189t-129 -62q-54 0 -83 24t-32 62h-12q-7 -38 -31 -62t-67 -24q-66 0 -101.5 50.5t-35.5 157.5t35.5 157.5
t101.5 50.5q37 0 57.5 -21t26.5 -55h12v68h104v-273q0 -53 42 -53q15 0 27.5 7t21.5 23t13.5 42t4.5 64v59q0 64 -18.5 115.5t-52.5 87.5t-83.5 55t-110.5 19q-68 0 -119 -23t-86 -64.5t-52.5 -98.5t-17.5 -126v-58q0 -69 17.5 -126t52.5 -98.5t86 -64.5t119 -23h188v-74z
M407 168q24 0 41.5 16.5t17.5 42.5v126q0 26 -17.5 42.5t-41.5 16.5q-31 0 -48.5 -20t-17.5 -58v-88q0 -38 17.5 -58t48.5 -20z" />
    <glyph glyph-name="A" unicode="A" horiz-adv-x="618" 
d="M457 0l-43 171h-214l-43 -171h-137l198 698h182l198 -698h-141zM336 447l-22 121h-16l-22 -121l-41 -161h144z" />
    <glyph glyph-name="B" unicode="B" horiz-adv-x="602" 
d="M68 698h310q84 0 124.5 -49t40.5 -130q0 -44 -10.5 -72.5t-27 -45t-37.5 -24t-43 -8.5v-16q24 0 49.5 -8t46.5 -26.5t34 -48t13 -71.5q0 -41 -11 -77.5t-32 -63.5t-51 -42.5t-68 -15.5h-338v698zM211 121h155q24 0 38.5 14t14.5 47v50q0 33 -14.5 47t-38.5 14h-155v-172z
M211 411h132q25 0 39 14t14 46v46q0 32 -14 46t-39 14h-132v-166z" />
    <glyph glyph-name="C" unicode="C" horiz-adv-x="589" 
d="M324 -12q-63 0 -114.5 19t-88 61t-57 110t-20.5 166t20.5 167.5t57 113.5t88 64.5t114.5 20.5q94 0 148.5 -40.5t89.5 -122.5l-124 -64q-6 22 -13.5 41t-20.5 32t-32.5 20.5t-47.5 7.5q-60 0 -94 -36t-34 -108v-182q0 -72 34 -108t94 -36q28 0 48.5 8.5t34.5 23t23 34
t16 42.5l118 -68q-18 -39 -40 -70t-50.5 -52.5t-65.5 -32.5t-84 -11z" />
    <glyph glyph-name="D" unicode="D" horiz-adv-x="630" 
d="M68 698h245q64 0 114.5 -19.5t85.5 -61.5t54 -108t19 -160t-19 -160t-54 -108t-85.5 -61.5t-114.5 -19.5h-245v698zM313 125q121 0 121 140v168q0 140 -121 140h-102v-448h102z" />
    <glyph glyph-name="E" unicode="E" horiz-adv-x="549" 
d="M68 0v698h432v-125h-289v-158h245v-124h-245v-166h289v-125h-432z" />
    <glyph glyph-name="F" unicode="F" horiz-adv-x="528" 
d="M68 0v698h420v-125h-277v-158h235v-124h-235v-291h-143z" />
    <glyph glyph-name="G" unicode="G" horiz-adv-x="646" 
d="M466 110h-16q-7 -54 -47.5 -88t-109.5 -34q-50 0 -95 19t-79 61t-54.5 110.5t-20.5 167.5t20 168t56 112.5t87 63.5t114 20q94 0 156 -40.5t97 -120.5l-117 -67q-14 47 -47 74.5t-90 27.5t-90.5 -36t-33.5 -108v-182q0 -72 34 -107.5t94 -35.5q54 0 89.5 27.5t35.5 81.5
v41h-115v120h252v-385h-120v110z" />
    <glyph glyph-name="H" unicode="H" horiz-adv-x="654" 
d="M443 291h-232v-291h-143v698h143v-283h232v283h143v-698h-143v291z" />
    <glyph glyph-name="I" unicode="I" horiz-adv-x="397" 
d="M45 0v113h82v472h-82v113h307v-113h-82v-472h82v-113h-307z" />
    <glyph glyph-name="J" unicode="J" horiz-adv-x="506" 
d="M442 698v-509q0 -96 -53.5 -148.5t-156.5 -52.5q-98 0 -146.5 50t-63.5 142l130 27q7 -53 25 -73t53 -20q32 0 50.5 18t18.5 65v386h-187v115h330z" />
    <glyph glyph-name="K" unicode="K" horiz-adv-x="630" 
d="M292 309l-81 -110v-199h-143v698h143v-226l-6 -111h16l69 111l152 226h162l-211 -291l229 -407h-168z" />
    <glyph glyph-name="L" unicode="L" horiz-adv-x="480" 
d="M68 0v698h143v-573h237v-125h-380z" />
    <glyph glyph-name="M" unicode="M" horiz-adv-x="738" 
d="M535 364l8 117h-16l-43 -111l-116 -253l-115 253l-43 111h-16l8 -117v-364h-134v698h150l95 -208l52 -149h10l52 149l93 208h149v-698h-134v364z" />
    <glyph glyph-name="N" unicode="N" horiz-adv-x="654" 
d="M254 374l-44 111h-16l8 -117v-368h-134v698h156l176 -374l44 -111h16l-8 117v368h134v-698h-156z" />
    <glyph glyph-name="O" unicode="O" horiz-adv-x="642" 
d="M321 -12q-63 0 -114 19.5t-87 63t-56 112t-20 166.5t20 166.5t56 112t87 63t114 19.5t114 -19.5t87 -63t56 -112t20 -166.5t-20 -166.5t-56 -112t-87 -63t-114 -19.5zM321 114q60 0 92.5 36t32.5 108v182q0 72 -32.5 108t-92.5 36t-92.5 -36t-32.5 -108v-182
q0 -72 32.5 -108t92.5 -36z" />
    <glyph glyph-name="P" unicode="P" horiz-adv-x="595" 
d="M68 0v698h302q94 0 143 -60t49 -160t-49 -160t-143 -60h-159v-258h-143zM211 383h141q29 0 45.5 15t16.5 50v60q0 35 -16.5 50t-45.5 15h-141v-190z" />
    <glyph glyph-name="Q" unicode="Q" horiz-adv-x="642" 
d="M492 -181h-92q-77 0 -107.5 32.5t-30.5 100.5v41q-50 8 -90 32.5t-68.5 68t-44 106.5t-15.5 149q0 98 20 166.5t56 112t87 63t114 19.5t114 -19.5t87 -63t56 -112t20 -166.5q0 -83 -14.5 -144.5t-41 -104.5t-64 -69t-84.5 -36v-61h98v-115zM321 114q60 0 92.5 36
t32.5 108v182q0 72 -32.5 108t-92.5 36t-92.5 -36t-32.5 -108v-182q0 -72 32.5 -108t92.5 -36z" />
    <glyph glyph-name="R" unicode="R" horiz-adv-x="610" 
d="M211 0h-143v698h302q94 0 143 -59t49 -158q0 -77 -29 -130t-86 -74l122 -277h-155l-108 264h-95v-264zM352 383q29 0 45.5 14.5t16.5 50.5v60q0 36 -16.5 50.5t-45.5 14.5h-141v-190h141z" />
    <glyph glyph-name="S" unicode="S" horiz-adv-x="556" 
d="M272 -12q-157 0 -246 110l92 92q60 -77 157 -77q100 0 100 88q0 36 -18 56t-56 28l-64 12q-97 18 -142.5 67.5t-45.5 137.5q0 102 60 155t176 53q148 0 225 -96l-92 -92q-26 32 -58.5 47.5t-76.5 15.5q-48 0 -69.5 -18t-21.5 -58q0 -35 16.5 -53t53.5 -26l64 -13
q51 -11 87.5 -26.5t60 -39.5t34 -57t10.5 -77q0 -112 -63 -170.5t-183 -58.5z" />
    <glyph glyph-name="T" unicode="T" horiz-adv-x="527" 
d="M335 573v-573h-143v573h-167v125h477v-125h-167z" />
    <glyph glyph-name="U" unicode="U" horiz-adv-x="630" 
d="M207 698v-453q0 -69 23.5 -99.5t84.5 -30.5t84.5 30.5t23.5 99.5v453h143v-434q0 -74 -13 -126t-42.5 -85.5t-77.5 -49t-118 -15.5t-118 15.5t-77.5 49t-42.5 85.5t-13 126v434h143z" />
    <glyph glyph-name="V" unicode="V" horiz-adv-x="598" 
d="M217 0l-205 698h148l112 -424l22 -144h16l22 144l110 424h144l-201 -698h-168z" />
    <glyph glyph-name="W" unicode="W" horiz-adv-x="884" 
d="M167 0l-140 698h141l66 -386l18 -155h16l18 151l80 390h157l81 -390l18 -151h16l18 155l65 386h136l-146 -698h-162l-82 402l-18 139h-16l-18 -139l-82 -402h-166z" />
    <glyph glyph-name="X" unicode="X" horiz-adv-x="612" 
d="M597 0h-165l-127 250h-14l-123 -250h-153l197 358l-186 340h165l112 -229h16l113 229h153l-189 -340z" />
    <glyph glyph-name="Y" unicode="Y" horiz-adv-x="579" 
d="M218 0v263l-213 435h156l124 -286h16l120 286h153l-213 -435v-263h-143z" />
    <glyph glyph-name="Z" unicode="Z" horiz-adv-x="546" 
d="M511 0h-476v126l303 447h-287v125h452v-126l-304 -447h312v-125z" />
    <glyph glyph-name="bracketleft" unicode="[" horiz-adv-x="302" 
d="M68 -138v898h190v-96h-68v-706h68v-96h-190z" />
    <glyph glyph-name="backslash" unicode="\" horiz-adv-x="422" 
d="M304 -151l-272 891h115l272 -891h-115z" />
    <glyph glyph-name="bracketright" unicode="]" horiz-adv-x="302" 
d="M234 760v-898h-190v96h68v706h-68v96h190z" />
    <glyph glyph-name="asciicircum" unicode="^" 
d="M397 292l-124 257h-16l-121 -257l-106 50l179 356h122l179 -356z" />
    <glyph glyph-name="underscore" unicode="_" horiz-adv-x="500" 
d="M27 -187v115h446v-115h-446z" />
    <glyph glyph-name="grave" unicode="`" 
d="M126 758l119 58l92 -198l-82 -39z" />
    <glyph glyph-name="a" unicode="a" horiz-adv-x="516" 
d="M407 0q-82 0 -89 91h-13q-8 -48 -43 -75.5t-89 -27.5q-71 0 -107 40.5t-36 112.5q0 86 52.5 125t146.5 39h76v41q0 41 -17 61t-57 20q-35 0 -58.5 -17.5t-41.5 -46.5l-83 74q32 47 78 73.5t118 26.5q103 0 152 -48t49 -143v-237h43v-109h-81zM229 86q31 0 53.5 17.5
t22.5 54.5v65h-63q-72 0 -72 -60v-19q0 -30 15.5 -44t43.5 -14z" />
    <glyph glyph-name="b" unicode="b" horiz-adv-x="550" 
d="M61 740h140v-302h16q4 21 15.5 39t27.5 31.5t36 21t41 7.5q91 0 133.5 -69t42.5 -206t-42 -205.5t-134 -68.5q-21 0 -41 7.5t-36 21t-27.5 31.5t-15.5 39h-16v-87h-140v740zM281 102q39 0 62.5 24.5t23.5 69.5v133q0 45 -23.5 69.5t-62.5 24.5q-38 0 -59 -17.5t-21 -52.5
v-181q0 -35 21 -52.5t59 -17.5z" />
    <glyph glyph-name="c" unicode="c" horiz-adv-x="468" 
d="M253 -12q-110 0 -166 67t-56 207t56 207.5t166 67.5q78 0 124.5 -35.5t66.5 -100.5l-113 -50q-5 38 -23 56.5t-55 18.5q-76 0 -76 -90v-147q0 -90 76 -90q38 0 56.5 19.5t27.5 59.5l109 -48q-43 -142 -193 -142z" />
    <glyph glyph-name="d" unicode="d" horiz-adv-x="550" 
d="M349 87h-16q-5 -21 -16 -39t-27 -31.5t-36 -21t-41 -7.5q-92 0 -134 68.5t-42 205.5t42.5 206t133.5 69q21 0 41 -7.5t36 -21t27 -31.5t16 -39h16v302h140v-740h-140v87zM269 102q38 0 59 17.5t21 52.5v181q0 35 -21 52.5t-59 17.5q-39 0 -62.5 -24.5t-23.5 -69.5v-133
q0 -45 23.5 -69.5t62.5 -24.5z" />
    <glyph glyph-name="e" unicode="e" horiz-adv-x="508" 
d="M268 -12q-108 0 -172.5 68.5t-64.5 205.5q0 140 56.5 207.5t166.5 67.5t166.5 -67.5t56.5 -207.5v-34h-300v-33q0 -44 27 -70.5t74 -26.5q39 0 66.5 17.5t50.5 48.5l71 -83q-32 -43 -81.5 -68t-116.5 -25zM254 432q-77 0 -77 -90v-32h154v32q0 90 -77 90z" />
    <glyph glyph-name="f" unicode="f" horiz-adv-x="341" 
d="M86 416h-66v109h66v62q0 78 35 115.5t108 37.5h92v-109h-95v-106h95v-109h-95v-416h-140v416z" />
    <glyph glyph-name="g" unicode="g" horiz-adv-x="499" 
d="M503 -41q0 -41 -12 -73t-41.5 -54t-79.5 -33t-126 -11q-65 0 -108 8.5t-69.5 24t-37.5 38.5t-11 52q0 38 23 60.5t67 29.5v21q-38 7 -55 31t-17 58q0 18 7.5 32t20 24t28.5 17t33 11v14q-44 21 -64 59t-20 92q0 83 48 130t157 47q21 0 41.5 -3.5t38.5 -9.5v19q0 40 19 59
t54 19h75v-105h-106v-16q41 -17 62.5 -53t21.5 -87q0 -82 -48 -128.5t-158 -46.5q-25 0 -46.5 2.5t-41.5 7.5q-16 -14 -16 -45q0 -20 12.5 -30t42.5 -10h141q89 0 127 -39.5t38 -111.5zM372 -59q0 24 -16.5 37t-54.5 13h-163q-7 -10 -10.5 -23t-3.5 -27q0 -29 20.5 -44
t75.5 -15h56q55 0 75.5 15t20.5 44zM246 278q41 0 58.5 19t17.5 56v16q0 37 -17.5 56t-58.5 19t-58.5 -19t-17.5 -56v-16q0 -37 17.5 -56t58.5 -19z" />
    <glyph glyph-name="h" unicode="h" 
d="M61 740h140v-304h16q6 21 16.5 39t25.5 32t35 22t47 8q70 0 107 -47.5t37 -132.5v-357h-140v330q0 93 -65 93q-32 0 -55.5 -19.5t-23.5 -54.5v-349h-140v740z" />
    <glyph glyph-name="i" unicode="i" horiz-adv-x="262" 
d="M131 589q-43 0 -62.5 18.5t-19.5 50.5v22q0 32 19.5 50.5t62.5 18.5t62.5 -18.5t19.5 -50.5v-22q0 -32 -19.5 -50.5t-62.5 -18.5zM61 525h140v-525h-140v525z" />
    <glyph glyph-name="j" unicode="j" horiz-adv-x="266" 
d="M65 525h140v-593q0 -67 -31.5 -99.5t-104.5 -32.5h-74v109h70v616zM135 589q-43 0 -62.5 18.5t-19.5 50.5v22q0 32 19.5 50.5t62.5 18.5t62.5 -18.5t19.5 -50.5v-22q0 -32 -19.5 -50.5t-62.5 -18.5z" />
    <glyph glyph-name="k" unicode="k" horiz-adv-x="524" 
d="M61 740h140v-330l-8 -111h16l57 96l93 130h156l-159 -206l165 -319h-154l-107 227l-59 -74v-153h-140v740z" />
    <glyph glyph-name="l" unicode="l" horiz-adv-x="277" 
d="M197 0q-73 0 -104.5 32.5t-31.5 99.5v608h140v-631h59v-109h-63z" />
    <glyph glyph-name="m" unicode="m" horiz-adv-x="808" 
d="M61 0v525h140v-89h16q6 21 16.5 39t25 32t34.5 22t46 8q51 0 81 -27.5t44 -78.5h13q17 55 53.5 80.5t84.5 25.5q67 0 102.5 -48t35.5 -132v-357h-140v330q0 93 -61 93q-31 0 -53 -19.5t-22 -54.5v-349h-140v330q0 93 -61 93q-31 0 -53 -19.5t-22 -54.5v-349h-140z" />
    <glyph glyph-name="n" unicode="n" 
d="M61 0v525h140v-89h16q6 21 16 39t25 32t35 22t46 8q71 0 108.5 -47.5t37.5 -132.5v-357h-140v330q0 93 -65 93q-32 0 -55.5 -19.5t-23.5 -54.5v-349h-140z" />
    <glyph glyph-name="o" unicode="o" horiz-adv-x="508" 
d="M254 -12q-110 0 -166.5 67t-56.5 207t56.5 207.5t166.5 67.5t166.5 -67.5t56.5 -207.5t-56.5 -207t-166.5 -67zM254 99q77 0 77 90v147q0 90 -77 90t-77 -90v-147q0 -90 77 -90z" />
    <glyph glyph-name="p" unicode="p" horiz-adv-x="550" 
d="M61 525h140v-87h16q4 21 15.5 39t27.5 31.5t36 21t41 7.5q91 0 133.5 -69t42.5 -206t-42 -205.5t-134 -68.5q-21 0 -41 7.5t-36 21t-27.5 31.5t-15.5 39h-16v-287h-140v725zM281 102q39 0 62.5 24.5t23.5 69.5v133q0 45 -23.5 69.5t-62.5 24.5q-38 0 -59 -17.5t-21 -52.5
v-181q0 -35 21 -52.5t59 -17.5z" />
    <glyph glyph-name="q" unicode="q" horiz-adv-x="550" 
d="M349 87h-16q-5 -21 -16 -39t-27 -31.5t-36 -21t-41 -7.5q-92 0 -134 68.5t-42 205.5t42.5 206t133.5 69q21 0 41 -7.5t36 -21t27 -31.5t16 -39h16v87h140v-725h-140v287zM269 102q38 0 59 17.5t21 52.5v181q0 35 -21 52.5t-59 17.5q-39 0 -62.5 -24.5t-23.5 -69.5v-133
q0 -45 23.5 -69.5t62.5 -24.5z" />
    <glyph glyph-name="r" unicode="r" horiz-adv-x="367" 
d="M61 0v525h140v-112h16q3 22 10 42.5t19.5 36t31.5 24.5t45 9h25v-142h-36q-57 0 -84 -16t-27 -61v-306h-140z" />
    <glyph glyph-name="s" unicode="s" horiz-adv-x="455" 
d="M226 -12q-129 0 -206 93l83 83q48 -68 126 -68q67 0 67 54q0 21 -10.5 32.5t-34.5 16.5l-53 10q-85 16 -122.5 53.5t-37.5 106.5q0 83 49 125.5t143 42.5q63 0 109.5 -19.5t81.5 -59.5l-80 -82q-45 53 -110 53q-61 0 -61 -54q0 -22 11 -33t36 -16l55 -10
q83 -15 119.5 -50.5t36.5 -101.5q0 -85 -53 -130.5t-149 -45.5z" />
    <glyph glyph-name="t" unicode="t" horiz-adv-x="342" 
d="M223 0q-72 0 -104.5 32t-32.5 102v282h-66v109h32q28 0 38 12t10 39v91h126v-142h92v-109h-92v-307h82v-109h-85z" />
    <glyph glyph-name="u" unicode="u" 
d="M339 89h-16q-6 -21 -16.5 -39t-25.5 -32t-35 -22t-47 -8q-70 0 -107 47.5t-37 132.5v357h140v-330q0 -93 65 -93q32 0 55.5 19.5t23.5 54.5v349h140v-525h-140v89z" />
    <glyph glyph-name="v" unicode="v" horiz-adv-x="490" 
d="M155 0l-151 525h142l73 -286l21 -121h16l21 121l73 286h136l-151 -525h-180z" />
    <glyph glyph-name="w" unicode="w" horiz-adv-x="756" 
d="M12 525h137l51 -253l17 -144h14l21 144l60 253h136l63 -253l21 -144h12l17 144l55 253h128l-128 -525h-153l-59 256l-19 141h-14l-19 -141l-59 -256h-153z" />
    <glyph glyph-name="x" unicode="x" horiz-adv-x="501" 
d="M13 0l151 268l-151 257h151l83 -160h14l84 160h142l-154 -262l160 -263h-151l-89 165h-14l-84 -165h-142z" />
    <glyph glyph-name="y" unicode="y" horiz-adv-x="496" 
d="M352 525h140l-197 -625q-9 -29 -22.5 -48.5t-32 -31t-42.5 -16t-55 -4.5h-94v109h114l17 62l-176 554h144l77 -291l19 -116h14l19 117z" />
    <glyph glyph-name="z" unicode="z" horiz-adv-x="466" 
d="M36 0v110l231 306h-223v109h380v-110l-233 -306h239v-109h-394z" />
    <glyph glyph-name="braceleft" unicode="{" horiz-adv-x="338" 
d="M189 -138q-37 0 -61 21.5t-24 68.5v226q0 41 -23 60t-64 19v108q41 0 64 19t23 60v226q0 47 24 68.5t61 21.5h105v-96h-68v-230q0 -63 -34.5 -89.5t-100.5 -26.5v-14q66 0 100.5 -26.5t34.5 -89.5v-230h68v-96h-105z" />
    <glyph glyph-name="bar" unicode="|" horiz-adv-x="370" 
d="M126 -138v898h118v-898h-118z" />
    <glyph glyph-name="braceright" unicode="}" horiz-adv-x="338" 
d="M149 760q37 0 61 -21.5t24 -68.5v-226q0 -41 23 -60t64 -19v-108q-41 0 -64 -19t-23 -60v-226q0 -47 -24 -68.5t-61 -21.5h-105v96h68v230q0 63 34.5 89.5t100.5 26.5v14q-66 0 -100.5 26.5t-34.5 89.5v230h-68v96h105z" />
    <glyph glyph-name="asciitilde" unicode="~" 
d="M372 215q-33 0 -58.5 9t-54.5 26q-26 14 -49.5 25t-47.5 11q-20 0 -35.5 -7.5t-35.5 -21.5l-45 77q16 26 48.5 44t73.5 18q33 0 58.5 -9.5t54.5 -26.5q26 -14 49.5 -25t47.5 -11q20 0 35.5 7.5t35.5 21.5l45 -78q-16 -26 -48.5 -43t-73.5 -17z" />
    <glyph glyph-name="uni00A0" unicode="&#xa0;" horiz-adv-x="212" 
 />
    <glyph glyph-name="exclamdown" unicode="&#xa1;" horiz-adv-x="292" 
d="M73 -174v195l41 288h63l42 -288v-195h-146zM146 366q-45 0 -64 19t-19 51v30q0 32 19 51t64 19t64 -19t19 -51v-30q0 -32 -19 -51t-64 -19z" />
    <glyph glyph-name="cent" unicode="&#xa2;" horiz-adv-x="501" 
d="M214 -114v107q-88 14 -133 78.5t-45 186.5t45 186.5t133 78.5v107h100v-106q116 -18 147 -121l-97 -55q-7 65 -62 79v-338q29 8 45 27.5t24 53.5l97 -57q-17 -54 -55.5 -83.5t-98.5 -37.5v-106h-100zM167 186q0 -78 59 -96v336q-59 -18 -59 -96v-144z" />
    <glyph glyph-name="sterling" unicode="&#xa3;" horiz-adv-x="513" 
d="M58 0v131q34 17 55 46t21 78q0 11 -1.5 20.5t-3.5 19.5h-101v114h59q-7 21 -11 44t-4 51q0 100 56 153t173 53q75 0 121 -29.5t82 -86.5l-104 -73q-20 32 -41.5 49.5t-51.5 17.5q-48 0 -69.5 -20.5t-21.5 -75.5q0 -20 3.5 -41t8.5 -42h164v-114h-134q5 -22 5 -36
q0 -63 -27.5 -93t-76.5 -32v-14h332v-120h-433z" />
    <glyph glyph-name="yen" unicode="&#xa5;" horiz-adv-x="588" 
d="M364 134v-134h-145v134h-150v83h150v78h-150v83h98l-152 320h158l116 -286h16l116 286h152l-155 -320h96v-83h-150v-78h150v-83h-150z" />
    <glyph glyph-name="brokenbar" unicode="&#xa6;" horiz-adv-x="370" 
d="M126 402v358h118v-358h-118zM126 -138v358h118v-358h-118z" />
    <glyph glyph-name="section" unicode="&#xa7;" horiz-adv-x="510" 
d="M440 12q0 -88 -51.5 -130t-145.5 -42q-54 0 -98.5 16t-83.5 54l67 83q23 -26 51 -39.5t66 -13.5q42 0 60.5 16.5t18.5 49.5q0 29 -16.5 44t-59.5 28l-71 21q-78 23 -106.5 60.5t-28.5 87.5q0 48 22.5 82.5t73.5 56.5v16q-33 23 -51 54.5t-18 81.5q0 88 51.5 130t145.5 42
q54 0 98.5 -16t83.5 -54l-67 -83q-23 26 -51 39.5t-66 13.5q-42 0 -60.5 -16.5t-18.5 -49.5q0 -29 16.5 -44t59.5 -28l71 -21q78 -23 106.5 -60.5t28.5 -87.5q0 -48 -22.5 -82.5t-73.5 -56.5v-16q33 -23 51 -54.5t18 -81.5zM353 261q0 32 -14 52.5t-55 32.5l-70 21
q-16 5 -30 11q-16 -20 -22 -41.5t-6 -47.5q0 -32 14 -52.5t55 -32.5l70 -21q16 -5 30 -11q16 20 22 41.5t6 47.5z" />
    <glyph glyph-name="dieresis" unicode="&#xa8;" 
d="M174 602q-42 0 -57.5 15.5t-15.5 42.5v29q0 27 15.5 42.5t57.5 15.5t57.5 -15.5t15.5 -42.5v-29q0 -27 -15.5 -42.5t-57.5 -15.5zM366 602q-42 0 -57.5 15.5t-15.5 42.5v29q0 27 15.5 42.5t57.5 15.5t57.5 -15.5t15.5 -42.5v-29q0 -27 -15.5 -42.5t-57.5 -15.5z" />
    <glyph glyph-name="copyright" unicode="&#xa9;" horiz-adv-x="715" 
d="M357 -12q-73 0 -132.5 24t-101.5 69.5t-65 113t-23 154.5t23 154.5t65 113t101.5 69.5t132.5 24t132.5 -24t101.5 -69.5t65 -113t23 -154.5t-23 -154.5t-65 -113t-101.5 -69.5t-132.5 -24zM357 46q58 0 104.5 20t79.5 55.5t50.5 84t17.5 105.5v75q0 57 -17.5 105.5
t-50.5 84t-79.5 55.5t-104.5 20t-104.5 -20t-79.5 -55.5t-50.5 -84t-17.5 -105.5v-75q0 -57 17.5 -105.5t50.5 -84t79.5 -55.5t104.5 -20zM363 132q-93 0 -141 53.5t-48 163.5t48 163.5t141 53.5q69 0 109 -30.5t59 -81.5l-94 -46q-11 29 -27.5 45.5t-46.5 16.5
q-62 0 -62 -70v-102q0 -70 62 -70q30 0 49.5 17t30.5 46l95 -46q-9 -23 -23.5 -43.5t-35.5 -36t-50 -24.5t-66 -9z" />
    <glyph glyph-name="ordfeminine" unicode="&#xaa;" horiz-adv-x="409" 
d="M236 401q-6 -32 -29.5 -49.5t-61.5 -17.5q-49 0 -75.5 26t-26.5 78q0 61 35 87.5t109 26.5h49v29q0 30 -12 43.5t-44 13.5q-50 0 -76 -46l-52 48q23 35 55 52.5t85 17.5q142 0 142 -127v-169h35v-72h-64q-23 0 -40 15.5t-20 43.5h-9zM190 497q-27 0 -39.5 -11t-12.5 -31
v-19q0 -37 45 -37q23 0 38 13.5t15 40.5v44h-46z" />
    <glyph glyph-name="guillemotleft" unicode="&#xab;" horiz-adv-x="508" 
d="M202 73l-167 141v119l167 141l41 -87l-101 -106v-15l101 -106zM422 73l-167 141v119l167 141l41 -87l-101 -106v-15l101 -106z" />
    <glyph glyph-name="logicalnot" unicode="&#xac;" 
d="M367 78v175h-312v109h430v-284h-118z" />
    <glyph glyph-name="uni00AD" unicode="&#xad;" horiz-adv-x="360" 
d="M45 238v135h270v-135h-270z" />
    <glyph glyph-name="registered" unicode="&#xae;" horiz-adv-x="420" 
d="M210 298q-38 0 -72 13t-59 38.5t-39.5 64t-14.5 90.5t14.5 90.5t39.5 64t59 38.5t72 13t72 -13t59 -38.5t39.5 -64t14.5 -90.5t-14.5 -90.5t-39.5 -64t-59 -38.5t-72 -13zM210 340q60 0 97.5 36.5t37.5 102.5v50q0 66 -37.5 102.5t-97.5 36.5t-97.5 -36.5t-37.5 -102.5
v-50q0 -66 37.5 -102.5t97.5 -36.5zM189 400h-58v208h91q39 0 57 -17t18 -55q0 -49 -32 -64l37 -72h-64l-28 64h-21v-64zM213 509q12 0 18 4t6 16v14q0 12 -6 16t-18 4h-24v-54h24z" />
    <glyph glyph-name="macron" unicode="&#xaf;" 
d="M132 727h276v-103h-276v103z" />
    <glyph glyph-name="degree" unicode="&#xb0;" horiz-adv-x="422" 
d="M211 352q-37 0 -69 13t-56 36t-37.5 56t-13.5 74q0 40 13.5 73.5t37.5 56.5t56 36t69 13t69 -13t56 -36t37.5 -56.5t13.5 -73.5q0 -41 -13.5 -74t-37.5 -56t-56 -36t-69 -13zM211 440q37 0 57.5 23.5t20.5 67.5t-20.5 67.5t-57.5 23.5t-57.5 -23.5t-20.5 -67.5
t20.5 -67.5t57.5 -23.5z" />
    <glyph glyph-name="plusminus" unicode="&#xb1;" 
d="M210 204v148h-155v109h155v148h120v-148h155v-109h-155v-148h-120zM55 0v105h430v-105h-430z" />
    <glyph glyph-name="twosuperior" unicode="&#xb2;" horiz-adv-x="320" 
d="M292 329h-263v84l97 84q36 31 48 49t12 41v1q0 19 -11.5 28t-28.5 9q-23 0 -34 -14t-17 -33l-77 29q14 42 45.5 69.5t91.5 27.5q68 0 99.5 -29t31.5 -83q0 -24 -6.5 -43t-19 -36.5t-32 -34t-44.5 -34.5l-55 -40h163v-75z" />
    <glyph glyph-name="threesuperior" unicode="&#xb3;" horiz-adv-x="320" 
d="M143 555q18 0 28.5 10t10.5 23v8q0 13 -10.5 23t-28.5 10q-38 0 -66 -41l-58 55q26 31 56.5 46t72.5 15q66 0 100 -24.5t34 -75.5q0 -35 -20 -56t-49 -23v-12q35 -3 55 -23.5t20 -56.5q0 -57 -37 -83.5t-103 -26.5q-54 0 -86 21.5t-52 50.5l68 53q11 -20 27.5 -35
t42.5 -15q23 0 31.5 10.5t8.5 26.5v8q0 16 -8.5 26.5t-31.5 10.5h-37v75h32z" />
    <glyph glyph-name="acute" unicode="&#xb4;" 
d="M285 579l-82 39l92 198l119 -58z" />
    <glyph glyph-name="mu" unicode="&#xb5;" horiz-adv-x="545" 
d="M55 -200v725h140v-330q0 -93 65 -93q32 0 55.5 19.5t23.5 54.5v349h140v-525h-140v89h-16q-5 -48 -27 -74.5t-60 -26.5q-26 0 -43 10t-23 31h-18l41 -129v-100h-138z" />
    <glyph glyph-name="paragraph" unicode="&#xb6;" horiz-adv-x="609" 
d="M215 266q-44 0 -79 15.5t-60 44t-38 68.5t-13 88t13 88t38 68.5t60 44t79 15.5h349v-95h-60v-752h-100v752h-89v-752h-100v415z" />
    <glyph glyph-name="periodcentered" unicode="&#xb7;" horiz-adv-x="324" 
d="M162 219q-42 0 -62 19.5t-20 52.5v26q0 33 20 52.5t62 19.5t62 -19.5t20 -52.5v-26q0 -33 -20 -52.5t-62 -19.5z" />
    <glyph glyph-name="cedilla" unicode="&#xb8;" 
d="M284 -210q-45 0 -72.5 11.5t-42.5 31.5l40 52q9 -11 23.5 -18t38.5 -7q23 0 32 6.5t9 23.5t-9 23.5t-32 6.5h-48l21 110h62l-18 -98h10q2 8 13 14t27 6q66 0 66 -71q0 -49 -31 -70t-89 -21z" />
    <glyph glyph-name="onesuperior" unicode="&#xb9;" horiz-adv-x="320" 
d="M50 329v75h82v207l-69 -39l-35 69l98 57h100v-294h72v-75h-248z" />
    <glyph glyph-name="ordmasculine" unicode="&#xba;" horiz-adv-x="393" 
d="M197 332q-38 0 -68 10.5t-51 33t-32.5 58.5t-11.5 87t11.5 87t32.5 58.5t51 33t68 10.5q37 0 67.5 -10.5t51.5 -33t32.5 -58.5t11.5 -87t-11.5 -87t-32.5 -58.5t-51.5 -33t-67.5 -10.5zM197 406q32 0 47.5 17.5t15.5 49.5v96q0 32 -15.5 49.5t-47.5 17.5t-47.5 -17.5
t-15.5 -49.5v-96q0 -32 15.5 -49.5t47.5 -17.5z" />
    <glyph glyph-name="guillemotright" unicode="&#xbb;" horiz-adv-x="507" 
d="M85 474l167 -141v-119l-167 -141l-41 87l101 106v15l-101 106zM305 474l167 -141v-119l-167 -141l-41 87l101 106v15l-101 106z" />
    <glyph glyph-name="onequarter" unicode="&#xbc;" horiz-adv-x="740" 
d="M50 329v75h82v207l-69 -39l-35 69l98 57h100v-294h72v-75h-248zM381 434l180 264h100l-180 -264h-100zM79 0l180 254h100l-180 -254h-100zM586 0v70h-150v78l128 221h112v-229h40v-70h-40v-70h-90zM586 266h-10l-69 -126h79v126z" />
    <glyph glyph-name="onehalf" unicode="&#xbd;" horiz-adv-x="740" 
d="M50 329v75h82v207l-69 -39l-35 69l98 57h100v-294h72v-75h-248zM381 434l180 264h100l-180 -264h-100zM79 0l180 254h100l-180 -254h-100zM712 0h-263v84l97 84q36 31 48 49t12 41v1q0 19 -11.5 28t-28.5 9q-23 0 -34 -14t-17 -33l-77 29q14 42 45.5 69.5t91.5 27.5
q68 0 99.5 -29t31.5 -83q0 -24 -6.5 -43t-19 -36.5t-32 -34t-44.5 -34.5l-55 -40h163v-75z" />
    <glyph glyph-name="threequarters" unicode="&#xbe;" horiz-adv-x="740" 
d="M143 555q18 0 28.5 10t10.5 23v8q0 13 -10.5 23t-28.5 10q-38 0 -66 -41l-58 55q26 31 56.5 46t72.5 15q66 0 100 -24.5t34 -75.5q0 -35 -20 -56t-49 -23v-12q35 -3 55 -23.5t20 -56.5q0 -57 -37 -83.5t-103 -26.5q-54 0 -86 21.5t-52 50.5l68 53q11 -20 27.5 -35
t42.5 -15q23 0 31.5 10.5t8.5 26.5v8q0 16 -8.5 26.5t-31.5 10.5h-37v75h32zM381 434l180 264h100l-180 -264h-100zM79 0l180 254h100l-180 -254h-100zM586 0v70h-150v78l128 221h112v-229h40v-70h-40v-70h-90zM586 266h-10l-69 -126h79v126z" />
    <glyph glyph-name="questiondown" unicode="&#xbf;" horiz-adv-x="447" 
d="M236 -186q-107 0 -160 51t-53 148q0 45 12 80.5t33 61t50 41t62 22.5v76h132v-154q-74 -3 -107.5 -26.5t-33.5 -80.5v-22q0 -78 70 -78q36 0 56.5 24.5t28.5 64.5l114 -48q-8 -31 -23 -60t-39.5 -51t-59 -35.5t-82.5 -13.5zM244 366q-45 0 -64 19t-19 51v30q0 32 19 51
t64 19t64 -19t19 -51v-30q0 -32 -19 -51t-64 -19z" />
    <glyph glyph-name="Agrave" unicode="&#xc0;" horiz-adv-x="618" 
d="M457 0l-43 171h-214l-43 -171h-137l198 698h182l198 -698h-141zM336 447l-22 121h-16l-22 -121l-41 -161h144zM165 919l119 58l92 -198l-82 -39z" />
    <glyph glyph-name="Aacute" unicode="&#xc1;" horiz-adv-x="618" 
d="M457 0l-43 171h-214l-43 -171h-137l198 698h182l198 -698h-141zM336 447l-22 121h-16l-22 -121l-41 -161h144zM324 740l-82 39l92 198l119 -58z" />
    <glyph glyph-name="Acircumflex" unicode="&#xc2;" horiz-adv-x="618" 
d="M457 0l-43 171h-214l-43 -171h-137l198 698h182l198 -698h-141zM336 447l-22 121h-16l-22 -121l-41 -161h144zM364 956l129 -162l-69 -55l-115 118l-115 -118l-69 55l129 162h110z" />
    <glyph glyph-name="Atilde" unicode="&#xc3;" horiz-adv-x="618" 
d="M457 0l-43 171h-214l-43 -171h-137l198 698h182l198 -698h-141zM336 447l-22 121h-16l-22 -121l-41 -161h144zM381 764q-18 0 -32 4t-42 18q-27 14 -42.5 19t-27.5 5q-17 0 -27 -6t-25 -20l-49 64q17 27 43.5 43.5t57.5 16.5q9 0 16.5 -1t15.5 -3t18 -6.5t24 -11.5
q27 -14 42.5 -19t27.5 -5q17 0 27 6t25 20l49 -64q-17 -27 -43.5 -43.5t-57.5 -16.5z" />
    <glyph glyph-name="Adieresis" unicode="&#xc4;" horiz-adv-x="618" 
d="M457 0l-43 171h-214l-43 -171h-137l198 698h182l198 -698h-141zM336 447l-22 121h-16l-22 -121l-41 -161h144zM213 765q-42 0 -57.5 15.5t-15.5 42.5v29q0 27 15.5 42.5t57.5 15.5t57.5 -15.5t15.5 -42.5v-29q0 -27 -15.5 -42.5t-57.5 -15.5zM405 765q-42 0 -57.5 15.5
t-15.5 42.5v29q0 27 15.5 42.5t57.5 15.5t57.5 -15.5t15.5 -42.5v-29q0 -27 -15.5 -42.5t-57.5 -15.5z" />
    <glyph glyph-name="Aring" unicode="&#xc5;" horiz-adv-x="618" 
d="M457 0l-43 171h-214l-43 -171h-137l198 698h182l198 -698h-141zM336 447l-22 121h-16l-22 -121l-41 -161h144zM309 719q-66 0 -104.5 38t-38.5 105t38.5 105t104.5 38t104.5 -38t38.5 -105t-38.5 -105t-104.5 -38zM309 791q23 0 37 10.5t14 33.5v54q0 23 -14 33.5
t-37 10.5t-37 -10.5t-14 -33.5v-54q0 -23 14 -33.5t37 -10.5z" />
    <glyph glyph-name="AE" unicode="&#xc6;" horiz-adv-x="875" 
d="M394 171h-180l-70 -171h-144l298 698h528v-125h-289v-158h245v-124h-245v-166h289v-125h-432v171zM378 573l-117 -287h133v287h-16z" />
    <glyph glyph-name="Ccedilla" unicode="&#xc7;" horiz-adv-x="589" 
d="M324 584q-60 0 -94 -36t-34 -108v-182q0 -72 34 -108t94 -36q28 0 48.5 8.5t34.5 23t23 34t16 42.5l118 -68q-36 -79 -90.5 -122.5t-145.5 -43.5l-10 -56h10q2 8 13 14t27 6q66 0 66 -71q0 -49 -31 -70t-89 -21q-45 0 -72.5 11.5t-42.5 31.5l40 52q9 -11 23.5 -18
t38.5 -7q23 0 32 6.5t9 23.5t-9 23.5t-32 6.5h-48l14 72q-51 8 -92 31.5t-70 66t-45 105.5t-16 149q0 98 20.5 167.5t57 113.5t88 64.5t114.5 20.5q94 0 148.5 -40.5t89.5 -122.5l-124 -64q-6 22 -13.5 41t-20.5 32t-32.5 20.5t-47.5 7.5z" />
    <glyph glyph-name="Egrave" unicode="&#xc8;" horiz-adv-x="549" 
d="M68 0v698h432v-125h-289v-158h245v-124h-245v-166h289v-125h-432zM140 919l119 58l92 -198l-82 -39z" />
    <glyph glyph-name="Eacute" unicode="&#xc9;" horiz-adv-x="549" 
d="M68 0v698h432v-125h-289v-158h245v-124h-245v-166h289v-125h-432zM299 740l-82 39l92 198l119 -58z" />
    <glyph glyph-name="Ecircumflex" unicode="&#xca;" horiz-adv-x="549" 
d="M68 0v698h432v-125h-289v-158h245v-124h-245v-166h289v-125h-432zM339 956l129 -162l-69 -55l-115 118l-115 -118l-69 55l129 162h110z" />
    <glyph glyph-name="Edieresis" unicode="&#xcb;" horiz-adv-x="549" 
d="M68 0v698h432v-125h-289v-158h245v-124h-245v-166h289v-125h-432zM188 765q-42 0 -57.5 15.5t-15.5 42.5v29q0 27 15.5 42.5t57.5 15.5t57.5 -15.5t15.5 -42.5v-29q0 -27 -15.5 -42.5t-57.5 -15.5zM380 765q-42 0 -57.5 15.5t-15.5 42.5v29q0 27 15.5 42.5t57.5 15.5
t57.5 -15.5t15.5 -42.5v-29q0 -27 -15.5 -42.5t-57.5 -15.5z" />
    <glyph glyph-name="Igrave" unicode="&#xcc;" horiz-adv-x="397" 
d="M45 0v113h82v472h-82v113h307v-113h-82v-472h82v-113h-307zM56 919l119 58l92 -198l-82 -39z" />
    <glyph glyph-name="Iacute" unicode="&#xcd;" horiz-adv-x="397" 
d="M45 0v113h82v472h-82v113h307v-113h-82v-472h82v-113h-307zM215 740l-82 39l92 198l119 -58z" />
    <glyph glyph-name="Icircumflex" unicode="&#xce;" horiz-adv-x="397" 
d="M45 0v113h82v472h-82v113h307v-113h-82v-472h82v-113h-307zM255 956l129 -162l-69 -55l-115 118l-115 -118l-69 55l129 162h110z" />
    <glyph glyph-name="Idieresis" unicode="&#xcf;" horiz-adv-x="397" 
d="M45 0v113h82v472h-82v113h307v-113h-82v-472h82v-113h-307zM104 765q-42 0 -57.5 15.5t-15.5 42.5v29q0 27 15.5 42.5t57.5 15.5t57.5 -15.5t15.5 -42.5v-29q0 -27 -15.5 -42.5t-57.5 -15.5zM296 765q-42 0 -57.5 15.5t-15.5 42.5v29q0 27 15.5 42.5t57.5 15.5
t57.5 -15.5t15.5 -42.5v-29q0 -27 -15.5 -42.5t-57.5 -15.5z" />
    <glyph glyph-name="Eth" unicode="&#xd0;" horiz-adv-x="640" 
d="M78 302h-66v109h66v287h245q64 0 114.5 -19.5t85.5 -61.5t54 -108t19 -160t-19 -160t-54 -108t-85.5 -61.5t-114.5 -19.5h-245v302zM323 125q121 0 121 140v168q0 140 -121 140h-102v-162h105v-109h-105v-177h102z" />
    <glyph glyph-name="Ntilde" unicode="&#xd1;" horiz-adv-x="654" 
d="M254 374l-44 111h-16l8 -117v-368h-134v698h156l176 -374l44 -111h16l-8 117v368h134v-698h-156zM399 764q-18 0 -32 4t-42 18q-27 14 -42.5 19t-27.5 5q-17 0 -27 -6t-25 -20l-49 64q17 27 43.5 43.5t57.5 16.5q9 0 16.5 -1t15.5 -3t18 -6.5t24 -11.5q27 -14 42.5 -19
t27.5 -5q17 0 27 6t25 20l49 -64q-17 -27 -43.5 -43.5t-57.5 -16.5z" />
    <glyph glyph-name="Ograve" unicode="&#xd2;" horiz-adv-x="642" 
d="M321 -12q-63 0 -114 19.5t-87 63t-56 112t-20 166.5t20 166.5t56 112t87 63t114 19.5t114 -19.5t87 -63t56 -112t20 -166.5t-20 -166.5t-56 -112t-87 -63t-114 -19.5zM321 114q60 0 92.5 36t32.5 108v182q0 72 -32.5 108t-92.5 36t-92.5 -36t-32.5 -108v-182
q0 -72 32.5 -108t92.5 -36zM177 919l119 58l92 -198l-82 -39z" />
    <glyph glyph-name="Oacute" unicode="&#xd3;" horiz-adv-x="642" 
d="M321 -12q-63 0 -114 19.5t-87 63t-56 112t-20 166.5t20 166.5t56 112t87 63t114 19.5t114 -19.5t87 -63t56 -112t20 -166.5t-20 -166.5t-56 -112t-87 -63t-114 -19.5zM321 114q60 0 92.5 36t32.5 108v182q0 72 -32.5 108t-92.5 36t-92.5 -36t-32.5 -108v-182
q0 -72 32.5 -108t92.5 -36zM336 740l-82 39l92 198l119 -58z" />
    <glyph glyph-name="Ocircumflex" unicode="&#xd4;" horiz-adv-x="642" 
d="M321 -12q-63 0 -114 19.5t-87 63t-56 112t-20 166.5t20 166.5t56 112t87 63t114 19.5t114 -19.5t87 -63t56 -112t20 -166.5t-20 -166.5t-56 -112t-87 -63t-114 -19.5zM321 114q60 0 92.5 36t32.5 108v182q0 72 -32.5 108t-92.5 36t-92.5 -36t-32.5 -108v-182
q0 -72 32.5 -108t92.5 -36zM376 956l129 -162l-69 -55l-115 118l-115 -118l-69 55l129 162h110z" />
    <glyph glyph-name="Otilde" unicode="&#xd5;" horiz-adv-x="642" 
d="M321 -12q-63 0 -114 19.5t-87 63t-56 112t-20 166.5t20 166.5t56 112t87 63t114 19.5t114 -19.5t87 -63t56 -112t20 -166.5t-20 -166.5t-56 -112t-87 -63t-114 -19.5zM321 114q60 0 92.5 36t32.5 108v182q0 72 -32.5 108t-92.5 36t-92.5 -36t-32.5 -108v-182
q0 -72 32.5 -108t92.5 -36zM393 764q-18 0 -32 4t-42 18q-27 14 -42.5 19t-27.5 5q-17 0 -27 -6t-25 -20l-49 64q17 27 43.5 43.5t57.5 16.5q9 0 16.5 -1t15.5 -3t18 -6.5t24 -11.5q27 -14 42.5 -19t27.5 -5q17 0 27 6t25 20l49 -64q-17 -27 -43.5 -43.5t-57.5 -16.5z" />
    <glyph glyph-name="Odieresis" unicode="&#xd6;" horiz-adv-x="642" 
d="M321 -12q-63 0 -114 19.5t-87 63t-56 112t-20 166.5t20 166.5t56 112t87 63t114 19.5t114 -19.5t87 -63t56 -112t20 -166.5t-20 -166.5t-56 -112t-87 -63t-114 -19.5zM321 114q60 0 92.5 36t32.5 108v182q0 72 -32.5 108t-92.5 36t-92.5 -36t-32.5 -108v-182
q0 -72 32.5 -108t92.5 -36zM225 765q-42 0 -57.5 15.5t-15.5 42.5v29q0 27 15.5 42.5t57.5 15.5t57.5 -15.5t15.5 -42.5v-29q0 -27 -15.5 -42.5t-57.5 -15.5zM417 765q-42 0 -57.5 15.5t-15.5 42.5v29q0 27 15.5 42.5t57.5 15.5t57.5 -15.5t15.5 -42.5v-29
q0 -27 -15.5 -42.5t-57.5 -15.5z" />
    <glyph glyph-name="multiply" unicode="&#xd7;" 
d="M273 231l-135 -135l-77 77l135 135l-135 134l77 77l135 -134l134 134l77 -77l-134 -134l134 -135l-77 -77z" />
    <glyph glyph-name="Oslash" unicode="&#xd8;" horiz-adv-x="642" 
d="M321 -12q-79 0 -137 31l-43 -72l-87 54l52 88q-30 44 -46 108t-16 152q0 98 20 166.5t56 112t87 63t114 19.5q79 0 137 -31l43 72l87 -54l-52 -87q30 -44 46 -108t16 -153q0 -98 -20 -166.5t-56 -112t-87 -63t-114 -19.5zM191 200l122 218l90 153q-31 22 -82 22
q-65 0 -99 -37t-34 -112v-123l-13 -121h16zM238 128q34 -23 83 -23q65 0 99 37t34 112v131l13 113h-16l-122 -218z" />
    <glyph glyph-name="Ugrave" unicode="&#xd9;" horiz-adv-x="630" 
d="M207 698v-453q0 -69 23.5 -99.5t84.5 -30.5t84.5 30.5t23.5 99.5v453h143v-434q0 -74 -13 -126t-42.5 -85.5t-77.5 -49t-118 -15.5t-118 15.5t-77.5 49t-42.5 85.5t-13 126v434h143zM171 919l119 58l92 -198l-82 -39z" />
    <glyph glyph-name="Uacute" unicode="&#xda;" horiz-adv-x="630" 
d="M207 698v-453q0 -69 23.5 -99.5t84.5 -30.5t84.5 30.5t23.5 99.5v453h143v-434q0 -74 -13 -126t-42.5 -85.5t-77.5 -49t-118 -15.5t-118 15.5t-77.5 49t-42.5 85.5t-13 126v434h143zM330 740l-82 39l92 198l119 -58z" />
    <glyph glyph-name="Ucircumflex" unicode="&#xdb;" horiz-adv-x="630" 
d="M207 698v-453q0 -69 23.5 -99.5t84.5 -30.5t84.5 30.5t23.5 99.5v453h143v-434q0 -74 -13 -126t-42.5 -85.5t-77.5 -49t-118 -15.5t-118 15.5t-77.5 49t-42.5 85.5t-13 126v434h143zM370 956l129 -162l-69 -55l-115 118l-115 -118l-69 55l129 162h110z" />
    <glyph glyph-name="Udieresis" unicode="&#xdc;" horiz-adv-x="630" 
d="M207 698v-453q0 -69 23.5 -99.5t84.5 -30.5t84.5 30.5t23.5 99.5v453h143v-434q0 -74 -13 -126t-42.5 -85.5t-77.5 -49t-118 -15.5t-118 15.5t-77.5 49t-42.5 85.5t-13 126v434h143zM219 765q-42 0 -57.5 15.5t-15.5 42.5v29q0 27 15.5 42.5t57.5 15.5t57.5 -15.5
t15.5 -42.5v-29q0 -27 -15.5 -42.5t-57.5 -15.5zM411 765q-42 0 -57.5 15.5t-15.5 42.5v29q0 27 15.5 42.5t57.5 15.5t57.5 -15.5t15.5 -42.5v-29q0 -27 -15.5 -42.5t-57.5 -15.5z" />
    <glyph glyph-name="Yacute" unicode="&#xdd;" horiz-adv-x="579" 
d="M218 0v263l-213 435h156l124 -286h16l120 286h153l-213 -435v-263h-143zM305 740l-82 39l92 198l119 -58z" />
    <glyph glyph-name="Thorn" unicode="&#xde;" horiz-adv-x="595" 
d="M68 0v698h143v-122h159q94 0 143 -60t49 -160t-49 -160t-143 -60h-159v-136h-143zM211 261h141q29 0 45.5 15t16.5 50v60q0 35 -16.5 50t-45.5 15h-141v-190z" />
    <glyph glyph-name="germandbls" unicode="&#xdf;" horiz-adv-x="628" 
d="M609 170q0 -88 -47 -135t-129 -47q-115 0 -168 76l75 77q20 -26 43 -37.5t48 -11.5q23 0 36.5 14.5t13.5 43.5q0 26 -17 40.5t-47 27.5l-28 12q-48 20 -72 54t-24 92q0 60 30.5 99.5t92.5 47.5v14q0 61 -23 86t-73 25t-73 -25t-23 -86v-537h-140v416h-66v109h66v16
q0 106 60.5 158.5t169.5 52.5t169.5 -52.5t60.5 -158.5v-104h-55q-40 0 -54 -11.5t-14 -39.5q0 -13 3 -21.5t9.5 -14.5t16 -11t23.5 -11l28 -12q57 -24 82.5 -58t25.5 -88z" />
    <glyph glyph-name="agrave" unicode="&#xe0;" horiz-adv-x="516" 
d="M407 0q-82 0 -89 91h-13q-8 -48 -43 -75.5t-89 -27.5q-71 0 -107 40.5t-36 112.5q0 86 52.5 125t146.5 39h76v41q0 41 -17 61t-57 20q-35 0 -58.5 -17.5t-41.5 -46.5l-83 74q32 47 78 73.5t118 26.5q103 0 152 -48t49 -143v-237h43v-109h-81zM229 86q31 0 53.5 17.5
t22.5 54.5v65h-63q-72 0 -72 -60v-19q0 -30 15.5 -44t43.5 -14zM101 758l119 58l92 -198l-82 -39z" />
    <glyph glyph-name="aacute" unicode="&#xe1;" horiz-adv-x="516" 
d="M407 0q-82 0 -89 91h-13q-8 -48 -43 -75.5t-89 -27.5q-71 0 -107 40.5t-36 112.5q0 86 52.5 125t146.5 39h76v41q0 41 -17 61t-57 20q-35 0 -58.5 -17.5t-41.5 -46.5l-83 74q32 47 78 73.5t118 26.5q103 0 152 -48t49 -143v-237h43v-109h-81zM229 86q31 0 53.5 17.5
t22.5 54.5v65h-63q-72 0 -72 -60v-19q0 -30 15.5 -44t43.5 -14zM260 579l-82 39l92 198l119 -58z" />
    <glyph glyph-name="acircumflex" unicode="&#xe2;" horiz-adv-x="516" 
d="M407 0q-82 0 -89 91h-13q-8 -48 -43 -75.5t-89 -27.5q-71 0 -107 40.5t-36 112.5q0 86 52.5 125t146.5 39h76v41q0 41 -17 61t-57 20q-35 0 -58.5 -17.5t-41.5 -46.5l-83 74q32 47 78 73.5t118 26.5q103 0 152 -48t49 -143v-237h43v-109h-81zM229 86q31 0 53.5 17.5
t22.5 54.5v65h-63q-72 0 -72 -60v-19q0 -30 15.5 -44t43.5 -14zM300 796l129 -162l-69 -55l-115 118l-115 -118l-69 55l129 162h110z" />
    <glyph glyph-name="atilde" unicode="&#xe3;" horiz-adv-x="516" 
d="M407 0q-82 0 -89 91h-13q-8 -48 -43 -75.5t-89 -27.5q-71 0 -107 40.5t-36 112.5q0 86 52.5 125t146.5 39h76v41q0 41 -17 61t-57 20q-35 0 -58.5 -17.5t-41.5 -46.5l-83 74q32 47 78 73.5t118 26.5q103 0 152 -48t49 -143v-237h43v-109h-81zM229 86q31 0 53.5 17.5
t22.5 54.5v65h-63q-72 0 -72 -60v-19q0 -30 15.5 -44t43.5 -14zM317 603q-18 0 -32 4t-42 18q-27 14 -42.5 19t-27.5 5q-17 0 -27 -6t-25 -20l-49 64q17 27 43.5 43.5t57.5 16.5q9 0 16.5 -1t15.5 -3t18 -6.5t24 -11.5q27 -14 42.5 -19t27.5 -5q17 0 27 6t25 20l49 -64
q-17 -27 -43.5 -43.5t-57.5 -16.5z" />
    <glyph glyph-name="adieresis" unicode="&#xe4;" horiz-adv-x="516" 
d="M407 0q-82 0 -89 91h-13q-8 -48 -43 -75.5t-89 -27.5q-71 0 -107 40.5t-36 112.5q0 86 52.5 125t146.5 39h76v41q0 41 -17 61t-57 20q-35 0 -58.5 -17.5t-41.5 -46.5l-83 74q32 47 78 73.5t118 26.5q103 0 152 -48t49 -143v-237h43v-109h-81zM229 86q31 0 53.5 17.5
t22.5 54.5v65h-63q-72 0 -72 -60v-19q0 -30 15.5 -44t43.5 -14zM149 602q-42 0 -57.5 15.5t-15.5 42.5v29q0 27 15.5 42.5t57.5 15.5t57.5 -15.5t15.5 -42.5v-29q0 -27 -15.5 -42.5t-57.5 -15.5zM341 602q-42 0 -57.5 15.5t-15.5 42.5v29q0 27 15.5 42.5t57.5 15.5
t57.5 -15.5t15.5 -42.5v-29q0 -27 -15.5 -42.5t-57.5 -15.5z" />
    <glyph glyph-name="aring" unicode="&#xe5;" horiz-adv-x="516" 
d="M407 0q-82 0 -89 91h-13q-8 -48 -43 -75.5t-89 -27.5q-71 0 -107 40.5t-36 112.5q0 86 52.5 125t146.5 39h76v41q0 41 -17 61t-57 20q-35 0 -58.5 -17.5t-41.5 -46.5l-83 74q32 47 78 73.5t118 26.5q103 0 152 -48t49 -143v-237h43v-109h-81zM229 86q31 0 53.5 17.5
t22.5 54.5v65h-63q-72 0 -72 -60v-19q0 -30 15.5 -44t43.5 -14zM245 558q-66 0 -104.5 38t-38.5 105t38.5 105t104.5 38t104.5 -38t38.5 -105t-38.5 -105t-104.5 -38zM245 630q23 0 37 10.5t14 33.5v54q0 23 -14 33.5t-37 10.5t-37 -10.5t-14 -33.5v-54q0 -23 14 -33.5
t37 -10.5z" />
    <glyph glyph-name="ae" unicode="&#xe6;" horiz-adv-x="783" 
d="M242 226q-36 0 -54 -17t-18 -46v-19q0 -30 15.5 -44t43.5 -14q31 0 56.5 17.5t25.5 54.5v68h-69zM606 308v34q0 90 -77 90t-77 -90v-34h154zM553 98q39 0 66.5 17.5t50.5 48.5l71 -83q-31 -42 -77.5 -67.5t-110.5 -25.5q-30 0 -59.5 6.5t-53.5 19.5t-40.5 32.5
t-22.5 44.5h-16q-13 -47 -58.5 -75t-120.5 -28t-113.5 40.5t-38.5 112.5q0 86 52.5 126.5t146.5 40.5h82v38q0 81 -80 81q-35 0 -58.5 -17.5t-41.5 -46.5l-83 74q32 46 76 73t110 27q21 0 43.5 -4.5t42 -16.5t34 -32t19.5 -50h13q10 54 53 78.5t100 24.5q105 0 159 -68.5
t54 -208.5v-34h-300v-31q0 -44 27 -70.5t74 -26.5z" />
    <glyph glyph-name="ccedilla" unicode="&#xe7;" horiz-adv-x="467" 
d="M253 537q78 0 124.5 -35.5t66.5 -100.5l-113 -50q-5 38 -23 56.5t-55 18.5q-76 0 -76 -90v-147q0 -90 76 -90q38 0 56.5 19.5t27.5 59.5l109 -48q-41 -138 -185 -142l-10 -56h10q2 8 13 14t27 6q66 0 66 -71q0 -49 -31 -70t-89 -21q-45 0 -72.5 11.5t-42.5 31.5l40 52
q9 -11 23.5 -18t38.5 -7q23 0 32 6.5t9 23.5t-9 23.5t-32 6.5h-48l14 72q-84 16 -126.5 82.5t-42.5 187.5q0 140 56 207.5t166 67.5z" />
    <glyph glyph-name="egrave" unicode="&#xe8;" horiz-adv-x="508" 
d="M268 -12q-108 0 -172.5 68.5t-64.5 205.5q0 140 56.5 207.5t166.5 67.5t166.5 -67.5t56.5 -207.5v-34h-300v-33q0 -44 27 -70.5t74 -26.5q39 0 66.5 17.5t50.5 48.5l71 -83q-32 -43 -81.5 -68t-116.5 -25zM254 432q-77 0 -77 -90v-32h154v32q0 90 -77 90zM111 758l119 58
l92 -198l-82 -39z" />
    <glyph glyph-name="eacute" unicode="&#xe9;" horiz-adv-x="508" 
d="M268 -12q-108 0 -172.5 68.5t-64.5 205.5q0 140 56.5 207.5t166.5 67.5t166.5 -67.5t56.5 -207.5v-34h-300v-33q0 -44 27 -70.5t74 -26.5q39 0 66.5 17.5t50.5 48.5l71 -83q-32 -43 -81.5 -68t-116.5 -25zM254 432q-77 0 -77 -90v-32h154v32q0 90 -77 90zM270 579l-82 39
l92 198l119 -58z" />
    <glyph glyph-name="ecircumflex" unicode="&#xea;" horiz-adv-x="508" 
d="M268 -12q-108 0 -172.5 68.5t-64.5 205.5q0 140 56.5 207.5t166.5 67.5t166.5 -67.5t56.5 -207.5v-34h-300v-33q0 -44 27 -70.5t74 -26.5q39 0 66.5 17.5t50.5 48.5l71 -83q-32 -43 -81.5 -68t-116.5 -25zM254 432q-77 0 -77 -90v-32h154v32q0 90 -77 90zM310 796
l129 -162l-69 -55l-115 118l-115 -118l-69 55l129 162h110z" />
    <glyph glyph-name="edieresis" unicode="&#xeb;" horiz-adv-x="508" 
d="M268 -12q-108 0 -172.5 68.5t-64.5 205.5q0 140 56.5 207.5t166.5 67.5t166.5 -67.5t56.5 -207.5v-34h-300v-33q0 -44 27 -70.5t74 -26.5q39 0 66.5 17.5t50.5 48.5l71 -83q-32 -43 -81.5 -68t-116.5 -25zM254 432q-77 0 -77 -90v-32h154v32q0 90 -77 90zM159 602
q-42 0 -57.5 15.5t-15.5 42.5v29q0 27 15.5 42.5t57.5 15.5t57.5 -15.5t15.5 -42.5v-29q0 -27 -15.5 -42.5t-57.5 -15.5zM351 602q-42 0 -57.5 15.5t-15.5 42.5v29q0 27 15.5 42.5t57.5 15.5t57.5 -15.5t15.5 -42.5v-29q0 -27 -15.5 -42.5t-57.5 -15.5z" />
    <glyph glyph-name="igrave" unicode="&#xec;" horiz-adv-x="262" 
d="M61 0v525h140v-525h-140zM-12 758l119 58l92 -198l-82 -39z" />
    <glyph glyph-name="iacute" unicode="&#xed;" horiz-adv-x="262" 
d="M61 0v525h140v-525h-140zM147 579l-82 39l92 198l119 -58z" />
    <glyph glyph-name="icircumflex" unicode="&#xee;" horiz-adv-x="262" 
d="M61 0v525h140v-525h-140zM187 796l113 -162l-69 -55l-99 118l-99 -118l-69 55l113 162h110z" />
    <glyph glyph-name="idieresis" unicode="&#xef;" horiz-adv-x="262" 
d="M61 0v525h140v-525h-140zM42 602q-42 0 -57.5 15.5t-15.5 42.5v29q0 27 15.5 42.5t57.5 15.5t57.5 -15.5t15.5 -42.5v-29q0 -27 -15.5 -42.5t-57.5 -15.5zM222 602q-42 0 -57.5 15.5t-15.5 42.5v29q0 27 15.5 42.5t57.5 15.5t57.5 -15.5t15.5 -42.5v-29
q0 -27 -15.5 -42.5t-57.5 -15.5z" />
    <glyph glyph-name="eth" unicode="&#xf0;" horiz-adv-x="544" 
d="M436 696l-68 -42q64 -69 98 -165t34 -237q0 -132 -59 -198t-175 -66t-175 66t-59 198q0 124 47 186t128 62q54 0 85 -24.5t46 -71.5h16q-12 52 -34 98t-56 88l-94 -57l-35 56l83 51q-57 54 -143 100h190q14 -9 27 -18.5t26 -20.5l83 51zM266 99q45 0 66.5 25t21.5 80v80
q0 55 -21.5 80t-66.5 25t-66.5 -25t-21.5 -80v-80q0 -55 21.5 -80t66.5 -25z" />
    <glyph glyph-name="ntilde" unicode="&#xf1;" 
d="M61 0v525h140v-89h16q6 21 16 39t25 32t35 22t46 8q71 0 108.5 -47.5t37.5 -132.5v-357h-140v330q0 93 -65 93q-32 0 -55.5 -19.5t-23.5 -54.5v-349h-140zM345 603q-18 0 -32 4t-42 18q-27 14 -42.5 19t-27.5 5q-17 0 -27 -6t-25 -20l-49 64q17 27 43.5 43.5t57.5 16.5
q9 0 16.5 -1t15.5 -3t18 -6.5t24 -11.5q27 -14 42.5 -19t27.5 -5q17 0 27 6t25 20l49 -64q-17 -27 -43.5 -43.5t-57.5 -16.5z" />
    <glyph glyph-name="ograve" unicode="&#xf2;" horiz-adv-x="508" 
d="M254 -12q-110 0 -166.5 67t-56.5 207t56.5 207.5t166.5 67.5t166.5 -67.5t56.5 -207.5t-56.5 -207t-166.5 -67zM254 99q77 0 77 90v147q0 90 -77 90t-77 -90v-147q0 -90 77 -90zM111 758l119 58l92 -198l-82 -39z" />
    <glyph glyph-name="oacute" unicode="&#xf3;" horiz-adv-x="508" 
d="M254 -12q-110 0 -166.5 67t-56.5 207t56.5 207.5t166.5 67.5t166.5 -67.5t56.5 -207.5t-56.5 -207t-166.5 -67zM254 99q77 0 77 90v147q0 90 -77 90t-77 -90v-147q0 -90 77 -90zM270 579l-82 39l92 198l119 -58z" />
    <glyph glyph-name="ocircumflex" unicode="&#xf4;" horiz-adv-x="508" 
d="M254 -12q-110 0 -166.5 67t-56.5 207t56.5 207.5t166.5 67.5t166.5 -67.5t56.5 -207.5t-56.5 -207t-166.5 -67zM254 99q77 0 77 90v147q0 90 -77 90t-77 -90v-147q0 -90 77 -90zM310 796l129 -162l-69 -55l-115 118l-115 -118l-69 55l129 162h110z" />
    <glyph glyph-name="otilde" unicode="&#xf5;" horiz-adv-x="508" 
d="M254 -12q-110 0 -166.5 67t-56.5 207t56.5 207.5t166.5 67.5t166.5 -67.5t56.5 -207.5t-56.5 -207t-166.5 -67zM254 99q77 0 77 90v147q0 90 -77 90t-77 -90v-147q0 -90 77 -90zM327 603q-18 0 -32 4t-42 18q-27 14 -42.5 19t-27.5 5q-17 0 -27 -6t-25 -20l-49 64
q17 27 43.5 43.5t57.5 16.5q9 0 16.5 -1t15.5 -3t18 -6.5t24 -11.5q27 -14 42.5 -19t27.5 -5q17 0 27 6t25 20l49 -64q-17 -27 -43.5 -43.5t-57.5 -16.5z" />
    <glyph glyph-name="odieresis" unicode="&#xf6;" horiz-adv-x="508" 
d="M254 -12q-110 0 -166.5 67t-56.5 207t56.5 207.5t166.5 67.5t166.5 -67.5t56.5 -207.5t-56.5 -207t-166.5 -67zM254 99q77 0 77 90v147q0 90 -77 90t-77 -90v-147q0 -90 77 -90zM159 602q-42 0 -57.5 15.5t-15.5 42.5v29q0 27 15.5 42.5t57.5 15.5t57.5 -15.5t15.5 -42.5
v-29q0 -27 -15.5 -42.5t-57.5 -15.5zM351 602q-42 0 -57.5 15.5t-15.5 42.5v29q0 27 15.5 42.5t57.5 15.5t57.5 -15.5t15.5 -42.5v-29q0 -27 -15.5 -42.5t-57.5 -15.5z" />
    <glyph glyph-name="divide" unicode="&#xf7;" 
d="M55 253v109h430v-109h-430zM270 47q-43 0 -60.5 17t-17.5 45v25q0 28 17.5 45t60.5 17t60.5 -17t17.5 -45v-25q0 -28 -17.5 -45t-60.5 -17zM270 419q-43 0 -60.5 17t-17.5 45v25q0 28 17.5 45t60.5 17t60.5 -17t17.5 -45v-25q0 -28 -17.5 -45t-60.5 -17z" />
    <glyph glyph-name="oslash" unicode="&#xf8;" horiz-adv-x="515" 
d="M254 -12q-73 0 -121 29l-51 -65l-71 56l57 76q-37 68 -37 178q0 140 56.5 207.5t166.5 67.5q72 0 122 -30l50 66l71 -56l-57 -77q37 -68 37 -178q0 -140 -56.5 -207t-166.5 -67zM169 194l85 133l60 86q-22 20 -60 20q-83 0 -83 -90v-38l-14 -111h12zM194 113
q21 -21 60 -21q83 0 83 90v38l14 111h-12l-85 -133z" />
    <glyph glyph-name="ugrave" unicode="&#xf9;" 
d="M339 89h-16q-6 -21 -16.5 -39t-25.5 -32t-35 -22t-47 -8q-70 0 -107 47.5t-37 132.5v357h140v-330q0 -93 65 -93q32 0 55.5 19.5t23.5 54.5v349h140v-525h-140v89zM124 758l119 58l92 -198l-82 -39z" />
    <glyph glyph-name="uacute" unicode="&#xfa;" 
d="M339 89h-16q-6 -21 -16.5 -39t-25.5 -32t-35 -22t-47 -8q-70 0 -107 47.5t-37 132.5v357h140v-330q0 -93 65 -93q32 0 55.5 19.5t23.5 54.5v349h140v-525h-140v89zM283 579l-82 39l92 198l119 -58z" />
    <glyph glyph-name="ucircumflex" unicode="&#xfb;" 
d="M339 89h-16q-6 -21 -16.5 -39t-25.5 -32t-35 -22t-47 -8q-70 0 -107 47.5t-37 132.5v357h140v-330q0 -93 65 -93q32 0 55.5 19.5t23.5 54.5v349h140v-525h-140v89zM323 796l129 -162l-69 -55l-115 118l-115 -118l-69 55l129 162h110z" />
    <glyph glyph-name="udieresis" unicode="&#xfc;" 
d="M339 89h-16q-6 -21 -16.5 -39t-25.5 -32t-35 -22t-47 -8q-70 0 -107 47.5t-37 132.5v357h140v-330q0 -93 65 -93q32 0 55.5 19.5t23.5 54.5v349h140v-525h-140v89zM172 602q-42 0 -57.5 15.5t-15.5 42.5v29q0 27 15.5 42.5t57.5 15.5t57.5 -15.5t15.5 -42.5v-29
q0 -27 -15.5 -42.5t-57.5 -15.5zM364 602q-42 0 -57.5 15.5t-15.5 42.5v29q0 27 15.5 42.5t57.5 15.5t57.5 -15.5t15.5 -42.5v-29q0 -27 -15.5 -42.5t-57.5 -15.5z" />
    <glyph glyph-name="yacute" unicode="&#xfd;" horiz-adv-x="496" 
d="M352 525h140l-197 -625q-9 -29 -22.5 -48.5t-32 -31t-42.5 -16t-55 -4.5h-94v109h114l17 62l-176 554h144l77 -291l19 -116h14l19 117zM264 579l-82 39l92 198l119 -58z" />
    <glyph glyph-name="thorn" unicode="&#xfe;" horiz-adv-x="550" 
d="M61 740h140v-302h16q4 21 15.5 39t27.5 31.5t36 21t41 7.5q91 0 133.5 -69t42.5 -206t-42 -205.5t-134 -68.5q-21 0 -41 7.5t-36 21t-27.5 31.5t-15.5 39h-16v-287h-140v940zM281 102q39 0 62.5 24.5t23.5 69.5v133q0 45 -23.5 69.5t-62.5 24.5q-38 0 -59 -17.5
t-21 -52.5v-181q0 -35 21 -52.5t59 -17.5z" />
    <glyph glyph-name="ydieresis" unicode="&#xff;" horiz-adv-x="496" 
d="M352 525h140l-197 -625q-9 -29 -22.5 -48.5t-32 -31t-42.5 -16t-55 -4.5h-94v109h114l17 62l-176 554h144l77 -291l19 -116h14l19 117zM153 602q-42 0 -57.5 15.5t-15.5 42.5v29q0 27 15.5 42.5t57.5 15.5t57.5 -15.5t15.5 -42.5v-29q0 -27 -15.5 -42.5t-57.5 -15.5z
M345 602q-42 0 -57.5 15.5t-15.5 42.5v29q0 27 15.5 42.5t57.5 15.5t57.5 -15.5t15.5 -42.5v-29q0 -27 -15.5 -42.5t-57.5 -15.5z" />
    <glyph glyph-name="Amacron" unicode="&#x100;" horiz-adv-x="618" 
d="M457 0l-43 171h-214l-43 -171h-137l198 698h182l198 -698h-141zM336 447l-22 121h-16l-22 -121l-41 -161h144zM171 888h276v-103h-276v103z" />
    <glyph glyph-name="amacron" unicode="&#x101;" horiz-adv-x="516" 
d="M407 0q-82 0 -89 91h-13q-8 -48 -43 -75.5t-89 -27.5q-71 0 -107 40.5t-36 112.5q0 86 52.5 125t146.5 39h76v41q0 41 -17 61t-57 20q-35 0 -58.5 -17.5t-41.5 -46.5l-83 74q32 47 78 73.5t118 26.5q103 0 152 -48t49 -143v-237h43v-109h-81zM229 86q31 0 53.5 17.5
t22.5 54.5v65h-63q-72 0 -72 -60v-19q0 -30 15.5 -44t43.5 -14zM107 727h276v-103h-276v103z" />
    <glyph glyph-name="Abreve" unicode="&#x102;" horiz-adv-x="618" 
d="M457 0l-43 171h-214l-43 -171h-137l198 698h182l198 -698h-141zM336 447l-22 121h-16l-22 -121l-41 -161h144zM309 740q-33 0 -58 7.5t-45.5 27t-38.5 53t-36 84.5l76 40l20 -43q10 -23 19.5 -37t19 -22t20 -11t23.5 -3q26 0 44.5 14.5t38.5 58.5l20 43l75 -40
q-18 -51 -36.5 -84.5t-39.5 -53t-46 -27t-56 -7.5z" />
    <glyph glyph-name="abreve" unicode="&#x103;" horiz-adv-x="516" 
d="M407 0q-82 0 -89 91h-13q-8 -48 -43 -75.5t-89 -27.5q-71 0 -107 40.5t-36 112.5q0 86 52.5 125t146.5 39h76v41q0 41 -17 61t-57 20q-35 0 -58.5 -17.5t-41.5 -46.5l-83 74q32 47 78 73.5t118 26.5q103 0 152 -48t49 -143v-237h43v-109h-81zM229 86q31 0 53.5 17.5
t22.5 54.5v65h-63q-72 0 -72 -60v-19q0 -30 15.5 -44t43.5 -14zM245 579q-33 0 -58 7.5t-45.5 27t-38.5 53t-36 84.5l76 40l20 -43q10 -23 19.5 -37t19 -22t20 -11t23.5 -3q26 0 44.5 14.5t38.5 58.5l20 43l75 -40q-18 -51 -36.5 -84.5t-39.5 -53t-46 -27t-56 -7.5z" />
    <glyph glyph-name="Aogonek" unicode="&#x104;" horiz-adv-x="618" 
d="M623 -162q-19 -22 -48 -36t-62 -14q-112 0 -112 83q0 38 33 68.5t94 52.5l-2 8h-69l-43 171h-214l-43 -171h-137l198 698h182l198 -698q-59 -35 -81 -60t-22 -48q0 -14 8 -23.5t26 -9.5q17 0 29 8t20 18zM336 447l-22 121h-16l-22 -121l-41 -161h144z" />
    <glyph glyph-name="aogonek" unicode="&#x105;" horiz-adv-x="516" 
d="M513 -162q-19 -22 -48 -36t-62 -14q-112 0 -112 83q0 38 33.5 68.5t95.5 52.5l-2 8q-51 0 -73.5 22.5t-26.5 68.5h-13q-8 -48 -43 -75.5t-89 -27.5q-71 0 -107 40.5t-36 112.5q0 86 52.5 125t146.5 39h76v41q0 41 -17 61t-57 20q-35 0 -58.5 -17.5t-41.5 -46.5l-83 74
q32 47 78 73.5t118 26.5q103 0 152 -48t49 -143v-237h43v-109q-59 -35 -81 -60t-22 -48q0 -14 8 -23.5t26 -9.5q17 0 29 8t20 18zM229 86q31 0 53.5 17.5t22.5 54.5v65h-63q-72 0 -72 -60v-19q0 -30 15.5 -44t43.5 -14z" />
    <glyph glyph-name="Cacute" unicode="&#x106;" horiz-adv-x="589" 
d="M324 -12q-63 0 -114.5 19t-88 61t-57 110t-20.5 166t20.5 167.5t57 113.5t88 64.5t114.5 20.5q94 0 148.5 -40.5t89.5 -122.5l-124 -64q-6 22 -13.5 41t-20.5 32t-32.5 20.5t-47.5 7.5q-60 0 -94 -36t-34 -108v-182q0 -72 34 -108t94 -36q28 0 48.5 8.5t34.5 23t23 34
t16 42.5l118 -68q-18 -39 -40 -70t-50.5 -52.5t-65.5 -32.5t-84 -11zM339 740l-82 39l92 198l119 -58z" />
    <glyph glyph-name="cacute" unicode="&#x107;" horiz-adv-x="468" 
d="M253 -12q-110 0 -166 67t-56 207t56 207.5t166 67.5q78 0 124.5 -35.5t66.5 -100.5l-113 -50q-5 38 -23 56.5t-55 18.5q-76 0 -76 -90v-147q0 -90 76 -90q38 0 56.5 19.5t27.5 59.5l109 -48q-43 -142 -193 -142zM262 579l-82 39l92 198l119 -58z" />
    <glyph glyph-name="Ccircumflex" unicode="&#x108;" horiz-adv-x="589" 
d="M324 -12q-63 0 -114.5 19t-88 61t-57 110t-20.5 166t20.5 167.5t57 113.5t88 64.5t114.5 20.5q94 0 148.5 -40.5t89.5 -122.5l-124 -64q-6 22 -13.5 41t-20.5 32t-32.5 20.5t-47.5 7.5q-60 0 -94 -36t-34 -108v-182q0 -72 34 -108t94 -36q28 0 48.5 8.5t34.5 23t23 34
t16 42.5l118 -68q-18 -39 -40 -70t-50.5 -52.5t-65.5 -32.5t-84 -11zM379 956l129 -162l-69 -55l-115 118l-115 -118l-69 55l129 162h110z" />
    <glyph glyph-name="ccircumflex" unicode="&#x109;" horiz-adv-x="468" 
d="M253 -12q-110 0 -166 67t-56 207t56 207.5t166 67.5q78 0 124.5 -35.5t66.5 -100.5l-113 -50q-5 38 -23 56.5t-55 18.5q-76 0 -76 -90v-147q0 -90 76 -90q38 0 56.5 19.5t27.5 59.5l109 -48q-43 -142 -193 -142zM302 796l129 -162l-69 -55l-115 118l-115 -118l-69 55
l129 162h110z" />
    <glyph glyph-name="Cdotaccent" unicode="&#x10a;" horiz-adv-x="589" 
d="M324 -12q-63 0 -114.5 19t-88 61t-57 110t-20.5 166t20.5 167.5t57 113.5t88 64.5t114.5 20.5q94 0 148.5 -40.5t89.5 -122.5l-124 -64q-6 22 -13.5 41t-20.5 32t-32.5 20.5t-47.5 7.5q-60 0 -94 -36t-34 -108v-182q0 -72 34 -108t94 -36q28 0 48.5 8.5t34.5 23t23 34
t16 42.5l118 -68q-18 -39 -40 -70t-50.5 -52.5t-65.5 -32.5t-84 -11zM324 765q-42 0 -58.5 16.5t-16.5 43.5v25q0 27 16.5 43.5t58.5 16.5t58.5 -16.5t16.5 -43.5v-25q0 -27 -16.5 -43.5t-58.5 -16.5z" />
    <glyph glyph-name="cdotaccent" unicode="&#x10b;" horiz-adv-x="468" 
d="M253 -12q-110 0 -166 67t-56 207t56 207.5t166 67.5q78 0 124.5 -35.5t66.5 -100.5l-113 -50q-5 38 -23 56.5t-55 18.5q-76 0 -76 -90v-147q0 -90 76 -90q38 0 56.5 19.5t27.5 59.5l109 -48q-43 -142 -193 -142zM247 602q-42 0 -58.5 16.5t-16.5 43.5v25q0 27 16.5 43.5
t58.5 16.5t58.5 -16.5t16.5 -43.5v-25q0 -27 -16.5 -43.5t-58.5 -16.5z" />
    <glyph glyph-name="Ccaron" unicode="&#x10c;" horiz-adv-x="589" 
d="M324 -12q-63 0 -114.5 19t-88 61t-57 110t-20.5 166t20.5 167.5t57 113.5t88 64.5t114.5 20.5q94 0 148.5 -40.5t89.5 -122.5l-124 -64q-6 22 -13.5 41t-20.5 32t-32.5 20.5t-47.5 7.5q-60 0 -94 -36t-34 -108v-182q0 -72 34 -108t94 -36q28 0 48.5 8.5t34.5 23t23 34
t16 42.5l118 -68q-18 -39 -40 -70t-50.5 -52.5t-65.5 -32.5t-84 -11zM269 748l-129 162l69 55l115 -118l115 118l69 -55l-129 -162h-110z" />
    <glyph glyph-name="ccaron" unicode="&#x10d;" horiz-adv-x="468" 
d="M253 -12q-110 0 -166 67t-56 207t56 207.5t166 67.5q78 0 124.5 -35.5t66.5 -100.5l-113 -50q-5 38 -23 56.5t-55 18.5q-76 0 -76 -90v-147q0 -90 76 -90q38 0 56.5 19.5t27.5 59.5l109 -48q-43 -142 -193 -142zM192 579l-129 162l69 55l115 -118l115 118l69 -55
l-129 -162h-110z" />
    <glyph glyph-name="Dcaron" unicode="&#x10e;" horiz-adv-x="630" 
d="M68 698h245q64 0 114.5 -19.5t85.5 -61.5t54 -108t19 -160t-19 -160t-54 -108t-85.5 -61.5t-114.5 -19.5h-245v698zM313 125q121 0 121 140v168q0 140 -121 140h-102v-448h102zM247 748l-129 162l69 55l115 -118l115 118l69 -55l-129 -162h-110z" />
    <glyph glyph-name="dcaron" unicode="&#x10f;" horiz-adv-x="550" 
d="M349 87h-16q-5 -21 -16 -39t-27 -31.5t-36 -21t-41 -7.5q-92 0 -134 68.5t-42 205.5t42.5 206t133.5 69q21 0 41 -7.5t36 -21t27 -31.5t16 -39h16v302h140v-740h-140v87zM269 102q38 0 59 17.5t21 52.5v181q0 35 -21 52.5t-59 17.5q-39 0 -62.5 -24.5t-23.5 -69.5v-133
q0 -45 23.5 -69.5t62.5 -24.5zM621 525h-81l6 215h137z" />
    <glyph glyph-name="Dcroat" unicode="&#x110;" horiz-adv-x="640" 
d="M78 302h-66v109h66v287h245q64 0 114.5 -19.5t85.5 -61.5t54 -108t19 -160t-19 -160t-54 -108t-85.5 -61.5t-114.5 -19.5h-245v302zM323 125q121 0 121 140v168q0 140 -121 140h-102v-162h105v-109h-105v-177h102z" />
    <glyph glyph-name="dcroat" unicode="&#x111;" horiz-adv-x="550" 
d="M349 87h-16q-5 -21 -16 -39t-27 -31.5t-36 -21t-41 -7.5q-92 0 -134 68.5t-42 205.5t42.5 206t133.5 69q21 0 41 -7.5t36 -21t27 -31.5t16 -39h16v159h-125v83h125v60h140v-60h55v-83h-55v-597h-140v87zM269 102q38 0 59 17.5t21 52.5v181q0 35 -21 52.5t-59 17.5
q-39 0 -62.5 -24.5t-23.5 -69.5v-133q0 -45 23.5 -69.5t62.5 -24.5z" />
    <glyph glyph-name="Emacron" unicode="&#x112;" horiz-adv-x="549" 
d="M68 0v698h432v-125h-289v-158h245v-124h-245v-166h289v-125h-432zM146 888h276v-103h-276v103z" />
    <glyph glyph-name="emacron" unicode="&#x113;" horiz-adv-x="508" 
d="M268 -12q-108 0 -172.5 68.5t-64.5 205.5q0 140 56.5 207.5t166.5 67.5t166.5 -67.5t56.5 -207.5v-34h-300v-33q0 -44 27 -70.5t74 -26.5q39 0 66.5 17.5t50.5 48.5l71 -83q-32 -43 -81.5 -68t-116.5 -25zM254 432q-77 0 -77 -90v-32h154v32q0 90 -77 90zM117 727h276
v-103h-276v103z" />
    <glyph glyph-name="Ebreve" unicode="&#x114;" horiz-adv-x="549" 
d="M68 0v698h432v-125h-289v-158h245v-124h-245v-166h289v-125h-432zM284 740q-33 0 -58 7.5t-45.5 27t-38.5 53t-36 84.5l76 40l20 -43q10 -23 19.5 -37t19 -22t20 -11t23.5 -3q26 0 44.5 14.5t38.5 58.5l20 43l75 -40q-18 -51 -36.5 -84.5t-39.5 -53t-46 -27t-56 -7.5z
" />
    <glyph glyph-name="ebreve" unicode="&#x115;" horiz-adv-x="508" 
d="M268 -12q-108 0 -172.5 68.5t-64.5 205.5q0 140 56.5 207.5t166.5 67.5t166.5 -67.5t56.5 -207.5v-34h-300v-33q0 -44 27 -70.5t74 -26.5q39 0 66.5 17.5t50.5 48.5l71 -83q-32 -43 -81.5 -68t-116.5 -25zM254 432q-77 0 -77 -90v-32h154v32q0 90 -77 90zM255 579
q-33 0 -58 7.5t-45.5 27t-38.5 53t-36 84.5l76 40l20 -43q10 -23 19.5 -37t19 -22t20 -11t23.5 -3q26 0 44.5 14.5t38.5 58.5l20 43l75 -40q-18 -51 -36.5 -84.5t-39.5 -53t-46 -27t-56 -7.5z" />
    <glyph glyph-name="Edotaccent" unicode="&#x116;" horiz-adv-x="549" 
d="M68 0v698h432v-125h-289v-158h245v-124h-245v-166h289v-125h-432zM284 765q-42 0 -58.5 16.5t-16.5 43.5v25q0 27 16.5 43.5t58.5 16.5t58.5 -16.5t16.5 -43.5v-25q0 -27 -16.5 -43.5t-58.5 -16.5z" />
    <glyph glyph-name="edotaccent" unicode="&#x117;" horiz-adv-x="508" 
d="M268 -12q-108 0 -172.5 68.5t-64.5 205.5q0 140 56.5 207.5t166.5 67.5t166.5 -67.5t56.5 -207.5v-34h-300v-33q0 -44 27 -70.5t74 -26.5q39 0 66.5 17.5t50.5 48.5l71 -83q-32 -43 -81.5 -68t-116.5 -25zM254 432q-77 0 -77 -90v-32h154v32q0 90 -77 90zM255 602
q-42 0 -58.5 16.5t-16.5 43.5v25q0 27 16.5 43.5t58.5 16.5t58.5 -16.5t16.5 -43.5v-25q0 -27 -16.5 -43.5t-58.5 -16.5z" />
    <glyph glyph-name="Eogonek" unicode="&#x118;" horiz-adv-x="549" 
d="M68 698h432v-125h-289v-158h245v-124h-245v-166h289v-125q-59 -35 -81 -60t-22 -48q0 -14 8 -23.5t26 -9.5q17 0 29 8t20 18l45 -47q-19 -22 -48 -36t-62 -14q-112 0 -112 83q0 38 33.5 68t94.5 53l-2 8h-361v698z" />
    <glyph glyph-name="eogonek" unicode="&#x119;" horiz-adv-x="508" 
d="M279 -212q-112 0 -112 83q0 29 28.5 58t102.5 55l-1 7q-14 -3 -29 -3q-108 0 -172.5 68.5t-64.5 205.5q0 140 56.5 207.5t166.5 67.5t166.5 -67.5t56.5 -207.5v-34h-300v-33q0 -44 27 -70.5t74 -26.5q39 0 66.5 17.5t50.5 48.5l71 -83q-14 -20 -36 -37.5t-60 -41.5
q-57 -37 -83 -62t-26 -48q0 -14 8 -23.5t26 -9.5q17 0 29 8t20 18l45 -47q-19 -22 -48 -36t-62 -14zM331 310v32q0 90 -77 90t-77 -90v-32h154z" />
    <glyph glyph-name="Ecaron" unicode="&#x11a;" horiz-adv-x="549" 
d="M68 0v698h432v-125h-289v-158h245v-124h-245v-166h289v-125h-432zM229 748l-129 162l69 55l115 -118l115 118l69 -55l-129 -162h-110z" />
    <glyph glyph-name="ecaron" unicode="&#x11b;" horiz-adv-x="508" 
d="M268 -12q-108 0 -172.5 68.5t-64.5 205.5q0 140 56.5 207.5t166.5 67.5t166.5 -67.5t56.5 -207.5v-34h-300v-33q0 -44 27 -70.5t74 -26.5q39 0 66.5 17.5t50.5 48.5l71 -83q-32 -43 -81.5 -68t-116.5 -25zM254 432q-77 0 -77 -90v-32h154v32q0 90 -77 90zM200 579
l-129 162l69 55l115 -118l115 118l69 -55l-129 -162h-110z" />
    <glyph glyph-name="Gcircumflex" unicode="&#x11c;" horiz-adv-x="646" 
d="M466 110h-16q-7 -54 -47.5 -88t-109.5 -34q-50 0 -95 19t-79 61t-54.5 110.5t-20.5 167.5t20 168t56 112.5t87 63.5t114 20q94 0 156 -40.5t97 -120.5l-117 -67q-14 47 -47 74.5t-90 27.5t-90.5 -36t-33.5 -108v-182q0 -72 34 -107.5t94 -35.5q54 0 89.5 27.5t35.5 81.5
v41h-115v120h252v-385h-120v110zM379 956l129 -162l-69 -55l-115 118l-115 -118l-69 55l129 162h110z" />
    <glyph glyph-name="gcircumflex" unicode="&#x11d;" horiz-adv-x="499" 
d="M503 -41q0 -41 -12 -73t-41.5 -54t-79.5 -33t-126 -11q-65 0 -108 8.5t-69.5 24t-37.5 38.5t-11 52q0 38 23 60.5t67 29.5v21q-38 7 -55 31t-17 58q0 18 7.5 32t20 24t28.5 17t33 11v14q-44 21 -64 59t-20 92q0 83 48 130t157 47q23 0 47 -2.5t45 -9.5h158v-95h-140v-14
q48 0 70.5 -23.5t22.5 -59.5q0 -31 -11.5 -58t-36.5 -47t-63 -31.5t-92 -11.5q-25 0 -46.5 2.5t-41.5 7.5q-16 -14 -16 -45q0 -20 12.5 -30t42.5 -10h141q89 0 127 -39.5t38 -111.5zM246 278q41 0 58.5 19t17.5 56v16q0 37 -17.5 56t-58.5 19t-58.5 -19t-17.5 -56v-16
q0 -37 17.5 -56t58.5 -19zM372 -59q0 24 -16.5 37t-54.5 13h-163q-7 -10 -10.5 -23t-3.5 -27q0 -29 20.5 -44t75.5 -15h56q55 0 75.5 15t20.5 44zM312 796l129 -162l-69 -55l-115 118l-115 -118l-69 55l129 162h110z" />
    <glyph glyph-name="Gbreve" unicode="&#x11e;" horiz-adv-x="646" 
d="M466 110h-16q-7 -54 -47.5 -88t-109.5 -34q-50 0 -95 19t-79 61t-54.5 110.5t-20.5 167.5t20 168t56 112.5t87 63.5t114 20q94 0 156 -40.5t97 -120.5l-117 -67q-14 47 -47 74.5t-90 27.5t-90.5 -36t-33.5 -108v-182q0 -72 34 -107.5t94 -35.5q54 0 89.5 27.5t35.5 81.5
v41h-115v120h252v-385h-120v110zM324 740q-33 0 -58 7.5t-45.5 27t-38.5 53t-36 84.5l76 40l20 -43q10 -23 19.5 -37t19 -22t20 -11t23.5 -3q26 0 44.5 14.5t38.5 58.5l20 43l75 -40q-18 -51 -36.5 -84.5t-39.5 -53t-46 -27t-56 -7.5z" />
    <glyph glyph-name="gbreve" unicode="&#x11f;" horiz-adv-x="499" 
d="M503 -41q0 -41 -12 -73t-41.5 -54t-79.5 -33t-126 -11q-65 0 -108 8.5t-69.5 24t-37.5 38.5t-11 52q0 38 23 60.5t67 29.5v21q-38 7 -55 31t-17 58q0 18 7.5 32t20 24t28.5 17t33 11v14q-44 21 -64 59t-20 92q0 83 48 130t157 47q23 0 47 -2.5t45 -9.5h158v-95h-140v-14
q48 0 70.5 -23.5t22.5 -59.5q0 -31 -11.5 -58t-36.5 -47t-63 -31.5t-92 -11.5q-25 0 -46.5 2.5t-41.5 7.5q-16 -14 -16 -45q0 -20 12.5 -30t42.5 -10h141q89 0 127 -39.5t38 -111.5zM246 278q41 0 58.5 19t17.5 56v16q0 37 -17.5 56t-58.5 19t-58.5 -19t-17.5 -56v-16
q0 -37 17.5 -56t58.5 -19zM372 -59q0 24 -16.5 37t-54.5 13h-163q-7 -10 -10.5 -23t-3.5 -27q0 -29 20.5 -44t75.5 -15h56q55 0 75.5 15t20.5 44zM257 579q-33 0 -58 7.5t-45.5 27t-38.5 53t-36 84.5l76 40l20 -43q10 -23 19.5 -37t19 -22t20 -11t23.5 -3q26 0 44.5 14.5
t38.5 58.5l20 43l75 -40q-18 -51 -36.5 -84.5t-39.5 -53t-46 -27t-56 -7.5z" />
    <glyph glyph-name="Gdotaccent" unicode="&#x120;" horiz-adv-x="646" 
d="M466 110h-16q-7 -54 -47.5 -88t-109.5 -34q-50 0 -95 19t-79 61t-54.5 110.5t-20.5 167.5t20 168t56 112.5t87 63.5t114 20q94 0 156 -40.5t97 -120.5l-117 -67q-14 47 -47 74.5t-90 27.5t-90.5 -36t-33.5 -108v-182q0 -72 34 -107.5t94 -35.5q54 0 89.5 27.5t35.5 81.5
v41h-115v120h252v-385h-120v110zM324 765q-42 0 -58.5 16.5t-16.5 43.5v25q0 27 16.5 43.5t58.5 16.5t58.5 -16.5t16.5 -43.5v-25q0 -27 -16.5 -43.5t-58.5 -16.5z" />
    <glyph glyph-name="gdotaccent" unicode="&#x121;" horiz-adv-x="499" 
d="M503 -41q0 -41 -12 -73t-41.5 -54t-79.5 -33t-126 -11q-65 0 -108 8.5t-69.5 24t-37.5 38.5t-11 52q0 38 23 60.5t67 29.5v21q-38 7 -55 31t-17 58q0 18 7.5 32t20 24t28.5 17t33 11v14q-44 21 -64 59t-20 92q0 83 48 130t157 47q23 0 47 -2.5t45 -9.5h158v-95h-140v-14
q48 0 70.5 -23.5t22.5 -59.5q0 -31 -11.5 -58t-36.5 -47t-63 -31.5t-92 -11.5q-25 0 -46.5 2.5t-41.5 7.5q-16 -14 -16 -45q0 -20 12.5 -30t42.5 -10h141q89 0 127 -39.5t38 -111.5zM246 278q41 0 58.5 19t17.5 56v16q0 37 -17.5 56t-58.5 19t-58.5 -19t-17.5 -56v-16
q0 -37 17.5 -56t58.5 -19zM372 -59q0 24 -16.5 37t-54.5 13h-163q-7 -10 -10.5 -23t-3.5 -27q0 -29 20.5 -44t75.5 -15h56q55 0 75.5 15t20.5 44zM257 602q-42 0 -58.5 16.5t-16.5 43.5v25q0 27 16.5 43.5t58.5 16.5t58.5 -16.5t16.5 -43.5v-25q0 -27 -16.5 -43.5
t-58.5 -16.5z" />
    <glyph glyph-name="Gcommaaccent" unicode="&#x122;" horiz-adv-x="646" 
d="M466 110h-16q-7 -54 -47.5 -88t-109.5 -34q-50 0 -95 19t-79 61t-54.5 110.5t-20.5 167.5t20 168t56 112.5t87 63.5t114 20q94 0 156 -40.5t97 -120.5l-117 -67q-14 47 -47 74.5t-90 27.5t-90.5 -36t-33.5 -108v-182q0 -72 34 -107.5t94 -35.5q54 0 89.5 27.5t35.5 81.5
v41h-115v120h252v-385h-120v110zM323 -42q33 0 51.5 -14t18.5 -44v-20q0 -49 -19 -89.5t-48 -65.5h-83q24 22 38.5 45t21.5 52q-28 2 -39 16t-11 42v20q0 30 18.5 44t51.5 14z" />
    <glyph glyph-name="gcommaaccent" unicode="&#x123;" horiz-adv-x="499" 
d="M503 -41q0 -41 -12 -73t-41.5 -54t-79.5 -33t-126 -11q-65 0 -108 8.5t-69.5 24t-37.5 38.5t-11 52q0 38 23 60.5t67 29.5v21q-38 7 -55 31t-17 58q0 18 7.5 32t20 24t28.5 17t33 11v14q-44 21 -64 59t-20 92q0 83 48 130t157 47q23 0 47 -2.5t45 -9.5h158v-95h-140v-14
q48 0 70.5 -23.5t22.5 -59.5q0 -31 -11.5 -58t-36.5 -47t-63 -31.5t-92 -11.5q-25 0 -46.5 2.5t-41.5 7.5q-16 -14 -16 -45q0 -20 12.5 -30t42.5 -10h141q89 0 127 -39.5t38 -111.5zM246 278q41 0 58.5 19t17.5 56v16q0 37 -17.5 56t-58.5 19t-58.5 -19t-17.5 -56v-16
q0 -37 17.5 -56t58.5 -19zM372 -59q0 24 -16.5 37t-54.5 13h-163q-7 -10 -10.5 -23t-3.5 -27q0 -29 20.5 -44t75.5 -15h56q55 0 75.5 15t20.5 44zM257 576q-33 0 -51.5 14t-18.5 44v20q0 49 19 89.5t48 65.5h83q-24 -22 -38.5 -45t-21.5 -52q28 -2 39 -16t11 -42v-20
q0 -30 -18.5 -44t-51.5 -14z" />
    <glyph glyph-name="Hcircumflex" unicode="&#x124;" horiz-adv-x="654" 
d="M443 291h-232v-291h-143v698h143v-283h232v283h143v-698h-143v291zM382 956l129 -162l-69 -55l-115 118l-115 -118l-69 55l129 162h110z" />
    <glyph glyph-name="hcircumflex" unicode="&#x125;" 
d="M61 740h140v-304h16q6 21 16.5 39t25.5 32t35 22t47 8q70 0 107 -47.5t37 -132.5v-357h-140v330q0 93 -65 93q-32 0 -55.5 -19.5t-23.5 -54.5v-349h-140v740zM187 954l129 -162l-69 -55l-115 118l-115 -118l-69 55l129 162h110z" />
    <glyph glyph-name="Hbar" unicode="&#x126;" horiz-adv-x="673" 
d="M452 291h-231v-291h-143v518h-66v88h66v92h143v-92h231v92h143v-92h66v-88h-66v-518h-143v291zM452 415v103h-231v-103h231z" />
    <glyph glyph-name="hbar" unicode="&#x127;" horiz-adv-x="539" 
d="M61 0v597h-55v83h55v60h140v-60h125v-83h-125v-161h16q6 21 16.5 39t25.5 32t35 22t47 8q70 0 107 -47.5t37 -132.5v-357h-140v330q0 93 -65 93q-32 0 -55.5 -19.5t-23.5 -54.5v-349h-140z" />
    <glyph glyph-name="Itilde" unicode="&#x128;" horiz-adv-x="397" 
d="M45 0v113h82v472h-82v113h307v-113h-82v-472h82v-113h-307zM272 764q-18 0 -32 4t-42 18q-27 14 -42.5 19t-27.5 5q-17 0 -27 -6t-25 -20l-49 64q17 27 43.5 43.5t57.5 16.5q9 0 16.5 -1t15.5 -3t18 -6.5t24 -11.5q27 -14 42.5 -19t27.5 -5q17 0 27 6t25 20l49 -64
q-17 -27 -43.5 -43.5t-57.5 -16.5z" />
    <glyph glyph-name="itilde" unicode="&#x129;" horiz-adv-x="262" 
d="M61 0v525h140v-525h-140zM193 605q-17 0 -33 6.5t-32 15.5q-14 8 -30 14t-24 6q-13 0 -21.5 -5t-19.5 -16l-48 63q19 30 38.5 43t47.5 13q17 0 33 -6.5t32 -15.5q14 -8 30 -14t24 -6q13 0 21.5 5t19.5 16l48 -63q-19 -30 -38.5 -43t-47.5 -13z" />
    <glyph glyph-name="Imacron" unicode="&#x12a;" horiz-adv-x="397" 
d="M45 0v113h82v472h-82v113h307v-113h-82v-472h82v-113h-307zM62 888h276v-103h-276v103z" />
    <glyph glyph-name="imacron" unicode="&#x12b;" horiz-adv-x="262" 
d="M61 0v525h140v-525h-140zM-2 727h268v-103h-268v103z" />
    <glyph glyph-name="Ibreve" unicode="&#x12c;" horiz-adv-x="397" 
d="M45 0v113h82v472h-82v113h307v-113h-82v-472h82v-113h-307zM200 740q-33 0 -58 7.5t-45.5 27t-38.5 53t-36 84.5l76 40l20 -43q10 -23 19.5 -37t19 -22t20 -11t23.5 -3q26 0 44.5 14.5t38.5 58.5l20 43l75 -40q-18 -51 -36.5 -84.5t-39.5 -53t-46 -27t-56 -7.5z" />
    <glyph glyph-name="ibreve" unicode="&#x12d;" horiz-adv-x="262" 
d="M61 0v525h140v-525h-140zM132 579q-32 0 -57 9.5t-44.5 30.5t-34.5 55.5t-28 84.5l76 32l18 -48q14 -39 28.5 -53.5t41.5 -14.5t42 15.5t29 52.5l18 48l75 -32q-13 -50 -29 -84.5t-35.5 -55.5t-44 -30.5t-55.5 -9.5z" />
    <glyph glyph-name="Iogonek" unicode="&#x12e;" horiz-adv-x="397" 
d="M45 113h82v472h-82v113h307v-113h-82v-472h82v-113q-59 -35 -81 -60t-22 -48q0 -14 8 -23.5t26 -9.5q17 0 29 8t20 18l45 -47q-19 -22 -48 -36t-62 -14q-112 0 -112 83q0 38 33.5 68t95.5 53l-1 8h-238v113z" />
    <glyph glyph-name="iogonek" unicode="&#x12f;" horiz-adv-x="262" 
d="M131 589q-43 0 -62.5 18.5t-19.5 50.5v22q0 32 19.5 50.5t62.5 18.5t62.5 -18.5t19.5 -50.5v-22q0 -32 -19.5 -50.5t-62.5 -18.5zM226 -162q-19 -22 -48 -36t-62 -14q-112 0 -112 83q0 38 34 68t97 53l-2 8h-72v525h140v-525q-59 -35 -81 -60t-22 -48q0 -14 8 -23.5
t26 -9.5q17 0 29 8t20 18z" />
    <glyph glyph-name="Idotaccent" unicode="&#x130;" horiz-adv-x="397" 
d="M45 0v113h82v472h-82v113h307v-113h-82v-472h82v-113h-307zM200 765q-42 0 -58.5 16.5t-16.5 43.5v25q0 27 16.5 43.5t58.5 16.5t58.5 -16.5t16.5 -43.5v-25q0 -27 -16.5 -43.5t-58.5 -16.5z" />
    <glyph glyph-name="dotlessi" unicode="&#x131;" horiz-adv-x="262" 
d="M61 0v525h140v-525h-140z" />
    <glyph glyph-name="IJ" unicode="&#x132;" horiz-adv-x="591" 
d="M527 698v-509q0 -95 -58.5 -147.5t-170.5 -52.5q-105 0 -157.5 49.5t-67.5 141.5l134 27q7 -53 30.5 -73t58.5 -20q18 0 34 4t28 13.5t19 25.5t7 40v386h-73v115h216zM67 698h143v-392h-143v392z" />
    <glyph glyph-name="ij" unicode="&#x133;" horiz-adv-x="524" 
d="M131 589q-43 0 -62.5 18.5t-19.5 50.5v22q0 32 19.5 50.5t62.5 18.5t62.5 -18.5t19.5 -50.5v-22q0 -32 -19.5 -50.5t-62.5 -18.5zM61 525h140v-525h-140v525zM327 525h140v-593q0 -67 -31.5 -99.5t-104.5 -32.5h-74v109h70v616zM397 589q-43 0 -62.5 18.5t-19.5 50.5v22
q0 32 19.5 50.5t62.5 18.5t62.5 -18.5t19.5 -50.5v-22q0 -32 -19.5 -50.5t-62.5 -18.5z" />
    <glyph glyph-name="Jcircumflex" unicode="&#x134;" horiz-adv-x="506" 
d="M442 698v-509q0 -96 -53.5 -148.5t-156.5 -52.5q-98 0 -146.5 50t-63.5 142l130 27q7 -53 25 -73t53 -20q32 0 50.5 18t18.5 65v386h-187v115h330zM332 956l129 -162l-69 -55l-115 118l-115 -118l-69 55l129 162h110z" />
    <glyph glyph-name="jcircumflex" unicode="&#x135;" horiz-adv-x="266" 
d="M-5 -91h70v616h140v-593q0 -67 -31.5 -99.5t-104.5 -32.5h-74v109zM191 796l113 -162l-69 -55l-99 118l-99 -118l-69 55l113 162h110z" />
    <glyph glyph-name="Kcommaaccent" unicode="&#x136;" horiz-adv-x="630" 
d="M292 309l-81 -110v-199h-143v698h143v-226l-6 -111h16l69 111l152 226h162l-211 -291l229 -407h-168zM326 -42q33 0 51.5 -14t18.5 -44v-20q0 -49 -19 -89.5t-48 -65.5h-83q24 22 38.5 45t21.5 52q-28 2 -39 16t-11 42v20q0 30 18.5 44t51.5 14z" />
    <glyph glyph-name="kcommaaccent" unicode="&#x137;" horiz-adv-x="524" 
d="M61 740h140v-330l-8 -111h16l57 96l93 130h156l-159 -206l165 -319h-154l-107 227l-59 -74v-153h-140v740zM272 -42q33 0 51.5 -14t18.5 -44v-20q0 -49 -19 -89.5t-48 -65.5h-83q24 22 38.5 45t21.5 52q-28 2 -39 16t-11 42v20q0 30 18.5 44t51.5 14z" />
    <glyph glyph-name="kgreenlandic" unicode="&#x138;" horiz-adv-x="524" 
d="M260 228l-59 -74v-154h-140v525h140v-114l-8 -111h16l57 96l93 129h156l-159 -205l165 -320h-154z" />
    <glyph glyph-name="Lacute" unicode="&#x139;" horiz-adv-x="480" 
d="M68 0v698h143v-573h237v-125h-380zM156 740l-82 39l92 198l119 -58z" />
    <glyph glyph-name="lacute" unicode="&#x13a;" horiz-adv-x="277" 
d="M197 0q-73 0 -104.5 32.5t-31.5 99.5v608h140v-631h59v-109h-63zM147 779l-82 39l92 198l119 -58z" />
    <glyph glyph-name="Lcommaaccent" unicode="&#x13b;" horiz-adv-x="480" 
d="M68 0v698h143v-573h237v-125h-380zM257 -42q33 0 51.5 -14t18.5 -44v-20q0 -49 -19 -89.5t-48 -65.5h-83q24 22 38.5 45t21.5 52q-28 2 -39 16t-11 42v20q0 30 18.5 44t51.5 14z" />
    <glyph glyph-name="lcommaaccent" unicode="&#x13c;" horiz-adv-x="277" 
d="M197 0q-73 0 -104.5 32.5t-31.5 99.5v608h140v-631h59v-109h-63zM159 -42q33 0 51.5 -14t18.5 -44v-20q0 -49 -19 -89.5t-48 -65.5h-83q24 22 38.5 45t21.5 52q-28 2 -39 16t-11 42v20q0 30 18.5 44t51.5 14z" />
    <glyph glyph-name="Lcaron" unicode="&#x13d;" horiz-adv-x="480" 
d="M68 0v698h143v-573h237v-125h-380zM356 525h-81l6 215h137z" />
    <glyph glyph-name="lcaron" unicode="&#x13e;" horiz-adv-x="277" 
d="M197 0q-73 0 -104.5 32.5t-31.5 99.5v608h140v-631h59v-109h-63zM334 525h-81l6 215h137z" />
    <glyph glyph-name="Ldot" unicode="&#x13f;" horiz-adv-x="480" 
d="M68 0v698h143v-573h237v-125h-380zM371 314q-42 0 -58.5 16.5t-16.5 43.5v25q0 27 16.5 43.5t58.5 16.5t58.5 -16.5t16.5 -43.5v-25q0 -27 -16.5 -43.5t-58.5 -16.5z" />
    <glyph glyph-name="ldot" unicode="&#x140;" horiz-adv-x="397" 
d="M197 0q-73 0 -104.5 32.5t-31.5 99.5v608h140v-631h59v-109h-63zM326 278q-42 0 -58.5 16.5t-16.5 43.5v25q0 27 16.5 43.5t58.5 16.5t58.5 -16.5t16.5 -43.5v-25q0 -27 -16.5 -43.5t-58.5 -16.5z" />
    <glyph glyph-name="Lslash" unicode="&#x141;" horiz-adv-x="488" 
d="M456 0h-380v247l-75 -26v100l75 26v351h143v-301l138 48v-100l-138 -48v-172h237v-125z" />
    <glyph glyph-name="lslash" unicode="&#x142;" horiz-adv-x="286" 
d="M261 0h-65q-73 0 -104.5 32.5t-31.5 99.5v169l-70 -24v100l70 24v339h140v-290l86 30v-100l-86 -30v-241h61v-109z" />
    <glyph glyph-name="Nacute" unicode="&#x143;" horiz-adv-x="654" 
d="M254 374l-44 111h-16l8 -117v-368h-134v698h156l176 -374l44 -111h16l-8 117v368h134v-698h-156zM342 740l-82 39l92 198l119 -58z" />
    <glyph glyph-name="nacute" unicode="&#x144;" 
d="M61 0v525h140v-89h16q6 21 16 39t25 32t35 22t46 8q71 0 108.5 -47.5t37.5 -132.5v-357h-140v330q0 93 -65 93q-32 0 -55.5 -19.5t-23.5 -54.5v-349h-140zM288 579l-82 39l92 198l119 -58z" />
    <glyph glyph-name="Ncommaaccent" unicode="&#x145;" horiz-adv-x="654" 
d="M254 374l-44 111h-16l8 -117v-368h-134v698h156l176 -374l44 -111h16l-8 117v368h134v-698h-156zM326 -42q33 0 51.5 -14t18.5 -44v-20q0 -49 -19 -89.5t-48 -65.5h-83q24 22 38.5 45t21.5 52q-28 2 -39 16t-11 42v20q0 30 18.5 44t51.5 14z" />
    <glyph glyph-name="ncommaaccent" unicode="&#x146;" 
d="M61 0v525h140v-89h16q6 21 16 39t25 32t35 22t46 8q71 0 108.5 -47.5t37.5 -132.5v-357h-140v330q0 93 -65 93q-32 0 -55.5 -19.5t-23.5 -54.5v-349h-140zM272 -42q33 0 51.5 -14t18.5 -44v-20q0 -49 -19 -89.5t-48 -65.5h-83q24 22 38.5 45t21.5 52q-28 2 -39 16t-11 42
v20q0 30 18.5 44t51.5 14z" />
    <glyph glyph-name="Ncaron" unicode="&#x147;" horiz-adv-x="654" 
d="M254 374l-44 111h-16l8 -117v-368h-134v698h156l176 -374l44 -111h16l-8 117v368h134v-698h-156zM272 748l-129 162l69 55l115 -118l115 118l69 -55l-129 -162h-110z" />
    <glyph glyph-name="ncaron" unicode="&#x148;" 
d="M61 0v525h140v-89h16q6 21 16 39t25 32t35 22t46 8q71 0 108.5 -47.5t37.5 -132.5v-357h-140v330q0 93 -65 93q-32 0 -55.5 -19.5t-23.5 -54.5v-349h-140zM218 579l-129 162l69 55l115 -118l115 118l69 -55l-129 -162h-110z" />
    <glyph glyph-name="napostrophe" unicode="&#x149;" horiz-adv-x="803" 
d="M144 750q42 0 61 -19.5t19 -52.5v-26q0 -57 -27 -108.5t-73 -86.5h-86q32 30 54.5 60.5t33.5 67.5q-62 9 -62 67v26q0 33 19 52.5t61 19.5zM324 0v525h140v-89h16q6 21 16 39t25 32t35 22t46 8q71 0 108.5 -47.5t37.5 -132.5v-357h-140v330q0 93 -65 93
q-32 0 -55.5 -19.5t-23.5 -54.5v-349h-140z" />
    <glyph glyph-name="Eng" unicode="&#x14a;" horiz-adv-x="653" 
d="M68 0v698h156l175 -374l44 -111h16l-8 111v374h134v-766q0 -67 -31.5 -99.5t-104.5 -32.5h-74v109h76v91h-22l-175 374l-44 111h-16l8 -111v-374h-134z" />
    <glyph glyph-name="eng" unicode="&#x14b;" horiz-adv-x="539" 
d="M275 -91h70v421q0 93 -65 93q-32 0 -55.5 -19.5t-23.5 -54.5v-349h-140v525h140v-89h16q6 21 16 39t25 32t35 22t46 8q71 0 108.5 -47.5t37.5 -132.5v-425q0 -67 -31.5 -99.5t-104.5 -32.5h-74v109z" />
    <glyph glyph-name="Omacron" unicode="&#x14c;" horiz-adv-x="642" 
d="M321 -12q-63 0 -114 19.5t-87 63t-56 112t-20 166.5t20 166.5t56 112t87 63t114 19.5t114 -19.5t87 -63t56 -112t20 -166.5t-20 -166.5t-56 -112t-87 -63t-114 -19.5zM321 114q60 0 92.5 36t32.5 108v182q0 72 -32.5 108t-92.5 36t-92.5 -36t-32.5 -108v-182
q0 -72 32.5 -108t92.5 -36zM183 888h276v-103h-276v103z" />
    <glyph glyph-name="omacron" unicode="&#x14d;" horiz-adv-x="508" 
d="M254 -12q-110 0 -166.5 67t-56.5 207t56.5 207.5t166.5 67.5t166.5 -67.5t56.5 -207.5t-56.5 -207t-166.5 -67zM254 99q77 0 77 90v147q0 90 -77 90t-77 -90v-147q0 -90 77 -90zM117 727h276v-103h-276v103z" />
    <glyph glyph-name="Obreve" unicode="&#x14e;" horiz-adv-x="642" 
d="M321 -12q-63 0 -114 19.5t-87 63t-56 112t-20 166.5t20 166.5t56 112t87 63t114 19.5t114 -19.5t87 -63t56 -112t20 -166.5t-20 -166.5t-56 -112t-87 -63t-114 -19.5zM321 114q60 0 92.5 36t32.5 108v182q0 72 -32.5 108t-92.5 36t-92.5 -36t-32.5 -108v-182
q0 -72 32.5 -108t92.5 -36zM321 740q-33 0 -58 7.5t-45.5 27t-38.5 53t-36 84.5l76 40l20 -43q10 -23 19.5 -37t19 -22t20 -11t23.5 -3q26 0 44.5 14.5t38.5 58.5l20 43l75 -40q-18 -51 -36.5 -84.5t-39.5 -53t-46 -27t-56 -7.5z" />
    <glyph glyph-name="obreve" unicode="&#x14f;" horiz-adv-x="508" 
d="M254 -12q-110 0 -166.5 67t-56.5 207t56.5 207.5t166.5 67.5t166.5 -67.5t56.5 -207.5t-56.5 -207t-166.5 -67zM254 99q77 0 77 90v147q0 90 -77 90t-77 -90v-147q0 -90 77 -90zM255 579q-33 0 -58 7.5t-45.5 27t-38.5 53t-36 84.5l76 40l20 -43q10 -23 19.5 -37t19 -22
t20 -11t23.5 -3q26 0 44.5 14.5t38.5 58.5l20 43l75 -40q-18 -51 -36.5 -84.5t-39.5 -53t-46 -27t-56 -7.5z" />
    <glyph glyph-name="Ohungarumlaut" unicode="&#x150;" horiz-adv-x="642" 
d="M321 -12q-63 0 -114 19.5t-87 63t-56 112t-20 166.5t20 166.5t56 112t87 63t114 19.5t114 -19.5t87 -63t56 -112t20 -166.5t-20 -166.5t-56 -112t-87 -63t-114 -19.5zM321 114q60 0 92.5 36t32.5 108v182q0 72 -32.5 108t-92.5 36t-92.5 -36t-32.5 -108v-182
q0 -72 32.5 -108t92.5 -36zM237 740l-76 36l94 197l110 -54zM426 740l-76 36l94 197l110 -54z" />
    <glyph glyph-name="ohungarumlaut" unicode="&#x151;" horiz-adv-x="508" 
d="M254 -12q-110 0 -166.5 67t-56.5 207t56.5 207.5t166.5 67.5t166.5 -67.5t56.5 -207.5t-56.5 -207t-166.5 -67zM254 99q77 0 77 90v147q0 90 -77 90t-77 -90v-147q0 -90 77 -90zM171 579l-76 36l94 197l110 -54zM360 579l-76 36l94 197l110 -54z" />
    <glyph glyph-name="OE" unicode="&#x152;" horiz-adv-x="899" 
d="M432 0q-26 -7 -53.5 -9.5t-57.5 -2.5q-63 0 -114 19.5t-87 63t-56 112t-20 166.5t20 166.5t56 112t87 63t114 19.5q30 0 57.5 -2.5t53.5 -9.5h418v-125h-289v-158h245v-124h-245v-166h289v-125h-418zM196 258q0 -72 32.5 -108t92.5 -36q33 0 56 2.5t41 10.5v444
q-18 8 -41 10.5t-56 2.5q-60 0 -92.5 -36t-32.5 -108v-182z" />
    <glyph glyph-name="oe" unicode="&#x153;" horiz-adv-x="808" 
d="M254 99q77 0 77 90v147q0 90 -77 90t-77 -90v-147q0 -90 77 -90zM631 310v32q0 90 -77 90t-77 -90v-32h154zM578 -12q-26 0 -52 6t-49 18t-40.5 30.5t-24.5 44.5h-15q-11 -52 -54 -75.5t-99 -23.5q-105 0 -159 67t-54 207t54 207.5t159 67.5q56 0 99 -23.5t54 -75.5h14
q11 52 54 75.5t99 23.5q105 0 159 -67.5t54 -207.5v-34h-300v-33q0 -44 27 -70.5t74 -26.5q39 0 66.5 17.5t50.5 48.5l71 -83q-31 -42 -77.5 -67.5t-110.5 -25.5z" />
    <glyph glyph-name="Racute" unicode="&#x154;" horiz-adv-x="610" 
d="M211 0h-143v698h302q94 0 143 -59t49 -158q0 -77 -29 -130t-86 -74l122 -277h-155l-108 264h-95v-264zM352 383q29 0 45.5 14.5t16.5 50.5v60q0 36 -16.5 50.5t-45.5 14.5h-141v-190h141zM307 740l-82 39l92 198l119 -58z" />
    <glyph glyph-name="racute" unicode="&#x155;" horiz-adv-x="367" 
d="M61 0v525h140v-112h16q3 22 10 42.5t19.5 36t31.5 24.5t45 9h25v-142h-36q-57 0 -84 -16t-27 -61v-306h-140zM217 579l-82 39l92 198l119 -58z" />
    <glyph glyph-name="Rcommaaccent" unicode="&#x156;" horiz-adv-x="610" 
d="M211 0h-143v698h302q94 0 143 -59t49 -158q0 -77 -29 -130t-86 -74l122 -277h-155l-108 264h-95v-264zM352 383q29 0 45.5 14.5t16.5 50.5v60q0 36 -16.5 50.5t-45.5 14.5h-141v-190h141zM291 -42q33 0 51.5 -14t18.5 -44v-20q0 -49 -19 -89.5t-48 -65.5h-83
q24 22 38.5 45t21.5 52q-28 2 -39 16t-11 42v20q0 30 18.5 44t51.5 14z" />
    <glyph glyph-name="rcommaaccent" unicode="&#x157;" horiz-adv-x="367" 
d="M61 0v525h140v-112h16q3 22 10 42.5t19.5 36t31.5 24.5t45 9h25v-142h-36q-57 0 -84 -16t-27 -61v-306h-140zM130 -42q33 0 51.5 -14t18.5 -44v-20q0 -49 -19 -89.5t-48 -65.5h-83q24 22 38.5 45t21.5 52q-28 2 -39 16t-11 42v20q0 30 18.5 44t51.5 14z" />
    <glyph glyph-name="Rcaron" unicode="&#x158;" horiz-adv-x="610" 
d="M211 0h-143v698h302q94 0 143 -59t49 -158q0 -77 -29 -130t-86 -74l122 -277h-155l-108 264h-95v-264zM352 383q29 0 45.5 14.5t16.5 50.5v60q0 36 -16.5 50.5t-45.5 14.5h-141v-190h141zM237 748l-129 162l69 55l115 -118l115 118l69 -55l-129 -162h-110z" />
    <glyph glyph-name="rcaron" unicode="&#x159;" horiz-adv-x="367" 
d="M61 0v525h140v-112h16q3 22 10 42.5t19.5 36t31.5 24.5t45 9h25v-142h-36q-57 0 -84 -16t-27 -61v-306h-140zM147 579l-129 162l69 55l115 -118l115 118l69 -55l-129 -162h-110z" />
    <glyph glyph-name="Sacute" unicode="&#x15a;" horiz-adv-x="556" 
d="M272 -12q-157 0 -246 110l92 92q60 -77 157 -77q100 0 100 88q0 36 -18 56t-56 28l-64 12q-97 18 -142.5 67.5t-45.5 137.5q0 102 60 155t176 53q148 0 225 -96l-92 -92q-26 32 -58.5 47.5t-76.5 15.5q-48 0 -69.5 -18t-21.5 -58q0 -35 16.5 -53t53.5 -26l64 -13
q51 -11 87.5 -26.5t60 -39.5t34 -57t10.5 -77q0 -112 -63 -170.5t-183 -58.5zM300 740l-82 39l92 198l119 -58z" />
    <glyph glyph-name="sacute" unicode="&#x15b;" horiz-adv-x="455" 
d="M226 -12q-129 0 -206 93l83 83q48 -68 126 -68q67 0 67 54q0 21 -10.5 32.5t-34.5 16.5l-53 10q-85 16 -122.5 53.5t-37.5 106.5q0 83 49 125.5t143 42.5q63 0 109.5 -19.5t81.5 -59.5l-80 -82q-45 53 -110 53q-61 0 -61 -54q0 -22 11 -33t36 -16l55 -10
q83 -15 119.5 -50.5t36.5 -101.5q0 -85 -53 -130.5t-149 -45.5zM246 579l-82 39l92 198l119 -58z" />
    <glyph glyph-name="Scircumflex" unicode="&#x15c;" horiz-adv-x="556" 
d="M272 -12q-157 0 -246 110l92 92q60 -77 157 -77q100 0 100 88q0 36 -18 56t-56 28l-64 12q-97 18 -142.5 67.5t-45.5 137.5q0 102 60 155t176 53q148 0 225 -96l-92 -92q-26 32 -58.5 47.5t-76.5 15.5q-48 0 -69.5 -18t-21.5 -58q0 -35 16.5 -53t53.5 -26l64 -13
q51 -11 87.5 -26.5t60 -39.5t34 -57t10.5 -77q0 -112 -63 -170.5t-183 -58.5zM340 956l129 -162l-69 -55l-115 118l-115 -118l-69 55l129 162h110z" />
    <glyph glyph-name="scircumflex" unicode="&#x15d;" horiz-adv-x="455" 
d="M226 -12q-129 0 -206 93l83 83q48 -68 126 -68q67 0 67 54q0 21 -10.5 32.5t-34.5 16.5l-53 10q-85 16 -122.5 53.5t-37.5 106.5q0 83 49 125.5t143 42.5q63 0 109.5 -19.5t81.5 -59.5l-80 -82q-45 53 -110 53q-61 0 -61 -54q0 -22 11 -33t36 -16l55 -10
q83 -15 119.5 -50.5t36.5 -101.5q0 -85 -53 -130.5t-149 -45.5zM286 796l129 -162l-69 -55l-115 118l-115 -118l-69 55l129 162h110z" />
    <glyph glyph-name="Scedilla" unicode="&#x15e;" horiz-adv-x="566" 
d="M287 585q-48 0 -69.5 -18t-21.5 -58q0 -35 16.5 -53t53.5 -26l64 -13q51 -11 87.5 -26.5t60 -39.5t34 -57t10.5 -77q0 -105 -56 -163t-162 -65l-10 -57h10q2 8 13 14t27 6q66 0 66 -71q0 -49 -31 -70t-89 -21q-45 0 -72.5 11.5t-42.5 31.5l40 52q9 -11 23.5 -18t38.5 -7
q23 0 32 6.5t9 23.5t-9 23.5t-32 6.5h-48l13 69q-133 10 -212 109l92 92q60 -77 157 -77q100 0 100 88q0 36 -18 56t-56 28l-64 12q-97 18 -142.5 67.5t-45.5 137.5q0 102 60 155t176 53q148 0 225 -96l-92 -92q-26 32 -58.5 47.5t-76.5 15.5z" />
    <glyph glyph-name="scedilla" unicode="&#x15f;" horiz-adv-x="455" 
d="M238 -210q-45 0 -72.5 11.5t-42.5 31.5l40 52q9 -11 23.5 -18t38.5 -7q23 0 32 6.5t9 23.5t-9 23.5t-32 6.5h-48l13 70q-103 10 -170 91l83 83q48 -68 126 -68q67 0 67 54q0 21 -10.5 32.5t-34.5 16.5l-53 10q-85 16 -122.5 53.5t-37.5 106.5q0 83 49 125.5t143 42.5
q63 0 109.5 -19.5t81.5 -59.5l-80 -82q-45 53 -110 53q-61 0 -61 -54q0 -22 11 -33t36 -16l55 -10q83 -15 119.5 -50.5t36.5 -101.5q0 -78 -46 -123.5t-130 -51.5l-10 -57h10q2 8 13 14t27 6q66 0 66 -71q0 -49 -31 -70t-89 -21z" />
    <glyph glyph-name="Scaron" unicode="&#x160;" horiz-adv-x="556" 
d="M272 -12q-157 0 -246 110l92 92q60 -77 157 -77q100 0 100 88q0 36 -18 56t-56 28l-64 12q-97 18 -142.5 67.5t-45.5 137.5q0 102 60 155t176 53q148 0 225 -96l-92 -92q-26 32 -58.5 47.5t-76.5 15.5q-48 0 -69.5 -18t-21.5 -58q0 -35 16.5 -53t53.5 -26l64 -13
q51 -11 87.5 -26.5t60 -39.5t34 -57t10.5 -77q0 -112 -63 -170.5t-183 -58.5zM230 748l-129 162l69 55l115 -118l115 118l69 -55l-129 -162h-110z" />
    <glyph glyph-name="scaron" unicode="&#x161;" horiz-adv-x="455" 
d="M226 -12q-129 0 -206 93l83 83q48 -68 126 -68q67 0 67 54q0 21 -10.5 32.5t-34.5 16.5l-53 10q-85 16 -122.5 53.5t-37.5 106.5q0 83 49 125.5t143 42.5q63 0 109.5 -19.5t81.5 -59.5l-80 -82q-45 53 -110 53q-61 0 -61 -54q0 -22 11 -33t36 -16l55 -10
q83 -15 119.5 -50.5t36.5 -101.5q0 -85 -53 -130.5t-149 -45.5zM176 579l-129 162l69 55l115 -118l115 118l69 -55l-129 -162h-110z" />
    <glyph glyph-name="Tcommaaccent" unicode="&#x162;" horiz-adv-x="527" 
d="M335 573v-573h-143v573h-167v125h477v-125h-167zM263 -42q33 0 51.5 -14t18.5 -44v-20q0 -49 -19 -89.5t-48 -65.5h-83q24 22 38.5 45t21.5 52q-28 2 -39 16t-11 42v20q0 30 18.5 44t51.5 14z" />
    <glyph glyph-name="tcommaaccent" unicode="&#x163;" horiz-adv-x="342" 
d="M223 0q-72 0 -104.5 32t-32.5 102v282h-66v109h32q28 0 38 12t10 39v91h126v-142h92v-109h-92v-307h82v-109h-85zM196 -42q33 0 51.5 -14t18.5 -44v-20q0 -49 -19 -89.5t-48 -65.5h-83q24 22 38.5 45t21.5 52q-28 2 -39 16t-11 42v20q0 30 18.5 44t51.5 14z" />
    <glyph glyph-name="Tcaron" unicode="&#x164;" horiz-adv-x="527" 
d="M335 573v-573h-143v573h-167v125h477v-125h-167zM210 748l-129 162l69 55l115 -118l115 118l69 -55l-129 -162h-110z" />
    <glyph glyph-name="tcaron" unicode="&#x165;" horiz-adv-x="342" 
d="M223 0q-72 0 -104.5 32t-32.5 102v282h-66v109h32q28 0 38 12t10 39v91h126v-142h92v-109h-92v-307h82v-109h-85zM358 576h-81l6 215h137z" />
    <glyph glyph-name="Tbar" unicode="&#x166;" horiz-adv-x="536" 
d="M335 280v-280h-143v280h-116v109h116v184h-167v125h477v-125h-167v-184h116v-109h-116z" />
    <glyph glyph-name="tbar" unicode="&#x167;" horiz-adv-x="355" 
d="M308 0h-85q-72 0 -104.5 32t-32.5 102v99h-56v83h56v100h-66v109h32q28 0 38 12t10 39v91h126v-142h92v-109h-92v-100h82v-83h-82v-124h82v-109z" />
    <glyph glyph-name="Utilde" unicode="&#x168;" horiz-adv-x="630" 
d="M207 698v-453q0 -69 23.5 -99.5t84.5 -30.5t84.5 30.5t23.5 99.5v453h143v-434q0 -74 -13 -126t-42.5 -85.5t-77.5 -49t-118 -15.5t-118 15.5t-77.5 49t-42.5 85.5t-13 126v434h143zM387 764q-18 0 -32 4t-42 18q-27 14 -42.5 19t-27.5 5q-17 0 -27 -6t-25 -20l-49 64
q17 27 43.5 43.5t57.5 16.5q9 0 16.5 -1t15.5 -3t18 -6.5t24 -11.5q27 -14 42.5 -19t27.5 -5q17 0 27 6t25 20l49 -64q-17 -27 -43.5 -43.5t-57.5 -16.5z" />
    <glyph glyph-name="utilde" unicode="&#x169;" 
d="M339 89h-16q-6 -21 -16.5 -39t-25.5 -32t-35 -22t-47 -8q-70 0 -107 47.5t-37 132.5v357h140v-330q0 -93 65 -93q32 0 55.5 19.5t23.5 54.5v349h140v-525h-140v89zM340 603q-18 0 -32 4t-42 18q-27 14 -42.5 19t-27.5 5q-17 0 -27 -6t-25 -20l-49 64q17 27 43.5 43.5
t57.5 16.5q9 0 16.5 -1t15.5 -3t18 -6.5t24 -11.5q27 -14 42.5 -19t27.5 -5q17 0 27 6t25 20l49 -64q-17 -27 -43.5 -43.5t-57.5 -16.5z" />
    <glyph glyph-name="Umacron" unicode="&#x16a;" horiz-adv-x="630" 
d="M207 698v-453q0 -69 23.5 -99.5t84.5 -30.5t84.5 30.5t23.5 99.5v453h143v-434q0 -74 -13 -126t-42.5 -85.5t-77.5 -49t-118 -15.5t-118 15.5t-77.5 49t-42.5 85.5t-13 126v434h143zM177 888h276v-103h-276v103z" />
    <glyph glyph-name="umacron" unicode="&#x16b;" 
d="M339 89h-16q-6 -21 -16.5 -39t-25.5 -32t-35 -22t-47 -8q-70 0 -107 47.5t-37 132.5v357h140v-330q0 -93 65 -93q32 0 55.5 19.5t23.5 54.5v349h140v-525h-140v89zM130 727h276v-103h-276v103z" />
    <glyph glyph-name="Ubreve" unicode="&#x16c;" horiz-adv-x="630" 
d="M207 698v-453q0 -69 23.5 -99.5t84.5 -30.5t84.5 30.5t23.5 99.5v453h143v-434q0 -74 -13 -126t-42.5 -85.5t-77.5 -49t-118 -15.5t-118 15.5t-77.5 49t-42.5 85.5t-13 126v434h143zM315 740q-33 0 -58 7.5t-45.5 27t-38.5 53t-36 84.5l76 40l20 -43q10 -23 19.5 -37
t19 -22t20 -11t23.5 -3q26 0 44.5 14.5t38.5 58.5l20 43l75 -40q-18 -51 -36.5 -84.5t-39.5 -53t-46 -27t-56 -7.5z" />
    <glyph glyph-name="ubreve" unicode="&#x16d;" 
d="M339 89h-16q-6 -21 -16.5 -39t-25.5 -32t-35 -22t-47 -8q-70 0 -107 47.5t-37 132.5v357h140v-330q0 -93 65 -93q32 0 55.5 19.5t23.5 54.5v349h140v-525h-140v89zM268 579q-33 0 -58 7.5t-45.5 27t-38.5 53t-36 84.5l76 40l20 -43q10 -23 19.5 -37t19 -22t20 -11
t23.5 -3q26 0 44.5 14.5t38.5 58.5l20 43l75 -40q-18 -51 -36.5 -84.5t-39.5 -53t-46 -27t-56 -7.5z" />
    <glyph glyph-name="Uring" unicode="&#x16e;" horiz-adv-x="630" 
d="M207 698v-453q0 -69 23.5 -99.5t84.5 -30.5t84.5 30.5t23.5 99.5v453h143v-434q0 -74 -13 -126t-42.5 -85.5t-77.5 -49t-118 -15.5t-118 15.5t-77.5 49t-42.5 85.5t-13 126v434h143zM315 719q-66 0 -104.5 38t-38.5 105t38.5 105t104.5 38t104.5 -38t38.5 -105
t-38.5 -105t-104.5 -38zM315 791q23 0 37 10.5t14 33.5v54q0 23 -14 33.5t-37 10.5t-37 -10.5t-14 -33.5v-54q0 -23 14 -33.5t37 -10.5z" />
    <glyph glyph-name="uring" unicode="&#x16f;" 
d="M339 89h-16q-6 -21 -16.5 -39t-25.5 -32t-35 -22t-47 -8q-70 0 -107 47.5t-37 132.5v357h140v-330q0 -93 65 -93q32 0 55.5 19.5t23.5 54.5v349h140v-525h-140v89zM268 558q-66 0 -104.5 38t-38.5 105t38.5 105t104.5 38t104.5 -38t38.5 -105t-38.5 -105t-104.5 -38z
M268 630q23 0 37 10.5t14 33.5v54q0 23 -14 33.5t-37 10.5t-37 -10.5t-14 -33.5v-54q0 -23 14 -33.5t37 -10.5z" />
    <glyph glyph-name="Uhungarumlaut" unicode="&#x170;" horiz-adv-x="630" 
d="M207 698v-453q0 -69 23.5 -99.5t84.5 -30.5t84.5 30.5t23.5 99.5v453h143v-434q0 -74 -13 -126t-42.5 -85.5t-77.5 -49t-118 -15.5t-118 15.5t-77.5 49t-42.5 85.5t-13 126v434h143zM231 740l-76 36l94 197l110 -54zM420 740l-76 36l94 197l110 -54z" />
    <glyph glyph-name="uhungarumlaut" unicode="&#x171;" 
d="M339 89h-16q-6 -21 -16.5 -39t-25.5 -32t-35 -22t-47 -8q-70 0 -107 47.5t-37 132.5v357h140v-330q0 -93 65 -93q32 0 55.5 19.5t23.5 54.5v349h140v-525h-140v89zM184 579l-76 36l94 197l110 -54zM373 579l-76 36l94 197l110 -54z" />
    <glyph glyph-name="Uogonek" unicode="&#x172;" horiz-adv-x="630" 
d="M207 698v-453q0 -69 23.5 -99.5t84.5 -30.5t84.5 30.5t23.5 99.5v453h143v-434q0 -92 -22 -149.5t-72 -94.5q-32 -24 -54.5 -42.5t-36.5 -34t-20 -28.5t-6 -25q0 -13 8 -22t26 -9q17 0 29 8t20 18l45 -47q-19 -22 -48 -36t-62 -14q-55 0 -83.5 20t-28.5 56q0 68 120 123
l-1 8q-15 -3 -31 -5t-34 -2q-70 0 -118 15.5t-77.5 49t-42.5 85.5t-13 126v434h143z" />
    <glyph glyph-name="uogonek" unicode="&#x173;" 
d="M504 -162q-19 -22 -48 -36t-62 -14q-112 0 -112 83q0 38 35 68.5t98 52.5l-2 8h-74v89h-16q-6 -21 -16.5 -39t-25.5 -32t-35 -22t-47 -8q-70 0 -107 47.5t-37 132.5v357h140v-330q0 -93 65 -93q32 0 55.5 19.5t23.5 54.5v349h140v-525q-59 -35 -81 -60t-22 -48
q0 -14 8 -23.5t26 -9.5q17 0 29 8t20 18l45 -47v0z" />
    <glyph glyph-name="Wcircumflex" unicode="&#x174;" horiz-adv-x="884" 
d="M167 0l-140 698h141l66 -386l18 -155h16l18 151l80 390h157l81 -390l18 -151h16l18 155l65 386h136l-146 -698h-162l-82 402l-18 139h-16l-18 -139l-82 -402h-166zM497 956l129 -162l-69 -55l-115 118l-115 -118l-69 55l129 162h110z" />
    <glyph glyph-name="wcircumflex" unicode="&#x175;" horiz-adv-x="756" 
d="M12 525h137l51 -253l17 -144h14l21 144l60 253h136l63 -253l21 -144h12l17 144l55 253h128l-128 -525h-153l-59 256l-19 141h-14l-19 -141l-59 -256h-153zM433 796l129 -162l-69 -55l-115 118l-115 -118l-69 55l129 162h110z" />
    <glyph glyph-name="Ycircumflex" unicode="&#x176;" horiz-adv-x="579" 
d="M218 0v263l-213 435h156l124 -286h16l120 286h153l-213 -435v-263h-143zM345 956l129 -162l-69 -55l-115 118l-115 -118l-69 55l129 162h110z" />
    <glyph glyph-name="ycircumflex" unicode="&#x177;" horiz-adv-x="496" 
d="M352 525h140l-197 -625q-9 -29 -22.5 -48.5t-32 -31t-42.5 -16t-55 -4.5h-94v109h114l17 62l-176 554h144l77 -291l19 -116h14l19 117zM304 796l129 -162l-69 -55l-115 118l-115 -118l-69 55l129 162h110z" />
    <glyph glyph-name="Ydieresis" unicode="&#x178;" horiz-adv-x="579" 
d="M218 0v263l-213 435h156l124 -286h16l120 286h153l-213 -435v-263h-143zM194 765q-42 0 -57.5 15.5t-15.5 42.5v29q0 27 15.5 42.5t57.5 15.5t57.5 -15.5t15.5 -42.5v-29q0 -27 -15.5 -42.5t-57.5 -15.5zM386 765q-42 0 -57.5 15.5t-15.5 42.5v29q0 27 15.5 42.5
t57.5 15.5t57.5 -15.5t15.5 -42.5v-29q0 -27 -15.5 -42.5t-57.5 -15.5z" />
    <glyph glyph-name="Zacute" unicode="&#x179;" horiz-adv-x="546" 
d="M511 0h-476v126l303 447h-287v125h452v-126l-304 -447h312v-125zM288 740l-82 39l92 198l119 -58z" />
    <glyph glyph-name="zacute" unicode="&#x17a;" horiz-adv-x="466" 
d="M36 0v110l231 306h-223v109h380v-110l-233 -306h239v-109h-394zM249 579l-82 39l92 198l119 -58z" />
    <glyph glyph-name="Zdotaccent" unicode="&#x17b;" horiz-adv-x="546" 
d="M511 0h-476v126l303 447h-287v125h452v-126l-304 -447h312v-125zM273 765q-42 0 -58.5 16.5t-16.5 43.5v25q0 27 16.5 43.5t58.5 16.5t58.5 -16.5t16.5 -43.5v-25q0 -27 -16.5 -43.5t-58.5 -16.5z" />
    <glyph glyph-name="zdotaccent" unicode="&#x17c;" horiz-adv-x="466" 
d="M36 0v110l231 306h-223v109h380v-110l-233 -306h239v-109h-394zM234 602q-42 0 -58.5 16.5t-16.5 43.5v25q0 27 16.5 43.5t58.5 16.5t58.5 -16.5t16.5 -43.5v-25q0 -27 -16.5 -43.5t-58.5 -16.5z" />
    <glyph glyph-name="Zcaron" unicode="&#x17d;" horiz-adv-x="546" 
d="M511 0h-476v126l303 447h-287v125h452v-126l-304 -447h312v-125zM218 748l-129 162l69 55l115 -118l115 118l69 -55l-129 -162h-110z" />
    <glyph glyph-name="zcaron" unicode="&#x17e;" horiz-adv-x="466" 
d="M36 0v110l231 306h-223v109h380v-110l-233 -306h239v-109h-394zM179 579l-129 162l69 55l115 -118l115 118l69 -55l-129 -162h-110z" />
    <glyph glyph-name="uni018F" unicode="&#x18f;" horiz-adv-x="644" 
d="M322 -12q-63 0 -114.5 19.5t-87.5 63t-56 112t-20 166.5v44h400v19q0 49 -6.5 82t-21 53.5t-38 29t-56.5 8.5q-60 0 -88.5 -27.5t-42.5 -85.5l-127 43q24 88 86 141.5t172 53.5q63 0 114.5 -19.5t87.5 -63t56 -112t20 -166.5t-20 -166.5t-56 -112t-87.5 -63t-114.5 -19.5
zM199 274q0 -45 6.5 -75.5t20.5 -49.5t37.5 -27.5t58.5 -8.5q34 0 58 8.5t38 27.5t20.5 49.5t6.5 75.5v4h-246v-4z" />
    <glyph glyph-name="florin" unicode="&#x192;" horiz-adv-x="436" 
d="M16 -25h100l25 283h-91l12 114h91l17 193q5 64 40 98.5t109 34.5h107l-11 -109h-104l-19 -217h108l-12 -114h-108l-23 -259q-6 -65 -39.5 -99t-108.5 -34h-103z" />
    <glyph glyph-name="Ohorn" unicode="&#x1a0;" horiz-adv-x="642" 
d="M626 801v-104q0 -26 -4 -43t-14.5 -28t-28.5 -15.5t-46 -4.5h-95v-14q85 -5 122.5 -63t37.5 -180q0 -98 -20 -166.5t-56 -112t-87 -63t-114 -19.5t-114 19.5t-87 63t-56 112t-20 166.5t20 166.5t56 112t87 63t114 19.5q49 0 91 -12h101v103h113zM321 114q60 0 92.5 36
t32.5 108v182q0 72 -32.5 108t-92.5 36t-92.5 -36t-32.5 -108v-182q0 -72 32.5 -108t92.5 -36z" />
    <glyph glyph-name="ohorn" unicode="&#x1a1;" horiz-adv-x="508" 
d="M517 627v-103q0 -33 -21 -54.5t-72 -21.5h-80v-14q39 0 65 -16t41 -41.5t21 -56t6 -58.5q0 -140 -56.5 -207t-166.5 -67t-166.5 67t-56.5 207t56.5 207.5t166.5 67.5q45 0 83 -12h67v102h113zM254 99q77 0 77 90v147q0 90 -77 90t-77 -90v-147q0 -90 77 -90z" />
    <glyph glyph-name="Uhorn" unicode="&#x1af;" horiz-adv-x="642" 
d="M566 264q0 -74 -13 -126t-42.5 -85.5t-77.5 -49t-118 -15.5t-118 15.5t-77.5 49t-42.5 85.5t-13 126v434h143v-453q0 -69 23.5 -99.5t84.5 -30.5t84.5 30.5t23.5 99.5v453h110v103h113v-104q0 -44 -16 -63t-64 -21v-349v0z" />
    <glyph glyph-name="uhorn" unicode="&#x1b0;" horiz-adv-x="552" 
d="M323 89q-6 -21 -16.5 -39t-25.5 -32t-35 -22t-47 -8q-70 0 -107 47.5t-37 132.5v357h140v-330q0 -93 65 -93q32 0 55.5 19.5t23.5 54.5v349h107v102h113v-103q0 -44 -16 -63t-64 -21v-440h-140v89h-16v0z" />
    <glyph glyph-name="Aringacute" unicode="&#x1fa;" horiz-adv-x="618" 
d="M457 0l-43 171h-214l-43 -171h-137l198 698h182l198 -698h-141zM336 447l-22 121h-16l-22 -121l-41 -161h144zM291 976l-46 48l129 126l68 -71zM309 725q-66 0 -104.5 30.5t-38.5 89.5t38.5 89.5t104.5 30.5t104.5 -30.5t38.5 -89.5t-38.5 -89.5t-104.5 -30.5zM309 791
q23 0 39 11.5t16 31.5v22q0 20 -16 31.5t-39 11.5t-39 -11.5t-16 -31.5v-22q0 -20 16 -31.5t39 -11.5z" />
    <glyph glyph-name="aringacute" unicode="&#x1fb;" horiz-adv-x="516" 
d="M407 0q-82 0 -89 91h-13q-8 -48 -43 -75.5t-89 -27.5q-71 0 -107 40.5t-36 112.5q0 86 52.5 125t146.5 39h76v41q0 41 -17 61t-57 20q-35 0 -58.5 -17.5t-41.5 -46.5l-83 74q32 47 78 73.5t118 26.5q103 0 152 -48t49 -143v-237h43v-109h-81zM229 86q31 0 53.5 17.5
t22.5 54.5v65h-63q-72 0 -72 -60v-19q0 -30 15.5 -44t43.5 -14zM227 815l-46 48l129 126l68 -71zM245 564q-66 0 -104.5 30.5t-38.5 89.5t38.5 89.5t104.5 30.5t104.5 -30.5t38.5 -89.5t-38.5 -89.5t-104.5 -30.5zM245 630q23 0 39 11.5t16 31.5v22q0 20 -16 31.5t-39 11.5
t-39 -11.5t-16 -31.5v-22q0 -20 16 -31.5t39 -11.5z" />
    <glyph glyph-name="AEacute" unicode="&#x1fc;" horiz-adv-x="875" 
d="M394 171h-180l-70 -171h-144l298 698h528v-125h-289v-158h245v-124h-245v-166h289v-125h-432v171zM378 573l-117 -287h133v287h-16zM542 740l-82 39l92 198l119 -58z" />
    <glyph glyph-name="aeacute" unicode="&#x1fd;" horiz-adv-x="783" 
d="M242 226q-36 0 -54 -17t-18 -46v-19q0 -30 15.5 -44t43.5 -14q31 0 56.5 17.5t25.5 54.5v68h-69zM606 308v34q0 90 -77 90t-77 -90v-34h154zM553 98q39 0 66.5 17.5t50.5 48.5l71 -83q-31 -42 -77.5 -67.5t-110.5 -25.5q-30 0 -59.5 6.5t-53.5 19.5t-40.5 32.5
t-22.5 44.5h-16q-13 -47 -58.5 -75t-120.5 -28t-113.5 40.5t-38.5 112.5q0 86 52.5 126.5t146.5 40.5h82v38q0 81 -80 81q-35 0 -58.5 -17.5t-41.5 -46.5l-83 74q32 46 76 73t110 27q21 0 43.5 -4.5t42 -16.5t34 -32t19.5 -50h13q10 54 53 78.5t100 24.5q105 0 159 -68.5
t54 -208.5v-34h-300v-31q0 -44 27 -70.5t74 -26.5zM412 579l-82 39l92 198l119 -58z" />
    <glyph glyph-name="Oslashacute" unicode="&#x1fe;" horiz-adv-x="642" 
d="M321 -12q-79 0 -137 31l-43 -72l-87 54l52 88q-30 44 -46 108t-16 152q0 98 20 166.5t56 112t87 63t114 19.5q79 0 137 -31l43 72l87 -54l-52 -87q30 -44 46 -108t16 -153q0 -98 -20 -166.5t-56 -112t-87 -63t-114 -19.5zM191 200l122 218l90 153q-31 22 -82 22
q-65 0 -99 -37t-34 -112v-123l-13 -121h16zM238 128q34 -23 83 -23q65 0 99 37t34 112v131l13 113h-16l-122 -218zM336 740l-82 39l92 198l119 -58z" />
    <glyph glyph-name="oslashacute" unicode="&#x1ff;" horiz-adv-x="515" 
d="M254 -12q-73 0 -121 29l-51 -65l-71 56l57 76q-37 68 -37 178q0 140 56.5 207.5t166.5 67.5q72 0 122 -30l50 66l71 -56l-57 -77q37 -68 37 -178q0 -140 -56.5 -207t-166.5 -67zM169 194l85 133l60 86q-22 20 -60 20q-83 0 -83 -90v-38l-14 -111h12zM194 113
q21 -21 60 -21q83 0 83 90v38l14 111h-12l-85 -133zM273 579l-82 39l92 198l119 -58z" />
    <glyph glyph-name="Scommaaccent" unicode="&#x218;" horiz-adv-x="556" 
d="M272 -12q-157 0 -246 110l92 92q60 -77 157 -77q100 0 100 88q0 36 -18 56t-56 28l-64 12q-97 18 -142.5 67.5t-45.5 137.5q0 102 60 155t176 53q148 0 225 -96l-92 -92q-26 32 -58.5 47.5t-76.5 15.5q-48 0 -69.5 -18t-21.5 -58q0 -35 16.5 -53t53.5 -26l64 -13
q51 -11 87.5 -26.5t60 -39.5t34 -57t10.5 -77q0 -112 -63 -170.5t-183 -58.5zM271 -42q33 0 51.5 -14t18.5 -44v-20q0 -49 -19 -89.5t-48 -65.5h-83q24 22 38.5 45t21.5 52q-28 2 -39 16t-11 42v20q0 30 18.5 44t51.5 14z" />
    <glyph glyph-name="scommaaccent" unicode="&#x219;" horiz-adv-x="455" 
d="M226 -12q-129 0 -206 93l83 83q48 -68 126 -68q67 0 67 54q0 21 -10.5 32.5t-34.5 16.5l-53 10q-85 16 -122.5 53.5t-37.5 106.5q0 83 49 125.5t143 42.5q63 0 109.5 -19.5t81.5 -59.5l-80 -82q-45 53 -110 53q-61 0 -61 -54q0 -22 11 -33t36 -16l55 -10
q83 -15 119.5 -50.5t36.5 -101.5q0 -85 -53 -130.5t-149 -45.5zM229 -42q33 0 51.5 -14t18.5 -44v-20q0 -49 -19 -89.5t-48 -65.5h-83q24 22 38.5 45t21.5 52q-28 2 -39 16t-11 42v20q0 30 18.5 44t51.5 14z" />
    <glyph glyph-name="uni021A" unicode="&#x21a;" horiz-adv-x="527" 
d="M335 573v-573h-143v573h-167v125h477v-125h-167zM263 -42q33 0 51.5 -14t18.5 -44v-20q0 -49 -19 -89.5t-48 -65.5h-83q24 22 38.5 45t21.5 52q-28 2 -39 16t-11 42v20q0 30 18.5 44t51.5 14z" />
    <glyph glyph-name="uni021B" unicode="&#x21b;" horiz-adv-x="342" 
d="M223 0q-72 0 -104.5 32t-32.5 102v282h-66v109h32q28 0 38 12t10 39v91h126v-142h92v-109h-92v-307h82v-109h-85zM196 -42q33 0 51.5 -14t18.5 -44v-20q0 -49 -19 -89.5t-48 -65.5h-83q24 22 38.5 45t21.5 52q-28 2 -39 16t-11 42v20q0 30 18.5 44t51.5 14z" />
    <glyph glyph-name="uni0237" unicode="&#x237;" horiz-adv-x="266" 
d="M-5 -91h70v616h140v-593q0 -67 -31.5 -99.5t-104.5 -32.5h-74v109z" />
    <glyph glyph-name="uni0259" unicode="&#x259;" horiz-adv-x="508" 
d="M331 297v33q0 44 -27 70.5t-74 26.5q-39 0 -66.5 -17.5t-50.5 -48.5l-71 83q32 43 81.5 68t116.5 25q108 0 172.5 -68.5t64.5 -205.5q0 -140 -56.5 -207.5t-166.5 -67.5t-166.5 68t-56.5 207v34h300zM177 183q0 -90 77 -90t77 90v32h-154v-32z" />
    <glyph glyph-name="uni02BB" unicode="&#x2bb;" 
d="M270 576q-33 0 -51.5 14t-18.5 44v20q0 49 19 89.5t48 65.5h83q-24 -22 -38.5 -45t-21.5 -52q28 -2 39 -16t11 -42v-20q0 -30 -18.5 -44t-51.5 -14z" />
    <glyph glyph-name="uni02BC" unicode="&#x2bc;" 
d="M351 525h-81l6 215h137z" />
    <glyph glyph-name="circumflex" unicode="&#x2c6;" 
d="M325 796l129 -162l-69 -55l-115 118l-115 -118l-69 55l129 162h110z" />
    <glyph glyph-name="caron" unicode="&#x2c7;" 
d="M215 579l-129 162l69 55l115 -118l115 118l69 -55l-129 -162h-110z" />
    <glyph glyph-name="breve" unicode="&#x2d8;" 
d="M270 579q-33 0 -58 7.5t-45.5 27t-38.5 53t-36 84.5l76 40l20 -43q10 -23 19.5 -37t19 -22t20 -11t23.5 -3q26 0 44.5 14.5t38.5 58.5l20 43l75 -40q-18 -51 -36.5 -84.5t-39.5 -53t-46 -27t-56 -7.5z" />
    <glyph glyph-name="dotaccent" unicode="&#x2d9;" 
d="M270 602q-42 0 -58.5 16.5t-16.5 43.5v25q0 27 16.5 43.5t58.5 16.5t58.5 -16.5t16.5 -43.5v-25q0 -27 -16.5 -43.5t-58.5 -16.5z" />
    <glyph glyph-name="ring" unicode="&#x2da;" 
d="M270 558q-66 0 -104.5 38t-38.5 105t38.5 105t104.5 38t104.5 -38t38.5 -105t-38.5 -105t-104.5 -38zM270 630q23 0 37 10.5t14 33.5v54q0 23 -14 33.5t-37 10.5t-37 -10.5t-14 -33.5v-54q0 -23 14 -33.5t37 -10.5z" />
    <glyph glyph-name="ogonek" unicode="&#x2db;" 
d="M185 -212q-112 0 -112 83q0 38 31 68.5t87 52.5v30h70l9 -22q-59 -35 -81 -60t-22 -48q0 -14 8 -23.5t26 -9.5q17 0 29 8t20 18l45 -47q-19 -22 -48 -36t-62 -14z" />
    <glyph glyph-name="tilde" unicode="&#x2dc;" 
d="M342 603q-18 0 -32 4t-42 18q-27 14 -42.5 19t-27.5 5q-17 0 -27 -6t-25 -20l-49 64q17 27 43.5 43.5t57.5 16.5q9 0 16.5 -1t15.5 -3t18 -6.5t24 -11.5q27 -14 42.5 -19t27.5 -5q17 0 27 6t25 20l49 -64q-17 -27 -43.5 -43.5t-57.5 -16.5z" />
    <glyph glyph-name="hungarumlaut" unicode="&#x2dd;" 
d="M186 579l-76 36l94 197l110 -54zM375 579l-76 36l94 197l110 -54z" />
    <glyph glyph-name="uni0300" unicode="&#x300;" horiz-adv-x="0" 
d="M-143 758l119 58l92 -198l-82 -39z" />
    <glyph glyph-name="uni0301" unicode="&#x301;" horiz-adv-x="0" 
d="M16 579l-82 39l92 198l119 -58z" />
    <glyph glyph-name="uni0302" unicode="&#x302;" horiz-adv-x="0" 
d="M56 796l129 -162l-69 -55l-115 118l-115 -118l-69 55l129 162h110z" />
    <glyph glyph-name="uni0303" unicode="&#x303;" horiz-adv-x="0" 
d="M73 603q-18 0 -32 4t-42 18q-27 14 -42.5 19t-27.5 5q-17 0 -27 -6t-25 -20l-49 64q17 27 43.5 43.5t57.5 16.5q9 0 16.5 -1t15.5 -3t18 -6.5t24 -11.5q27 -14 42.5 -19t27.5 -5q17 0 27 6t25 20l49 -64q-17 -27 -43.5 -43.5t-57.5 -16.5z" />
    <glyph glyph-name="uni0304" unicode="&#x304;" horiz-adv-x="0" 
d="M-137 727h276v-103h-276v103z" />
    <glyph glyph-name="uni0306" unicode="&#x306;" horiz-adv-x="0" 
d="M1 579q-33 0 -58 7.5t-45.5 27t-38.5 53t-36 84.5l76 40l20 -43q10 -23 19.5 -37t19 -22t20 -11t23.5 -3q26 0 44.5 14.5t38.5 58.5l20 43l75 -40q-18 -51 -36.5 -84.5t-39.5 -53t-46 -27t-56 -7.5z" />
    <glyph glyph-name="uni0307" unicode="&#x307;" horiz-adv-x="0" 
d="M1 602q-42 0 -58.5 16.5t-16.5 43.5v25q0 27 16.5 43.5t58.5 16.5t58.5 -16.5t16.5 -43.5v-25q0 -27 -16.5 -43.5t-58.5 -16.5z" />
    <glyph glyph-name="uni0308" unicode="&#x308;" horiz-adv-x="0" 
d="M-95 602q-42 0 -57.5 15.5t-15.5 42.5v29q0 27 15.5 42.5t57.5 15.5t57.5 -15.5t15.5 -42.5v-29q0 -27 -15.5 -42.5t-57.5 -15.5zM97 602q-42 0 -57.5 15.5t-15.5 42.5v29q0 27 15.5 42.5t57.5 15.5t57.5 -15.5t15.5 -42.5v-29q0 -27 -15.5 -42.5t-57.5 -15.5z" />
    <glyph glyph-name="uni0309" unicode="&#x309;" horiz-adv-x="0" 
d="M-112 802h140q51 0 70.5 -19t19.5 -54q0 -14 -2.5 -25t-7.5 -22t-12.5 -23.5t-18.5 -28.5l-42 -61l-74 33l43 100h-116v100z" />
    <glyph glyph-name="uni030A" unicode="&#x30a;" horiz-adv-x="0" 
d="M1 558q-66 0 -104.5 38t-38.5 105t38.5 105t104.5 38t104.5 -38t38.5 -105t-38.5 -105t-104.5 -38zM1 630q23 0 37 10.5t14 33.5v54q0 23 -14 33.5t-37 10.5t-37 -10.5t-14 -33.5v-54q0 -23 14 -33.5t37 -10.5z" />
    <glyph glyph-name="uni030B" unicode="&#x30b;" horiz-adv-x="0" 
d="M-83 579l-76 36l94 197l110 -54zM106 579l-76 36l94 197l110 -54z" />
    <glyph glyph-name="uni030C" unicode="&#x30c;" horiz-adv-x="0" 
d="M-54 579l-129 162l69 55l115 -118l115 118l69 -55l-129 -162h-110z" />
    <glyph glyph-name="uni0312" unicode="&#x312;" horiz-adv-x="0" 
d="M1 576q-33 0 -51.5 14t-18.5 44v20q0 49 19 89.5t48 65.5h83q-24 -22 -38.5 -45t-21.5 -52q28 -2 39 -16t11 -42v-20q0 -30 -18.5 -44t-51.5 -14z" />
    <glyph glyph-name="uni0315" unicode="&#x315;" horiz-adv-x="0" 
d="M82 525h-81l6 215h137z" />
    <glyph glyph-name="uni031B" unicode="&#x31b;" horiz-adv-x="0" 
d="M117 524q0 -47 -18.5 -65.5t-74.5 -18.5h-141v85h121v102h113v-103z" />
    <glyph glyph-name="uni0323" unicode="&#x323;" horiz-adv-x="0" 
d="M0 -199q-42 0 -58.5 16t-16.5 42v29q0 26 16.5 42t58.5 16t58.5 -16t16.5 -42v-29q0 -26 -16.5 -42t-58.5 -16z" />
    <glyph glyph-name="uni0326" unicode="&#x326;" horiz-adv-x="0" 
d="M-1 -42q33 0 51.5 -14t18.5 -44v-20q0 -49 -19 -89.5t-48 -65.5h-83q24 22 38.5 45t21.5 52q-28 2 -39 16t-11 42v20q0 30 18.5 44t51.5 14z" />
    <glyph glyph-name="uni0327" unicode="&#x327;" horiz-adv-x="0" 
d="M15 -210q-45 0 -72.5 11.5t-42.5 31.5l40 52q9 -11 23.5 -18t38.5 -7q23 0 32 6.5t9 23.5t-9 23.5t-32 6.5h-48l21 110h62l-18 -98h10q2 8 13 14t27 6q66 0 66 -71q0 -49 -31 -70t-89 -21z" />
    <glyph glyph-name="uni0328" unicode="&#x328;" horiz-adv-x="0" 
d="M-84 -212q-112 0 -112 83q0 38 31 68.5t87 52.5v30h70l9 -22q-59 -35 -81 -60t-22 -48q0 -14 8 -23.5t26 -9.5q17 0 29 8t20 18l45 -47q-19 -22 -48 -36t-62 -14z" />
    <glyph glyph-name="pi" unicode="&#x3c0;" horiz-adv-x="568" 
d="M479 109h65v-109h-68q-73 0 -105 32t-32 102v282h-116v-416h-140v416h-66v109h528v-109h-66v-307z" />
    <glyph glyph-name="uni0E3F" unicode="&#xe3f;" horiz-adv-x="603" 
d="M357 -82h-108v102h-181v658h181v102h108v-102h35q78 0 116 -44t38 -125q0 -72 -27.5 -102.5t-88.5 -35.5v-16q30 -1 55 -9t44 -25t29.5 -45t10.5 -68q0 -41 -10.5 -75.5t-30 -59.5t-47.5 -39t-64 -14h-60v-102zM263 404v161h-65v-161h65zM343 404h20q47 0 47 59v43
q0 59 -47 59h-20v-161zM263 133v165h-65v-165h65zM343 133h43q47 0 47 61v43q0 61 -47 61h-43v-165z" />
    <glyph glyph-name="Wgrave" unicode="&#x1e80;" horiz-adv-x="884" 
d="M167 0l-140 698h141l66 -386l18 -155h16l18 151l80 390h157l81 -390l18 -151h16l18 155l65 386h136l-146 -698h-162l-82 402l-18 139h-16l-18 -139l-82 -402h-166zM298 919l119 58l92 -198l-82 -39z" />
    <glyph glyph-name="wgrave" unicode="&#x1e81;" horiz-adv-x="756" 
d="M12 525h137l51 -253l17 -144h14l21 144l60 253h136l63 -253l21 -144h12l17 144l55 253h128l-128 -525h-153l-59 256l-19 141h-14l-19 -141l-59 -256h-153zM234 758l119 58l92 -198l-82 -39z" />
    <glyph glyph-name="Wacute" unicode="&#x1e82;" horiz-adv-x="884" 
d="M167 0l-140 698h141l66 -386l18 -155h16l18 151l80 390h157l81 -390l18 -151h16l18 155l65 386h136l-146 -698h-162l-82 402l-18 139h-16l-18 -139l-82 -402h-166zM457 740l-82 39l92 198l119 -58z" />
    <glyph glyph-name="wacute" unicode="&#x1e83;" horiz-adv-x="756" 
d="M12 525h137l51 -253l17 -144h14l21 144l60 253h136l63 -253l21 -144h12l17 144l55 253h128l-128 -525h-153l-59 256l-19 141h-14l-19 -141l-59 -256h-153zM393 579l-82 39l92 198l119 -58z" />
    <glyph glyph-name="Wdieresis" unicode="&#x1e84;" horiz-adv-x="884" 
d="M167 0l-140 698h141l66 -386l18 -155h16l18 151l80 390h157l81 -390l18 -151h16l18 155l65 386h136l-146 -698h-162l-82 402l-18 139h-16l-18 -139l-82 -402h-166zM346 765q-42 0 -57.5 15.5t-15.5 42.5v29q0 27 15.5 42.5t57.5 15.5t57.5 -15.5t15.5 -42.5v-29
q0 -27 -15.5 -42.5t-57.5 -15.5zM538 765q-42 0 -57.5 15.5t-15.5 42.5v29q0 27 15.5 42.5t57.5 15.5t57.5 -15.5t15.5 -42.5v-29q0 -27 -15.5 -42.5t-57.5 -15.5z" />
    <glyph glyph-name="wdieresis" unicode="&#x1e85;" horiz-adv-x="756" 
d="M12 525h137l51 -253l17 -144h14l21 144l60 253h136l63 -253l21 -144h12l17 144l55 253h128l-128 -525h-153l-59 256l-19 141h-14l-19 -141l-59 -256h-153zM282 602q-42 0 -57.5 15.5t-15.5 42.5v29q0 27 15.5 42.5t57.5 15.5t57.5 -15.5t15.5 -42.5v-29
q0 -27 -15.5 -42.5t-57.5 -15.5zM474 602q-42 0 -57.5 15.5t-15.5 42.5v29q0 27 15.5 42.5t57.5 15.5t57.5 -15.5t15.5 -42.5v-29q0 -27 -15.5 -42.5t-57.5 -15.5z" />
    <glyph glyph-name="uni1E9E" unicode="&#x1e9e;" horiz-adv-x="661" 
d="M636 213q0 -113 -55 -169t-152 -56q-63 0 -106 21.5t-72 59.5l86 86q17 -19 37 -33.5t55 -14.5q29 0 46 20t17 56v51q0 36 -18.5 54t-64.5 18h-86v112l111 160h-223v-578h-143v698h509v-130l-114 -154v-2q85 -5 129 -52t44 -147z" />
    <glyph glyph-name="uni1EA0" unicode="&#x1ea0;" horiz-adv-x="618" 
d="M457 0l-43 171h-214l-43 -171h-137l198 698h182l198 -698h-141zM336 447l-22 121h-16l-22 -121l-41 -161h144zM309 -199q-42 0 -58.5 16t-16.5 42v29q0 26 16.5 42t58.5 16t58.5 -16t16.5 -42v-29q0 -26 -16.5 -42t-58.5 -16z" />
    <glyph glyph-name="uni1EA1" unicode="&#x1ea1;" horiz-adv-x="516" 
d="M407 0q-82 0 -89 91h-13q-8 -48 -43 -75.5t-89 -27.5q-71 0 -107 40.5t-36 112.5q0 86 52.5 125t146.5 39h76v41q0 41 -17 61t-57 20q-35 0 -58.5 -17.5t-41.5 -46.5l-83 74q32 47 78 73.5t118 26.5q103 0 152 -48t49 -143v-237h43v-109h-81zM229 86q31 0 53.5 17.5
t22.5 54.5v65h-63q-72 0 -72 -60v-19q0 -30 15.5 -44t43.5 -14zM244 -199q-42 0 -58.5 16t-16.5 42v29q0 26 16.5 42t58.5 16t58.5 -16t16.5 -42v-29q0 -26 -16.5 -42t-58.5 -16z" />
    <glyph glyph-name="uni1EA2" unicode="&#x1ea2;" horiz-adv-x="618" 
d="M457 0l-43 171h-214l-43 -171h-137l198 698h182l198 -698h-141zM336 447l-22 121h-16l-22 -121l-41 -161h144zM197 963h140q51 0 70.5 -19t19.5 -54q0 -14 -2.5 -25t-7.5 -22t-12.5 -23.5t-18.5 -28.5l-42 -61l-74 33l43 100h-116v100z" />
    <glyph glyph-name="uni1EA3" unicode="&#x1ea3;" horiz-adv-x="516" 
d="M407 0q-82 0 -89 91h-13q-8 -48 -43 -75.5t-89 -27.5q-71 0 -107 40.5t-36 112.5q0 86 52.5 125t146.5 39h76v41q0 41 -17 61t-57 20q-35 0 -58.5 -17.5t-41.5 -46.5l-83 74q32 47 78 73.5t118 26.5q103 0 152 -48t49 -143v-237h43v-109h-81zM229 86q31 0 53.5 17.5
t22.5 54.5v65h-63q-72 0 -72 -60v-19q0 -30 15.5 -44t43.5 -14zM132 802h140q51 0 70.5 -19t19.5 -54q0 -14 -2.5 -25t-7.5 -22t-12.5 -23.5t-18.5 -28.5l-42 -61l-74 33l43 100h-116v100z" />
    <glyph glyph-name="uni1EA4" unicode="&#x1ea4;" horiz-adv-x="618" 
d="M457 0l-43 171h-214l-43 -171h-137l198 698h182l198 -698h-141zM336 447l-22 121h-16l-22 -121l-41 -161h144zM483 894l-72 39l85 194l107 -56zM364 942l134 -154l-64 -57l-124 120l-124 -120l-64 57l134 154h108z" />
    <glyph glyph-name="uni1EA5" unicode="&#x1ea5;" horiz-adv-x="516" 
d="M407 0q-82 0 -89 91h-13q-8 -48 -43 -75.5t-89 -27.5q-71 0 -107 40.5t-36 112.5q0 86 52.5 125t146.5 39h76v41q0 41 -17 61t-57 20q-35 0 -58.5 -17.5t-41.5 -46.5l-83 74q32 47 78 73.5t118 26.5q103 0 152 -48t49 -143v-237h43v-109h-81zM229 86q31 0 53.5 17.5
t22.5 54.5v65h-63q-72 0 -72 -60v-19q0 -30 15.5 -44t43.5 -14zM418 733l-72 39l85 194l107 -56zM299 781l134 -154l-64 -57l-124 120l-124 -120l-64 57l134 154h108z" />
    <glyph glyph-name="uni1EA6" unicode="&#x1ea6;" horiz-adv-x="618" 
d="M457 0l-43 171h-214l-43 -171h-137l198 698h182l198 -698h-141zM336 447l-22 121h-16l-22 -121l-41 -161h144zM17 1071l107 56l87 -194l-72 -39zM362 942l136 -154l-64 -57l-124 120l-124 -120l-64 57l136 154h104z" />
    <glyph glyph-name="uni1EA7" unicode="&#x1ea7;" horiz-adv-x="516" 
d="M407 0q-82 0 -89 91h-13q-8 -48 -43 -75.5t-89 -27.5q-71 0 -107 40.5t-36 112.5q0 86 52.5 125t146.5 39h76v41q0 41 -17 61t-57 20q-35 0 -58.5 -17.5t-41.5 -46.5l-83 74q32 47 78 73.5t118 26.5q103 0 152 -48t49 -143v-237h43v-109h-81zM229 86q31 0 53.5 17.5
t22.5 54.5v65h-63q-72 0 -72 -60v-19q0 -30 15.5 -44t43.5 -14zM-48 910l107 56l87 -194l-72 -39zM297 781l136 -154l-64 -57l-124 120l-124 -120l-64 57l136 154h104z" />
    <glyph glyph-name="uni1EA8" unicode="&#x1ea8;" horiz-adv-x="618" 
d="M457 0l-43 171h-214l-43 -171h-137l198 698h182l198 -698h-141zM336 447l-22 121h-16l-22 -121l-41 -161h144zM342 1113h124q51 0 70.5 -19t19.5 -54q0 -14 -2 -25t-7 -22.5t-13 -23.5t-19 -28l-35 -50l-56 28l41 104h-123v90zM362 942l136 -154l-64 -57l-124 120
l-124 -120l-64 57l136 154h104z" />
    <glyph glyph-name="uni1EA9" unicode="&#x1ea9;" horiz-adv-x="516" 
d="M407 0q-82 0 -89 91h-13q-8 -48 -43 -75.5t-89 -27.5q-71 0 -107 40.5t-36 112.5q0 86 52.5 125t146.5 39h76v41q0 41 -17 61t-57 20q-35 0 -58.5 -17.5t-41.5 -46.5l-83 74q32 47 78 73.5t118 26.5q103 0 152 -48t49 -143v-237h43v-109h-81zM229 86q31 0 53.5 17.5
t22.5 54.5v65h-63q-72 0 -72 -60v-19q0 -30 15.5 -44t43.5 -14zM277 952h124q51 0 70.5 -19t19.5 -54q0 -14 -2 -25t-7 -22.5t-13 -23.5t-19 -28l-35 -50l-56 28l41 104h-123v90zM297 781l136 -154l-64 -57l-124 120l-124 -120l-64 57l136 154h104z" />
    <glyph glyph-name="uni1EAA" unicode="&#x1eaa;" horiz-adv-x="618" 
d="M457 0l-43 171h-214l-43 -171h-137l198 698h182l198 -698h-141zM336 447l-22 121h-16l-22 -121l-41 -161h144zM234 1103q38 0 76 -21q20 -11 38 -19t34 -8t26 6t24 19l45 -59q-22 -31 -44 -45.5t-53 -14.5q-18 0 -37.5 5t-38.5 16q-20 11 -38 19t-34 8q-13 0 -23 -5
t-29 -22l-45 59q17 26 39.5 44t59.5 18zM361 929l136 -141l-62 -57l-126 107l-126 -107l-62 57l136 141h104z" />
    <glyph glyph-name="uni1EAB" unicode="&#x1eab;" horiz-adv-x="516" 
d="M407 0q-82 0 -89 91h-13q-8 -48 -43 -75.5t-89 -27.5q-71 0 -107 40.5t-36 112.5q0 86 52.5 125t146.5 39h76v41q0 41 -17 61t-57 20q-35 0 -58.5 -17.5t-41.5 -46.5l-83 74q32 47 78 73.5t118 26.5q103 0 152 -48t49 -143v-237h43v-109h-81zM229 86q31 0 53.5 17.5
t22.5 54.5v65h-63q-72 0 -72 -60v-19q0 -30 15.5 -44t43.5 -14zM169 942q38 0 76 -21q20 -11 38 -19t34 -8t26 6t24 19l45 -59q-22 -31 -44 -45.5t-53 -14.5q-18 0 -37.5 5t-38.5 16q-20 11 -38 19t-34 8q-13 0 -23 -5t-29 -22l-45 59q17 26 39.5 44t59.5 18zM296 768
l136 -141l-62 -57l-126 107l-126 -107l-62 57l136 141h104z" />
    <glyph glyph-name="uni1EAC" unicode="&#x1eac;" horiz-adv-x="618" 
d="M457 0l-43 171h-214l-43 -171h-137l198 698h182l198 -698h-141zM336 447l-22 121h-16l-22 -121l-41 -161h144zM364 956l129 -162l-69 -55l-115 118l-115 -118l-69 55l129 162h110zM309 -199q-42 0 -58.5 16t-16.5 42v29q0 26 16.5 42t58.5 16t58.5 -16t16.5 -42v-29
q0 -26 -16.5 -42t-58.5 -16z" />
    <glyph glyph-name="uni1EAD" unicode="&#x1ead;" horiz-adv-x="516" 
d="M407 0q-82 0 -89 91h-13q-8 -48 -43 -75.5t-89 -27.5q-71 0 -107 40.5t-36 112.5q0 86 52.5 125t146.5 39h76v41q0 41 -17 61t-57 20q-35 0 -58.5 -17.5t-41.5 -46.5l-83 74q32 47 78 73.5t118 26.5q103 0 152 -48t49 -143v-237h43v-109h-81zM229 86q31 0 53.5 17.5
t22.5 54.5v65h-63q-72 0 -72 -60v-19q0 -30 15.5 -44t43.5 -14zM300 796l129 -162l-69 -55l-115 118l-115 -118l-69 55l129 162h110zM244 -199q-42 0 -58.5 16t-16.5 42v29q0 26 16.5 42t58.5 16t58.5 -16t16.5 -42v-29q0 -26 -16.5 -42t-58.5 -16z" />
    <glyph glyph-name="uni1EAE" unicode="&#x1eae;" horiz-adv-x="618" 
d="M457 0l-43 171h-214l-43 -171h-137l198 698h182l198 -698h-141zM336 447l-22 121h-16l-22 -121l-41 -161h144zM309 733q-32 0 -59 7t-49.5 25t-41.5 48t-36 76l75 40l20 -42q15 -32 37.5 -46t53.5 -14t53 14t37 46l20 42l76 -40q-17 -46 -35.5 -76t-40.5 -48t-49 -25
t-61 -7zM329 894l-72 39l87 194l107 -56z" />
    <glyph glyph-name="uni1EAF" unicode="&#x1eaf;" horiz-adv-x="516" 
d="M407 0q-82 0 -89 91h-13q-8 -48 -43 -75.5t-89 -27.5q-71 0 -107 40.5t-36 112.5q0 86 52.5 125t146.5 39h76v41q0 41 -17 61t-57 20q-35 0 -58.5 -17.5t-41.5 -46.5l-83 74q32 47 78 73.5t118 26.5q103 0 152 -48t49 -143v-237h43v-109h-81zM229 86q31 0 53.5 17.5
t22.5 54.5v65h-63q-72 0 -72 -60v-19q0 -30 15.5 -44t43.5 -14zM244 572q-32 0 -59 7t-49.5 25t-41.5 48t-36 76l75 40l20 -42q15 -32 37.5 -46t53.5 -14t53 14t37 46l20 42l76 -40q-17 -46 -35.5 -76t-40.5 -48t-49 -25t-61 -7zM264 733l-72 39l87 194l107 -56z" />
    <glyph glyph-name="uni1EB0" unicode="&#x1eb0;" horiz-adv-x="618" 
d="M457 0l-43 171h-214l-43 -171h-137l198 698h182l198 -698h-141zM336 447l-22 121h-16l-22 -121l-41 -161h144zM309 733q-32 0 -59 7t-49.5 25t-41.5 48t-36 76l75 40l20 -42q15 -32 37.5 -46t53.5 -14t53 14t37 46l20 42l76 -40q-17 -46 -35.5 -76t-40.5 -48t-49 -25
t-61 -7zM167 1071l107 56l87 -194l-72 -39z" />
    <glyph glyph-name="uni1EB1" unicode="&#x1eb1;" horiz-adv-x="516" 
d="M407 0q-82 0 -89 91h-13q-8 -48 -43 -75.5t-89 -27.5q-71 0 -107 40.5t-36 112.5q0 86 52.5 125t146.5 39h76v41q0 41 -17 61t-57 20q-35 0 -58.5 -17.5t-41.5 -46.5l-83 74q32 47 78 73.5t118 26.5q103 0 152 -48t49 -143v-237h43v-109h-81zM229 86q31 0 53.5 17.5
t22.5 54.5v65h-63q-72 0 -72 -60v-19q0 -30 15.5 -44t43.5 -14zM244 572q-32 0 -59 7t-49.5 25t-41.5 48t-36 76l75 40l20 -42q15 -32 37.5 -46t53.5 -14t53 14t37 46l20 42l76 -40q-17 -46 -35.5 -76t-40.5 -48t-49 -25t-61 -7zM102 910l107 56l87 -194l-72 -39z" />
    <glyph glyph-name="uni1EB2" unicode="&#x1eb2;" horiz-adv-x="618" 
d="M457 0l-43 171h-214l-43 -171h-137l198 698h182l198 -698h-141zM336 447l-22 121h-16l-22 -121l-41 -161h144zM189 1113h124q51 0 70.5 -19t19.5 -54q0 -14 -2 -25t-7 -22.5t-13 -23.5t-19 -28l-35 -50l-56 28l41 104h-123v90zM309 733q-32 0 -59 7t-49.5 25t-41.5 48
t-36 76l75 40l20 -42q15 -32 37.5 -46t53.5 -14t53 14t37 46l20 42l76 -40q-17 -46 -35.5 -76t-40.5 -48t-49 -25t-61 -7z" />
    <glyph glyph-name="uni1EB3" unicode="&#x1eb3;" horiz-adv-x="516" 
d="M407 0q-82 0 -89 91h-13q-8 -48 -43 -75.5t-89 -27.5q-71 0 -107 40.5t-36 112.5q0 86 52.5 125t146.5 39h76v41q0 41 -17 61t-57 20q-35 0 -58.5 -17.5t-41.5 -46.5l-83 74q32 47 78 73.5t118 26.5q103 0 152 -48t49 -143v-237h43v-109h-81zM229 86q31 0 53.5 17.5
t22.5 54.5v65h-63q-72 0 -72 -60v-19q0 -30 15.5 -44t43.5 -14zM244 572q-32 0 -59 7t-49.5 25t-41.5 48t-36 76l75 40l20 -42q15 -32 37.5 -46t53.5 -14t53 14t37 46l20 42l76 -40q-17 -46 -35.5 -76t-40.5 -48t-49 -25t-61 -7zM124 952h124q51 0 70.5 -19t19.5 -54
q0 -14 -2 -25t-7 -22.5t-13 -23.5t-19 -28l-35 -50l-56 28l41 104h-123v90z" />
    <glyph glyph-name="uni1EB4" unicode="&#x1eb4;" horiz-adv-x="618" 
d="M457 0l-43 171h-214l-43 -171h-137l198 698h182l198 -698h-141zM336 447l-22 121h-16l-22 -121l-41 -161h144zM381 950q-18 0 -37.5 5t-38.5 16q-20 11 -38 19t-34 8q-13 0 -23 -5t-29 -22l-45 59q17 26 39.5 44t59.5 18q38 0 76 -21q20 -11 38 -19t34 -8t26 6t24 19
l45 -59q-22 -31 -44 -45.5t-53 -14.5zM309 733q-32 0 -59 7t-49.5 25t-41.5 48t-36 76l75 40l20 -42q15 -32 37.5 -46t53.5 -14t53 14t37 46l20 42l76 -40q-17 -46 -35.5 -76t-40.5 -48t-49 -25t-61 -7z" />
    <glyph glyph-name="uni1EB5" unicode="&#x1eb5;" horiz-adv-x="516" 
d="M407 0q-82 0 -89 91h-13q-8 -48 -43 -75.5t-89 -27.5q-71 0 -107 40.5t-36 112.5q0 86 52.5 125t146.5 39h76v41q0 41 -17 61t-57 20q-35 0 -58.5 -17.5t-41.5 -46.5l-83 74q32 47 78 73.5t118 26.5q103 0 152 -48t49 -143v-237h43v-109h-81zM229 86q31 0 53.5 17.5
t22.5 54.5v65h-63q-72 0 -72 -60v-19q0 -30 15.5 -44t43.5 -14zM244 572q-32 0 -59 7t-49.5 25t-41.5 48t-36 76l75 40l20 -42q15 -32 37.5 -46t53.5 -14t53 14t37 46l20 42l76 -40q-17 -46 -35.5 -76t-40.5 -48t-49 -25t-61 -7zM316 789q-18 0 -37.5 5t-38.5 16
q-20 11 -38 19t-34 8q-13 0 -23 -5t-29 -22l-45 59q17 26 39.5 44t59.5 18q38 0 76 -21q20 -11 38 -19t34 -8t26 6t24 19l45 -59q-22 -31 -44 -45.5t-53 -14.5z" />
    <glyph glyph-name="uni1EB6" unicode="&#x1eb6;" horiz-adv-x="618" 
d="M457 0l-43 171h-214l-43 -171h-137l198 698h182l198 -698h-141zM336 447l-22 121h-16l-22 -121l-41 -161h144zM309 740q-33 0 -58 7.5t-45.5 27t-38.5 53t-36 84.5l76 40l20 -43q10 -23 19.5 -37t19 -22t20 -11t23.5 -3q26 0 44.5 14.5t38.5 58.5l20 43l75 -40
q-18 -51 -36.5 -84.5t-39.5 -53t-46 -27t-56 -7.5zM309 -199q-42 0 -58.5 16t-16.5 42v29q0 26 16.5 42t58.5 16t58.5 -16t16.5 -42v-29q0 -26 -16.5 -42t-58.5 -16z" />
    <glyph glyph-name="uni1EB7" unicode="&#x1eb7;" horiz-adv-x="516" 
d="M407 0q-82 0 -89 91h-13q-8 -48 -43 -75.5t-89 -27.5q-71 0 -107 40.5t-36 112.5q0 86 52.5 125t146.5 39h76v41q0 41 -17 61t-57 20q-35 0 -58.5 -17.5t-41.5 -46.5l-83 74q32 47 78 73.5t118 26.5q103 0 152 -48t49 -143v-237h43v-109h-81zM229 86q31 0 53.5 17.5
t22.5 54.5v65h-63q-72 0 -72 -60v-19q0 -30 15.5 -44t43.5 -14zM245 579q-33 0 -58 7.5t-45.5 27t-38.5 53t-36 84.5l76 40l20 -43q10 -23 19.5 -37t19 -22t20 -11t23.5 -3q26 0 44.5 14.5t38.5 58.5l20 43l75 -40q-18 -51 -36.5 -84.5t-39.5 -53t-46 -27t-56 -7.5z
M244 -199q-42 0 -58.5 16t-16.5 42v29q0 26 16.5 42t58.5 16t58.5 -16t16.5 -42v-29q0 -26 -16.5 -42t-58.5 -16z" />
    <glyph glyph-name="uni1EB8" unicode="&#x1eb8;" horiz-adv-x="549" 
d="M68 0v698h432v-125h-289v-158h245v-124h-245v-166h289v-125h-432zM284 -199q-42 0 -58.5 16t-16.5 42v29q0 26 16.5 42t58.5 16t58.5 -16t16.5 -42v-29q0 -26 -16.5 -42t-58.5 -16z" />
    <glyph glyph-name="uni1EB9" unicode="&#x1eb9;" horiz-adv-x="508" 
d="M268 -12q-108 0 -172.5 68.5t-64.5 205.5q0 140 56.5 207.5t166.5 67.5t166.5 -67.5t56.5 -207.5v-34h-300v-33q0 -44 27 -70.5t74 -26.5q39 0 66.5 17.5t50.5 48.5l71 -83q-32 -43 -81.5 -68t-116.5 -25zM254 432q-77 0 -77 -90v-32h154v32q0 90 -77 90zM254 -199
q-42 0 -58.5 16t-16.5 42v29q0 26 16.5 42t58.5 16t58.5 -16t16.5 -42v-29q0 -26 -16.5 -42t-58.5 -16z" />
    <glyph glyph-name="uni1EBA" unicode="&#x1eba;" horiz-adv-x="549" 
d="M68 0v698h432v-125h-289v-158h245v-124h-245v-166h289v-125h-432zM172 963h140q51 0 70.5 -19t19.5 -54q0 -14 -2.5 -25t-7.5 -22t-12.5 -23.5t-18.5 -28.5l-42 -61l-74 33l43 100h-116v100z" />
    <glyph glyph-name="uni1EBB" unicode="&#x1ebb;" horiz-adv-x="508" 
d="M268 -12q-108 0 -172.5 68.5t-64.5 205.5q0 140 56.5 207.5t166.5 67.5t166.5 -67.5t56.5 -207.5v-34h-300v-33q0 -44 27 -70.5t74 -26.5q39 0 66.5 17.5t50.5 48.5l71 -83q-32 -43 -81.5 -68t-116.5 -25zM254 432q-77 0 -77 -90v-32h154v32q0 90 -77 90zM142 802h140
q51 0 70.5 -19t19.5 -54q0 -14 -2.5 -25t-7.5 -22t-12.5 -23.5t-18.5 -28.5l-42 -61l-74 33l43 100h-116v100z" />
    <glyph glyph-name="uni1EBC" unicode="&#x1ebc;" horiz-adv-x="549" 
d="M68 0v698h432v-125h-289v-158h245v-124h-245v-166h289v-125h-432zM356 764q-18 0 -32 4t-42 18q-27 14 -42.5 19t-27.5 5q-17 0 -27 -6t-25 -20l-49 64q17 27 43.5 43.5t57.5 16.5q9 0 16.5 -1t15.5 -3t18 -6.5t24 -11.5q27 -14 42.5 -19t27.5 -5q17 0 27 6t25 20l49 -64
q-17 -27 -43.5 -43.5t-57.5 -16.5z" />
    <glyph glyph-name="uni1EBD" unicode="&#x1ebd;" horiz-adv-x="508" 
d="M268 -12q-108 0 -172.5 68.5t-64.5 205.5q0 140 56.5 207.5t166.5 67.5t166.5 -67.5t56.5 -207.5v-34h-300v-33q0 -44 27 -70.5t74 -26.5q39 0 66.5 17.5t50.5 48.5l71 -83q-32 -43 -81.5 -68t-116.5 -25zM254 432q-77 0 -77 -90v-32h154v32q0 90 -77 90zM327 603
q-18 0 -32 4t-42 18q-27 14 -42.5 19t-27.5 5q-17 0 -27 -6t-25 -20l-49 64q17 27 43.5 43.5t57.5 16.5q9 0 16.5 -1t15.5 -3t18 -6.5t24 -11.5q27 -14 42.5 -19t27.5 -5q17 0 27 6t25 20l49 -64q-17 -27 -43.5 -43.5t-57.5 -16.5z" />
    <glyph glyph-name="uni1EBE" unicode="&#x1ebe;" horiz-adv-x="549" 
d="M68 0v698h432v-125h-289v-158h245v-124h-245v-166h289v-125h-432zM458 894l-72 39l85 194l107 -56zM339 942l134 -154l-64 -57l-124 120l-124 -120l-64 57l134 154h108z" />
    <glyph glyph-name="uni1EBF" unicode="&#x1ebf;" horiz-adv-x="508" 
d="M268 -12q-108 0 -172.5 68.5t-64.5 205.5q0 140 56.5 207.5t166.5 67.5t166.5 -67.5t56.5 -207.5v-34h-300v-33q0 -44 27 -70.5t74 -26.5q39 0 66.5 17.5t50.5 48.5l71 -83q-32 -43 -81.5 -68t-116.5 -25zM254 432q-77 0 -77 -90v-32h154v32q0 90 -77 90zM428 733l-72 39
l85 194l107 -56zM309 781l134 -154l-64 -57l-124 120l-124 -120l-64 57l134 154h108z" />
    <glyph glyph-name="uni1EC0" unicode="&#x1ec0;" horiz-adv-x="549" 
d="M68 0v698h432v-125h-289v-158h245v-124h-245v-166h289v-125h-432zM-8 1071l107 56l87 -194l-72 -39zM337 942l136 -154l-64 -57l-124 120l-124 -120l-64 57l136 154h104z" />
    <glyph glyph-name="uni1EC1" unicode="&#x1ec1;" horiz-adv-x="508" 
d="M268 -12q-108 0 -172.5 68.5t-64.5 205.5q0 140 56.5 207.5t166.5 67.5t166.5 -67.5t56.5 -207.5v-34h-300v-33q0 -44 27 -70.5t74 -26.5q39 0 66.5 17.5t50.5 48.5l71 -83q-32 -43 -81.5 -68t-116.5 -25zM254 432q-77 0 -77 -90v-32h154v32q0 90 -77 90zM-38 910l107 56
l87 -194l-72 -39zM307 781l136 -154l-64 -57l-124 120l-124 -120l-64 57l136 154h104z" />
    <glyph glyph-name="uni1EC2" unicode="&#x1ec2;" horiz-adv-x="549" 
d="M68 0v698h432v-125h-289v-158h245v-124h-245v-166h289v-125h-432zM317 1113h124q51 0 70.5 -19t19.5 -54q0 -14 -2 -25t-7 -22.5t-13 -23.5t-19 -28l-35 -50l-56 28l41 104h-123v90zM337 942l136 -154l-64 -57l-124 120l-124 -120l-64 57l136 154h104z" />
    <glyph glyph-name="uni1EC3" unicode="&#x1ec3;" horiz-adv-x="508" 
d="M268 -12q-108 0 -172.5 68.5t-64.5 205.5q0 140 56.5 207.5t166.5 67.5t166.5 -67.5t56.5 -207.5v-34h-300v-33q0 -44 27 -70.5t74 -26.5q39 0 66.5 17.5t50.5 48.5l71 -83q-32 -43 -81.5 -68t-116.5 -25zM254 432q-77 0 -77 -90v-32h154v32q0 90 -77 90zM287 952h124
q51 0 70.5 -19t19.5 -54q0 -14 -2 -25t-7 -22.5t-13 -23.5t-19 -28l-35 -50l-56 28l41 104h-123v90zM307 781l136 -154l-64 -57l-124 120l-124 -120l-64 57l136 154h104z" />
    <glyph glyph-name="uni1EC4" unicode="&#x1ec4;" horiz-adv-x="549" 
d="M68 0v698h432v-125h-289v-158h245v-124h-245v-166h289v-125h-432zM209 1103q38 0 76 -21q20 -11 38 -19t34 -8t26 6t24 19l45 -59q-22 -31 -44 -45.5t-53 -14.5q-18 0 -37.5 5t-38.5 16q-20 11 -38 19t-34 8q-13 0 -23 -5t-29 -22l-45 59q17 26 39.5 44t59.5 18zM336 929
l136 -141l-62 -57l-126 107l-126 -107l-62 57l136 141h104z" />
    <glyph glyph-name="uni1EC5" unicode="&#x1ec5;" horiz-adv-x="508" 
d="M268 -12q-108 0 -172.5 68.5t-64.5 205.5q0 140 56.5 207.5t166.5 67.5t166.5 -67.5t56.5 -207.5v-34h-300v-33q0 -44 27 -70.5t74 -26.5q39 0 66.5 17.5t50.5 48.5l71 -83q-32 -43 -81.5 -68t-116.5 -25zM254 432q-77 0 -77 -90v-32h154v32q0 90 -77 90zM179 942
q38 0 76 -21q20 -11 38 -19t34 -8t26 6t24 19l45 -59q-22 -31 -44 -45.5t-53 -14.5q-18 0 -37.5 5t-38.5 16q-20 11 -38 19t-34 8q-13 0 -23 -5t-29 -22l-45 59q17 26 39.5 44t59.5 18zM306 768l136 -141l-62 -57l-126 107l-126 -107l-62 57l136 141h104z" />
    <glyph glyph-name="uni1EC6" unicode="&#x1ec6;" horiz-adv-x="549" 
d="M68 0v698h432v-125h-289v-158h245v-124h-245v-166h289v-125h-432zM339 956l129 -162l-69 -55l-115 118l-115 -118l-69 55l129 162h110zM284 -199q-42 0 -58.5 16t-16.5 42v29q0 26 16.5 42t58.5 16t58.5 -16t16.5 -42v-29q0 -26 -16.5 -42t-58.5 -16z" />
    <glyph glyph-name="uni1EC7" unicode="&#x1ec7;" horiz-adv-x="508" 
d="M268 -12q-108 0 -172.5 68.5t-64.5 205.5q0 140 56.5 207.5t166.5 67.5t166.5 -67.5t56.5 -207.5v-34h-300v-33q0 -44 27 -70.5t74 -26.5q39 0 66.5 17.5t50.5 48.5l71 -83q-32 -43 -81.5 -68t-116.5 -25zM254 432q-77 0 -77 -90v-32h154v32q0 90 -77 90zM310 796
l129 -162l-69 -55l-115 118l-115 -118l-69 55l129 162h110zM254 -199q-42 0 -58.5 16t-16.5 42v29q0 26 16.5 42t58.5 16t58.5 -16t16.5 -42v-29q0 -26 -16.5 -42t-58.5 -16z" />
    <glyph glyph-name="uni1EC8" unicode="&#x1ec8;" horiz-adv-x="397" 
d="M45 0v113h82v472h-82v113h307v-113h-82v-472h82v-113h-307zM87 963h140q51 0 70.5 -19t19.5 -54q0 -14 -2.5 -25t-7.5 -22t-12.5 -23.5t-18.5 -28.5l-42 -61l-74 33l43 100h-116v100z" />
    <glyph glyph-name="uni1EC9" unicode="&#x1ec9;" horiz-adv-x="262" 
d="M61 0v525h140v-525h-140zM19 802h140q51 0 70.5 -19t19.5 -54q0 -14 -2.5 -25t-7.5 -22t-12.5 -23.5t-18.5 -28.5l-42 -61l-74 33l43 100h-116v100z" />
    <glyph glyph-name="uni1ECA" unicode="&#x1eca;" horiz-adv-x="397" 
d="M45 0v113h82v472h-82v113h307v-113h-82v-472h82v-113h-307zM199 -199q-42 0 -58.5 16t-16.5 42v29q0 26 16.5 42t58.5 16t58.5 -16t16.5 -42v-29q0 -26 -16.5 -42t-58.5 -16z" />
    <glyph glyph-name="uni1ECB" unicode="&#x1ecb;" horiz-adv-x="262" 
d="M131 589q-43 0 -62.5 18.5t-19.5 50.5v22q0 32 19.5 50.5t62.5 18.5t62.5 -18.5t19.5 -50.5v-22q0 -32 -19.5 -50.5t-62.5 -18.5zM61 525h140v-525h-140v525zM131 -199q-42 0 -58.5 16t-16.5 42v29q0 26 16.5 42t58.5 16t58.5 -16t16.5 -42v-29q0 -26 -16.5 -42
t-58.5 -16z" />
    <glyph glyph-name="uni1ECC" unicode="&#x1ecc;" horiz-adv-x="642" 
d="M321 -12q-63 0 -114 19.5t-87 63t-56 112t-20 166.5t20 166.5t56 112t87 63t114 19.5t114 -19.5t87 -63t56 -112t20 -166.5t-20 -166.5t-56 -112t-87 -63t-114 -19.5zM321 114q60 0 92.5 36t32.5 108v182q0 72 -32.5 108t-92.5 36t-92.5 -36t-32.5 -108v-182
q0 -72 32.5 -108t92.5 -36zM321 -199q-42 0 -58.5 16t-16.5 42v29q0 26 16.5 42t58.5 16t58.5 -16t16.5 -42v-29q0 -26 -16.5 -42t-58.5 -16z" />
    <glyph glyph-name="uni1ECD" unicode="&#x1ecd;" horiz-adv-x="508" 
d="M254 -12q-110 0 -166.5 67t-56.5 207t56.5 207.5t166.5 67.5t166.5 -67.5t56.5 -207.5t-56.5 -207t-166.5 -67zM254 99q77 0 77 90v147q0 90 -77 90t-77 -90v-147q0 -90 77 -90zM254 -199q-42 0 -58.5 16t-16.5 42v29q0 26 16.5 42t58.5 16t58.5 -16t16.5 -42v-29
q0 -26 -16.5 -42t-58.5 -16z" />
    <glyph glyph-name="uni1ECE" unicode="&#x1ece;" horiz-adv-x="642" 
d="M321 -12q-63 0 -114 19.5t-87 63t-56 112t-20 166.5t20 166.5t56 112t87 63t114 19.5t114 -19.5t87 -63t56 -112t20 -166.5t-20 -166.5t-56 -112t-87 -63t-114 -19.5zM321 114q60 0 92.5 36t32.5 108v182q0 72 -32.5 108t-92.5 36t-92.5 -36t-32.5 -108v-182
q0 -72 32.5 -108t92.5 -36zM209 963h140q51 0 70.5 -19t19.5 -54q0 -14 -2.5 -25t-7.5 -22t-12.5 -23.5t-18.5 -28.5l-42 -61l-74 33l43 100h-116v100z" />
    <glyph glyph-name="uni1ECF" unicode="&#x1ecf;" horiz-adv-x="508" 
d="M254 -12q-110 0 -166.5 67t-56.5 207t56.5 207.5t166.5 67.5t166.5 -67.5t56.5 -207.5t-56.5 -207t-166.5 -67zM254 99q77 0 77 90v147q0 90 -77 90t-77 -90v-147q0 -90 77 -90zM142 802h140q51 0 70.5 -19t19.5 -54q0 -14 -2.5 -25t-7.5 -22t-12.5 -23.5t-18.5 -28.5
l-42 -61l-74 33l43 100h-116v100z" />
    <glyph glyph-name="uni1ED0" unicode="&#x1ed0;" horiz-adv-x="642" 
d="M321 -12q-63 0 -114 19.5t-87 63t-56 112t-20 166.5t20 166.5t56 112t87 63t114 19.5t114 -19.5t87 -63t56 -112t20 -166.5t-20 -166.5t-56 -112t-87 -63t-114 -19.5zM321 114q60 0 92.5 36t32.5 108v182q0 72 -32.5 108t-92.5 36t-92.5 -36t-32.5 -108v-182
q0 -72 32.5 -108t92.5 -36zM495 894l-72 39l85 194l107 -56zM376 942l134 -154l-64 -57l-124 120l-124 -120l-64 57l134 154h108z" />
    <glyph glyph-name="uni1ED1" unicode="&#x1ed1;" horiz-adv-x="508" 
d="M254 -12q-110 0 -166.5 67t-56.5 207t56.5 207.5t166.5 67.5t166.5 -67.5t56.5 -207.5t-56.5 -207t-166.5 -67zM254 99q77 0 77 90v147q0 90 -77 90t-77 -90v-147q0 -90 77 -90zM428 733l-72 39l85 194l107 -56zM309 781l134 -154l-64 -57l-124 120l-124 -120l-64 57
l134 154h108z" />
    <glyph glyph-name="uni1ED2" unicode="&#x1ed2;" horiz-adv-x="642" 
d="M321 -12q-63 0 -114 19.5t-87 63t-56 112t-20 166.5t20 166.5t56 112t87 63t114 19.5t114 -19.5t87 -63t56 -112t20 -166.5t-20 -166.5t-56 -112t-87 -63t-114 -19.5zM321 114q60 0 92.5 36t32.5 108v182q0 72 -32.5 108t-92.5 36t-92.5 -36t-32.5 -108v-182
q0 -72 32.5 -108t92.5 -36zM29 1071l107 56l87 -194l-72 -39zM374 942l136 -154l-64 -57l-124 120l-124 -120l-64 57l136 154h104z" />
    <glyph glyph-name="uni1ED3" unicode="&#x1ed3;" horiz-adv-x="508" 
d="M254 -12q-110 0 -166.5 67t-56.5 207t56.5 207.5t166.5 67.5t166.5 -67.5t56.5 -207.5t-56.5 -207t-166.5 -67zM254 99q77 0 77 90v147q0 90 -77 90t-77 -90v-147q0 -90 77 -90zM-38 910l107 56l87 -194l-72 -39zM307 781l136 -154l-64 -57l-124 120l-124 -120l-64 57
l136 154h104z" />
    <glyph glyph-name="uni1ED4" unicode="&#x1ed4;" horiz-adv-x="642" 
d="M321 -12q-63 0 -114 19.5t-87 63t-56 112t-20 166.5t20 166.5t56 112t87 63t114 19.5t114 -19.5t87 -63t56 -112t20 -166.5t-20 -166.5t-56 -112t-87 -63t-114 -19.5zM321 114q60 0 92.5 36t32.5 108v182q0 72 -32.5 108t-92.5 36t-92.5 -36t-32.5 -108v-182
q0 -72 32.5 -108t92.5 -36zM354 1113h124q51 0 70.5 -19t19.5 -54q0 -14 -2 -25t-7 -22.5t-13 -23.5t-19 -28l-35 -50l-56 28l41 104h-123v90zM374 942l136 -154l-64 -57l-124 120l-124 -120l-64 57l136 154h104z" />
    <glyph glyph-name="uni1ED5" unicode="&#x1ed5;" horiz-adv-x="508" 
d="M254 -12q-110 0 -166.5 67t-56.5 207t56.5 207.5t166.5 67.5t166.5 -67.5t56.5 -207.5t-56.5 -207t-166.5 -67zM254 99q77 0 77 90v147q0 90 -77 90t-77 -90v-147q0 -90 77 -90zM287 952h124q51 0 70.5 -19t19.5 -54q0 -14 -2 -25t-7 -22.5t-13 -23.5t-19 -28l-35 -50
l-56 28l41 104h-123v90zM307 781l136 -154l-64 -57l-124 120l-124 -120l-64 57l136 154h104z" />
    <glyph glyph-name="uni1ED6" unicode="&#x1ed6;" horiz-adv-x="642" 
d="M321 -12q-63 0 -114 19.5t-87 63t-56 112t-20 166.5t20 166.5t56 112t87 63t114 19.5t114 -19.5t87 -63t56 -112t20 -166.5t-20 -166.5t-56 -112t-87 -63t-114 -19.5zM321 114q60 0 92.5 36t32.5 108v182q0 72 -32.5 108t-92.5 36t-92.5 -36t-32.5 -108v-182
q0 -72 32.5 -108t92.5 -36zM246 1103q38 0 76 -21q20 -11 38 -19t34 -8t26 6t24 19l45 -59q-22 -31 -44 -45.5t-53 -14.5q-18 0 -37.5 5t-38.5 16q-20 11 -38 19t-34 8q-13 0 -23 -5t-29 -22l-45 59q17 26 39.5 44t59.5 18zM373 929l136 -141l-62 -57l-126 107l-126 -107
l-62 57l136 141h104z" />
    <glyph glyph-name="uni1ED7" unicode="&#x1ed7;" horiz-adv-x="508" 
d="M254 -12q-110 0 -166.5 67t-56.5 207t56.5 207.5t166.5 67.5t166.5 -67.5t56.5 -207.5t-56.5 -207t-166.5 -67zM254 99q77 0 77 90v147q0 90 -77 90t-77 -90v-147q0 -90 77 -90zM179 942q38 0 76 -21q20 -11 38 -19t34 -8t26 6t24 19l45 -59q-22 -31 -44 -45.5t-53 -14.5
q-18 0 -37.5 5t-38.5 16q-20 11 -38 19t-34 8q-13 0 -23 -5t-29 -22l-45 59q17 26 39.5 44t59.5 18zM306 768l136 -141l-62 -57l-126 107l-126 -107l-62 57l136 141h104z" />
    <glyph glyph-name="uni1ED8" unicode="&#x1ed8;" horiz-adv-x="642" 
d="M321 -12q-63 0 -114 19.5t-87 63t-56 112t-20 166.5t20 166.5t56 112t87 63t114 19.5t114 -19.5t87 -63t56 -112t20 -166.5t-20 -166.5t-56 -112t-87 -63t-114 -19.5zM321 114q60 0 92.5 36t32.5 108v182q0 72 -32.5 108t-92.5 36t-92.5 -36t-32.5 -108v-182
q0 -72 32.5 -108t92.5 -36zM376 956l129 -162l-69 -55l-115 118l-115 -118l-69 55l129 162h110zM321 -199q-42 0 -58.5 16t-16.5 42v29q0 26 16.5 42t58.5 16t58.5 -16t16.5 -42v-29q0 -26 -16.5 -42t-58.5 -16z" />
    <glyph glyph-name="uni1ED9" unicode="&#x1ed9;" horiz-adv-x="508" 
d="M254 -12q-110 0 -166.5 67t-56.5 207t56.5 207.5t166.5 67.5t166.5 -67.5t56.5 -207.5t-56.5 -207t-166.5 -67zM254 99q77 0 77 90v147q0 90 -77 90t-77 -90v-147q0 -90 77 -90zM310 796l129 -162l-69 -55l-115 118l-115 -118l-69 55l129 162h110zM254 -199
q-42 0 -58.5 16t-16.5 42v29q0 26 16.5 42t58.5 16t58.5 -16t16.5 -42v-29q0 -26 -16.5 -42t-58.5 -16z" />
    <glyph glyph-name="uni1EDA" unicode="&#x1eda;" horiz-adv-x="642" 
d="M626 801v-104q0 -26 -4 -43t-14.5 -28t-28.5 -15.5t-46 -4.5h-95v-14q85 -5 122.5 -63t37.5 -180q0 -98 -20 -166.5t-56 -112t-87 -63t-114 -19.5t-114 19.5t-87 63t-56 112t-20 166.5t20 166.5t56 112t87 63t114 19.5q49 0 91 -12h101v103h113zM321 114q60 0 92.5 36
t32.5 108v182q0 72 -32.5 108t-92.5 36t-92.5 -36t-32.5 -108v-182q0 -72 32.5 -108t92.5 -36zM336 740l-82 39l92 198l119 -58z" />
    <glyph glyph-name="uni1EDB" unicode="&#x1edb;" horiz-adv-x="508" 
d="M517 627v-103q0 -33 -21 -54.5t-72 -21.5h-80v-14q39 0 65 -16t41 -41.5t21 -56t6 -58.5q0 -140 -56.5 -207t-166.5 -67t-166.5 67t-56.5 207t56.5 207.5t166.5 67.5q45 0 83 -12h67v102h113zM254 99q77 0 77 90v147q0 90 -77 90t-77 -90v-147q0 -90 77 -90zM270 579
l-82 39l92 198l119 -58z" />
    <glyph glyph-name="uni1EDC" unicode="&#x1edc;" horiz-adv-x="642" 
d="M626 801v-104q0 -26 -4 -43t-14.5 -28t-28.5 -15.5t-46 -4.5h-95v-14q85 -5 122.5 -63t37.5 -180q0 -98 -20 -166.5t-56 -112t-87 -63t-114 -19.5t-114 19.5t-87 63t-56 112t-20 166.5t20 166.5t56 112t87 63t114 19.5q49 0 91 -12h101v103h113zM321 114q60 0 92.5 36
t32.5 108v182q0 72 -32.5 108t-92.5 36t-92.5 -36t-32.5 -108v-182q0 -72 32.5 -108t92.5 -36zM177 919l119 58l92 -198l-82 -39z" />
    <glyph glyph-name="uni1EDD" unicode="&#x1edd;" horiz-adv-x="508" 
d="M517 627v-103q0 -33 -21 -54.5t-72 -21.5h-80v-14q39 0 65 -16t41 -41.5t21 -56t6 -58.5q0 -140 -56.5 -207t-166.5 -67t-166.5 67t-56.5 207t56.5 207.5t166.5 67.5q45 0 83 -12h67v102h113zM254 99q77 0 77 90v147q0 90 -77 90t-77 -90v-147q0 -90 77 -90zM111 758
l119 58l92 -198l-82 -39z" />
    <glyph glyph-name="uni1EDE" unicode="&#x1ede;" horiz-adv-x="642" 
d="M626 801v-104q0 -26 -4 -43t-14.5 -28t-28.5 -15.5t-46 -4.5h-95v-14q85 -5 122.5 -63t37.5 -180q0 -98 -20 -166.5t-56 -112t-87 -63t-114 -19.5t-114 19.5t-87 63t-56 112t-20 166.5t20 166.5t56 112t87 63t114 19.5q49 0 91 -12h101v103h113zM321 114q60 0 92.5 36
t32.5 108v182q0 72 -32.5 108t-92.5 36t-92.5 -36t-32.5 -108v-182q0 -72 32.5 -108t92.5 -36zM209 963h140q51 0 70.5 -19t19.5 -54q0 -14 -2.5 -25t-7.5 -22t-12.5 -23.5t-18.5 -28.5l-42 -61l-74 33l43 100h-116v100z" />
    <glyph glyph-name="uni1EDF" unicode="&#x1edf;" horiz-adv-x="508" 
d="M517 627v-103q0 -33 -21 -54.5t-72 -21.5h-80v-14q39 0 65 -16t41 -41.5t21 -56t6 -58.5q0 -140 -56.5 -207t-166.5 -67t-166.5 67t-56.5 207t56.5 207.5t166.5 67.5q45 0 83 -12h67v102h113zM254 99q77 0 77 90v147q0 90 -77 90t-77 -90v-147q0 -90 77 -90zM142 802h140
q51 0 70.5 -19t19.5 -54q0 -14 -2.5 -25t-7.5 -22t-12.5 -23.5t-18.5 -28.5l-42 -61l-74 33l43 100h-116v100z" />
    <glyph glyph-name="uni1EE0" unicode="&#x1ee0;" horiz-adv-x="642" 
d="M626 801v-104q0 -26 -4 -43t-14.5 -28t-28.5 -15.5t-46 -4.5h-95v-14q85 -5 122.5 -63t37.5 -180q0 -98 -20 -166.5t-56 -112t-87 -63t-114 -19.5t-114 19.5t-87 63t-56 112t-20 166.5t20 166.5t56 112t87 63t114 19.5q49 0 91 -12h101v103h113zM321 114q60 0 92.5 36
t32.5 108v182q0 72 -32.5 108t-92.5 36t-92.5 -36t-32.5 -108v-182q0 -72 32.5 -108t92.5 -36zM382 766q-17 0 -33 6.5t-32 15.5q-14 8 -30 14t-24 6q-13 0 -21.5 -5t-19.5 -16l-48 63q19 30 38.5 43t47.5 13q17 0 33 -6.5t32 -15.5q14 -8 30 -14t24 -6q13 0 21.5 5t19.5 16
l48 -63q-19 -30 -38.5 -43t-47.5 -13z" />
    <glyph glyph-name="uni1EE1" unicode="&#x1ee1;" horiz-adv-x="508" 
d="M517 627v-103q0 -33 -21 -54.5t-72 -21.5h-80v-14q39 0 65 -16t41 -41.5t21 -56t6 -58.5q0 -140 -56.5 -207t-166.5 -67t-166.5 67t-56.5 207t56.5 207.5t166.5 67.5q45 0 83 -12h67v102h113zM254 99q77 0 77 90v147q0 90 -77 90t-77 -90v-147q0 -90 77 -90zM302 605
q-17 0 -33 6.5t-32 15.5q-14 8 -30 14t-24 6q-13 0 -21.5 -5t-19.5 -16l-48 63q19 30 38.5 43t47.5 13q17 0 33 -6.5t32 -15.5q14 -8 30 -14t24 -6q13 0 21.5 5t19.5 16l48 -63q-19 -30 -38.5 -43t-47.5 -13z" />
    <glyph glyph-name="uni1EE2" unicode="&#x1ee2;" horiz-adv-x="642" 
d="M626 801v-104q0 -26 -4 -43t-14.5 -28t-28.5 -15.5t-46 -4.5h-95v-14q85 -5 122.5 -63t37.5 -180q0 -98 -20 -166.5t-56 -112t-87 -63t-114 -19.5t-114 19.5t-87 63t-56 112t-20 166.5t20 166.5t56 112t87 63t114 19.5q49 0 91 -12h101v103h113zM321 114q60 0 92.5 36
t32.5 108v182q0 72 -32.5 108t-92.5 36t-92.5 -36t-32.5 -108v-182q0 -72 32.5 -108t92.5 -36zM321 -199q-42 0 -58.5 16t-16.5 42v29q0 26 16.5 42t58.5 16t58.5 -16t16.5 -42v-29q0 -26 -16.5 -42t-58.5 -16z" />
    <glyph glyph-name="uni1EE3" unicode="&#x1ee3;" horiz-adv-x="508" 
d="M517 627v-103q0 -33 -21 -54.5t-72 -21.5h-80v-14q39 0 65 -16t41 -41.5t21 -56t6 -58.5q0 -140 -56.5 -207t-166.5 -67t-166.5 67t-56.5 207t56.5 207.5t166.5 67.5q45 0 83 -12h67v102h113zM254 99q77 0 77 90v147q0 90 -77 90t-77 -90v-147q0 -90 77 -90zM254 -199
q-42 0 -58.5 16t-16.5 42v29q0 26 16.5 42t58.5 16t58.5 -16t16.5 -42v-29q0 -26 -16.5 -42t-58.5 -16z" />
    <glyph glyph-name="uni1EE4" unicode="&#x1ee4;" horiz-adv-x="630" 
d="M207 698v-453q0 -69 23.5 -99.5t84.5 -30.5t84.5 30.5t23.5 99.5v453h143v-434q0 -74 -13 -126t-42.5 -85.5t-77.5 -49t-118 -15.5t-118 15.5t-77.5 49t-42.5 85.5t-13 126v434h143zM315 -199q-42 0 -58.5 16t-16.5 42v29q0 26 16.5 42t58.5 16t58.5 -16t16.5 -42v-29
q0 -26 -16.5 -42t-58.5 -16z" />
    <glyph glyph-name="uni1EE5" unicode="&#x1ee5;" 
d="M339 89h-16q-6 -21 -16.5 -39t-25.5 -32t-35 -22t-47 -8q-70 0 -107 47.5t-37 132.5v357h140v-330q0 -93 65 -93q32 0 55.5 19.5t23.5 54.5v349h140v-525h-140v89zM267 -199q-42 0 -58.5 16t-16.5 42v29q0 26 16.5 42t58.5 16t58.5 -16t16.5 -42v-29q0 -26 -16.5 -42
t-58.5 -16z" />
    <glyph glyph-name="uni1EE6" unicode="&#x1ee6;" horiz-adv-x="630" 
d="M207 698v-453q0 -69 23.5 -99.5t84.5 -30.5t84.5 30.5t23.5 99.5v453h143v-434q0 -74 -13 -126t-42.5 -85.5t-77.5 -49t-118 -15.5t-118 15.5t-77.5 49t-42.5 85.5t-13 126v434h143zM203 963h140q51 0 70.5 -19t19.5 -54q0 -14 -2.5 -25t-7.5 -22t-12.5 -23.5
t-18.5 -28.5l-42 -61l-74 33l43 100h-116v100z" />
    <glyph glyph-name="uni1EE7" unicode="&#x1ee7;" 
d="M339 89h-16q-6 -21 -16.5 -39t-25.5 -32t-35 -22t-47 -8q-70 0 -107 47.5t-37 132.5v357h140v-330q0 -93 65 -93q32 0 55.5 19.5t23.5 54.5v349h140v-525h-140v89zM155 802h140q51 0 70.5 -19t19.5 -54q0 -14 -2.5 -25t-7.5 -22t-12.5 -23.5t-18.5 -28.5l-42 -61l-74 33
l43 100h-116v100z" />
    <glyph glyph-name="uni1EE8" unicode="&#x1ee8;" horiz-adv-x="642" 
d="M566 264q0 -74 -13 -126t-42.5 -85.5t-77.5 -49t-118 -15.5t-118 15.5t-77.5 49t-42.5 85.5t-13 126v434h143v-453q0 -69 23.5 -99.5t84.5 -30.5t84.5 30.5t23.5 99.5v453h110v103h113v-104q0 -44 -16 -63t-64 -21v-349v0zM330 740l-82 39l92 198l119 -58z" />
    <glyph glyph-name="uni1EE9" unicode="&#x1ee9;" horiz-adv-x="552" 
d="M323 89q-6 -21 -16.5 -39t-25.5 -32t-35 -22t-47 -8q-70 0 -107 47.5t-37 132.5v357h140v-330q0 -93 65 -93q32 0 55.5 19.5t23.5 54.5v349h107v102h113v-103q0 -44 -16 -63t-64 -21v-440h-140v89h-16v0zM283 579l-82 39l92 198l119 -58z" />
    <glyph glyph-name="uni1EEA" unicode="&#x1eea;" horiz-adv-x="642" 
d="M566 264q0 -74 -13 -126t-42.5 -85.5t-77.5 -49t-118 -15.5t-118 15.5t-77.5 49t-42.5 85.5t-13 126v434h143v-453q0 -69 23.5 -99.5t84.5 -30.5t84.5 30.5t23.5 99.5v453h110v103h113v-104q0 -44 -16 -63t-64 -21v-349v0zM171 919l119 58l92 -198l-82 -39z" />
    <glyph glyph-name="uni1EEB" unicode="&#x1eeb;" horiz-adv-x="552" 
d="M323 89q-6 -21 -16.5 -39t-25.5 -32t-35 -22t-47 -8q-70 0 -107 47.5t-37 132.5v357h140v-330q0 -93 65 -93q32 0 55.5 19.5t23.5 54.5v349h107v102h113v-103q0 -44 -16 -63t-64 -21v-440h-140v89h-16v0zM124 758l119 58l92 -198l-82 -39z" />
    <glyph glyph-name="uni1EEC" unicode="&#x1eec;" horiz-adv-x="642" 
d="M566 264q0 -74 -13 -126t-42.5 -85.5t-77.5 -49t-118 -15.5t-118 15.5t-77.5 49t-42.5 85.5t-13 126v434h143v-453q0 -69 23.5 -99.5t84.5 -30.5t84.5 30.5t23.5 99.5v453h110v103h113v-104q0 -44 -16 -63t-64 -21v-349v0zM203 963h140q51 0 70.5 -19t19.5 -54
q0 -14 -2.5 -25t-7.5 -22t-12.5 -23.5t-18.5 -28.5l-42 -61l-74 33l43 100h-116v100z" />
    <glyph glyph-name="uni1EED" unicode="&#x1eed;" horiz-adv-x="552" 
d="M323 89q-6 -21 -16.5 -39t-25.5 -32t-35 -22t-47 -8q-70 0 -107 47.5t-37 132.5v357h140v-330q0 -93 65 -93q32 0 55.5 19.5t23.5 54.5v349h107v102h113v-103q0 -44 -16 -63t-64 -21v-440h-140v89h-16v0zM155 802h140q51 0 70.5 -19t19.5 -54q0 -14 -2.5 -25t-7.5 -22
t-12.5 -23.5t-18.5 -28.5l-42 -61l-74 33l43 100h-116v100z" />
    <glyph glyph-name="uni1EEE" unicode="&#x1eee;" horiz-adv-x="642" 
d="M566 264q0 -74 -13 -126t-42.5 -85.5t-77.5 -49t-118 -15.5t-118 15.5t-77.5 49t-42.5 85.5t-13 126v434h143v-453q0 -69 23.5 -99.5t84.5 -30.5t84.5 30.5t23.5 99.5v453h110v103h113v-104q0 -44 -16 -63t-64 -21v-349v0zM376 766q-17 0 -33 6.5t-32 15.5q-14 8 -30 14
t-24 6q-13 0 -21.5 -5t-19.5 -16l-48 63q19 30 38.5 43t47.5 13q17 0 33 -6.5t32 -15.5q14 -8 30 -14t24 -6q13 0 21.5 5t19.5 16l48 -63q-19 -30 -38.5 -43t-47.5 -13z" />
    <glyph glyph-name="uni1EEF" unicode="&#x1eef;" horiz-adv-x="552" 
d="M323 89q-6 -21 -16.5 -39t-25.5 -32t-35 -22t-47 -8q-70 0 -107 47.5t-37 132.5v357h140v-330q0 -93 65 -93q32 0 55.5 19.5t23.5 54.5v349h107v102h113v-103q0 -44 -16 -63t-64 -21v-440h-140v89h-16v0zM329 605q-17 0 -33 6.5t-32 15.5q-14 8 -30 14t-24 6
q-13 0 -21.5 -5t-19.5 -16l-48 63q19 30 38.5 43t47.5 13q17 0 33 -6.5t32 -15.5q14 -8 30 -14t24 -6q13 0 21.5 5t19.5 16l48 -63q-19 -30 -38.5 -43t-47.5 -13z" />
    <glyph glyph-name="uni1EF0" unicode="&#x1ef0;" horiz-adv-x="642" 
d="M566 264q0 -74 -13 -126t-42.5 -85.5t-77.5 -49t-118 -15.5t-118 15.5t-77.5 49t-42.5 85.5t-13 126v434h143v-453q0 -69 23.5 -99.5t84.5 -30.5t84.5 30.5t23.5 99.5v453h110v103h113v-104q0 -44 -16 -63t-64 -21v-349v0zM315 -199q-42 0 -58.5 16t-16.5 42v29
q0 26 16.5 42t58.5 16t58.5 -16t16.5 -42v-29q0 -26 -16.5 -42t-58.5 -16z" />
    <glyph glyph-name="uni1EF1" unicode="&#x1ef1;" horiz-adv-x="552" 
d="M323 89q-6 -21 -16.5 -39t-25.5 -32t-35 -22t-47 -8q-70 0 -107 47.5t-37 132.5v357h140v-330q0 -93 65 -93q32 0 55.5 19.5t23.5 54.5v349h107v102h113v-103q0 -44 -16 -63t-64 -21v-440h-140v89h-16v0zM267 -199q-42 0 -58.5 16t-16.5 42v29q0 26 16.5 42t58.5 16
t58.5 -16t16.5 -42v-29q0 -26 -16.5 -42t-58.5 -16z" />
    <glyph glyph-name="Ygrave" unicode="&#x1ef2;" horiz-adv-x="579" 
d="M218 0v263l-213 435h156l124 -286h16l120 286h153l-213 -435v-263h-143zM146 919l119 58l92 -198l-82 -39z" />
    <glyph glyph-name="ygrave" unicode="&#x1ef3;" horiz-adv-x="496" 
d="M352 525h140l-197 -625q-9 -29 -22.5 -48.5t-32 -31t-42.5 -16t-55 -4.5h-94v109h114l17 62l-176 554h144l77 -291l19 -116h14l19 117zM105 758l119 58l92 -198l-82 -39z" />
    <glyph glyph-name="uni1EF4" unicode="&#x1ef4;" horiz-adv-x="579" 
d="M218 0v263l-213 435h156l124 -286h16l120 286h153l-213 -435v-263h-143zM290 -199q-42 0 -58.5 16t-16.5 42v29q0 26 16.5 42t58.5 16t58.5 -16t16.5 -42v-29q0 -26 -16.5 -42t-58.5 -16z" />
    <glyph glyph-name="uni1EF5" unicode="&#x1ef5;" horiz-adv-x="496" 
d="M352 525h140l-197 -625q-9 -29 -22.5 -48.5t-32 -31t-42.5 -16t-55 -4.5h-94v109h114l17 62l-176 554h144l77 -291l19 -116h14l19 117zM395 -199q-42 0 -58.5 16t-16.5 42v29q0 26 16.5 42t58.5 16t58.5 -16t16.5 -42v-29q0 -26 -16.5 -42t-58.5 -16z" />
    <glyph glyph-name="uni1EF6" unicode="&#x1ef6;" horiz-adv-x="579" 
d="M218 0v263l-213 435h156l124 -286h16l120 286h153l-213 -435v-263h-143zM178 963h140q51 0 70.5 -19t19.5 -54q0 -14 -2.5 -25t-7.5 -22t-12.5 -23.5t-18.5 -28.5l-42 -61l-74 33l43 100h-116v100z" />
    <glyph glyph-name="uni1EF7" unicode="&#x1ef7;" horiz-adv-x="496" 
d="M352 525h140l-197 -625q-9 -29 -22.5 -48.5t-32 -31t-42.5 -16t-55 -4.5h-94v109h114l17 62l-176 554h144l77 -291l19 -116h14l19 117zM136 802h140q51 0 70.5 -19t19.5 -54q0 -14 -2.5 -25t-7.5 -22t-12.5 -23.5t-18.5 -28.5l-42 -61l-74 33l43 100h-116v100z" />
    <glyph glyph-name="uni1EF8" unicode="&#x1ef8;" horiz-adv-x="579" 
d="M218 0v263l-213 435h156l124 -286h16l120 286h153l-213 -435v-263h-143zM362 764q-18 0 -32 4t-42 18q-27 14 -42.5 19t-27.5 5q-17 0 -27 -6t-25 -20l-49 64q17 27 43.5 43.5t57.5 16.5q9 0 16.5 -1t15.5 -3t18 -6.5t24 -11.5q27 -14 42.5 -19t27.5 -5q17 0 27 6t25 20
l49 -64q-17 -27 -43.5 -43.5t-57.5 -16.5z" />
    <glyph glyph-name="uni1EF9" unicode="&#x1ef9;" horiz-adv-x="496" 
d="M352 525h140l-197 -625q-9 -29 -22.5 -48.5t-32 -31t-42.5 -16t-55 -4.5h-94v109h114l17 62l-176 554h144l77 -291l19 -116h14l19 117zM321 603q-18 0 -32 4t-42 18q-27 14 -42.5 19t-27.5 5q-17 0 -27 -6t-25 -20l-49 64q17 27 43.5 43.5t57.5 16.5q9 0 16.5 -1t15.5 -3
t18 -6.5t24 -11.5q27 -14 42.5 -19t27.5 -5q17 0 27 6t25 20l49 -64q-17 -27 -43.5 -43.5t-57.5 -16.5z" />
    <glyph glyph-name="endash" unicode="&#x2013;" horiz-adv-x="528" 
d="M32 247v114h464v-114h-464z" />
    <glyph glyph-name="emdash" unicode="&#x2014;" horiz-adv-x="702" 
d="M32 247v114h638v-114h-638z" />
    <glyph glyph-name="quoteleft" unicode="&#x2018;" horiz-adv-x="284" 
d="M140 447q-42 0 -61 19.5t-19 52.5v26q0 57 27 108.5t73 86.5h86q-32 -30 -54.5 -60.5t-33.5 -67.5q62 -9 62 -67v-26q0 -33 -19 -52.5t-61 -19.5z" />
    <glyph glyph-name="quoteright" unicode="&#x2019;" horiz-adv-x="284" 
d="M144 750q42 0 61 -19.5t19 -52.5v-26q0 -57 -27 -108.5t-73 -86.5h-86q32 30 54.5 60.5t33.5 67.5q-62 9 -62 67v26q0 33 19 52.5t61 19.5z" />
    <glyph glyph-name="quotesinglbase" unicode="&#x201a;" horiz-adv-x="284" 
d="M144 176q42 0 61 -19.5t19 -52.5v-26q0 -57 -27 -108.5t-73 -86.5h-86q32 30 54.5 60.5t33.5 67.5q-62 9 -62 67v26q0 33 19 52.5t61 19.5z" />
    <glyph glyph-name="quotedblleft" unicode="&#x201c;" horiz-adv-x="499" 
d="M140 447q-42 0 -61 19.5t-19 52.5v26q0 57 27 108.5t73 86.5h86q-32 -30 -54.5 -60.5t-33.5 -67.5q62 -9 62 -67v-26q0 -33 -19 -52.5t-61 -19.5zM355 447q-42 0 -61 19.5t-19 52.5v26q0 57 27 108.5t73 86.5h86q-32 -30 -54.5 -60.5t-33.5 -67.5q62 -9 62 -67v-26
q0 -33 -19 -52.5t-61 -19.5z" />
    <glyph glyph-name="quotedblright" unicode="&#x201d;" horiz-adv-x="499" 
d="M144 750q42 0 61 -19.5t19 -52.5v-26q0 -57 -27 -108.5t-73 -86.5h-86q32 30 54.5 60.5t33.5 67.5q-62 9 -62 67v26q0 33 19 52.5t61 19.5zM359 750q42 0 61 -19.5t19 -52.5v-26q0 -57 -27 -108.5t-73 -86.5h-86q32 30 54.5 60.5t33.5 67.5q-62 9 -62 67v26q0 33 19 52.5
t61 19.5z" />
    <glyph glyph-name="quotedblbase" unicode="&#x201e;" horiz-adv-x="499" 
d="M144 176q42 0 61 -19.5t19 -52.5v-26q0 -57 -27 -108.5t-73 -86.5h-86q32 30 54.5 60.5t33.5 67.5q-62 9 -62 67v26q0 33 19 52.5t61 19.5zM359 176q42 0 61 -19.5t19 -52.5v-26q0 -57 -27 -108.5t-73 -86.5h-86q32 30 54.5 60.5t33.5 67.5q-62 9 -62 67v26q0 33 19 52.5
t61 19.5z" />
    <glyph glyph-name="dagger" unicode="&#x2020;" horiz-adv-x="466" 
d="M174 -200v616h-152v100h152v224h118v-224h152v-100h-152v-616h-118z" />
    <glyph glyph-name="daggerdbl" unicode="&#x2021;" horiz-adv-x="466" 
d="M174 -200v224h-152v100h152v292h-152v100h152v224h118v-224h152v-100h-152v-292h152v-100h-152v-224h-118z" />
    <glyph glyph-name="bullet" unicode="&#x2022;" horiz-adv-x="390" 
d="M195 159q-72 0 -107 30t-35 85v52q0 55 35 85t107 30t107 -30t35 -85v-52q0 -55 -35 -85t-107 -30z" />
    <glyph glyph-name="ellipsis" unicode="&#x2026;" horiz-adv-x="816" 
d="M142 -10q-42 0 -62 19.5t-20 52.5v26q0 33 20 52.5t62 19.5t62 -19.5t20 -52.5v-26q0 -33 -20 -52.5t-62 -19.5zM408 -10q-42 0 -62 19.5t-20 52.5v26q0 33 20 52.5t62 19.5t62 -19.5t20 -52.5v-26q0 -33 -20 -52.5t-62 -19.5zM674 -10q-42 0 -62 19.5t-20 52.5v26
q0 33 20 52.5t62 19.5t62 -19.5t20 -52.5v-26q0 -33 -20 -52.5t-62 -19.5z" />
    <glyph glyph-name="perthousand" unicode="&#x2030;" horiz-adv-x="1254" 
d="M165 0l434 698h120l-434 -698h-120zM209 314q-80 0 -122 46.5t-42 151.5t42 151.5t122 46.5q79 0 121.5 -46.5t42.5 -151.5t-42.5 -151.5t-121.5 -46.5zM209 394q45 0 45 60v116q0 60 -45 60t-45 -60v-116q0 -60 45 -60zM675 -12q-80 0 -122 46.5t-42 151.5t42 151.5
t122 46.5q79 0 121.5 -46.5t42.5 -151.5t-42.5 -151.5t-121.5 -46.5zM675 68q45 0 45 60v116q0 60 -45 60t-45 -60v-116q0 -60 45 -60zM1045 -12q-80 0 -122 46.5t-42 151.5t42 151.5t122 46.5q79 0 121.5 -46.5t42.5 -151.5t-42.5 -151.5t-121.5 -46.5zM1045 68q45 0 45 60
v116q0 60 -45 60t-45 -60v-116q0 -60 45 -60z" />
    <glyph glyph-name="guilsinglleft" unicode="&#x2039;" horiz-adv-x="288" 
d="M202 73l-167 141v119l167 141l41 -87l-101 -106v-15l101 -106z" />
    <glyph glyph-name="guilsinglright" unicode="&#x203a;" horiz-adv-x="287" 
d="M85 474l167 -141v-119l-167 -141l-41 87l101 106v15l-101 106z" />
    <glyph glyph-name="fraction" unicode="&#x2044;" horiz-adv-x="100" 
d="M61 434l180 264h100l-180 -264h-100zM-241 0l180 254h100l-180 -254h-100z" />
    <glyph glyph-name="uni2070" unicode="&#x2070;" horiz-adv-x="320" 
d="M160 323q-74 0 -109 43.5t-35 147.5t35 147t109 43q73 0 108.5 -43t35.5 -147t-35.5 -147.5t-108.5 -43.5zM160 402q24 0 32 14.5t8 52.5v89q0 38 -8 52.5t-32 14.5t-32 -14.5t-8 -52.5v-89q0 -38 8 -52.5t32 -14.5z" />
    <glyph glyph-name="uni2074" unicode="&#x2074;" horiz-adv-x="320" 
d="M166 329v70h-150v78l128 221h112v-229h40v-70h-40v-70h-90zM166 595h-10l-69 -126h79v126z" />
    <glyph glyph-name="uni2075" unicode="&#x2075;" horiz-adv-x="320" 
d="M279 616h-164l-9 -106h10q7 32 25 49t53 17q48 0 77.5 -27.5t29.5 -90.5q0 -66 -35.5 -100.5t-107.5 -34.5q-53 0 -87.5 21t-51.5 53l66 53q11 -20 28.5 -36t44.5 -16q43 0 43 44v15q0 44 -43 44q-19 0 -28.5 -9t-14.5 -17l-83 12l14 211h233v-82z" />
    <glyph glyph-name="uni2076" unicode="&#x2076;" horiz-adv-x="320" 
d="M159 323q-69 0 -105 34t-36 99q0 45 11 82t29 66.5t40.5 52.5t45.5 41h138q-69 -43 -112 -89t-54 -94h12q7 26 25 41t47 15q48 0 75 -29t27 -86q0 -62 -37 -97.5t-106 -35.5zM160 394q42 0 42 42v22q0 42 -42 42t-42 -42v-22q0 -42 42 -42z" />
    <glyph glyph-name="uni2077" unicode="&#x2077;" horiz-adv-x="320" 
d="M89 329l112 293h-92v-65h-79v141h264v-81l-104 -288h-101z" />
    <glyph glyph-name="uni2078" unicode="&#x2078;" horiz-adv-x="320" 
d="M160 323q-65 0 -101.5 27t-36.5 81q0 33 20.5 57.5t52.5 26.5v10q-25 2 -44 25t-19 55q0 99 127 99t127 -99q0 -32 -18 -55t-43 -25v-10q32 -2 52.5 -26.5t20.5 -57.5q0 -54 -36.5 -81t-101.5 -27zM159 549q39 0 39 35v15q0 35 -39 35t-39 -35v-15q0 -35 39 -35zM160 393
q38 0 38 35v18q0 35 -38 35t-38 -35v-18q0 -35 38 -35z" />
    <glyph glyph-name="uni2079" unicode="&#x2079;" horiz-adv-x="320" 
d="M302 571q0 -45 -11 -82t-29 -66.5t-40.5 -52.5t-45.5 -41h-138q69 43 112 89t54 94h-12q-7 -26 -25 -41t-47 -15q-48 0 -75 29t-27 86q0 62 37 97.5t106 35.5t105 -34t36 -99zM160 527q42 0 42 42v22q0 42 -42 42t-42 -42v-22q0 -42 42 -42z" />
    <glyph glyph-name="uni2080" unicode="&#x2080;" horiz-adv-x="320" 
d="M160 -6q-74 0 -109 43.5t-35 147.5t35 147t109 43q73 0 108.5 -43t35.5 -147t-35.5 -147.5t-108.5 -43.5zM160 73q24 0 32 14.5t8 52.5v89q0 38 -8 52.5t-32 14.5t-32 -14.5t-8 -52.5v-89q0 -38 8 -52.5t32 -14.5z" />
    <glyph glyph-name="uni2081" unicode="&#x2081;" horiz-adv-x="320" 
d="M50 0v75h82v207l-69 -39l-35 69l98 57h100v-294h72v-75h-248z" />
    <glyph glyph-name="uni2082" unicode="&#x2082;" horiz-adv-x="320" 
d="M292 0h-263v84l97 84q36 31 48 49t12 41v1q0 19 -11.5 28t-28.5 9q-23 0 -34 -14t-17 -33l-77 29q14 42 45.5 69.5t91.5 27.5q68 0 99.5 -29t31.5 -83q0 -24 -6.5 -43t-19 -36.5t-32 -34t-44.5 -34.5l-55 -40h163v-75z" />
    <glyph glyph-name="uni2083" unicode="&#x2083;" horiz-adv-x="320" 
d="M143 226q18 0 28.5 10t10.5 23v8q0 13 -10.5 23t-28.5 10q-38 0 -66 -41l-58 55q26 31 56.5 46t72.5 15q66 0 100 -24.5t34 -75.5q0 -35 -20 -56t-49 -23v-12q35 -3 55 -23.5t20 -56.5q0 -57 -37 -83.5t-103 -26.5q-54 0 -86 21.5t-52 50.5l68 53q11 -20 27.5 -35
t42.5 -15q23 0 31.5 10.5t8.5 26.5v8q0 16 -8.5 26.5t-31.5 10.5h-37v75h32z" />
    <glyph glyph-name="uni2084" unicode="&#x2084;" horiz-adv-x="320" 
d="M166 0v70h-150v78l128 221h112v-229h40v-70h-40v-70h-90zM166 266h-10l-69 -126h79v126z" />
    <glyph glyph-name="uni2085" unicode="&#x2085;" horiz-adv-x="320" 
d="M115 287l-9 -106h10q7 32 25 49t53 17q48 0 77.5 -27.5t29.5 -90.5q0 -66 -35.5 -100.5t-107.5 -34.5q-53 0 -87.5 21t-51.5 53l66 53q11 -20 28.5 -36t44.5 -16q43 0 43 44v15q0 44 -43 44q-19 0 -28.5 -9t-14.5 -17l-83 12l14 211h233v-82h-164z" />
    <glyph glyph-name="uni2086" unicode="&#x2086;" horiz-adv-x="320" 
d="M159 -6q-69 0 -105 34t-36 99q0 45 11 82t29 66.5t40.5 52.5t45.5 41h138q-69 -43 -112 -89t-54 -94h12q7 26 25 41t47 15q48 0 75 -29t27 -86q0 -62 -37 -97.5t-106 -35.5zM160 65q42 0 42 42v22q0 42 -42 42t-42 -42v-22q0 -42 42 -42z" />
    <glyph glyph-name="uni2087" unicode="&#x2087;" horiz-adv-x="320" 
d="M89 0l112 293h-92v-65h-79v141h264v-81l-104 -288h-101z" />
    <glyph glyph-name="uni2088" unicode="&#x2088;" horiz-adv-x="320" 
d="M160 -6q-65 0 -101.5 27t-36.5 81q0 33 20.5 57.5t52.5 26.5v10q-25 2 -44 25t-19 55q0 99 127 99t127 -99q0 -32 -18 -55t-43 -25v-10q32 -2 52.5 -26.5t20.5 -57.5q0 -54 -36.5 -81t-101.5 -27zM160 64q38 0 38 35v18q0 35 -38 35t-38 -35v-18q0 -35 38 -35zM159 220
q39 0 39 35v15q0 35 -39 35t-39 -35v-15q0 -35 39 -35z" />
    <glyph glyph-name="uni2089" unicode="&#x2089;" horiz-adv-x="320" 
d="M302 242q0 -45 -11 -82t-29 -66.5t-40.5 -52.5t-45.5 -41h-138q69 43 112 89t54 94h-12q-7 -26 -25 -41t-47 -15q-48 0 -75 29t-27 86q0 62 37 97.5t106 35.5t105 -34t36 -99zM160 198q42 0 42 42v22q0 42 -42 42t-42 -42v-22q0 -42 42 -42z" />
    <glyph glyph-name="uni20A1" unicode="&#x20a1;" horiz-adv-x="570" 
d="M299 9q-21 0 -44 5l-9 -96h-58l10 113q-154 66 -154 318q0 298 215 336l9 95h58l-8 -90h4q11 0 21 -0.5t19 -1.5l9 92h58l-10 -103q86 -28 123 -103l-96 -68q-15 31 -40 50l-40 -433q27 8 49 26.5t37 49.5l94 -69q-26 -48 -74 -80t-115 -40l-8 -92h-58zM305 581l-42 -457
q19 -5 48 -7l43 461q-15 3 -32 3h-17zM186 248q0 -62 26 -93l38 415q-32 -12 -48 -40.5t-16 -79.5v-202z" />
    <glyph glyph-name="uni20A4" unicode="&#x20a4;" horiz-adv-x="523" 
d="M501 0h-443v131q29 14 48.5 37t25.5 59h-104v83h96q-6 19 -14 38t-16 40h-66v83h46q-1 8 -1.5 16t-0.5 17q0 100 56 153t173 53q79 0 127.5 -29t85.5 -87l-104 -73q-20 32 -45 49.5t-58 17.5q-48 0 -69.5 -20.5t-21.5 -75.5v-10.5t1 -10.5h164v-83h-148q6 -21 11.5 -40.5
t10.5 -37.5h127v-83h-121q-7 -47 -33.5 -69t-68.5 -24v-14h342v-120z" />
    <glyph glyph-name="uni20A6" unicode="&#x20a6;" horiz-adv-x="707" 
d="M348 227h-129v-227h-124v227h-80v83h80v78h-80v83h80v227h146l118 -227h129v227h124v-227h80v-83h-80v-78h80v-83h-80v-227h-146zM219 298h92l-40 76l-44 111h-16l8 -111v-76zM496 213l-8 111v76h-92l40 -76l44 -111h16z" />
    <glyph glyph-name="uni20A8" unicode="&#x20a8;" horiz-adv-x="822" 
d="M68 0v698h228q94 0 137 -55.5t43 -152.5q0 -60 -16 -104t-50 -70l62 -124q26 -53 50.5 -74t58.5 -21q32 0 45.5 11t13.5 32q0 19 -7.5 35.5t-28.5 36.5l-18 17q-44 40 -60 75.5t-16 78.5q0 73 42 109t119 36q31 0 60.5 -6.5t55.5 -23.5l-43 -91q-24 18 -57 18
q-49 0 -49 -42q0 -18 13.5 -33t38.5 -40l17 -17q19 -19 32.5 -36t22 -34t12.5 -35.5t4 -41.5q0 -35 -11 -64t-35 -50t-62.5 -32.5t-93.5 -11.5q-46 0 -80.5 10t-60.5 28.5t-46 45t-36 60.5l-73 150h-72v-282h-140zM268 393q29 0 45.5 14t16.5 50v60q0 36 -16.5 50t-45.5 14
h-60v-188h60z" />
    <glyph glyph-name="uni20A9" unicode="&#x20a9;" horiz-adv-x="928" 
d="M526 227h-126l-47 -227h-165l-47 227h-107v83h90l-15 78h-75v83h58l-47 227h141l41 -227h112l49 227h157l49 -227h113l40 227h136l-47 -227h57v-83h-75l-16 -78h91v-83h-109l-47 -227h-164zM304 308l20 92h-85l17 -92l16 -151h16zM662 157l16 151l16 92h-84l20 -92
l16 -151h16zM415 298h96l-22 104l-18 139h-16l-18 -139z" />
    <glyph glyph-name="uni20AA" unicode="&#x20aa;" horiz-adv-x="839" 
d="M263 510h124v-395h198q32 0 44 12t12 50v521h124v-520q0 -50 -10 -84t-29.5 -55t-50 -30t-70.5 -9h-342v510zM74 0v698h342q40 0 70.5 -9t50 -30t29.5 -55t10 -84v-333h-124v334q0 38 -12 50t-44 12h-198v-583h-124z" />
    <glyph glyph-name="uni20AB" unicode="&#x20ab;" horiz-adv-x="520" 
d="M305 222h-16q-13 -32 -40 -51t-67 -19q-75 0 -113.5 46t-38.5 150t38.5 150t113.5 46q40 0 67 -19t40 -51h16v123h-115v83h115v60h135v-60h55v-83h-55v-435h-135v60zM240 251q29 0 47 17t18 40v80q0 23 -18 40t-47 17q-39 0 -55.5 -16.5t-16.5 -49.5v-55q0 -33 16.5 -53
t55.5 -20zM45 0v100h410v-100h-410z" />
    <glyph glyph-name="Euro" unicode="&#x20ac;" horiz-adv-x="564" 
d="M318 -12q-137 0 -205.5 91t-68.5 270t68.5 270t205.5 91q84 0 137.5 -31t79.5 -85l-102 -74q-35 75 -115 75q-57 0 -88 -27.5t-35 -96.5h212v-83h-213v-78h213v-83h-212q4 -69 35 -96.5t88 -27.5q80 0 120 79l102 -71q-29 -55 -85.5 -89t-136.5 -34z" />
    <glyph glyph-name="uni20AD" unicode="&#x20ad;" horiz-adv-x="617" 
d="M228 0h-143v295h-80v114h80v289h143v-289h32l165 289h162l-149 -238l-48 -51h177v-114h-171l49 -51l162 -244h-168l-179 295h-32v-295z" />
    <glyph glyph-name="uni20AE" unicode="&#x20ae;" horiz-adv-x="543" 
d="M343 222v-222h-143v154l-108 -58v81l108 58v70l-108 -58v81l108 58v196h-167v116h477v-116h-167v-128l108 58v-81l-108 -58v-70l108 58v-81z" />
    <glyph glyph-name="uni20B1" unicode="&#x20b1;" horiz-adv-x="639" 
d="M235 0h-140v319h-80v81h80v56h-80v81h80v161h257q74 0 120.5 -36t62.5 -125h89v-81h-80v-56h80v-81h-88q-17 -89 -63.5 -125t-120.5 -36h-117v-158zM399 388v80h-164v-80h164zM337 253q29 0 45.5 15t16.5 51h-164v-66h102zM235 537h164q0 36 -16.5 51t-45.5 15h-102v-66z
" />
    <glyph glyph-name="uni20B2" unicode="&#x20b2;" horiz-adv-x="601" 
d="M323 8h-12.5t-12.5 1l-14 -91h-108l18 115q-149 68 -149 316q0 161 62.5 246.5t188.5 93.5l15 91h108l-16 -101q46 -14 77.5 -43.5t52.5 -71.5l-96 -68q-27 57 -68 76l-29 -189h216v-151q0 -52 -19 -93.5t-51 -70.5t-74.5 -44.5t-88.5 -15.5zM187 248q0 -74 37 -105
l66 436q-51 -6 -77 -35.5t-26 -93.5v-202zM324 278l-24 -160q5 -1 11 -1h12q51 0 79 31t28 88v42h-106z" />
    <glyph glyph-name="uni20B4" unicode="&#x20b4;" horiz-adv-x="588" 
d="M305 -12q-56 0 -96.5 12.5t-66 35t-37.5 54t-12 68.5q0 17 4.5 35t10.5 34h-78v83h116l75 42l77 32v12l-112 -8h-156v83h322q10 26 10 54q0 39 -17.5 54.5t-55.5 15.5q-33 0 -62.5 -13t-50.5 -38l-68 85q32 35 83.5 58t107.5 23q52 0 89 -12.5t61 -35t35 -54t11 -68.5
q0 -17 -4.5 -35t-10.5 -34h78v-83h-116l-73 -41l-79 -33v-12l112 8h156v-83h-322q-10 -26 -10 -54q0 -39 21.5 -54.5t67.5 -15.5q33 0 62.5 13t50.5 38l68 -85q-32 -35 -83.5 -58t-107.5 -23z" />
    <glyph glyph-name="uni20B5" unicode="&#x20b5;" horiz-adv-x="544" 
d="M297 8l-14 -90h-108l18 112q-148 66 -148 319q0 165 62.5 250.5t187.5 90.5l15 90h108l-17 -103q79 -28 116 -101l-96 -68q-18 38 -47 56l-68 -447h4q77 0 117 80l94 -69q-29 -53 -82 -86.5t-129 -33.5h-13zM187 248q0 -74 33 -104l66 436q-49 -5 -74 -34.5t-25 -95.5
v-202z" />
    <glyph glyph-name="uni20B8" unicode="&#x20b8;" horiz-adv-x="543" 
d="M33 598v100h477v-100h-477zM343 420v-420h-143v420h-167v100h477v-100h-167z" />
    <glyph glyph-name="uni20B9" unicode="&#x20b9;" horiz-adv-x="560" 
d="M416 420q-7 -66 -34 -115t-80 -67l157 -238h-160l-143 228h-105v100h152q35 0 54 15.5t19 51.5v25h-226v100h226v11q0 36 -19 51.5t-54 15.5h-152v100h469v-100h-209v-14q37 -3 61 -20t36 -44h112v-100h-104z" />
    <glyph glyph-name="uni20BA" unicode="&#x20ba;" horiz-adv-x="549" 
d="M93 230l-78 -42v81l78 42v70l-78 -42v81l78 42v236h143v-168l130 70v-81l-130 -70v-70l130 70v-81l-130 -70v-182h50q30 0 50 9.5t32.5 31t18 58t5.5 90.5h137q0 -157 -59 -231t-171 -74h-206v230z" />
    <glyph glyph-name="uni20BD" unicode="&#x20bd;" horiz-adv-x="599" 
d="M236 114v-114h-143v114h-80v100h80v78h-80v100h80v306h282q94 0 143 -51.5t49 -151.5t-49 -151.5t-143 -51.5h-139v-78h185v-100h-185zM236 392h121q29 0 45.5 15t16.5 50v61q0 35 -16.5 50t-45.5 15h-121v-191z" />
    <glyph glyph-name="uni20BF" unicode="&#x20bf;" horiz-adv-x="601" 
d="M321 20h-61v-102h-103v102h-89v658h89v102h103v-102h61v102h103v-105q57 -8 88.5 -51t31.5 -115q0 -70 -27.5 -101.5t-88.5 -36.5v-16q64 -2 101.5 -37.5t37.5 -109.5q0 -41 -10.5 -75.5t-29.5 -59.5t-45.5 -39t-57.5 -14v-102h-103v102zM202 406h156q23 0 35 13.5
t12 44.5v41q0 31 -12 44.5t-35 13.5h-156v-157zM202 135h179q47 0 47 60v41q0 60 -47 60h-179v-161z" />
    <glyph glyph-name="uni2113" unicode="&#x2113;" horiz-adv-x="504" 
d="M278 -12q-36 0 -67 10t-54 29.5t-36 49t-13 68.5v15l-40 -25l-55 96l95 58v279q0 96 42.5 140t122.5 44t122.5 -44t42.5 -140q0 -194 -205 -331v-65q0 -40 14 -54t40 -14q29 0 48.5 25.5t36.5 82.5l111 -57q-24 -78 -74.5 -122.5t-130.5 -44.5zM271 636q-22 0 -30 -14
t-8 -49v-200q23 19 37.5 38t23 39.5t12 42.5t3.5 49v31q0 35 -8 49t-30 14z" />
    <glyph glyph-name="uni2116" unicode="&#x2116;" horiz-adv-x="957" 
d="M775 358q-72 0 -111 41.5t-39 134.5t39 134.5t111 41.5t111 -41.5t39 -134.5t-39 -134.5t-111 -41.5zM68 0v698h156l158 -374l38 -111h16l-8 111v374h134v-698h-156l-158 374l-38 111h-16l8 -111v-374h-134zM775 434q26 0 38.5 14t12.5 49v74q0 35 -12.5 49t-38.5 14
t-38.5 -14t-12.5 -49v-74q0 -35 12.5 -49t38.5 -14zM630 222v76h290v-76h-290z" />
    <glyph glyph-name="trademark" unicode="&#x2122;" horiz-adv-x="550" 
d="M81 410v229h-59v59h196v-59h-59v-229h-78zM244 410v288h80l49 -110h6l47 110h80v-288h-66v99l11 99h-6l-70 -152l-70 152h-6l11 -99v-99h-66z" />
    <glyph glyph-name="Omega" unicode="&#x2126;" horiz-adv-x="642" 
d="M39 115h167v14q-38 10 -68 35t-51 61t-32 80.5t-11 92.5q0 72 17 130t51 98.5t86 62t123 21.5q70 0 122.5 -21.5t86.5 -62t51 -98.5t17 -130q0 -48 -11 -92.5t-31.5 -80.5t-50.5 -61t-69 -35v-14h167v-115h-246v175q20 7 36.5 21.5t28.5 34t18.5 42t6.5 45.5v148
q0 54 -33.5 85.5t-92.5 31.5t-92.5 -31.5t-33.5 -85.5v-148q0 -23 6.5 -45.5t18.5 -42t28.5 -34t36.5 -21.5v-175h-246v115z" />
    <glyph glyph-name="uni212E" unicode="&#x212e;" horiz-adv-x="641" 
d="M196 78q52 -38 125 -38q46 0 81 11.5t61.5 32t46 49t34.5 61.5l48 -28q-18 -38 -42 -70.5t-56.5 -56.5t-75 -37.5t-97.5 -13.5q-69 0 -123.5 25.5t-92.5 72.5t-58.5 113.5t-20.5 149.5q0 82 20.5 149t58.5 114t92.5 72.5t123.5 25.5t123.5 -25.5t92.5 -72.5t58.5 -114
t20.5 -149h-420v-271zM446 403v220q-50 35 -125 35q-73 0 -125 -35v-220h250z" />
    <glyph glyph-name="uni2150" unicode="&#x2150;" horiz-adv-x="740" 
d="M50 329v75h82v207l-69 -39l-35 69l98 57h100v-294h72v-75h-248zM381 434l180 264h100l-180 -264h-100zM79 0l180 254h100l-180 -254h-100zM509 0l112 293h-92v-65h-79v141h264v-81l-104 -288h-101z" />
    <glyph glyph-name="uni2151" unicode="&#x2151;" horiz-adv-x="740" 
d="M50 329v75h82v207l-69 -39l-35 69l98 57h100v-294h72v-75h-248zM381 434l180 264h100l-180 -264h-100zM79 0l180 254h100l-180 -254h-100zM722 242q0 -45 -11 -82t-29 -66.5t-40.5 -52.5t-45.5 -41h-138q69 43 112 89t54 94h-12q-7 -26 -25 -41t-47 -15q-48 0 -75 29
t-27 86q0 62 37 97.5t106 35.5t105 -34t36 -99zM580 198q42 0 42 42v22q0 42 -42 42t-42 -42v-22q0 -42 42 -42z" />
    <glyph glyph-name="uni2153" unicode="&#x2153;" horiz-adv-x="740" 
d="M50 329v75h82v207l-69 -39l-35 69l98 57h100v-294h72v-75h-248zM381 434l180 264h100l-180 -264h-100zM79 0l180 254h100l-180 -254h-100zM563 226q18 0 28.5 10t10.5 23v8q0 13 -10.5 23t-28.5 10q-38 0 -66 -41l-58 55q26 31 56.5 46t72.5 15q66 0 100 -24.5t34 -75.5
q0 -35 -20 -56t-49 -23v-12q35 -3 55 -23.5t20 -56.5q0 -57 -37 -83.5t-103 -26.5q-54 0 -86 21.5t-52 50.5l68 53q11 -20 27.5 -35t42.5 -15q23 0 31.5 10.5t8.5 26.5v8q0 16 -8.5 26.5t-31.5 10.5h-37v75h32z" />
    <glyph glyph-name="uni2154" unicode="&#x2154;" horiz-adv-x="740" 
d="M292 329h-263v84l97 84q36 31 48 49t12 41v1q0 19 -11.5 28t-28.5 9q-23 0 -34 -14t-17 -33l-77 29q14 42 45.5 69.5t91.5 27.5q68 0 99.5 -29t31.5 -83q0 -24 -6.5 -43t-19 -36.5t-32 -34t-44.5 -34.5l-55 -40h163v-75zM381 434l180 264h100l-180 -264h-100zM79 0
l180 254h100l-180 -254h-100zM563 226q18 0 28.5 10t10.5 23v8q0 13 -10.5 23t-28.5 10q-38 0 -66 -41l-58 55q26 31 56.5 46t72.5 15q66 0 100 -24.5t34 -75.5q0 -35 -20 -56t-49 -23v-12q35 -3 55 -23.5t20 -56.5q0 -57 -37 -83.5t-103 -26.5q-54 0 -86 21.5t-52 50.5
l68 53q11 -20 27.5 -35t42.5 -15q23 0 31.5 10.5t8.5 26.5v8q0 16 -8.5 26.5t-31.5 10.5h-37v75h32z" />
    <glyph glyph-name="uni2155" unicode="&#x2155;" horiz-adv-x="740" 
d="M50 329v75h82v207l-69 -39l-35 69l98 57h100v-294h72v-75h-248zM381 434l180 264h100l-180 -264h-100zM79 0l180 254h100l-180 -254h-100zM535 287l-9 -106h10q7 32 25 49t53 17q48 0 77.5 -27.5t29.5 -90.5q0 -66 -35.5 -100.5t-107.5 -34.5q-53 0 -87.5 21t-51.5 53
l66 53q11 -20 28.5 -36t44.5 -16q43 0 43 44v15q0 44 -43 44q-19 0 -28.5 -9t-14.5 -17l-83 12l14 211h233v-82h-164z" />
    <glyph glyph-name="uni2156" unicode="&#x2156;" horiz-adv-x="740" 
d="M292 329h-263v84l97 84q36 31 48 49t12 41v1q0 19 -11.5 28t-28.5 9q-23 0 -34 -14t-17 -33l-77 29q14 42 45.5 69.5t91.5 27.5q68 0 99.5 -29t31.5 -83q0 -24 -6.5 -43t-19 -36.5t-32 -34t-44.5 -34.5l-55 -40h163v-75zM381 434l180 264h100l-180 -264h-100zM79 0
l180 254h100l-180 -254h-100zM535 287l-9 -106h10q7 32 25 49t53 17q48 0 77.5 -27.5t29.5 -90.5q0 -66 -35.5 -100.5t-107.5 -34.5q-53 0 -87.5 21t-51.5 53l66 53q11 -20 28.5 -36t44.5 -16q43 0 43 44v15q0 44 -43 44q-19 0 -28.5 -9t-14.5 -17l-83 12l14 211h233v-82
h-164z" />
    <glyph glyph-name="uni2157" unicode="&#x2157;" horiz-adv-x="740" 
d="M143 555q18 0 28.5 10t10.5 23v8q0 13 -10.5 23t-28.5 10q-38 0 -66 -41l-58 55q26 31 56.5 46t72.5 15q66 0 100 -24.5t34 -75.5q0 -35 -20 -56t-49 -23v-12q35 -3 55 -23.5t20 -56.5q0 -57 -37 -83.5t-103 -26.5q-54 0 -86 21.5t-52 50.5l68 53q11 -20 27.5 -35
t42.5 -15q23 0 31.5 10.5t8.5 26.5v8q0 16 -8.5 26.5t-31.5 10.5h-37v75h32zM381 434l180 264h100l-180 -264h-100zM79 0l180 254h100l-180 -254h-100zM535 287l-9 -106h10q7 32 25 49t53 17q48 0 77.5 -27.5t29.5 -90.5q0 -66 -35.5 -100.5t-107.5 -34.5q-53 0 -87.5 21
t-51.5 53l66 53q11 -20 28.5 -36t44.5 -16q43 0 43 44v15q0 44 -43 44q-19 0 -28.5 -9t-14.5 -17l-83 12l14 211h233v-82h-164z" />
    <glyph glyph-name="uni2158" unicode="&#x2158;" horiz-adv-x="740" 
d="M166 329v70h-150v78l128 221h112v-229h40v-70h-40v-70h-90zM166 595h-10l-69 -126h79v126zM381 434l180 264h100l-180 -264h-100zM79 0l180 254h100l-180 -254h-100zM535 287l-9 -106h10q7 32 25 49t53 17q48 0 77.5 -27.5t29.5 -90.5q0 -66 -35.5 -100.5t-107.5 -34.5
q-53 0 -87.5 21t-51.5 53l66 53q11 -20 28.5 -36t44.5 -16q43 0 43 44v15q0 44 -43 44q-19 0 -28.5 -9t-14.5 -17l-83 12l14 211h233v-82h-164z" />
    <glyph glyph-name="uni2159" unicode="&#x2159;" horiz-adv-x="740" 
d="M50 329v75h82v207l-69 -39l-35 69l98 57h100v-294h72v-75h-248zM381 434l180 264h100l-180 -264h-100zM79 0l180 254h100l-180 -254h-100zM579 -6q-69 0 -105 34t-36 99q0 45 11 82t29 66.5t40.5 52.5t45.5 41h138q-69 -43 -112 -89t-54 -94h12q7 26 25 41t47 15
q48 0 75 -29t27 -86q0 -62 -37 -97.5t-106 -35.5zM580 65q42 0 42 42v22q0 42 -42 42t-42 -42v-22q0 -42 42 -42z" />
    <glyph glyph-name="uni215A" unicode="&#x215a;" horiz-adv-x="740" 
d="M279 616h-164l-9 -106h10q7 32 25 49t53 17q48 0 77.5 -27.5t29.5 -90.5q0 -66 -35.5 -100.5t-107.5 -34.5q-53 0 -87.5 21t-51.5 53l66 53q11 -20 28.5 -36t44.5 -16q43 0 43 44v15q0 44 -43 44q-19 0 -28.5 -9t-14.5 -17l-83 12l14 211h233v-82zM381 434l180 264h100
l-180 -264h-100zM79 0l180 254h100l-180 -254h-100zM579 -6q-69 0 -105 34t-36 99q0 45 11 82t29 66.5t40.5 52.5t45.5 41h138q-69 -43 -112 -89t-54 -94h12q7 26 25 41t47 15q48 0 75 -29t27 -86q0 -62 -37 -97.5t-106 -35.5zM580 65q42 0 42 42v22q0 42 -42 42t-42 -42
v-22q0 -42 42 -42z" />
    <glyph glyph-name="uni215B" unicode="&#x215b;" horiz-adv-x="740" 
d="M50 329v75h82v207l-69 -39l-35 69l98 57h100v-294h72v-75h-248zM381 434l180 264h100l-180 -264h-100zM79 0l180 254h100l-180 -254h-100zM580 -6q-65 0 -101.5 27t-36.5 81q0 33 20.5 57.5t52.5 26.5v10q-25 2 -44 25t-19 55q0 99 127 99t127 -99q0 -32 -18 -55t-43 -25
v-10q32 -2 52.5 -26.5t20.5 -57.5q0 -54 -36.5 -81t-101.5 -27zM580 64q38 0 38 35v18q0 35 -38 35t-38 -35v-18q0 -35 38 -35zM579 220q39 0 39 35v15q0 35 -39 35t-39 -35v-15q0 -35 39 -35z" />
    <glyph glyph-name="uni215C" unicode="&#x215c;" horiz-adv-x="740" 
d="M143 555q18 0 28.5 10t10.5 23v8q0 13 -10.5 23t-28.5 10q-38 0 -66 -41l-58 55q26 31 56.5 46t72.5 15q66 0 100 -24.5t34 -75.5q0 -35 -20 -56t-49 -23v-12q35 -3 55 -23.5t20 -56.5q0 -57 -37 -83.5t-103 -26.5q-54 0 -86 21.5t-52 50.5l68 53q11 -20 27.5 -35
t42.5 -15q23 0 31.5 10.5t8.5 26.5v8q0 16 -8.5 26.5t-31.5 10.5h-37v75h32zM381 434l180 264h100l-180 -264h-100zM79 0l180 254h100l-180 -254h-100zM580 -6q-65 0 -101.5 27t-36.5 81q0 33 20.5 57.5t52.5 26.5v10q-25 2 -44 25t-19 55q0 99 127 99t127 -99
q0 -32 -18 -55t-43 -25v-10q32 -2 52.5 -26.5t20.5 -57.5q0 -54 -36.5 -81t-101.5 -27zM580 64q38 0 38 35v18q0 35 -38 35t-38 -35v-18q0 -35 38 -35zM579 220q39 0 39 35v15q0 35 -39 35t-39 -35v-15q0 -35 39 -35z" />
    <glyph glyph-name="uni215D" unicode="&#x215d;" horiz-adv-x="740" 
d="M279 616h-164l-9 -106h10q7 32 25 49t53 17q48 0 77.5 -27.5t29.5 -90.5q0 -66 -35.5 -100.5t-107.5 -34.5q-53 0 -87.5 21t-51.5 53l66 53q11 -20 28.5 -36t44.5 -16q43 0 43 44v15q0 44 -43 44q-19 0 -28.5 -9t-14.5 -17l-83 12l14 211h233v-82zM381 434l180 264h100
l-180 -264h-100zM79 0l180 254h100l-180 -254h-100zM580 -6q-65 0 -101.5 27t-36.5 81q0 33 20.5 57.5t52.5 26.5v10q-25 2 -44 25t-19 55q0 99 127 99t127 -99q0 -32 -18 -55t-43 -25v-10q32 -2 52.5 -26.5t20.5 -57.5q0 -54 -36.5 -81t-101.5 -27zM580 64q38 0 38 35v18
q0 35 -38 35t-38 -35v-18q0 -35 38 -35zM579 220q39 0 39 35v15q0 35 -39 35t-39 -35v-15q0 -35 39 -35z" />
    <glyph glyph-name="uni215E" unicode="&#x215e;" horiz-adv-x="740" 
d="M89 329l112 293h-92v-65h-79v141h264v-81l-104 -288h-101zM381 434l180 264h100l-180 -264h-100zM79 0l180 254h100l-180 -254h-100zM580 -6q-65 0 -101.5 27t-36.5 81q0 33 20.5 57.5t52.5 26.5v10q-25 2 -44 25t-19 55q0 99 127 99t127 -99q0 -32 -18 -55t-43 -25v-10
q32 -2 52.5 -26.5t20.5 -57.5q0 -54 -36.5 -81t-101.5 -27zM580 64q38 0 38 35v18q0 35 -38 35t-38 -35v-18q0 -35 38 -35zM579 220q39 0 39 35v15q0 35 -39 35t-39 -35v-15q0 -35 39 -35z" />
    <glyph glyph-name="uni2190" unicode="&#x2190;" horiz-adv-x="820" 
d="M282 581l75 -75l-54 -54l-72 -47l4 -14l105 16h420v-116h-420l-105 16l-4 -14l72 -47l54 -54l-75 -75l-232 232z" />
    <glyph glyph-name="uni2191" unicode="&#x2191;" horiz-adv-x="820" 
d="M642 478l-75 -75l-54 54l-47 72l-14 -4l16 -105v-420h-116v420l16 105l-14 4l-47 -72l-54 -54l-75 75l232 232z" />
    <glyph glyph-name="uni2192" unicode="&#x2192;" horiz-adv-x="820" 
d="M538 117l-75 75l54 54l72 47l-4 14l-105 -16h-420v116h420l105 -16l4 14l-72 47l-54 54l75 75l232 -232z" />
    <glyph glyph-name="uni2193" unicode="&#x2193;" horiz-adv-x="820" 
d="M178 220l75 75l54 -54l47 -72l14 4l-16 105v420h116v-420l-16 -105l14 -4l47 72l54 54l75 -75l-232 -232z" />
    <glyph glyph-name="uni2194" unicode="&#x2194;" horiz-adv-x="820" 
d="M281 581l75 -75l-54 -54l-72 -47l4 -14l105 16h142l105 -16l4 14l-72 47l-54 54l75 75l232 -232l-232 -232l-75 75l54 54l72 47l-4 14l-105 -16h-142l-105 16l-4 -14l72 -47l54 -54l-75 -75l-232 232z" />
    <glyph glyph-name="uni2195" unicode="&#x2195;" horiz-adv-x="820" 
d="M178 220l75 75l54 -54l47 -72l14 4l-16 105v142l16 105l-14 4l-47 -72l-54 -54l-75 75l232 232l232 -232l-75 -75l-54 54l-47 72l-14 -4l16 -105v-142l-16 -105l14 -4l47 72l54 54l75 -75l-232 -232z" />
    <glyph glyph-name="uni2196" unicode="&#x2196;" horiz-adv-x="820" 
d="M477 620v-106h-76l-84 18l-8 -13l86 -63l297 -297l-82 -82l-297 297l-63 86l-13 -8l18 -84v-76h-106v328h328z" />
    <glyph glyph-name="uni2197" unicode="&#x2197;" horiz-adv-x="820" 
d="M671 292h-106v76l18 84l-13 8l-63 -86l-297 -297l-82 82l297 297l86 63l-8 13l-84 -18h-76v106h328v-328z" />
    <glyph glyph-name="uni2198" unicode="&#x2198;" horiz-adv-x="820" 
d="M343 84v106h76l84 -18l8 13l-86 63l-297 297l82 82l297 -297l63 -86l13 8l-18 84v76h106v-328h-328z" />
    <glyph glyph-name="uni2199" unicode="&#x2199;" horiz-adv-x="820" 
d="M149 412h106v-76l-18 -84l13 -8l63 86l297 297l82 -82l-297 -297l-86 -63l8 -13l84 18h76v-106h-328v328z" />
    <glyph glyph-name="uni21A9" unicode="&#x21a9;" horiz-adv-x="820" 
d="M287 540l75 -75l-54 -54l-72 -47l4 -14l105 16h207q45 0 71 20.5t26 61.5t-26 61.5t-71 20.5v104q100 0 156.5 -48.5t56.5 -143.5t-56.5 -143.5t-156.5 -48.5h-207l-105 16l-4 -14l72 -47l54 -54l-75 -75l-232 232z" />
    <glyph glyph-name="uni21AA" unicode="&#x21aa;" horiz-adv-x="820" 
d="M533 76l-75 75l54 54l72 47l-4 14l-105 -16h-207q-100 0 -156.5 48.5t-56.5 143.5t56.5 143.5t156.5 48.5v-104q-45 0 -71 -20.5t-26 -61.5t26 -61.5t71 -20.5h207l105 -16l4 14l-72 47l-54 54l75 75l232 -232z" />
    <glyph glyph-name="uni21B0" unicode="&#x21b0;" horiz-adv-x="820" 
d="M335 710l75 -75l-54 -54l-72 -47l4 -14l105 16h244v-536h-106v420h-138l-105 16l-4 -14l72 -47l54 -54l-75 -75l-232 232z" />
    <glyph glyph-name="uni21B1" unicode="&#x21b1;" horiz-adv-x="820" 
d="M485 246l-75 75l54 54l72 47l-4 14l-105 -16h-138v-420h-106v536h244l105 -16l4 14l-72 47l-54 54l75 75l232 -232z" />
    <glyph glyph-name="uni21B2" unicode="&#x21b2;" horiz-adv-x="820" 
d="M335 452l75 -75l-54 -54l-72 -47l4 -14l105 16h138v420h106v-536h-244l-105 16l-4 -14l72 -47l54 -54l-75 -75l-232 232z" />
    <glyph glyph-name="uni21B3" unicode="&#x21b3;" horiz-adv-x="820" 
d="M485 -12l-75 75l54 54l72 47l-4 14l-105 -16h-244v536h106v-420h138l105 -16l4 14l-72 47l-54 54l75 75l232 -232z" />
    <glyph glyph-name="uni21B6" unicode="&#x21b6;" horiz-adv-x="820" 
d="M33 280l75 75l54 -54l47 -72l14 4l-16 105v35q0 62 22 114.5t61 91t92 60t115 21.5t115 -21.5t92 -60t61 -91t22 -114.5h-116q0 42 -12.5 75.5t-35.5 57.5t-55 37t-71 13t-71 -13t-55 -37t-35.5 -57.5t-12.5 -75.5v-35l-16 -105l14 -4l47 72l54 54l75 -75l-232 -232z" />
    <glyph glyph-name="uni21B7" unicode="&#x21b7;" horiz-adv-x="820" 
d="M323 280l75 75l54 -54l47 -72l14 4l-16 105v35q0 42 -12.5 75.5t-35.5 57.5t-55 37t-71 13t-71 -13t-55 -37t-35.5 -57.5t-12.5 -75.5h-116q0 62 22 114.5t61 91t92 60t115 21.5t115 -21.5t92 -60t61 -91t22 -114.5v-35l-16 -105l14 -4l47 72l54 54l75 -75l-232 -232z
" />
    <glyph glyph-name="uni21BA" unicode="&#x21ba;" horiz-adv-x="820" 
d="M700 698v-106h-76l-84 18l-8 -13l79 -67q51 -44 79 -101.5t28 -129.5q0 -67 -23 -124t-64 -98.5t-97.5 -65t-123.5 -23.5t-123.5 23.5t-97.5 65t-64 98.5t-23 124t23.5 122.5t65.5 96.5l76 -76q-23 -26 -36 -62t-13 -81q0 -46 14 -84t39 -65.5t60.5 -42.5t78.5 -15
t78.5 15t60.5 42.5t39 65.5t14 84q0 48 -14 88.5t-49 78.5l-66 72l-13 -8l18 -84v-76h-106v328h328z" />
    <glyph glyph-name="uni21BB" unicode="&#x21bb;" horiz-adv-x="820" 
d="M448 370h-106v76l18 84l-13 8l-66 -72q-35 -38 -49 -78.5t-14 -88.5q0 -46 14 -84t39 -65.5t60.5 -42.5t78.5 -15t78.5 15t60.5 42.5t39 65.5t14 84q0 45 -13 81t-36 62l76 76q42 -41 65.5 -96.5t23.5 -122.5t-23 -124t-64 -98.5t-97.5 -65t-123.5 -23.5t-123.5 23.5
t-97.5 65t-64 98.5t-23 124q0 72 28 129.5t79 101.5l79 67l-8 13l-84 -18h-76v106h328v-328z" />
    <glyph glyph-name="uni21C4" unicode="&#x21c4;" horiz-adv-x="820" 
d="M282 417l75 -75l-54 -54l-72 -47l4 -14l105 16h420v-116h-420l-105 16l-4 -14l72 -47l54 -54l-75 -75l-232 232zM538 282l-75 75l54 54l72 47l-4 14l-105 -16h-420v116h420l105 -16l4 14l-72 47l-54 54l75 75l232 -232z" />
    <glyph glyph-name="uni21C6" unicode="&#x21c6;" horiz-adv-x="820" 
d="M282 746l75 -75l-54 -54l-72 -47l4 -14l105 16h420v-116h-420l-105 16l-4 -14l72 -47l54 -54l-75 -75l-232 232zM538 -47l-75 75l54 54l72 47l-4 14l-105 -16h-420v116h420l105 -16l4 14l-72 47l-54 54l75 75l232 -232z" />
    <glyph glyph-name="partialdiff" unicode="&#x2202;" horiz-adv-x="528" 
d="M496 254q0 -132 -58.5 -199t-173.5 -67t-173.5 67t-58.5 199q0 125 46.5 187.5t126.5 62.5q54 0 84.5 -24.5t46.5 -71.5h16q-19 84 -90 154t-183 136h200q48 -32 88 -72.5t68.5 -94.5t44.5 -122.5t16 -154.5zM264 99q44 0 66 25t22 80v84q0 55 -22 80t-66 25t-66 -25
t-22 -80v-84q0 -55 22 -80t66 -25z" />
    <glyph glyph-name="Delta" unicode="&#x2206;" horiz-adv-x="618" 
d="M46 116l165 582h196l167 -582v-116h-528v116zM336 457l-21 111h-16l-21 -111l-84 -335h228z" />
    <glyph glyph-name="product" unicode="&#x220f;" horiz-adv-x="655" 
d="M114 -200v773h-95v125h617v-125h-95v-773h-142v773h-142v-773h-143z" />
    <glyph glyph-name="summation" unicode="&#x2211;" horiz-adv-x="508" 
d="M474 -200h-427v131l189 312v12l-189 312v131h427v-125h-273l177 -289v-70l-177 -289h273v-125z" />
    <glyph glyph-name="minus" unicode="&#x2212;" 
d="M55 253v109h430v-109h-430z" />
    <glyph glyph-name="radical" unicode="&#x221a;" 
d="M172 0l-109 416h-57v109h164l70 -286l18 -121h16l18 121l115 459h133l-186 -698h-182z" />
    <glyph glyph-name="infinity" unicode="&#x221e;" horiz-adv-x="718" 
d="M188 89q-168 0 -168 203q0 101 44.5 152t139.5 51q63 0 108 -31t68 -106h16q2 63 37.5 100t96.5 37q168 0 168 -203q0 -101 -44.5 -152t-139.5 -51q-63 0 -108 31t-68 106h-16q-2 -63 -37.5 -100t-96.5 -37zM204 194q39 0 66 22t37 66q-17 51 -42.5 79.5t-60.5 28.5
q-30 0 -46.5 -17.5t-16.5 -59.5v-42q0 -42 16.5 -59.5t46.5 -17.5zM514 194q30 0 46.5 17.5t16.5 59.5v42q0 42 -16.5 59.5t-46.5 17.5q-39 0 -66 -22t-37 -66q17 -51 42.5 -79.5t60.5 -28.5z" />
    <glyph glyph-name="integral" unicode="&#x222b;" horiz-adv-x="405" 
d="M30 -91h103v697q0 64 32.5 99t107.5 35h102v-109h-102v-697q0 -64 -33 -99t-107 -35h-103v109z" />
    <glyph glyph-name="approxequal" unicode="&#x2248;" 
d="M372 328q-33 0 -58.5 9t-54.5 26q-26 14 -49.5 25t-47.5 11q-20 0 -35.5 -7.5t-35.5 -21.5l-45 77q16 26 48.5 44t73.5 18q33 0 58.5 -9.5t54.5 -26.5q26 -14 49.5 -25t47.5 -11q20 0 35.5 7.5t35.5 21.5l45 -78q-16 -26 -48.5 -43t-73.5 -17zM372 102q-33 0 -58.5 9
t-54.5 26q-26 14 -49.5 25t-47.5 11q-20 0 -35.5 -7.5t-35.5 -21.5l-45 77q16 26 48.5 44t73.5 18q33 0 58.5 -9.5t54.5 -26.5q26 -14 49.5 -25t47.5 -11q20 0 35.5 7.5t35.5 21.5l45 -78q-16 -26 -48.5 -43t-73.5 -17z" />
    <glyph glyph-name="notequal" unicode="&#x2260;" 
d="M77 45l52 101h-74v105h129l58 113h-187v105h242l52 101h114l-52 -101h74v-105h-129l-58 -113h187v-105h-242l-52 -101h-114z" />
    <glyph glyph-name="lessequal" unicode="&#x2264;" 
d="M90 0v105h360v-105h-360zM450 481l-216 -101v-16l216 -101v-123l-360 183v98l360 183v-123z" />
    <glyph glyph-name="greaterequal" unicode="&#x2265;" 
d="M90 263l216 101v16l-216 101v123l360 -183v-98l-360 -183v123zM90 105h360v-105h-360v105z" />
    <glyph glyph-name="lozenge" unicode="&#x25ca;" 
d="M213 0l-183 349l183 349h114l183 -349l-183 -349h-114zM278 126l110 223l-110 223h-16l-110 -223l110 -223h16z" />
    <glyph glyph-name="uni2713" unicode="&#x2713;" horiz-adv-x="720" 
d="M423 0h-182l-182 489l130 48l112 -308l24 -111h16l24 111l174 481l130 -48z" />
    <glyph glyph-name="uni274C" unicode="&#x274c;" horiz-adv-x="720" 
d="M571 -12l-211 258l-211 -258l-104 77l232 283l-232 284l102 78l213 -260l213 260l102 -78l-232 -284l232 -283z" />
    <glyph glyph-name="uni2B0E" unicode="&#x2b0e;" horiz-adv-x="820" 
d="M301 303l75 75l54 -54l47 -72l14 4l-16 105v138h-420v106h536v-244l-16 -105l14 -4l47 72l54 54l75 -75l-232 -232z" />
    <glyph glyph-name="uni2B0F" unicode="&#x2b0f;" horiz-adv-x="820" 
d="M765 410l-75 -75l-54 54l-47 72l-14 -4l16 -105v-244h-536v106h420v138l16 105l-14 4l-47 -72l-54 -54l-75 75l232 232z" />
    <glyph glyph-name="uni2B10" unicode="&#x2b10;" horiz-adv-x="820" 
d="M55 303l75 75l54 -54l47 -72l14 4l-16 105v244h536v-106h-420v-138l-16 -105l14 -4l47 72l54 54l75 -75l-232 -232z" />
    <glyph glyph-name="uni2B11" unicode="&#x2b11;" horiz-adv-x="820" 
d="M519 410l-75 -75l-54 54l-47 72l-14 -4l16 -105v-138h420v-106h-536v244l16 105l-14 4l-47 -72l-54 -54l-75 75l232 232z" />
    <glyph glyph-name="uniEBE7" unicode="&#xebe7;" horiz-adv-x="644" 
d="M488 160q-20 0 -34.5 11.5t-19.5 31.5l-38 142l121 -82q27 -19 27 -48q0 -23 -16.5 -39t-39.5 -16zM156 160q-23 0 -39.5 16t-16.5 39q0 29 27 48l121 82l-38 -142q-5 -20 -19.5 -31.5t-34.5 -11.5zM396 252h-148v37h148v-37zM396 178h-148v37h148v-37zM322 104
q-20 0 -37.5 10t-26.5 27h128q-9 -17 -26.5 -27t-37.5 -10zM322 363q20 0 37.5 -10t26.5 -27h-128q9 17 26.5 27t37.5 10zM364 373q-14 0 -23.5 9t-9.5 23t9.5 23t23.5 9t23.5 -9t9.5 -23t-9.5 -23t-23.5 -9zM280 373q-14 0 -23.5 9t-9.5 23t9.5 23t23.5 9t23.5 -9t9.5 -23
t-9.5 -23t-23.5 -9zM174 2v19h116l7 -19h-123zM347 2l7 19h116v-19h-123zM174 39v19h104l6 -19h-110zM360 39l6 19h104v-19h-110zM335 -35l6 19h92v-19h-98zM211 -35v19h92l6 -19h-98zM174 -183v19h93v-19h-93zM377 -183v19h93v-19h-93zM174 -220v19h93v-19h-93zM377 -220
v19h93v-19h-93zM279 -90h86l-6 -19h-74zM377 -109v19h56v-19h-56zM377 -72v19h56v-19h-56zM377 -146v19h56v-19h-56zM211 -109v19h56v-19h-56zM211 -72v19h56v-19h-56zM211 -146v19h56v-19h-56zM291 -127h62l-7 -19h-48zM273 -72l-6 19h48l7 -19h-49zM322 -72l7 19h48
l-6 -19h-49zM304 -164h36l-6 -19h-24zM316 -201h12l-6 -19zM285 586q0 16 10.5 26.5t26.5 10.5t26.5 -10.5t10.5 -26.5t-10.5 -26.5t-26.5 -10.5t-26.5 10.5t-10.5 26.5zM239 586q0 -35 24 -59t59 -24t59 24t24 59t-24 59t-59 24t-59 -24t-24 -59zM470 586
q-18 -45 -58 -73.5t-90 -28.5t-90 28.5t-58 73.5q18 45 58 73.5t90 28.5t90 -28.5t58 -73.5zM322 734q-42 0 -78 -18t-61 -47v28q21 38 57.5 60.5t81.5 22.5t81.5 -22.5t57.5 -60.5v-28q-25 29 -61 47t-78 18z" />
    <glyph glyph-name="uniECE0" unicode="&#xece0;" horiz-adv-x="1177" 
d="M1044 604q-45 0 -86 -15t-74 -42t-56 -63.5t-32 -79.5h209v-110h-209q9 -43 32 -79.5t56 -63.5t74 -42t86 -15q19 0 37 3v-107q-6 -1 -16.5 -1.5t-21.5 -0.5q-74 0 -139 28.5t-114 77.5t-77.5 114.5t-28.5 140.5t28.5 140.5t77.5 114.5t114 77.5t139 28.5q11 0 21.5 -0.5
t16.5 -1.5v-107q-18 3 -37 3zM170 349q0 -53 20 -99t54.5 -81t81 -55t98.5 -20q19 0 37 3v-107q-6 -1 -16.5 -1.5t-21.5 -0.5q-74 0 -139 28.5t-114 77.5t-77.5 114.5t-28.5 140.5t28.5 140.5t77.5 114.5t114 77.5t139 28.5q11 0 21.5 -0.5t16.5 -1.5v-107q-18 3 -37 3
q-52 0 -98.5 -20t-81 -55t-54.5 -81.5t-20 -98.5z" />
    <glyph glyph-name="uniEFCC" unicode="&#xefcc;" horiz-adv-x="1046" 
d="M563 349q0 -28 10 -52t27 -41.5t40.5 -27.5t49.5 -10q34 0 62 16t45 42l63 -45q-29 -41 -72.5 -64.5t-95.5 -23.5q-43 0 -80.5 16t-65.5 44t-44 65.5t-16 80.5t16 80.5t44 65.5t65.5 44t80.5 16q52 0 95.5 -23.5t72.5 -64.5l-63 -45q-17 26 -45 42t-62 16
q-26 0 -49.5 -10t-40.5 -27.5t-27 -41.5t-10 -52zM200 54l-72 -52v696h303l-61 -76h-170v-235h136q7 67 37.5 125.5t78.5 102t109.5 68t131.5 24.5q89 0 164 -40t125 -109l-63 -46q-18 25 -42 47t-53.5 38.5t-63 25.5t-69.5 9q-54 0 -104.5 -20.5t-89.5 -58t-62.5 -89.5
t-23.5 -115t23.5 -115t62.5 -89.5t89.5 -58t104.5 -20.5q36 0 69.5 9t63 25.5t53.5 38t42 47.5l63 -46q-50 -69 -125 -109t-164 -40q-70 0 -131.5 24.5t-109.5 68t-78.5 101.5t-37.5 126h-136v-257z" />
    <glyph glyph-name="dieresisacute" unicode="&#xf6d7;" horiz-adv-x="0" 
d="M11 733l-72 39l87 194l107 -56zM-96 587q-42 0 -57.5 15t-15.5 41v33q0 26 15.5 41t57.5 15t57.5 -15t15.5 -41v-33q0 -26 -15.5 -41t-57.5 -15zM96 587q-42 0 -57.5 15t-15.5 41v33q0 26 15.5 41t57.5 15t57.5 -15t15.5 -41v-33q0 -26 -15.5 -41t-57.5 -15z" />
    <glyph glyph-name="dieresisgrave" unicode="&#xf6d8;" horiz-adv-x="0" 
d="M-132 910l107 56l86 -194l-72 -39zM-96 587q-42 0 -57.5 15t-15.5 41v33q0 26 15.5 41t57.5 15t57.5 -15t15.5 -41v-33q0 -26 -15.5 -41t-57.5 -15zM96 587q-42 0 -57.5 15t-15.5 41v33q0 26 15.5 41t57.5 15t57.5 -15t15.5 -41v-33q0 -26 -15.5 -41t-57.5 -15z" />
    <glyph glyph-name="fl" unicode="&#xfb02;" horiz-adv-x="606" 
d="M86 416h-66v109h66v62q0 78 35 115.5t108 37.5h92v-109h-95v-106h95v-109h-95v-416h-140v416zM526 0q-73 0 -104.5 32.5t-31.5 99.5v608h140v-631h59v-109h-63z" />
    <glyph glyph-name="a.alt01" horiz-adv-x="550" 
d="M349 87h-16q-5 -21 -16 -39t-27 -31.5t-36 -21t-41 -7.5q-92 0 -134 68.5t-42 205.5t42.5 206t133.5 69q21 0 41 -7.5t36 -21t27 -31.5t16 -39h16v87h140v-525h-140v87zM269 102q38 0 59 17.5t21 52.5v181q0 35 -21 52.5t-59 17.5q-39 0 -62.5 -24.5t-23.5 -69.5v-133
q0 -45 23.5 -69.5t62.5 -24.5z" />
    <glyph glyph-name="g.alt01" horiz-adv-x="550" 
d="M489 26q0 -115 -57 -176.5t-177 -61.5q-67 0 -113 20t-75 54l74 89q45 -53 114 -53q52 0 73 29.5t21 85.5v86h-16q-5 -21 -16 -39t-27 -31.5t-36 -21t-41 -7.5q-92 0 -134 67t-42 201t42.5 201.5t133.5 67.5q21 0 41 -7.5t36 -21t27 -31.5t16 -39h16v87h140v-499z
M269 114q38 0 59 17.5t21 52.5v169q0 35 -21 52.5t-59 17.5q-39 0 -62.5 -24.5t-23.5 -69.5v-121q0 -45 23.5 -69.5t62.5 -24.5z" />
    <glyph glyph-name="g.alt02" horiz-adv-x="509" 
d="M503 -41q0 -41 -12 -73t-41.5 -54t-79.5 -33t-126 -11q-65 0 -108 8.5t-69.5 24t-37.5 38.5t-11 52q0 38 23 60.5t67 29.5v21q-38 7 -55 31t-17 58q0 18 7.5 32t20 24t28.5 17t33 11v14q-44 21 -64 59t-20 92q0 83 48 130t157 47q23 0 47 -2.5t45 -9.5h158v-95h-140v-14
q48 0 70.5 -23.5t22.5 -59.5q0 -31 -11.5 -58t-36.5 -47t-63 -31.5t-92 -11.5q-25 0 -46.5 2.5t-41.5 7.5q-16 -14 -16 -45q0 -20 12.5 -30t42.5 -10h141q89 0 127 -39.5t38 -111.5zM246 278q41 0 58.5 19t17.5 56v16q0 37 -17.5 56t-58.5 19t-58.5 -19t-17.5 -56v-16
q0 -37 17.5 -56t58.5 -19zM372 -59q0 24 -16.5 37t-54.5 13h-163q-7 -10 -10.5 -23t-3.5 -27q0 -29 20.5 -44t75.5 -15h56q55 0 75.5 15t20.5 44z" />
    <glyph glyph-name="zero.alt01" 
d="M270 -12q-63 0 -108 20.5t-74.5 64t-43.5 112t-14 164.5t14 164.5t43.5 112t74.5 64t108 20.5t108 -20.5t74.5 -64t43.5 -112t14 -164.5t-14 -164.5t-43.5 -112t-74.5 -64t-108 -20.5zM270 108q25 0 42 7.5t27 24t14.5 43.5t4.5 67v198q0 79 -19 110.5t-69 31.5
t-69 -31.5t-19 -110.5v-198q0 -40 4.5 -67t14.5 -43.5t27 -24t42 -7.5zM270 289q-54 0 -54 47v26q0 47 54 47t54 -47v-26q0 -47 -54 -47z" />
    <glyph glyph-name="zero.alt02" 
d="M270 -12q-63 0 -108 20.5t-74.5 64t-43.5 112t-14 164.5t14 164.5t43.5 112t74.5 64t108 20.5t108 -20.5t74.5 -64t43.5 -112t14 -164.5t-14 -164.5t-43.5 -112t-74.5 -64t-108 -20.5zM188 176q6 -38 25.5 -53t56.5 -15q24 0 40.5 6.5t26.5 22.5t14.5 42.5t4.5 66.5v59
l14 111h-12l-89 -140zM184 393l-14 -111h12l89 140l81 100q-6 38 -25.5 53t-56.5 15q-24 0 -40.5 -6.5t-26.5 -22.5t-14.5 -42.5t-4.5 -66.5v-59z" />
    <glyph glyph-name="aacute.alt01" horiz-adv-x="550" 
d="M349 87h-16q-5 -21 -16 -39t-27 -31.5t-36 -21t-41 -7.5q-92 0 -134 68.5t-42 205.5t42.5 206t133.5 69q21 0 41 -7.5t36 -21t27 -31.5t16 -39h16v87h140v-525h-140v87zM269 102q38 0 59 17.5t21 52.5v181q0 35 -21 52.5t-59 17.5q-39 0 -62.5 -24.5t-23.5 -69.5v-133
q0 -45 23.5 -69.5t62.5 -24.5zM295 579l-82 39l92 198l119 -58z" />
    <glyph glyph-name="abreve.alt01" horiz-adv-x="550" 
d="M349 87h-16q-5 -21 -16 -39t-27 -31.5t-36 -21t-41 -7.5q-92 0 -134 68.5t-42 205.5t42.5 206t133.5 69q21 0 41 -7.5t36 -21t27 -31.5t16 -39h16v87h140v-525h-140v87zM269 102q38 0 59 17.5t21 52.5v181q0 35 -21 52.5t-59 17.5q-39 0 -62.5 -24.5t-23.5 -69.5v-133
q0 -45 23.5 -69.5t62.5 -24.5zM280 579q-33 0 -58 7.5t-45.5 27t-38.5 53t-36 84.5l76 40l20 -43q10 -23 19.5 -37t19 -22t20 -11t23.5 -3q26 0 44.5 14.5t38.5 58.5l20 43l75 -40q-18 -51 -36.5 -84.5t-39.5 -53t-46 -27t-56 -7.5z" />
    <glyph glyph-name="acircumflex.alt01" horiz-adv-x="550" 
d="M349 87h-16q-5 -21 -16 -39t-27 -31.5t-36 -21t-41 -7.5q-92 0 -134 68.5t-42 205.5t42.5 206t133.5 69q21 0 41 -7.5t36 -21t27 -31.5t16 -39h16v87h140v-525h-140v87zM269 102q38 0 59 17.5t21 52.5v181q0 35 -21 52.5t-59 17.5q-39 0 -62.5 -24.5t-23.5 -69.5v-133
q0 -45 23.5 -69.5t62.5 -24.5zM335 796l129 -162l-69 -55l-115 118l-115 -118l-69 55l129 162h110z" />
    <glyph glyph-name="adieresis.alt01" horiz-adv-x="550" 
d="M349 87h-16q-5 -21 -16 -39t-27 -31.5t-36 -21t-41 -7.5q-92 0 -134 68.5t-42 205.5t42.5 206t133.5 69q21 0 41 -7.5t36 -21t27 -31.5t16 -39h16v87h140v-525h-140v87zM269 102q38 0 59 17.5t21 52.5v181q0 35 -21 52.5t-59 17.5q-39 0 -62.5 -24.5t-23.5 -69.5v-133
q0 -45 23.5 -69.5t62.5 -24.5zM184 602q-42 0 -57.5 15.5t-15.5 42.5v29q0 27 15.5 42.5t57.5 15.5t57.5 -15.5t15.5 -42.5v-29q0 -27 -15.5 -42.5t-57.5 -15.5zM376 602q-42 0 -57.5 15.5t-15.5 42.5v29q0 27 15.5 42.5t57.5 15.5t57.5 -15.5t15.5 -42.5v-29
q0 -27 -15.5 -42.5t-57.5 -15.5z" />
    <glyph glyph-name="uni1EA1.alt01" horiz-adv-x="550" 
d="M349 87h-16q-5 -21 -16 -39t-27 -31.5t-36 -21t-41 -7.5q-92 0 -134 68.5t-42 205.5t42.5 206t133.5 69q21 0 41 -7.5t36 -21t27 -31.5t16 -39h16v87h140v-525h-140v87zM269 102q38 0 59 17.5t21 52.5v181q0 35 -21 52.5t-59 17.5q-39 0 -62.5 -24.5t-23.5 -69.5v-133
q0 -45 23.5 -69.5t62.5 -24.5zM280 -199q-42 0 -58.5 16t-16.5 42v29q0 26 16.5 42t58.5 16t58.5 -16t16.5 -42v-29q0 -26 -16.5 -42t-58.5 -16z" />
    <glyph glyph-name="agrave.alt01" horiz-adv-x="550" 
d="M349 87h-16q-5 -21 -16 -39t-27 -31.5t-36 -21t-41 -7.5q-92 0 -134 68.5t-42 205.5t42.5 206t133.5 69q21 0 41 -7.5t36 -21t27 -31.5t16 -39h16v87h140v-525h-140v87zM269 102q38 0 59 17.5t21 52.5v181q0 35 -21 52.5t-59 17.5q-39 0 -62.5 -24.5t-23.5 -69.5v-133
q0 -45 23.5 -69.5t62.5 -24.5zM136 758l119 58l92 -198l-82 -39z" />
    <glyph glyph-name="uni1EA3.alt01" horiz-adv-x="550" 
d="M349 87h-16q-5 -21 -16 -39t-27 -31.5t-36 -21t-41 -7.5q-92 0 -134 68.5t-42 205.5t42.5 206t133.5 69q21 0 41 -7.5t36 -21t27 -31.5t16 -39h16v87h140v-525h-140v87zM269 102q38 0 59 17.5t21 52.5v181q0 35 -21 52.5t-59 17.5q-39 0 -62.5 -24.5t-23.5 -69.5v-133
q0 -45 23.5 -69.5t62.5 -24.5zM168 802h140q51 0 70.5 -19t19.5 -54q0 -14 -2.5 -25t-7.5 -22t-12.5 -23.5t-18.5 -28.5l-42 -61l-74 33l43 100h-116v100z" />
    <glyph glyph-name="amacron.alt01" horiz-adv-x="550" 
d="M349 87h-16q-5 -21 -16 -39t-27 -31.5t-36 -21t-41 -7.5q-92 0 -134 68.5t-42 205.5t42.5 206t133.5 69q21 0 41 -7.5t36 -21t27 -31.5t16 -39h16v87h140v-525h-140v87zM269 102q38 0 59 17.5t21 52.5v181q0 35 -21 52.5t-59 17.5q-39 0 -62.5 -24.5t-23.5 -69.5v-133
q0 -45 23.5 -69.5t62.5 -24.5zM142 727h276v-103h-276v103z" />
    <glyph glyph-name="aogonek.alt01" horiz-adv-x="550" 
d="M514 -162q-19 -22 -48 -36t-62 -14q-112 0 -112 83q0 38 33.5 69t94.5 52l-2 8h-69v87h-16q-5 -21 -16 -39t-27 -31.5t-36 -21t-41 -7.5q-92 0 -134 68.5t-42 205.5t42.5 206t133.5 69q21 0 41 -7.5t36 -21t27 -31.5t16 -39h16v87h140v-525q-59 -35 -81 -60t-22 -48
q0 -14 8 -23.5t26 -9.5q17 0 29 8t20 18zM269 102q38 0 59 17.5t21 52.5v181q0 35 -21 52.5t-59 17.5q-39 0 -62.5 -24.5t-23.5 -69.5v-133q0 -45 23.5 -69.5t62.5 -24.5z" />
    <glyph glyph-name="aring.alt01" horiz-adv-x="550" 
d="M349 87h-16q-5 -21 -16 -39t-27 -31.5t-36 -21t-41 -7.5q-92 0 -134 68.5t-42 205.5t42.5 206t133.5 69q21 0 41 -7.5t36 -21t27 -31.5t16 -39h16v87h140v-525h-140v87zM269 102q38 0 59 17.5t21 52.5v181q0 35 -21 52.5t-59 17.5q-39 0 -62.5 -24.5t-23.5 -69.5v-133
q0 -45 23.5 -69.5t62.5 -24.5zM280 558q-66 0 -104.5 38t-38.5 105t38.5 105t104.5 38t104.5 -38t38.5 -105t-38.5 -105t-104.5 -38zM280 630q23 0 37 10.5t14 33.5v54q0 23 -14 33.5t-37 10.5t-37 -10.5t-14 -33.5v-54q0 -23 14 -33.5t37 -10.5z" />
    <glyph glyph-name="aringacute.alt01" horiz-adv-x="550" 
d="M349 87h-16q-5 -21 -16 -39t-27 -31.5t-36 -21t-41 -7.5q-92 0 -134 68.5t-42 205.5t42.5 206t133.5 69q21 0 41 -7.5t36 -21t27 -31.5t16 -39h16v87h140v-525h-140v87zM269 102q38 0 59 17.5t21 52.5v181q0 35 -21 52.5t-59 17.5q-39 0 -62.5 -24.5t-23.5 -69.5v-133
q0 -45 23.5 -69.5t62.5 -24.5zM262 815l-46 48l129 126l68 -71zM280 564q-66 0 -104.5 30.5t-38.5 89.5t38.5 89.5t104.5 30.5t104.5 -30.5t38.5 -89.5t-38.5 -89.5t-104.5 -30.5zM280 630q23 0 39 11.5t16 31.5v22q0 20 -16 31.5t-39 11.5t-39 -11.5t-16 -31.5v-22
q0 -20 16 -31.5t39 -11.5z" />
    <glyph glyph-name="atilde.alt01" horiz-adv-x="550" 
d="M349 87h-16q-5 -21 -16 -39t-27 -31.5t-36 -21t-41 -7.5q-92 0 -134 68.5t-42 205.5t42.5 206t133.5 69q21 0 41 -7.5t36 -21t27 -31.5t16 -39h16v87h140v-525h-140v87zM269 102q38 0 59 17.5t21 52.5v181q0 35 -21 52.5t-59 17.5q-39 0 -62.5 -24.5t-23.5 -69.5v-133
q0 -45 23.5 -69.5t62.5 -24.5zM352 603q-18 0 -32 4t-42 18q-27 14 -42.5 19t-27.5 5q-17 0 -27 -6t-25 -20l-49 64q17 27 43.5 43.5t57.5 16.5q9 0 16.5 -1t15.5 -3t18 -6.5t24 -11.5q27 -14 42.5 -19t27.5 -5q17 0 27 6t25 20l49 -64q-17 -27 -43.5 -43.5t-57.5 -16.5z
" />
    <glyph glyph-name="uni1EAF.alt01" horiz-adv-x="550" 
d="M349 87h-16q-5 -21 -16 -39t-27 -31.5t-36 -21t-41 -7.5q-92 0 -134 68.5t-42 205.5t42.5 206t133.5 69q21 0 41 -7.5t36 -21t27 -31.5t16 -39h16v87h140v-525h-140v87zM269 102q38 0 59 17.5t21 52.5v181q0 35 -21 52.5t-59 17.5q-39 0 -62.5 -24.5t-23.5 -69.5v-133
q0 -45 23.5 -69.5t62.5 -24.5zM280 572q-32 0 -59 7t-49.5 25t-41.5 48t-36 76l75 40l20 -42q15 -32 37.5 -46t53.5 -14t53 14t37 46l20 42l76 -40q-17 -46 -35.5 -76t-40.5 -48t-49 -25t-61 -7zM300 733l-72 39l87 194l107 -56z" />
    <glyph glyph-name="uni1EB7.alt01" horiz-adv-x="550" 
d="M349 87h-16q-5 -21 -16 -39t-27 -31.5t-36 -21t-41 -7.5q-92 0 -134 68.5t-42 205.5t42.5 206t133.5 69q21 0 41 -7.5t36 -21t27 -31.5t16 -39h16v87h140v-525h-140v87zM269 102q38 0 59 17.5t21 52.5v181q0 35 -21 52.5t-59 17.5q-39 0 -62.5 -24.5t-23.5 -69.5v-133
q0 -45 23.5 -69.5t62.5 -24.5zM280 579q-33 0 -58 7.5t-45.5 27t-38.5 53t-36 84.5l76 40l20 -43q10 -23 19.5 -37t19 -22t20 -11t23.5 -3q26 0 44.5 14.5t38.5 58.5l20 43l75 -40q-18 -51 -36.5 -84.5t-39.5 -53t-46 -27t-56 -7.5zM280 -199q-42 0 -58.5 16t-16.5 42v29
q0 26 16.5 42t58.5 16t58.5 -16t16.5 -42v-29q0 -26 -16.5 -42t-58.5 -16z" />
    <glyph glyph-name="uni1EB1.alt01" horiz-adv-x="550" 
d="M349 87h-16q-5 -21 -16 -39t-27 -31.5t-36 -21t-41 -7.5q-92 0 -134 68.5t-42 205.5t42.5 206t133.5 69q21 0 41 -7.5t36 -21t27 -31.5t16 -39h16v87h140v-525h-140v87zM269 102q38 0 59 17.5t21 52.5v181q0 35 -21 52.5t-59 17.5q-39 0 -62.5 -24.5t-23.5 -69.5v-133
q0 -45 23.5 -69.5t62.5 -24.5zM280 572q-32 0 -59 7t-49.5 25t-41.5 48t-36 76l75 40l20 -42q15 -32 37.5 -46t53.5 -14t53 14t37 46l20 42l76 -40q-17 -46 -35.5 -76t-40.5 -48t-49 -25t-61 -7zM138 910l107 56l87 -194l-72 -39z" />
    <glyph glyph-name="uni1EB3.alt01" horiz-adv-x="550" 
d="M349 87h-16q-5 -21 -16 -39t-27 -31.5t-36 -21t-41 -7.5q-92 0 -134 68.5t-42 205.5t42.5 206t133.5 69q21 0 41 -7.5t36 -21t27 -31.5t16 -39h16v87h140v-525h-140v87zM269 102q38 0 59 17.5t21 52.5v181q0 35 -21 52.5t-59 17.5q-39 0 -62.5 -24.5t-23.5 -69.5v-133
q0 -45 23.5 -69.5t62.5 -24.5zM280 572q-32 0 -59 7t-49.5 25t-41.5 48t-36 76l75 40l20 -42q15 -32 37.5 -46t53.5 -14t53 14t37 46l20 42l76 -40q-17 -46 -35.5 -76t-40.5 -48t-49 -25t-61 -7zM160 952h124q51 0 70.5 -19t19.5 -54q0 -14 -2 -25t-7 -22.5t-13 -23.5
t-19 -28l-35 -50l-56 28l41 104h-123v90z" />
    <glyph glyph-name="uni1EB5.alt01" horiz-adv-x="550" 
d="M349 87h-16q-5 -21 -16 -39t-27 -31.5t-36 -21t-41 -7.5q-92 0 -134 68.5t-42 205.5t42.5 206t133.5 69q21 0 41 -7.5t36 -21t27 -31.5t16 -39h16v87h140v-525h-140v87zM269 102q38 0 59 17.5t21 52.5v181q0 35 -21 52.5t-59 17.5q-39 0 -62.5 -24.5t-23.5 -69.5v-133
q0 -45 23.5 -69.5t62.5 -24.5zM280 572q-32 0 -59 7t-49.5 25t-41.5 48t-36 76l75 40l20 -42q15 -32 37.5 -46t53.5 -14t53 14t37 46l20 42l76 -40q-17 -46 -35.5 -76t-40.5 -48t-49 -25t-61 -7zM352 789q-18 0 -37.5 5t-38.5 16q-20 11 -38 19t-34 8q-13 0 -23 -5t-29 -22
l-45 59q17 26 39.5 44t59.5 18q38 0 76 -21q20 -11 38 -19t34 -8t26 6t24 19l45 -59q-22 -31 -44 -45.5t-53 -14.5z" />
    <glyph glyph-name="uni1EA5.alt01" horiz-adv-x="550" 
d="M349 87h-16q-5 -21 -16 -39t-27 -31.5t-36 -21t-41 -7.5q-92 0 -134 68.5t-42 205.5t42.5 206t133.5 69q21 0 41 -7.5t36 -21t27 -31.5t16 -39h16v87h140v-525h-140v87zM269 102q38 0 59 17.5t21 52.5v181q0 35 -21 52.5t-59 17.5q-39 0 -62.5 -24.5t-23.5 -69.5v-133
q0 -45 23.5 -69.5t62.5 -24.5zM454 733l-72 39l85 194l107 -56zM335 781l134 -154l-64 -57l-124 120l-124 -120l-64 57l134 154h108z" />
    <glyph glyph-name="uni1EAD.alt01" horiz-adv-x="550" 
d="M349 87h-16q-5 -21 -16 -39t-27 -31.5t-36 -21t-41 -7.5q-92 0 -134 68.5t-42 205.5t42.5 206t133.5 69q21 0 41 -7.5t36 -21t27 -31.5t16 -39h16v87h140v-525h-140v87zM269 102q38 0 59 17.5t21 52.5v181q0 35 -21 52.5t-59 17.5q-39 0 -62.5 -24.5t-23.5 -69.5v-133
q0 -45 23.5 -69.5t62.5 -24.5zM335 796l129 -162l-69 -55l-115 118l-115 -118l-69 55l129 162h110zM280 -199q-42 0 -58.5 16t-16.5 42v29q0 26 16.5 42t58.5 16t58.5 -16t16.5 -42v-29q0 -26 -16.5 -42t-58.5 -16z" />
    <glyph glyph-name="uni1EA7.alt01" horiz-adv-x="550" 
d="M349 87h-16q-5 -21 -16 -39t-27 -31.5t-36 -21t-41 -7.5q-92 0 -134 68.5t-42 205.5t42.5 206t133.5 69q21 0 41 -7.5t36 -21t27 -31.5t16 -39h16v87h140v-525h-140v87zM269 102q38 0 59 17.5t21 52.5v181q0 35 -21 52.5t-59 17.5q-39 0 -62.5 -24.5t-23.5 -69.5v-133
q0 -45 23.5 -69.5t62.5 -24.5zM-12 910l107 56l87 -194l-72 -39zM333 781l136 -154l-64 -57l-124 120l-124 -120l-64 57l136 154h104z" />
    <glyph glyph-name="uni1EA9.alt01" horiz-adv-x="550" 
d="M349 87h-16q-5 -21 -16 -39t-27 -31.5t-36 -21t-41 -7.5q-92 0 -134 68.5t-42 205.5t42.5 206t133.5 69q21 0 41 -7.5t36 -21t27 -31.5t16 -39h16v87h140v-525h-140v87zM269 102q38 0 59 17.5t21 52.5v181q0 35 -21 52.5t-59 17.5q-39 0 -62.5 -24.5t-23.5 -69.5v-133
q0 -45 23.5 -69.5t62.5 -24.5zM313 952h124q51 0 70.5 -19t19.5 -54q0 -14 -2 -25t-7 -22.5t-13 -23.5t-19 -28l-35 -50l-56 28l41 104h-123v90zM333 781l136 -154l-64 -57l-124 120l-124 -120l-64 57l136 154h104z" />
    <glyph glyph-name="uni1EAB.alt01" horiz-adv-x="550" 
d="M349 87h-16q-5 -21 -16 -39t-27 -31.5t-36 -21t-41 -7.5q-92 0 -134 68.5t-42 205.5t42.5 206t133.5 69q21 0 41 -7.5t36 -21t27 -31.5t16 -39h16v87h140v-525h-140v87zM269 102q38 0 59 17.5t21 52.5v181q0 35 -21 52.5t-59 17.5q-39 0 -62.5 -24.5t-23.5 -69.5v-133
q0 -45 23.5 -69.5t62.5 -24.5zM205 942q38 0 76 -21q20 -11 38 -19t34 -8t26 6t24 19l45 -59q-22 -31 -44 -45.5t-53 -14.5q-18 0 -37.5 5t-38.5 16q-20 11 -38 19t-34 8q-13 0 -23 -5t-29 -22l-45 59q17 26 39.5 44t59.5 18zM332 768l136 -141l-62 -57l-126 107l-126 -107
l-62 57l136 141h104z" />
    </font>
</defs>
</svg>
