<?xml version="1.0" standalone="no"?>
<!DOCTYPE svg PUBLIC "-//W3C//DTD SVG 1.1//EN" "http://www.w3.org/Graphics/SVG/1.1/DTD/svg11.dtd" >
<svg xmlns="http://www.w3.org/2000/svg" xmlns:xlink="http://www.w3.org/1999/xlink" version="1.1">
<metadata>
Created by FontForge 20170731 at Fri Feb 16 16:57:33 2018
 By Aleksey,,,
Copyright 2018 IBM Corp. All rights reserved.
</metadata>
<defs>
<font id="IBMPlexSansCond-ExtraLightItalic" horiz-adv-x="540" >
  <font-face 
    font-family="IBM Plex Sans Condensed ExtraLight"
    font-weight="200"
    font-style="italic"
    font-stretch="condensed"
    units-per-em="1000"
    panose-1="2 11 3 6 5 2 3 0 2 3"
    ascent="780"
    descent="-220"
    x-height="508"
    cap-height="698"
    bbox="-233 -220 1081 1098"
    underline-thickness="26"
    underline-position="-202"
    slope="-11"
    unicode-range="U+000D-FB02"
  />
<missing-glyph horiz-adv-x="424" 
d="M32 780h360v-780h-360v780zM366 26v728h-308v-728h308z" />
    <glyph glyph-name="fi" unicode="fi" horiz-adv-x="483" 
d="M73 508h85l38 190q5 24 14.5 33t33.5 9h88l-6 -30h-94l-40 -202h243l-96 -478h74l-6 -30h-73q-29 0 -29 23q0 9 3 23l87 432h-209l-125 -639q-5 -22 -15 -30.5t-33 -8.5h-79l6 30h85l127 648h-85zM450 665q-25 0 -25 20q0 6 3 18q7 23 31 23q25 0 25 -20q0 -6 -3 -18
q-7 -23 -31 -23z" />
    <glyph glyph-name=".notdef" horiz-adv-x="424" 
d="M32 780h360v-780h-360v780zM366 26v728h-308v-728h308z" />
    <glyph glyph-name=".null" horiz-adv-x="0" 
 />
    <glyph glyph-name=".null" horiz-adv-x="0" 
 />
    <glyph glyph-name="uni000D" unicode="&#xd;" horiz-adv-x="212" 
 />
    <glyph glyph-name="space" unicode=" " horiz-adv-x="212" 
 />
    <glyph glyph-name="exclam" unicode="!" horiz-adv-x="233" 
d="M92 178l42 255l53 265h36l-53 -265l-60 -255h-18zM67 -7q-15 0 -22 6.5t-7 16.5q0 4 1 10.5t3 11.5q4 11 11.5 18.5t25.5 7.5q15 0 22 -6.5t7 -16.5q0 -4 -1 -10.5t-3 -11.5q-4 -11 -11.5 -18.5t-25.5 -7.5z" />
    <glyph glyph-name="quotedbl" unicode="&#x22;" horiz-adv-x="345" 
d="M131 484l51 256h31l-51 -256h-31zM274 484l51 256h31l-51 -256h-31z" />
    <glyph glyph-name="numbersign" unicode="#" horiz-adv-x="632" 
d="M353 217h-157l-76 -217h-30l76 217h-127l5 27h133l73 210h-129l5 27h134l77 217h30l-77 -217h157l76 217h30l-77 -217h127l-5 -27h-132l-74 -210h130l-6 -27h-133l-77 -217h-30zM363 244l73 210h-156l-74 -210h157z" />
    <glyph glyph-name="dollar" unicode="$" horiz-adv-x="495" 
d="M179 0q-63 6 -103 34.5t-64 79.5l26 19q23 -46 57 -72t91 -31l64 318l-26 8q-121 37 -121 156q0 38 13.5 72t40 59.5t65 40.5t88.5 15h9l16 81h29l-16 -83q55 -6 90.5 -31.5t56.5 -67.5l-27 -19q-21 42 -51.5 62t-75.5 25l-58 -293l20 -6q64 -19 96.5 -56.5t32.5 -103.5
q0 -43 -14 -81t-41.5 -66t-68.5 -44.5t-95 -16.5h-5l-16 -81h-29zM397 207q0 54 -26 83t-80 46l-15 5l-62 -312q47 0 81.5 14t57 38.5t33.5 57t11 68.5zM138 514q0 -49 24 -80t76 -48l18 -6l58 288h-7q-41 0 -72.5 -12t-53 -33t-32.5 -49t-11 -60z" />
    <glyph glyph-name="percent" unicode="%" horiz-adv-x="797" 
d="M118 0l559 698h35l-559 -698h-35zM218 348q48 0 79 35t43 101l9 50q2 14 2.5 24.5t0.5 21.5q0 48 -18.5 77t-60.5 29q-48 0 -79 -35t-43 -101l-9 -50q-2 -14 -2.5 -24.5t-0.5 -21.5q0 -48 18.5 -77t60.5 -29zM215 324q-52 0 -78.5 36t-26.5 94q0 20 2.5 44t7.5 47
q7 33 19.5 63t31.5 52.5t45 36t60 13.5q52 0 78.5 -36t26.5 -94q0 -20 -2.5 -44t-7.5 -47q-7 -33 -19.5 -63t-31.5 -52.5t-45 -36t-60 -13.5zM559 12q48 0 79 35t43 101l9 50q2 14 2.5 24.5t0.5 21.5q0 48 -18.5 77t-60.5 29q-48 0 -79 -35t-43 -101l-9 -50
q-2 -14 -2.5 -24.5t-0.5 -21.5q0 -48 18.5 -77t60.5 -29zM556 -12q-52 0 -78.5 36t-26.5 94q0 20 2.5 44t7.5 47q7 33 19.5 63t31.5 52.5t45 36t60 13.5q52 0 78.5 -36t26.5 -94q0 -20 -2.5 -44t-7.5 -47q-7 -33 -19.5 -63t-31.5 -52.5t-45 -36t-60 -13.5z" />
    <glyph glyph-name="ampersand" unicode="&#x26;" horiz-adv-x="610" 
d="M410 110h-7q-32 -56 -83.5 -89t-121.5 -33q-73 0 -116 38t-43 113q0 67 43.5 125t148.5 111q-31 48 -42 83t-11 64q0 39 12 73t35 59.5t56 40.5t75 15q60 0 94 -32t34 -88q0 -35 -12.5 -62.5t-38.5 -53t-65.5 -51.5t-92.5 -57l139 -206q23 40 40 92t28 103h104l-6 -31
h-75q-13 -51 -31 -100.5t-42 -89.5l92 -134h-39zM350 681q-55 0 -89 -31.5t-44 -82.5q-4 -17 -5 -28t-1 -19q0 -22 9 -53t39 -78q50 28 86 51.5t59.5 46t34.5 46.5t11 54q0 94 -100 94zM206 18q60 0 107.5 31.5t82.5 82.5l-149 221q-44 -23 -74.5 -43.5t-50 -42t-30 -45
t-15.5 -51.5q-3 -17 -3 -35q0 -61 35 -89.5t97 -28.5z" />
    <glyph glyph-name="quotesingle" unicode="'" horiz-adv-x="202" 
d="M131 484l51 256h31l-51 -256h-31z" />
    <glyph glyph-name="parenleft" unicode="(" horiz-adv-x="299" 
d="M88 221q0 85 20.5 165.5t55.5 150.5t80 127t95 96h36q-43 -34 -81 -78t-69.5 -96t-54 -109t-33.5 -116l-10 -53q-5 -26 -6.5 -47t-1.5 -43q0 -105 23.5 -194.5t74.5 -161.5h-32q-45 63 -71 150.5t-26 208.5z" />
    <glyph glyph-name="parenright" unicode=")" horiz-adv-x="299" 
d="M229 401q0 -86 -20.5 -166t-55.5 -150t-80.5 -127t-94.5 -96h-36q43 34 81 78t69.5 96t54 109t33.5 116l10 53q5 26 6.5 47t1.5 43q0 105 -23.5 194.5t-74.5 161.5h32q45 -63 71 -150.5t26 -208.5z" />
    <glyph glyph-name="asterisk" unicode="*" horiz-adv-x="350" 
d="M128 428l-23 19l110 123l-1 4l-123 42l14 28l121 -51l2 2l26 152h31l-32 -153l2 -2l137 52l6 -29l-140 -44l-2 -4l61 -123l-26 -16l-55 128h-4z" />
    <glyph glyph-name="plus" unicode="+" 
d="M220 86l41 205h-197l6 29h197l42 205h32l-41 -205h197l-6 -29h-197l-42 -205h-32z" />
    <glyph glyph-name="comma" unicode="," horiz-adv-x="225" 
d="M73 64q16 0 22.5 -7t6.5 -17t-4 -23q-6 -18 -15.5 -40t-22 -43.5t-28.5 -41.5t-35 -35h-30q39 35 61 71t32 66q-15 0 -21.5 6t-6.5 15q0 5 1 11t3 11q3 11 11 19t26 8z" />
    <glyph glyph-name="hyphen" unicode="-" horiz-adv-x="350" 
d="M75 287l7 35h213l-7 -35h-213z" />
    <glyph glyph-name="period" unicode="." horiz-adv-x="225" 
d="M61 -7q-15 0 -22 6.5t-7 16.5q0 4 1 10.5t3 11.5q4 11 11.5 18.5t25.5 7.5q15 0 22 -6.5t7 -16.5q0 -4 -1 -10.5t-3 -11.5q-4 -11 -11.5 -18.5t-25.5 -7.5z" />
    <glyph glyph-name="slash" unicode="/" horiz-adv-x="294" 
d="M-74 -151l402 891h31l-402 -891h-31z" />
    <glyph glyph-name="zero" unicode="0" 
d="M235 -12q-88 0 -129 57.5t-41 166.5q0 44 6 95.5t16 96.5q13 61 34.5 116.5t52 97.5t72.5 67t96 25q88 0 129 -57.5t41 -166.5q0 -44 -6 -95.5t-16 -96.5q-14 -61 -35 -116.5t-51.5 -97.5t-72.5 -67t-96 -25zM237 20q42 0 76.5 19t61 54t45.5 85.5t31 112.5l17 89
q5 24 7 53t2 52q0 91 -31.5 142t-105.5 51q-42 0 -76.5 -19t-61 -54.5t-45.5 -85.5t-31 -112l-17 -89q-5 -24 -7 -53t-2 -52q0 -91 31.5 -142t105.5 -51z" />
    <glyph glyph-name="one" unicode="1" 
d="M38 0l6 32h189l126 628l-226 -131l-14 26l245 143h38l-133 -666h181l-7 -32h-405z" />
    <glyph glyph-name="two" unicode="2" 
d="M415 0h-390l8 38l286 264q52 48 84.5 94t42.5 91q5 26 7 41.5t2 26.5q0 25 -6.5 47.5t-21.5 39.5t-39 26.5t-58 9.5q-63 0 -103 -32t-66 -103l-30 12q29 78 79 116.5t125 38.5q40 0 69 -11.5t48.5 -32.5t29 -49.5t9.5 -62.5q0 -39 -9.5 -74t-28.5 -68t-47.5 -65.5
t-66.5 -67.5l-267 -247h350z" />
    <glyph glyph-name="three" unicode="3" 
d="M276 381q66 0 109.5 33t56.5 102q4 19 5 27.5t1 18.5q0 56 -33 86t-92 30q-57 0 -94.5 -23t-65.5 -74l-26 18q29 52 74.5 81.5t116.5 29.5q70 0 113 -39t43 -108q0 -41 -12 -74.5t-33 -58.5t-50 -41t-62 -22l-1 -7q49 -7 79.5 -45t30.5 -97q0 -53 -15.5 -95.5t-44 -72.5
t-69 -46t-90.5 -16q-147 0 -185 111l28 17q19 -51 55 -73.5t104 -22.5q74 0 118 38t56 108q4 23 5.5 35t1.5 21q0 57 -31.5 92.5t-97.5 35.5h-80l6 31h79z" />
    <glyph glyph-name="four" unicode="4" 
d="M306 0l31 155h-316l7 33l399 510h53l-102 -513h99l-6 -30h-99l-31 -155h-35zM63 185h280l95 473h-7z" />
    <glyph glyph-name="five" unicode="5" 
d="M518 667h-283l-82 -321l7 -1q29 39 62.5 56t82.5 17q75 0 114.5 -43.5t39.5 -125.5q0 -62 -16.5 -110t-46.5 -82t-72 -51.5t-94 -17.5q-66 0 -113.5 28.5t-66.5 82.5l28 17q19 -52 58.5 -74.5t96.5 -22.5q79 0 124 43.5t59 120.5q5 26 6 41t1 25q0 66 -30 102t-97 36
q-26 0 -46.5 -4.5t-37.5 -13.5t-32.5 -22t-31.5 -30l-32 4l95 377h313z" />
    <glyph glyph-name="six" unicode="6" 
d="M236 -12q-86 0 -126.5 51t-40.5 134q0 26 3 50.5t8 47.5q13 68 44 130t74.5 116.5t96.5 100t112 80.5h51q-66 -41 -119.5 -84.5t-95 -91.5t-72 -100.5t-49.5 -111.5h7q30 62 76.5 86t100.5 24q75 0 117.5 -46.5t42.5 -125.5q0 -19 -2 -37t-5 -34q-9 -42 -28.5 -76.5
t-48 -59.5t-65.5 -39t-81 -14zM237 20q38 0 69.5 12.5t55.5 34.5t39.5 52.5t21.5 66.5q4 23 5.5 36.5t1.5 22.5q0 64 -32.5 103.5t-101.5 39.5q-38 0 -69.5 -12.5t-55 -34.5t-39 -52.5t-21.5 -66.5q-4 -23 -5.5 -36.5t-1.5 -22.5q0 -64 32.5 -103.5t100.5 -39.5z" />
    <glyph glyph-name="seven" unicode="7" 
d="M120 0l390 666h-323l-31 -157h-33l37 189h393l-7 -34l-389 -664h-37z" />
    <glyph glyph-name="eight" unicode="8" 
d="M227 -12q-87 0 -134.5 44.5t-47.5 122.5q0 41 13 76.5t36.5 63t55.5 46t71 24.5l1 7q-41 13 -65.5 47t-24.5 87q0 45 16 82.5t44.5 64.5t67.5 42t86 15q78 0 120 -41t42 -109q0 -37 -11 -69.5t-31 -58t-47.5 -42.5t-60.5 -23l-2 -7q55 -16 80 -52t25 -96q0 -50 -17 -91
t-48 -70.5t-74 -46t-95 -16.5zM229 20q74 0 126 39t64 104q7 41 7 59q0 60 -38 94.5t-111 34.5q-74 0 -126 -39t-64 -104q-7 -41 -7 -59q0 -60 38 -94.5t111 -34.5zM297 382q72 0 115.5 35t54.5 96q4 20 4.5 30t0.5 18q0 55 -32 86t-98 31q-72 0 -115.5 -34.5t-54.5 -96.5
q-4 -19 -5 -29.5t-1 -18.5q0 -54 32.5 -85.5t98.5 -31.5z" />
    <glyph glyph-name="nine" unicode="9" 
d="M264 278q-75 0 -117.5 46.5t-42.5 125.5q0 19 2 37t5 34q9 42 28.5 76.5t48 59.5t65.5 39t81 14q85 0 126 -51t41 -134q0 -26 -3 -50.5t-8 -47.5q-14 -68 -44.5 -130t-74 -116.5t-97 -100t-111.5 -80.5h-51q66 41 119.5 84.5t95 91.5t71.5 100.5t50 111.5h-7
q-30 -62 -76.5 -86t-100.5 -24zM274 310q38 0 69.5 12.5t55 34.5t39 52.5t21.5 66.5q4 23 5.5 36.5t1.5 22.5q0 64 -32.5 103.5t-100.5 39.5q-38 0 -69.5 -12.5t-55.5 -34.5t-39.5 -52.5t-21.5 -66.5q-4 -23 -5.5 -36.5t-1.5 -22.5q0 -64 32.5 -103.5t101.5 -39.5z" />
    <glyph glyph-name="colon" unicode=":" horiz-adv-x="243" 
d="M70 -7q-15 0 -22 6.5t-7 16.5q0 4 1 10.5t3 11.5q4 11 11.5 18.5t25.5 7.5q15 0 22 -6.5t7 -16.5q0 -4 -1 -10.5t-3 -11.5q-4 -11 -11.5 -18.5t-25.5 -7.5zM158 428q-15 0 -22 6.5t-7 16.5q0 4 1 10.5t3 11.5q4 11 11.5 18.5t25.5 7.5q15 0 22 -6.5t7 -16.5
q0 -4 -1 -10.5t-3 -11.5q-4 -11 -11.5 -18.5t-25.5 -7.5z" />
    <glyph glyph-name="semicolon" unicode=";" horiz-adv-x="243" 
d="M82 64q16 0 22.5 -7t6.5 -17t-4 -23q-6 -18 -15.5 -40t-22 -43.5t-28.5 -41.5t-35 -35h-30q39 35 61 71t32 66q-15 0 -21.5 6t-6.5 15q0 5 1 11t3 11q3 11 11 19t26 8zM158 428q-15 0 -22 6.5t-7 16.5q0 4 1 10.5t3 11.5q4 11 11.5 18.5t25.5 7.5q15 0 22 -6.5t7 -16.5
q0 -4 -1 -10.5t-3 -11.5q-4 -11 -11.5 -18.5t-25.5 -7.5z" />
    <glyph glyph-name="less" unicode="&#x3c;" 
d="M90 284l6 30l434 256l-8 -40l-393 -231l-1 -5l299 -234l-6 -34z" />
    <glyph glyph-name="equal" unicode="=" 
d="M76 382l6 30h425l-6 -30h-425zM40 199l6 30h425l-6 -30h-425z" />
    <glyph glyph-name="greater" unicode="&#x3e;" 
d="M35 66l393 230l1 6l-300 234l7 34l331 -258l-6 -30l-434 -256z" />
    <glyph glyph-name="question" unicode="?" horiz-adv-x="412" 
d="M154 184l34 170q180 15 201 154q2 11 3.5 26.5t1.5 23.5q0 57 -29.5 88.5t-89.5 31.5q-63 0 -100.5 -35t-61.5 -97l-30 11q27 70 73.5 111.5t121.5 41.5q72 0 112 -41t40 -111q0 -97 -54 -157t-160 -73l-29 -144h-33zM135 -7q-15 0 -22 6.5t-7 16.5q0 4 1 10.5t3 11.5
q4 11 11.5 18.5t25.5 7.5q15 0 22 -6.5t7 -16.5q0 -4 -1 -10.5t-3 -11.5q-4 -11 -11.5 -18.5t-25.5 -7.5z" />
    <glyph glyph-name="at" unicode="@" horiz-adv-x="796" 
d="M335 -120q-67 0 -118.5 21.5t-87 62t-53.5 98.5t-18 132q0 26 2.5 57t9.5 66q18 89 52.5 161.5t85.5 124t117.5 79.5t149.5 28q137 0 209 -78t72 -224q0 -20 -3 -44t-8 -51q-9 -51 -24.5 -95.5t-38 -78t-52.5 -52.5t-69 -19q-33 0 -52.5 18.5t-19.5 54.5v12h-7
q-18 -36 -49 -60t-77 -24q-59 0 -91 37.5t-32 104.5q0 17 2 38.5t6 47.5q19 108 69.5 160t123.5 52q42 0 68 -24.5t32 -59.5h7l14 72h31l-63 -318q-2 -11 -3.5 -19.5t-1.5 -16.5q0 -22 11 -35t37 -13q51 0 88.5 52t54.5 143l9 48q4 20 6 35t2 35q0 131 -63 203.5t-193 72.5
q-73 0 -132.5 -25.5t-105.5 -71t-77 -108.5t-46 -138l-11 -54q-10 -49 -10 -94q0 -66 16.5 -119t48 -90.5t78 -57.5t106.5 -20h199l-5 -26h-196zM366 97q48 0 86.5 38.5t51.5 104.5l24 122q5 25 0 47t-17.5 37.5t-32 24.5t-44.5 9q-60 0 -100 -42.5t-54 -119.5l-10 -54
q-3 -16 -4 -29t-1 -24q0 -54 25 -84t76 -30z" />
    <glyph glyph-name="A" unicode="A" horiz-adv-x="543" 
d="M434 0l-32 228h-273l-111 -228h-38l344 698h48l97 -698h-35zM359 548l-15 115h-5l-55 -115l-140 -290h255z" />
    <glyph glyph-name="B" unicode="B" horiz-adv-x="554" 
d="M182 698h208q64 0 99 -35t35 -103q0 -32 -7.5 -63t-24 -57.5t-42 -45t-60.5 -25.5l-1 -7q48 -11 73 -45.5t25 -88.5q0 -52 -14 -94t-40 -72t-63 -46t-83 -16h-245zM289 32q65 0 103.5 35.5t49.5 95.5q5 28 7 44t2 24q0 25 -6 46.5t-19.5 38t-34 26t-48.5 9.5h-195
l-64 -319h205zM335 382q61 0 98 30.5t48 88.5q5 25 6 38.5t1 21.5q0 48 -23.5 76.5t-79.5 28.5h-174l-57 -284h181z" />
    <glyph glyph-name="C" unicode="C" 
d="M260 -12q-99 0 -151 63.5t-52 175.5q0 39 4.5 81.5t12.5 80.5q13 66 37.5 124.5t60.5 102t84 69t110 25.5q76 0 120 -39.5t58 -105.5l-32 -11q-13 57 -47 90.5t-102 33.5q-94 0 -158 -72.5t-89 -203.5l-14 -73q-5 -29 -7 -55t-2 -46q0 -94 41.5 -151t127.5 -57
q65 0 107.5 35t75.5 105l30 -16q-42 -82 -92.5 -119t-122.5 -37z" />
    <glyph glyph-name="D" unicode="D" horiz-adv-x="585" 
d="M182 698h160q106 0 161.5 -62.5t55.5 -167.5q0 -38 -5 -78t-12 -76q-13 -66 -37.5 -123t-61.5 -99.5t-87 -67t-113 -24.5h-201zM244 32q55 0 98 21t74.5 57t52.5 84t31 101l14 73q5 29 7 54.5t2 44.5q0 93 -46 146t-139 53h-127l-127 -634h160z" />
    <glyph glyph-name="E" unicode="E" horiz-adv-x="507" 
d="M42 0l140 698h350l-6 -32h-315l-59 -296h296l-6 -32h-296l-62 -306h316l-6 -32h-352z" />
    <glyph glyph-name="F" unicode="F" horiz-adv-x="483" 
d="M42 0l140 698h339l-6 -32h-304l-59 -296h288l-6 -32h-288l-68 -338h-36z" />
    <glyph glyph-name="G" unicode="G" horiz-adv-x="598" 
d="M459 111h-7q-30 -63 -79 -93t-115 -30q-96 0 -148.5 64t-52.5 174q0 40 4.5 82.5t12.5 80.5q13 66 37.5 124t61 102t85.5 69.5t112 25.5q86 0 132 -39t62 -106l-32 -11q-14 58 -52 91t-114 33q-94 0 -159 -72t-91 -204l-14 -73q-5 -29 -7 -55t-2 -46q0 -93 42.5 -150.5
t127.5 -57.5q36 0 70 11.5t62.5 34.5t50 58t30.5 82l20 100h-150l6 32h186l-67 -338h-34z" />
    <glyph glyph-name="H" unicode="H" horiz-adv-x="617" 
d="M505 338h-359l-68 -338h-36l140 698h36l-66 -328h359l66 328h36l-140 -698h-36z" />
    <glyph glyph-name="I" unicode="I" horiz-adv-x="337" 
d="M7 0l6 31h93l127 636h-93l6 31h222l-6 -31h-93l-127 -636h93l-7 -31h-221z" />
    <glyph glyph-name="J" unicode="J" horiz-adv-x="423" 
d="M423 698l-104 -524q-19 -94 -61 -140t-121 -46q-66 0 -105.5 38t-42.5 99l32 7q4 -54 34.5 -83t82.5 -29q33 0 56.5 10t41 29.5t29 49.5t19.5 71l97 486h-218l6 32h254z" />
    <glyph glyph-name="K" unicode="K" horiz-adv-x="521" 
d="M265 378l-139 -142l-48 -236h-36l140 698h36l-50 -251l-33 -162h4l140 145l264 268h46l-296 -298l164 -400h-38z" />
    <glyph glyph-name="L" unicode="L" horiz-adv-x="428" 
d="M42 0l140 698h36l-134 -666h282l-6 -32h-318z" />
    <glyph glyph-name="M" unicode="M" horiz-adv-x="707" 
d="M636 542l26 117h-5l-77 -113l-233 -327l-104 329l-34 111h-5l-18 -117l-109 -542h-35l140 698h47l93 -299l34 -118h4l80 118l211 299h52l-140 -698h-35z" />
    <glyph glyph-name="N" unicode="N" horiz-adv-x="616" 
d="M246 540l-36 121h-6l-20 -127l-107 -534h-35l140 698h47l179 -540l36 -121h6l20 127l107 534h35l-140 -698h-47z" />
    <glyph glyph-name="O" unicode="O" horiz-adv-x="599" 
d="M263 -12q-100 0 -153 64t-53 175q0 39 4.5 81.5t12.5 80.5q13 66 37.5 124t61 102t85 69.5t110.5 25.5q100 0 153 -64t53 -175q0 -39 -4.5 -81.5t-12.5 -80.5q-13 -66 -37.5 -124t-61 -102t-85 -69.5t-110.5 -25.5zM265 20q94 0 159.5 72.5t90.5 203.5l14 73q5 29 7 55
t2 46q0 94 -42 151t-130 57q-94 0 -159.5 -72.5t-90.5 -203.5l-14 -73q-5 -29 -7 -55t-2 -46q0 -94 42 -151t130 -57z" />
    <glyph glyph-name="P" unicode="P" horiz-adv-x="530" 
d="M42 0l140 698h216q75 0 112 -41.5t37 -105.5q0 -54 -14.5 -97t-41.5 -73.5t-64.5 -47t-83.5 -16.5h-202l-63 -317h-36zM148 349h200q65 0 103.5 35.5t49.5 92.5q6 33 8 49t2 26q0 24 -6.5 44.5t-20.5 36t-36.5 24.5t-53.5 9h-183z" />
    <glyph glyph-name="Q" unicode="Q" horiz-adv-x="599" 
d="M332 -150h-92q-28 0 -28 24q0 5 1 12.5t3 15.5l18 88q-86 9 -131.5 71.5t-45.5 165.5q0 39 4.5 81.5t12.5 80.5q13 66 37.5 124t61 102t85 69.5t110.5 25.5q100 0 153 -64t53 -175q0 -39 -4.5 -81.5t-12.5 -80.5q-13 -65 -37 -123t-60 -101.5t-84 -69.5t-109 -27
l-21 -108h92zM265 20q94 0 159.5 72.5t90.5 203.5l14 73q5 29 7 55t2 46q0 94 -42 151t-130 57q-94 0 -159.5 -72.5t-90.5 -203.5l-14 -73q-5 -29 -7 -55t-2 -46q0 -94 42 -151t130 -57z" />
    <glyph glyph-name="R" unicode="R" horiz-adv-x="570" 
d="M78 0h-36l140 698h220q70 0 107 -42t37 -108q0 -52 -14 -94t-39 -71.5t-61 -46t-79 -18.5l105 -318h-37l-104 317h-176zM350 348q62 0 100.5 36t49.5 93q6 33 8 49t2 26q0 47 -28 80.5t-84 33.5h-187l-64 -318h203z" />
    <glyph glyph-name="S" unicode="S" horiz-adv-x="495" 
d="M212 -12q-77 0 -125 30t-75 84l28 20q25 -50 65 -76t108 -26q48 0 82.5 15t57.5 40.5t34 59t11 71.5q0 52 -26 81t-79 46l-67 22q-122 38 -122 158q0 40 14 76t40.5 63t65 42.5t88.5 15.5q73 0 117 -26.5t68 -74.5l-27 -19q-23 47 -62 67.5t-100 20.5q-41 0 -72.5 -12.5
t-52.5 -34.5t-32 -52t-11 -64q0 -97 99 -130l65 -21q63 -21 96.5 -56.5t33.5 -100.5q0 -45 -14 -85t-42 -70t-69.5 -47t-96.5 -17z" />
    <glyph glyph-name="T" unicode="T" horiz-adv-x="497" 
d="M349 666l-133 -666h-36l133 666h-215l7 32h465l-6 -32h-215z" />
    <glyph glyph-name="U" unicode="U" horiz-adv-x="582" 
d="M210 698l-88 -440q-8 -39 -11 -63.5t-3 -44.5q0 -63 35.5 -96.5t108.5 -33.5q45 0 78.5 11.5t58.5 39.5t42 74t31 114l87 439h36l-88 -442q-15 -78 -36 -129.5t-50 -82.5t-68 -43.5t-91 -12.5q-85 0 -132.5 39t-47.5 121q0 21 4 51t12 69l86 430h36z" />
    <glyph glyph-name="V" unicode="V" horiz-adv-x="516" 
d="M183 0l-71 698h34l48 -464l17 -203h6l96 203l232 464h37l-350 -698h-49z" />
    <glyph glyph-name="W" unicode="W" horiz-adv-x="781" 
d="M132 0l-19 698h35l10 -444l3 -223h6l92 223l191 444h51l18 -444l5 -223h6l88 219l191 448h38l-302 -698h-49l-20 475l-3 189h-6l-79 -191l-205 -473h-51z" />
    <glyph glyph-name="X" unicode="X" horiz-adv-x="513" 
d="M432 0h-37l-125 324h-7l-250 -324h-41l279 357l-134 341h38l121 -313h7l241 313h42l-272 -346z" />
    <glyph glyph-name="Y" unicode="Y" horiz-adv-x="496" 
d="M179 0l58 288l-130 410h36l116 -368h6l264 368h40l-296 -410l-58 -288h-36z" />
    <glyph glyph-name="Z" unicode="Z" horiz-adv-x="496" 
d="M413 0h-436l7 34l502 632h-361l6 32h403l-7 -34l-502 -632h395z" />
    <glyph glyph-name="bracketleft" unicode="[" horiz-adv-x="279" 
d="M17 -138l179 898h121l-6 -28h-90l-168 -842h90l-5 -28h-121z" />
    <glyph glyph-name="backslash" unicode="\" horiz-adv-x="285" 
d="M171 -151l-48 891h28l48 -891h-28z" />
    <glyph glyph-name="bracketright" unicode="]" horiz-adv-x="279" 
d="M284 760l-179 -898h-121l6 28h90l168 842h-90l5 28h121z" />
    <glyph glyph-name="asciicircum" unicode="^" 
d="M464 316l-112 348h-4l-252 -348l-26 16l266 366h36l120 -370z" />
    <glyph glyph-name="underscore" unicode="_" horiz-adv-x="500" 
d="M-55 -146l6 31h452l-6 -31h-452z" />
    <glyph glyph-name="grave" unicode="`" 
d="M217 742l31 15l65 -160l-22 -10z" />
    <glyph glyph-name="a" unicode="a" horiz-adv-x="517" 
d="M369 0q-29 0 -29 23q0 9 3 23l13 65h-7q-23 -57 -60.5 -90t-91.5 -33q-36 0 -64 13t-46.5 37t-28 57t-9.5 73q0 30 3.5 60.5t9.5 59.5q10 51 29 93.5t46.5 73.5t63.5 48t80 17q54 0 86.5 -27.5t42.5 -74.5h7l18 90h34l-95 -478h74l-6 -30h-73zM204 18q28 0 50 10t45 33
q25 25 46.5 64.5t30.5 85.5l27 137q4 23 -1 48t-20.5 46t-40.5 34.5t-60 13.5q-77 0 -120.5 -53t-61.5 -147l-11 -56q-3 -16 -4 -31.5t-1 -34.5q0 -33 7 -60.5t22 -47.5t37.5 -31t54.5 -11z" />
    <glyph glyph-name="b" unicode="b" horiz-adv-x="507" 
d="M186 740h34l-69 -343h7q23 57 60.5 90t91.5 33q36 0 64 -13t46.5 -37t28 -57t9.5 -73q0 -30 -3.5 -60.5t-9.5 -59.5q-10 -51 -29 -93.5t-46.5 -73.5t-63.5 -48t-80 -17q-54 0 -86.5 27.5t-42.5 74.5h-7l-18 -90h-34zM226 18q77 0 120.5 53t61.5 147l11 56q3 16 4 31.5
t1 34.5q0 33 -7 60.5t-22 47.5t-38 31t-54 11q-28 0 -50 -10t-45 -33q-25 -25 -46.5 -64.5t-30.5 -85.5l-27 -137q-5 -23 0.5 -48t21 -46t40.5 -34.5t60 -13.5z" />
    <glyph glyph-name="c" unicode="c" horiz-adv-x="434" 
d="M206 -12q-40 0 -69.5 14t-49 38.5t-29 58.5t-9.5 75q0 29 4 58.5t9 56.5q10 51 29 93t46 73t62.5 48t77.5 17q58 0 93 -32t45 -84l-29 -10q-20 96 -112 96q-66 0 -112 -52.5t-63 -144.5l-11 -61q-2 -14 -3.5 -30.5t-1.5 -27.5q0 -34 7.5 -62.5t22.5 -49.5t38.5 -32.5
t56.5 -11.5q51 0 85 30t61 84l27 -14q-33 -61 -73 -95.5t-102 -34.5z" />
    <glyph glyph-name="d" unicode="d" horiz-adv-x="519" 
d="M368 0q-28 0 -28 23q0 9 3 23l13 65h-7q-23 -57 -60.5 -90t-91.5 -33q-36 0 -64 13t-46.5 37t-28 57t-9.5 73q0 30 3.5 60.5t9.5 59.5q10 51 29 93.5t46.5 73.5t63.5 48t80 17q54 0 86.5 -27.5t42.5 -74.5h7l65 322h34l-143 -710h74l-6 -30h-73zM204 18q28 0 50 10t45 33
q25 25 46.5 64.5t30.5 85.5l27 137q4 23 -1 48t-20.5 46t-40.5 34.5t-60 13.5q-77 0 -120.5 -53t-61.5 -147l-11 -56q-3 -16 -4 -31.5t-1 -34.5q0 -33 7 -60.5t22 -47.5t37.5 -31t54.5 -11z" />
    <glyph glyph-name="e" unicode="e" horiz-adv-x="458" 
d="M214 -12q-165 0 -165 194q0 26 3 53.5t8 52.5q10 52 30.5 95t50 73.5t66 47t80.5 16.5q63 0 101.5 -32t38.5 -92q0 -31 -13.5 -60t-50.5 -52t-103.5 -37.5t-172.5 -16.5q-2 -13 -3 -25.5t-1 -20.5q0 -86 32 -126t100 -40q57 0 94.5 31t66.5 85l24 -16q-35 -67 -80 -98.5
t-106 -31.5zM284 491q-39 0 -70 -15t-54.5 -42.5t-39.5 -65.5t-25 -84l-5 -27q93 2 152 13t92.5 29t46 42.5t12.5 52.5q0 46 -27.5 71.5t-81.5 25.5z" />
    <glyph glyph-name="f" unicode="f" horiz-adv-x="266" 
d="M61 -161q-5 -22 -15 -30.5t-33 -8.5h-79l6 30h85l127 648h-85l6 30h85l38 190q5 24 14.5 33t33.5 9h88l-6 -30h-94l-40 -202h94l-6 -30h-94z" />
    <glyph glyph-name="g" unicode="g" horiz-adv-x="445" 
d="M394 -48q0 -79 -59.5 -121.5t-175.5 -42.5q-85 0 -129.5 28t-44.5 88q0 45 29 79t81 45l1 8q-45 16 -45 61q0 37 27 57.5t65 31.5l1 8q-32 16 -48 49.5t-16 72.5q0 47 13 84.5t36.5 64t56.5 41t73 14.5q61 0 96 -33l9 49q6 30 37 30h81l-7 -30h-87l-13 -69q12 -17 17 -40
t5 -49q0 -45 -12.5 -82t-36 -63t-57.5 -40.5t-76 -14.5q-12 0 -22 1.5t-21 3.5q-48 -13 -69 -32.5t-21 -47.5q0 -19 12 -32t47 -13h120q74 0 103.5 -27.5t29.5 -78.5zM360 -52q0 40 -21.5 59.5t-82.5 19.5h-133q-45 -14 -74.5 -42.5t-29.5 -73.5q0 -52 35.5 -73t90.5 -21h36
q82 0 130.5 32.5t48.5 98.5zM220 206q60 0 93 33t43 87q5 24 6.5 37.5t1.5 21.5q0 48 -26 77.5t-81 29.5q-60 0 -93 -33t-43 -87q-5 -24 -6.5 -37.5t-1.5 -21.5q0 -48 26 -77.5t81 -29.5z" />
    <glyph glyph-name="h" unicode="h" horiz-adv-x="499" 
d="M186 740h34l-67 -336h7q25 58 63 87t93 29q57 0 86 -32.5t29 -91.5q0 -17 -2 -36t-6 -39l-58 -291h74l-6 -30h-73q-29 0 -29 23q0 9 3 23l55 274q4 20 6 40t2 32q0 98 -92 98q-32 0 -61.5 -14.5t-52.5 -44.5q-18 -23 -33.5 -54.5t-25.5 -79.5l-60 -297h-34z" />
    <glyph glyph-name="i" unicode="i" horiz-adv-x="222" 
d="M189 665q-25 0 -25 20q0 6 3 18q7 23 31 23q25 0 25 -20q0 -6 -3 -18q-7 -23 -31 -23zM73 0q-29 0 -29 23q0 9 3 23l93 462h34l-96 -478h74l-6 -30h-73z" />
    <glyph glyph-name="j" unicode="j" horiz-adv-x="217" 
d="M140 508h34l-133 -669q-5 -21 -14 -30t-32 -9h-70l6 30h74zM191 665q-25 0 -25 20q0 6 3 18q7 23 31 23q25 0 25 -20q0 -6 -3 -18q-7 -23 -31 -23z" />
    <glyph glyph-name="k" unicode="k" horiz-adv-x="444" 
d="M186 740h34l-79 -396l-24 -114h4l99 96l189 182h42l-220 -213l112 -265h53l-6 -30h-45q-14 0 -22 6t-14 20l-104 250l-95 -88l-38 -188h-34z" />
    <glyph glyph-name="l" unicode="l" horiz-adv-x="223" 
d="M73 0q-29 0 -29 23q0 9 3 23l139 694h34l-142 -710h74l-6 -30h-73z" />
    <glyph glyph-name="m" unicode="m" horiz-adv-x="760" 
d="M38 0l102 508h34l-21 -104h7q23 55 59.5 85.5t89.5 30.5q52 0 79.5 -32.5t28.5 -88.5h7q23 57 63 89t96 32q54 0 81.5 -33t27.5 -93q0 -17 -2 -36t-5 -37l-58 -291h74l-6 -30h-72q-14 0 -22 6t-8 17q0 9 3 23l55 274q4 19 5.5 39t1.5 31q0 100 -86 100q-29 0 -57 -13.5
t-51 -43.5q-18 -23 -32 -49.5t-22 -67.5l-64 -316h-34l64 320q4 17 6 35t2 29q0 106 -86 106q-29 0 -56 -14t-50 -43q-17 -23 -33.5 -55t-24.5 -71l-62 -307h-34z" />
    <glyph glyph-name="n" unicode="n" horiz-adv-x="498" 
d="M38 0l102 508h34l-21 -104h7q25 58 63 87t93 29q57 0 86 -32.5t29 -91.5q0 -17 -2 -36t-6 -39l-58 -291h74l-6 -30h-73q-29 0 -29 23q0 9 3 23l55 274q4 20 6 40t2 32q0 98 -92 98q-32 0 -61.5 -14.5t-52.5 -44.5q-18 -23 -33.5 -54.5t-25.5 -79.5l-60 -297h-34z" />
    <glyph glyph-name="o" unicode="o" horiz-adv-x="487" 
d="M205 -12q-75 0 -115.5 48t-40.5 131q0 30 3.5 61t9.5 60q10 51 29 93.5t47 73.5t64 48t80 17q75 0 115.5 -48t40.5 -131q0 -30 -3.5 -61t-9.5 -60q-10 -51 -29 -93.5t-47 -73.5t-64 -48t-80 -17zM208 18q75 0 119 53.5t61 146.5l11 58q3 17 4 32.5t1 32.5
q0 72 -30.5 110.5t-94.5 38.5q-75 0 -119 -53.5t-61 -146.5l-11 -58q-3 -17 -4 -32.5t-1 -32.5q0 -72 30.5 -110.5t94.5 -38.5z" />
    <glyph glyph-name="p" unicode="p" horiz-adv-x="508" 
d="M141 508h33l-22 -111h7q23 57 60.5 90t91.5 33q36 0 64 -13t46.5 -37t28 -57t9.5 -73q0 -30 -3.5 -60.5t-9.5 -59.5q-10 -51 -29 -93.5t-46.5 -73.5t-63.5 -48t-80 -17q-54 0 -86.5 27.5t-42.5 74.5h-7l-58 -290h-34zM227 18q77 0 120.5 53t61.5 147l11 56q3 16 4 31.5
t1 34.5q0 33 -7 60.5t-22 47.5t-38 31t-54 11q-28 0 -50 -10t-45 -33q-25 -25 -46.5 -64.5t-30.5 -85.5l-27 -137q-5 -23 0.5 -48t21 -46t40.5 -34.5t60 -13.5z" />
    <glyph glyph-name="q" unicode="q" horiz-adv-x="509" 
d="M356 111h-7q-23 -57 -60.5 -90t-91.5 -33q-36 0 -64 13t-46.5 37t-28 57t-9.5 73q0 30 3.5 60.5t9.5 59.5q10 51 29 93.5t46.5 73.5t63.5 48t80 17q54 0 86.5 -27.5t42.5 -74.5h7l18 90h34l-142 -708h-34zM204 18q28 0 50 10t45 33q25 25 46.5 64.5t30.5 85.5l27 137
q4 23 -1 48t-20.5 46t-40.5 34.5t-60 13.5q-77 0 -120.5 -53t-61.5 -147l-11 -56q-3 -16 -4 -31.5t-1 -34.5q0 -33 7 -60.5t22 -47.5t37.5 -31t54.5 -11z" />
    <glyph glyph-name="r" unicode="r" horiz-adv-x="314" 
d="M38 0l102 508h34l-23 -111h7q22 51 56.5 81t93.5 30h28l-7 -32h-30q-33 0 -60.5 -14.5t-48.5 -39t-36 -57t-22 -68.5l-60 -297h-34z" />
    <glyph glyph-name="s" unicode="s" horiz-adv-x="411" 
d="M181 -12q-60 0 -101.5 23.5t-71.5 71.5l25 19q29 -44 63 -64.5t85 -20.5q55 0 90.5 30.5t35.5 88.5q0 40 -20 63.5t-62 37.5l-44 14q-51 16 -79 44.5t-28 83.5q0 33 12 59t33 44.5t49.5 28t61.5 9.5q57 0 91 -21t60 -55l-25 -21q-20 29 -48.5 48.5t-79.5 19.5
q-54 0 -87 -29.5t-33 -80.5q0 -38 17 -61.5t64 -38.5l44 -14q49 -16 78.5 -44.5t29.5 -84.5q0 -37 -12.5 -65t-34.5 -47t-51 -28.5t-62 -9.5z" />
    <glyph glyph-name="t" unicode="t" horiz-adv-x="278" 
d="M89 0q-29 0 -29 24q0 8 3 25l85 429h-80l6 30h57q16 0 21.5 7t8.5 23l23 114h34l-29 -144h106l-6 -30h-107l-89 -448h99l-6 -30h-97z" />
    <glyph glyph-name="u" unicode="u" horiz-adv-x="500" 
d="M165 508l-64 -320q-4 -20 -6 -40t-2 -32q0 -98 92 -98q32 0 61.5 14.5t52.5 44.5q18 23 33.5 54.5t25.5 79.5l60 297h34l-96 -478h74l-6 -30h-73q-29 0 -29 23q0 9 3 23l12 58h-7q-25 -58 -63 -87t-93 -29q-57 0 -86 32.5t-29 91.5q0 17 2 36t6 39l64 321h34z" />
    <glyph glyph-name="v" unicode="v" horiz-adv-x="420" 
d="M135 0l-69 508h33l35 -265l25 -213h6l105 213l137 265h36l-264 -508h-44z" />
    <glyph glyph-name="w" unicode="w" horiz-adv-x="652" 
d="M72 508h32l18 -306l7 -172h6l74 172l139 306h46l18 -306l7 -172h6l75 172l138 306h34l-232 -508h-48l-13 254l-10 223h-5l-99 -224l-115 -253h-48z" />
    <glyph glyph-name="x" unicode="x" horiz-adv-x="434" 
d="M-15 0l208 260l-110 248h35l99 -223h7l180 223h40l-208 -255l113 -253h-35l-102 229h-7l-181 -229h-39z" />
    <glyph glyph-name="y" unicode="y" horiz-adv-x="423" 
d="M410 508h36l-353 -679q-8 -17 -17.5 -23t-26.5 -6h-72l6 30h76l81 157l-71 521h34l34 -265l25 -213h6l106 213z" />
    <glyph glyph-name="z" unicode="z" horiz-adv-x="395" 
d="M-6 0l5 29l355 449h-268l6 30h307l-6 -29l-354 -449h280l-6 -30h-319z" />
    <glyph glyph-name="braceleft" unicode="{" horiz-adv-x="290" 
d="M64 -138q-28 0 -28 24q0 3 1 8.5t3 17.5l58 288q3 16 3 28q0 32 -18 44t-54 12l11 54q42 0 67.5 17t34.5 64l61 307q7 34 36 34h91l-6 -27h-90l-62 -313q-11 -51 -37.5 -75.5t-71.5 -26.5l-4 -15q73 -5 73 -73q0 -8 -1 -17t-3 -16l-62 -308h90l-6 -27h-86z" />
    <glyph glyph-name="bar" unicode="|" horiz-adv-x="232" 
d="M22 -138l180 898h30l-180 -898h-30z" />
    <glyph glyph-name="braceright" unicode="}" horiz-adv-x="290" 
d="M-12 -111h90l62 313q11 51 38 75.5t72 26.5l3 15q-73 5 -73 73q0 8 1 17t3 16l62 308h-90l6 27h86q28 0 28 -24q0 -3 -1 -8.5t-3 -17.5l-58 -288q-3 -17 -3 -28q0 -32 18 -44t54 -12l-11 -54q-42 0 -67 -17t-34 -64l-61 -307q-7 -34 -37 -34h-91z" />
    <glyph glyph-name="asciitilde" unicode="~" 
d="M379 251q-28 0 -50.5 10t-57.5 30q-32 18 -53 26.5t-46 8.5t-45.5 -8.5t-45.5 -30.5l-13 21q26 25 52.5 37.5t58.5 12.5q28 0 50.5 -10t57.5 -30q16 -9 29 -15.5t24 -11t22 -6.5t24 -2q25 0 45.5 8.5t45.5 30.5l13 -21q-26 -25 -52.5 -37.5t-58.5 -12.5z" />
    <glyph glyph-name="uni00A0" unicode="&#xa0;" horiz-adv-x="212" 
 />
    <glyph glyph-name="exclamdown" unicode="&#xa1;" horiz-adv-x="233" 
d="M10 -190l53 265l60 255h18l-42 -255l-53 -265h-36zM154 444q-15 0 -22 6.5t-7 16.5q0 4 1 10.5t3 11.5q4 11 11.5 18.5t25.5 7.5q15 0 22 -6.5t7 -16.5q0 -4 -1 -10.5t-3 -11.5q-4 -11 -11.5 -18.5t-25.5 -7.5z" />
    <glyph glyph-name="cent" unicode="&#xa2;" horiz-adv-x="443" 
d="M168 -8q-60 12 -89.5 61.5t-29.5 120.5q0 29 4 58.5t9 56.5q10 50 28.5 92t45.5 72.5t61.5 48t76.5 18.5l20 102h29l-21 -104q48 -8 76 -38t37 -76l-29 -10q-9 41 -31 65t-59 29l-94 -470h6q51 0 85 30t61 84l27 -14q-33 -61 -73 -95.5t-102 -34.5h-10l-20 -102h-29z
M83 174q0 -59 21.5 -100t69.5 -52l94 468q-63 -3 -108 -55t-61 -142l-11 -61q-2 -14 -3.5 -30.5t-1.5 -27.5z" />
    <glyph glyph-name="sterling" unicode="&#xa3;" horiz-adv-x="523" 
d="M23 0l9 41q64 32 95.5 92.5t31.5 133.5q0 8 -0.5 18t-1.5 21h-85l6 31h77q-2 35 -5 74t-3 75q0 55 16 97t44.5 70t67 42.5t83.5 14.5q127 0 171 -118l-31 -17q-19 54 -53.5 78.5t-88.5 24.5q-38 0 -69.5 -11.5t-55 -35.5t-36.5 -60.5t-13 -85.5q0 -37 3 -75.5t5 -72.5
h190l-6 -31h-182q1 -11 1 -20v-17q0 -84 -36.5 -144.5t-94.5 -87.5l-1 -5h355l-6 -32h-387z" />
    <glyph glyph-name="yen" unicode="&#xa5;" horiz-adv-x="516" 
d="M257 163l-33 -163h-36l33 163h-170l6 29h170l26 131h-170l6 29h153l-117 346h36l112 -341h5l249 341h40l-257 -346h155l-6 -29h-170l-26 -131h170l-6 -29h-170z" />
    <glyph glyph-name="brokenbar" unicode="&#xa6;" horiz-adv-x="232" 
d="M130 402l72 358h30l-72 -358h-30zM22 -138l71 358h31l-72 -358h-30z" />
    <glyph glyph-name="section" unicode="&#xa7;" horiz-adv-x="508" 
d="M435 285q0 -63 -36 -101t-98 -55l-1 -6q27 -21 39 -49.5t12 -66.5q0 -39 -13.5 -69t-37.5 -50.5t-57 -31t-72 -10.5q-45 0 -78.5 14.5t-57.5 39.5l25 23q20 -22 48 -34.5t67 -12.5q65 0 103.5 33t38.5 96q0 46 -19.5 72t-58.5 41l-65 25q-51 20 -75 48.5t-24 79.5
q0 63 36 101t98 55l1 6q-27 21 -39 49.5t-12 66.5q0 39 13.5 69t37.5 50.5t57 31t72 10.5q45 0 78.5 -14.5t57.5 -39.5l-25 -23q-20 22 -48 34.5t-67 12.5q-65 0 -103.5 -33t-38.5 -96q0 -46 19.5 -72t58.5 -41l65 -25q51 -20 75 -48.5t24 -79.5zM110 275q0 -22 4.5 -38
t14.5 -28t25.5 -21.5t37.5 -18.5q44 -17 63.5 -24.5t24.5 -10.5q57 22 88.5 56.5t31.5 90.5q0 43 -19 66t-63 40t-63.5 24.5t-24.5 10.5q-57 -22 -88.5 -56.5t-31.5 -90.5z" />
    <glyph glyph-name="dieresis" unicode="&#xa8;" 
d="M200 636q-12 0 -17.5 6t-5.5 14q0 9 3 18q4 12 10.5 17.5t20.5 5.5q12 0 17.5 -6t5.5 -14q0 -9 -3 -18q-4 -12 -10.5 -17.5t-20.5 -5.5zM365 636q-12 0 -17.5 6t-5.5 14q0 9 3 18q4 12 10.5 17.5t20.5 5.5q12 0 17.5 -6t5.5 -14q0 -9 -3 -18q-4 -12 -10.5 -17.5
t-20.5 -5.5z" />
    <glyph glyph-name="copyright" unicode="&#xa9;" horiz-adv-x="659" 
d="M305 15q60 0 110 21.5t89 59t65 88t38 109.5q9 47 12 74.5t3 51.5q0 58 -14.5 106.5t-43.5 83.5t-72 54.5t-100 19.5q-60 0 -110 -21.5t-89 -59t-65 -88.5t-38 -109q-9 -47 -12 -74.5t-3 -51.5q0 -58 14.5 -106.5t43.5 -83.5t72 -54.5t100 -19.5zM303 -12
q-61 0 -109 20.5t-81.5 58.5t-51.5 93.5t-18 124.5q0 68 13 124q16 69 47.5 125t76 95t99 60t115.5 21t109 -20.5t81.5 -58.5t51.5 -93.5t18 -124.5q0 -68 -13 -124q-16 -69 -47.5 -125t-76 -95t-99 -60t-115.5 -21zM329 151q-54 0 -86 34.5t-32 111.5q0 18 2 37.5t5 35.5
q14 80 59 126.5t111 46.5q43 0 70 -24t36 -59l-26 -10q-9 30 -28 48t-54 18q-51 0 -83.5 -32t-46.5 -102l-9 -43q-3 -13 -3.5 -23.5t-0.5 -18.5q0 -64 22.5 -91.5t65.5 -27.5q32 0 58.5 19t43.5 51l21 -15q-19 -35 -51.5 -58.5t-73.5 -23.5z" />
    <glyph glyph-name="ordfeminine" unicode="&#xaa;" horiz-adv-x="329" 
d="M322 370h-44q-18 0 -18 15q0 3 0.5 7.5t2.5 13.5l2 13h-4q-13 -23 -39 -39t-67 -16q-42 0 -63 20.5t-21 55.5q0 47 31.5 77.5t105.5 30.5h82l9 49q1 5 2 12.5t1 12.5q0 35 -17.5 49.5t-53.5 14.5q-30 0 -54.5 -13.5t-41.5 -43.5l-18 14q18 32 47.5 49.5t70.5 17.5
q94 0 94 -87q0 -11 -3 -27l-40 -200h41zM203 525q-50 0 -72.5 -16t-26.5 -42q-3 -20 -3 -26q0 -53 60 -53q39 0 72 20.5t41 60.5l11 56h-82z" />
    <glyph glyph-name="guillemotleft" unicode="&#xab;" horiz-adv-x="429" 
d="M180 100l-140 177l6 31l192 175l12 -25l-175 -166v-5l123 -169zM348 100l-140 177l6 31l192 175l12 -25l-175 -166v-5l123 -169z" />
    <glyph glyph-name="logicalnot" unicode="&#xac;" 
d="M407 98l39 193h-383l6 29h415l-45 -222h-32z" />
    <glyph glyph-name="uni00AD" unicode="&#xad;" horiz-adv-x="350" 
d="M75 287l7 35h213l-7 -35h-213z" />
    <glyph glyph-name="registered" unicode="&#xae;" horiz-adv-x="433" 
d="M239 298q-74 0 -116 46.5t-42 120.5q0 41 12 84.5t38 79t66.5 58.5t97.5 23q74 0 116 -46.5t42 -120.5q0 -41 -12 -84.5t-38 -79t-66.5 -58.5t-97.5 -23zM243 319q37 0 67 12.5t52.5 34t37.5 51.5t22 66q5 23 6 36.5t1 22.5q0 68 -36.5 107.5t-101.5 39.5
q-37 0 -67 -12.5t-52.5 -34t-37.5 -51.5t-22 -66q-5 -23 -6 -36.5t-1 -22.5q0 -68 36.5 -107.5t101.5 -39.5zM207 398h-20l42 211h72q48 0 48 -47q0 -33 -16.5 -52t-39.5 -21l31 -91h-21l-29 89h-49zM281 505q19 0 29.5 7.5t14.5 27.5q3 18 3 23q0 27 -30 27h-52l-17 -85h52
z" />
    <glyph glyph-name="macron" unicode="&#xaf;" 
d="M173 683h236l-5 -30h-237z" />
    <glyph glyph-name="degree" unicode="&#xb0;" horiz-adv-x="420" 
d="M246 376q-58 0 -92.5 39t-34.5 101q0 43 13 79t35.5 61.5t53.5 39.5t66 14q58 0 92.5 -39t34.5 -101q0 -44 -13 -79.5t-35.5 -61t-53.5 -39.5t-66 -14zM250 404q28 0 52.5 11.5t42.5 33.5t28.5 52t10.5 68q0 49 -25.5 81t-75.5 32q-29 0 -53.5 -11.5t-42.5 -33.5
t-28 -52.5t-10 -67.5q0 -49 25.5 -81t75.5 -32z" />
    <glyph glyph-name="plusminus" unicode="&#xb1;" 
d="M232 145l41 205h-197l6 29h197l42 205h32l-41 -205h197l-6 -29h-197l-42 -205h-32zM6 0l6 29h426l-6 -29h-426z" />
    <glyph glyph-name="twosuperior" unicode="&#xb2;" horiz-adv-x="320" 
d="M288 329h-233l7 28l148 117q40 32 61 56t26 50q4 19 4 29q0 30 -19 50t-54 20q-39 0 -62 -20.5t-36 -53.5l-24 10q17 39 45.5 64t80.5 25q46 0 72 -27t26 -69q0 -41 -25 -75.5t-78 -75.5l-133 -104h199z" />
    <glyph glyph-name="threesuperior" unicode="&#xb3;" horiz-adv-x="320" 
d="M204 533q47 0 69 18.5t27 47.5q2 7 2 12v10q0 28 -17.5 43.5t-52.5 15.5q-32 0 -53 -11.5t-39 -35.5l-17 16q19 26 45.5 40.5t66.5 14.5q45 0 70 -22t25 -62q0 -41 -23 -67.5t-61 -31.5l-1 -4q59 -10 59 -79q0 -54 -34.5 -84.5t-92.5 -30.5q-45 0 -72 17.5t-38 42.5
l21 14q11 -23 32 -36.5t59 -13.5q44 0 66 17.5t28 49.5q2 9 2.5 15t0.5 12q0 32 -16.5 49.5t-55.5 17.5h-46l4 25h42z" />
    <glyph glyph-name="acute" unicode="&#xb4;" 
d="M266 587l-20 13l123 158l27 -19z" />
    <glyph glyph-name="mu" unicode="&#xb5;" horiz-adv-x="500" 
d="M-10 -200l141 708h34l-64 -320q-4 -20 -6 -40t-2 -32q0 -98 92 -98q32 0 61.5 14.5t52.5 44.5q18 23 33.5 54.5t25.5 79.5l60 297h34l-96 -478h74l-6 -30h-73q-29 0 -29 23q0 9 3 23l12 58h-7q-49 -116 -154 -116q-84 0 -98 82h-6l-16 -114l-32 -156h-34z" />
    <glyph glyph-name="paragraph" unicode="&#xb6;" horiz-adv-x="542" 
d="M233 324q-31 0 -57 11t-45 32t-30 50.5t-11 65.5q0 52 16.5 92t46 67.5t71 41.5t91.5 14h229l-6 -29h-61l-163 -818h-32l163 818h-111l-163 -818h-32z" />
    <glyph glyph-name="periodcentered" unicode="&#xb7;" horiz-adv-x="275" 
d="M141 270q-15 0 -22 6.5t-7 16.5q0 4 1 10.5t3 11.5q4 11 11.5 18.5t25.5 7.5q15 0 22 -6.5t7 -16.5q0 -4 -1 -10.5t-3 -11.5q-4 -11 -11.5 -18.5t-25.5 -7.5z" />
    <glyph glyph-name="cedilla" unicode="&#xb8;" 
d="M247 -203q-29 0 -48 9.5t-27 23.5l20 19q18 -26 55 -26q26 0 42.5 13.5t16.5 37.5q0 18 -10 29t-36 11h-33l33 90h25l-29 -77l3 -2q12 7 27 7q50 0 50 -55q0 -37 -24.5 -58.5t-64.5 -21.5z" />
    <glyph glyph-name="onesuperior" unicode="&#xb9;" horiz-adv-x="320" 
d="M62 329l6 24h110l63 318l-130 -68l-9 20l140 75h31l-69 -345h101l-5 -24h-238z" />
    <glyph glyph-name="ordmasculine" unicode="&#xba;" horiz-adv-x="335" 
d="M195 363q-50 0 -77 33t-27 92q0 31 6 64q6 32 17.5 61t30 50.5t45 34t61.5 12.5q50 0 77 -33t27 -92q0 -31 -6 -64q-6 -32 -17.5 -61t-30 -50.5t-45 -34t-61.5 -12.5zM197 389q54 0 83 33.5t37 85.5l7 44q3 16 3 32q0 48 -18.5 74t-59.5 26q-54 0 -83 -33.5t-37 -85.5
l-7 -44q-3 -17 -3 -32q0 -48 18.5 -74t59.5 -26z" />
    <glyph glyph-name="guillemotright" unicode="&#xbb;" horiz-adv-x="429" 
d="M26 125l175 166v5l-123 169l18 18l140 -177l-6 -31l-192 -175zM194 125l175 166v5l-123 169l18 18l140 -177l-6 -31l-192 -175z" />
    <glyph glyph-name="onequarter" unicode="&#xbc;" horiz-adv-x="740" 
d="M62 329l6 24h110l63 318l-130 -68l-9 20l140 75h31l-69 -345h101l-5 -24h-238zM651 698h34l-214 -264h-34zM292 254h34l-205 -254h-34zM580 0l17 85h-184l5 27l224 257h39l-52 -260h55l-5 -24h-55l-17 -85h-27zM648 338h-4l-199 -229h157z" />
    <glyph glyph-name="onehalf" unicode="&#xbd;" horiz-adv-x="740" 
d="M62 329l6 24h110l63 318l-130 -68l-9 20l140 75h31l-69 -345h101l-5 -24h-238zM651 698h34l-214 -264h-34zM292 254h34l-205 -254h-34zM652 0h-233l7 28l148 117q40 32 61 56t26 50q4 19 4 29q0 30 -19 50t-54 20q-39 0 -62 -20.5t-36 -53.5l-24 10q17 39 45.5 64
t80.5 25q46 0 72 -27t26 -69q0 -41 -25 -75.5t-78 -75.5l-133 -104h199z" />
    <glyph glyph-name="threequarters" unicode="&#xbe;" horiz-adv-x="740" 
d="M204 533q47 0 69 18.5t27 47.5q2 7 2 12v10q0 28 -17.5 43.5t-52.5 15.5q-32 0 -53 -11.5t-39 -35.5l-17 16q19 26 45.5 40.5t66.5 14.5q45 0 70 -22t25 -62q0 -41 -23 -67.5t-61 -31.5l-1 -4q59 -10 59 -79q0 -54 -34.5 -84.5t-92.5 -30.5q-45 0 -72 17.5t-38 42.5
l21 14q11 -23 32 -36.5t59 -13.5q44 0 66 17.5t28 49.5q2 9 2.5 15t0.5 12q0 32 -16.5 49.5t-55.5 17.5h-46l4 25h42zM651 698h34l-214 -264h-34zM292 254h34l-205 -254h-34zM580 0l17 85h-184l5 27l224 257h39l-52 -260h55l-5 -24h-55l-17 -85h-27zM648 338h-4l-199 -229
h157z" />
    <glyph glyph-name="questiondown" unicode="&#xbf;" horiz-adv-x="412" 
d="M143 -202q-72 0 -112 41t-40 111q0 97 54 157t160 73l29 144h33l-34 -170q-180 -15 -201 -154q-2 -11 -3.5 -26.5t-1.5 -23.5q0 -57 29.5 -88.5t89.5 -31.5q63 0 100.5 35t61.5 97l30 -11q-27 -70 -73.5 -111.5t-121.5 -41.5zM274 444q-15 0 -22 6.5t-7 16.5q0 4 1 10.5
t3 11.5q4 11 11.5 18.5t25.5 7.5q15 0 22 -6.5t7 -16.5q0 -4 -1 -10.5t-3 -11.5q-4 -11 -11.5 -18.5t-25.5 -7.5z" />
    <glyph glyph-name="Agrave" unicode="&#xc0;" horiz-adv-x="543" 
d="M434 0l-32 228h-273l-111 -228h-38l344 698h48l97 -698h-35zM359 548l-15 115h-5l-55 -115l-140 -290h255zM299 920l31 15l65 -160l-22 -10z" />
    <glyph glyph-name="Aacute" unicode="&#xc1;" horiz-adv-x="543" 
d="M434 0l-32 228h-273l-111 -228h-38l344 698h48l97 -698h-35zM359 548l-15 115h-5l-55 -115l-140 -290h255zM348 764l-20 13l123 158l27 -19z" />
    <glyph glyph-name="Acircumflex" unicode="&#xc2;" horiz-adv-x="543" 
d="M434 0l-32 228h-273l-111 -228h-38l344 698h48l97 -698h-35zM359 548l-15 115h-5l-55 -115l-140 -290h255zM397 926l88 -137l-21 -14l-88 125l-134 -125l-19 16l136 135h38z" />
    <glyph glyph-name="Atilde" unicode="&#xc3;" horiz-adv-x="543" 
d="M434 0l-32 228h-273l-111 -228h-38l344 698h48l97 -698h-35zM359 548l-15 115h-5l-55 -115l-140 -290h255zM229 843q38 42 80 42q20 0 33.5 -7.5t32.5 -21.5q18 -14 30.5 -20t26.5 -6q29 0 61 32l14 -18q-38 -42 -80 -42q-20 0 -33.5 7.5t-32.5 21.5q-18 14 -30.5 20
t-26.5 6q-29 0 -61 -32z" />
    <glyph glyph-name="Adieresis" unicode="&#xc4;" horiz-adv-x="543" 
d="M434 0l-32 228h-273l-111 -228h-38l344 698h48l97 -698h-35zM359 548l-15 115h-5l-55 -115l-140 -290h255zM281 812q-12 0 -17.5 6t-5.5 14q0 9 3 18q4 12 10.5 17.5t20.5 5.5q12 0 17.5 -6t5.5 -14q0 -9 -3 -18q-4 -12 -10.5 -17.5t-20.5 -5.5zM446 812q-12 0 -17.5 6
t-5.5 14q0 9 3 18q4 12 10.5 17.5t20.5 5.5q12 0 17.5 -6t5.5 -14q0 -9 -3 -18q-4 -12 -10.5 -17.5t-20.5 -5.5z" />
    <glyph glyph-name="Aring" unicode="&#xc5;" horiz-adv-x="543" 
d="M434 0l-32 228h-273l-111 -228h-38l344 698h48l97 -698h-35zM359 548l-15 115h-5l-55 -115l-140 -290h255zM358 763q-41 0 -58.5 23.5t-17.5 55.5q0 53 28 84t74 31q41 0 58.5 -23.5t17.5 -55.5q0 -53 -28 -84t-74 -31zM361 787q29 0 46.5 15.5t23.5 43.5q3 14 3.5 22
t0.5 13q0 24 -13 38t-41 14q-29 0 -46.5 -15.5t-23.5 -43.5q-3 -14 -3.5 -22t-0.5 -13q0 -24 13 -38t41 -14z" />
    <glyph glyph-name="AE" unicode="&#xc6;" horiz-adv-x="802" 
d="M383 228h-218l-154 -228h-40l474 698h382l-6 -32h-315l-59 -296h296l-6 -32h-296l-62 -306h316l-6 -32h-352zM461 666l-274 -408h202l81 408h-9z" />
    <glyph glyph-name="Ccedilla" unicode="&#xc7;" 
d="M320 -123q0 -37 -24.5 -58.5t-64.5 -21.5q-29 0 -48 9.5t-27 23.5l20 19q18 -26 55 -26q26 0 42.5 13.5t16.5 37.5q0 18 -10 29t-36 11h-33l27 75q-88 7 -134.5 69.5t-46.5 168.5q0 39 4.5 81.5t12.5 80.5q13 66 37.5 124.5t60.5 102t84 69t110 25.5q76 0 120 -39.5
t58 -105.5l-32 -11q-13 57 -47 90.5t-102 33.5q-94 0 -158 -72.5t-89 -203.5l-14 -73q-5 -29 -7 -55t-2 -46q0 -94 41.5 -151t127.5 -57q65 0 107.5 35t75.5 105l30 -16q-42 -82 -92.5 -119t-119.5 -37l-23 -61l3 -2q12 7 27 7q50 0 50 -55z" />
    <glyph glyph-name="Egrave" unicode="&#xc8;" horiz-adv-x="507" 
d="M42 0l140 698h350l-6 -32h-315l-59 -296h296l-6 -32h-296l-62 -306h316l-6 -32h-352zM302 920l31 15l65 -160l-22 -10z" />
    <glyph glyph-name="Eacute" unicode="&#xc9;" horiz-adv-x="507" 
d="M42 0l140 698h350l-6 -32h-315l-59 -296h296l-6 -32h-296l-62 -306h316l-6 -32h-352zM351 764l-20 13l123 158l27 -19z" />
    <glyph glyph-name="Ecircumflex" unicode="&#xca;" horiz-adv-x="507" 
d="M42 0l140 698h350l-6 -32h-315l-59 -296h296l-6 -32h-296l-62 -306h316l-6 -32h-352zM400 926l88 -137l-21 -14l-88 125l-134 -125l-19 16l136 135h38z" />
    <glyph glyph-name="Edieresis" unicode="&#xcb;" horiz-adv-x="507" 
d="M42 0l140 698h350l-6 -32h-315l-59 -296h296l-6 -32h-296l-62 -306h316l-6 -32h-352zM284 812q-12 0 -17.5 6t-5.5 14q0 9 3 18q4 12 10.5 17.5t20.5 5.5q12 0 17.5 -6t5.5 -14q0 -9 -3 -18q-4 -12 -10.5 -17.5t-20.5 -5.5zM449 812q-12 0 -17.5 6t-5.5 14q0 9 3 18
q4 12 10.5 17.5t20.5 5.5q12 0 17.5 -6t5.5 -14q0 -9 -3 -18q-4 -12 -10.5 -17.5t-20.5 -5.5z" />
    <glyph glyph-name="Igrave" unicode="&#xcc;" horiz-adv-x="337" 
d="M7 0l6 31h93l127 636h-93l6 31h222l-6 -31h-93l-127 -636h93l-7 -31h-221zM212 920l31 15l65 -160l-22 -10z" />
    <glyph glyph-name="Iacute" unicode="&#xcd;" horiz-adv-x="337" 
d="M7 0l6 31h93l127 636h-93l6 31h222l-6 -31h-93l-127 -636h93l-7 -31h-221zM261 764l-20 13l123 158l27 -19z" />
    <glyph glyph-name="Icircumflex" unicode="&#xce;" horiz-adv-x="337" 
d="M7 0l6 31h93l127 636h-93l6 31h222l-6 -31h-93l-127 -636h93l-7 -31h-221zM310 926l88 -137l-21 -14l-88 125l-134 -125l-19 16l136 135h38z" />
    <glyph glyph-name="Idieresis" unicode="&#xcf;" horiz-adv-x="337" 
d="M7 0l6 31h93l127 636h-93l6 31h222l-6 -31h-93l-127 -636h93l-7 -31h-221zM194 812q-12 0 -17.5 6t-5.5 14q0 9 3 18q4 12 10.5 17.5t20.5 5.5q12 0 17.5 -6t5.5 -14q0 -9 -3 -18q-4 -12 -10.5 -17.5t-20.5 -5.5zM359 812q-12 0 -17.5 6t-5.5 14q0 9 3 18q4 12 10.5 17.5
t20.5 5.5q12 0 17.5 -6t5.5 -14q0 -9 -3 -18q-4 -12 -10.5 -17.5t-20.5 -5.5z" />
    <glyph glyph-name="Eth" unicode="&#xd0;" horiz-adv-x="588" 
d="M115 350h-74l6 28h74l64 320h160q106 0 161.5 -62.5t55.5 -167.5q0 -38 -5 -78t-12 -76q-13 -66 -37.5 -123t-61.5 -99.5t-87 -67t-113 -24.5h-201zM247 32q55 0 98 21t74.5 57t52.5 84t31 101l14 73q5 29 7 54.5t2 44.5q0 93 -46 146t-139 53h-127l-58 -288h132l-5 -28
h-132l-64 -318h160z" />
    <glyph glyph-name="Ntilde" unicode="&#xd1;" horiz-adv-x="616" 
d="M246 540l-36 121h-6l-20 -127l-107 -534h-35l140 698h47l179 -540l36 -121h6l20 127l107 534h35l-140 -698h-47zM281 843q38 42 80 42q20 0 33.5 -7.5t32.5 -21.5q18 -14 30.5 -20t26.5 -6q29 0 61 32l14 -18q-38 -42 -80 -42q-20 0 -33.5 7.5t-32.5 21.5
q-18 14 -30.5 20t-26.5 6q-29 0 -61 -32z" />
    <glyph glyph-name="Ograve" unicode="&#xd2;" horiz-adv-x="599" 
d="M263 -12q-100 0 -153 64t-53 175q0 39 4.5 81.5t12.5 80.5q13 66 37.5 124t61 102t85 69.5t110.5 25.5q100 0 153 -64t53 -175q0 -39 -4.5 -81.5t-12.5 -80.5q-13 -66 -37.5 -124t-61 -102t-85 -69.5t-110.5 -25.5zM265 20q94 0 159.5 72.5t90.5 203.5l14 73q5 29 7 55
t2 46q0 94 -42 151t-130 57q-94 0 -159.5 -72.5t-90.5 -203.5l-14 -73q-5 -29 -7 -55t-2 -46q0 -94 42 -151t130 -57zM337 920l31 15l65 -160l-22 -10z" />
    <glyph glyph-name="Oacute" unicode="&#xd3;" horiz-adv-x="599" 
d="M263 -12q-100 0 -153 64t-53 175q0 39 4.5 81.5t12.5 80.5q13 66 37.5 124t61 102t85 69.5t110.5 25.5q100 0 153 -64t53 -175q0 -39 -4.5 -81.5t-12.5 -80.5q-13 -66 -37.5 -124t-61 -102t-85 -69.5t-110.5 -25.5zM265 20q94 0 159.5 72.5t90.5 203.5l14 73q5 29 7 55
t2 46q0 94 -42 151t-130 57q-94 0 -159.5 -72.5t-90.5 -203.5l-14 -73q-5 -29 -7 -55t-2 -46q0 -94 42 -151t130 -57zM386 764l-20 13l123 158l27 -19z" />
    <glyph glyph-name="Ocircumflex" unicode="&#xd4;" horiz-adv-x="599" 
d="M263 -12q-100 0 -153 64t-53 175q0 39 4.5 81.5t12.5 80.5q13 66 37.5 124t61 102t85 69.5t110.5 25.5q100 0 153 -64t53 -175q0 -39 -4.5 -81.5t-12.5 -80.5q-13 -66 -37.5 -124t-61 -102t-85 -69.5t-110.5 -25.5zM265 20q94 0 159.5 72.5t90.5 203.5l14 73q5 29 7 55
t2 46q0 94 -42 151t-130 57q-94 0 -159.5 -72.5t-90.5 -203.5l-14 -73q-5 -29 -7 -55t-2 -46q0 -94 42 -151t130 -57zM435 926l88 -137l-21 -14l-88 125l-134 -125l-19 16l136 135h38z" />
    <glyph glyph-name="Otilde" unicode="&#xd5;" horiz-adv-x="599" 
d="M263 -12q-100 0 -153 64t-53 175q0 39 4.5 81.5t12.5 80.5q13 66 37.5 124t61 102t85 69.5t110.5 25.5q100 0 153 -64t53 -175q0 -39 -4.5 -81.5t-12.5 -80.5q-13 -66 -37.5 -124t-61 -102t-85 -69.5t-110.5 -25.5zM265 20q94 0 159.5 72.5t90.5 203.5l14 73q5 29 7 55
t2 46q0 94 -42 151t-130 57q-94 0 -159.5 -72.5t-90.5 -203.5l-14 -73q-5 -29 -7 -55t-2 -46q0 -94 42 -151t130 -57zM267 843q38 42 80 42q20 0 33.5 -7.5t32.5 -21.5q18 -14 30.5 -20t26.5 -6q29 0 61 32l14 -18q-38 -42 -80 -42q-20 0 -33.5 7.5t-32.5 21.5
q-18 14 -30.5 20t-26.5 6q-29 0 -61 -32z" />
    <glyph glyph-name="Odieresis" unicode="&#xd6;" horiz-adv-x="599" 
d="M263 -12q-100 0 -153 64t-53 175q0 39 4.5 81.5t12.5 80.5q13 66 37.5 124t61 102t85 69.5t110.5 25.5q100 0 153 -64t53 -175q0 -39 -4.5 -81.5t-12.5 -80.5q-13 -66 -37.5 -124t-61 -102t-85 -69.5t-110.5 -25.5zM265 20q94 0 159.5 72.5t90.5 203.5l14 73q5 29 7 55
t2 46q0 94 -42 151t-130 57q-94 0 -159.5 -72.5t-90.5 -203.5l-14 -73q-5 -29 -7 -55t-2 -46q0 -94 42 -151t130 -57zM319 812q-12 0 -17.5 6t-5.5 14q0 9 3 18q4 12 10.5 17.5t20.5 5.5q12 0 17.5 -6t5.5 -14q0 -9 -3 -18q-4 -12 -10.5 -17.5t-20.5 -5.5zM484 812
q-12 0 -17.5 6t-5.5 14q0 9 3 18q4 12 10.5 17.5t20.5 5.5q12 0 17.5 -6t5.5 -14q0 -9 -3 -18q-4 -12 -10.5 -17.5t-20.5 -5.5z" />
    <glyph glyph-name="multiply" unicode="&#xd7;" 
d="M278 284l-188 -171l-19 23l190 171l-122 173l23 18l121 -172l190 172l18 -23l-191 -172l121 -171l-23 -19z" />
    <glyph glyph-name="Oslash" unicode="&#xd8;" horiz-adv-x="599" 
d="M112 117l209 262l186 226q-20 35 -54.5 54t-85.5 19q-94 0 -159.5 -72t-91.5 -204l-14 -73q-5 -29 -7.5 -55t-2.5 -46q0 -29 4 -58t14 -53h2zM264 20q94 0 159.5 72t91.5 204l14 73q5 29 7.5 55t2.5 46q0 29 -4 58t-14 53h-2l-209 -262l-186 -226q20 -35 54.5 -54
t85.5 -19zM263 -12q-54 0 -94.5 19.5t-66.5 55.5l-82 -99l-22 20l88 106q-29 56 -29 137q0 39 4.5 81.5t12.5 80.5q13 66 37.5 124t61 102t85 69.5t110.5 25.5q54 0 94.5 -19.5t66.5 -55.5l82 99l22 -20l-88 -106q29 -56 29 -137q0 -39 -4.5 -81.5t-12.5 -80.5
q-13 -66 -37.5 -124t-61 -102t-85.5 -69.5t-110 -25.5z" />
    <glyph glyph-name="Ugrave" unicode="&#xd9;" horiz-adv-x="582" 
d="M210 698l-88 -440q-8 -39 -11 -63.5t-3 -44.5q0 -63 35.5 -96.5t108.5 -33.5q45 0 78.5 11.5t58.5 39.5t42 74t31 114l87 439h36l-88 -442q-15 -78 -36 -129.5t-50 -82.5t-68 -43.5t-91 -12.5q-85 0 -132.5 39t-47.5 121q0 21 4 51t12 69l86 430h36zM334 920l31 15
l65 -160l-22 -10z" />
    <glyph glyph-name="Uacute" unicode="&#xda;" horiz-adv-x="582" 
d="M210 698l-88 -440q-8 -39 -11 -63.5t-3 -44.5q0 -63 35.5 -96.5t108.5 -33.5q45 0 78.5 11.5t58.5 39.5t42 74t31 114l87 439h36l-88 -442q-15 -78 -36 -129.5t-50 -82.5t-68 -43.5t-91 -12.5q-85 0 -132.5 39t-47.5 121q0 21 4 51t12 69l86 430h36zM383 764l-20 13
l123 158l27 -19z" />
    <glyph glyph-name="Ucircumflex" unicode="&#xdb;" horiz-adv-x="582" 
d="M210 698l-88 -440q-8 -39 -11 -63.5t-3 -44.5q0 -63 35.5 -96.5t108.5 -33.5q45 0 78.5 11.5t58.5 39.5t42 74t31 114l87 439h36l-88 -442q-15 -78 -36 -129.5t-50 -82.5t-68 -43.5t-91 -12.5q-85 0 -132.5 39t-47.5 121q0 21 4 51t12 69l86 430h36zM432 926l88 -137
l-21 -14l-88 125l-134 -125l-19 16l136 135h38z" />
    <glyph glyph-name="Udieresis" unicode="&#xdc;" horiz-adv-x="582" 
d="M210 698l-88 -440q-8 -39 -11 -63.5t-3 -44.5q0 -63 35.5 -96.5t108.5 -33.5q45 0 78.5 11.5t58.5 39.5t42 74t31 114l87 439h36l-88 -442q-15 -78 -36 -129.5t-50 -82.5t-68 -43.5t-91 -12.5q-85 0 -132.5 39t-47.5 121q0 21 4 51t12 69l86 430h36zM316 812
q-12 0 -17.5 6t-5.5 14q0 9 3 18q4 12 10.5 17.5t20.5 5.5q12 0 17.5 -6t5.5 -14q0 -9 -3 -18q-4 -12 -10.5 -17.5t-20.5 -5.5zM481 812q-12 0 -17.5 6t-5.5 14q0 9 3 18q4 12 10.5 17.5t20.5 5.5q12 0 17.5 -6t5.5 -14q0 -9 -3 -18q-4 -12 -10.5 -17.5t-20.5 -5.5z" />
    <glyph glyph-name="Yacute" unicode="&#xdd;" horiz-adv-x="496" 
d="M179 0l58 288l-130 410h36l116 -368h6l264 368h40l-296 -410l-58 -288h-36zM334 764l-20 13l123 158l27 -19z" />
    <glyph glyph-name="Thorn" unicode="&#xde;" horiz-adv-x="535" 
d="M42 0l139 698h36l-31 -153h181q75 0 112 -41.5t37 -105.5q0 -54 -14.5 -97t-41.5 -73.5t-64.5 -47t-83.5 -16.5h-202l-32 -164h-36zM117 196h200q65 0 103.5 35.5t49.5 92.5q6 33 8 49t2 26q0 24 -6.5 44.5t-20.5 36t-36.5 24.5t-53.5 9h-183z" />
    <glyph glyph-name="germandbls" unicode="&#xdf;" horiz-adv-x="573" 
d="M512 142q0 -38 -12 -67t-34 -48.5t-51.5 -29t-64.5 -9.5q-58 0 -100 25t-68 73l25 19q25 -44 59 -65.5t85 -21.5q58 0 92.5 31t34.5 91q0 38 -15 58.5t-50 34.5l-42 16q-20 8 -37 17t-29 21.5t-18.5 30.5t-6.5 43q0 73 48 111t154 38l3 17q4 20 6.5 38.5t2.5 36.5
q0 62 -27.5 91t-90.5 29q-76 0 -118.5 -47t-62.5 -148l-105 -527h-34l95 478h-82l6 30h83l4 19q23 117 75.5 171t142.5 54q147 0 147 -150q0 -15 -2.5 -37t-6.5 -40l-9 -43h-22q-90 0 -131.5 -28t-41.5 -91q0 -36 16.5 -53.5t49.5 -30.5l42 -16q20 -8 36.5 -17t28.5 -23
t18.5 -33.5t6.5 -47.5z" />
    <glyph glyph-name="agrave" unicode="&#xe0;" horiz-adv-x="517" 
d="M369 0q-29 0 -29 23q0 9 3 23l13 65h-7q-23 -57 -60.5 -90t-91.5 -33q-36 0 -64 13t-46.5 37t-28 57t-9.5 73q0 30 3.5 60.5t9.5 59.5q10 51 29 93.5t46.5 73.5t63.5 48t80 17q54 0 86.5 -27.5t42.5 -74.5h7l18 90h34l-95 -478h74l-6 -30h-73zM204 18q28 0 50 10t45 33
q25 25 46.5 64.5t30.5 85.5l27 137q4 23 -1 48t-20.5 46t-40.5 34.5t-60 13.5q-77 0 -120.5 -53t-61.5 -147l-11 -56q-3 -16 -4 -31.5t-1 -34.5q0 -33 7 -60.5t22 -47.5t37.5 -31t54.5 -11zM241 742l31 15l65 -160l-22 -10z" />
    <glyph glyph-name="aacute" unicode="&#xe1;" horiz-adv-x="517" 
d="M369 0q-29 0 -29 23q0 9 3 23l13 65h-7q-23 -57 -60.5 -90t-91.5 -33q-36 0 -64 13t-46.5 37t-28 57t-9.5 73q0 30 3.5 60.5t9.5 59.5q10 51 29 93.5t46.5 73.5t63.5 48t80 17q54 0 86.5 -27.5t42.5 -74.5h7l18 90h34l-95 -478h74l-6 -30h-73zM204 18q28 0 50 10t45 33
q25 25 46.5 64.5t30.5 85.5l27 137q4 23 -1 48t-20.5 46t-40.5 34.5t-60 13.5q-77 0 -120.5 -53t-61.5 -147l-11 -56q-3 -16 -4 -31.5t-1 -34.5q0 -33 7 -60.5t22 -47.5t37.5 -31t54.5 -11zM290 587l-20 13l123 158l27 -19z" />
    <glyph glyph-name="acircumflex" unicode="&#xe2;" horiz-adv-x="517" 
d="M369 0q-29 0 -29 23q0 9 3 23l13 65h-7q-23 -57 -60.5 -90t-91.5 -33q-36 0 -64 13t-46.5 37t-28 57t-9.5 73q0 30 3.5 60.5t9.5 59.5q10 51 29 93.5t46.5 73.5t63.5 48t80 17q54 0 86.5 -27.5t42.5 -74.5h7l18 90h34l-95 -478h74l-6 -30h-73zM204 18q28 0 50 10t45 33
q25 25 46.5 64.5t30.5 85.5l27 137q4 23 -1 48t-20.5 46t-40.5 34.5t-60 13.5q-77 0 -120.5 -53t-61.5 -147l-11 -56q-3 -16 -4 -31.5t-1 -34.5q0 -33 7 -60.5t22 -47.5t37.5 -31t54.5 -11zM339 748l88 -137l-20 -14l-89 125l-134 -125l-19 16l136 135h38z" />
    <glyph glyph-name="atilde" unicode="&#xe3;" horiz-adv-x="517" 
d="M369 0q-29 0 -29 23q0 9 3 23l13 65h-7q-23 -57 -60.5 -90t-91.5 -33q-36 0 -64 13t-46.5 37t-28 57t-9.5 73q0 30 3.5 60.5t9.5 59.5q10 51 29 93.5t46.5 73.5t63.5 48t80 17q54 0 86.5 -27.5t42.5 -74.5h7l18 90h34l-95 -478h74l-6 -30h-73zM204 18q28 0 50 10t45 33
q25 25 46.5 64.5t30.5 85.5l27 137q4 23 -1 48t-20.5 46t-40.5 34.5t-60 13.5q-77 0 -120.5 -53t-61.5 -147l-11 -56q-3 -16 -4 -31.5t-1 -34.5q0 -33 7 -60.5t22 -47.5t37.5 -31t54.5 -11zM172 665q38 42 80 42q20 0 33.5 -7.5t32.5 -21.5q18 -14 30.5 -20t26.5 -6
q29 0 61 32l14 -18q-38 -42 -80 -42q-20 0 -33.5 7.5t-32.5 21.5q-18 14 -30.5 20t-26.5 6q-29 0 -61 -32z" />
    <glyph glyph-name="adieresis" unicode="&#xe4;" horiz-adv-x="517" 
d="M369 0q-29 0 -29 23q0 9 3 23l13 65h-7q-23 -57 -60.5 -90t-91.5 -33q-36 0 -64 13t-46.5 37t-28 57t-9.5 73q0 30 3.5 60.5t9.5 59.5q10 51 29 93.5t46.5 73.5t63.5 48t80 17q54 0 86.5 -27.5t42.5 -74.5h7l18 90h34l-95 -478h74l-6 -30h-73zM204 18q28 0 50 10t45 33
q25 25 46.5 64.5t30.5 85.5l27 137q4 23 -1 48t-20.5 46t-40.5 34.5t-60 13.5q-77 0 -120.5 -53t-61.5 -147l-11 -56q-3 -16 -4 -31.5t-1 -34.5q0 -33 7 -60.5t22 -47.5t37.5 -31t54.5 -11zM224 636q-12 0 -17.5 6t-5.5 14q0 9 3 18q4 12 10.5 17.5t20.5 5.5q12 0 17.5 -6
t5.5 -14q0 -9 -3 -18q-4 -12 -10.5 -17.5t-20.5 -5.5zM389 636q-12 0 -17.5 6t-5.5 14q0 9 3 18q4 12 10.5 17.5t20.5 5.5q12 0 17.5 -6t5.5 -14q0 -9 -3 -18q-4 -12 -10.5 -17.5t-20.5 -5.5z" />
    <glyph glyph-name="aring" unicode="&#xe5;" horiz-adv-x="517" 
d="M369 0q-29 0 -29 23q0 9 3 23l13 65h-7q-23 -57 -60.5 -90t-91.5 -33q-36 0 -64 13t-46.5 37t-28 57t-9.5 73q0 30 3.5 60.5t9.5 59.5q10 51 29 93.5t46.5 73.5t63.5 48t80 17q54 0 86.5 -27.5t42.5 -74.5h7l18 90h34l-95 -478h74l-6 -30h-73zM204 18q28 0 50 10t45 33
q25 25 46.5 64.5t30.5 85.5l27 137q4 23 -1 48t-20.5 46t-40.5 34.5t-60 13.5q-77 0 -120.5 -53t-61.5 -147l-11 -56q-3 -16 -4 -31.5t-1 -34.5q0 -33 7 -60.5t22 -47.5t37.5 -31t54.5 -11zM300 585q-41 0 -58.5 23.5t-17.5 55.5q0 53 28 84t74 31q41 0 58.5 -23.5
t17.5 -55.5q0 -53 -28 -84t-74 -31zM303 609q29 0 46.5 15.5t23.5 43.5q3 14 3.5 22t0.5 13q0 24 -13 38t-41 14q-29 0 -46.5 -15.5t-23.5 -43.5q-3 -14 -3.5 -22t-0.5 -13q0 -24 13 -38t41 -14z" />
    <glyph glyph-name="ae" unicode="&#xe6;" horiz-adv-x="762" 
d="M175 18q28 0 56 9t51 26.5t40 44t23 61.5l14 81l-141 -7q-73 -4 -106 -26.5t-41 -60.5q-4 -18 -4.5 -25.5t-0.5 -15.5q0 -42 27.5 -64.5t81.5 -22.5zM585 491q-35 0 -65 -15t-54 -42.5t-40.5 -65t-24.5 -82.5l-4 -17q92 1 150.5 11t91.5 27t45 40t12 51q0 41 -26 67
t-85 26zM168 -12q-66 0 -101 29t-35 86q0 79 45.5 115t139.5 41l148 8l13 66q2 13 3 25t1 23q0 24 -5.5 44t-18.5 34.5t-34.5 22.5t-53.5 8q-54 0 -87.5 -21.5t-60.5 -69.5l-24 17q28 49 69 76.5t107 27.5q35 0 59.5 -9t40.5 -25.5t23.5 -39t8.5 -49.5h8q29 58 72.5 90.5
t103.5 32.5q66 0 103.5 -33t37.5 -88q0 -33 -14 -60.5t-51.5 -48.5t-103.5 -34t-169 -15l-4 -30t-2 -26q0 -79 29 -123t100 -44q60 0 97 31t67 85l24 -16q-35 -66 -79.5 -98t-109.5 -32q-66 0 -104.5 36.5t-46.5 103.5h-7q-18 -64 -69 -102t-120 -38z" />
    <glyph glyph-name="ccedilla" unicode="&#xe7;" horiz-adv-x="434" 
d="M277 520q58 0 93 -32t45 -84l-29 -10q-20 96 -112 96q-66 0 -112 -52.5t-63 -144.5l-11 -61q-2 -14 -3.5 -30.5t-1.5 -27.5q0 -34 7.5 -62.5t22.5 -49.5t38.5 -32.5t56.5 -11.5q51 0 85 30t61 84l27 -14q-33 -61 -73 -95.5t-99 -34.5l-23 -61l3 -2q12 7 27 7q50 0 50 -55
q0 -37 -24.5 -58.5t-64.5 -21.5q-29 0 -48 9.5t-27 23.5l20 19q18 -26 55 -26q26 0 42.5 13.5t16.5 37.5q0 18 -10 29t-36 11h-33l28 75q-69 8 -102.5 59t-33.5 126q0 29 4 58.5t9 56.5q10 51 29 93t46 73t62.5 48t77.5 17z" />
    <glyph glyph-name="egrave" unicode="&#xe8;" horiz-adv-x="458" 
d="M214 -12q-165 0 -165 194q0 26 3 53.5t8 52.5q10 52 30.5 95t50 73.5t66 47t80.5 16.5q63 0 101.5 -32t38.5 -92q0 -31 -13.5 -60t-50.5 -52t-103.5 -37.5t-172.5 -16.5q-2 -13 -3 -25.5t-1 -20.5q0 -86 32 -126t100 -40q57 0 94.5 31t66.5 85l24 -16q-35 -67 -80 -98.5
t-106 -31.5zM284 491q-39 0 -70 -15t-54.5 -42.5t-39.5 -65.5t-25 -84l-5 -27q93 2 152 13t92.5 29t46 42.5t12.5 52.5q0 46 -27.5 71.5t-81.5 25.5zM245 742l31 15l65 -160l-22 -10z" />
    <glyph glyph-name="eacute" unicode="&#xe9;" horiz-adv-x="458" 
d="M214 -12q-165 0 -165 194q0 26 3 53.5t8 52.5q10 52 30.5 95t50 73.5t66 47t80.5 16.5q63 0 101.5 -32t38.5 -92q0 -31 -13.5 -60t-50.5 -52t-103.5 -37.5t-172.5 -16.5q-2 -13 -3 -25.5t-1 -20.5q0 -86 32 -126t100 -40q57 0 94.5 31t66.5 85l24 -16q-35 -67 -80 -98.5
t-106 -31.5zM284 491q-39 0 -70 -15t-54.5 -42.5t-39.5 -65.5t-25 -84l-5 -27q93 2 152 13t92.5 29t46 42.5t12.5 52.5q0 46 -27.5 71.5t-81.5 25.5zM294 587l-20 13l123 158l27 -19z" />
    <glyph glyph-name="ecircumflex" unicode="&#xea;" horiz-adv-x="458" 
d="M214 -12q-165 0 -165 194q0 26 3 53.5t8 52.5q10 52 30.5 95t50 73.5t66 47t80.5 16.5q63 0 101.5 -32t38.5 -92q0 -31 -13.5 -60t-50.5 -52t-103.5 -37.5t-172.5 -16.5q-2 -13 -3 -25.5t-1 -20.5q0 -86 32 -126t100 -40q57 0 94.5 31t66.5 85l24 -16q-35 -67 -80 -98.5
t-106 -31.5zM284 491q-39 0 -70 -15t-54.5 -42.5t-39.5 -65.5t-25 -84l-5 -27q93 2 152 13t92.5 29t46 42.5t12.5 52.5q0 46 -27.5 71.5t-81.5 25.5zM343 748l88 -137l-20 -14l-89 125l-134 -125l-19 16l136 135h38z" />
    <glyph glyph-name="edieresis" unicode="&#xeb;" horiz-adv-x="458" 
d="M214 -12q-165 0 -165 194q0 26 3 53.5t8 52.5q10 52 30.5 95t50 73.5t66 47t80.5 16.5q63 0 101.5 -32t38.5 -92q0 -31 -13.5 -60t-50.5 -52t-103.5 -37.5t-172.5 -16.5q-2 -13 -3 -25.5t-1 -20.5q0 -86 32 -126t100 -40q57 0 94.5 31t66.5 85l24 -16q-35 -67 -80 -98.5
t-106 -31.5zM284 491q-39 0 -70 -15t-54.5 -42.5t-39.5 -65.5t-25 -84l-5 -27q93 2 152 13t92.5 29t46 42.5t12.5 52.5q0 46 -27.5 71.5t-81.5 25.5zM228 636q-12 0 -17.5 6t-5.5 14q0 9 3 18q4 12 10.5 17.5t20.5 5.5q12 0 17.5 -6t5.5 -14q0 -9 -3 -18q-4 -12 -10.5 -17.5
t-20.5 -5.5zM393 636q-12 0 -17.5 6t-5.5 14q0 9 3 18q4 12 10.5 17.5t20.5 5.5q12 0 17.5 -6t5.5 -14q0 -9 -3 -18q-4 -12 -10.5 -17.5t-20.5 -5.5z" />
    <glyph glyph-name="igrave" unicode="&#xec;" horiz-adv-x="222" 
d="M73 0q-29 0 -29 23q0 9 3 23l93 462h34l-96 -478h74l-6 -30h-73zM110 742l31 15l65 -160l-22 -10z" />
    <glyph glyph-name="iacute" unicode="&#xed;" horiz-adv-x="222" 
d="M73 0q-29 0 -29 23q0 9 3 23l93 462h34l-96 -478h74l-6 -30h-73zM159 587l-20 13l123 158l27 -19z" />
    <glyph glyph-name="icircumflex" unicode="&#xee;" horiz-adv-x="222" 
d="M73 0q-29 0 -29 23q0 9 3 23l93 462h34l-96 -478h74l-6 -30h-73zM43 613l133 135h38l86 -137l-21 -14l-86 125l-131 -125z" />
    <glyph glyph-name="idieresis" unicode="&#xef;" horiz-adv-x="222" 
d="M73 0q-29 0 -29 23q0 9 3 23l93 462h34l-96 -478h74l-6 -30h-73zM257 636q-12 0 -17.5 6t-5.5 14q0 9 3 18q4 12 10.5 17.5t20.5 5.5q12 0 17.5 -6t5.5 -14q0 -9 -3 -18q-4 -12 -10.5 -17.5t-20.5 -5.5zM97 636q-12 0 -17.5 6t-5.5 14q0 9 3 18q4 12 10.5 17.5t20.5 5.5
q12 0 17.5 -6t5.5 -14q0 -9 -3 -18q-4 -12 -10.5 -17.5t-20.5 -5.5z" />
    <glyph glyph-name="eth" unicode="&#xf0;" horiz-adv-x="507" 
d="M337 657q24 -26 44.5 -57.5t36.5 -70.5t25 -86t9 -103q0 -31 -2.5 -60t-7.5 -55q-21 -119 -82.5 -178t-146.5 -59q-78 0 -120.5 50t-42.5 135q0 21 1.5 44t5.5 44q9 57 29 101.5t48.5 75t64.5 47t77 16.5q50 0 84.5 -22t49.5 -63l5 1q-8 66 -35.5 122t-68.5 102l-103 -71
l-14 21l98 68q-24 24 -50 44t-56 37h50q20 -12 41 -27.5t42 -36.5l108 75l15 -22zM215 19q70 0 119.5 48t65.5 137l11 61q2 14 3 28t1 26q0 73 -35 112.5t-97 39.5q-70 0 -119.5 -48t-65.5 -137l-11 -61q-2 -14 -3 -28t-1 -26q0 -73 35 -112.5t97 -39.5z" />
    <glyph glyph-name="ntilde" unicode="&#xf1;" horiz-adv-x="498" 
d="M38 0l102 508h34l-21 -104h7q25 58 63 87t93 29q57 0 86 -32.5t29 -91.5q0 -17 -2 -36t-6 -39l-58 -291h74l-6 -30h-73q-29 0 -29 23q0 9 3 23l55 274q4 20 6 40t2 32q0 98 -92 98q-32 0 -61.5 -14.5t-52.5 -44.5q-18 -23 -33.5 -54.5t-25.5 -79.5l-60 -297h-34zM184 665
q38 42 80 42q20 0 33.5 -7.5t32.5 -21.5q18 -14 30.5 -20t26.5 -6q29 0 61 32l14 -18q-38 -42 -80 -42q-20 0 -33.5 7.5t-32.5 21.5q-18 14 -30.5 20t-26.5 6q-29 0 -61 -32z" />
    <glyph glyph-name="ograve" unicode="&#xf2;" horiz-adv-x="487" 
d="M205 -12q-75 0 -115.5 48t-40.5 131q0 30 3.5 61t9.5 60q10 51 29 93.5t47 73.5t64 48t80 17q75 0 115.5 -48t40.5 -131q0 -30 -3.5 -61t-9.5 -60q-10 -51 -29 -93.5t-47 -73.5t-64 -48t-80 -17zM208 18q75 0 119 53.5t61 146.5l11 58q3 17 4 32.5t1 32.5
q0 72 -30.5 110.5t-94.5 38.5q-75 0 -119 -53.5t-61 -146.5l-11 -58q-3 -17 -4 -32.5t-1 -32.5q0 -72 30.5 -110.5t94.5 -38.5zM247 742l31 15l65 -160l-22 -10z" />
    <glyph glyph-name="oacute" unicode="&#xf3;" horiz-adv-x="487" 
d="M205 -12q-75 0 -115.5 48t-40.5 131q0 30 3.5 61t9.5 60q10 51 29 93.5t47 73.5t64 48t80 17q75 0 115.5 -48t40.5 -131q0 -30 -3.5 -61t-9.5 -60q-10 -51 -29 -93.5t-47 -73.5t-64 -48t-80 -17zM208 18q75 0 119 53.5t61 146.5l11 58q3 17 4 32.5t1 32.5
q0 72 -30.5 110.5t-94.5 38.5q-75 0 -119 -53.5t-61 -146.5l-11 -58q-3 -17 -4 -32.5t-1 -32.5q0 -72 30.5 -110.5t94.5 -38.5zM296 587l-20 13l123 158l27 -19z" />
    <glyph glyph-name="ocircumflex" unicode="&#xf4;" horiz-adv-x="487" 
d="M205 -12q-75 0 -115.5 48t-40.5 131q0 30 3.5 61t9.5 60q10 51 29 93.5t47 73.5t64 48t80 17q75 0 115.5 -48t40.5 -131q0 -30 -3.5 -61t-9.5 -60q-10 -51 -29 -93.5t-47 -73.5t-64 -48t-80 -17zM208 18q75 0 119 53.5t61 146.5l11 58q3 17 4 32.5t1 32.5
q0 72 -30.5 110.5t-94.5 38.5q-75 0 -119 -53.5t-61 -146.5l-11 -58q-3 -17 -4 -32.5t-1 -32.5q0 -72 30.5 -110.5t94.5 -38.5zM345 748l88 -137l-20 -14l-89 125l-134 -125l-19 16l136 135h38z" />
    <glyph glyph-name="otilde" unicode="&#xf5;" horiz-adv-x="487" 
d="M205 -12q-75 0 -115.5 48t-40.5 131q0 30 3.5 61t9.5 60q10 51 29 93.5t47 73.5t64 48t80 17q75 0 115.5 -48t40.5 -131q0 -30 -3.5 -61t-9.5 -60q-10 -51 -29 -93.5t-47 -73.5t-64 -48t-80 -17zM208 18q75 0 119 53.5t61 146.5l11 58q3 17 4 32.5t1 32.5
q0 72 -30.5 110.5t-94.5 38.5q-75 0 -119 -53.5t-61 -146.5l-11 -58q-3 -17 -4 -32.5t-1 -32.5q0 -72 30.5 -110.5t94.5 -38.5zM178 665q38 42 80 42q20 0 33.5 -7.5t32.5 -21.5q18 -14 30.5 -20t26.5 -6q29 0 61 32l14 -18q-38 -42 -80 -42q-20 0 -33.5 7.5t-32.5 21.5
q-18 14 -30.5 20t-26.5 6q-29 0 -61 -32z" />
    <glyph glyph-name="odieresis" unicode="&#xf6;" horiz-adv-x="487" 
d="M205 -12q-75 0 -115.5 48t-40.5 131q0 30 3.5 61t9.5 60q10 51 29 93.5t47 73.5t64 48t80 17q75 0 115.5 -48t40.5 -131q0 -30 -3.5 -61t-9.5 -60q-10 -51 -29 -93.5t-47 -73.5t-64 -48t-80 -17zM208 18q75 0 119 53.5t61 146.5l11 58q3 17 4 32.5t1 32.5
q0 72 -30.5 110.5t-94.5 38.5q-75 0 -119 -53.5t-61 -146.5l-11 -58q-3 -17 -4 -32.5t-1 -32.5q0 -72 30.5 -110.5t94.5 -38.5zM230 636q-12 0 -17.5 6t-5.5 14q0 9 3 18q4 12 10.5 17.5t20.5 5.5q12 0 17.5 -6t5.5 -14q0 -9 -3 -18q-4 -12 -10.5 -17.5t-20.5 -5.5zM395 636
q-12 0 -17.5 6t-5.5 14q0 9 3 18q4 12 10.5 17.5t20.5 5.5q12 0 17.5 -6t5.5 -14q0 -9 -3 -18q-4 -12 -10.5 -17.5t-20.5 -5.5z" />
    <glyph glyph-name="divide" unicode="&#xf7;" 
d="M64 291l6 29h426l-6 -29h-426zM235 77q-16 0 -23 6.5t-7 17.5q0 4 1 11t3 12q4 12 12 19.5t27 7.5q16 0 23 -6.5t7 -17.5q0 -4 -1 -11t-3 -12q-4 -12 -12 -19.5t-27 -7.5zM311 460q-16 0 -23 6.5t-7 17.5q0 4 1 11t3 12q4 12 12 19.5t27 7.5q16 0 23 -6.5t7 -17.5
q0 -4 -1 -11t-3 -12q-4 -12 -12 -19.5t-27 -7.5z" />
    <glyph glyph-name="oslash" unicode="&#xf8;" horiz-adv-x="487" 
d="M228 257l151 186q-30 47 -100 47q-75 0 -119.5 -53.5t-61.5 -146.5q-6 -35 -10.5 -66t-4.5 -46v-21.5t1 -25t3 -24t5 -20.5h3zM207 18q75 0 119.5 53.5t61.5 146.5q6 35 10.5 66t4.5 46v21.5t-1 25t-3 24t-5 20.5h-3l-133 -170l-151 -186q30 -47 100 -47zM204 -12
q-39 0 -68.5 13.5t-49.5 38.5l-58 -68l-18 16l61 75q-22 44 -22 104q0 62 12 121q10 51 29 93.5t47 73.5t64 48t81 17q39 0 68.5 -13.5t49.5 -38.5l58 68l18 -16l-61 -75q22 -44 22 -104q0 -30 -3 -61t-9 -60q-10 -51 -29 -93.5t-47 -73.5t-64 -48t-81 -17z" />
    <glyph glyph-name="ugrave" unicode="&#xf9;" horiz-adv-x="500" 
d="M165 508l-64 -320q-4 -20 -6 -40t-2 -32q0 -98 92 -98q32 0 61.5 14.5t52.5 44.5q18 23 33.5 54.5t25.5 79.5l60 297h34l-96 -478h74l-6 -30h-73q-29 0 -29 23q0 9 3 23l12 58h-7q-25 -58 -63 -87t-93 -29q-57 0 -86 32.5t-29 91.5q0 17 2 36t6 39l64 321h34zM243 742
l31 15l65 -160l-22 -10z" />
    <glyph glyph-name="uacute" unicode="&#xfa;" horiz-adv-x="500" 
d="M165 508l-64 -320q-4 -20 -6 -40t-2 -32q0 -98 92 -98q32 0 61.5 14.5t52.5 44.5q18 23 33.5 54.5t25.5 79.5l60 297h34l-96 -478h74l-6 -30h-73q-29 0 -29 23q0 9 3 23l12 58h-7q-25 -58 -63 -87t-93 -29q-57 0 -86 32.5t-29 91.5q0 17 2 36t6 39l64 321h34zM292 587
l-20 13l123 158l27 -19z" />
    <glyph glyph-name="ucircumflex" unicode="&#xfb;" horiz-adv-x="500" 
d="M165 508l-64 -320q-4 -20 -6 -40t-2 -32q0 -98 92 -98q32 0 61.5 14.5t52.5 44.5q18 23 33.5 54.5t25.5 79.5l60 297h34l-96 -478h74l-6 -30h-73q-29 0 -29 23q0 9 3 23l12 58h-7q-25 -58 -63 -87t-93 -29q-57 0 -86 32.5t-29 91.5q0 17 2 36t6 39l64 321h34zM341 748
l88 -137l-20 -14l-89 125l-134 -125l-19 16l136 135h38z" />
    <glyph glyph-name="udieresis" unicode="&#xfc;" horiz-adv-x="500" 
d="M165 508l-64 -320q-4 -20 -6 -40t-2 -32q0 -98 92 -98q32 0 61.5 14.5t52.5 44.5q18 23 33.5 54.5t25.5 79.5l60 297h34l-96 -478h74l-6 -30h-73q-29 0 -29 23q0 9 3 23l12 58h-7q-25 -58 -63 -87t-93 -29q-57 0 -86 32.5t-29 91.5q0 17 2 36t6 39l64 321h34zM226 636
q-12 0 -17.5 6t-5.5 14q0 9 3 18q4 12 10.5 17.5t20.5 5.5q12 0 17.5 -6t5.5 -14q0 -9 -3 -18q-4 -12 -10.5 -17.5t-20.5 -5.5zM391 636q-12 0 -17.5 6t-5.5 14q0 9 3 18q4 12 10.5 17.5t20.5 5.5q12 0 17.5 -6t5.5 -14q0 -9 -3 -18q-4 -12 -10.5 -17.5t-20.5 -5.5z" />
    <glyph glyph-name="yacute" unicode="&#xfd;" horiz-adv-x="423" 
d="M410 508h36l-353 -679q-8 -17 -17.5 -23t-26.5 -6h-72l6 30h76l81 157l-71 521h34l34 -265l25 -213h6l106 213zM261 587l-20 13l123 158l27 -19z" />
    <glyph glyph-name="thorn" unicode="&#xfe;" horiz-adv-x="508" 
d="M188 740h33l-69 -343h7q23 57 60.5 90t91.5 33q36 0 64 -13t46.5 -37t28 -57t9.5 -73q0 -30 -3.5 -60.5t-9.5 -59.5q-10 -51 -29 -93.5t-46.5 -73.5t-63.5 -48t-80 -17q-54 0 -86.5 27.5t-42.5 74.5h-7l-58 -290h-34zM227 18q77 0 120.5 53t61.5 147l11 56q3 16 4 31.5
t1 34.5q0 33 -7 60.5t-22 47.5t-38 31t-54 11q-28 0 -50 -10t-45 -33q-25 -25 -46.5 -64.5t-30.5 -85.5l-27 -137q-5 -23 0.5 -48t21 -46t40.5 -34.5t60 -13.5z" />
    <glyph glyph-name="ydieresis" unicode="&#xff;" horiz-adv-x="423" 
d="M410 508h36l-353 -679q-8 -17 -17.5 -23t-26.5 -6h-72l6 30h76l81 157l-71 521h34l34 -265l25 -213h6l106 213zM195 636q-12 0 -17.5 6t-5.5 14q0 9 3 18q4 12 10.5 17.5t20.5 5.5q12 0 17.5 -6t5.5 -14q0 -9 -3 -18q-4 -12 -10.5 -17.5t-20.5 -5.5zM360 636
q-12 0 -17.5 6t-5.5 14q0 9 3 18q4 12 10.5 17.5t20.5 5.5q12 0 17.5 -6t5.5 -14q0 -9 -3 -18q-4 -12 -10.5 -17.5t-20.5 -5.5z" />
    <glyph glyph-name="Amacron" unicode="&#x100;" horiz-adv-x="543" 
d="M434 0l-32 228h-273l-111 -228h-38l344 698h48l97 -698h-35zM359 548l-15 115h-5l-55 -115l-140 -290h255zM253 861h237l-6 -30h-236z" />
    <glyph glyph-name="amacron" unicode="&#x101;" horiz-adv-x="517" 
d="M369 0q-29 0 -29 23q0 9 3 23l13 65h-7q-23 -57 -60.5 -90t-91.5 -33q-36 0 -64 13t-46.5 37t-28 57t-9.5 73q0 30 3.5 60.5t9.5 59.5q10 51 29 93.5t46.5 73.5t63.5 48t80 17q54 0 86.5 -27.5t42.5 -74.5h7l18 90h34l-95 -478h74l-6 -30h-73zM204 18q28 0 50 10t45 33
q25 25 46.5 64.5t30.5 85.5l27 137q4 23 -1 48t-20.5 46t-40.5 34.5t-60 13.5q-77 0 -120.5 -53t-61.5 -147l-11 -56q-3 -16 -4 -31.5t-1 -34.5q0 -33 7 -60.5t22 -47.5t37.5 -31t54.5 -11zM197 683h236l-5 -30h-237z" />
    <glyph glyph-name="Abreve" unicode="&#x102;" horiz-adv-x="543" 
d="M434 0l-32 228h-273l-111 -228h-38l344 698h48l97 -698h-35zM359 548l-15 115h-5l-55 -115l-140 -290h255zM361 781q-46 0 -68.5 33t-36.5 88l22 9l11 -33q13 -37 29.5 -53t44.5 -16q29 0 48.5 15.5t46.5 54.5l22 32l21 -9q-14 -26 -28 -48t-30 -38t-36 -25.5t-46 -9.5z
" />
    <glyph glyph-name="abreve" unicode="&#x103;" horiz-adv-x="517" 
d="M369 0q-29 0 -29 23q0 9 3 23l13 65h-7q-23 -57 -60.5 -90t-91.5 -33q-36 0 -64 13t-46.5 37t-28 57t-9.5 73q0 30 3.5 60.5t9.5 59.5q10 51 29 93.5t46.5 73.5t63.5 48t80 17q54 0 86.5 -27.5t42.5 -74.5h7l18 90h34l-95 -478h74l-6 -30h-73zM204 18q28 0 50 10t45 33
q25 25 46.5 64.5t30.5 85.5l27 137q4 23 -1 48t-20.5 46t-40.5 34.5t-60 13.5q-77 0 -120.5 -53t-61.5 -147l-11 -56q-3 -16 -4 -31.5t-1 -34.5q0 -33 7 -60.5t22 -47.5t37.5 -31t54.5 -11zM304 604q-46 0 -69 33t-37 87l23 9l11 -33q13 -37 29 -52.5t45 -15.5t48.5 15
t45.5 54l22 32l22 -9q-14 -25 -28 -47t-30.5 -38t-36 -25.5t-45.5 -9.5z" />
    <glyph glyph-name="Aogonek" unicode="&#x104;" horiz-adv-x="543" 
d="M324 698h48l97 -698q-34 -21 -57.5 -37.5t-38.5 -32.5t-21.5 -32t-6.5 -35q0 -20 12.5 -30t30.5 -10q19 0 33 7.5t22 16.5l17 -17q-11 -14 -30 -23.5t-44 -9.5q-30 0 -51 15.5t-21 47.5q0 39 27.5 69.5t93.5 66.5l-33 232h-273l-111 -228h-38zM359 548l-15 115h-5
l-55 -115l-140 -290h255z" />
    <glyph glyph-name="aogonek" unicode="&#x105;" horiz-adv-x="517" 
d="M442 0q-34 -21 -57.5 -37.5t-38.5 -32.5t-21.5 -32t-6.5 -35q0 -20 12.5 -30t30.5 -10q19 0 33 7.5t22 16.5l17 -17q-11 -14 -30 -23.5t-44 -9.5q-30 0 -51 15.5t-21 47.5q0 39 28 69t94 66v5h-40q-29 0 -29 23q0 9 3 23l13 65h-7q-23 -57 -60.5 -90t-91.5 -33
q-36 0 -64 13t-46.5 37t-28 57t-9.5 73q0 30 3.5 60.5t9.5 59.5q10 51 29 93.5t46.5 73.5t63.5 48t80 17q54 0 86.5 -27.5t42.5 -74.5h7l18 90h34l-95 -478h74zM204 18q28 0 50 10t45 33q25 25 46.5 64.5t30.5 85.5l27 137q4 23 -1 48t-20.5 46t-40.5 34.5t-60 13.5
q-77 0 -120.5 -53t-61.5 -147l-11 -56q-3 -16 -4 -31.5t-1 -34.5q0 -33 7 -60.5t22 -47.5t37.5 -31t54.5 -11z" />
    <glyph glyph-name="Cacute" unicode="&#x106;" 
d="M260 -12q-99 0 -151 63.5t-52 175.5q0 39 4.5 81.5t12.5 80.5q13 66 37.5 124.5t60.5 102t84 69t110 25.5q76 0 120 -39.5t58 -105.5l-32 -11q-13 57 -47 90.5t-102 33.5q-94 0 -158 -72.5t-89 -203.5l-14 -73q-5 -29 -7 -55t-2 -46q0 -94 41.5 -151t127.5 -57
q65 0 107.5 35t75.5 105l30 -16q-42 -82 -92.5 -119t-122.5 -37zM365 764l-20 13l123 158l27 -19z" />
    <glyph glyph-name="cacute" unicode="&#x107;" horiz-adv-x="434" 
d="M206 -12q-40 0 -69.5 14t-49 38.5t-29 58.5t-9.5 75q0 29 4 58.5t9 56.5q10 51 29 93t46 73t62.5 48t77.5 17q58 0 93 -32t45 -84l-29 -10q-20 96 -112 96q-66 0 -112 -52.5t-63 -144.5l-11 -61q-2 -14 -3.5 -30.5t-1.5 -27.5q0 -34 7.5 -62.5t22.5 -49.5t38.5 -32.5
t56.5 -11.5q51 0 85 30t61 84l27 -14q-33 -61 -73 -95.5t-102 -34.5zM290 587l-20 13l123 158l27 -19z" />
    <glyph glyph-name="Ccircumflex" unicode="&#x108;" 
d="M260 -12q-99 0 -151 63.5t-52 175.5q0 39 4.5 81.5t12.5 80.5q13 66 37.5 124.5t60.5 102t84 69t110 25.5q76 0 120 -39.5t58 -105.5l-32 -11q-13 57 -47 90.5t-102 33.5q-94 0 -158 -72.5t-89 -203.5l-14 -73q-5 -29 -7 -55t-2 -46q0 -94 41.5 -151t127.5 -57
q65 0 107.5 35t75.5 105l30 -16q-42 -82 -92.5 -119t-122.5 -37zM414 926l88 -137l-21 -14l-88 125l-134 -125l-19 16l136 135h38z" />
    <glyph glyph-name="ccircumflex" unicode="&#x109;" horiz-adv-x="434" 
d="M206 -12q-40 0 -69.5 14t-49 38.5t-29 58.5t-9.5 75q0 29 4 58.5t9 56.5q10 51 29 93t46 73t62.5 48t77.5 17q58 0 93 -32t45 -84l-29 -10q-20 96 -112 96q-66 0 -112 -52.5t-63 -144.5l-11 -61q-2 -14 -3.5 -30.5t-1.5 -27.5q0 -34 7.5 -62.5t22.5 -49.5t38.5 -32.5
t56.5 -11.5q51 0 85 30t61 84l27 -14q-33 -61 -73 -95.5t-102 -34.5zM339 748l88 -137l-20 -14l-89 125l-134 -125l-19 16l136 135h38z" />
    <glyph glyph-name="Cdotaccent" unicode="&#x10a;" 
d="M260 -12q-99 0 -151 63.5t-52 175.5q0 39 4.5 81.5t12.5 80.5q13 66 37.5 124.5t60.5 102t84 69t110 25.5q76 0 120 -39.5t58 -105.5l-32 -11q-13 57 -47 90.5t-102 33.5q-94 0 -158 -72.5t-89 -203.5l-14 -73q-5 -29 -7 -55t-2 -46q0 -94 41.5 -151t127.5 -57
q65 0 107.5 35t75.5 105l30 -16q-42 -82 -92.5 -119t-122.5 -37zM380 815q-12 0 -17.5 6t-5.5 14q0 9 3 18q4 12 10.5 17.5t20.5 5.5q12 0 17.5 -6t5.5 -14q0 -9 -3 -18q-4 -12 -10.5 -17.5t-20.5 -5.5z" />
    <glyph glyph-name="cdotaccent" unicode="&#x10b;" horiz-adv-x="434" 
d="M206 -12q-40 0 -69.5 14t-49 38.5t-29 58.5t-9.5 75q0 29 4 58.5t9 56.5q10 51 29 93t46 73t62.5 48t77.5 17q58 0 93 -32t45 -84l-29 -10q-20 96 -112 96q-66 0 -112 -52.5t-63 -144.5l-11 -61q-2 -14 -3.5 -30.5t-1.5 -27.5q0 -34 7.5 -62.5t22.5 -49.5t38.5 -32.5
t56.5 -11.5q51 0 85 30t61 84l27 -14q-33 -61 -73 -95.5t-102 -34.5zM307 636q-12 0 -17.5 6t-5.5 14q0 9 3 18q4 12 10.5 17.5t20.5 5.5q12 0 17.5 -6t5.5 -14q0 -9 -3 -18q-4 -12 -10.5 -17.5t-20.5 -5.5z" />
    <glyph glyph-name="Ccaron" unicode="&#x10c;" 
d="M260 -12q-99 0 -151 63.5t-52 175.5q0 39 4.5 81.5t12.5 80.5q13 66 37.5 124.5t60.5 102t84 69t110 25.5q76 0 120 -39.5t58 -105.5l-32 -11q-13 57 -47 90.5t-102 33.5q-94 0 -158 -72.5t-89 -203.5l-14 -73q-5 -29 -7 -55t-2 -46q0 -94 41.5 -151t127.5 -57
q65 0 107.5 35t75.5 105l30 -16q-42 -82 -92.5 -119t-122.5 -37zM357 780l-88 137l21 14l89 -125l133 125l20 -16l-137 -135h-38z" />
    <glyph glyph-name="ccaron" unicode="&#x10d;" horiz-adv-x="434" 
d="M206 -12q-40 0 -69.5 14t-49 38.5t-29 58.5t-9.5 75q0 29 4 58.5t9 56.5q10 51 29 93t46 73t62.5 48t77.5 17q58 0 93 -32t45 -84l-29 -10q-20 96 -112 96q-66 0 -112 -52.5t-63 -144.5l-11 -61q-2 -14 -3.5 -30.5t-1.5 -27.5q0 -34 7.5 -62.5t22.5 -49.5t38.5 -32.5
t56.5 -11.5q51 0 85 30t61 84l27 -14q-33 -61 -73 -95.5t-102 -34.5zM283 602l-88 137l21 14l89 -125l133 125l19 -16l-136 -135h-38z" />
    <glyph glyph-name="Dcaron" unicode="&#x10e;" horiz-adv-x="585" 
d="M182 698h160q106 0 161.5 -62.5t55.5 -167.5q0 -38 -5 -78t-12 -76q-13 -66 -37.5 -123t-61.5 -99.5t-87 -67t-113 -24.5h-201zM244 32q55 0 98 21t74.5 57t52.5 84t31 101l14 73q5 29 7 54.5t2 44.5q0 93 -46 146t-139 53h-127l-127 -634h160zM326 780l-88 137l21 14
l89 -125l133 125l20 -16l-137 -135h-38z" />
    <glyph glyph-name="dcaron" unicode="&#x10f;" horiz-adv-x="519" 
d="M368 0q-28 0 -28 23q0 9 3 23l13 65h-7q-23 -57 -60.5 -90t-91.5 -33q-36 0 -64 13t-46.5 37t-28 57t-9.5 73q0 30 3.5 60.5t9.5 59.5q10 51 29 93.5t46.5 73.5t63.5 48t80 17q54 0 86.5 -27.5t42.5 -74.5h7l65 322h34l-143 -710h74l-6 -30h-73zM204 18q28 0 50 10t45 33
q25 25 46.5 64.5t30.5 85.5l27 137q4 23 -1 48t-20.5 46t-40.5 34.5t-60 13.5q-77 0 -120.5 -53t-61.5 -147l-11 -56q-3 -16 -4 -31.5t-1 -34.5q0 -33 7 -60.5t22 -47.5t37.5 -31t54.5 -11zM561 562h-24l46 178h36z" />
    <glyph glyph-name="Dcroat" unicode="&#x110;" horiz-adv-x="588" 
d="M115 350h-74l6 28h74l64 320h160q106 0 161.5 -62.5t55.5 -167.5q0 -38 -5 -78t-12 -76q-13 -66 -37.5 -123t-61.5 -99.5t-87 -67t-113 -24.5h-201zM247 32q55 0 98 21t74.5 57t52.5 84t31 101l14 73q5 29 7 54.5t2 44.5q0 93 -46 146t-139 53h-127l-58 -288h132l-5 -28
h-132l-64 -318h160z" />
    <glyph glyph-name="dcroat" unicode="&#x111;" horiz-adv-x="519" 
d="M368 0q-28 0 -28 23q0 9 3 23l13 65h-7q-23 -57 -60.5 -90t-91.5 -33q-36 0 -64 13t-46.5 37t-28 57t-9.5 73q0 30 3.5 60.5t9.5 59.5q10 51 29 93.5t46.5 73.5t63.5 48t80 17q54 0 86.5 -27.5t42.5 -74.5h7l45 222h-144l5 28h144l15 72h34l-15 -72h60l-5 -28h-60
l-123 -610h74l-6 -30h-73zM204 18q28 0 50 10t45 33q25 25 46.5 64.5t30.5 85.5l27 137q4 23 -1 48t-20.5 46t-40.5 34.5t-60 13.5q-77 0 -120.5 -53t-61.5 -147l-11 -56q-3 -16 -4 -31.5t-1 -34.5q0 -33 7 -60.5t22 -47.5t37.5 -31t54.5 -11z" />
    <glyph glyph-name="Emacron" unicode="&#x112;" horiz-adv-x="507" 
d="M42 0l140 698h350l-6 -32h-315l-59 -296h296l-6 -32h-296l-62 -306h316l-6 -32h-352zM256 861h237l-6 -30h-236z" />
    <glyph glyph-name="emacron" unicode="&#x113;" horiz-adv-x="458" 
d="M214 -12q-165 0 -165 194q0 26 3 53.5t8 52.5q10 52 30.5 95t50 73.5t66 47t80.5 16.5q63 0 101.5 -32t38.5 -92q0 -31 -13.5 -60t-50.5 -52t-103.5 -37.5t-172.5 -16.5q-2 -13 -3 -25.5t-1 -20.5q0 -86 32 -126t100 -40q57 0 94.5 31t66.5 85l24 -16q-35 -67 -80 -98.5
t-106 -31.5zM284 491q-39 0 -70 -15t-54.5 -42.5t-39.5 -65.5t-25 -84l-5 -27q93 2 152 13t92.5 29t46 42.5t12.5 52.5q0 46 -27.5 71.5t-81.5 25.5zM201 683h236l-5 -30h-237z" />
    <glyph glyph-name="Ebreve" unicode="&#x114;" horiz-adv-x="507" 
d="M42 0l140 698h350l-6 -32h-315l-59 -296h296l-6 -32h-296l-62 -306h316l-6 -32h-352zM364 781q-46 0 -68.5 33t-36.5 88l22 9l11 -33q13 -37 29.5 -53t44.5 -16q29 0 48.5 15.5t46.5 54.5l22 32l21 -9q-14 -26 -28 -48t-30 -38t-36 -25.5t-46 -9.5z" />
    <glyph glyph-name="ebreve" unicode="&#x115;" horiz-adv-x="458" 
d="M214 -12q-165 0 -165 194q0 26 3 53.5t8 52.5q10 52 30.5 95t50 73.5t66 47t80.5 16.5q63 0 101.5 -32t38.5 -92q0 -31 -13.5 -60t-50.5 -52t-103.5 -37.5t-172.5 -16.5q-2 -13 -3 -25.5t-1 -20.5q0 -86 32 -126t100 -40q57 0 94.5 31t66.5 85l24 -16q-35 -67 -80 -98.5
t-106 -31.5zM284 491q-39 0 -70 -15t-54.5 -42.5t-39.5 -65.5t-25 -84l-5 -27q93 2 152 13t92.5 29t46 42.5t12.5 52.5q0 46 -27.5 71.5t-81.5 25.5zM308 604q-46 0 -69 33t-37 87l23 9l11 -33q13 -37 29 -52.5t45 -15.5t48.5 15t45.5 54l22 32l22 -9q-14 -25 -28 -47
t-30.5 -38t-36 -25.5t-45.5 -9.5z" />
    <glyph glyph-name="Edotaccent" unicode="&#x116;" horiz-adv-x="507" 
d="M42 0l140 698h350l-6 -32h-315l-59 -296h296l-6 -32h-296l-62 -306h316l-6 -32h-352zM366 815q-12 0 -17.5 6t-5.5 14q0 9 3 18q4 12 10.5 17.5t20.5 5.5q12 0 17.5 -6t5.5 -14q0 -9 -3 -18q-4 -12 -10.5 -17.5t-20.5 -5.5z" />
    <glyph glyph-name="edotaccent" unicode="&#x117;" horiz-adv-x="458" 
d="M214 -12q-165 0 -165 194q0 26 3 53.5t8 52.5q10 52 30.5 95t50 73.5t66 47t80.5 16.5q63 0 101.5 -32t38.5 -92q0 -31 -13.5 -60t-50.5 -52t-103.5 -37.5t-172.5 -16.5q-2 -13 -3 -25.5t-1 -20.5q0 -86 32 -126t100 -40q57 0 94.5 31t66.5 85l24 -16q-35 -67 -80 -98.5
t-106 -31.5zM284 491q-39 0 -70 -15t-54.5 -42.5t-39.5 -65.5t-25 -84l-5 -27q93 2 152 13t92.5 29t46 42.5t12.5 52.5q0 46 -27.5 71.5t-81.5 25.5zM311 636q-12 0 -17.5 6t-5.5 14q0 9 3 18q4 12 10.5 17.5t20.5 5.5q12 0 17.5 -6t5.5 -14q0 -9 -3 -18q-4 -12 -10.5 -17.5
t-20.5 -5.5z" />
    <glyph glyph-name="Eogonek" unicode="&#x118;" horiz-adv-x="507" 
d="M182 698h350l-6 -32h-315l-59 -296h296l-6 -32h-296l-62 -306h316l-6 -32q-34 -21 -57.5 -37.5t-38.5 -32.5t-21.5 -32t-6.5 -35q0 -20 12.5 -30t30.5 -10q19 0 33 7.5t22 16.5l17 -17q-11 -14 -30 -23.5t-44 -9.5q-30 0 -51 15.5t-21 47.5q0 39 28.5 69t94.5 66l-1 5
h-319z" />
    <glyph glyph-name="eogonek" unicode="&#x119;" horiz-adv-x="458" 
d="M200 -203q-30 0 -51 15.5t-21 47.5q0 36 26.5 66t86.5 59l-1 5q-7 -1 -12 -1.5t-14 -0.5q-165 0 -165 194q0 26 3 53.5t8 52.5q10 52 30.5 95t50 73.5t66 47t80.5 16.5q63 0 101.5 -32t38.5 -92q0 -31 -13.5 -60t-50.5 -52t-103.5 -37.5t-172.5 -16.5q-2 -13 -3 -25.5
t-1 -20.5q0 -86 32 -126t100 -40q57 0 94.5 31t66.5 85l24 -16q-24 -47 -53.5 -73.5t-63.5 -46.5t-57.5 -36.5t-38.5 -32t-21.5 -31.5t-6.5 -35q0 -20 12.5 -30t30.5 -10q19 0 33 7.5t22 16.5l17 -17q-11 -14 -30 -23.5t-44 -9.5zM284 491q-39 0 -70 -15t-54.5 -42.5
t-39.5 -65.5t-25 -84l-5 -27q93 2 152 13t92.5 29t46 42.5t12.5 52.5q0 46 -27.5 71.5t-81.5 25.5z" />
    <glyph glyph-name="Ecaron" unicode="&#x11a;" horiz-adv-x="507" 
d="M42 0l140 698h350l-6 -32h-315l-59 -296h296l-6 -32h-296l-62 -306h316l-6 -32h-352zM343 780l-88 137l21 14l89 -125l133 125l20 -16l-137 -135h-38z" />
    <glyph glyph-name="ecaron" unicode="&#x11b;" horiz-adv-x="458" 
d="M214 -12q-165 0 -165 194q0 26 3 53.5t8 52.5q10 52 30.5 95t50 73.5t66 47t80.5 16.5q63 0 101.5 -32t38.5 -92q0 -31 -13.5 -60t-50.5 -52t-103.5 -37.5t-172.5 -16.5q-2 -13 -3 -25.5t-1 -20.5q0 -86 32 -126t100 -40q57 0 94.5 31t66.5 85l24 -16q-35 -67 -80 -98.5
t-106 -31.5zM284 491q-39 0 -70 -15t-54.5 -42.5t-39.5 -65.5t-25 -84l-5 -27q93 2 152 13t92.5 29t46 42.5t12.5 52.5q0 46 -27.5 71.5t-81.5 25.5zM287 602l-88 137l21 14l89 -125l133 125l19 -16l-136 -135h-38z" />
    <glyph glyph-name="Gcircumflex" unicode="&#x11c;" horiz-adv-x="598" 
d="M459 111h-7q-30 -63 -79 -93t-115 -30q-96 0 -148.5 64t-52.5 174q0 40 4.5 82.5t12.5 80.5q13 66 37.5 124t61 102t85.5 69.5t112 25.5q86 0 132 -39t62 -106l-32 -11q-14 58 -52 91t-114 33q-94 0 -159 -72t-91 -204l-14 -73q-5 -29 -7 -55t-2 -46q0 -93 42.5 -150.5
t127.5 -57.5q36 0 70 11.5t62.5 34.5t50 58t30.5 82l20 100h-150l6 32h186l-67 -338h-34zM418 926l88 -137l-21 -14l-88 125l-134 -125l-19 16l136 135h38z" />
    <glyph glyph-name="gcircumflex" unicode="&#x11d;" horiz-adv-x="445" 
d="M394 -48q0 -79 -59.5 -121.5t-175.5 -42.5q-85 0 -129.5 28t-44.5 88q0 45 29 79t81 45l1 8q-45 16 -45 61q0 37 27 57.5t65 31.5l1 8q-32 16 -48 49.5t-16 72.5q0 47 13 84.5t36.5 64t56.5 41t73 14.5q37 0 64 -12h148l-6 -29h-114l-1 -6q23 -15 35 -37.5t12 -57.5
q0 -45 -12.5 -82t-36 -63t-57.5 -40.5t-76 -14.5q-12 0 -22 1.5t-21 3.5q-48 -13 -69 -32.5t-21 -47.5q0 -19 12 -32t47 -13h120q74 0 103.5 -27.5t29.5 -78.5zM220 206q60 0 93 33t43 87q5 24 6.5 37.5t1.5 21.5q0 48 -26 77.5t-81 29.5q-60 0 -93 -33t-43 -87
q-5 -24 -6.5 -37.5t-1.5 -21.5q0 -48 26 -77.5t81 -29.5zM360 -52q0 40 -21.5 59.5t-82.5 19.5h-133q-45 -14 -74.5 -42.5t-29.5 -73.5q0 -52 35.5 -73t90.5 -21h36q82 0 130.5 32.5t48.5 98.5zM307 748l88 -137l-20 -14l-89 125l-134 -125l-19 16l136 135h38z" />
    <glyph glyph-name="Gbreve" unicode="&#x11e;" horiz-adv-x="598" 
d="M459 111h-7q-30 -63 -79 -93t-115 -30q-96 0 -148.5 64t-52.5 174q0 40 4.5 82.5t12.5 80.5q13 66 37.5 124t61 102t85.5 69.5t112 25.5q86 0 132 -39t62 -106l-32 -11q-14 58 -52 91t-114 33q-94 0 -159 -72t-91 -204l-14 -73q-5 -29 -7 -55t-2 -46q0 -93 42.5 -150.5
t127.5 -57.5q36 0 70 11.5t62.5 34.5t50 58t30.5 82l20 100h-150l6 32h186l-67 -338h-34zM382 781q-46 0 -68.5 33t-36.5 88l22 9l11 -33q13 -37 29.5 -53t44.5 -16q29 0 48.5 15.5t46.5 54.5l22 32l21 -9q-14 -26 -28 -48t-30 -38t-36 -25.5t-46 -9.5z" />
    <glyph glyph-name="gbreve" unicode="&#x11f;" horiz-adv-x="445" 
d="M394 -48q0 -79 -59.5 -121.5t-175.5 -42.5q-85 0 -129.5 28t-44.5 88q0 45 29 79t81 45l1 8q-45 16 -45 61q0 37 27 57.5t65 31.5l1 8q-32 16 -48 49.5t-16 72.5q0 47 13 84.5t36.5 64t56.5 41t73 14.5q37 0 64 -12h148l-6 -29h-114l-1 -6q23 -15 35 -37.5t12 -57.5
q0 -45 -12.5 -82t-36 -63t-57.5 -40.5t-76 -14.5q-12 0 -22 1.5t-21 3.5q-48 -13 -69 -32.5t-21 -47.5q0 -19 12 -32t47 -13h120q74 0 103.5 -27.5t29.5 -78.5zM220 206q60 0 93 33t43 87q5 24 6.5 37.5t1.5 21.5q0 48 -26 77.5t-81 29.5q-60 0 -93 -33t-43 -87
q-5 -24 -6.5 -37.5t-1.5 -21.5q0 -48 26 -77.5t81 -29.5zM360 -52q0 40 -21.5 59.5t-82.5 19.5h-133q-45 -14 -74.5 -42.5t-29.5 -73.5q0 -52 35.5 -73t90.5 -21h36q82 0 130.5 32.5t48.5 98.5zM272 604q-46 0 -69 33t-37 87l23 9l11 -33q13 -37 29 -52.5t45 -15.5t48.5 15
t45.5 54l22 32l22 -9q-14 -25 -28 -47t-30.5 -38t-36 -25.5t-45.5 -9.5z" />
    <glyph glyph-name="Gdotaccent" unicode="&#x120;" horiz-adv-x="598" 
d="M459 111h-7q-30 -63 -79 -93t-115 -30q-96 0 -148.5 64t-52.5 174q0 40 4.5 82.5t12.5 80.5q13 66 37.5 124t61 102t85.5 69.5t112 25.5q86 0 132 -39t62 -106l-32 -11q-14 58 -52 91t-114 33q-94 0 -159 -72t-91 -204l-14 -73q-5 -29 -7 -55t-2 -46q0 -93 42.5 -150.5
t127.5 -57.5q36 0 70 11.5t62.5 34.5t50 58t30.5 82l20 100h-150l6 32h186l-67 -338h-34zM384 815q-12 0 -17.5 6t-5.5 14q0 9 3 18q4 12 10.5 17.5t20.5 5.5q12 0 17.5 -6t5.5 -14q0 -9 -3 -18q-4 -12 -10.5 -17.5t-20.5 -5.5z" />
    <glyph glyph-name="gdotaccent" unicode="&#x121;" horiz-adv-x="445" 
d="M394 -48q0 -79 -59.5 -121.5t-175.5 -42.5q-85 0 -129.5 28t-44.5 88q0 45 29 79t81 45l1 8q-45 16 -45 61q0 37 27 57.5t65 31.5l1 8q-32 16 -48 49.5t-16 72.5q0 47 13 84.5t36.5 64t56.5 41t73 14.5q37 0 64 -12h148l-6 -29h-114l-1 -6q23 -15 35 -37.5t12 -57.5
q0 -45 -12.5 -82t-36 -63t-57.5 -40.5t-76 -14.5q-12 0 -22 1.5t-21 3.5q-48 -13 -69 -32.5t-21 -47.5q0 -19 12 -32t47 -13h120q74 0 103.5 -27.5t29.5 -78.5zM220 206q60 0 93 33t43 87q5 24 6.5 37.5t1.5 21.5q0 48 -26 77.5t-81 29.5q-60 0 -93 -33t-43 -87
q-5 -24 -6.5 -37.5t-1.5 -21.5q0 -48 26 -77.5t81 -29.5zM360 -52q0 40 -21.5 59.5t-82.5 19.5h-133q-45 -14 -74.5 -42.5t-29.5 -73.5q0 -52 35.5 -73t90.5 -21h36q82 0 130.5 32.5t48.5 98.5zM275 636q-12 0 -17.5 6t-5.5 14q0 9 3 18q4 12 10.5 17.5t20.5 5.5
q12 0 17.5 -6t5.5 -14q0 -9 -3 -18q-4 -12 -10.5 -17.5t-20.5 -5.5z" />
    <glyph glyph-name="Gcommaaccent" unicode="&#x122;" horiz-adv-x="598" 
d="M459 111h-7q-30 -63 -79 -93t-115 -30q-96 0 -148.5 64t-52.5 174q0 40 4.5 82.5t12.5 80.5q13 66 37.5 124t61 102t85.5 69.5t112 25.5q86 0 132 -39t62 -106l-32 -11q-14 58 -52 91t-114 33q-94 0 -159 -72t-91 -204l-14 -73q-5 -29 -7 -55t-2 -46q0 -93 42.5 -150.5
t127.5 -57.5q36 0 70 11.5t62.5 34.5t50 58t30.5 82l20 100h-150l6 32h186l-67 -338h-34zM245 -66q14 0 19.5 -6t5.5 -14q0 -5 -0.5 -10.5t-2.5 -12.5q-7 -24 -22 -55t-38 -56h-26q22 25 35 49.5t19 43.5q-14 0 -19 5.5t-5 13.5q0 3 0.5 7.5t2.5 12.5t8 15t23 7z" />
    <glyph glyph-name="gcommaaccent" unicode="&#x123;" horiz-adv-x="445" 
d="M394 -48q0 -79 -59.5 -121.5t-175.5 -42.5q-85 0 -129.5 28t-44.5 88q0 45 29 79t81 45l1 8q-45 16 -45 61q0 37 27 57.5t65 31.5l1 8q-32 16 -48 49.5t-16 72.5q0 47 13 84.5t36.5 64t56.5 41t73 14.5q37 0 64 -12h148l-6 -29h-114l-1 -6q23 -15 35 -37.5t12 -57.5
q0 -45 -12.5 -82t-36 -63t-57.5 -40.5t-76 -14.5q-12 0 -22 1.5t-21 3.5q-48 -13 -69 -32.5t-21 -47.5q0 -19 12 -32t47 -13h120q74 0 103.5 -27.5t29.5 -78.5zM220 206q60 0 93 33t43 87q5 24 6.5 37.5t1.5 21.5q0 48 -26 77.5t-81 29.5q-60 0 -93 -33t-43 -87
q-5 -24 -6.5 -37.5t-1.5 -21.5q0 -48 26 -77.5t81 -29.5zM360 -52q0 40 -21.5 59.5t-82.5 19.5h-133q-45 -14 -74.5 -42.5t-29.5 -73.5q0 -52 35.5 -73t90.5 -21h36q82 0 130.5 32.5t48.5 98.5zM268 598q-14 0 -19.5 6t-5.5 14v8.5t2 9.5q6 25 22 57.5t39 58.5h26
q-22 -25 -35 -49.5t-19 -43.5q14 0 19 -5.5t5 -13.5q0 -3 -0.5 -7.5t-2.5 -12.5t-8 -15t-23 -7z" />
    <glyph glyph-name="Hcircumflex" unicode="&#x124;" horiz-adv-x="617" 
d="M505 338h-359l-68 -338h-36l140 698h36l-66 -328h359l66 328h36l-140 -698h-36zM446 926l88 -137l-21 -14l-88 125l-134 -125l-19 16l136 135h38z" />
    <glyph glyph-name="hcircumflex" unicode="&#x125;" horiz-adv-x="499" 
d="M186 740h34l-67 -336h7q25 58 63 87t93 29q57 0 86 -32.5t29 -91.5q0 -17 -2 -36t-6 -39l-58 -291h74l-6 -30h-73q-29 0 -29 23q0 9 3 23l55 274q4 20 6 40t2 32q0 98 -92 98q-32 0 -61.5 -14.5t-52.5 -44.5q-18 -23 -33.5 -54.5t-25.5 -79.5l-60 -297h-34zM240 906
l88 -137l-20 -14l-89 125l-134 -125l-19 16l136 135h38z" />
    <glyph glyph-name="Hbar" unicode="&#x126;" horiz-adv-x="623" 
d="M508 338h-359l-68 -338h-36l107 534h-68l6 28h68l27 136h36l-27 -136h359l27 136h36l-27 -136h67l-6 -28h-67l-107 -534h-36zM514 370l33 164h-359l-33 -164h359z" />
    <glyph glyph-name="hbar" unicode="&#x127;" horiz-adv-x="499" 
d="M166 640h-60l6 28h60l14 72h34l-14 -72h144l-6 -28h-144l-47 -236h7q25 58 63 87t93 29q57 0 86 -32.5t29 -91.5q0 -17 -2 -36t-6 -39l-58 -291h74l-6 -30h-73q-29 0 -29 23q0 9 3 23l55 274q4 20 6 40t2 32q0 98 -92 98q-32 0 -61.5 -14.5t-52.5 -44.5
q-18 -23 -33.5 -54.5t-25.5 -79.5l-60 -297h-34z" />
    <glyph glyph-name="Itilde" unicode="&#x128;" horiz-adv-x="337" 
d="M7 0l6 31h93l127 636h-93l6 31h222l-6 -31h-93l-127 -636h93l-7 -31h-221zM142 843q38 42 80 42q20 0 33.5 -7.5t32.5 -21.5q18 -14 30.5 -20t26.5 -6q29 0 61 32l14 -18q-38 -42 -80 -42q-20 0 -33.5 7.5t-32.5 21.5q-18 14 -30.5 20t-26.5 6q-29 0 -61 -32z" />
    <glyph glyph-name="itilde" unicode="&#x129;" horiz-adv-x="222" 
d="M73 0q-29 0 -29 23q0 9 3 23l93 462h34l-96 -478h74l-6 -30h-73zM317 667q-36 -42 -78 -42q-19 0 -31.5 7t-32.5 21q-17 14 -29 19.5t-26 5.5q-29 0 -60 -31l-14 18q36 42 78 42q19 0 31.5 -7t32.5 -21q17 -14 29 -19.5t26 -5.5q29 0 60 31z" />
    <glyph glyph-name="Imacron" unicode="&#x12a;" horiz-adv-x="337" 
d="M7 0l6 31h93l127 636h-93l6 31h222l-6 -31h-93l-127 -636h93l-7 -31h-221zM166 861h237l-6 -30h-236z" />
    <glyph glyph-name="imacron" unicode="&#x12b;" horiz-adv-x="222" 
d="M73 0q-29 0 -29 23q0 9 3 23l93 462h34l-96 -478h74l-6 -30h-73zM70 683h231l-6 -30h-231z" />
    <glyph glyph-name="Ibreve" unicode="&#x12c;" horiz-adv-x="337" 
d="M7 0l6 31h93l127 636h-93l6 31h222l-6 -31h-93l-127 -636h93l-7 -31h-221zM274 781q-46 0 -68.5 33t-36.5 88l22 9l11 -33q13 -37 29.5 -53t44.5 -16q29 0 48.5 15.5t46.5 54.5l22 32l21 -9q-14 -26 -28 -48t-30 -38t-36 -25.5t-46 -9.5z" />
    <glyph glyph-name="ibreve" unicode="&#x12d;" horiz-adv-x="222" 
d="M73 0q-29 0 -29 23q0 9 3 23l93 462h34l-96 -478h74l-6 -30h-73zM176 604q-45 0 -67.5 31.5t-35.5 88.5l23 9l10 -33q11 -37 28 -52t44 -15q15 0 26.5 3.5t22 11.5t21 21t23.5 32l21 32l22 -9q-15 -28 -29 -50.5t-30 -38t-35.5 -23.5t-43.5 -8z" />
    <glyph glyph-name="Iogonek" unicode="&#x12e;" horiz-adv-x="337" 
d="M13 31h93l127 636h-93l6 31h222l-6 -31h-93l-127 -636h93l-7 -31q-34 -21 -57.5 -37.5t-38.5 -32.5t-21.5 -32t-6.5 -35q0 -20 12.5 -30t30.5 -10q19 0 33 7.5t22 16.5l17 -17q-11 -14 -30 -23.5t-44 -9.5q-30 0 -51 15.5t-21 47.5q0 39 28.5 69t94.5 66l-1 5h-188z" />
    <glyph glyph-name="iogonek" unicode="&#x12f;" horiz-adv-x="222" 
d="M146 0q-34 -21 -57.5 -37.5t-38.5 -32.5t-21.5 -32t-6.5 -35q0 -20 12.5 -30t30.5 -10q19 0 33 7.5t22 16.5l17 -17q-11 -14 -30 -23.5t-44 -9.5q-30 0 -51 15.5t-21 47.5q0 39 28.5 69t94.5 66l-1 5h-40q-29 0 -29 23q0 9 3 23l93 462h34l-96 -478h74zM189 665
q-25 0 -25 20q0 6 3 18q7 23 31 23q25 0 25 -20q0 -6 -3 -18q-7 -23 -31 -23z" />
    <glyph glyph-name="Idotaccent" unicode="&#x130;" horiz-adv-x="337" 
d="M7 0l6 31h93l127 636h-93l6 31h222l-6 -31h-93l-127 -636h93l-7 -31h-221zM276 815q-12 0 -17.5 6t-5.5 14q0 9 3 18q4 12 10.5 17.5t20.5 5.5q12 0 17.5 -6t5.5 -14q0 -9 -3 -18q-4 -12 -10.5 -17.5t-20.5 -5.5z" />
    <glyph glyph-name="dotlessi" unicode="&#x131;" horiz-adv-x="222" 
d="M73 0q-29 0 -29 23q0 9 3 23l93 462h34l-96 -478h74l-6 -30h-73z" />
    <glyph glyph-name="IJ" unicode="&#x132;" horiz-adv-x="568" 
d="M569 698l-99 -497q-20 -104 -75.5 -158.5t-154.5 -54.5q-81 0 -128 41t-51 109l33 8q4 -66 43.5 -96t105.5 -30q81 0 127.5 46.5t63.5 134.5l93 465h-166l7 32h201zM174 698h36l-82 -408h-36z" />
    <glyph glyph-name="ij" unicode="&#x133;" horiz-adv-x="439" 
d="M189 665q-25 0 -25 20q0 6 3 18q7 23 31 23q25 0 25 -20q0 -6 -3 -18q-7 -23 -31 -23zM73 0q-29 0 -29 23q0 9 3 23l93 462h34l-96 -478h74l-6 -30h-73zM362 508h34l-133 -669q-5 -21 -14 -30t-32 -9h-70l6 30h74zM413 665q-25 0 -25 20q0 6 3 18q7 23 31 23q25 0 25 -20
q0 -6 -3 -18q-7 -23 -31 -23z" />
    <glyph glyph-name="Jcircumflex" unicode="&#x134;" horiz-adv-x="423" 
d="M423 698l-104 -524q-19 -94 -61 -140t-121 -46q-66 0 -105.5 38t-42.5 99l32 7q4 -54 34.5 -83t82.5 -29q33 0 56.5 10t41 29.5t29 49.5t19.5 71l97 486h-218l6 32h254zM349 926l88 -137l-21 -14l-88 125l-134 -125l-19 16l136 135h38z" />
    <glyph glyph-name="jcircumflex" unicode="&#x135;" horiz-adv-x="217" 
d="M-69 -170h74l135 678h34l-133 -669q-5 -21 -14 -30t-32 -9h-70zM40 613l133 135h38l86 -137l-21 -14l-86 125l-131 -125z" />
    <glyph glyph-name="Kcommaaccent" unicode="&#x136;" horiz-adv-x="521" 
d="M265 378l-139 -142l-48 -236h-36l140 698h36l-50 -251l-33 -162h4l140 145l264 268h46l-296 -298l164 -400h-38zM224 -66q14 0 19.5 -6t5.5 -14q0 -5 -0.5 -10.5t-2.5 -12.5q-7 -24 -22 -55t-38 -56h-26q22 25 35 49.5t19 43.5q-14 0 -19 5.5t-5 13.5q0 3 0.5 7.5
t2.5 12.5t8 15t23 7z" />
    <glyph glyph-name="kcommaaccent" unicode="&#x137;" horiz-adv-x="444" 
d="M186 740h34l-79 -396l-24 -114h4l99 96l189 182h42l-220 -213l112 -265h53l-6 -30h-45q-14 0 -22 6t-14 20l-104 250l-95 -88l-38 -188h-34zM188 -66q14 0 19.5 -6t5.5 -14q0 -5 -0.5 -10.5t-2.5 -12.5q-7 -24 -22 -55t-38 -56h-26q22 25 35 49.5t19 43.5q-14 0 -19 5.5
t-5 13.5q0 3 0.5 7.5t2.5 12.5t8 15t23 7z" />
    <glyph glyph-name="kgreenlandic" unicode="&#x138;" horiz-adv-x="444" 
d="M140 508h34l-33 -164l-24 -114h4l99 96l189 182h42l-220 -213l112 -265h53l-6 -30h-45q-14 0 -22 6t-14 20l-104 250l-95 -88l-38 -188h-34z" />
    <glyph glyph-name="Lacute" unicode="&#x139;" horiz-adv-x="428" 
d="M42 0l140 698h36l-134 -666h282l-6 -32h-318zM201 764l-20 13l123 158l27 -19z" />
    <glyph glyph-name="lacute" unicode="&#x13a;" horiz-adv-x="223" 
d="M73 0q-29 0 -29 23q0 9 3 23l139 694h34l-142 -710h74l-6 -30h-73zM198 787l-20 13l123 158l27 -19z" />
    <glyph glyph-name="Lcommaaccent" unicode="&#x13b;" horiz-adv-x="428" 
d="M42 0l140 698h36l-134 -666h282l-6 -32h-318zM192 -66q14 0 19.5 -6t5.5 -14q0 -5 -0.5 -10.5t-2.5 -12.5q-7 -24 -22 -55t-38 -56h-26q22 25 35 49.5t19 43.5q-14 0 -19 5.5t-5 13.5q0 3 0.5 7.5t2.5 12.5t8 15t23 7z" />
    <glyph glyph-name="lcommaaccent" unicode="&#x13c;" horiz-adv-x="223" 
d="M73 0q-29 0 -29 23q0 9 3 23l139 694h34l-142 -710h74l-6 -30h-73zM79 -66q14 0 19.5 -6t5.5 -14q0 -5 -0.5 -10.5t-2.5 -12.5q-7 -24 -22 -55t-38 -56h-26q22 25 35 49.5t19 43.5q-14 0 -19 5.5t-5 13.5q0 3 0.5 7.5t2.5 12.5t8 15t23 7z" />
    <glyph glyph-name="Lcaron" unicode="&#x13d;" horiz-adv-x="428" 
d="M42 0l140 698h36l-134 -666h282l-6 -32h-318zM299 562h-24l46 178h36z" />
    <glyph glyph-name="lcaron" unicode="&#x13e;" horiz-adv-x="223" 
d="M73 0q-29 0 -29 23q0 9 3 23l139 694h34l-142 -710h74l-6 -30h-73zM270 562h-24l46 178h36z" />
    <glyph glyph-name="Ldot" unicode="&#x13f;" horiz-adv-x="428" 
d="M42 0l140 698h36l-134 -666h282l-6 -32h-318zM309 278q-12 0 -17.5 6t-5.5 14q0 9 3 18q4 12 10.5 17.5t20.5 5.5q12 0 17.5 -6t5.5 -14q0 -9 -3 -18q-4 -12 -10.5 -17.5t-20.5 -5.5z" />
    <glyph glyph-name="ldot" unicode="&#x140;" horiz-adv-x="245" 
d="M73 0q-29 0 -29 23q0 9 3 23l139 694h34l-142 -710h74l-6 -30h-73zM215 243q-12 0 -17.5 6t-5.5 14q0 9 3 18q4 12 10.5 17.5t20.5 5.5q12 0 17.5 -6t5.5 -14q0 -9 -3 -18q-4 -12 -10.5 -17.5t-20.5 -5.5z" />
    <glyph glyph-name="Lslash" unicode="&#x141;" horiz-adv-x="431" 
d="M363 0h-318l59 294l-90 -31l6 30l90 32l75 373h36l-72 -360l181 64l-7 -32l-181 -63l-55 -275h282z" />
    <glyph glyph-name="lslash" unicode="&#x142;" horiz-adv-x="235" 
d="M152 0h-73q-29 0 -29 23q0 9 3 23l60 298l-64 -22l6 31l64 22l73 365h34l-70 -351l88 31l-6 -32l-89 -31l-65 -327h74z" />
    <glyph glyph-name="Nacute" unicode="&#x143;" horiz-adv-x="616" 
d="M246 540l-36 121h-6l-20 -127l-107 -534h-35l140 698h47l179 -540l36 -121h6l20 127l107 534h35l-140 -698h-47zM400 764l-20 13l123 158l27 -19z" />
    <glyph glyph-name="nacute" unicode="&#x144;" horiz-adv-x="498" 
d="M38 0l102 508h34l-21 -104h7q25 58 63 87t93 29q57 0 86 -32.5t29 -91.5q0 -17 -2 -36t-6 -39l-58 -291h74l-6 -30h-73q-29 0 -29 23q0 9 3 23l55 274q4 20 6 40t2 32q0 98 -92 98q-32 0 -61.5 -14.5t-52.5 -44.5q-18 -23 -33.5 -54.5t-25.5 -79.5l-60 -297h-34zM302 587
l-20 13l123 158l27 -19z" />
    <glyph glyph-name="Ncommaaccent" unicode="&#x145;" horiz-adv-x="616" 
d="M246 540l-36 121h-6l-20 -127l-107 -534h-35l140 698h47l179 -540l36 -121h6l20 127l107 534h35l-140 -698h-47zM236 -66q14 0 19.5 -6t5.5 -14q0 -5 -0.5 -10.5t-2.5 -12.5q-7 -24 -22 -55t-38 -56h-26q22 25 35 49.5t19 43.5q-14 0 -19 5.5t-5 13.5q0 3 0.5 7.5
t2.5 12.5t8 15t23 7z" />
    <glyph glyph-name="ncommaaccent" unicode="&#x146;" horiz-adv-x="498" 
d="M38 0l102 508h34l-21 -104h7q25 58 63 87t93 29q57 0 86 -32.5t29 -91.5q0 -17 -2 -36t-6 -39l-58 -291h74l-6 -30h-73q-29 0 -29 23q0 9 3 23l55 274q4 20 6 40t2 32q0 98 -92 98q-32 0 -61.5 -14.5t-52.5 -44.5q-18 -23 -33.5 -54.5t-25.5 -79.5l-60 -297h-34zM190 -66
q14 0 19.5 -6t5.5 -14q0 -5 -0.5 -10.5t-2.5 -12.5q-7 -24 -22 -55t-38 -56h-26q22 25 35 49.5t19 43.5q-14 0 -19 5.5t-5 13.5q0 3 0.5 7.5t2.5 12.5t8 15t23 7z" />
    <glyph glyph-name="Ncaron" unicode="&#x147;" horiz-adv-x="616" 
d="M246 540l-36 121h-6l-20 -127l-107 -534h-35l140 698h47l179 -540l36 -121h6l20 127l107 534h35l-140 -698h-47zM392 780l-88 137l21 14l89 -125l133 125l20 -16l-137 -135h-38z" />
    <glyph glyph-name="ncaron" unicode="&#x148;" horiz-adv-x="498" 
d="M38 0l102 508h34l-21 -104h7q25 58 63 87t93 29q57 0 86 -32.5t29 -91.5q0 -17 -2 -36t-6 -39l-58 -291h74l-6 -30h-73q-29 0 -29 23q0 9 3 23l55 274q4 20 6 40t2 32q0 98 -92 98q-32 0 -61.5 -14.5t-52.5 -44.5q-18 -23 -33.5 -54.5t-25.5 -79.5l-60 -297h-34zM295 602
l-88 137l21 14l89 -125l133 125l19 -16l-136 -135h-38z" />
    <glyph glyph-name="napostrophe" unicode="&#x149;" horiz-adv-x="722" 
d="M212 742q16 0 22.5 -7t6.5 -17t-4 -23q-6 -18 -15.5 -40t-22 -43.5t-28.5 -41.5t-35 -35h-30q39 35 61 71t32 66q-15 0 -21.5 6t-6.5 15q0 5 1 11t3 11q3 11 11 19t26 8zM262 0l102 508h34l-21 -104h7q25 58 63 87t93 29q57 0 86 -32.5t29 -91.5q0 -17 -2 -36t-6 -39
l-58 -291h74l-6 -30h-73q-29 0 -29 23q0 9 3 23l55 274q4 20 6 40t2 32q0 98 -92 98q-32 0 -61.5 -14.5t-52.5 -44.5q-18 -23 -33.5 -54.5t-25.5 -79.5l-60 -297h-34z" />
    <glyph glyph-name="Eng" unicode="&#x14a;" horiz-adv-x="616" 
d="M42 0l140 698h47l179 -540l36 -121h6l20 127l107 534h35l-173 -863q-5 -20 -14 -27.5t-29 -7.5h-72l6 30h74l34 170h-13l-179 540l-36 121h-6l-20 -127l-107 -534h-35z" />
    <glyph glyph-name="eng" unicode="&#x14b;" horiz-adv-x="500" 
d="M291 -170l98 490q4 20 6 40t2 32q0 98 -92 98q-32 0 -61.5 -14.5t-52.5 -44.5q-18 -23 -33.5 -54.5t-25.5 -79.5l-60 -297h-34l102 508h34l-21 -104h7q25 58 63 87t93 29q57 0 86 -32.5t29 -91.5q0 -17 -2 -36t-6 -39l-96 -483q-5 -21 -14 -29.5t-32 -8.5h-70l6 30h74z
" />
    <glyph glyph-name="Omacron" unicode="&#x14c;" horiz-adv-x="599" 
d="M263 -12q-100 0 -153 64t-53 175q0 39 4.5 81.5t12.5 80.5q13 66 37.5 124t61 102t85 69.5t110.5 25.5q100 0 153 -64t53 -175q0 -39 -4.5 -81.5t-12.5 -80.5q-13 -66 -37.5 -124t-61 -102t-85 -69.5t-110.5 -25.5zM265 20q94 0 159.5 72.5t90.5 203.5l14 73q5 29 7 55
t2 46q0 94 -42 151t-130 57q-94 0 -159.5 -72.5t-90.5 -203.5l-14 -73q-5 -29 -7 -55t-2 -46q0 -94 42 -151t130 -57zM291 861h237l-6 -30h-236z" />
    <glyph glyph-name="omacron" unicode="&#x14d;" horiz-adv-x="487" 
d="M205 -12q-75 0 -115.5 48t-40.5 131q0 30 3.5 61t9.5 60q10 51 29 93.5t47 73.5t64 48t80 17q75 0 115.5 -48t40.5 -131q0 -30 -3.5 -61t-9.5 -60q-10 -51 -29 -93.5t-47 -73.5t-64 -48t-80 -17zM208 18q75 0 119 53.5t61 146.5l11 58q3 17 4 32.5t1 32.5
q0 72 -30.5 110.5t-94.5 38.5q-75 0 -119 -53.5t-61 -146.5l-11 -58q-3 -17 -4 -32.5t-1 -32.5q0 -72 30.5 -110.5t94.5 -38.5zM203 683h236l-5 -30h-237z" />
    <glyph glyph-name="Obreve" unicode="&#x14e;" horiz-adv-x="599" 
d="M263 -12q-100 0 -153 64t-53 175q0 39 4.5 81.5t12.5 80.5q13 66 37.5 124t61 102t85 69.5t110.5 25.5q100 0 153 -64t53 -175q0 -39 -4.5 -81.5t-12.5 -80.5q-13 -66 -37.5 -124t-61 -102t-85 -69.5t-110.5 -25.5zM265 20q94 0 159.5 72.5t90.5 203.5l14 73q5 29 7 55
t2 46q0 94 -42 151t-130 57q-94 0 -159.5 -72.5t-90.5 -203.5l-14 -73q-5 -29 -7 -55t-2 -46q0 -94 42 -151t130 -57zM399 781q-46 0 -68.5 33t-36.5 88l22 9l11 -33q13 -37 29.5 -53t44.5 -16q29 0 48.5 15.5t46.5 54.5l22 32l21 -9q-14 -26 -28 -48t-30 -38t-36 -25.5
t-46 -9.5z" />
    <glyph glyph-name="obreve" unicode="&#x14f;" horiz-adv-x="487" 
d="M205 -12q-75 0 -115.5 48t-40.5 131q0 30 3.5 61t9.5 60q10 51 29 93.5t47 73.5t64 48t80 17q75 0 115.5 -48t40.5 -131q0 -30 -3.5 -61t-9.5 -60q-10 -51 -29 -93.5t-47 -73.5t-64 -48t-80 -17zM208 18q75 0 119 53.5t61 146.5l11 58q3 17 4 32.5t1 32.5
q0 72 -30.5 110.5t-94.5 38.5q-75 0 -119 -53.5t-61 -146.5l-11 -58q-3 -17 -4 -32.5t-1 -32.5q0 -72 30.5 -110.5t94.5 -38.5zM310 604q-46 0 -69 33t-37 87l23 9l11 -33q13 -37 29 -52.5t45 -15.5t48.5 15t45.5 54l22 32l22 -9q-14 -25 -28 -47t-30.5 -38t-36 -25.5
t-45.5 -9.5z" />
    <glyph glyph-name="Ohungarumlaut" unicode="&#x150;" horiz-adv-x="599" 
d="M263 -12q-100 0 -153 64t-53 175q0 39 4.5 81.5t12.5 80.5q13 66 37.5 124t61 102t85 69.5t110.5 25.5q100 0 153 -64t53 -175q0 -39 -4.5 -81.5t-12.5 -80.5q-13 -66 -37.5 -124t-61 -102t-85 -69.5t-110.5 -25.5zM265 20q94 0 159.5 72.5t90.5 203.5l14 73q5 29 7 55
t2 46q0 94 -42 151t-130 57q-94 0 -159.5 -72.5t-90.5 -203.5l-14 -73q-5 -29 -7 -55t-2 -46q0 -94 42 -151t130 -57zM314 764l-20 14l123 157l26 -18zM458 764l-20 14l123 157l26 -18z" />
    <glyph glyph-name="ohungarumlaut" unicode="&#x151;" horiz-adv-x="487" 
d="M205 -12q-75 0 -115.5 48t-40.5 131q0 30 3.5 61t9.5 60q10 51 29 93.5t47 73.5t64 48t80 17q75 0 115.5 -48t40.5 -131q0 -30 -3.5 -61t-9.5 -60q-10 -51 -29 -93.5t-47 -73.5t-64 -48t-80 -17zM208 18q75 0 119 53.5t61 146.5l11 58q3 17 4 32.5t1 32.5
q0 72 -30.5 110.5t-94.5 38.5q-75 0 -119 -53.5t-61 -146.5l-11 -58q-3 -17 -4 -32.5t-1 -32.5q0 -72 30.5 -110.5t94.5 -38.5zM224 587l-19 13l123 157l26 -18zM368 587l-19 13l123 157l26 -18z" />
    <glyph glyph-name="OE" unicode="&#x152;" horiz-adv-x="842" 
d="M378 0q-23 -8 -52.5 -10t-52.5 -2q-103 0 -160 62.5t-57 180.5q0 27 3.5 65t10.5 76q10 60 32.5 120.5t60.5 108.5t94 78.5t134 30.5q32 0 66.5 -3.5t57.5 -8.5h350l-6 -32h-313l-59 -296h296l-6 -32h-296l-62 -306h316l-6 -32h-351zM275 20q24 0 54.5 2t54.5 12l126 631
q-22 6 -55.5 9.5t-67.5 3.5q-56 0 -101 -20t-79 -56t-57 -87t-35 -113l-14 -73q-5 -23 -7 -51t-2 -46q0 -103 47 -157.5t136 -54.5z" />
    <glyph glyph-name="oe" unicode="&#x153;" horiz-adv-x="799" 
d="M208 18q75 0 119 53.5t61 146.5l11 58q3 17 4 32.5t1 32.5q0 72 -30.5 110.5t-94.5 38.5q-75 0 -119 -53.5t-61 -146.5l-11 -58q-3 -17 -4 -32.5t-1 -32.5q0 -72 30.5 -110.5t94.5 -38.5zM625 491q-38 0 -69 -15t-55 -42.5t-40 -65.5t-25 -84l-5 -27q93 2 152 13t92.5 29
t46 42.5t12.5 52.5q0 46 -27.5 71.5t-81.5 25.5zM555 -12q-73 0 -112.5 39t-42.5 113h-7q-11 -32 -28 -60t-40.5 -48.5t-53.5 -32t-66 -11.5q-75 0 -115.5 48t-40.5 131q0 30 3.5 61t9.5 60q10 51 29 93.5t46.5 73.5t64 48t81.5 17q68 0 106 -40t40 -109h7q22 66 72 107.5
t120 41.5q63 0 101.5 -32t38.5 -92q0 -31 -13.5 -60t-50.5 -52t-103.5 -37.5t-172.5 -16.5q-2 -12 -3 -25t-1 -21q0 -86 32.5 -126t99.5 -40q57 0 94.5 31t66.5 85l24 -16q-35 -67 -80.5 -98.5t-105.5 -31.5z" />
    <glyph glyph-name="Racute" unicode="&#x154;" horiz-adv-x="570" 
d="M78 0h-36l140 698h220q70 0 107 -42t37 -108q0 -52 -14 -94t-39 -71.5t-61 -46t-79 -18.5l105 -318h-37l-104 317h-176zM350 348q62 0 100.5 36t49.5 93q6 33 8 49t2 26q0 47 -28 80.5t-84 33.5h-187l-64 -318h203zM360 764l-20 13l123 158l27 -19z" />
    <glyph glyph-name="racute" unicode="&#x155;" horiz-adv-x="314" 
d="M38 0l102 508h34l-23 -111h7q22 51 56.5 81t93.5 30h28l-7 -32h-30q-33 0 -60.5 -14.5t-48.5 -39t-36 -57t-22 -68.5l-60 -297h-34zM239 587l-20 13l123 158l27 -19z" />
    <glyph glyph-name="Rcommaaccent" unicode="&#x156;" horiz-adv-x="570" 
d="M78 0h-36l140 698h220q70 0 107 -42t37 -108q0 -52 -14 -94t-39 -71.5t-61 -46t-79 -18.5l105 -318h-37l-104 317h-176zM350 348q62 0 100.5 36t49.5 93q6 33 8 49t2 26q0 47 -28 80.5t-84 33.5h-187l-64 -318h203zM211 -66q14 0 19.5 -6t5.5 -14q0 -5 -0.5 -10.5
t-2.5 -12.5q-7 -24 -22 -55t-38 -56h-26q22 25 35 49.5t19 43.5q-14 0 -19 5.5t-5 13.5q0 3 0.5 7.5t2.5 12.5t8 15t23 7z" />
    <glyph glyph-name="rcommaaccent" unicode="&#x157;" horiz-adv-x="314" 
d="M38 0l102 508h34l-23 -111h7q22 51 56.5 81t93.5 30h28l-7 -32h-30q-33 0 -60.5 -14.5t-48.5 -39t-36 -57t-22 -68.5l-60 -297h-34zM42 -66q14 0 19.5 -6t5.5 -14q0 -5 -0.5 -10.5t-2.5 -12.5q-7 -24 -22 -55t-38 -56h-26q22 25 35 49.5t19 43.5q-14 0 -19 5.5t-5 13.5
q0 3 0.5 7.5t2.5 12.5t8 15t23 7z" />
    <glyph glyph-name="Rcaron" unicode="&#x158;" horiz-adv-x="570" 
d="M78 0h-36l140 698h220q70 0 107 -42t37 -108q0 -52 -14 -94t-39 -71.5t-61 -46t-79 -18.5l105 -318h-37l-104 317h-176zM350 348q62 0 100.5 36t49.5 93q6 33 8 49t2 26q0 47 -28 80.5t-84 33.5h-187l-64 -318h203zM352 780l-88 137l21 14l89 -125l133 125l20 -16
l-137 -135h-38z" />
    <glyph glyph-name="rcaron" unicode="&#x159;" horiz-adv-x="314" 
d="M38 0l102 508h34l-23 -111h7q22 51 56.5 81t93.5 30h28l-7 -32h-30q-33 0 -60.5 -14.5t-48.5 -39t-36 -57t-22 -68.5l-60 -297h-34zM232 602l-88 137l21 14l89 -125l133 125l19 -16l-136 -135h-38z" />
    <glyph glyph-name="Sacute" unicode="&#x15a;" horiz-adv-x="495" 
d="M212 -12q-77 0 -125 30t-75 84l28 20q25 -50 65 -76t108 -26q48 0 82.5 15t57.5 40.5t34 59t11 71.5q0 52 -26 81t-79 46l-67 22q-122 38 -122 158q0 40 14 76t40.5 63t65 42.5t88.5 15.5q73 0 117 -26.5t68 -74.5l-27 -19q-23 47 -62 67.5t-100 20.5q-41 0 -72.5 -12.5
t-52.5 -34.5t-32 -52t-11 -64q0 -97 99 -130l65 -21q63 -21 96.5 -56.5t33.5 -100.5q0 -45 -14 -85t-42 -70t-69.5 -47t-96.5 -17zM313 764l-20 13l123 158l27 -19z" />
    <glyph glyph-name="sacute" unicode="&#x15b;" horiz-adv-x="411" 
d="M181 -12q-60 0 -101.5 23.5t-71.5 71.5l25 19q29 -44 63 -64.5t85 -20.5q55 0 90.5 30.5t35.5 88.5q0 40 -20 63.5t-62 37.5l-44 14q-51 16 -79 44.5t-28 83.5q0 33 12 59t33 44.5t49.5 28t61.5 9.5q57 0 91 -21t60 -55l-25 -21q-20 29 -48.5 48.5t-79.5 19.5
q-54 0 -87 -29.5t-33 -80.5q0 -38 17 -61.5t64 -38.5l44 -14q49 -16 78.5 -44.5t29.5 -84.5q0 -37 -12.5 -65t-34.5 -47t-51 -28.5t-62 -9.5zM254 587l-20 13l123 158l27 -19z" />
    <glyph glyph-name="Scircumflex" unicode="&#x15c;" horiz-adv-x="495" 
d="M212 -12q-77 0 -125 30t-75 84l28 20q25 -50 65 -76t108 -26q48 0 82.5 15t57.5 40.5t34 59t11 71.5q0 52 -26 81t-79 46l-67 22q-122 38 -122 158q0 40 14 76t40.5 63t65 42.5t88.5 15.5q73 0 117 -26.5t68 -74.5l-27 -19q-23 47 -62 67.5t-100 20.5q-41 0 -72.5 -12.5
t-52.5 -34.5t-32 -52t-11 -64q0 -97 99 -130l65 -21q63 -21 96.5 -56.5t33.5 -100.5q0 -45 -14 -85t-42 -70t-69.5 -47t-96.5 -17zM362 926l88 -137l-21 -14l-88 125l-134 -125l-19 16l136 135h38z" />
    <glyph glyph-name="scircumflex" unicode="&#x15d;" horiz-adv-x="411" 
d="M181 -12q-60 0 -101.5 23.5t-71.5 71.5l25 19q29 -44 63 -64.5t85 -20.5q55 0 90.5 30.5t35.5 88.5q0 40 -20 63.5t-62 37.5l-44 14q-51 16 -79 44.5t-28 83.5q0 33 12 59t33 44.5t49.5 28t61.5 9.5q57 0 91 -21t60 -55l-25 -21q-20 29 -48.5 48.5t-79.5 19.5
q-54 0 -87 -29.5t-33 -80.5q0 -38 17 -61.5t64 -38.5l44 -14q49 -16 78.5 -44.5t29.5 -84.5q0 -37 -12.5 -65t-34.5 -47t-51 -28.5t-62 -9.5zM303 748l88 -137l-20 -14l-89 125l-134 -125l-19 16l136 135h38z" />
    <glyph glyph-name="Scedilla" unicode="&#x15e;" horiz-adv-x="495" 
d="M308 678q-41 0 -72.5 -12.5t-52.5 -34.5t-32 -52t-11 -64q0 -97 99 -130l65 -21q63 -21 96.5 -56.5t33.5 -100.5q0 -45 -14 -85t-42 -70t-69.5 -47t-96.5 -17h-3l-23 -61l3 -2q12 7 27 7q50 0 50 -55q0 -37 -24.5 -58.5t-64.5 -21.5q-29 0 -48 9.5t-27 23.5l20 19
q18 -26 55 -26q26 0 42.5 13.5t16.5 37.5q0 18 -10 29t-36 11h-33l28 75q-65 5 -106.5 34.5t-66.5 78.5l28 20q25 -50 65 -76t108 -26q48 0 82.5 15t57.5 40.5t34 59t11 71.5q0 52 -26 81t-79 46l-67 22q-122 38 -122 158q0 40 14 76t40.5 63t65 42.5t88.5 15.5
q73 0 117 -26.5t68 -74.5l-27 -19q-23 47 -62 67.5t-100 20.5z" />
    <glyph glyph-name="scedilla" unicode="&#x15f;" horiz-adv-x="411" 
d="M148 -203q-29 0 -48 9.5t-27 23.5l20 19q16 -26 55 -26q26 0 42.5 13.5t16.5 37.5q0 18 -10 29t-36 11h-33l28 75q-50 5 -85.5 28.5t-62.5 65.5l25 19q29 -44 63 -64.5t85 -20.5q55 0 90.5 30.5t35.5 88.5q0 40 -20 63.5t-62 37.5l-44 14q-51 16 -79 44.5t-28 83.5
q0 33 12 59t33 44.5t49.5 28t61.5 9.5q57 0 91 -21t60 -55l-25 -21q-20 29 -48.5 48.5t-79.5 19.5q-54 0 -87 -29.5t-33 -80.5q0 -38 17 -61.5t64 -38.5l44 -14q49 -16 78.5 -44.5t29.5 -84.5q0 -37 -12.5 -65t-34.5 -47t-51 -28.5t-62 -9.5h-1l-23 -61l3 -2q12 7 27 7
q50 0 50 -55q0 -37 -24.5 -58.5t-64.5 -21.5z" />
    <glyph glyph-name="Scaron" unicode="&#x160;" horiz-adv-x="495" 
d="M212 -12q-77 0 -125 30t-75 84l28 20q25 -50 65 -76t108 -26q48 0 82.5 15t57.5 40.5t34 59t11 71.5q0 52 -26 81t-79 46l-67 22q-122 38 -122 158q0 40 14 76t40.5 63t65 42.5t88.5 15.5q73 0 117 -26.5t68 -74.5l-27 -19q-23 47 -62 67.5t-100 20.5q-41 0 -72.5 -12.5
t-52.5 -34.5t-32 -52t-11 -64q0 -97 99 -130l65 -21q63 -21 96.5 -56.5t33.5 -100.5q0 -45 -14 -85t-42 -70t-69.5 -47t-96.5 -17zM305 780l-88 137l21 14l89 -125l133 125l20 -16l-137 -135h-38z" />
    <glyph glyph-name="scaron" unicode="&#x161;" horiz-adv-x="411" 
d="M181 -12q-60 0 -101.5 23.5t-71.5 71.5l25 19q29 -44 63 -64.5t85 -20.5q55 0 90.5 30.5t35.5 88.5q0 40 -20 63.5t-62 37.5l-44 14q-51 16 -79 44.5t-28 83.5q0 33 12 59t33 44.5t49.5 28t61.5 9.5q57 0 91 -21t60 -55l-25 -21q-20 29 -48.5 48.5t-79.5 19.5
q-54 0 -87 -29.5t-33 -80.5q0 -38 17 -61.5t64 -38.5l44 -14q49 -16 78.5 -44.5t29.5 -84.5q0 -37 -12.5 -65t-34.5 -47t-51 -28.5t-62 -9.5zM247 602l-88 137l21 14l89 -125l133 125l19 -16l-136 -135h-38z" />
    <glyph glyph-name="Tcommaaccent" unicode="&#x162;" horiz-adv-x="497" 
d="M349 666l-133 -666h-36l133 666h-215l7 32h465l-6 -32h-215zM182 -66q14 0 19.5 -6t5.5 -14q0 -5 -0.5 -10.5t-2.5 -12.5q-7 -24 -22 -55t-38 -56h-26q22 25 35 49.5t19 43.5q-14 0 -19 5.5t-5 13.5q0 3 0.5 7.5t2.5 12.5t8 15t23 7z" />
    <glyph glyph-name="tcommaaccent" unicode="&#x163;" horiz-adv-x="278" 
d="M89 0q-29 0 -29 24q0 8 3 25l85 429h-80l6 30h57q16 0 21.5 7t8.5 23l23 114h34l-29 -144h106l-6 -30h-107l-89 -448h99l-6 -30h-97zM107 -66q14 0 19.5 -6t5.5 -14q0 -5 -0.5 -10.5t-2.5 -12.5q-7 -24 -22 -55t-38 -56h-26q22 25 35 49.5t19 43.5q-14 0 -19 5.5t-5 13.5
q0 3 0.5 7.5t2.5 12.5t8 15t23 7z" />
    <glyph glyph-name="Tcaron" unicode="&#x164;" horiz-adv-x="497" 
d="M349 666l-133 -666h-36l133 666h-215l7 32h465l-6 -32h-215zM329 780l-88 137l21 14l89 -125l133 125l20 -16l-137 -135h-38z" />
    <glyph glyph-name="tcaron" unicode="&#x165;" horiz-adv-x="278" 
d="M89 0q-29 0 -29 24q0 8 3 25l85 429h-80l6 30h57q16 0 21.5 7t8.5 23l23 114h34l-29 -144h106l-6 -30h-107l-89 -448h99l-6 -30h-97zM294 565h-24l46 178h36z" />
    <glyph glyph-name="Tbar" unicode="&#x166;" horiz-adv-x="497" 
d="M288 360l-72 -360h-36l72 360h-162l5 28h162l56 278h-215l7 32h465l-6 -32h-215l-56 -278h162l-5 -28h-162z" />
    <glyph glyph-name="tbar" unicode="&#x167;" horiz-adv-x="281" 
d="M189 0h-97q-29 0 -29 24q0 8 3 25l45 225h-60l6 27h59l35 177h-80l6 30h57q16 0 21.5 7t8.5 23l23 114h34l-29 -144h106l-6 -30h-107l-35 -177h88l-6 -27h-88l-48 -244h99z" />
    <glyph glyph-name="Utilde" unicode="&#x168;" horiz-adv-x="582" 
d="M210 698l-88 -440q-8 -39 -11 -63.5t-3 -44.5q0 -63 35.5 -96.5t108.5 -33.5q45 0 78.5 11.5t58.5 39.5t42 74t31 114l87 439h36l-88 -442q-15 -78 -36 -129.5t-50 -82.5t-68 -43.5t-91 -12.5q-85 0 -132.5 39t-47.5 121q0 21 4 51t12 69l86 430h36zM264 843q38 42 80 42
q20 0 33.5 -7.5t32.5 -21.5q18 -14 30.5 -20t26.5 -6q29 0 61 32l14 -18q-38 -42 -80 -42q-20 0 -33.5 7.5t-32.5 21.5q-18 14 -30.5 20t-26.5 6q-29 0 -61 -32z" />
    <glyph glyph-name="utilde" unicode="&#x169;" horiz-adv-x="500" 
d="M165 508l-64 -320q-4 -20 -6 -40t-2 -32q0 -98 92 -98q32 0 61.5 14.5t52.5 44.5q18 23 33.5 54.5t25.5 79.5l60 297h34l-96 -478h74l-6 -30h-73q-29 0 -29 23q0 9 3 23l12 58h-7q-25 -58 -63 -87t-93 -29q-57 0 -86 32.5t-29 91.5q0 17 2 36t6 39l64 321h34zM174 665
q38 42 80 42q20 0 33.5 -7.5t32.5 -21.5q18 -14 30.5 -20t26.5 -6q29 0 61 32l14 -18q-38 -42 -80 -42q-20 0 -33.5 7.5t-32.5 21.5q-18 14 -30.5 20t-26.5 6q-29 0 -61 -32z" />
    <glyph glyph-name="Umacron" unicode="&#x16a;" horiz-adv-x="582" 
d="M210 698l-88 -440q-8 -39 -11 -63.5t-3 -44.5q0 -63 35.5 -96.5t108.5 -33.5q45 0 78.5 11.5t58.5 39.5t42 74t31 114l87 439h36l-88 -442q-15 -78 -36 -129.5t-50 -82.5t-68 -43.5t-91 -12.5q-85 0 -132.5 39t-47.5 121q0 21 4 51t12 69l86 430h36zM288 861h237l-6 -30
h-236z" />
    <glyph glyph-name="umacron" unicode="&#x16b;" horiz-adv-x="500" 
d="M165 508l-64 -320q-4 -20 -6 -40t-2 -32q0 -98 92 -98q32 0 61.5 14.5t52.5 44.5q18 23 33.5 54.5t25.5 79.5l60 297h34l-96 -478h74l-6 -30h-73q-29 0 -29 23q0 9 3 23l12 58h-7q-25 -58 -63 -87t-93 -29q-57 0 -86 32.5t-29 91.5q0 17 2 36t6 39l64 321h34zM199 683
h236l-5 -30h-237z" />
    <glyph glyph-name="Ubreve" unicode="&#x16c;" horiz-adv-x="582" 
d="M210 698l-88 -440q-8 -39 -11 -63.5t-3 -44.5q0 -63 35.5 -96.5t108.5 -33.5q45 0 78.5 11.5t58.5 39.5t42 74t31 114l87 439h36l-88 -442q-15 -78 -36 -129.5t-50 -82.5t-68 -43.5t-91 -12.5q-85 0 -132.5 39t-47.5 121q0 21 4 51t12 69l86 430h36zM396 781
q-46 0 -68.5 33t-36.5 88l22 9l11 -33q13 -37 29.5 -53t44.5 -16q29 0 48.5 15.5t46.5 54.5l22 32l21 -9q-14 -26 -28 -48t-30 -38t-36 -25.5t-46 -9.5z" />
    <glyph glyph-name="ubreve" unicode="&#x16d;" horiz-adv-x="500" 
d="M165 508l-64 -320q-4 -20 -6 -40t-2 -32q0 -98 92 -98q32 0 61.5 14.5t52.5 44.5q18 23 33.5 54.5t25.5 79.5l60 297h34l-96 -478h74l-6 -30h-73q-29 0 -29 23q0 9 3 23l12 58h-7q-25 -58 -63 -87t-93 -29q-57 0 -86 32.5t-29 91.5q0 17 2 36t6 39l64 321h34zM306 604
q-46 0 -69 33t-37 87l23 9l11 -33q13 -37 29 -52.5t45 -15.5t48.5 15t45.5 54l22 32l22 -9q-14 -25 -28 -47t-30.5 -38t-36 -25.5t-45.5 -9.5z" />
    <glyph glyph-name="Uring" unicode="&#x16e;" horiz-adv-x="582" 
d="M210 698l-88 -440q-8 -39 -11 -63.5t-3 -44.5q0 -63 35.5 -96.5t108.5 -33.5q45 0 78.5 11.5t58.5 39.5t42 74t31 114l87 439h36l-88 -442q-15 -78 -36 -129.5t-50 -82.5t-68 -43.5t-91 -12.5q-85 0 -132.5 39t-47.5 121q0 21 4 51t12 69l86 430h36zM393 763
q-41 0 -58.5 23.5t-17.5 55.5q0 53 28 84t74 31q41 0 58.5 -23.5t17.5 -55.5q0 -53 -28 -84t-74 -31zM396 787q29 0 46.5 15.5t23.5 43.5q3 14 3.5 22t0.5 13q0 24 -13 38t-41 14q-29 0 -46.5 -15.5t-23.5 -43.5q-3 -14 -3.5 -22t-0.5 -13q0 -24 13 -38t41 -14z" />
    <glyph glyph-name="uring" unicode="&#x16f;" horiz-adv-x="500" 
d="M165 508l-64 -320q-4 -20 -6 -40t-2 -32q0 -98 92 -98q32 0 61.5 14.5t52.5 44.5q18 23 33.5 54.5t25.5 79.5l60 297h34l-96 -478h74l-6 -30h-73q-29 0 -29 23q0 9 3 23l12 58h-7q-25 -58 -63 -87t-93 -29q-57 0 -86 32.5t-29 91.5q0 17 2 36t6 39l64 321h34zM302 585
q-41 0 -58.5 23.5t-17.5 55.5q0 53 28 84t74 31q41 0 58.5 -23.5t17.5 -55.5q0 -53 -28 -84t-74 -31zM305 609q29 0 46.5 15.5t23.5 43.5q3 14 3.5 22t0.5 13q0 24 -13 38t-41 14q-29 0 -46.5 -15.5t-23.5 -43.5q-3 -14 -3.5 -22t-0.5 -13q0 -24 13 -38t41 -14z" />
    <glyph glyph-name="Uhungarumlaut" unicode="&#x170;" horiz-adv-x="582" 
d="M210 698l-88 -440q-8 -39 -11 -63.5t-3 -44.5q0 -63 35.5 -96.5t108.5 -33.5q45 0 78.5 11.5t58.5 39.5t42 74t31 114l87 439h36l-88 -442q-15 -78 -36 -129.5t-50 -82.5t-68 -43.5t-91 -12.5q-85 0 -132.5 39t-47.5 121q0 21 4 51t12 69l86 430h36zM311 764l-20 14
l123 157l26 -18zM455 764l-20 14l123 157l26 -18z" />
    <glyph glyph-name="uhungarumlaut" unicode="&#x171;" horiz-adv-x="500" 
d="M165 508l-64 -320q-4 -20 -6 -40t-2 -32q0 -98 92 -98q32 0 61.5 14.5t52.5 44.5q18 23 33.5 54.5t25.5 79.5l60 297h34l-96 -478h74l-6 -30h-73q-29 0 -29 23q0 9 3 23l12 58h-7q-25 -58 -63 -87t-93 -29q-57 0 -86 32.5t-29 91.5q0 17 2 36t6 39l64 321h34zM220 587
l-19 13l123 157l26 -18zM364 587l-19 13l123 157l26 -18z" />
    <glyph glyph-name="Uogonek" unicode="&#x172;" horiz-adv-x="582" 
d="M210 698l-88 -440q-8 -39 -11 -63.5t-3 -44.5q0 -63 35.5 -96.5t108.5 -33.5q45 0 78.5 11.5t58.5 39.5t42 74t31 114l87 439h36l-88 -442q-12 -59 -26 -101.5t-32 -72.5t-40.5 -49.5t-50.5 -34.5q-70 -36 -101 -66.5t-31 -68.5q0 -20 12.5 -30t30.5 -10q19 0 33 7.5
t22 16.5l17 -17q-11 -14 -30 -23.5t-44 -9.5q-30 0 -51 15.5t-21 47.5q0 35 26.5 66t83.5 59l-2 5q-8 -1 -20.5 -1.5t-20.5 -0.5q-85 0 -132.5 39t-47.5 121q0 24 4 52.5t12 67.5l86 430h36z" />
    <glyph glyph-name="uogonek" unicode="&#x173;" horiz-adv-x="500" 
d="M165 508l-64 -320q-4 -20 -6 -40t-2 -32q0 -98 92 -98q32 0 61.5 14.5t52.5 44.5q18 23 33.5 54.5t25.5 79.5l60 297h34l-96 -478h74l-6 -30q-34 -21 -57.5 -37.5t-38.5 -32.5t-21.5 -32t-6.5 -35q0 -20 12.5 -30t30.5 -10q19 0 33 7.5t22 16.5l17 -17q-11 -14 -30 -23.5
t-44 -9.5q-30 0 -51 15.5t-21 47.5q0 39 28.5 69t94.5 66l-1 5h-40q-29 0 -29 23q0 9 3 23l12 58h-7q-25 -58 -63 -87t-93 -29q-57 0 -86 32.5t-29 91.5q0 17 2 36t6 39l64 321h34z" />
    <glyph glyph-name="Wcircumflex" unicode="&#x174;" horiz-adv-x="781" 
d="M132 0l-19 698h35l10 -444l3 -223h6l92 223l191 444h51l18 -444l5 -223h6l88 219l191 448h38l-302 -698h-49l-20 475l-3 189h-6l-79 -191l-205 -473h-51zM526 926l88 -137l-21 -14l-88 125l-134 -125l-19 16l136 135h38z" />
    <glyph glyph-name="wcircumflex" unicode="&#x175;" horiz-adv-x="652" 
d="M72 508h32l18 -306l7 -172h6l74 172l139 306h46l18 -306l7 -172h6l75 172l138 306h34l-232 -508h-48l-13 254l-10 223h-5l-99 -224l-115 -253h-48zM421 748l88 -137l-20 -14l-89 125l-134 -125l-19 16l136 135h38z" />
    <glyph glyph-name="Ycircumflex" unicode="&#x176;" horiz-adv-x="496" 
d="M179 0l58 288l-130 410h36l116 -368h6l264 368h40l-296 -410l-58 -288h-36zM383 926l88 -137l-21 -14l-88 125l-134 -125l-19 16l136 135h38z" />
    <glyph glyph-name="ycircumflex" unicode="&#x177;" horiz-adv-x="423" 
d="M410 508h36l-353 -679q-8 -17 -17.5 -23t-26.5 -6h-72l6 30h76l81 157l-71 521h34l34 -265l25 -213h6l106 213zM310 748l88 -137l-20 -14l-89 125l-134 -125l-19 16l136 135h38z" />
    <glyph glyph-name="Ydieresis" unicode="&#x178;" horiz-adv-x="496" 
d="M179 0l58 288l-130 410h36l116 -368h6l264 368h40l-296 -410l-58 -288h-36zM267 812q-12 0 -17.5 6t-5.5 14q0 9 3 18q4 12 10.5 17.5t20.5 5.5q12 0 17.5 -6t5.5 -14q0 -9 -3 -18q-4 -12 -10.5 -17.5t-20.5 -5.5zM432 812q-12 0 -17.5 6t-5.5 14q0 9 3 18
q4 12 10.5 17.5t20.5 5.5q12 0 17.5 -6t5.5 -14q0 -9 -3 -18q-4 -12 -10.5 -17.5t-20.5 -5.5z" />
    <glyph glyph-name="Zacute" unicode="&#x179;" horiz-adv-x="496" 
d="M413 0h-436l7 34l502 632h-361l6 32h403l-7 -34l-502 -632h395zM332 764l-20 13l123 158l27 -19z" />
    <glyph glyph-name="zacute" unicode="&#x17a;" horiz-adv-x="395" 
d="M-6 0l5 29l355 449h-268l6 30h307l-6 -29l-354 -449h280l-6 -30h-319zM249 587l-20 13l123 158l27 -19z" />
    <glyph glyph-name="Zdotaccent" unicode="&#x17b;" horiz-adv-x="496" 
d="M413 0h-436l7 34l502 632h-361l6 32h403l-7 -34l-502 -632h395zM347 815q-12 0 -17.5 6t-5.5 14q0 9 3 18q4 12 10.5 17.5t20.5 5.5q12 0 17.5 -6t5.5 -14q0 -9 -3 -18q-4 -12 -10.5 -17.5t-20.5 -5.5z" />
    <glyph glyph-name="zdotaccent" unicode="&#x17c;" horiz-adv-x="395" 
d="M-6 0l5 29l355 449h-268l6 30h307l-6 -29l-354 -449h280l-6 -30h-319zM266 636q-12 0 -17.5 6t-5.5 14q0 9 3 18q4 12 10.5 17.5t20.5 5.5q12 0 17.5 -6t5.5 -14q0 -9 -3 -18q-4 -12 -10.5 -17.5t-20.5 -5.5z" />
    <glyph glyph-name="Zcaron" unicode="&#x17d;" horiz-adv-x="496" 
d="M413 0h-436l7 34l502 632h-361l6 32h403l-7 -34l-502 -632h395zM324 780l-88 137l21 14l89 -125l133 125l20 -16l-137 -135h-38z" />
    <glyph glyph-name="zcaron" unicode="&#x17e;" horiz-adv-x="395" 
d="M-6 0l5 29l355 449h-268l6 30h307l-6 -29l-354 -449h280l-6 -30h-319zM242 602l-88 137l21 14l89 -125l133 125l19 -16l-136 -135h-38z" />
    <glyph glyph-name="uni018F" unicode="&#x18f;" horiz-adv-x="599" 
d="M263 -12q-100 0 -153 64t-53 175q0 31 3 63.5t8 64.5h458q7 40 9.5 67.5t2.5 47.5q0 94 -42 151t-130 57q-72 0 -128 -43.5t-91 -123.5l-31 15q38 82 100.5 133t151.5 51q100 0 153 -64t53 -175q0 -39 -5 -81.5t-13 -80.5q-13 -66 -37 -124t-60.5 -102t-85.5 -69.5
t-110 -25.5zM264 20q46 0 87.5 19t75 57t57.5 95t36 134h-419q-5 -30 -7 -54.5t-2 -42.5q0 -94 42.5 -151t129.5 -57z" />
    <glyph glyph-name="florin" unicode="&#x192;" horiz-adv-x="442" 
d="M-70 -104h151l116 413h-144l7 31h146l88 317q6 22 17 31.5t34 9.5h152l-8 -30h-157l-92 -328h178l-8 -31h-179l-112 -402q-6 -22 -17 -31.5t-32 -9.5h-148z" />
    <glyph glyph-name="Ohorn" unicode="&#x1a0;" horiz-adv-x="599" 
d="M622 809l-21 -105q-3 -15 -11 -23.5t-26 -8.5h-88l-1 -5q54 -24 76.5 -74t22.5 -122q0 -39 -4.5 -81.5t-12.5 -80.5q-13 -66 -37.5 -124t-61 -102t-85 -69.5t-110.5 -25.5q-100 0 -153 64t-53 175q0 39 4.5 81.5t12.5 80.5q13 66 37.5 124t61 102t85 69.5t110.5 25.5
q43 0 76 -12h125l22 111h31zM265 20q94 0 159.5 72.5t90.5 203.5l14 73q5 29 7 55t2 46q0 94 -42 151t-130 57q-94 0 -159.5 -72.5t-90.5 -203.5l-14 -73q-5 -29 -7 -55t-2 -46q0 -94 42 -151t130 -57z" />
    <glyph glyph-name="ohorn" unicode="&#x1a1;" horiz-adv-x="487" 
d="M205 -12q-75 0 -115.5 48t-40.5 131q0 30 3.5 61t9.5 60q10 51 29 93.5t47 73.5t64 48t80 17q37 0 66 -12h86l22 112h31l-21 -106q-3 -15 -11 -23t-26 -8h-57l-1 -6q38 -19 52.5 -56t14.5 -80q0 -30 -3.5 -61t-9.5 -60q-10 -51 -29 -93.5t-47 -73.5t-64 -48t-80 -17z
M208 18q75 0 119 53.5t61 146.5l11 58q3 17 4 32.5t1 32.5q0 72 -30.5 110.5t-94.5 38.5q-75 0 -119 -53.5t-61 -146.5l-11 -58q-3 -17 -4 -32.5t-1 -32.5q0 -72 30.5 -110.5t94.5 -38.5z" />
    <glyph glyph-name="Uhorn" unicode="&#x1af;" horiz-adv-x="585" 
d="M210 698l-88 -440q-8 -39 -11 -63.5t-3 -44.5q0 -63 36 -96.5t108 -33.5q45 0 78.5 11.5t58.5 39.5t42 73.5t31 114.5l87 439h75l22 111h31l-20 -105q-3 -15 -11.5 -23.5t-25.5 -8.5h-40l-83 -416q-15 -77 -35.5 -128.5t-49.5 -82.5t-68.5 -44t-91.5 -13q-85 0 -132.5 39
t-47.5 121q0 24 4 52.5t12 67.5l86 430h36z" />
    <glyph glyph-name="uhorn" unicode="&#x1b0;" horiz-adv-x="503" 
d="M351 0q-29 0 -29 23q0 9 3 23l12 58h-7q-25 -58 -63 -87t-93 -29q-57 0 -86 32.5t-29 91.5q0 17 2 36t6 39l64 321h34l-64 -320q-4 -20 -6 -40t-2 -32q0 -98 92 -98q32 0 61.5 14.5t52.5 44.5q18 23 33.5 54.5t25.5 79.5l60 297h77l22 112h31l-21 -106q-3 -15 -11 -23
t-26 -8h-43l-91 -453h74l-6 -30h-73z" />
    <glyph glyph-name="Aringacute" unicode="&#x1fa;" horiz-adv-x="543" 
d="M434 0l-32 228h-273l-111 -228h-38l344 698h48l97 -698h-35zM359 548l-15 115h-5l-55 -115l-140 -290h255zM391 980l-17 13l88 105l23 -19zM355 761q-40 0 -57 23.5t-17 55.5q0 52 29 82.5t76 30.5q40 0 57 -23.5t17 -55.5q0 -52 -29 -82.5t-76 -30.5zM360 785
q28 0 45.5 15.5t24.5 42.5q3 14 3.5 21.5t0.5 12.5q0 23 -13.5 37.5t-39.5 14.5q-28 0 -45.5 -15.5t-24.5 -42.5q-3 -14 -3.5 -21.5t-0.5 -12.5q0 -23 13.5 -37.5t39.5 -14.5z" />
    <glyph glyph-name="aringacute" unicode="&#x1fb;" horiz-adv-x="517" 
d="M369 0q-29 0 -29 23q0 9 3 23l13 65h-7q-23 -57 -60.5 -90t-91.5 -33q-36 0 -64 13t-46.5 37t-28 57t-9.5 73q0 30 3.5 60.5t9.5 59.5q10 51 29 93.5t46.5 73.5t63.5 48t80 17q54 0 86.5 -27.5t42.5 -74.5h7l18 90h34l-95 -478h74l-6 -30h-73zM204 18q28 0 50 10t45 33
q25 25 46.5 64.5t30.5 85.5l27 137q4 23 -1 48t-20.5 46t-40.5 34.5t-60 13.5q-77 0 -120.5 -53t-61.5 -147l-11 -56q-3 -16 -4 -31.5t-1 -34.5q0 -33 7 -60.5t22 -47.5t37.5 -31t54.5 -11zM334 803l-17 13l88 105l23 -19zM329 776q40 0 57 -23.5t17 -55.5q0 -52 -29 -82.5
t-76 -30.5q-40 0 -57 23.5t-17 55.5q0 52 29 82.5t76 30.5zM324 752q-28 0 -45.5 -15.5t-24.5 -42.5q-3 -14 -3.5 -21.5t-0.5 -12.5q0 -23 13.5 -37.5t39.5 -14.5q28 0 45.5 15.5t24.5 42.5q3 14 3.5 21.5t0.5 12.5q0 23 -13.5 37.5t-39.5 14.5z" />
    <glyph glyph-name="AEacute" unicode="&#x1fc;" horiz-adv-x="802" 
d="M383 228h-218l-154 -228h-40l474 698h382l-6 -32h-315l-59 -296h296l-6 -32h-296l-62 -306h316l-6 -32h-352zM461 666l-274 -408h202l81 408h-9zM541 764l-20 13l123 158l27 -19z" />
    <glyph glyph-name="aeacute" unicode="&#x1fd;" horiz-adv-x="762" 
d="M175 18q28 0 56 9t51 26.5t40 44t23 61.5l14 81l-141 -7q-73 -4 -106 -26.5t-41 -60.5q-4 -18 -4.5 -25.5t-0.5 -15.5q0 -42 27.5 -64.5t81.5 -22.5zM585 491q-35 0 -65 -15t-54 -42.5t-40.5 -65t-24.5 -82.5l-4 -17q92 1 150.5 11t91.5 27t45 40t12 51q0 41 -26 67
t-85 26zM168 -12q-66 0 -101 29t-35 86q0 79 45.5 115t139.5 41l148 8l13 66q2 13 3 25t1 23q0 24 -5.5 44t-18.5 34.5t-34.5 22.5t-53.5 8q-54 0 -87.5 -21.5t-60.5 -69.5l-24 17q28 49 69 76.5t107 27.5q35 0 59.5 -9t40.5 -25.5t23.5 -39t8.5 -49.5h8q29 58 72.5 90.5
t103.5 32.5q66 0 103.5 -33t37.5 -88q0 -33 -14 -60.5t-51.5 -48.5t-103.5 -34t-169 -15l-4 -30t-2 -26q0 -79 29 -123t100 -44q60 0 97 31t67 85l24 -16q-35 -66 -79.5 -98t-109.5 -32q-66 0 -104.5 36.5t-46.5 103.5h-7q-18 -64 -69 -102t-120 -38zM434 587l-20 13
l123 158l27 -19z" />
    <glyph glyph-name="Oslashacute" unicode="&#x1fe;" horiz-adv-x="599" 
d="M112 117l209 262l186 226q-20 35 -54.5 54t-85.5 19q-94 0 -159.5 -72t-91.5 -204l-14 -73q-5 -29 -7.5 -55t-2.5 -46q0 -29 4 -58t14 -53h2zM264 20q94 0 159.5 72t91.5 204l14 73q5 29 7.5 55t2.5 46q0 29 -4 58t-14 53h-2l-209 -262l-186 -226q20 -35 54.5 -54
t85.5 -19zM263 -12q-54 0 -94.5 19.5t-66.5 55.5l-82 -99l-22 20l88 106q-29 56 -29 137q0 39 4.5 81.5t12.5 80.5q13 66 37.5 124t61 102t85 69.5t110.5 25.5q54 0 94.5 -19.5t66.5 -55.5l82 99l22 -20l-88 -106q29 -56 29 -137q0 -39 -4.5 -81.5t-12.5 -80.5
q-13 -66 -37.5 -124t-61 -102t-85.5 -69.5t-110 -25.5zM386 764l-20 13l123 158l27 -19z" />
    <glyph glyph-name="oslashacute" unicode="&#x1ff;" horiz-adv-x="487" 
d="M228 257l151 186q-30 47 -100 47q-75 0 -119.5 -53.5t-61.5 -146.5q-6 -35 -10.5 -66t-4.5 -46v-21.5t1 -25t3 -24t5 -20.5h3zM207 18q75 0 119.5 53.5t61.5 146.5q6 35 10.5 66t4.5 46v21.5t-1 25t-3 24t-5 20.5h-3l-133 -170l-151 -186q30 -47 100 -47zM204 -12
q-39 0 -68.5 13.5t-49.5 38.5l-58 -68l-18 16l61 75q-22 44 -22 104q0 62 12 121q10 51 29 93.5t47 73.5t64 48t81 17q39 0 68.5 -13.5t49.5 -38.5l58 68l18 -16l-61 -75q22 -44 22 -104q0 -30 -3 -61t-9 -60q-10 -51 -29 -93.5t-47 -73.5t-64 -48t-81 -17zM296 587l-20 13
l123 158l27 -19z" />
    <glyph glyph-name="Scommaaccent" unicode="&#x218;" horiz-adv-x="495" 
d="M212 -12q-77 0 -125 30t-75 84l28 20q25 -50 65 -76t108 -26q48 0 82.5 15t57.5 40.5t34 59t11 71.5q0 52 -26 81t-79 46l-67 22q-122 38 -122 158q0 40 14 76t40.5 63t65 42.5t88.5 15.5q73 0 117 -26.5t68 -74.5l-27 -19q-23 47 -62 67.5t-100 20.5q-41 0 -72.5 -12.5
t-52.5 -34.5t-32 -52t-11 -64q0 -97 99 -130l65 -21q63 -21 96.5 -56.5t33.5 -100.5q0 -45 -14 -85t-42 -70t-69.5 -47t-96.5 -17zM198 -66q14 0 19.5 -6t5.5 -14q0 -5 -0.5 -10.5t-2.5 -12.5q-7 -24 -22 -55t-38 -56h-26q22 25 35 49.5t19 43.5q-14 0 -19 5.5t-5 13.5
q0 3 0.5 7.5t2.5 12.5t8 15t23 7z" />
    <glyph glyph-name="scommaaccent" unicode="&#x219;" horiz-adv-x="411" 
d="M181 -12q-60 0 -101.5 23.5t-71.5 71.5l25 19q29 -44 63 -64.5t85 -20.5q55 0 90.5 30.5t35.5 88.5q0 40 -20 63.5t-62 37.5l-44 14q-51 16 -79 44.5t-28 83.5q0 33 12 59t33 44.5t49.5 28t61.5 9.5q57 0 91 -21t60 -55l-25 -21q-20 29 -48.5 48.5t-79.5 19.5
q-54 0 -87 -29.5t-33 -80.5q0 -38 17 -61.5t64 -38.5l44 -14q49 -16 78.5 -44.5t29.5 -84.5q0 -37 -12.5 -65t-34.5 -47t-51 -28.5t-62 -9.5zM143 -66q14 0 19.5 -6t5.5 -14q0 -5 -0.5 -10.5t-2.5 -12.5q-7 -24 -22 -55t-38 -56h-26q22 25 35 49.5t19 43.5q-14 0 -19 5.5
t-5 13.5q0 3 0.5 7.5t2.5 12.5t8 15t23 7z" />
    <glyph glyph-name="uni021A" unicode="&#x21a;" horiz-adv-x="497" 
d="M349 666l-133 -666h-36l133 666h-215l7 32h465l-6 -32h-215zM182 -66q14 0 19.5 -6t5.5 -14q0 -5 -0.5 -10.5t-2.5 -12.5q-7 -24 -22 -55t-38 -56h-26q22 25 35 49.5t19 43.5q-14 0 -19 5.5t-5 13.5q0 3 0.5 7.5t2.5 12.5t8 15t23 7z" />
    <glyph glyph-name="uni021B" unicode="&#x21b;" horiz-adv-x="278" 
d="M89 0q-29 0 -29 24q0 8 3 25l85 429h-80l6 30h57q16 0 21.5 7t8.5 23l23 114h34l-29 -144h106l-6 -30h-107l-89 -448h99l-6 -30h-97zM107 -66q14 0 19.5 -6t5.5 -14q0 -5 -0.5 -10.5t-2.5 -12.5q-7 -24 -22 -55t-38 -56h-26q22 25 35 49.5t19 43.5q-14 0 -19 5.5t-5 13.5
q0 3 0.5 7.5t2.5 12.5t8 15t23 7z" />
    <glyph glyph-name="uni0237" unicode="&#x237;" horiz-adv-x="217" 
d="M-69 -170h74l135 678h34l-133 -669q-5 -21 -14 -30t-32 -9h-70z" />
    <glyph glyph-name="uni0259" unicode="&#x259;" horiz-adv-x="458" 
d="M171 -12q-63 0 -101.5 32t-38.5 92q0 31 13.5 60t50.5 52t103.5 37.5t172.5 16.5q2 13 3 25.5t1 20.5q0 86 -32 126t-100 40q-57 0 -94.5 -31t-66.5 -85l-24 16q35 67 80 98.5t106 31.5q165 0 165 -194q0 -26 -3 -53.5t-8 -52.5q-11 -53 -31 -95.5t-49.5 -73t-66.5 -47
t-80 -16.5zM174 17q39 0 70 15t54.5 42.5t39.5 65.5t25 84l5 27q-93 -2 -152 -13t-92.5 -29t-46 -42.5t-12.5 -52.5q0 -46 27.5 -71.5t81.5 -25.5z" />
    <glyph glyph-name="uni02BB" unicode="&#x2bb;" 
d="M276 598q-14 0 -19.5 6t-5.5 14v8.5t2 9.5q6 25 22 57.5t39 58.5h26q-22 -25 -35 -49.5t-19 -43.5q14 0 19 -5.5t5 -13.5q0 -3 -0.5 -7.5t-2.5 -12.5t-8 -15t-23 -7z" />
    <glyph glyph-name="uni02BC" unicode="&#x2bc;" 
d="M270 562h-24l46 178h36z" />
    <glyph glyph-name="circumflex" unicode="&#x2c6;" 
d="M315 748l88 -137l-20 -14l-89 125l-134 -125l-19 16l136 135h38z" />
    <glyph glyph-name="caron" unicode="&#x2c7;" 
d="M259 602l-88 137l21 14l89 -125l133 125l19 -16l-136 -135h-38z" />
    <glyph glyph-name="breve" unicode="&#x2d8;" 
d="M280 604q-46 0 -69 33t-37 87l23 9l11 -33q13 -37 29 -52.5t45 -15.5t48.5 15t45.5 54l22 32l22 -9q-14 -25 -28 -47t-30.5 -38t-36 -25.5t-45.5 -9.5z" />
    <glyph glyph-name="dotaccent" unicode="&#x2d9;" 
d="M283 636q-12 0 -17.5 6t-5.5 14q0 9 3 18q4 12 10.5 17.5t20.5 5.5q12 0 17.5 -6t5.5 -14q0 -9 -3 -18q-4 -12 -10.5 -17.5t-20.5 -5.5z" />
    <glyph glyph-name="ring" unicode="&#x2da;" 
d="M276 585q-41 0 -58.5 23.5t-17.5 55.5q0 53 28 84t74 31q41 0 58.5 -23.5t17.5 -55.5q0 -53 -28 -84t-74 -31zM279 609q29 0 46.5 15.5t23.5 43.5q3 14 3.5 22t0.5 13q0 24 -13 38t-41 14q-29 0 -46.5 -15.5t-23.5 -43.5q-3 -14 -3.5 -22t-0.5 -13q0 -24 13 -38t41 -14z
" />
    <glyph glyph-name="ogonek" unicode="&#x2db;" 
d="M188 -203q-30 0 -51 15.5t-21 47.5q0 39 28 69.5t94 66.5v18l27 3l6 -17q-34 -21 -57.5 -37.5t-38.5 -32.5t-21.5 -32t-6.5 -35q0 -20 12.5 -30t30.5 -10q19 0 33 7.5t22 16.5l17 -17q-11 -14 -30 -23.5t-44 -9.5z" />
    <glyph glyph-name="tilde" unicode="&#x2dc;" 
d="M148 665q38 42 80 42q20 0 33.5 -7.5t32.5 -21.5q18 -14 30.5 -20t26.5 -6q29 0 61 32l14 -18q-38 -42 -80 -42q-20 0 -33.5 7.5t-32.5 21.5q-18 14 -30.5 20t-26.5 6q-29 0 -61 -32z" />
    <glyph glyph-name="hungarumlaut" unicode="&#x2dd;" 
d="M194 587l-19 13l123 157l26 -18zM338 587l-19 13l123 157l26 -18z" />
    <glyph glyph-name="uni0300" unicode="&#x300;" horiz-adv-x="0" 
d="M-52 742l31 15l65 -160l-22 -10z" />
    <glyph glyph-name="uni0301" unicode="&#x301;" horiz-adv-x="0" 
d="M-3 587l-20 13l123 158l27 -19z" />
    <glyph glyph-name="uni0302" unicode="&#x302;" horiz-adv-x="0" 
d="M46 748l88 -137l-20 -14l-89 125l-134 -125l-19 16l136 135h38z" />
    <glyph glyph-name="uni0303" unicode="&#x303;" horiz-adv-x="0" 
d="M-121 665q38 42 80 42q20 0 33.5 -7.5t32.5 -21.5q18 -14 30.5 -20t26.5 -6q29 0 61 32l14 -18q-38 -42 -80 -42q-20 0 -33.5 7.5t-32.5 21.5q-18 14 -30.5 20t-26.5 6q-29 0 -61 -32z" />
    <glyph glyph-name="uni0304" unicode="&#x304;" horiz-adv-x="0" 
d="M-96 683h236l-5 -30h-237z" />
    <glyph glyph-name="uni0306" unicode="&#x306;" horiz-adv-x="0" 
d="M11 604q-46 0 -69 33t-37 87l23 9l11 -33q13 -37 29 -52.5t45 -15.5t48.5 15t45.5 54l22 32l22 -9q-14 -25 -28 -47t-30.5 -38t-36 -25.5t-45.5 -9.5z" />
    <glyph glyph-name="uni0307" unicode="&#x307;" horiz-adv-x="0" 
d="M14 636q-12 0 -17.5 6t-5.5 14q0 9 3 18q4 12 10.5 17.5t20.5 5.5q12 0 17.5 -6t5.5 -14q0 -9 -3 -18q-4 -12 -10.5 -17.5t-20.5 -5.5z" />
    <glyph glyph-name="uni0308" unicode="&#x308;" horiz-adv-x="0" 
d="M-69 636q-12 0 -17.5 6t-5.5 14q0 9 3 18q4 12 10.5 17.5t20.5 5.5q12 0 17.5 -6t5.5 -14q0 -9 -3 -18q-4 -12 -10.5 -17.5t-20.5 -5.5zM96 636q-12 0 -17.5 6t-5.5 14q0 9 3 18q4 12 10.5 17.5t20.5 5.5q12 0 17.5 -6t5.5 -14q0 -9 -3 -18q-4 -12 -10.5 -17.5
t-20.5 -5.5z" />
    <glyph glyph-name="uni0309" unicode="&#x309;" horiz-adv-x="0" 
d="M-47 744h117q28 0 28 -23q0 -5 -1.5 -10t-6 -12t-12.5 -17.5t-20 -26.5l-55 -72l-20 12l86 121h-121z" />
    <glyph glyph-name="uni030A" unicode="&#x30a;" horiz-adv-x="0" 
d="M7 585q-41 0 -58.5 23.5t-17.5 55.5q0 53 28 84t74 31q41 0 58.5 -23.5t17.5 -55.5q0 -53 -28 -84t-74 -31zM10 609q29 0 46.5 15.5t23.5 43.5q3 14 3.5 22t0.5 13q0 24 -13 38t-41 14q-29 0 -46.5 -15.5t-23.5 -43.5q-3 -14 -3.5 -22t-0.5 -13q0 -24 13 -38t41 -14z" />
    <glyph glyph-name="uni030B" unicode="&#x30b;" horiz-adv-x="0" 
d="M-75 587l-19 13l123 157l26 -18zM69 587l-19 13l123 157l26 -18z" />
    <glyph glyph-name="uni030C" unicode="&#x30c;" horiz-adv-x="0" 
d="M-10 602l-88 137l21 14l89 -125l133 125l19 -16l-136 -135h-38z" />
    <glyph glyph-name="uni0312" unicode="&#x312;" horiz-adv-x="0" 
d="M7 598q-14 0 -19.5 6t-5.5 14v8.5t2 9.5q6 25 22 57.5t39 58.5h26q-22 -25 -35 -49.5t-19 -43.5q14 0 19 -5.5t5 -13.5q0 -3 -0.5 -7.5t-2.5 -12.5t-8 -15t-23 -7z" />
    <glyph glyph-name="uni0315" unicode="&#x315;" horiz-adv-x="0" 
d="M1 562h-24l46 178h36z" />
    <glyph glyph-name="uni031B" unicode="&#x31b;" horiz-adv-x="0" 
d="M41 514q-6 -31 -38 -31h-73l5 25h73l22 112h31z" />
    <glyph glyph-name="uni0323" unicode="&#x323;" horiz-adv-x="0" 
d="M-27 -142q-12 0 -17.5 6t-5.5 14q0 9 3 18q4 12 10.5 17.5t20.5 5.5q12 0 17.5 -6t5.5 -14q0 -9 -3 -18q-4 -12 -10.5 -17.5t-20.5 -5.5z" />
    <glyph glyph-name="uni0326" unicode="&#x326;" horiz-adv-x="0" 
d="M-13 -66q14 0 19.5 -6t5.5 -14q0 -5 -0.5 -10.5t-2.5 -12.5q-7 -24 -22 -55t-38 -56h-26q22 25 35 49.5t19 43.5q-14 0 -19 5.5t-5 13.5q0 3 0.5 7.5t2.5 12.5t8 15t23 7z" />
    <glyph glyph-name="uni0327" unicode="&#x327;" horiz-adv-x="0" 
d="M-22 -203q-29 0 -48 9.5t-27 23.5l20 19q18 -26 55 -26q26 0 42.5 13.5t16.5 37.5q0 18 -10 29t-36 11h-33l33 90h25l-29 -77l3 -2q12 7 27 7q50 0 50 -55q0 -37 -24.5 -58.5t-64.5 -21.5z" />
    <glyph glyph-name="uni0328" unicode="&#x328;" horiz-adv-x="0" 
d="M-81 -203q-30 0 -51 15.5t-21 47.5q0 39 28 69.5t94 66.5v18l27 3l6 -17q-34 -21 -57.5 -37.5t-38.5 -32.5t-21.5 -32t-6.5 -35q0 -20 12.5 -30t30.5 -10q19 0 33 7.5t22 16.5l17 -17q-11 -14 -30 -23.5t-44 -9.5z" />
    <glyph glyph-name="pi" unicode="&#x3c0;" horiz-adv-x="520" 
d="M354 0q-14 0 -21 6.5t-7 16.5q0 7 3 22l86 433h-231l-96 -478h-34l96 478h-84l6 30h467l-6 -30h-84l-89 -448h83l-6 -30h-83z" />
    <glyph glyph-name="uni0E3F" unicode="&#xe3f;" horiz-adv-x="545" 
d="M211 -82h-29l20 103h-156l131 656h157l21 103h29l-20 -103h10q64 0 100.5 -33t36.5 -96q0 -71 -35.5 -119.5t-98.5 -59.5l-1 -7q50 -9 74 -43.5t24 -85.5q0 -44 -11 -82.5t-34.5 -67t-61 -45.5t-91.5 -17h-45zM276 380l53 266h-123l-53 -266h123zM356 646l-53 -266h22
q51 0 91 27t50 78q6 28 7.5 41.5t1.5 22.5q0 55 -31 76t-78 21h-10zM210 52l60 297h-123l-59 -297h122zM297 349l-60 -297h45q61 0 98 28.5t48 82.5q6 29 8 45.5t2 25.5q0 23 -6 44t-19 36.5t-34.5 25t-52.5 9.5h-29z" />
    <glyph glyph-name="Wgrave" unicode="&#x1e80;" horiz-adv-x="781" 
d="M132 0l-19 698h35l10 -444l3 -223h6l92 223l191 444h51l18 -444l5 -223h6l88 219l191 448h38l-302 -698h-49l-20 475l-3 189h-6l-79 -191l-205 -473h-51zM428 920l31 15l65 -160l-22 -10z" />
    <glyph glyph-name="wgrave" unicode="&#x1e81;" horiz-adv-x="652" 
d="M72 508h32l18 -306l7 -172h6l74 172l139 306h46l18 -306l7 -172h6l75 172l138 306h34l-232 -508h-48l-13 254l-10 223h-5l-99 -224l-115 -253h-48zM323 742l31 15l65 -160l-22 -10z" />
    <glyph glyph-name="Wacute" unicode="&#x1e82;" horiz-adv-x="781" 
d="M132 0l-19 698h35l10 -444l3 -223h6l92 223l191 444h51l18 -444l5 -223h6l88 219l191 448h38l-302 -698h-49l-20 475l-3 189h-6l-79 -191l-205 -473h-51zM477 764l-20 13l123 158l27 -19z" />
    <glyph glyph-name="wacute" unicode="&#x1e83;" horiz-adv-x="652" 
d="M72 508h32l18 -306l7 -172h6l74 172l139 306h46l18 -306l7 -172h6l75 172l138 306h34l-232 -508h-48l-13 254l-10 223h-5l-99 -224l-115 -253h-48zM372 587l-20 13l123 158l27 -19z" />
    <glyph glyph-name="Wdieresis" unicode="&#x1e84;" horiz-adv-x="781" 
d="M132 0l-19 698h35l10 -444l3 -223h6l92 223l191 444h51l18 -444l5 -223h6l88 219l191 448h38l-302 -698h-49l-20 475l-3 189h-6l-79 -191l-205 -473h-51zM410 812q-12 0 -17.5 6t-5.5 14q0 9 3 18q4 12 10.5 17.5t20.5 5.5q12 0 17.5 -6t5.5 -14q0 -9 -3 -18
q-4 -12 -10.5 -17.5t-20.5 -5.5zM575 812q-12 0 -17.5 6t-5.5 14q0 9 3 18q4 12 10.5 17.5t20.5 5.5q12 0 17.5 -6t5.5 -14q0 -9 -3 -18q-4 -12 -10.5 -17.5t-20.5 -5.5z" />
    <glyph glyph-name="wdieresis" unicode="&#x1e85;" horiz-adv-x="652" 
d="M72 508h32l18 -306l7 -172h6l74 172l139 306h46l18 -306l7 -172h6l75 172l138 306h34l-232 -508h-48l-13 254l-10 223h-5l-99 -224l-115 -253h-48zM306 636q-12 0 -17.5 6t-5.5 14q0 9 3 18q4 12 10.5 17.5t20.5 5.5q12 0 17.5 -6t5.5 -14q0 -9 -3 -18
q-4 -12 -10.5 -17.5t-20.5 -5.5zM471 636q-12 0 -17.5 6t-5.5 14q0 9 3 18q4 12 10.5 17.5t20.5 5.5q12 0 17.5 -6t5.5 -14q0 -9 -3 -18q-4 -12 -10.5 -17.5t-20.5 -5.5z" />
    <glyph glyph-name="uni1E9E" unicode="&#x1e9e;" horiz-adv-x="630" 
d="M341 19q67 0 112 39.5t57 102.5q4 21 6.5 35t3.5 23.5t1.5 16t0.5 11.5q0 58 -34 89.5t-102 31.5h-51l6 33l225 265h-355l-133 -666h-36l140 698h429l-7 -35l-222 -260l-1 -5h18q75 0 117 -39t42 -111q0 -24 -3 -48t-8 -43q-20 -80 -74.5 -124.5t-132.5 -44.5
q-70 0 -110.5 26t-63.5 76l28 20q21 -46 54 -68.5t93 -22.5z" />
    <glyph glyph-name="uni1EA0" unicode="&#x1ea0;" horiz-adv-x="543" 
d="M434 0l-32 228h-273l-111 -228h-38l344 698h48l97 -698h-35zM359 548l-15 115h-5l-55 -115l-140 -290h255zM198 -142q-12 0 -17.5 6t-5.5 14q0 9 3 18q4 12 10.5 17.5t20.5 5.5q12 0 17.5 -6t5.5 -14q0 -9 -3 -18q-4 -12 -10.5 -17.5t-20.5 -5.5z" />
    <glyph glyph-name="uni1EA1" unicode="&#x1ea1;" horiz-adv-x="517" 
d="M369 0q-29 0 -29 23q0 9 3 23l13 65h-7q-23 -57 -60.5 -90t-91.5 -33q-36 0 -64 13t-46.5 37t-28 57t-9.5 73q0 30 3.5 60.5t9.5 59.5q10 51 29 93.5t46.5 73.5t63.5 48t80 17q54 0 86.5 -27.5t42.5 -74.5h7l18 90h34l-95 -478h74l-6 -30h-73zM204 18q28 0 50 10t45 33
q25 25 46.5 64.5t30.5 85.5l27 137q4 23 -1 48t-20.5 46t-40.5 34.5t-60 13.5q-77 0 -120.5 -53t-61.5 -147l-11 -56q-3 -16 -4 -31.5t-1 -34.5q0 -33 7 -60.5t22 -47.5t37.5 -31t54.5 -11zM167 -142q-12 0 -17.5 6t-5.5 14q0 9 3 18q4 12 10.5 17.5t20.5 5.5q12 0 17.5 -6
t5.5 -14q0 -9 -3 -18q-4 -12 -10.5 -17.5t-20.5 -5.5z" />
    <glyph glyph-name="uni1EA2" unicode="&#x1ea2;" horiz-adv-x="543" 
d="M434 0l-32 228h-273l-111 -228h-38l344 698h48l97 -698h-35zM359 548l-15 115h-5l-55 -115l-140 -290h255zM304 921h117q28 0 28 -23q0 -5 -1.5 -10t-6 -12t-12.5 -17.5t-20 -26.5l-55 -72l-20 12l86 121h-121z" />
    <glyph glyph-name="uni1EA3" unicode="&#x1ea3;" horiz-adv-x="517" 
d="M369 0q-29 0 -29 23q0 9 3 23l13 65h-7q-23 -57 -60.5 -90t-91.5 -33q-36 0 -64 13t-46.5 37t-28 57t-9.5 73q0 30 3.5 60.5t9.5 59.5q10 51 29 93.5t46.5 73.5t63.5 48t80 17q54 0 86.5 -27.5t42.5 -74.5h7l18 90h34l-95 -478h74l-6 -30h-73zM204 18q28 0 50 10t45 33
q25 25 46.5 64.5t30.5 85.5l27 137q4 23 -1 48t-20.5 46t-40.5 34.5t-60 13.5q-77 0 -120.5 -53t-61.5 -147l-11 -56q-3 -16 -4 -31.5t-1 -34.5q0 -33 7 -60.5t22 -47.5t37.5 -31t54.5 -11zM247 744h117q28 0 28 -23q0 -5 -1.5 -10t-6 -12t-12.5 -17.5t-20 -26.5l-55 -72
l-20 12l86 121h-121z" />
    <glyph glyph-name="uni1EA4" unicode="&#x1ea4;" horiz-adv-x="543" 
d="M434 0l-32 228h-273l-111 -228h-38l344 698h48l97 -698h-35zM359 548l-15 115h-5l-55 -115l-140 -290h255zM477 875l-20 13l123 158l27 -19zM392 915l91 -134l-21 -14l-89 124l-133 -124l-18 16l135 132h35z" />
    <glyph glyph-name="uni1EA5" unicode="&#x1ea5;" horiz-adv-x="517" 
d="M369 0q-29 0 -29 23q0 9 3 23l13 65h-7q-23 -57 -60.5 -90t-91.5 -33q-36 0 -64 13t-46.5 37t-28 57t-9.5 73q0 30 3.5 60.5t9.5 59.5q10 51 29 93.5t46.5 73.5t63.5 48t80 17q54 0 86.5 -27.5t42.5 -74.5h7l18 90h34l-95 -478h74l-6 -30h-73zM204 18q28 0 50 10t45 33
q25 25 46.5 64.5t30.5 85.5l27 137q4 23 -1 48t-20.5 46t-40.5 34.5t-60 13.5q-77 0 -120.5 -53t-61.5 -147l-11 -56q-3 -16 -4 -31.5t-1 -34.5q0 -33 7 -60.5t22 -47.5t37.5 -31t54.5 -11zM419 697l-20 13l123 158l27 -19zM334 737l91 -134l-21 -14l-89 124l-133 -124
l-18 16l135 132h35z" />
    <glyph glyph-name="uni1EA6" unicode="&#x1ea6;" horiz-adv-x="543" 
d="M434 0l-32 228h-273l-111 -228h-38l344 698h48l97 -698h-35zM359 548l-15 115h-5l-55 -115l-140 -290h255zM168 1030l31 15l65 -160l-22 -10zM392 915l91 -134l-21 -14l-89 124l-133 -124l-18 16l135 132h35z" />
    <glyph glyph-name="uni1EA7" unicode="&#x1ea7;" horiz-adv-x="517" 
d="M369 0q-29 0 -29 23q0 9 3 23l13 65h-7q-23 -57 -60.5 -90t-91.5 -33q-36 0 -64 13t-46.5 37t-28 57t-9.5 73q0 30 3.5 60.5t9.5 59.5q10 51 29 93.5t46.5 73.5t63.5 48t80 17q54 0 86.5 -27.5t42.5 -74.5h7l18 90h34l-95 -478h74l-6 -30h-73zM204 18q28 0 50 10t45 33
q25 25 46.5 64.5t30.5 85.5l27 137q4 23 -1 48t-20.5 46t-40.5 34.5t-60 13.5q-77 0 -120.5 -53t-61.5 -147l-11 -56q-3 -16 -4 -31.5t-1 -34.5q0 -33 7 -60.5t22 -47.5t37.5 -31t54.5 -11zM112 852l31 15l65 -160l-22 -10zM336 737l91 -134l-21 -14l-89 124l-133 -124
l-18 16l135 132h35z" />
    <glyph glyph-name="uni1EA8" unicode="&#x1ea8;" horiz-adv-x="543" 
d="M434 0l-32 228h-273l-111 -228h-38l344 698h48l97 -698h-35zM359 548l-15 115h-5l-55 -115l-140 -290h255zM427 1033h117q28 0 28 -23q0 -5 -1.5 -10t-6 -12t-12.5 -17.5t-20 -26.5l-55 -72l-20 12l86 121h-121zM391 915l91 -134l-21 -14l-89 124l-133 -124l-18 16
l135 132h35z" />
    <glyph glyph-name="uni1EA9" unicode="&#x1ea9;" horiz-adv-x="517" 
d="M369 0q-29 0 -29 23q0 9 3 23l13 65h-7q-23 -57 -60.5 -90t-91.5 -33q-36 0 -64 13t-46.5 37t-28 57t-9.5 73q0 30 3.5 60.5t9.5 59.5q10 51 29 93.5t46.5 73.5t63.5 48t80 17q54 0 86.5 -27.5t42.5 -74.5h7l18 90h34l-95 -478h74l-6 -30h-73zM204 18q28 0 50 10t45 33
q25 25 46.5 64.5t30.5 85.5l27 137q4 23 -1 48t-20.5 46t-40.5 34.5t-60 13.5q-77 0 -120.5 -53t-61.5 -147l-11 -56q-3 -16 -4 -31.5t-1 -34.5q0 -33 7 -60.5t22 -47.5t37.5 -31t54.5 -11zM369 855h117q28 0 28 -23q0 -5 -1.5 -10t-6 -12t-12.5 -17.5t-20 -26.5l-55 -72
l-20 12l86 121h-121zM334 737l91 -134l-21 -14l-89 124l-133 -124l-18 16l135 132h35z" />
    <glyph glyph-name="uni1EAA" unicode="&#x1eaa;" horiz-adv-x="543" 
d="M434 0l-32 228h-273l-111 -228h-38l344 698h48l97 -698h-35zM359 548l-15 115h-5l-55 -115l-140 -290h255zM396 914l91 -134l-21 -14l-89 124l-133 -124l-18 16l135 132h35zM249 991q38 42 80 42q20 0 33.5 -7.5t32.5 -21.5q18 -14 30.5 -20t26.5 -6q29 0 61 32l14 -18
q-38 -42 -80 -42q-20 0 -33.5 7.5t-32.5 21.5q-18 14 -30.5 20t-26.5 6q-29 0 -61 -32z" />
    <glyph glyph-name="uni1EAB" unicode="&#x1eab;" horiz-adv-x="517" 
d="M369 0q-29 0 -29 23q0 9 3 23l13 65h-7q-23 -57 -60.5 -90t-91.5 -33q-36 0 -64 13t-46.5 37t-28 57t-9.5 73q0 30 3.5 60.5t9.5 59.5q10 51 29 93.5t46.5 73.5t63.5 48t80 17q54 0 86.5 -27.5t42.5 -74.5h7l18 90h34l-95 -478h74l-6 -30h-73zM204 18q28 0 50 10t45 33
q25 25 46.5 64.5t30.5 85.5l27 137q4 23 -1 48t-20.5 46t-40.5 34.5t-60 13.5q-77 0 -120.5 -53t-61.5 -147l-11 -56q-3 -16 -4 -31.5t-1 -34.5q0 -33 7 -60.5t22 -47.5t37.5 -31t54.5 -11zM334 737l91 -134l-21 -14l-89 124l-133 -124l-18 16l135 132h35zM187 814
q38 42 80 42q20 0 33.5 -7.5t32.5 -21.5q18 -14 30.5 -20t26.5 -6q29 0 61 32l14 -18q-38 -42 -80 -42q-20 0 -33.5 7.5t-32.5 21.5q-18 14 -30.5 20t-26.5 6q-29 0 -61 -32z" />
    <glyph glyph-name="uni1EAC" unicode="&#x1eac;" horiz-adv-x="543" 
d="M434 0l-32 228h-273l-111 -228h-38l344 698h48l97 -698h-35zM359 548l-15 115h-5l-55 -115l-140 -290h255zM397 926l88 -137l-21 -14l-88 125l-134 -125l-19 16l136 135h38zM198 -142q-12 0 -17.5 6t-5.5 14q0 9 3 18q4 12 10.5 17.5t20.5 5.5q12 0 17.5 -6t5.5 -14
q0 -9 -3 -18q-4 -12 -10.5 -17.5t-20.5 -5.5z" />
    <glyph glyph-name="uni1EAD" unicode="&#x1ead;" horiz-adv-x="517" 
d="M369 0q-29 0 -29 23q0 9 3 23l13 65h-7q-23 -57 -60.5 -90t-91.5 -33q-36 0 -64 13t-46.5 37t-28 57t-9.5 73q0 30 3.5 60.5t9.5 59.5q10 51 29 93.5t46.5 73.5t63.5 48t80 17q54 0 86.5 -27.5t42.5 -74.5h7l18 90h34l-95 -478h74l-6 -30h-73zM204 18q28 0 50 10t45 33
q25 25 46.5 64.5t30.5 85.5l27 137q4 23 -1 48t-20.5 46t-40.5 34.5t-60 13.5q-77 0 -120.5 -53t-61.5 -147l-11 -56q-3 -16 -4 -31.5t-1 -34.5q0 -33 7 -60.5t22 -47.5t37.5 -31t54.5 -11zM339 748l88 -137l-20 -14l-89 125l-134 -125l-19 16l136 135h38zM167 -142
q-12 0 -17.5 6t-5.5 14q0 9 3 18q4 12 10.5 17.5t20.5 5.5q12 0 17.5 -6t5.5 -14q0 -9 -3 -18q-4 -12 -10.5 -17.5t-20.5 -5.5z" />
    <glyph glyph-name="uni1EAE" unicode="&#x1eae;" horiz-adv-x="543" 
d="M434 0l-32 228h-273l-111 -228h-38l344 698h48l97 -698h-35zM359 548l-15 115h-5l-55 -115l-140 -290h255zM357 771q-25 0 -42.5 8.5t-29.5 23.5t-20 35.5t-14 45.5l22 9l11 -32q12 -33 29 -47.5t45 -14.5q29 0 50 12.5t45 48.5l22 33l23 -9q-14 -24 -28 -45t-30.5 -36
t-36.5 -23.5t-46 -8.5zM365 876l-20 13l123 158l27 -19z" />
    <glyph glyph-name="uni1EAF" unicode="&#x1eaf;" horiz-adv-x="517" 
d="M369 0q-29 0 -29 23q0 9 3 23l13 65h-7q-23 -57 -60.5 -90t-91.5 -33q-36 0 -64 13t-46.5 37t-28 57t-9.5 73q0 30 3.5 60.5t9.5 59.5q10 51 29 93.5t46.5 73.5t63.5 48t80 17q54 0 86.5 -27.5t42.5 -74.5h7l18 90h34l-95 -478h74l-6 -30h-73zM204 18q28 0 50 10t45 33
q25 25 46.5 64.5t30.5 85.5l27 137q4 23 -1 48t-20.5 46t-40.5 34.5t-60 13.5q-77 0 -120.5 -53t-61.5 -147l-11 -56q-3 -16 -4 -31.5t-1 -34.5q0 -33 7 -60.5t22 -47.5t37.5 -31t54.5 -11zM300 592q-25 0 -42.5 8.5t-29.5 23.5t-20 35.5t-14 45.5l22 9l11 -32
q12 -33 29 -47.5t45 -14.5q29 0 50 12.5t45 48.5l22 33l23 -9q-14 -24 -28 -45t-30.5 -36t-36.5 -23.5t-46 -8.5zM308 697l-20 13l123 158l27 -19z" />
    <glyph glyph-name="uni1EB0" unicode="&#x1eb0;" horiz-adv-x="543" 
d="M434 0l-32 228h-273l-111 -228h-38l344 698h48l97 -698h-35zM359 548l-15 115h-5l-55 -115l-140 -290h255zM357 771q-25 0 -42.5 8.5t-29.5 23.5t-20 35.5t-14 45.5l22 9l11 -32q12 -33 29 -47.5t45 -14.5q29 0 50 12.5t45 48.5l22 33l23 -9q-14 -24 -28 -45t-30.5 -36
t-36.5 -23.5t-46 -8.5zM295 1031l31 15l65 -160l-22 -10z" />
    <glyph glyph-name="uni1EB1" unicode="&#x1eb1;" horiz-adv-x="517" 
d="M369 0q-29 0 -29 23q0 9 3 23l13 65h-7q-23 -57 -60.5 -90t-91.5 -33q-36 0 -64 13t-46.5 37t-28 57t-9.5 73q0 30 3.5 60.5t9.5 59.5q10 51 29 93.5t46.5 73.5t63.5 48t80 17q54 0 86.5 -27.5t42.5 -74.5h7l18 90h34l-95 -478h74l-6 -30h-73zM204 18q28 0 50 10t45 33
q25 25 46.5 64.5t30.5 85.5l27 137q4 23 -1 48t-20.5 46t-40.5 34.5t-60 13.5q-77 0 -120.5 -53t-61.5 -147l-11 -56q-3 -16 -4 -31.5t-1 -34.5q0 -33 7 -60.5t22 -47.5t37.5 -31t54.5 -11zM300 592q-25 0 -42.5 8.5t-29.5 23.5t-20 35.5t-14 45.5l22 9l11 -32
q12 -33 29 -47.5t45 -14.5q29 0 50 12.5t45 48.5l22 33l23 -9q-14 -24 -28 -45t-30.5 -36t-36.5 -23.5t-46 -8.5zM238 852l31 15l65 -160l-22 -10z" />
    <glyph glyph-name="uni1EB2" unicode="&#x1eb2;" horiz-adv-x="543" 
d="M434 0l-32 228h-273l-111 -228h-38l344 698h48l97 -698h-35zM359 548l-15 115h-5l-55 -115l-140 -290h255zM314 1034h117q28 0 28 -23q0 -5 -1.5 -10t-6 -12t-12.5 -17.5t-20 -26.5l-55 -72l-20 12l86 121h-121zM357 771q-25 0 -42.5 8.5t-29.5 23.5t-20 35.5t-14 45.5
l22 9l11 -32q12 -33 29 -47.5t45 -14.5q29 0 50 12.5t45 48.5l22 33l23 -9q-14 -24 -28 -45t-30.5 -36t-36.5 -23.5t-46 -8.5z" />
    <glyph glyph-name="uni1EB3" unicode="&#x1eb3;" horiz-adv-x="517" 
d="M369 0q-29 0 -29 23q0 9 3 23l13 65h-7q-23 -57 -60.5 -90t-91.5 -33q-36 0 -64 13t-46.5 37t-28 57t-9.5 73q0 30 3.5 60.5t9.5 59.5q10 51 29 93.5t46.5 73.5t63.5 48t80 17q54 0 86.5 -27.5t42.5 -74.5h7l18 90h34l-95 -478h74l-6 -30h-73zM204 18q28 0 50 10t45 33
q25 25 46.5 64.5t30.5 85.5l27 137q4 23 -1 48t-20.5 46t-40.5 34.5t-60 13.5q-77 0 -120.5 -53t-61.5 -147l-11 -56q-3 -16 -4 -31.5t-1 -34.5q0 -33 7 -60.5t22 -47.5t37.5 -31t54.5 -11zM300 592q-25 0 -42.5 8.5t-29.5 23.5t-20 35.5t-14 45.5l22 9l11 -32
q12 -33 29 -47.5t45 -14.5q29 0 50 12.5t45 48.5l22 33l23 -9q-14 -24 -28 -45t-30.5 -36t-36.5 -23.5t-46 -8.5zM257 855h117q28 0 28 -23q0 -5 -1.5 -10t-6 -12t-12.5 -17.5t-20 -26.5l-55 -72l-20 12l86 121h-121z" />
    <glyph glyph-name="uni1EB4" unicode="&#x1eb4;" horiz-adv-x="543" 
d="M434 0l-32 228h-273l-111 -228h-38l344 698h48l97 -698h-35zM359 548l-15 115h-5l-55 -115l-140 -290h255zM357 771q-25 0 -42.5 8.5t-29.5 23.5t-20 35.5t-14 45.5l22 9l11 -32q12 -33 29 -47.5t45 -14.5q29 0 50 12.5t45 48.5l22 33l23 -9q-14 -24 -28 -45t-30.5 -36
t-36.5 -23.5t-46 -8.5zM250 984q38 42 80 42q20 0 33.5 -7.5t32.5 -21.5q18 -14 30.5 -20t26.5 -6q29 0 61 32l14 -18q-38 -42 -80 -42q-20 0 -33.5 7.5t-32.5 21.5q-18 14 -30.5 20t-26.5 6q-29 0 -61 -32z" />
    <glyph glyph-name="uni1EB5" unicode="&#x1eb5;" horiz-adv-x="517" 
d="M369 0q-29 0 -29 23q0 9 3 23l13 65h-7q-23 -57 -60.5 -90t-91.5 -33q-36 0 -64 13t-46.5 37t-28 57t-9.5 73q0 30 3.5 60.5t9.5 59.5q10 51 29 93.5t46.5 73.5t63.5 48t80 17q54 0 86.5 -27.5t42.5 -74.5h7l18 90h34l-95 -478h74l-6 -30h-73zM204 18q28 0 50 10t45 33
q25 25 46.5 64.5t30.5 85.5l27 137q4 23 -1 48t-20.5 46t-40.5 34.5t-60 13.5q-77 0 -120.5 -53t-61.5 -147l-11 -56q-3 -16 -4 -31.5t-1 -34.5q0 -33 7 -60.5t22 -47.5t37.5 -31t54.5 -11zM300 592q-25 0 -42.5 8.5t-29.5 23.5t-20 35.5t-14 45.5l22 9l11 -32
q12 -33 29 -47.5t45 -14.5q29 0 50 12.5t45 48.5l22 33l23 -9q-14 -24 -28 -45t-30.5 -36t-36.5 -23.5t-46 -8.5zM193 805q38 42 80 42q20 0 33.5 -7.5t32.5 -21.5q18 -14 30.5 -20t26.5 -6q29 0 61 32l14 -18q-38 -42 -80 -42q-20 0 -33.5 7.5t-32.5 21.5q-18 14 -30.5 20
t-26.5 6q-29 0 -61 -32z" />
    <glyph glyph-name="uni1EB6" unicode="&#x1eb6;" horiz-adv-x="543" 
d="M434 0l-32 228h-273l-111 -228h-38l344 698h48l97 -698h-35zM359 548l-15 115h-5l-55 -115l-140 -290h255zM361 781q-46 0 -68.5 33t-36.5 88l22 9l11 -33q13 -37 29.5 -53t44.5 -16q29 0 48.5 15.5t46.5 54.5l22 32l21 -9q-14 -26 -28 -48t-30 -38t-36 -25.5t-46 -9.5z
M198 -142q-12 0 -17.5 6t-5.5 14q0 9 3 18q4 12 10.5 17.5t20.5 5.5q12 0 17.5 -6t5.5 -14q0 -9 -3 -18q-4 -12 -10.5 -17.5t-20.5 -5.5z" />
    <glyph glyph-name="uni1EB7" unicode="&#x1eb7;" horiz-adv-x="517" 
d="M369 0q-29 0 -29 23q0 9 3 23l13 65h-7q-23 -57 -60.5 -90t-91.5 -33q-36 0 -64 13t-46.5 37t-28 57t-9.5 73q0 30 3.5 60.5t9.5 59.5q10 51 29 93.5t46.5 73.5t63.5 48t80 17q54 0 86.5 -27.5t42.5 -74.5h7l18 90h34l-95 -478h74l-6 -30h-73zM204 18q28 0 50 10t45 33
q25 25 46.5 64.5t30.5 85.5l27 137q4 23 -1 48t-20.5 46t-40.5 34.5t-60 13.5q-77 0 -120.5 -53t-61.5 -147l-11 -56q-3 -16 -4 -31.5t-1 -34.5q0 -33 7 -60.5t22 -47.5t37.5 -31t54.5 -11zM304 604q-46 0 -69 33t-37 87l23 9l11 -33q13 -37 29 -52.5t45 -15.5t48.5 15
t45.5 54l22 32l22 -9q-14 -25 -28 -47t-30.5 -38t-36 -25.5t-45.5 -9.5zM167 -142q-12 0 -17.5 6t-5.5 14q0 9 3 18q4 12 10.5 17.5t20.5 5.5q12 0 17.5 -6t5.5 -14q0 -9 -3 -18q-4 -12 -10.5 -17.5t-20.5 -5.5z" />
    <glyph glyph-name="uni1EB8" unicode="&#x1eb8;" horiz-adv-x="507" 
d="M42 0l140 698h350l-6 -32h-315l-59 -296h296l-6 -32h-296l-62 -306h316l-6 -32h-352zM187 -142q-12 0 -17.5 6t-5.5 14q0 9 3 18q4 12 10.5 17.5t20.5 5.5q12 0 17.5 -6t5.5 -14q0 -9 -3 -18q-4 -12 -10.5 -17.5t-20.5 -5.5z" />
    <glyph glyph-name="uni1EB9" unicode="&#x1eb9;" horiz-adv-x="458" 
d="M214 -12q-165 0 -165 194q0 26 3 53.5t8 52.5q10 52 30.5 95t50 73.5t66 47t80.5 16.5q63 0 101.5 -32t38.5 -92q0 -31 -13.5 -60t-50.5 -52t-103.5 -37.5t-172.5 -16.5q-2 -13 -3 -25.5t-1 -20.5q0 -86 32 -126t100 -40q57 0 94.5 31t66.5 85l24 -16q-35 -67 -80 -98.5
t-106 -31.5zM284 491q-39 0 -70 -15t-54.5 -42.5t-39.5 -65.5t-25 -84l-5 -27q93 2 152 13t92.5 29t46 42.5t12.5 52.5q0 46 -27.5 71.5t-81.5 25.5zM170 -142q-12 0 -17.5 6t-5.5 14q0 9 3 18q4 12 10.5 17.5t20.5 5.5q12 0 17.5 -6t5.5 -14q0 -9 -3 -18
q-4 -12 -10.5 -17.5t-20.5 -5.5z" />
    <glyph glyph-name="uni1EBA" unicode="&#x1eba;" horiz-adv-x="507" 
d="M42 0l140 698h350l-6 -32h-315l-59 -296h296l-6 -32h-296l-62 -306h316l-6 -32h-352zM307 921h117q28 0 28 -23q0 -5 -1.5 -10t-6 -12t-12.5 -17.5t-20 -26.5l-55 -72l-20 12l86 121h-121z" />
    <glyph glyph-name="uni1EBB" unicode="&#x1ebb;" horiz-adv-x="458" 
d="M214 -12q-165 0 -165 194q0 26 3 53.5t8 52.5q10 52 30.5 95t50 73.5t66 47t80.5 16.5q63 0 101.5 -32t38.5 -92q0 -31 -13.5 -60t-50.5 -52t-103.5 -37.5t-172.5 -16.5q-2 -13 -3 -25.5t-1 -20.5q0 -86 32 -126t100 -40q57 0 94.5 31t66.5 85l24 -16q-35 -67 -80 -98.5
t-106 -31.5zM284 491q-39 0 -70 -15t-54.5 -42.5t-39.5 -65.5t-25 -84l-5 -27q93 2 152 13t92.5 29t46 42.5t12.5 52.5q0 46 -27.5 71.5t-81.5 25.5zM251 744h117q28 0 28 -23q0 -5 -1.5 -10t-6 -12t-12.5 -17.5t-20 -26.5l-55 -72l-20 12l86 121h-121z" />
    <glyph glyph-name="uni1EBC" unicode="&#x1ebc;" horiz-adv-x="507" 
d="M42 0l140 698h350l-6 -32h-315l-59 -296h296l-6 -32h-296l-62 -306h316l-6 -32h-352zM232 843q38 42 80 42q20 0 33.5 -7.5t32.5 -21.5q18 -14 30.5 -20t26.5 -6q29 0 61 32l14 -18q-38 -42 -80 -42q-20 0 -33.5 7.5t-32.5 21.5q-18 14 -30.5 20t-26.5 6q-29 0 -61 -32z
" />
    <glyph glyph-name="uni1EBD" unicode="&#x1ebd;" horiz-adv-x="458" 
d="M214 -12q-165 0 -165 194q0 26 3 53.5t8 52.5q10 52 30.5 95t50 73.5t66 47t80.5 16.5q63 0 101.5 -32t38.5 -92q0 -31 -13.5 -60t-50.5 -52t-103.5 -37.5t-172.5 -16.5q-2 -13 -3 -25.5t-1 -20.5q0 -86 32 -126t100 -40q57 0 94.5 31t66.5 85l24 -16q-35 -67 -80 -98.5
t-106 -31.5zM284 491q-39 0 -70 -15t-54.5 -42.5t-39.5 -65.5t-25 -84l-5 -27q93 2 152 13t92.5 29t46 42.5t12.5 52.5q0 46 -27.5 71.5t-81.5 25.5zM176 665q38 42 80 42q20 0 33.5 -7.5t32.5 -21.5q18 -14 30.5 -20t26.5 -6q29 0 61 32l14 -18q-38 -42 -80 -42
q-20 0 -33.5 7.5t-32.5 21.5q-18 14 -30.5 20t-26.5 6q-29 0 -61 -32z" />
    <glyph glyph-name="uni1EBE" unicode="&#x1ebe;" horiz-adv-x="507" 
d="M42 0l140 698h350l-6 -32h-315l-59 -296h296l-6 -32h-296l-62 -306h316l-6 -32h-352zM480 875l-20 13l123 158l27 -19zM395 915l91 -134l-21 -14l-89 124l-133 -124l-18 16l135 132h35z" />
    <glyph glyph-name="uni1EBF" unicode="&#x1ebf;" horiz-adv-x="458" 
d="M214 -12q-165 0 -165 194q0 26 3 53.5t8 52.5q10 52 30.5 95t50 73.5t66 47t80.5 16.5q63 0 101.5 -32t38.5 -92q0 -31 -13.5 -60t-50.5 -52t-103.5 -37.5t-172.5 -16.5q-2 -13 -3 -25.5t-1 -20.5q0 -86 32 -126t100 -40q57 0 94.5 31t66.5 85l24 -16q-35 -67 -80 -98.5
t-106 -31.5zM284 491q-39 0 -70 -15t-54.5 -42.5t-39.5 -65.5t-25 -84l-5 -27q93 2 152 13t92.5 29t46 42.5t12.5 52.5q0 46 -27.5 71.5t-81.5 25.5zM423 697l-20 13l123 158l27 -19zM338 737l91 -134l-21 -14l-89 124l-133 -124l-18 16l135 132h35z" />
    <glyph glyph-name="uni1EC0" unicode="&#x1ec0;" horiz-adv-x="507" 
d="M42 0l140 698h350l-6 -32h-315l-59 -296h296l-6 -32h-296l-62 -306h316l-6 -32h-352zM171 1030l31 15l65 -160l-22 -10zM395 915l91 -134l-21 -14l-89 124l-133 -124l-18 16l135 132h35z" />
    <glyph glyph-name="uni1EC1" unicode="&#x1ec1;" horiz-adv-x="458" 
d="M214 -12q-165 0 -165 194q0 26 3 53.5t8 52.5q10 52 30.5 95t50 73.5t66 47t80.5 16.5q63 0 101.5 -32t38.5 -92q0 -31 -13.5 -60t-50.5 -52t-103.5 -37.5t-172.5 -16.5q-2 -13 -3 -25.5t-1 -20.5q0 -86 32 -126t100 -40q57 0 94.5 31t66.5 85l24 -16q-35 -67 -80 -98.5
t-106 -31.5zM284 491q-39 0 -70 -15t-54.5 -42.5t-39.5 -65.5t-25 -84l-5 -27q93 2 152 13t92.5 29t46 42.5t12.5 52.5q0 46 -27.5 71.5t-81.5 25.5zM116 852l31 15l65 -160l-22 -10zM340 737l91 -134l-21 -14l-89 124l-133 -124l-18 16l135 132h35z" />
    <glyph glyph-name="uni1EC2" unicode="&#x1ec2;" horiz-adv-x="507" 
d="M42 0l140 698h350l-6 -32h-315l-59 -296h296l-6 -32h-296l-62 -306h316l-6 -32h-352zM430 1033h117q28 0 28 -23q0 -5 -1.5 -10t-6 -12t-12.5 -17.5t-20 -26.5l-55 -72l-20 12l86 121h-121zM394 915l91 -134l-21 -14l-89 124l-133 -124l-18 16l135 132h35z" />
    <glyph glyph-name="uni1EC3" unicode="&#x1ec3;" horiz-adv-x="458" 
d="M214 -12q-165 0 -165 194q0 26 3 53.5t8 52.5q10 52 30.5 95t50 73.5t66 47t80.5 16.5q63 0 101.5 -32t38.5 -92q0 -31 -13.5 -60t-50.5 -52t-103.5 -37.5t-172.5 -16.5q-2 -13 -3 -25.5t-1 -20.5q0 -86 32 -126t100 -40q57 0 94.5 31t66.5 85l24 -16q-35 -67 -80 -98.5
t-106 -31.5zM284 491q-39 0 -70 -15t-54.5 -42.5t-39.5 -65.5t-25 -84l-5 -27q93 2 152 13t92.5 29t46 42.5t12.5 52.5q0 46 -27.5 71.5t-81.5 25.5zM373 855h117q28 0 28 -23q0 -5 -1.5 -10t-6 -12t-12.5 -17.5t-20 -26.5l-55 -72l-20 12l86 121h-121zM338 737l91 -134
l-21 -14l-89 124l-133 -124l-18 16l135 132h35z" />
    <glyph glyph-name="uni1EC4" unicode="&#x1ec4;" horiz-adv-x="507" 
d="M42 0l140 698h350l-6 -32h-315l-59 -296h296l-6 -32h-296l-62 -306h316l-6 -32h-352zM399 914l91 -134l-21 -14l-89 124l-133 -124l-18 16l135 132h35zM252 991q38 42 80 42q20 0 33.5 -7.5t32.5 -21.5q18 -14 30.5 -20t26.5 -6q29 0 61 32l14 -18q-38 -42 -80 -42
q-20 0 -33.5 7.5t-32.5 21.5q-18 14 -30.5 20t-26.5 6q-29 0 -61 -32z" />
    <glyph glyph-name="uni1EC5" unicode="&#x1ec5;" horiz-adv-x="458" 
d="M214 -12q-165 0 -165 194q0 26 3 53.5t8 52.5q10 52 30.5 95t50 73.5t66 47t80.5 16.5q63 0 101.5 -32t38.5 -92q0 -31 -13.5 -60t-50.5 -52t-103.5 -37.5t-172.5 -16.5q-2 -13 -3 -25.5t-1 -20.5q0 -86 32 -126t100 -40q57 0 94.5 31t66.5 85l24 -16q-35 -67 -80 -98.5
t-106 -31.5zM284 491q-39 0 -70 -15t-54.5 -42.5t-39.5 -65.5t-25 -84l-5 -27q93 2 152 13t92.5 29t46 42.5t12.5 52.5q0 46 -27.5 71.5t-81.5 25.5zM338 737l91 -134l-21 -14l-89 124l-133 -124l-18 16l135 132h35zM191 814q38 42 80 42q20 0 33.5 -7.5t32.5 -21.5
q18 -14 30.5 -20t26.5 -6q29 0 61 32l14 -18q-38 -42 -80 -42q-20 0 -33.5 7.5t-32.5 21.5q-18 14 -30.5 20t-26.5 6q-29 0 -61 -32z" />
    <glyph glyph-name="uni1EC6" unicode="&#x1ec6;" horiz-adv-x="507" 
d="M42 0l140 698h350l-6 -32h-315l-59 -296h296l-6 -32h-296l-62 -306h316l-6 -32h-352zM400 926l88 -137l-21 -14l-88 125l-134 -125l-19 16l136 135h38zM187 -142q-12 0 -17.5 6t-5.5 14q0 9 3 18q4 12 10.5 17.5t20.5 5.5q12 0 17.5 -6t5.5 -14q0 -9 -3 -18
q-4 -12 -10.5 -17.5t-20.5 -5.5z" />
    <glyph glyph-name="uni1EC7" unicode="&#x1ec7;" horiz-adv-x="458" 
d="M214 -12q-165 0 -165 194q0 26 3 53.5t8 52.5q10 52 30.5 95t50 73.5t66 47t80.5 16.5q63 0 101.5 -32t38.5 -92q0 -31 -13.5 -60t-50.5 -52t-103.5 -37.5t-172.5 -16.5q-2 -13 -3 -25.5t-1 -20.5q0 -86 32 -126t100 -40q57 0 94.5 31t66.5 85l24 -16q-35 -67 -80 -98.5
t-106 -31.5zM284 491q-39 0 -70 -15t-54.5 -42.5t-39.5 -65.5t-25 -84l-5 -27q93 2 152 13t92.5 29t46 42.5t12.5 52.5q0 46 -27.5 71.5t-81.5 25.5zM343 748l88 -137l-20 -14l-89 125l-134 -125l-19 16l136 135h38zM170 -142q-12 0 -17.5 6t-5.5 14q0 9 3 18
q4 12 10.5 17.5t20.5 5.5q12 0 17.5 -6t5.5 -14q0 -9 -3 -18q-4 -12 -10.5 -17.5t-20.5 -5.5z" />
    <glyph glyph-name="uni1EC8" unicode="&#x1ec8;" horiz-adv-x="337" 
d="M7 0l6 31h93l127 636h-93l6 31h222l-6 -31h-93l-127 -636h93l-7 -31h-221zM216 921h117q28 0 28 -23q0 -5 -1.5 -10t-6 -12t-12.5 -17.5t-20 -26.5l-55 -72l-20 12l86 121h-121z" />
    <glyph glyph-name="uni1EC9" unicode="&#x1ec9;" horiz-adv-x="222" 
d="M73 0q-29 0 -29 23q0 9 3 23l93 462h34l-96 -478h74l-6 -30h-73zM115 744h117q28 0 28 -23q0 -5 -1.5 -10t-6 -12t-12.5 -17.5t-20 -26.5l-55 -72l-20 12l86 121h-121z" />
    <glyph glyph-name="uni1ECA" unicode="&#x1eca;" horiz-adv-x="337" 
d="M7 0l6 31h93l127 636h-93l6 31h222l-6 -31h-93l-127 -636h93l-7 -31h-221zM90 -142q-12 0 -17.5 6t-5.5 14q0 9 3 18q4 12 10.5 17.5t20.5 5.5q12 0 17.5 -6t5.5 -14q0 -9 -3 -18q-4 -12 -10.5 -17.5t-20.5 -5.5z" />
    <glyph glyph-name="uni1ECB" unicode="&#x1ecb;" horiz-adv-x="222" 
d="M189 665q-25 0 -25 20q0 6 3 18q7 23 31 23q25 0 25 -20q0 -6 -3 -18q-7 -23 -31 -23zM73 0q-29 0 -29 23q0 9 3 23l93 462h34l-96 -478h74l-6 -30h-73zM65 -142q-12 0 -17.5 6t-5.5 14q0 9 3 18q4 12 10.5 17.5t20.5 5.5q12 0 17.5 -6t5.5 -14q0 -9 -3 -18
q-4 -12 -10.5 -17.5t-20.5 -5.5z" />
    <glyph glyph-name="uni1ECC" unicode="&#x1ecc;" horiz-adv-x="599" 
d="M263 -12q-100 0 -153 64t-53 175q0 39 4.5 81.5t12.5 80.5q13 66 37.5 124t61 102t85 69.5t110.5 25.5q100 0 153 -64t53 -175q0 -39 -4.5 -81.5t-12.5 -80.5q-13 -66 -37.5 -124t-61 -102t-85 -69.5t-110.5 -25.5zM265 20q94 0 159.5 72.5t90.5 203.5l14 73q5 29 7 55
t2 46q0 94 -42 151t-130 57q-94 0 -159.5 -72.5t-90.5 -203.5l-14 -73q-5 -29 -7 -55t-2 -46q0 -94 42 -151t130 -57zM219 -142q-12 0 -17.5 6t-5.5 14q0 9 3 18q4 12 10.5 17.5t20.5 5.5q12 0 17.5 -6t5.5 -14q0 -9 -3 -18q-4 -12 -10.5 -17.5t-20.5 -5.5z" />
    <glyph glyph-name="uni1ECD" unicode="&#x1ecd;" horiz-adv-x="487" 
d="M205 -12q-75 0 -115.5 48t-40.5 131q0 30 3.5 61t9.5 60q10 51 29 93.5t47 73.5t64 48t80 17q75 0 115.5 -48t40.5 -131q0 -30 -3.5 -61t-9.5 -60q-10 -51 -29 -93.5t-47 -73.5t-64 -48t-80 -17zM208 18q75 0 119 53.5t61 146.5l11 58q3 17 4 32.5t1 32.5
q0 72 -30.5 110.5t-94.5 38.5q-75 0 -119 -53.5t-61 -146.5l-11 -58q-3 -17 -4 -32.5t-1 -32.5q0 -72 30.5 -110.5t94.5 -38.5zM165 -142q-12 0 -17.5 6t-5.5 14q0 9 3 18q4 12 10.5 17.5t20.5 5.5q12 0 17.5 -6t5.5 -14q0 -9 -3 -18q-4 -12 -10.5 -17.5t-20.5 -5.5z" />
    <glyph glyph-name="uni1ECE" unicode="&#x1ece;" horiz-adv-x="599" 
d="M263 -12q-100 0 -153 64t-53 175q0 39 4.5 81.5t12.5 80.5q13 66 37.5 124t61 102t85 69.5t110.5 25.5q100 0 153 -64t53 -175q0 -39 -4.5 -81.5t-12.5 -80.5q-13 -66 -37.5 -124t-61 -102t-85 -69.5t-110.5 -25.5zM265 20q94 0 159.5 72.5t90.5 203.5l14 73q5 29 7 55
t2 46q0 94 -42 151t-130 57q-94 0 -159.5 -72.5t-90.5 -203.5l-14 -73q-5 -29 -7 -55t-2 -46q0 -94 42 -151t130 -57zM342 921h117q28 0 28 -23q0 -5 -1.5 -10t-6 -12t-12.5 -17.5t-20 -26.5l-55 -72l-20 12l86 121h-121z" />
    <glyph glyph-name="uni1ECF" unicode="&#x1ecf;" horiz-adv-x="487" 
d="M205 -12q-75 0 -115.5 48t-40.5 131q0 30 3.5 61t9.5 60q10 51 29 93.5t47 73.5t64 48t80 17q75 0 115.5 -48t40.5 -131q0 -30 -3.5 -61t-9.5 -60q-10 -51 -29 -93.5t-47 -73.5t-64 -48t-80 -17zM208 18q75 0 119 53.5t61 146.5l11 58q3 17 4 32.5t1 32.5
q0 72 -30.5 110.5t-94.5 38.5q-75 0 -119 -53.5t-61 -146.5l-11 -58q-3 -17 -4 -32.5t-1 -32.5q0 -72 30.5 -110.5t94.5 -38.5zM253 744h117q28 0 28 -23q0 -5 -1.5 -10t-6 -12t-12.5 -17.5t-20 -26.5l-55 -72l-20 12l86 121h-121z" />
    <glyph glyph-name="uni1ED0" unicode="&#x1ed0;" horiz-adv-x="599" 
d="M263 -12q-100 0 -153 64t-53 175q0 39 4.5 81.5t12.5 80.5q13 66 37.5 124t61 102t85 69.5t110.5 25.5q100 0 153 -64t53 -175q0 -39 -4.5 -81.5t-12.5 -80.5q-13 -66 -37.5 -124t-61 -102t-85 -69.5t-110.5 -25.5zM265 20q94 0 159.5 72.5t90.5 203.5l14 73q5 29 7 55
t2 46q0 94 -42 151t-130 57q-94 0 -159.5 -72.5t-90.5 -203.5l-14 -73q-5 -29 -7 -55t-2 -46q0 -94 42 -151t130 -57zM515 875l-20 13l123 158l27 -19zM430 915l91 -134l-21 -14l-89 124l-133 -124l-18 16l135 132h35z" />
    <glyph glyph-name="uni1ED1" unicode="&#x1ed1;" horiz-adv-x="487" 
d="M205 -12q-75 0 -115.5 48t-40.5 131q0 30 3.5 61t9.5 60q10 51 29 93.5t47 73.5t64 48t80 17q75 0 115.5 -48t40.5 -131q0 -30 -3.5 -61t-9.5 -60q-10 -51 -29 -93.5t-47 -73.5t-64 -48t-80 -17zM208 18q75 0 119 53.5t61 146.5l11 58q3 17 4 32.5t1 32.5
q0 72 -30.5 110.5t-94.5 38.5q-75 0 -119 -53.5t-61 -146.5l-11 -58q-3 -17 -4 -32.5t-1 -32.5q0 -72 30.5 -110.5t94.5 -38.5zM425 697l-20 13l123 158l27 -19zM340 737l91 -134l-21 -14l-89 124l-133 -124l-18 16l135 132h35z" />
    <glyph glyph-name="uni1ED2" unicode="&#x1ed2;" horiz-adv-x="599" 
d="M263 -12q-100 0 -153 64t-53 175q0 39 4.5 81.5t12.5 80.5q13 66 37.5 124t61 102t85 69.5t110.5 25.5q100 0 153 -64t53 -175q0 -39 -4.5 -81.5t-12.5 -80.5q-13 -66 -37.5 -124t-61 -102t-85 -69.5t-110.5 -25.5zM265 20q94 0 159.5 72.5t90.5 203.5l14 73q5 29 7 55
t2 46q0 94 -42 151t-130 57q-94 0 -159.5 -72.5t-90.5 -203.5l-14 -73q-5 -29 -7 -55t-2 -46q0 -94 42 -151t130 -57zM206 1030l31 15l65 -160l-22 -10zM430 915l91 -134l-21 -14l-89 124l-133 -124l-18 16l135 132h35z" />
    <glyph glyph-name="uni1ED3" unicode="&#x1ed3;" horiz-adv-x="487" 
d="M205 -12q-75 0 -115.5 48t-40.5 131q0 30 3.5 61t9.5 60q10 51 29 93.5t47 73.5t64 48t80 17q75 0 115.5 -48t40.5 -131q0 -30 -3.5 -61t-9.5 -60q-10 -51 -29 -93.5t-47 -73.5t-64 -48t-80 -17zM208 18q75 0 119 53.5t61 146.5l11 58q3 17 4 32.5t1 32.5
q0 72 -30.5 110.5t-94.5 38.5q-75 0 -119 -53.5t-61 -146.5l-11 -58q-3 -17 -4 -32.5t-1 -32.5q0 -72 30.5 -110.5t94.5 -38.5zM118 852l31 15l65 -160l-22 -10zM342 737l91 -134l-21 -14l-89 124l-133 -124l-18 16l135 132h35z" />
    <glyph glyph-name="uni1ED4" unicode="&#x1ed4;" horiz-adv-x="599" 
d="M263 -12q-100 0 -153 64t-53 175q0 39 4.5 81.5t12.5 80.5q13 66 37.5 124t61 102t85 69.5t110.5 25.5q100 0 153 -64t53 -175q0 -39 -4.5 -81.5t-12.5 -80.5q-13 -66 -37.5 -124t-61 -102t-85 -69.5t-110.5 -25.5zM265 20q94 0 159.5 72.5t90.5 203.5l14 73q5 29 7 55
t2 46q0 94 -42 151t-130 57q-94 0 -159.5 -72.5t-90.5 -203.5l-14 -73q-5 -29 -7 -55t-2 -46q0 -94 42 -151t130 -57zM465 1033h117q28 0 28 -23q0 -5 -1.5 -10t-6 -12t-12.5 -17.5t-20 -26.5l-55 -72l-20 12l86 121h-121zM429 915l91 -134l-21 -14l-89 124l-133 -124
l-18 16l135 132h35z" />
    <glyph glyph-name="uni1ED5" unicode="&#x1ed5;" horiz-adv-x="487" 
d="M205 -12q-75 0 -115.5 48t-40.5 131q0 30 3.5 61t9.5 60q10 51 29 93.5t47 73.5t64 48t80 17q75 0 115.5 -48t40.5 -131q0 -30 -3.5 -61t-9.5 -60q-10 -51 -29 -93.5t-47 -73.5t-64 -48t-80 -17zM208 18q75 0 119 53.5t61 146.5l11 58q3 17 4 32.5t1 32.5
q0 72 -30.5 110.5t-94.5 38.5q-75 0 -119 -53.5t-61 -146.5l-11 -58q-3 -17 -4 -32.5t-1 -32.5q0 -72 30.5 -110.5t94.5 -38.5zM375 855h117q28 0 28 -23q0 -5 -1.5 -10t-6 -12t-12.5 -17.5t-20 -26.5l-55 -72l-20 12l86 121h-121zM340 737l91 -134l-21 -14l-89 124
l-133 -124l-18 16l135 132h35z" />
    <glyph glyph-name="uni1ED6" unicode="&#x1ed6;" horiz-adv-x="599" 
d="M263 -12q-100 0 -153 64t-53 175q0 39 4.5 81.5t12.5 80.5q13 66 37.5 124t61 102t85 69.5t110.5 25.5q100 0 153 -64t53 -175q0 -39 -4.5 -81.5t-12.5 -80.5q-13 -66 -37.5 -124t-61 -102t-85 -69.5t-110.5 -25.5zM265 20q94 0 159.5 72.5t90.5 203.5l14 73q5 29 7 55
t2 46q0 94 -42 151t-130 57q-94 0 -159.5 -72.5t-90.5 -203.5l-14 -73q-5 -29 -7 -55t-2 -46q0 -94 42 -151t130 -57zM434 914l91 -134l-21 -14l-89 124l-133 -124l-18 16l135 132h35zM287 991q38 42 80 42q20 0 33.5 -7.5t32.5 -21.5q18 -14 30.5 -20t26.5 -6q29 0 61 32
l14 -18q-38 -42 -80 -42q-20 0 -33.5 7.5t-32.5 21.5q-18 14 -30.5 20t-26.5 6q-29 0 -61 -32z" />
    <glyph glyph-name="uni1ED7" unicode="&#x1ed7;" horiz-adv-x="487" 
d="M205 -12q-75 0 -115.5 48t-40.5 131q0 30 3.5 61t9.5 60q10 51 29 93.5t47 73.5t64 48t80 17q75 0 115.5 -48t40.5 -131q0 -30 -3.5 -61t-9.5 -60q-10 -51 -29 -93.5t-47 -73.5t-64 -48t-80 -17zM208 18q75 0 119 53.5t61 146.5l11 58q3 17 4 32.5t1 32.5
q0 72 -30.5 110.5t-94.5 38.5q-75 0 -119 -53.5t-61 -146.5l-11 -58q-3 -17 -4 -32.5t-1 -32.5q0 -72 30.5 -110.5t94.5 -38.5zM340 737l91 -134l-21 -14l-89 124l-133 -124l-18 16l135 132h35zM193 814q38 42 80 42q20 0 33.5 -7.5t32.5 -21.5q18 -14 30.5 -20t26.5 -6
q29 0 61 32l14 -18q-38 -42 -80 -42q-20 0 -33.5 7.5t-32.5 21.5q-18 14 -30.5 20t-26.5 6q-29 0 -61 -32z" />
    <glyph glyph-name="uni1ED8" unicode="&#x1ed8;" horiz-adv-x="599" 
d="M263 -12q-100 0 -153 64t-53 175q0 39 4.5 81.5t12.5 80.5q13 66 37.5 124t61 102t85 69.5t110.5 25.5q100 0 153 -64t53 -175q0 -39 -4.5 -81.5t-12.5 -80.5q-13 -66 -37.5 -124t-61 -102t-85 -69.5t-110.5 -25.5zM265 20q94 0 159.5 72.5t90.5 203.5l14 73q5 29 7 55
t2 46q0 94 -42 151t-130 57q-94 0 -159.5 -72.5t-90.5 -203.5l-14 -73q-5 -29 -7 -55t-2 -46q0 -94 42 -151t130 -57zM435 926l88 -137l-21 -14l-88 125l-134 -125l-19 16l136 135h38zM219 -142q-12 0 -17.5 6t-5.5 14q0 9 3 18q4 12 10.5 17.5t20.5 5.5q12 0 17.5 -6
t5.5 -14q0 -9 -3 -18q-4 -12 -10.5 -17.5t-20.5 -5.5z" />
    <glyph glyph-name="uni1ED9" unicode="&#x1ed9;" horiz-adv-x="487" 
d="M205 -12q-75 0 -115.5 48t-40.5 131q0 30 3.5 61t9.5 60q10 51 29 93.5t47 73.5t64 48t80 17q75 0 115.5 -48t40.5 -131q0 -30 -3.5 -61t-9.5 -60q-10 -51 -29 -93.5t-47 -73.5t-64 -48t-80 -17zM208 18q75 0 119 53.5t61 146.5l11 58q3 17 4 32.5t1 32.5
q0 72 -30.5 110.5t-94.5 38.5q-75 0 -119 -53.5t-61 -146.5l-11 -58q-3 -17 -4 -32.5t-1 -32.5q0 -72 30.5 -110.5t94.5 -38.5zM345 748l88 -137l-20 -14l-89 125l-134 -125l-19 16l136 135h38zM165 -142q-12 0 -17.5 6t-5.5 14q0 9 3 18q4 12 10.5 17.5t20.5 5.5
q12 0 17.5 -6t5.5 -14q0 -9 -3 -18q-4 -12 -10.5 -17.5t-20.5 -5.5z" />
    <glyph glyph-name="uni1EDA" unicode="&#x1eda;" horiz-adv-x="599" 
d="M622 809l-21 -105q-3 -15 -11 -23.5t-26 -8.5h-88l-1 -5q54 -24 76.5 -74t22.5 -122q0 -39 -4.5 -81.5t-12.5 -80.5q-13 -66 -37.5 -124t-61 -102t-85 -69.5t-110.5 -25.5q-100 0 -153 64t-53 175q0 39 4.5 81.5t12.5 80.5q13 66 37.5 124t61 102t85 69.5t110.5 25.5
q43 0 76 -12h125l22 111h31zM265 20q94 0 159.5 72.5t90.5 203.5l14 73q5 29 7 55t2 46q0 94 -42 151t-130 57q-94 0 -159.5 -72.5t-90.5 -203.5l-14 -73q-5 -29 -7 -55t-2 -46q0 -94 42 -151t130 -57zM382 764l-20 13l123 158l27 -19z" />
    <glyph glyph-name="uni1EDB" unicode="&#x1edb;" horiz-adv-x="487" 
d="M205 -12q-75 0 -115.5 48t-40.5 131q0 30 3.5 61t9.5 60q10 51 29 93.5t47 73.5t64 48t80 17q37 0 66 -12h86l22 112h31l-21 -106q-3 -15 -11 -23t-26 -8h-57l-1 -6q38 -19 52.5 -56t14.5 -80q0 -30 -3.5 -61t-9.5 -60q-10 -51 -29 -93.5t-47 -73.5t-64 -48t-80 -17z
M208 18q75 0 119 53.5t61 146.5l11 58q3 17 4 32.5t1 32.5q0 72 -30.5 110.5t-94.5 38.5q-75 0 -119 -53.5t-61 -146.5l-11 -58q-3 -17 -4 -32.5t-1 -32.5q0 -72 30.5 -110.5t94.5 -38.5zM296 587l-20 13l123 158l27 -19z" />
    <glyph glyph-name="uni1EDC" unicode="&#x1edc;" horiz-adv-x="599" 
d="M622 809l-21 -105q-3 -15 -11 -23.5t-26 -8.5h-88l-1 -5q54 -24 76.5 -74t22.5 -122q0 -39 -4.5 -81.5t-12.5 -80.5q-13 -66 -37.5 -124t-61 -102t-85 -69.5t-110.5 -25.5q-100 0 -153 64t-53 175q0 39 4.5 81.5t12.5 80.5q13 66 37.5 124t61 102t85 69.5t110.5 25.5
q43 0 76 -12h125l22 111h31zM265 20q94 0 159.5 72.5t90.5 203.5l14 73q5 29 7 55t2 46q0 94 -42 151t-130 57q-94 0 -159.5 -72.5t-90.5 -203.5l-14 -73q-5 -29 -7 -55t-2 -46q0 -94 42 -151t130 -57zM333 920l31 15l65 -160l-22 -10z" />
    <glyph glyph-name="uni1EDD" unicode="&#x1edd;" horiz-adv-x="487" 
d="M205 -12q-75 0 -115.5 48t-40.5 131q0 30 3.5 61t9.5 60q10 51 29 93.5t47 73.5t64 48t80 17q37 0 66 -12h86l22 112h31l-21 -106q-3 -15 -11 -23t-26 -8h-57l-1 -6q38 -19 52.5 -56t14.5 -80q0 -30 -3.5 -61t-9.5 -60q-10 -51 -29 -93.5t-47 -73.5t-64 -48t-80 -17z
M208 18q75 0 119 53.5t61 146.5l11 58q3 17 4 32.5t1 32.5q0 72 -30.5 110.5t-94.5 38.5q-75 0 -119 -53.5t-61 -146.5l-11 -58q-3 -17 -4 -32.5t-1 -32.5q0 -72 30.5 -110.5t94.5 -38.5zM247 742l31 15l65 -160l-22 -10z" />
    <glyph glyph-name="uni1EDE" unicode="&#x1ede;" horiz-adv-x="599" 
d="M622 809l-21 -105q-3 -15 -11 -23.5t-26 -8.5h-88l-1 -5q54 -24 76.5 -74t22.5 -122q0 -39 -4.5 -81.5t-12.5 -80.5q-13 -66 -37.5 -124t-61 -102t-85 -69.5t-110.5 -25.5q-100 0 -153 64t-53 175q0 39 4.5 81.5t12.5 80.5q13 66 37.5 124t61 102t85 69.5t110.5 25.5
q43 0 76 -12h125l22 111h31zM265 20q94 0 159.5 72.5t90.5 203.5l14 73q5 29 7 55t2 46q0 94 -42 151t-130 57q-94 0 -159.5 -72.5t-90.5 -203.5l-14 -73q-5 -29 -7 -55t-2 -46q0 -94 42 -151t130 -57zM338 921h117q28 0 28 -23q0 -5 -1.5 -10t-6 -12t-12.5 -17.5t-20 -26.5
l-55 -72l-20 12l86 121h-121z" />
    <glyph glyph-name="uni1EDF" unicode="&#x1edf;" horiz-adv-x="487" 
d="M205 -12q-75 0 -115.5 48t-40.5 131q0 30 3.5 61t9.5 60q10 51 29 93.5t47 73.5t64 48t80 17q37 0 66 -12h86l22 112h31l-21 -106q-3 -15 -11 -23t-26 -8h-57l-1 -6q38 -19 52.5 -56t14.5 -80q0 -30 -3.5 -61t-9.5 -60q-10 -51 -29 -93.5t-47 -73.5t-64 -48t-80 -17z
M208 18q75 0 119 53.5t61 146.5l11 58q3 17 4 32.5t1 32.5q0 72 -30.5 110.5t-94.5 38.5q-75 0 -119 -53.5t-61 -146.5l-11 -58q-3 -17 -4 -32.5t-1 -32.5q0 -72 30.5 -110.5t94.5 -38.5zM253 744h117q28 0 28 -23q0 -5 -1.5 -10t-6 -12t-12.5 -17.5t-20 -26.5l-55 -72
l-20 12l86 121h-121z" />
    <glyph glyph-name="uni1EE0" unicode="&#x1ee0;" horiz-adv-x="599" 
d="M622 809l-21 -105q-3 -15 -11 -23.5t-26 -8.5h-88l-1 -5q54 -24 76.5 -74t22.5 -122q0 -39 -4.5 -81.5t-12.5 -80.5q-13 -66 -37.5 -124t-61 -102t-85 -69.5t-110.5 -25.5q-100 0 -153 64t-53 175q0 39 4.5 81.5t12.5 80.5q13 66 37.5 124t61 102t85 69.5t110.5 25.5
q43 0 76 -12h125l22 111h31zM265 20q94 0 159.5 72.5t90.5 203.5l14 73q5 29 7 55t2 46q0 94 -42 151t-130 57q-94 0 -159.5 -72.5t-90.5 -203.5l-14 -73q-5 -29 -7 -55t-2 -46q0 -94 42 -151t130 -57zM526 845q-36 -42 -78 -42q-19 0 -31.5 7t-32.5 21q-17 14 -29 19.5
t-26 5.5q-29 0 -60 -31l-14 18q36 42 78 42q19 0 31.5 -7t32.5 -21q17 -14 29 -19.5t26 -5.5q29 0 60 31z" />
    <glyph glyph-name="uni1EE1" unicode="&#x1ee1;" horiz-adv-x="487" 
d="M205 -12q-75 0 -115.5 48t-40.5 131q0 30 3.5 61t9.5 60q10 51 29 93.5t47 73.5t64 48t80 17q37 0 66 -12h86l22 112h31l-21 -106q-3 -15 -11 -23t-26 -8h-57l-1 -6q38 -19 52.5 -56t14.5 -80q0 -30 -3.5 -61t-9.5 -60q-10 -51 -29 -93.5t-47 -73.5t-64 -48t-80 -17z
M208 18q75 0 119 53.5t61 146.5l11 58q3 17 4 32.5t1 32.5q0 72 -30.5 110.5t-94.5 38.5q-75 0 -119 -53.5t-61 -146.5l-11 -58q-3 -17 -4 -32.5t-1 -32.5q0 -72 30.5 -110.5t94.5 -38.5zM432 667q-36 -42 -78 -42q-19 0 -31.5 7t-32.5 21q-17 14 -29 19.5t-26 5.5
q-29 0 -60 -31l-14 18q36 42 78 42q19 0 31.5 -7t32.5 -21q17 -14 29 -19.5t26 -5.5q29 0 60 31z" />
    <glyph glyph-name="uni1EE2" unicode="&#x1ee2;" horiz-adv-x="599" 
d="M622 809l-21 -105q-3 -15 -11 -23.5t-26 -8.5h-88l-1 -5q54 -24 76.5 -74t22.5 -122q0 -39 -4.5 -81.5t-12.5 -80.5q-13 -66 -37.5 -124t-61 -102t-85 -69.5t-110.5 -25.5q-100 0 -153 64t-53 175q0 39 4.5 81.5t12.5 80.5q13 66 37.5 124t61 102t85 69.5t110.5 25.5
q43 0 76 -12h125l22 111h31zM265 20q94 0 159.5 72.5t90.5 203.5l14 73q5 29 7 55t2 46q0 94 -42 151t-130 57q-94 0 -159.5 -72.5t-90.5 -203.5l-14 -73q-5 -29 -7 -55t-2 -46q0 -94 42 -151t130 -57zM219 -142q-12 0 -17.5 6t-5.5 14q0 9 3 18q4 12 10.5 17.5t20.5 5.5
q12 0 17.5 -6t5.5 -14q0 -9 -3 -18q-4 -12 -10.5 -17.5t-20.5 -5.5z" />
    <glyph glyph-name="uni1EE3" unicode="&#x1ee3;" horiz-adv-x="487" 
d="M205 -12q-75 0 -115.5 48t-40.5 131q0 30 3.5 61t9.5 60q10 51 29 93.5t47 73.5t64 48t80 17q37 0 66 -12h86l22 112h31l-21 -106q-3 -15 -11 -23t-26 -8h-57l-1 -6q38 -19 52.5 -56t14.5 -80q0 -30 -3.5 -61t-9.5 -60q-10 -51 -29 -93.5t-47 -73.5t-64 -48t-80 -17z
M208 18q75 0 119 53.5t61 146.5l11 58q3 17 4 32.5t1 32.5q0 72 -30.5 110.5t-94.5 38.5q-75 0 -119 -53.5t-61 -146.5l-11 -58q-3 -17 -4 -32.5t-1 -32.5q0 -72 30.5 -110.5t94.5 -38.5zM165 -142q-12 0 -17.5 6t-5.5 14q0 9 3 18q4 12 10.5 17.5t20.5 5.5q12 0 17.5 -6
t5.5 -14q0 -9 -3 -18q-4 -12 -10.5 -17.5t-20.5 -5.5z" />
    <glyph glyph-name="uni1EE4" unicode="&#x1ee4;" horiz-adv-x="582" 
d="M210 698l-88 -440q-8 -39 -11 -63.5t-3 -44.5q0 -63 35.5 -96.5t108.5 -33.5q45 0 78.5 11.5t58.5 39.5t42 74t31 114l87 439h36l-88 -442q-15 -78 -36 -129.5t-50 -82.5t-68 -43.5t-91 -12.5q-85 0 -132.5 39t-47.5 121q0 21 4 51t12 69l86 430h36zM214 -142
q-12 0 -17.5 6t-5.5 14q0 9 3 18q4 12 10.5 17.5t20.5 5.5q12 0 17.5 -6t5.5 -14q0 -9 -3 -18q-4 -12 -10.5 -17.5t-20.5 -5.5z" />
    <glyph glyph-name="uni1EE5" unicode="&#x1ee5;" horiz-adv-x="500" 
d="M165 508l-64 -320q-4 -20 -6 -40t-2 -32q0 -98 92 -98q32 0 61.5 14.5t52.5 44.5q18 23 33.5 54.5t25.5 79.5l60 297h34l-96 -478h74l-6 -30h-73q-29 0 -29 23q0 9 3 23l12 58h-7q-25 -58 -63 -87t-93 -29q-57 0 -86 32.5t-29 91.5q0 17 2 36t6 39l64 321h34zM164 -142
q-12 0 -17.5 6t-5.5 14q0 9 3 18q4 12 10.5 17.5t20.5 5.5q12 0 17.5 -6t5.5 -14q0 -9 -3 -18q-4 -12 -10.5 -17.5t-20.5 -5.5z" />
    <glyph glyph-name="uni1EE6" unicode="&#x1ee6;" horiz-adv-x="582" 
d="M210 698l-88 -440q-8 -39 -11 -63.5t-3 -44.5q0 -63 35.5 -96.5t108.5 -33.5q45 0 78.5 11.5t58.5 39.5t42 74t31 114l87 439h36l-88 -442q-15 -78 -36 -129.5t-50 -82.5t-68 -43.5t-91 -12.5q-85 0 -132.5 39t-47.5 121q0 21 4 51t12 69l86 430h36zM339 921h117
q28 0 28 -23q0 -5 -1.5 -10t-6 -12t-12.5 -17.5t-20 -26.5l-55 -72l-20 12l86 121h-121z" />
    <glyph glyph-name="uni1EE7" unicode="&#x1ee7;" horiz-adv-x="500" 
d="M165 508l-64 -320q-4 -20 -6 -40t-2 -32q0 -98 92 -98q32 0 61.5 14.5t52.5 44.5q18 23 33.5 54.5t25.5 79.5l60 297h34l-96 -478h74l-6 -30h-73q-29 0 -29 23q0 9 3 23l12 58h-7q-25 -58 -63 -87t-93 -29q-57 0 -86 32.5t-29 91.5q0 17 2 36t6 39l64 321h34zM249 744
h117q28 0 28 -23q0 -5 -1.5 -10t-6 -12t-12.5 -17.5t-20 -26.5l-55 -72l-20 12l86 121h-121z" />
    <glyph glyph-name="uni1EE8" unicode="&#x1ee8;" horiz-adv-x="585" 
d="M210 698l-88 -440q-8 -39 -11 -63.5t-3 -44.5q0 -63 36 -96.5t108 -33.5q45 0 78.5 11.5t58.5 39.5t42 73.5t31 114.5l87 439h75l22 111h31l-20 -105q-3 -15 -11.5 -23.5t-25.5 -8.5h-40l-83 -416q-15 -77 -35.5 -128.5t-49.5 -82.5t-68.5 -44t-91.5 -13q-85 0 -132.5 39
t-47.5 121q0 24 4 52.5t12 67.5l86 430h36zM383 764l-20 13l123 158l27 -19z" />
    <glyph glyph-name="uni1EE9" unicode="&#x1ee9;" horiz-adv-x="503" 
d="M351 0q-29 0 -29 23q0 9 3 23l12 58h-7q-25 -58 -63 -87t-93 -29q-57 0 -86 32.5t-29 91.5q0 17 2 36t6 39l64 321h34l-64 -320q-4 -20 -6 -40t-2 -32q0 -98 92 -98q32 0 61.5 14.5t52.5 44.5q18 23 33.5 54.5t25.5 79.5l60 297h77l22 112h31l-21 -106q-3 -15 -11 -23
t-26 -8h-43l-91 -453h74l-6 -30h-73zM292 587l-20 13l123 158l27 -19z" />
    <glyph glyph-name="uni1EEA" unicode="&#x1eea;" horiz-adv-x="585" 
d="M210 698l-88 -440q-8 -39 -11 -63.5t-3 -44.5q0 -63 36 -96.5t108 -33.5q45 0 78.5 11.5t58.5 39.5t42 73.5t31 114.5l87 439h75l22 111h31l-20 -105q-3 -15 -11.5 -23.5t-25.5 -8.5h-40l-83 -416q-15 -77 -35.5 -128.5t-49.5 -82.5t-68.5 -44t-91.5 -13q-85 0 -132.5 39
t-47.5 121q0 24 4 52.5t12 67.5l86 430h36zM334 920l31 15l65 -160l-22 -10z" />
    <glyph glyph-name="uni1EEB" unicode="&#x1eeb;" horiz-adv-x="503" 
d="M351 0q-29 0 -29 23q0 9 3 23l12 58h-7q-25 -58 -63 -87t-93 -29q-57 0 -86 32.5t-29 91.5q0 17 2 36t6 39l64 321h34l-64 -320q-4 -20 -6 -40t-2 -32q0 -98 92 -98q32 0 61.5 14.5t52.5 44.5q18 23 33.5 54.5t25.5 79.5l60 297h77l22 112h31l-21 -106q-3 -15 -11 -23
t-26 -8h-43l-91 -453h74l-6 -30h-73zM243 742l31 15l65 -160l-22 -10z" />
    <glyph glyph-name="uni1EEC" unicode="&#x1eec;" horiz-adv-x="585" 
d="M210 698l-88 -440q-8 -39 -11 -63.5t-3 -44.5q0 -63 36 -96.5t108 -33.5q45 0 78.5 11.5t58.5 39.5t42 73.5t31 114.5l87 439h75l22 111h31l-20 -105q-3 -15 -11.5 -23.5t-25.5 -8.5h-40l-83 -416q-15 -77 -35.5 -128.5t-49.5 -82.5t-68.5 -44t-91.5 -13q-85 0 -132.5 39
t-47.5 121q0 24 4 52.5t12 67.5l86 430h36zM339 921h117q28 0 28 -23q0 -5 -1.5 -10t-6 -12t-12.5 -17.5t-20 -26.5l-55 -72l-20 12l86 121h-121z" />
    <glyph glyph-name="uni1EED" unicode="&#x1eed;" horiz-adv-x="503" 
d="M351 0q-29 0 -29 23q0 9 3 23l12 58h-7q-25 -58 -63 -87t-93 -29q-57 0 -86 32.5t-29 91.5q0 17 2 36t6 39l64 321h34l-64 -320q-4 -20 -6 -40t-2 -32q0 -98 92 -98q32 0 61.5 14.5t52.5 44.5q18 23 33.5 54.5t25.5 79.5l60 297h77l22 112h31l-21 -106q-3 -15 -11 -23
t-26 -8h-43l-91 -453h74l-6 -30h-73zM249 744h117q28 0 28 -23q0 -5 -1.5 -10t-6 -12t-12.5 -17.5t-20 -26.5l-55 -72l-20 12l86 121h-121z" />
    <glyph glyph-name="uni1EEE" unicode="&#x1eee;" horiz-adv-x="585" 
d="M210 698l-88 -440q-8 -39 -11 -63.5t-3 -44.5q0 -63 36 -96.5t108 -33.5q45 0 78.5 11.5t58.5 39.5t42 73.5t31 114.5l87 439h75l22 111h31l-20 -105q-3 -15 -11.5 -23.5t-25.5 -8.5h-40l-83 -416q-15 -77 -35.5 -128.5t-49.5 -82.5t-68.5 -44t-91.5 -13q-85 0 -132.5 39
t-47.5 121q0 24 4 52.5t12 67.5l86 430h36zM537 845q-36 -42 -78 -42q-19 0 -31.5 7t-32.5 21q-17 14 -29 19.5t-26 5.5q-29 0 -60 -31l-14 18q36 42 78 42q19 0 31.5 -7t32.5 -21q17 -14 29 -19.5t26 -5.5q29 0 60 31z" />
    <glyph glyph-name="uni1EEF" unicode="&#x1eef;" horiz-adv-x="503" 
d="M351 0q-29 0 -29 23q0 9 3 23l12 58h-7q-25 -58 -63 -87t-93 -29q-57 0 -86 32.5t-29 91.5q0 17 2 36t6 39l64 321h34l-64 -320q-4 -20 -6 -40t-2 -32q0 -98 92 -98q32 0 61.5 14.5t52.5 44.5q18 23 33.5 54.5t25.5 79.5l60 297h77l22 112h31l-21 -106q-3 -15 -11 -23
t-26 -8h-43l-91 -453h74l-6 -30h-73zM452 667q-36 -42 -78 -42q-19 0 -31.5 7t-32.5 21q-17 14 -29 19.5t-26 5.5q-29 0 -60 -31l-14 18q36 42 78 42q19 0 31.5 -7t32.5 -21q17 -14 29 -19.5t26 -5.5q29 0 60 31z" />
    <glyph glyph-name="uni1EF0" unicode="&#x1ef0;" horiz-adv-x="585" 
d="M210 698l-88 -440q-8 -39 -11 -63.5t-3 -44.5q0 -63 36 -96.5t108 -33.5q45 0 78.5 11.5t58.5 39.5t42 73.5t31 114.5l87 439h75l22 111h31l-20 -105q-3 -15 -11.5 -23.5t-25.5 -8.5h-40l-83 -416q-15 -77 -35.5 -128.5t-49.5 -82.5t-68.5 -44t-91.5 -13q-85 0 -132.5 39
t-47.5 121q0 24 4 52.5t12 67.5l86 430h36zM214 -142q-12 0 -17.5 6t-5.5 14q0 9 3 18q4 12 10.5 17.5t20.5 5.5q12 0 17.5 -6t5.5 -14q0 -9 -3 -18q-4 -12 -10.5 -17.5t-20.5 -5.5z" />
    <glyph glyph-name="uni1EF1" unicode="&#x1ef1;" horiz-adv-x="503" 
d="M351 0q-29 0 -29 23q0 9 3 23l12 58h-7q-25 -58 -63 -87t-93 -29q-57 0 -86 32.5t-29 91.5q0 17 2 36t6 39l64 321h34l-64 -320q-4 -20 -6 -40t-2 -32q0 -98 92 -98q32 0 61.5 14.5t52.5 44.5q18 23 33.5 54.5t25.5 79.5l60 297h77l22 112h31l-21 -106q-3 -15 -11 -23
t-26 -8h-43l-91 -453h74l-6 -30h-73zM159 -142q-12 0 -17.5 6t-5.5 14q0 9 3 18q4 12 10.5 17.5t20.5 5.5q12 0 17.5 -6t5.5 -14q0 -9 -3 -18q-4 -12 -10.5 -17.5t-20.5 -5.5z" />
    <glyph glyph-name="Ygrave" unicode="&#x1ef2;" horiz-adv-x="496" 
d="M179 0l58 288l-130 410h36l116 -368h6l264 368h40l-296 -410l-58 -288h-36zM285 920l31 15l65 -160l-22 -10z" />
    <glyph glyph-name="ygrave" unicode="&#x1ef3;" horiz-adv-x="423" 
d="M410 508h36l-353 -679q-8 -17 -17.5 -23t-26.5 -6h-72l6 30h76l81 157l-71 521h34l34 -265l25 -213h6l106 213zM212 742l31 15l65 -160l-22 -10z" />
    <glyph glyph-name="uni1EF4" unicode="&#x1ef4;" horiz-adv-x="496" 
d="M179 0l58 288l-130 410h36l116 -368h6l264 368h40l-296 -410l-58 -288h-36zM169 -142q-12 0 -17.5 6t-5.5 14q0 9 3 18q4 12 10.5 17.5t20.5 5.5q12 0 17.5 -6t5.5 -14q0 -9 -3 -18q-4 -12 -10.5 -17.5t-20.5 -5.5z" />
    <glyph glyph-name="uni1EF5" unicode="&#x1ef5;" horiz-adv-x="423" 
d="M410 508h36l-353 -679q-8 -17 -17.5 -23t-26.5 -6h-72l6 30h76l81 157l-71 521h34l34 -265l25 -213h6l106 213zM246 -142q-12 0 -17.5 6t-5.5 14q0 9 3 18q4 12 10.5 17.5t20.5 5.5q12 0 17.5 -6t5.5 -14q0 -9 -3 -18q-4 -12 -10.5 -17.5t-20.5 -5.5z" />
    <glyph glyph-name="uni1EF6" unicode="&#x1ef6;" horiz-adv-x="496" 
d="M179 0l58 288l-130 410h36l116 -368h6l264 368h40l-296 -410l-58 -288h-36zM290 921h117q28 0 28 -23q0 -5 -1.5 -10t-6 -12t-12.5 -17.5t-20 -26.5l-55 -72l-20 12l86 121h-121z" />
    <glyph glyph-name="uni1EF7" unicode="&#x1ef7;" horiz-adv-x="423" 
d="M410 508h36l-353 -679q-8 -17 -17.5 -23t-26.5 -6h-72l6 30h76l81 157l-71 521h34l34 -265l25 -213h6l106 213zM217 744h117q28 0 28 -23q0 -5 -1.5 -10t-6 -12t-12.5 -17.5t-20 -26.5l-55 -72l-20 12l86 121h-121z" />
    <glyph glyph-name="uni1EF8" unicode="&#x1ef8;" horiz-adv-x="496" 
d="M179 0l58 288l-130 410h36l116 -368h6l264 368h40l-296 -410l-58 -288h-36zM215 843q38 42 80 42q20 0 33.5 -7.5t32.5 -21.5q18 -14 30.5 -20t26.5 -6q29 0 61 32l14 -18q-38 -42 -80 -42q-20 0 -33.5 7.5t-32.5 21.5q-18 14 -30.5 20t-26.5 6q-29 0 -61 -32z" />
    <glyph glyph-name="uni1EF9" unicode="&#x1ef9;" horiz-adv-x="423" 
d="M410 508h36l-353 -679q-8 -17 -17.5 -23t-26.5 -6h-72l6 30h76l81 157l-71 521h34l34 -265l25 -213h6l106 213zM143 665q38 42 80 42q20 0 33.5 -7.5t32.5 -21.5q18 -14 30.5 -20t26.5 -6q29 0 61 32l14 -18q-38 -42 -80 -42q-20 0 -33.5 7.5t-32.5 21.5q-18 14 -30.5 20
t-26.5 6q-29 0 -61 -32z" />
    <glyph glyph-name="endash" unicode="&#x2013;" horiz-adv-x="512" 
d="M33 289l6 31h459l-6 -31h-459z" />
    <glyph glyph-name="emdash" unicode="&#x2014;" horiz-adv-x="682" 
d="M33 289l6 31h630l-6 -31h-630z" />
    <glyph glyph-name="quoteleft" unicode="&#x2018;" horiz-adv-x="224" 
d="M166 533q-16 0 -22.5 7t-6.5 17t4 23q6 18 15.5 40t22 43.5t28.5 41.5t35 35h30q-39 -35 -61 -71t-32 -66q15 0 21.5 -6t6.5 -15q0 -5 -1 -11t-3 -11q-3 -11 -11 -19t-26 -8z" />
    <glyph glyph-name="quoteright" unicode="&#x2019;" horiz-adv-x="224" 
d="M212 742q16 0 22.5 -7t6.5 -17t-4 -23q-6 -18 -15.5 -40t-22 -43.5t-28.5 -41.5t-35 -35h-30q39 35 61 71t32 66q-15 0 -21.5 6t-6.5 15q0 5 1 11t3 11q3 11 11 19t26 8z" />
    <glyph glyph-name="quotesinglbase" unicode="&#x201a;" horiz-adv-x="223" 
d="M75 78q16 0 22.5 -7t6.5 -17t-4 -23q-6 -18 -15.5 -40t-22 -43.5t-28.5 -41.5t-35 -35h-30q39 35 61 71t32 66q-15 0 -21.5 6t-6.5 15q0 5 1 11t3 11q3 11 11 19t26 8z" />
    <glyph glyph-name="quotedblleft" unicode="&#x201c;" horiz-adv-x="378" 
d="M166 533q-16 0 -22.5 7t-6.5 17t4 23q6 18 15.5 40t22 43.5t28.5 41.5t35 35h30q-39 -35 -61 -71t-32 -66q15 0 21.5 -6t6.5 -15q0 -5 -1 -11t-3 -11q-3 -11 -11 -19t-26 -8zM320 533q-16 0 -22.5 7t-6.5 17t4 23q6 18 15.5 40t22 43.5t28.5 41.5t35 35h30
q-39 -35 -61 -71t-32 -66q15 0 21.5 -6t6.5 -15q0 -5 -1 -11t-3 -11q-3 -11 -11 -19t-26 -8z" />
    <glyph glyph-name="quotedblright" unicode="&#x201d;" horiz-adv-x="377" 
d="M212 742q16 0 22.5 -7t6.5 -17t-4 -23q-6 -18 -15.5 -40t-22 -43.5t-28.5 -41.5t-35 -35h-30q39 35 61 71t32 66q-15 0 -21.5 6t-6.5 15q0 5 1 11t3 11q3 11 11 19t26 8zM365 742q16 0 22.5 -7t6.5 -17t-4 -23q-6 -18 -15.5 -40t-22 -43.5t-28.5 -41.5t-35 -35h-30
q39 35 61 71t32 66q-15 0 -21.5 6t-6.5 15q0 5 1 11t3 11q3 11 11 19t26 8z" />
    <glyph glyph-name="quotedblbase" unicode="&#x201e;" horiz-adv-x="377" 
d="M75 78q16 0 22.5 -7t6.5 -17t-4 -23q-6 -18 -15.5 -40t-22 -43.5t-28.5 -41.5t-35 -35h-30q39 35 61 71t32 66q-15 0 -21.5 6t-6.5 15q0 5 1 11t3 11q3 11 11 19t26 8zM229 78q16 0 22.5 -7t6.5 -17t-4 -23q-6 -18 -15.5 -40t-22 -43.5t-28.5 -41.5t-35 -35h-30
q39 35 61 71t32 66q-15 0 -21.5 6t-6.5 15q0 5 1 11t3 11q3 11 11 19t26 8z" />
    <glyph glyph-name="dagger" unicode="&#x2020;" horiz-adv-x="499" 
d="M143 -200l136 681h-184l6 27h183l47 232h31l-46 -232h183l-5 -27h-184l-136 -681h-31z" />
    <glyph glyph-name="daggerdbl" unicode="&#x2021;" horiz-adv-x="499" 
d="M189 32h-183l5 27h184l84 422h-184l6 27h183l47 232h31l-46 -232h183l-5 -27h-184l-84 -422h183l-5 -27h-183l-47 -232h-31z" />
    <glyph glyph-name="bullet" unicode="&#x2022;" horiz-adv-x="349" 
d="M171 213q-42 0 -59.5 17t-17.5 44q0 5 1.5 16.5t5.5 28.5q8 34 29.5 55t67.5 21q42 0 59.5 -17t17.5 -44q0 -5 -1.5 -16.5t-5.5 -28.5q-8 -34 -29.5 -55t-67.5 -21z" />
    <glyph glyph-name="ellipsis" unicode="&#x2026;" horiz-adv-x="671" 
d="M61 -7q-15 0 -22 6.5t-7 16.5q0 4 1 10.5t3 11.5q4 11 11.5 18.5t25.5 7.5q15 0 22 -6.5t7 -16.5q0 -4 -1 -10.5t-3 -11.5q-4 -11 -11.5 -18.5t-25.5 -7.5zM284 -7q-15 0 -22 6.5t-7 16.5q0 4 1 10.5t3 11.5q4 11 11.5 18.5t25.5 7.5q15 0 22 -6.5t7 -16.5q0 -4 -1 -10.5
t-3 -11.5q-4 -11 -11.5 -18.5t-25.5 -7.5zM507 -7q-15 0 -22 6.5t-7 16.5q0 4 1 10.5t3 11.5q4 11 11.5 18.5t25.5 7.5q15 0 22 -6.5t7 -16.5q0 -4 -1 -10.5t-3 -11.5q-4 -11 -11.5 -18.5t-25.5 -7.5z" />
    <glyph glyph-name="perthousand" unicode="&#x2030;" horiz-adv-x="1116" 
d="M118 0l559 698h35l-559 -698h-35zM218 348q48 0 79 35t43 101l9 50q2 14 2.5 24.5t0.5 21.5q0 48 -18.5 77t-60.5 29q-48 0 -79 -35t-43 -101l-9 -50q-2 -14 -2.5 -24.5t-0.5 -21.5q0 -48 18.5 -77t60.5 -29zM215 324q-52 0 -78.5 36t-26.5 94q0 20 2.5 44t7.5 47
q7 33 19.5 63t31.5 52.5t45 36t60 13.5q52 0 78.5 -36t26.5 -94q0 -20 -2.5 -44t-7.5 -47q-7 -33 -19.5 -63t-31.5 -52.5t-45 -36t-60 -13.5zM559 12q48 0 79 35t43 101l9 50q2 14 2.5 24.5t0.5 21.5q0 48 -18.5 77t-60.5 29q-48 0 -79 -35t-43 -101l-9 -50
q-2 -14 -2.5 -24.5t-0.5 -21.5q0 -48 18.5 -77t60.5 -29zM556 -12q-52 0 -78.5 36t-26.5 94q0 20 2.5 44t7.5 47q7 33 19.5 63t31.5 52.5t45 36t60 13.5q52 0 78.5 -36t26.5 -94q0 -20 -2.5 -44t-7.5 -47q-7 -33 -19.5 -63t-31.5 -52.5t-45 -36t-60 -13.5zM878 12
q48 0 79 35t43 101l9 50q2 14 2.5 24.5t0.5 21.5q0 48 -18.5 77t-60.5 29q-48 0 -79 -35t-43 -101l-9 -50q-2 -14 -2.5 -24.5t-0.5 -21.5q0 -48 18.5 -77t60.5 -29zM875 -12q-52 0 -78.5 36t-26.5 94q0 20 2.5 44t7.5 47q7 33 19.5 63t31.5 52.5t45 36t60 13.5
q52 0 78.5 -36t26.5 -94q0 -20 -2.5 -44t-7.5 -47q-7 -33 -19.5 -63t-31.5 -52.5t-45 -36t-60 -13.5z" />
    <glyph glyph-name="guilsinglleft" unicode="&#x2039;" horiz-adv-x="261" 
d="M180 100l-140 177l6 31l192 175l12 -25l-175 -166v-5l123 -169z" />
    <glyph glyph-name="guilsinglright" unicode="&#x203a;" horiz-adv-x="261" 
d="M26 125l175 166v5l-123 169l18 18l140 -177l-6 -31l-192 -175z" />
    <glyph glyph-name="fraction" unicode="&#x2044;" horiz-adv-x="100" 
d="M331 698h34l-214 -264h-34zM-28 254h34l-205 -254h-34z" />
    <glyph glyph-name="uni2070" unicode="&#x2070;" horiz-adv-x="320" 
d="M186 323q-51 0 -77.5 33.5t-26.5 92.5q0 19 2 42t6 45q5 30 15.5 60t28 54t42.5 39t60 15q51 0 77.5 -33.5t26.5 -92.5q0 -19 -2 -42t-6 -45q-5 -30 -15.5 -60t-28 -54t-42.5 -39t-60 -15zM187 347q46 0 73 35.5t38 93.5l10 55q2 8 3 19t1 28q0 102 -77 102
q-46 0 -73 -35.5t-38 -93.5l-10 -55q-2 -8 -3 -19t-1 -28q0 -102 77 -102z" />
    <glyph glyph-name="uni2074" unicode="&#x2074;" horiz-adv-x="320" 
d="M224 329l17 85h-184l5 27l224 257h39l-52 -260h55l-5 -24h-55l-17 -85h-27zM292 667h-4l-199 -229h157z" />
    <glyph glyph-name="uni2075" unicode="&#x2075;" horiz-adv-x="320" 
d="M334 674h-165l-42 -160h5q16 23 37 31.5t45 8.5q47 0 69.5 -24t22.5 -69q0 -65 -36 -101.5t-94 -36.5q-47 0 -73.5 17t-37.5 42l21 15q11 -23 31 -36.5t60 -13.5q41 0 65 21.5t32 60.5q3 19 3 33q0 30 -15.5 49t-55.5 19q-28 0 -46.5 -8.5t-35.5 -27.5l-24 3l52 201h187z
" />
    <glyph glyph-name="uni2076" unicode="&#x2076;" horiz-adv-x="320" 
d="M181 323q-45 0 -73 25.5t-28 75.5q0 25 6 51q8 37 28 71.5t44.5 63.5t52 51.5t50.5 36.5h41q-60 -38 -107.5 -84.5t-73.5 -109.5l5 -1q17 25 38.5 37.5t54.5 12.5q42 0 67.5 -26t25.5 -70q0 -63 -36.5 -98.5t-94.5 -35.5zM183 347q34 0 62.5 19t34.5 60q2 14 2.5 21
t0.5 12q0 34 -20.5 52t-54.5 18t-62.5 -19t-34.5 -60q-2 -14 -2.5 -21t-0.5 -12q0 -34 20.5 -52t54.5 -18z" />
    <glyph glyph-name="uni2077" unicode="&#x2077;" horiz-adv-x="320" 
d="M123 329l203 345h-177l-17 -86h-25l22 110h231l-6 -27l-201 -342h-30z" />
    <glyph glyph-name="uni2078" unicode="&#x2078;" horiz-adv-x="320" 
d="M188 323q-55 0 -83 24t-28 66q0 43 27 71.5t68 34.5l1 5q-26 7 -39.5 25.5t-13.5 44.5q0 48 34 79t93 31q48 0 73 -22t25 -60q0 -33 -20 -62t-65 -38l-1 -4q29 -5 48.5 -25t19.5 -52q0 -51 -36 -84.5t-103 -33.5zM221 532q81 0 95 66q2 9 2 14v10q0 26 -18 42t-56 16
q-81 0 -95 -66q-2 -9 -2 -14v-10q0 -26 18 -42t56 -16zM191 347q47 0 73 19.5t32 51.5q3 19 3 24q0 65 -86 65q-47 0 -73 -19.5t-32 -51.5q-3 -20 -3 -24q0 -65 86 -65z" />
    <glyph glyph-name="uni2079" unicode="&#x2079;" horiz-adv-x="320" 
d="M226 704q45 0 73 -25.5t28 -75.5q0 -26 -6 -51q-8 -38 -28 -72t-44.5 -63t-52 -51.5t-50.5 -36.5h-41q60 38 107.5 84.5t73.5 109.5l-5 1q-17 -25 -38.5 -37.5t-54.5 -12.5q-42 0 -67.5 26t-25.5 70q0 63 36.5 98.5t94.5 35.5zM199 498q34 0 63 19t34 60l3 21t1 12
q0 34 -21 52t-55 18q-17 0 -33.5 -5t-29.5 -14.5t-22 -24.5t-12 -35l-3 -21t-1 -12q0 -34 21 -52t55 -18z" />
    <glyph glyph-name="uni2080" unicode="&#x2080;" horiz-adv-x="320" 
d="M119 -6q-51 0 -77.5 33.5t-26.5 92.5q0 19 2 42t6 45q5 30 15.5 60t28 54t42.5 39t60 15q51 0 77.5 -33.5t26.5 -92.5q0 -19 -2 -42t-6 -45q-5 -30 -15.5 -60t-28 -54t-42.5 -39t-60 -15zM120 18q46 0 73 35.5t38 93.5l10 55q2 8 3 19t1 28q0 102 -77 102
q-46 0 -73 -35.5t-38 -93.5l-10 -55q-2 -8 -3 -19t-1 -28q0 -102 77 -102z" />
    <glyph glyph-name="uni2081" unicode="&#x2081;" horiz-adv-x="320" 
d="M0 0l6 24h110l63 318l-130 -68l-9 20l140 75h31l-69 -345h101l-5 -24h-238z" />
    <glyph glyph-name="uni2082" unicode="&#x2082;" horiz-adv-x="320" 
d="M232 0h-233l7 28l148 117q40 32 61 56t26 50q4 19 4 29q0 30 -19 50t-54 20q-39 0 -62 -20.5t-36 -53.5l-24 10q17 39 45.5 64t80.5 25q46 0 72 -27t26 -69q0 -41 -25 -75.5t-78 -75.5l-133 -104h199z" />
    <glyph glyph-name="uni2083" unicode="&#x2083;" horiz-adv-x="320" 
d="M142 204q47 0 69 18.5t27 47.5q2 7 2 12v10q0 28 -17.5 43.5t-52.5 15.5q-32 0 -53 -11.5t-39 -35.5l-17 16q19 26 45.5 40.5t66.5 14.5q45 0 70 -22t25 -62q0 -41 -23 -67.5t-61 -31.5l-1 -4q59 -10 59 -79q0 -54 -34.5 -84.5t-92.5 -30.5q-45 0 -72 17.5t-38 42.5
l21 14q11 -23 32 -36.5t59 -13.5q44 0 66 17.5t28 49.5q2 9 2.5 15t0.5 12q0 32 -16.5 49.5t-55.5 17.5h-46l4 25h42z" />
    <glyph glyph-name="uni2084" unicode="&#x2084;" horiz-adv-x="320" 
d="M160 0l17 85h-184l5 27l224 257h39l-52 -260h55l-5 -24h-55l-17 -85h-27zM228 338h-4l-199 -229h157z" />
    <glyph glyph-name="uni2085" unicode="&#x2085;" horiz-adv-x="320" 
d="M106 345l-42 -160h5q16 23 37 31.5t45 8.5q47 0 69.5 -24t22.5 -69q0 -65 -36 -101.5t-94 -36.5q-47 0 -73.5 17t-37.5 42l21 15q11 -23 31 -36.5t60 -13.5q41 0 65 21.5t32 60.5q3 19 3 33q0 30 -15.5 49t-55.5 19q-28 0 -46.5 -8.5t-35.5 -27.5l-24 3l52 201h187
l-5 -24h-165z" />
    <glyph glyph-name="uni2086" unicode="&#x2086;" horiz-adv-x="320" 
d="M121 -6q-45 0 -73 25.5t-28 75.5q0 25 6 51q8 37 28 71.5t44.5 63.5t52 51.5t50.5 36.5h41q-60 -38 -107.5 -84.5t-73.5 -109.5l5 -1q17 25 38.5 37.5t54.5 12.5q42 0 67.5 -26t25.5 -70q0 -63 -36.5 -98.5t-94.5 -35.5zM123 18q34 0 62.5 19t34.5 60q2 14 2.5 21t0.5 12
q0 34 -20.5 52t-54.5 18t-62.5 -19t-34.5 -60q-2 -14 -2.5 -21t-0.5 -12q0 -34 20.5 -52t54.5 -18z" />
    <glyph glyph-name="uni2087" unicode="&#x2087;" horiz-adv-x="320" 
d="M54 0l203 345h-177l-17 -86h-25l22 110h231l-6 -27l-201 -342h-30z" />
    <glyph glyph-name="uni2088" unicode="&#x2088;" horiz-adv-x="320" 
d="M117 -6q-55 0 -83 24t-28 66q0 43 27 71.5t68 34.5l1 5q-26 7 -39.5 25.5t-13.5 44.5q0 48 34 79t93 31q48 0 73 -22t25 -60q0 -33 -20 -62t-65 -38l-1 -4q29 -5 48.5 -25t19.5 -52q0 -51 -36 -84.5t-103 -33.5zM120 18q47 0 73 19.5t32 51.5q3 19 3 24q0 65 -86 65
q-47 0 -73 -19.5t-32 -51.5q-3 -20 -3 -24q0 -65 86 -65zM150 203q81 0 95 66q2 9 2 14v10q0 26 -18 42t-56 16q-81 0 -95 -66q-2 -9 -2 -14v-10q0 -26 18 -42t56 -16z" />
    <glyph glyph-name="uni2089" unicode="&#x2089;" horiz-adv-x="320" 
d="M52 0q60 38 107.5 84.5t73.5 109.5l-5 1q-17 -25 -38.5 -37.5t-54.5 -12.5q-42 0 -67.5 26t-25.5 70q0 63 36.5 98.5t94.5 35.5q45 0 73 -25.5t28 -75.5q0 -26 -6 -51q-8 -38 -28 -72t-44.5 -63t-52 -51.5t-50.5 -36.5h-41zM146 169q34 0 63 19t34 60l3 21t1 12
q0 34 -21 52t-55 18q-17 0 -33.5 -5t-29.5 -14.5t-22 -24.5t-12 -35l-3 -21t-1 -12q0 -34 21 -52t55 -18z" />
    <glyph glyph-name="uni20A1" unicode="&#x20a1;" horiz-adv-x="547" 
d="M88 -82l38 124q-32 28 -50.5 73.5t-18.5 109.5q0 38 5 80t13 82q11 57 31.5 110.5t51.5 95.5t72 70t94 35l26 82h29l-25 -80h2q47 0 83 -14l29 94h29l-32 -106q32 -19 51.5 -49t27.5 -67l-30 -12q-6 31 -21 55.5t-39 40.5l-184 -612q59 2 101.5 35t74.5 102l29 -14
q-42 -83 -93 -118.5t-122 -36.5l-24 -80h-29l25 81q-47 5 -82 25l-33 -106h-29zM159 59q34 -25 83 -28l188 623q-33 14 -77 14h-10zM92 226q0 -51 12 -88t34 -60l176 586q-72 -14 -122.5 -80t-73.5 -177l-16 -76q-6 -31 -8 -58t-2 -47z" />
    <glyph glyph-name="uni20A4" unicode="&#x20a4;" horiz-adv-x="523" 
d="M410 0h-387l9 41q61 30 92.5 87t34.5 126h-103l6 29h97q-2 26 -5 60.5t-5 71.5h-61l6 29h54q-1 11 -1 21v21q0 55 16 97t44.5 70t67 42.5t83.5 14.5q127 0 171 -118l-31 -17q-19 54 -53.5 78.5t-88.5 24.5q-38 0 -69.5 -11.5t-55 -35.5t-36.5 -60.5t-13 -85.5v-41h216
l-6 -29h-208q2 -38 5 -72.5t4 -59.5h173l-6 -29h-168q-3 -78 -39 -134.5t-91 -82.5l-1 -5h355z" />
    <glyph glyph-name="uni20A6" unicode="&#x20a6;" horiz-adv-x="602" 
d="M334 255h-206l-51 -255h-32l51 255h-81l6 29h81l26 130h-80l6 29h80l51 255h43l80 -255h206l51 255h32l-51 -255h80l-6 -29h-80l-26 -130h80l-6 -29h-80l-51 -255h-43zM134 283h191l-41 132h-124zM358 283h124l26 132h-191zM458 164l18 91h-109l30 -96l34 -117h4z
M166 443h109l-30 96l-34 117h-4l-23 -122z" />
    <glyph glyph-name="uni20A8" unicode="&#x20a8;" horiz-adv-x="661" 
d="M182 698h118q66 0 95.5 -33.5t29.5 -91.5q0 -39 -8 -78t-26 -72t-46.5 -57t-69.5 -31l67 -216q9 -29 19 -48.5t23.5 -31t31 -16.5t40.5 -5q39 0 68.5 23.5t29.5 69.5q0 26 -9.5 47.5t-29.5 44.5l-32 37q-24 28 -34.5 53.5t-10.5 56.5q0 24 9 46.5t25 39.5t39 27t50 10
q26 0 48.5 -9t36.5 -26l-21 -22q-22 28 -65 28q-37 0 -62.5 -25t-25.5 -67q0 -26 8 -47t29 -44l33 -37q25 -28 35.5 -54t10.5 -58q0 -55 -35.5 -89.5t-97.5 -34.5q-61 0 -93.5 27t-51.5 89l-69 226h-97l-67 -330h-35zM237 361q56 0 92.5 31t48.5 92l8 45q2 14 3.5 25.5
t1.5 21.5q0 44 -22.5 67.5t-73.5 23.5h-84l-61 -306h87z" />
    <glyph glyph-name="uni20A9" unicode="&#x20a9;" horiz-adv-x="789" 
d="M66 444h58l-7 254h34l5 -254h190l110 254h51l8 -254h190l107 254h37l-109 -254h60l-6 -29h-67l-56 -132h97l-6 -29h-104l-109 -254h-51l-7 254h-195l-110 -254h-51l-7 254h-100l6 29h94l-4 132h-64zM308 282h182l-4 134h-120zM516 416l4 -134h116l57 134h-177zM160 282
h116l58 134h-177zM378 444h107l-6 218h-6zM624 254h-104l7 -214h7zM264 254h-104l5 -214h7z" />
    <glyph glyph-name="uni20AA" unicode="&#x20aa;" horiz-adv-x="686" 
d="M310 565h34l-106 -534h180q43 0 75 27t47 102l108 538h34l-107 -534q-17 -86 -55.5 -125t-106.5 -39h-215zM42 0l140 698h210q52 0 80 -28t28 -85q0 -11 -2 -24t-4 -28l-81 -400h-34l82 404q2 11 3 23.5t1 22.5q0 47 -20.5 65.5t-59.5 18.5h-176l-133 -667h-34z" />
    <glyph glyph-name="uni20AB" unicode="&#x20ab;" horiz-adv-x="509" 
d="M366 198h-7q-20 -36 -55 -64t-88 -28q-71 0 -106 44t-35 120q0 44 9 88q9 47 27.5 83t44.5 60.5t59 37t69 12.5q58 0 88.5 -27.5t38.5 -63.5h7l36 180h-143l6 28h143l14 72h32l-14 -72h63l-5 -28h-63l-105 -523h-32zM226 135q27 0 52 11t46 30.5t36 44.5t21 54l24 120
q5 24 -0.5 47t-21 41t-40 28.5t-58.5 10.5q-57 0 -102 -38.5t-60 -113.5q-8 -45 -11 -67.5t-3 -32.5q0 -65 28.5 -100t88.5 -35zM16 0l6 30h375l-6 -30h-375z" />
    <glyph glyph-name="Euro" unicode="&#x20ac;" horiz-adv-x="541" 
d="M260 -12q-99 0 -151 63.5t-52 175.5q0 39 4.5 81.5t12.5 80.5q13 66 37.5 124.5t60.5 102t84 69t110 25.5q76 0 120 -39.5t58 -105.5l-32 -11q-13 57 -47 90.5t-102 33.5q-86 0 -147.5 -61t-90.5 -173h237l-6 -29h-238q-3 -12 -6.5 -32.5t-7 -40.5t-6 -37t-3.5 -22h236
l-6 -29h-232v-26q0 -94 41.5 -151t127.5 -57q65 0 107.5 35t75.5 105l30 -16q-42 -82 -92.5 -119t-122.5 -37z" />
    <glyph glyph-name="uni20AD" unicode="&#x20ad;" horiz-adv-x="526" 
d="M81 0h-36l70 351h-81l6 31h81l64 316h36l-64 -316h79l287 316h42l-246 -268l-47 -48h219l-7 -31h-218l33 -61l142 -290h-40l-170 351h-80z" />
    <glyph glyph-name="uni20AE" unicode="&#x20ae;" horiz-adv-x="525" 
d="M279 247l-49 -247h-36l45 227l-148 -72l7 32l148 72l24 119l-148 -71l7 32l147 71l51 256h-215l7 32h465l-6 -32h-215l-47 -237l148 72l-7 -32l-148 -71l-23 -120l147 72l-7 -32z" />
    <glyph glyph-name="uni20B1" unicode="&#x20b1;" horiz-adv-x="552" 
d="M120 377h-83l6 29h83l26 130h-83l6 29h83l27 133h172q62 0 101.5 -34t46.5 -99h83l-6 -29h-76q-1 -31 -5 -64.5t-14 -65.5h69l-6 -29h-73q-55 -133 -182 -133h-166l-48 -244h-36zM194 565h277q-5 47 -35 74t-80 27h-142zM162 405h288q9 32 15 67.5t7 64.5h-284zM296 276
q55 0 90 28.5t54 72.5h-284l-20 -101h160z" />
    <glyph glyph-name="uni20B2" unicode="&#x20b2;" horiz-adv-x="578" 
d="M172 13q-53 20 -84 70.5t-31 137.5q0 41 4.5 86t12.5 87q12 62 34 117.5t57 97.5t84 66.5t115 24.5q23 0 42 -4l29 84h31l-32 -91q42 -14 72.5 -46t42.5 -85l-30 -12q-9 39 -31.5 69t-64.5 44l-109 -321h207l-26 -129q-20 -101 -78 -156t-161 -55q-29 0 -56 6l-29 -86
h-31zM92 222q0 -75 24 -118.5t67 -60.5l212 622q-15 3 -34 3q-102 0 -160.5 -66.5t-84.5 -198.5l-15 -76q-6 -31 -7.5 -57.5t-1.5 -47.5zM210 35q25 -5 48 -5q84 0 133.5 42.5t68.5 136.5l20 98h-176z" />
    <glyph glyph-name="uni20B4" unicode="&#x20b4;" horiz-adv-x="554" 
d="M250 -12q-80 0 -121.5 36.5t-41.5 102.5q0 42 16.5 75t36.5 52h-93l6 29h112l124 77l87 53v4l-109 -2h-188l6 29h329q26 24 36.5 56.5t10.5 60.5q0 51 -29 84t-89 33q-39 0 -75.5 -14t-76.5 -56l-20 23q45 46 88 62.5t88 16.5q36 0 64 -11t46.5 -30.5t28.5 -46t10 -57.5
q0 -35 -12 -68t-32 -53h93l-7 -29h-111l-123 -77l-87 -53v-4l108 2h188l-6 -29h-328q-26 -23 -41 -55.5t-15 -68.5q0 -53 32 -81.5t98 -28.5q42 0 83 17.5t85 62.5l17 -24q-47 -50 -94.5 -69t-93.5 -19z" />
    <glyph glyph-name="uni20B5" unicode="&#x20b5;" 
d="M168 15q-51 23 -81 75t-30 135q0 38 5 80t13 82q12 61 35 118t57.5 100t81.5 69t107 26q22 0 43 -3l29 83h30l-31 -90q50 -15 78 -50t39 -82l-30 -12q-8 42 -32 71.5t-66 41.5l-212 -622q24 -7 56 -7q63 0 108 32.5t78 104.5l29 -14q-42 -83 -93.5 -119t-124.5 -36
q-17 0 -32.5 1.5t-30.5 6.5l-29 -88h-31zM92 226q0 -72 23.5 -115.5t63.5 -63.5l210 618q-17 3 -36 3q-86 0 -147.5 -67.5t-87.5 -193.5l-16 -76q-6 -31 -8 -58t-2 -47z" />
    <glyph glyph-name="uni20B8" unicode="&#x20b8;" horiz-adv-x="530" 
d="M115 668l6 30h465l-5 -30h-466zM336 518l-104 -518h-36l104 518h-215l6 30h466l-6 -30h-215z" />
    <glyph glyph-name="uni20B9" unicode="&#x20b9;" horiz-adv-x="544" 
d="M359 0l-150 318h-142l6 30h206q48 0 80.5 22.5t49.5 62.5q11 26 17 64h-323l6 29h321q1 8 1 14.5v14.5q0 54 -24 83.5t-78 29.5h-191l6 30h457l-6 -29h-199v-4q33 -8 51.5 -36.5t18.5 -78.5v-12.5t-1 -11.5h103l-6 -29h-100q-12 -87 -62 -133t-127 -46h-26l152 -318h-40z
" />
    <glyph glyph-name="uni20BA" unicode="&#x20ba;" horiz-adv-x="541" 
d="M131 289l-120 -59l6 32l120 58l24 122l-120 -58l6 32l121 57l45 225h36l-41 -204l204 98l-6 -32l-205 -99l-24 -121l205 99l-6 -32l-205 -100l-55 -275h110q95 0 151.5 69t82.5 195h34q-14 -69 -36.5 -124t-55.5 -93t-77 -58.5t-100 -20.5h-152z" />
    <glyph glyph-name="uni20BD" unicode="&#x20bd;" horiz-adv-x="533" 
d="M113 163l-32 -163h-36l33 163h-81l6 29h80l25 125h-80l6 32h81l70 349h216q75 0 112 -41.5t37 -105.5q0 -54 -14.5 -97t-41.5 -73.5t-64.5 -47t-83.5 -16.5h-202l-25 -125h226l-7 -29h-225zM151 349h200q65 0 103.5 35.5t49.5 92.5q6 33 8 49t2 26q0 24 -6.5 44.5
t-20.5 36t-36.5 24.5t-53.5 9h-183z" />
    <glyph glyph-name="uni20BF" unicode="&#x20bf;" horiz-adv-x="545" 
d="M247 21h-79l-20 -103h-29l20 103h-93l131 656h93l21 103h29l-21 -103h79l21 103h29l-21 -105q48 -8 76 -40.5t28 -86.5q0 -70 -35.5 -119t-98.5 -60l-1 -7q50 -9 74 -44t24 -85q0 -44 -10.5 -82.5t-34.5 -67t-61.5 -45.5t-91.5 -17l-20 -103h-29zM153 380h172q51 0 91 27
t50 78q6 28 7.5 41.5t1.5 22.5q0 55 -31 76t-78 21h-160zM88 52h194q61 0 98 28.5t48 82.5q6 29 8 45.5t2 25.5q0 23 -6 44t-19 36.5t-34.5 25t-52.5 9.5h-179z" />
    <glyph glyph-name="uni2113" unicode="&#x2113;" horiz-adv-x="421" 
d="M239 -12q-128 0 -128 157v47l-59 -46l-16 22l75 59v377q0 72 25 110t82 38t82 -38t25 -110q0 -57 -13 -112t-36.5 -105t-57 -93.5t-74.5 -76.5v-70q0 -72 24 -101t73 -29q76 0 117 109l26 -14q-22 -60 -58 -92t-87 -32zM217 723q-36 0 -54.5 -23.5t-18.5 -84.5v-361
q33 30 60 68.5t46.5 82t30 91t10.5 95.5v24q0 61 -18.5 84.5t-55.5 23.5z" />
    <glyph glyph-name="uni2116" unicode="&#x2116;" horiz-adv-x="907" 
d="M765 366q-53 0 -82.5 34.5t-29.5 90.5q0 31 6 61q6 33 19.5 62t34 50t47 33.5t59.5 12.5q53 0 82.5 -34.5t29.5 -90.5q0 -31 -6 -61q-6 -33 -20 -62t-34 -50t-46.5 -33.5t-59.5 -12.5zM42 0l140 698h47l175 -540l35 -121h6l21 127l107 534h34l-140 -698h-47l-175 540
l-35 121h-6l-21 -127l-108 -534h-33zM767 390q48 0 80.5 33.5t42.5 83.5l9 45q3 16 3 32q0 44 -20 73t-64 29q-49 0 -81.5 -33.5t-42.5 -83.5l-9 -45q-3 -17 -3 -32q0 -44 20 -73t65 -29zM617 277l5 28h246l-6 -28h-245z" />
    <glyph glyph-name="trademark" unicode="&#x2122;" horiz-adv-x="562" 
d="M139 428l50 248h-89l4 22h203l-4 -22h-89l-50 -248h-25zM311 428l54 270h30l40 -161h3l105 161h31l-55 -270h-23l30 148l19 85h-4l-113 -172l-45 172h-4l-15 -85l-30 -148h-23z" />
    <glyph glyph-name="Omega" unicode="&#x2126;" horiz-adv-x="619" 
d="M22 31h155l3 18q-21 17 -39 37.5t-31 47.5t-20 61t-7 78q0 35 5 74t13 77q12 55 35 107t57.5 91.5t81.5 63.5t108 24q97 0 147 -58.5t50 -159.5q0 -38 -4 -74.5t-11 -68.5q-22 -107 -75.5 -184.5t-134.5 -115.5l-3 -18h153l-6 -31h-181l12 61q32 15 62.5 40t56.5 57.5
t45 72.5t28 87l13 71q5 29 7.5 53.5t2.5 47.5q0 88 -40 138t-125 50q-91 0 -154 -66t-88 -196l-14 -71q-4 -21 -5.5 -41t-1.5 -36q0 -81 24 -129.5t69 -77.5l-12 -61h-182z" />
    <glyph glyph-name="uni212E" unicode="&#x212e;" horiz-adv-x="631" 
d="M107 161q23 -66 78 -106.5t131 -40.5q88 0 141.5 39t85.5 104l23 -13q-16 -33 -38.5 -61.5t-53 -49.5t-70 -33t-88.5 -12q-63 0 -114 23t-88 68.5t-57 113t-20 156.5t20 156.5t57 113t88 68.5t114 23t114 -23t88 -68.5t57 -113t20 -156.5h-488v-188zM524 375v165
q-23 67 -78 105.5t-130 38.5q-76 0 -131 -38.5t-78 -105.5v-165h417z" />
    <glyph glyph-name="uni2150" unicode="&#x2150;" horiz-adv-x="740" 
d="M62 329l6 24h110l63 318l-130 -68l-9 20l140 75h31l-69 -345h101l-5 -24h-238zM651 698h34l-214 -264h-34zM292 254h34l-205 -254h-34zM474 0l203 345h-177l-17 -86h-25l22 110h231l-6 -27l-201 -342h-30z" />
    <glyph glyph-name="uni2151" unicode="&#x2151;" horiz-adv-x="740" 
d="M62 329l6 24h110l63 318l-130 -68l-9 20l140 75h31l-69 -345h101l-5 -24h-238zM651 698h34l-214 -264h-34zM292 254h34l-205 -254h-34zM472 0q60 38 107.5 84.5t73.5 109.5l-5 1q-17 -25 -38.5 -37.5t-54.5 -12.5q-42 0 -67.5 26t-25.5 70q0 63 36.5 98.5t94.5 35.5
q45 0 73 -25.5t28 -75.5q0 -26 -6 -51q-8 -38 -28 -72t-44.5 -63t-52 -51.5t-50.5 -36.5h-41zM566 169q34 0 63 19t34 60l3 21t1 12q0 34 -21 52t-55 18q-17 0 -33.5 -5t-29.5 -14.5t-22 -24.5t-12 -35l-3 -21t-1 -12q0 -34 21 -52t55 -18z" />
    <glyph glyph-name="uni2153" unicode="&#x2153;" horiz-adv-x="740" 
d="M62 329l6 24h110l63 318l-130 -68l-9 20l140 75h31l-69 -345h101l-5 -24h-238zM651 698h34l-214 -264h-34zM292 254h34l-205 -254h-34zM562 204q47 0 69 18.5t27 47.5q2 7 2 12v10q0 28 -17.5 43.5t-52.5 15.5q-32 0 -53 -11.5t-39 -35.5l-17 16q19 26 45.5 40.5
t66.5 14.5q45 0 70 -22t25 -62q0 -41 -23 -67.5t-61 -31.5l-1 -4q59 -10 59 -79q0 -54 -34.5 -84.5t-92.5 -30.5q-45 0 -72 17.5t-38 42.5l21 14q11 -23 32 -36.5t59 -13.5q44 0 66 17.5t28 49.5q2 9 2.5 15t0.5 12q0 32 -16.5 49.5t-55.5 17.5h-46l4 25h42z" />
    <glyph glyph-name="uni2154" unicode="&#x2154;" horiz-adv-x="740" 
d="M288 329h-233l7 28l148 117q40 32 61 56t26 50q4 19 4 29q0 30 -19 50t-54 20q-39 0 -62 -20.5t-36 -53.5l-24 10q17 39 45.5 64t80.5 25q46 0 72 -27t26 -69q0 -41 -25 -75.5t-78 -75.5l-133 -104h199zM651 698h34l-214 -264h-34zM292 254h34l-205 -254h-34zM562 204
q47 0 69 18.5t27 47.5q2 7 2 12v10q0 28 -17.5 43.5t-52.5 15.5q-32 0 -53 -11.5t-39 -35.5l-17 16q19 26 45.5 40.5t66.5 14.5q45 0 70 -22t25 -62q0 -41 -23 -67.5t-61 -31.5l-1 -4q59 -10 59 -79q0 -54 -34.5 -84.5t-92.5 -30.5q-45 0 -72 17.5t-38 42.5l21 14
q11 -23 32 -36.5t59 -13.5q44 0 66 17.5t28 49.5q2 9 2.5 15t0.5 12q0 32 -16.5 49.5t-55.5 17.5h-46l4 25h42z" />
    <glyph glyph-name="uni2155" unicode="&#x2155;" horiz-adv-x="740" 
d="M62 329l6 24h110l63 318l-130 -68l-9 20l140 75h31l-69 -345h101l-5 -24h-238zM651 698h34l-214 -264h-34zM292 254h34l-205 -254h-34zM526 345l-42 -160h5q16 23 37 31.5t45 8.5q47 0 69.5 -24t22.5 -69q0 -65 -36 -101.5t-94 -36.5q-47 0 -73.5 17t-37.5 42l21 15
q11 -23 31 -36.5t60 -13.5q41 0 65 21.5t32 60.5q3 19 3 33q0 30 -15.5 49t-55.5 19q-28 0 -46.5 -8.5t-35.5 -27.5l-24 3l52 201h187l-5 -24h-165z" />
    <glyph glyph-name="uni2156" unicode="&#x2156;" horiz-adv-x="740" 
d="M288 329h-233l7 28l148 117q40 32 61 56t26 50q4 19 4 29q0 30 -19 50t-54 20q-39 0 -62 -20.5t-36 -53.5l-24 10q17 39 45.5 64t80.5 25q46 0 72 -27t26 -69q0 -41 -25 -75.5t-78 -75.5l-133 -104h199zM651 698h34l-214 -264h-34zM292 254h34l-205 -254h-34zM526 345
l-42 -160h5q16 23 37 31.5t45 8.5q47 0 69.5 -24t22.5 -69q0 -65 -36 -101.5t-94 -36.5q-47 0 -73.5 17t-37.5 42l21 15q11 -23 31 -36.5t60 -13.5q41 0 65 21.5t32 60.5q3 19 3 33q0 30 -15.5 49t-55.5 19q-28 0 -46.5 -8.5t-35.5 -27.5l-24 3l52 201h187l-5 -24h-165z" />
    <glyph glyph-name="uni2157" unicode="&#x2157;" horiz-adv-x="740" 
d="M204 533q47 0 69 18.5t27 47.5q2 7 2 12v10q0 28 -17.5 43.5t-52.5 15.5q-32 0 -53 -11.5t-39 -35.5l-17 16q19 26 45.5 40.5t66.5 14.5q45 0 70 -22t25 -62q0 -41 -23 -67.5t-61 -31.5l-1 -4q59 -10 59 -79q0 -54 -34.5 -84.5t-92.5 -30.5q-45 0 -72 17.5t-38 42.5
l21 14q11 -23 32 -36.5t59 -13.5q44 0 66 17.5t28 49.5q2 9 2.5 15t0.5 12q0 32 -16.5 49.5t-55.5 17.5h-46l4 25h42zM651 698h34l-214 -264h-34zM292 254h34l-205 -254h-34zM526 345l-42 -160h5q16 23 37 31.5t45 8.5q47 0 69.5 -24t22.5 -69q0 -65 -36 -101.5t-94 -36.5
q-47 0 -73.5 17t-37.5 42l21 15q11 -23 31 -36.5t60 -13.5q41 0 65 21.5t32 60.5q3 19 3 33q0 30 -15.5 49t-55.5 19q-28 0 -46.5 -8.5t-35.5 -27.5l-24 3l52 201h187l-5 -24h-165z" />
    <glyph glyph-name="uni2158" unicode="&#x2158;" horiz-adv-x="740" 
d="M224 329l17 85h-184l5 27l224 257h39l-52 -260h55l-5 -24h-55l-17 -85h-27zM292 667h-4l-199 -229h157zM651 698h34l-214 -264h-34zM292 254h34l-205 -254h-34zM526 345l-42 -160h5q16 23 37 31.5t45 8.5q47 0 69.5 -24t22.5 -69q0 -65 -36 -101.5t-94 -36.5
q-47 0 -73.5 17t-37.5 42l21 15q11 -23 31 -36.5t60 -13.5q41 0 65 21.5t32 60.5q3 19 3 33q0 30 -15.5 49t-55.5 19q-28 0 -46.5 -8.5t-35.5 -27.5l-24 3l52 201h187l-5 -24h-165z" />
    <glyph glyph-name="uni2159" unicode="&#x2159;" horiz-adv-x="740" 
d="M62 329l6 24h110l63 318l-130 -68l-9 20l140 75h31l-69 -345h101l-5 -24h-238zM651 698h34l-214 -264h-34zM292 254h34l-205 -254h-34zM541 -6q-45 0 -73 25.5t-28 75.5q0 25 6 51q8 37 28 71.5t44.5 63.5t52 51.5t50.5 36.5h41q-60 -38 -107.5 -84.5t-73.5 -109.5l5 -1
q17 25 38.5 37.5t54.5 12.5q42 0 67.5 -26t25.5 -70q0 -63 -36.5 -98.5t-94.5 -35.5zM543 18q34 0 62.5 19t34.5 60q2 14 2.5 21t0.5 12q0 34 -20.5 52t-54.5 18t-62.5 -19t-34.5 -60q-2 -14 -2.5 -21t-0.5 -12q0 -34 20.5 -52t54.5 -18z" />
    </font>
</defs>
</svg>
