<?xml version="1.0" standalone="no"?>
<!DOCTYPE svg PUBLIC "-//W3C//DTD SVG 1.1//EN" "http://www.w3.org/Graphics/SVG/1.1/DTD/svg11.dtd" >
<svg xmlns="http://www.w3.org/2000/svg" xmlns:xlink="http://www.w3.org/1999/xlink" version="1.1">
<metadata>
Created by FontForge 20170731 at Fri Feb 16 16:57:33 2018
 By Aleksey,,,
Copyright 2018 IBM Corp. All rights reserved.
</metadata>
<defs>
<font id="IBMPlexSansCond-Thin" horiz-adv-x="540" >
  <font-face 
    font-family="IBM Plex Sans Condensed Thin"
    font-weight="100"
    font-stretch="condensed"
    units-per-em="1000"
    panose-1="2 11 2 6 5 2 3 0 2 3"
    ascent="780"
    descent="-220"
    x-height="506"
    cap-height="698"
    bbox="-207 -220 1081 1091"
    underline-thickness="16"
    underline-position="-208"
    unicode-range="U+000D-FB02"
  />
<missing-glyph horiz-adv-x="424" 
d="M32 780h360v-780h-360v780zM376 16v748h-328v-748h328z" />
    <glyph glyph-name="fi" unicode="fi" horiz-adv-x="467" 
d="M110 487h-83v19h83v207q0 15 6 21t21 6h99v-19h-105v-215h242v-506h-21v487h-221v-487h-21v487zM363 673q-12 0 -17 6t-5 14v9q0 8 5 14t17 6t16.5 -6t4.5 -14v-9q0 -8 -4.5 -14t-16.5 -6z" />
    <glyph glyph-name=".notdef" horiz-adv-x="424" 
d="M32 780h360v-780h-360v780zM376 16v748h-328v-748h328z" />
    <glyph glyph-name=".null" horiz-adv-x="0" 
 />
    <glyph glyph-name=".null" horiz-adv-x="0" 
 />
    <glyph glyph-name="uni000D" unicode="&#xd;" horiz-adv-x="212" 
 />
    <glyph glyph-name="space" unicode=" " horiz-adv-x="212" 
 />
    <glyph glyph-name="exclam" unicode="!" horiz-adv-x="228" 
d="M108 176l-5 239v283h22v-283l-5 -239h-12zM114 -5q-26 0 -26 24v8q0 24 26 24t26 -24v-8q0 -24 -26 -24z" />
    <glyph glyph-name="quotedbl" unicode="&#x22;" horiz-adv-x="337" 
d="M89 490v250h20v-250h-20zM228 490v250h20v-250h-20z" />
    <glyph glyph-name="numbersign" unicode="#" horiz-adv-x="642" 
d="M385 220h-167l-34 -220h-21l34 220h-134v16h138l33 226h-136v16h139l34 220h21l-34 -220h166l34 220h21l-34 -220h134v-16h-138l-33 -226h136v-16h-139l-34 -220h-21zM387 236l34 226h-166l-34 -226h166z" />
    <glyph glyph-name="dollar" unicode="$" horiz-adv-x="494" 
d="M442 185q0 -90 -46.5 -136t-134.5 -49v-82h-20v82q-40 1 -71 9.5t-55.5 23.5t-43.5 35.5t-35 43.5l17 12q16 -23 33.5 -42t40 -33t50.5 -21.5t64 -7.5v332q-54 9 -90 24.5t-57.5 37.5t-30 51t-8.5 65q0 86 48.5 126t137.5 42v82h20v-82q67 -2 107 -29t63 -64l-16 -12
q-24 38 -59.5 60.5t-94.5 24.5v-309q55 -10 90.5 -27t55.5 -40t27.5 -52.5t7.5 -64.5zM77 530q0 -39 9.5 -65.5t30 -45t51.5 -29.5t73 -18v306q-81 -2 -122.5 -37.5t-41.5 -110.5zM420 184q0 35 -7.5 62t-25.5 47.5t-49 34t-77 21.5v-329q159 6 159 164z" />
    <glyph glyph-name="percent" unicode="%" horiz-adv-x="795" 
d="M168 0l436 698h22l-436 -698h-22zM194 326q-61 0 -94.5 44.5t-33.5 147.5t33.5 147.5t94.5 44.5t94.5 -44.5t33.5 -147.5t-33.5 -147.5t-94.5 -44.5zM194 343q51 0 79 36.5t28 116.5v44q0 80 -28 116.5t-79 36.5t-79 -36.5t-28 -116.5v-44q0 -80 28 -116.5t79 -36.5z
M600 -12q-62 0 -95 44.5t-33 147.5t33 147.5t95 44.5t95 -44.5t33 -147.5t-33 -147.5t-95 -44.5zM600 5q51 0 79 36.5t28 116.5v44q0 80 -28 116.5t-79 36.5t-79 -36.5t-28 -116.5v-44q0 -80 28 -116.5t79 -36.5z" />
    <glyph glyph-name="ampersand" unicode="&#x26;" horiz-adv-x="610" 
d="M447 116h-6q-23 -56 -69.5 -92t-125.5 -36q-88 0 -135.5 45.5t-47.5 129.5q0 44 12 76t32.5 56t48 42t59.5 35q-43 49 -70.5 95t-27.5 97q0 73 39.5 109.5t109.5 36.5t109.5 -36.5t39.5 -109.5q0 -58 -45.5 -106t-124.5 -90l197 -221q16 41 23 94t7 110h99v-20h-80
q-2 -56 -10 -106t-25 -92l119 -133h-27zM266 691q-60 0 -93 -30.5t-33 -84.5v-24q0 -20 8 -41.5t21 -44t29.5 -44.5t33.5 -42q72 38 116 80.5t44 92.5v23q0 54 -33 84.5t-93 30.5zM246 8q39 0 67.5 8t50 23.5t38 38t32.5 50.5l-208 232q-29 -17 -54.5 -34t-44.5 -38.5
t-30 -48.5t-11 -64v-24q0 -66 43 -104.5t117 -38.5z" />
    <glyph glyph-name="quotesingle" unicode="'" horiz-adv-x="198" 
d="M89 490v250h20v-250h-20z" />
    <glyph glyph-name="parenleft" unicode="(" horiz-adv-x="299" 
d="M93 311q0 82 14.5 150.5t37.5 124t53 99t61 75.5h25q-33 -33 -64 -76t-54 -96t-37 -115t-14 -131v-62q0 -69 14 -131t37 -115t54 -96t64 -76h-25q-31 32 -61 75.5t-53 99t-37.5 124t-14.5 150.5z" />
    <glyph glyph-name="parenright" unicode=")" horiz-adv-x="299" 
d="M206 311q0 -82 -14.5 -150.5t-37.5 -124t-53 -99t-61 -75.5h-25q33 33 64 76t54 96t37 115t14 131v62q0 69 -14 131t-37 115t-54 96t-64 76h25q31 -32 61 -75.5t53 -99t37.5 -124t14.5 -150.5z" />
    <glyph glyph-name="asterisk" unicode="*" horiz-adv-x="329" 
d="M251 445l-86 124h-2l-86 -124l-16 12l89 121l-1 2l-142 46l5 18l142 -49l2 2l-2 150h20l-2 -150l2 -2l142 49l5 -18l-142 -46l-1 -2l89 -121z" />
    <glyph glyph-name="plus" unicode="+" 
d="M260 84v212h-204v19h204v212h21v-212h203v-19h-203v-212h-21z" />
    <glyph glyph-name="comma" unicode="," horiz-adv-x="218" 
d="M109 51q26 0 26 -24v-8q0 -48 -21 -92.5t-50 -73.5h-19q32 35 47 72.5t17 69.5q-26 0 -26 24v8q0 24 26 24z" />
    <glyph glyph-name="hyphen" unicode="-" horiz-adv-x="360" 
d="M75 295v20h210v-20h-210z" />
    <glyph glyph-name="period" unicode="." horiz-adv-x="218" 
d="M109 -5q-26 0 -26 24v8q0 24 26 24t26 -24v-8q0 -24 -26 -24z" />
    <glyph glyph-name="slash" unicode="/" horiz-adv-x="284" 
d="M12 -151l215 891h19l-215 -891h-19z" />
    <glyph glyph-name="zero" unicode="0" 
d="M270 -12q-48 0 -86 17.5t-64.5 59t-41 111t-14.5 173.5t14.5 173.5t41 111t64.5 59t86 17.5t86 -17.5t64.5 -59t41 -111t14.5 -173.5t-14.5 -173.5t-41 -111t-64.5 -59t-86 -17.5zM270 8q90 0 136 72t46 225v88q0 153 -46 225t-136 72t-136 -72t-46 -225v-88
q0 -153 46 -225t136 -72z" />
    <glyph glyph-name="one" unicode="1" 
d="M84 0v20h196v655l-213 -137l-11 17l222 143h24v-678h188v-20h-406z" />
    <glyph glyph-name="two" unicode="2" 
d="M469 0h-391v22l243 272q44 49 68.5 98.5t24.5 103.5v42q0 33 -9 60.5t-27.5 48t-46.5 32t-67 11.5q-74 0 -111 -36.5t-53 -100.5l-20 4q7 34 21.5 62t37 48.5t53.5 31.5t73 11q173 0 173 -194q0 -37 -7 -68t-20 -59.5t-32.5 -55t-44.5 -54.5l-231 -259h366v-20z" />
    <glyph glyph-name="three" unicode="3" 
d="M251 376q69 0 111 38.5t42 103.5v32q0 65 -40.5 102.5t-105.5 37.5t-100.5 -27t-55.5 -72l-17 8q19 49 60.5 80t112.5 31q78 0 124 -43.5t46 -130.5q0 -39 -9.5 -68t-26.5 -49.5t-40.5 -33t-51.5 -16.5v-6q63 -6 102.5 -49t39.5 -130q0 -100 -50.5 -148t-137.5 -48
q-70 0 -115.5 26t-76.5 81l18 11q29 -50 68.5 -74t105.5 -24q74 0 119 42.5t45 115.5v32q0 73 -45 115.5t-119 42.5h-87v20h84z" />
    <glyph glyph-name="four" unicode="4" 
d="M369 0v160h-327v21l312 517h36v-519h105v-19h-105v-160h-21zM64 179h305v499h-6z" />
    <glyph glyph-name="five" unicode="5" 
d="M434 678h-291l-21 -338h6q22 40 58.5 56.5t87.5 16.5q181 0 181 -209q0 -107 -50 -161.5t-139 -54.5q-71 0 -114 25t-75 80l18 11q29 -50 67.5 -73t103.5 -23q39 0 69.5 13t51.5 36t32.5 55.5t11.5 71.5v38q0 79 -40.5 125t-116.5 46q-56 0 -89 -17.5t-61 -55.5l-22 3
l23 375h309v-20z" />
    <glyph glyph-name="six" unicode="6" 
d="M270 -12q-42 0 -77.5 12.5t-61 39.5t-39.5 70.5t-14 105.5q0 163 62.5 281t182.5 201h32q-112 -77 -173 -170t-78 -217h5q37 107 161 107q91 0 141.5 -55t50.5 -160t-50.5 -160t-141.5 -55zM270 8q41 0 72.5 13.5t52.5 37t32 55.5t11 70v38q0 38 -11 70t-32 55.5
t-52.5 37t-72.5 13.5t-72.5 -13.5t-52.5 -37t-32 -55.5t-11 -70v-38q0 -38 11 -70t32 -55.5t52.5 -37t72.5 -13.5z" />
    <glyph glyph-name="seven" unicode="7" 
d="M168 0l270 678h-347v-166h-22v186h392v-20l-269 -678h-24z" />
    <glyph glyph-name="eight" unicode="8" 
d="M270 -12q-97 0 -151 49t-55 143q0 82 41 128t105 55v6q-54 9 -89 50.5t-35 115.5q0 88 48.5 131.5t135.5 43.5t135.5 -43.5t48.5 -131.5q0 -74 -35 -115.5t-89 -50.5v-6q64 -9 105 -55t41 -128q0 -94 -54.5 -143t-151.5 -49zM270 8q85 0 133.5 42.5t48.5 114.5v34
q0 72 -48.5 114.5t-133.5 42.5t-133.5 -42.5t-48.5 -114.5v-34q0 -72 48.5 -114.5t133.5 -42.5zM270 376q75 0 117.5 37.5t42.5 103.5v32q0 66 -42.5 103.5t-117.5 37.5t-117.5 -37.5t-42.5 -103.5v-32q0 -66 42.5 -103.5t117.5 -37.5z" />
    <glyph glyph-name="nine" unicode="9" 
d="M462 482q0 -164 -62.5 -281.5t-182.5 -200.5h-32q112 77 173 170t78 217h-5q-37 -107 -161 -107q-91 0 -141.5 55t-50.5 160t50.5 160t141.5 55q42 0 77 -12.5t60.5 -39.5t40 -70.5t14.5 -105.5zM270 300q41 0 72.5 13.5t52.5 37t32 55.5t11 70v38q0 38 -11 70t-32 55.5
t-52.5 37t-72.5 13.5t-72.5 -13.5t-52.5 -37t-32 -55.5t-11 -70v-38q0 -38 11 -70t32 -55.5t52.5 -37t72.5 -13.5z" />
    <glyph glyph-name="colon" unicode=":" horiz-adv-x="234" 
d="M117 -5q-26 0 -26 24v8q0 24 26 24t26 -24v-8q0 -24 -26 -24zM117 438q-26 0 -26 24v8q0 24 26 24t26 -24v-8q0 -24 -26 -24z" />
    <glyph glyph-name="semicolon" unicode=";" horiz-adv-x="234" 
d="M117 51q26 0 26 -24v-8q0 -48 -21 -92.5t-50 -73.5h-19q32 35 47 72.5t17 69.5q-26 0 -26 24v8q0 24 26 24zM117 438q-26 0 -26 24v8q0 24 26 24t26 -24v-8q0 -24 -26 -24z" />
    <glyph glyph-name="less" unicode="&#x3c;" 
d="M77 294v22l386 256v-23l-364 -241v-6l364 -241v-23z" />
    <glyph glyph-name="equal" unicode="=" 
d="M56 385v19h428v-19h-428zM56 207v19h428v-19h-428z" />
    <glyph glyph-name="greater" unicode="&#x3e;" 
d="M77 61l364 241v6l-364 241v23l386 -256v-22l-386 -256v23z" />
    <glyph glyph-name="question" unicode="?" horiz-adv-x="411" 
d="M177 176v173q91 5 135.5 47t44.5 115v38q0 66 -36.5 104t-108.5 38q-69 0 -105.5 -33.5t-53.5 -99.5l-20 5q18 72 60.5 109.5t118.5 37.5q81 0 124.5 -45t43.5 -133q0 -95 -46 -142.5t-135 -58.5v-155h-22zM188 -5q-26 0 -26 24v8q0 24 26 24t26 -24v-8q0 -24 -26 -24z
" />
    <glyph glyph-name="at" unicode="@" horiz-adv-x="792" 
d="M609 -120h-213q-74 0 -135.5 26t-106 78.5t-69 131.5t-24.5 184q0 99 24.5 175t68.5 128.5t106.5 79.5t137.5 27q72 0 133 -23.5t105.5 -71t69.5 -118.5t25 -167q0 -55 -7.5 -102.5t-23.5 -83t-40.5 -56t-58.5 -20.5q-36 0 -59.5 19.5t-26.5 55.5h-6q-10 -30 -40.5 -52.5
t-76.5 -22.5q-156 0 -156 220t156 220q46 0 76.5 -22t40.5 -53h6v67h20v-337q0 -34 17.5 -55.5t48.5 -21.5q49 0 78 55.5t29 157.5v59q0 75 -22 136.5t-62.5 105.5t-98 68t-127.5 24q-72 0 -130 -27t-99 -75t-63 -114t-22 -144v-64q0 -82 22 -150t62.5 -117t98 -76
t129.5 -27h213v-18zM392 86q53 0 88 35t35 93v148q0 58 -35 93t-88 35q-69 0 -101 -49.5t-32 -134.5v-36q0 -85 32 -134.5t101 -49.5z" />
    <glyph glyph-name="A" unicode="A" horiz-adv-x="542" 
d="M491 0l-76 234h-288l-76 -234h-24l226 698h36l226 -698h-24zM321 527l-48 151h-4l-48 -151l-87 -274h274z" />
    <glyph glyph-name="B" unicode="B" horiz-adv-x="555" 
d="M97 698h231q66 0 103 -39.5t37 -130.5q0 -73 -25 -108.5t-67 -46.5v-6q58 -8 89 -52.5t31 -125.5q0 -94 -39 -141.5t-114 -47.5h-246v698zM119 20h224q34 0 58.5 11t40 30.5t23 46t7.5 56.5v50q0 30 -8 56t-24 45.5t-41 31t-59 11.5h-221v-338zM119 378h206q61 0 90 36
t29 89v50q0 27 -6.5 49.5t-20.5 39.5t-36 26.5t-53 9.5h-209v-300z" />
    <glyph glyph-name="C" unicode="C" horiz-adv-x="549" 
d="M300 -12q-54 0 -97.5 17.5t-74.5 59.5t-48 111t-17 173q0 103 17 172.5t48 111.5t74.5 59.5t97.5 17.5q80 0 125.5 -36.5t70.5 -102.5l-19 -9q-23 63 -64.5 95.5t-112.5 32.5q-99 0 -156 -72t-57 -230v-78q0 -158 57 -230t156 -72q77 0 118.5 34.5t62.5 101.5l19 -8
q-23 -70 -70 -109t-130 -39z" />
    <glyph glyph-name="D" unicode="D" horiz-adv-x="594" 
d="M97 698h193q121 0 181 -84t60 -265t-60 -265t-181 -84h-193v698zM291 20q56 0 96.5 20.5t67 58.5t39.5 91.5t13 119.5v78q0 66 -13 119.5t-39.5 91.5t-67 58.5t-96.5 20.5h-172v-658h172z" />
    <glyph glyph-name="E" unicode="E" horiz-adv-x="506" 
d="M97 0v698h344v-20h-322v-314h311v-20h-311v-324h322v-20h-344z" />
    <glyph glyph-name="F" unicode="F" horiz-adv-x="482" 
d="M97 0v698h337v-20h-315v-314h302v-20h-302v-344h-22z" />
    <glyph glyph-name="G" unicode="G" horiz-adv-x="600" 
d="M507 114h-6q-19 -60 -66 -93t-128 -33q-56 0 -101 17.5t-76.5 59.5t-49 111t-17.5 173q0 103 17.5 172.5t49 111.5t76.5 59.5t101 17.5q85 0 135.5 -36.5t75.5 -102.5l-19 -9q-24 61 -70.5 94.5t-121.5 33.5q-103 0 -161.5 -72t-58.5 -230v-78q0 -158 58.5 -230
t161.5 -72q99 0 149.5 55.5t50.5 153.5v95h-158v20h180v-332h-22v114z" />
    <glyph glyph-name="H" unicode="H" horiz-adv-x="624" 
d="M505 344h-386v-344h-22v698h22v-334h386v334h22v-698h-22v344z" />
    <glyph glyph-name="I" unicode="I" horiz-adv-x="336" 
d="M61 0v19h96v660h-96v19h214v-19h-96v-660h96v-19h-214z" />
    <glyph glyph-name="J" unicode="J" horiz-adv-x="419" 
d="M330 698v-533q0 -88 -41.5 -132.5t-114.5 -44.5q-65 0 -102 32.5t-51 89.5l19 6q14 -51 46 -79.5t88 -28.5q67 0 100.5 41t33.5 116v513h-222v20h244z" />
    <glyph glyph-name="K" unicode="K" horiz-adv-x="517" 
d="M238 388l-119 -151v-237h-22v698h22v-425h4l130 164l216 261h26l-243 -294l247 -404h-26z" />
    <glyph glyph-name="L" unicode="L" horiz-adv-x="428" 
d="M97 0v698h22v-678h291v-20h-313z" />
    <glyph glyph-name="M" unicode="M" horiz-adv-x="718" 
d="M599 678h-4l-91 -170l-145 -272l-145 272l-91 169h-4v-677h-22v698h37l139 -260l85 -160h2l85 160l139 260h37v-698h-22v678z" />
    <glyph glyph-name="N" unicode="N" horiz-adv-x="623" 
d="M215 508l-92 170h-4v-678h-22v698h38l274 -508l92 -170h4v678h22v-698h-38z" />
    <glyph glyph-name="O" unicode="O" horiz-adv-x="614" 
d="M307 -12q-56 0 -101 17.5t-76.5 59.5t-49 111t-17.5 173q0 103 17.5 172.5t49 111.5t76.5 59.5t101 17.5q55 0 100.5 -17.5t77 -59.5t49 -111.5t17.5 -172.5q0 -104 -17.5 -173t-49 -111t-77 -59.5t-100.5 -17.5zM307 8q103 0 161.5 72t58.5 230v78q0 158 -58.5 230
t-161.5 72t-161.5 -72t-58.5 -230v-78q0 -158 58.5 -230t161.5 -72z" />
    <glyph glyph-name="P" unicode="P" horiz-adv-x="535" 
d="M97 0v698h247q77 0 114.5 -48t37.5 -140t-37.5 -140t-114.5 -48h-225v-322h-22zM119 342h225q33 0 57 11t40 29.5t23.5 44t7.5 54.5v58q0 29 -7.5 54.5t-23.5 44t-40 29.5t-57 11h-225v-336z" />
    <glyph glyph-name="Q" unicode="Q" horiz-adv-x="614" 
d="M413 -146h-89q-15 0 -20.5 5.5t-5.5 20.5v108q-54 1 -97 20t-74 61t-47.5 110.5t-16.5 169.5q0 103 17.5 172.5t49 111.5t76.5 59.5t101 17.5q55 0 100.5 -17.5t77 -59.5t49 -111.5t17.5 -172.5q0 -101 -16.5 -169t-46.5 -110t-72.5 -61t-95.5 -21v-114h93v-20zM307 8
q103 0 161.5 72t58.5 230v78q0 158 -58.5 230t-161.5 72t-161.5 -72t-58.5 -230v-78q0 -158 58.5 -230t161.5 -72z" />
    <glyph glyph-name="R" unicode="R" horiz-adv-x="567" 
d="M119 0h-22v698h236q84 0 123.5 -48t39.5 -140t-39.5 -140t-120.5 -48l173 -322h-24l-171 322h-195v-322zM335 342q68 0 102.5 36.5t34.5 102.5v58q0 66 -34.5 102.5t-102.5 36.5h-216v-336h216z" />
    <glyph glyph-name="S" unicode="S" horiz-adv-x="494" 
d="M247 -12q-39 0 -70.5 8.5t-56.5 23.5t-45 36t-37 46l18 13q17 -24 35.5 -44t41 -34t50.5 -21.5t64 -7.5q85 0 129 40.5t44 125.5q0 70 -35.5 109.5t-109.5 56.5l-63 15q-42 10 -72 24t-49.5 35t-28.5 50.5t-9 68.5q0 92 52.5 134.5t141.5 42.5q73 0 115 -25.5t69 -68.5
l-18 -13q-14 22 -30 38.5t-35.5 27t-44 16t-56.5 5.5q-80 0 -126 -37.5t-46 -119.5q0 -35 8 -60.5t25.5 -44t44.5 -31t65 -21.5l63 -15q85 -20 123 -63t38 -122q0 -99 -50.5 -143.5t-144.5 -44.5z" />
    <glyph glyph-name="T" unicode="T" horiz-adv-x="504" 
d="M263 678v-678h-22v678h-226v20h474v-20h-226z" />
    <glyph glyph-name="U" unicode="U" horiz-adv-x="588" 
d="M112 698v-450q0 -66 9 -111.5t30 -74t56 -41.5t87 -13t87 13t56 41.5t30 74t9 111.5v450h22v-448q0 -72 -10.5 -122t-34.5 -81t-63 -45t-96 -14t-96 14t-63 45t-34.5 81t-10.5 122v448h22z" />
    <glyph glyph-name="V" unicode="V" horiz-adv-x="514" 
d="M239 0l-212 698h24l140 -461l65 -217h4l65 217l138 461h24l-210 -698h-38z" />
    <glyph glyph-name="W" unicode="W" horiz-adv-x="785" 
d="M190 0l-163 698h24l105 -461l50 -217h4l53 217l111 461h36l113 -461l53 -217h4l50 217l105 461h24l-163 -698h-36l-113 461l-53 217h-4l-52 -217l-112 -461h-36z" />
    <glyph glyph-name="X" unicode="X" horiz-adv-x="504" 
d="M479 0h-26l-197 332h-6l-199 -332h-26l214 354l-206 344h26l190 -319h6l190 319h26l-205 -341z" />
    <glyph glyph-name="Y" unicode="Y" horiz-adv-x="493" 
d="M235 0v294l-216 404h24l200 -374h6l200 374h24l-216 -404v-294h-22z" />
    <glyph glyph-name="Z" unicode="Z" horiz-adv-x="500" 
d="M475 0h-440v22l396 656h-376v20h400v-22l-396 -656h416v-20z" />
    <glyph glyph-name="bracketleft" unicode="[" horiz-adv-x="271" 
d="M97 -138v898h113v-18h-93v-862h93v-18h-113z" />
    <glyph glyph-name="backslash" unicode="\" horiz-adv-x="284" 
d="M253 -151l-215 891h19l215 -891h-19z" />
    <glyph glyph-name="bracketright" unicode="]" horiz-adv-x="271" 
d="M174 760v-898h-113v18h93v862h-93v18h113z" />
    <glyph glyph-name="asciicircum" unicode="^" 
d="M462 322l-190 354h-4l-190 -354l-18 9l198 367h24l198 -367z" />
    <glyph glyph-name="underscore" unicode="_" horiz-adv-x="512" 
d="M27 -141v18h458v-18h-458z" />
    <glyph glyph-name="grave" unicode="`" 
d="M182 739l19 12l99 -154l-15 -10z" />
    <glyph glyph-name="a" unicode="a" horiz-adv-x="468" 
d="M376 0q-14 0 -18.5 4.5t-4.5 18.5v55h-6q-14 -40 -50.5 -65t-94.5 -25q-69 0 -108.5 34.5t-39.5 108.5t42 108.5t116 34.5h141v85q0 77 -33.5 108.5t-97.5 31.5q-51 0 -84 -21t-51 -74l-17 8q18 52 53.5 79t98.5 27q76 0 114 -37.5t38 -118.5v-343h75v-19h-73zM202 7
q31 0 58.5 9t48 26.5t32.5 44t12 61.5v108h-141q-58 0 -96.5 -27.5t-38.5 -77.5v-39q0 -50 35.5 -77.5t89.5 -27.5z" />
    <glyph glyph-name="b" unicode="b" horiz-adv-x="509" 
d="M94 740h21v-310h6q14 40 51 64t93 24q91 0 140.5 -63.5t49.5 -201.5t-49.5 -201.5t-140.5 -63.5q-56 0 -93 25t-51 65h-6v-78h-21v740zM265 7q81 0 124 56t43 156v68q0 100 -43 156t-124 56q-32 0 -59.5 -9.5t-47.5 -27.5t-31.5 -44t-11.5 -59v-212q0 -33 11.5 -59
t31.5 -44t47.5 -27.5t59.5 -9.5z" />
    <glyph glyph-name="c" unicode="c" horiz-adv-x="439" 
d="M243 -12q-91 0 -140 63.5t-49 201.5t49 201.5t140 63.5q57 0 94.5 -24.5t57.5 -71.5l-18 -9q-21 45 -52 65.5t-82 20.5q-81 0 -123.5 -57t-42.5 -155v-68q0 -98 42.5 -155t123.5 -57q54 0 87.5 22t55.5 64l16 -11q-23 -43 -60 -68.5t-99 -25.5z" />
    <glyph glyph-name="d" unicode="d" horiz-adv-x="509" 
d="M394 78h-6q-14 -40 -51 -65t-93 -25q-91 0 -140.5 63.5t-49.5 201.5t49.5 201.5t140.5 63.5q56 0 93 -24t51 -64h6v310h21v-740h-21v78zM244 7q32 0 59.5 9.5t47.5 27.5t31.5 44t11.5 59v212q0 33 -11.5 59t-31.5 44t-47.5 27.5t-59.5 9.5q-81 0 -124 -56t-43 -156v-68
q0 -100 43 -156t124 -56z" />
    <glyph glyph-name="e" unicode="e" horiz-adv-x="480" 
d="M244 -12q-91 0 -140.5 63.5t-49.5 201.5t49.5 201.5t140.5 63.5t137 -63.5t46 -188.5v-10h-350v-37q0 -100 43 -156t124 -56q66 0 103 30.5t57 91.5l17 -7q-20 -67 -61.5 -100.5t-115.5 -33.5zM244 499q-81 0 -124 -56t-43 -156v-13h327v13q0 100 -39.5 156t-120.5 56z
" />
    <glyph glyph-name="f" unicode="f" horiz-adv-x="258" 
d="M110 487h-85v19h85v207q0 15 6 21t21 6h99v-19h-105v-215h105v-19h-105v-487h-21v487z" />
    <glyph glyph-name="g" unicode="g" horiz-adv-x="474" 
d="M452 -64q0 -80 -53 -114t-163 -34q-52 0 -88 9t-59 25.5t-33.5 41t-10.5 56.5q0 51 23 77t65 38v6q-23 6 -35 24.5t-12 44.5q0 32 22.5 54.5t53.5 24.5v6q-39 17 -60.5 55.5t-21.5 98.5q0 85 42 127t115 42q59 0 99 -29v49q0 14 4.5 18.5t18.5 4.5h94v-19h-99v-69
q40 -43 40 -124q0 -85 -42 -127t-115 -42q-28 0 -52 6q-39 -11 -59 -28.5t-20 -46.5t17.5 -43.5t60.5 -14.5h122q78 0 112 -30t34 -87zM430 -64q0 49 -27 73t-99 24h-143q-21 -6 -38 -14.5t-30 -22t-20 -32t-7 -45.5q0 -54 38 -83t108 -29h49q82 0 125.5 31t43.5 98z
M237 199q66 0 100 35.5t34 91.5v46q0 56 -34 91.5t-100 35.5t-100 -35.5t-34 -91.5v-46q0 -56 34 -91.5t100 -35.5z" />
    <glyph glyph-name="h" unicode="h" horiz-adv-x="501" 
d="M94 740h21v-310h6q13 38 52 63t95 25q72 0 110 -43.5t38 -122.5v-352h-21v352q0 69 -33 108t-95 39q-30 0 -57.5 -9.5t-48.5 -27.5t-33.5 -44t-12.5 -59v-359h-21v740z" />
    <glyph glyph-name="i" unicode="i" horiz-adv-x="209" 
d="M105 673q-12 0 -17 6t-5 14v9q0 8 5 14t17 6t16.5 -6t4.5 -14v-9q0 -8 -4.5 -14t-16.5 -6zM94 506h21v-506h-21v506z" />
    <glyph glyph-name="j" unicode="j" horiz-adv-x="209" 
d="M94 506h21v-679q0 -15 -6 -21t-21 -6h-71v19h77v687zM105 673q-12 0 -17 6t-5 14v9q0 8 5 14t17 6t16.5 -6t4.5 -14v-9q0 -8 -4.5 -14t-16.5 -6z" />
    <glyph glyph-name="k" unicode="k" horiz-adv-x="442" 
d="M94 740h21v-518h4l70 77l186 207h26l-192 -215l216 -291h-26l-205 277l-79 -87v-190h-21v740z" />
    <glyph glyph-name="l" unicode="l" horiz-adv-x="227" 
d="M121 0q-15 0 -21 6t-6 21v713h21v-721h76v-19h-70z" />
    <glyph glyph-name="m" unicode="m" horiz-adv-x="791" 
d="M94 0v506h21v-76h6q13 38 50 63t92 25q54 0 89 -27t49 -76h6q6 25 20.5 44t34.5 32t45 20t51 7q70 0 108.5 -43.5t38.5 -122.5v-352h-21v352q0 69 -33.5 108t-93.5 39q-30 0 -56.5 -9.5t-47 -27.5t-32 -44t-11.5 -59v-359h-21v352q0 69 -33.5 108t-93.5 39
q-30 0 -56.5 -9.5t-47 -27.5t-32 -44t-11.5 -59v-359h-21z" />
    <glyph glyph-name="n" unicode="n" horiz-adv-x="501" 
d="M94 0v506h21v-76h6q13 38 52 63t95 25q72 0 110 -43.5t38 -122.5v-352h-21v352q0 69 -33 108t-95 39q-30 0 -57.5 -9.5t-48.5 -27.5t-33.5 -44t-12.5 -59v-359h-21z" />
    <glyph glyph-name="o" unicode="o" horiz-adv-x="488" 
d="M244 -12q-91 0 -140.5 63.5t-49.5 201.5t49.5 201.5t140.5 63.5t140.5 -63.5t49.5 -201.5t-49.5 -201.5t-140.5 -63.5zM244 7q81 0 124 56t43 156v68q0 100 -43 156t-124 56t-124 -56t-43 -156v-68q0 -100 43 -156t124 -56z" />
    <glyph glyph-name="p" unicode="p" horiz-adv-x="509" 
d="M94 506h21v-76h6q14 40 51 64t93 24q91 0 140.5 -63.5t49.5 -201.5t-49.5 -201.5t-140.5 -63.5q-56 0 -93 25t-51 65h-6v-278h-21v706zM265 7q81 0 124 56t43 156v68q0 100 -43 156t-124 56q-32 0 -59.5 -9.5t-47.5 -27.5t-31.5 -44t-11.5 -59v-212q0 -33 11.5 -59
t31.5 -44t47.5 -27.5t59.5 -9.5z" />
    <glyph glyph-name="q" unicode="q" horiz-adv-x="509" 
d="M394 78h-6q-14 -40 -51 -65t-93 -25q-91 0 -140.5 63.5t-49.5 201.5t49.5 201.5t140.5 63.5q56 0 93 -24t51 -64h6v76h21v-706h-21v278zM244 7q32 0 59.5 9.5t47.5 27.5t31.5 44t11.5 59v212q0 33 -11.5 59t-31.5 44t-47.5 27.5t-59.5 9.5q-81 0 -124 -56t-43 -156v-68
q0 -100 43 -156t124 -56z" />
    <glyph glyph-name="r" unicode="r" horiz-adv-x="308" 
d="M94 0v506h21v-88h6q15 41 49.5 64.5t86.5 23.5h39v-19h-39q-29 0 -54.5 -10t-45 -28.5t-31 -44t-11.5 -56.5v-348h-21z" />
    <glyph glyph-name="s" unicode="s" horiz-adv-x="417" 
d="M208 -12q-54 0 -93 20.5t-71 70.5l17 12q31 -47 64.5 -65.5t82.5 -18.5q64 0 99 29t35 89q0 57 -27 83.5t-85 36.5l-41 7q-64 11 -97.5 41.5t-33.5 95.5q0 64 41 96.5t107 32.5q59 0 92.5 -20.5t56.5 -50.5l-16 -14q-11 14 -23 26t-27.5 21t-35.5 14t-46 5q-57 0 -92 -27
t-35 -82t26.5 -81.5t86.5 -36.5l41 -7q63 -11 96.5 -42t33.5 -97q0 -69 -42 -103.5t-114 -34.5z" />
    <glyph glyph-name="t" unicode="t" horiz-adv-x="280" 
d="M139 0q-15 0 -21 6t-6 21v460h-85v19h64q13 0 17 5.5t4 18.5v120h21v-144h105v-19h-105v-468h100v-19h-94z" />
    <glyph glyph-name="u" unicode="u" horiz-adv-x="501" 
d="M395 76h-6q-13 -38 -52 -63t-95 -25q-72 0 -110 42.5t-38 123.5v352h21v-352q0 -69 33 -108t95 -39q30 0 57.5 9.5t48.5 27.5t33.5 44t12.5 59v359h21v-506h-21v76z" />
    <glyph glyph-name="v" unicode="v" horiz-adv-x="408" 
d="M187 0l-165 506h22l105 -322l53 -165h4l53 165l105 322h22l-165 -506h-34z" />
    <glyph glyph-name="w" unicode="w" horiz-adv-x="654" 
d="M31 506h22l85 -322l43 -164h4l42 164l82 322h36l83 -322l42 -164h4l43 164l85 322h22l-134 -506h-36l-83 322l-42 164h-4l-42 -164l-82 -322h-36z" />
    <glyph glyph-name="x" unicode="x" horiz-adv-x="424" 
d="M30 0l169 255l-164 251h24l150 -232h6l151 232h24l-165 -251l169 -255h-24l-155 236h-6l-155 -236h-24z" />
    <glyph glyph-name="y" unicode="y" horiz-adv-x="408" 
d="M364 506h22l-224 -687q-4 -11 -9.5 -15t-16.5 -4h-84v19h89l52 162l-171 525h22l105 -322l53 -165h4l53 165z" />
    <glyph glyph-name="z" unicode="z" horiz-adv-x="377" 
d="M25 0v21l303 466h-295v19h317v-21l-302 -466h310v-19h-333z" />
    <glyph glyph-name="braceleft" unicode="{" horiz-adv-x="285" 
d="M133 -138q-13 0 -18 5t-5 19v325q0 45 -18 60.5t-61 15.5v48q43 0 61 15.5t18 60.5v325q0 14 5 19t18 5h91v-18h-94v-331q0 -47 -19 -69.5t-62 -22.5v-16q43 0 62 -22.5t19 -69.5v-331h94v-18h-91z" />
    <glyph glyph-name="bar" unicode="|" horiz-adv-x="216" 
d="M98 -138v898h20v-898h-20z" />
    <glyph glyph-name="braceright" unicode="}" horiz-adv-x="285" 
d="M152 760q13 0 18 -5t5 -19v-325q0 -45 18 -60.5t61 -15.5v-48q-43 0 -61 -15.5t-18 -60.5v-325q0 -14 -5 -19t-18 -5h-91v18h94v331q0 47 19 69.5t62 22.5v16q-43 0 -62 22.5t-19 69.5v331h-94v18h91z" />
    <glyph glyph-name="asciitilde" unicode="~" 
d="M381 256q-13 0 -25 2t-25.5 7t-29.5 12t-37 18q-38 20 -60 28.5t-46 8.5q-28 0 -47.5 -9.5t-39.5 -32.5l-13 14q22 25 45.5 36.5t55.5 11.5q25 0 50 -9t67 -30q38 -20 60 -28.5t46 -8.5q28 0 47.5 9.5t39.5 32.5l13 -14q-22 -25 -45.5 -36.5t-55.5 -11.5z" />
    <glyph glyph-name="uni00A0" unicode="&#xa0;" horiz-adv-x="212" 
 />
    <glyph glyph-name="exclamdown" unicode="&#xa1;" horiz-adv-x="228" 
d="M103 -192v283l5 239h12l5 -239v-283h-22zM114 455q-26 0 -26 24v8q0 24 26 24t26 -24v-8q0 -24 -26 -24z" />
    <glyph glyph-name="cent" unicode="&#xa2;" horiz-adv-x="448" 
d="M229 -114v102q-84 5 -129.5 68.5t-45.5 196.5t45.5 196.5t129.5 68.5v102h20v-102q54 -2 90 -26.5t56 -69.5l-18 -9q-21 45 -51.5 65.5t-76.5 20.5v-492q51 2 83.5 24t53.5 62l16 -11q-23 -43 -59.5 -68.5t-93.5 -25.5v-102h-20zM77 219q0 -94 39 -150t113 -61v491
q-74 -5 -113 -61.5t-39 -150.5v-68z" />
    <glyph glyph-name="sterling" unicode="&#xa3;" horiz-adv-x="522" 
d="M75 0v25q38 29 61.5 75.5t23.5 119.5q0 25 -3.5 47.5t-9.5 43.5h-84v20h78q-13 43 -27 86t-14 93q0 102 48.5 151t136.5 49q68 0 111.5 -28.5t69.5 -77.5l-18 -10q-26 45 -64 70.5t-98 25.5q-80 0 -122 -43.5t-42 -136.5q0 -50 14 -92t28 -87h196v-20h-191q6 -21 9.5 -43
t3.5 -47q0 -68 -22.5 -118.5t-66.5 -76.5v-6h369v-20h-387z" />
    <glyph glyph-name="yen" unicode="&#xa5;" horiz-adv-x="523" 
d="M272 168v-168h-22v168h-176v18h176v142h-176v18h164l-194 352h24l190 -344h6l190 344h24l-194 -352h164v-18h-176v-142h176v-18h-176z" />
    <glyph glyph-name="brokenbar" unicode="&#xa6;" horiz-adv-x="216" 
d="M98 401v359h20v-359h-20zM98 -138v359h20v-359h-20z" />
    <glyph glyph-name="section" unicode="&#xa7;" horiz-adv-x="508" 
d="M399 -13q0 -39 -12 -66t-33.5 -43.5t-50 -24t-61.5 -7.5q-53 0 -85 15.5t-54 38.5l13 15q20 -21 49.5 -35.5t77.5 -14.5q63 0 99 28t36 94q0 28 -9 48t-24 35t-35.5 26t-42.5 19l-60 22q-34 12 -58.5 26t-40.5 32t-23.5 42.5t-7.5 59.5q0 57 27 93t72 53v6
q-32 20 -49.5 49.5t-17.5 70.5q0 39 12.5 66t33.5 43.5t49.5 24t61.5 7.5q53 0 85 -15.5t54 -38.5l-13 -15q-20 21 -49 35.5t-78 14.5q-63 0 -99 -28t-36 -94q0 -28 9 -48.5t24.5 -35.5t35.5 -25.5t42 -18.5l60 -22q34 -12 58.5 -26t40.5 -32t23.5 -43t7.5 -59
q0 -57 -26.5 -93t-72.5 -53v-6q32 -20 49.5 -49.5t17.5 -70.5zM410 258q0 30 -6 51.5t-20 38t-36.5 29t-54.5 24.5l-59 22q-11 5 -20.5 8.5t-20.5 8.5q-44 -20 -69.5 -54t-25.5 -88q0 -30 6 -51.5t20 -38t36.5 -29t54.5 -24.5l60 -22q19 -7 41 -17q43 20 68.5 54t25.5 88z
" />
    <glyph glyph-name="dieresis" unicode="&#xa8;" 
d="M195 642q-13 0 -18 6.5t-5 14.5v7q0 8 5 14.5t18 6.5t18 -6.5t5 -14.5v-7q0 -8 -5 -14.5t-18 -6.5zM345 642q-13 0 -18 6.5t-5 14.5v7q0 8 5 14.5t18 6.5t18 -6.5t5 -14.5v-7q0 -8 -5 -14.5t-18 -6.5z" />
    <glyph glyph-name="copyright" unicode="&#xa9;" horiz-adv-x="640" 
d="M320 -12q-68 0 -122.5 24t-92.5 70.5t-58 113.5t-20 153t20 153t58 113.5t92.5 70.5t122.5 24t122.5 -24t92.5 -70.5t58 -113.5t20 -153t-20 -153t-58 -113.5t-92.5 -70.5t-122.5 -24zM320 6q63 0 113.5 22.5t85 63.5t53 98t18.5 126v66q0 69 -18.5 126t-53 98t-85 63.5
t-113.5 22.5t-113.5 -22.5t-85 -63.5t-53 -98t-18.5 -126v-66q0 -69 18.5 -126t53 -98t85 -63.5t113.5 -22.5zM318 149q-66 0 -101.5 48.5t-35.5 148.5t35.5 148.5t101.5 48.5q49 0 75 -22.5t37 -55.5l-16 -5q-11 31 -33 48.5t-63 17.5q-56 0 -85.5 -40.5t-29.5 -125.5v-28
q0 -85 29.5 -125.5t85.5 -40.5q40 0 64.5 18t36.5 49l15 -7q-12 -33 -41 -55t-75 -22z" />
    <glyph glyph-name="ordfeminine" unicode="&#xaa;" horiz-adv-x="319" 
d="M231 422q-11 -22 -32.5 -38t-64.5 -16q-48 0 -73 22.5t-25 64.5q0 45 25.5 68.5t89.5 23.5h85v57q0 89 -86 89q-33 0 -55.5 -13t-34.5 -43l-15 8q12 30 36.5 47.5t68.5 17.5q53 0 79 -27t26 -76v-216h42v-17h-44q-17 0 -17 17v31h-5zM150 531q-51 0 -72 -16.5t-21 -48.5
v-21q0 -32 21 -46t57 -14q42 0 71.5 20t29.5 63v63h-86z" />
    <glyph glyph-name="guillemotleft" unicode="&#xab;" horiz-adv-x="426" 
d="M219 116l-188 168v20l187 168l10 -15l-172 -161v-4l173 -161zM382 116l-188 168v20l187 168l10 -15l-172 -161v-4l173 -161z" />
    <glyph glyph-name="logicalnot" unicode="&#xac;" 
d="M463 104v192h-407v19h428v-211h-21z" />
    <glyph glyph-name="uni00AD" unicode="&#xad;" horiz-adv-x="360" 
d="M75 295v20h210v-20h-210z" />
    <glyph glyph-name="registered" unicode="&#xae;" horiz-adv-x="420" 
d="M210 298q-39 0 -72 13.5t-57 40t-37 64.5t-13 88q0 49 13 87.5t37 65t57 40t72 13.5t72 -13.5t57 -40t37 -65t13 -87.5q0 -50 -13 -88t-37 -64.5t-57 -40t-72 -13.5zM210 314q35 0 64.5 12t50.5 34t32.5 53.5t11.5 70.5v40q0 39 -11.5 70.5t-32.5 53.5t-50.5 34t-64.5 12
t-64.5 -12t-50.5 -34t-32.5 -53.5t-11.5 -70.5v-40q0 -39 11.5 -70.5t32.5 -53.5t50.5 -34t64.5 -12zM166 397h-16v212h74q29 0 43 -12t14 -50q0 -32 -11 -44.5t-32 -13.5l49 -92h-19l-46 91h-56v-91zM223 503q22 0 31.5 8t9.5 29v17q0 21 -9.5 29t-31.5 8h-57v-91h57z" />
    <glyph glyph-name="macron" unicode="&#xaf;" 
d="M157 676h226v-18h-226v18z" />
    <glyph glyph-name="degree" unicode="&#xb0;" horiz-adv-x="419" 
d="M210 396q-65 0 -107 41t-42 116t42 116t107 41t107 -41t42 -116t-42 -116t-107 -41zM210 415q58 0 93 36.5t35 101.5t-35 101.5t-93 36.5t-93 -36.5t-35 -101.5t35 -101.5t93 -36.5z" />
    <glyph glyph-name="plusminus" unicode="&#xb1;" 
d="M260 137v212h-204v19h204v212h21v-212h203v-19h-203v-212h-21zM56 0v19h427v-19h-427z" />
    <glyph glyph-name="twosuperior" unicode="&#xb2;" horiz-adv-x="320" 
d="M274 329h-230v20l128 117q72 65 72 118v26q0 33 -20.5 55t-63.5 22q-48 0 -69.5 -21.5t-32.5 -56.5l-16 5q5 18 14 34.5t22.5 29t33.5 19.5t48 7q50 0 77 -27t27 -78q0 -43 -19.5 -75t-61.5 -70l-119 -108h210v-17z" />
    <glyph glyph-name="threesuperior" unicode="&#xb3;" horiz-adv-x="320" 
d="M148 529q50 0 70 19t20 53v20q0 30 -20 48t-61 18q-38 0 -57.5 -12t-33.5 -34l-14 10q14 23 38.5 38t66.5 15q49 0 75 -23.5t26 -71.5q0 -38 -20 -60t-52 -26v-4q38 -2 58 -26t20 -62q0 -108 -112 -108q-45 0 -69.5 16.5t-40.5 39.5l14 11q16 -23 35.5 -36.5t60.5 -13.5
q47 0 69.5 21t22.5 59v20q0 35 -20 53.5t-70 18.5h-47v17h41z" />
    <glyph glyph-name="acute" unicode="&#xb4;" 
d="M255 587l-15 10l99 154l19 -12z" />
    <glyph glyph-name="mu" unicode="&#xb5;" horiz-adv-x="510" 
d="M94 -200v706h21v-352q0 -69 33 -108t95 -39q30 0 57.5 9.5t48.5 27.5t33.5 44t12.5 59v359h21v-506h-21v76h-6q-13 -38 -52 -63t-95 -25q-47 0 -80 23t-46 59h-6l5 -124v-146h-21z" />
    <glyph glyph-name="paragraph" unicode="&#xb6;" horiz-adv-x="534" 
d="M225 330q-81 0 -130 45t-49 139t49 139t130 45h221v-18h-62v-829h-21v829h-116v-829h-22v479z" />
    <glyph glyph-name="periodcentered" unicode="&#xb7;" horiz-adv-x="270" 
d="M135 278q-26 0 -26 24v8q0 24 26 24t26 -24v-8q0 -24 -26 -24z" />
    <glyph glyph-name="cedilla" unicode="&#xb8;" 
d="M279 -202q-26 0 -45.5 9.5t-27.5 22.5l12 12q20 -26 61 -26q26 0 40.5 13t14.5 36t-14.5 36t-40.5 13h-37l20 88h17l-17 -80h4q10 6 24 6q28 0 46 -15.5t18 -47.5q0 -29 -19 -48t-56 -19z" />
    <glyph glyph-name="onesuperior" unicode="&#xb9;" horiz-adv-x="320" 
d="M47 329v17h115v334l-124 -71l-8 14l129 75h22v-352h105v-17h-239z" />
    <glyph glyph-name="ordmasculine" unicode="&#xba;" horiz-adv-x="331" 
d="M165 367q-124 0 -124 172q0 171 124 171t124 -171q0 -172 -124 -172zM165 384q50 0 76.5 33.5t26.5 94.5v53q0 61 -26.5 94.5t-76.5 33.5t-76.5 -33.5t-26.5 -94.5v-53q0 -61 26.5 -94.5t76.5 -33.5z" />
    <glyph glyph-name="guillemotright" unicode="&#xbb;" horiz-adv-x="426" 
d="M44 472l188 -168v-20l-187 -168l-10 15l172 161v4l-173 161zM207 472l188 -168v-20l-187 -168l-10 15l172 161v4l-173 161z" />
    <glyph glyph-name="onequarter" unicode="&#xbc;" horiz-adv-x="740" 
d="M47 329v17h115v334l-124 -71l-8 14l129 75h22v-352h105v-17h-239zM408 434l153 264h22l-153 -264h-22zM157 0l147 254h22l-147 -254h-22zM633 0v89h-191v19l179 261h30v-263h59v-17h-59v-89h-18zM633 352h-4l-168 -246h172v246z" />
    <glyph glyph-name="onehalf" unicode="&#xbd;" horiz-adv-x="740" 
d="M47 329v17h115v334l-124 -71l-8 14l129 75h22v-352h105v-17h-239zM408 434l153 264h22l-153 -264h-22zM157 0l147 254h22l-147 -254h-22zM694 0h-230v20l128 117q72 65 72 118v26q0 33 -20.5 55t-63.5 22q-48 0 -69.5 -21.5t-32.5 -56.5l-16 5q5 18 14 34.5t22.5 29
t33.5 19.5t48 7q50 0 77 -27t27 -78q0 -43 -19.5 -75t-61.5 -70l-119 -108h210v-17z" />
    <glyph glyph-name="threequarters" unicode="&#xbe;" horiz-adv-x="740" 
d="M148 529q50 0 70 19t20 53v20q0 30 -20 48t-61 18q-38 0 -57.5 -12t-33.5 -34l-14 10q14 23 38.5 38t66.5 15q49 0 75 -23.5t26 -71.5q0 -38 -20 -60t-52 -26v-4q38 -2 58 -26t20 -62q0 -108 -112 -108q-45 0 -69.5 16.5t-40.5 39.5l14 11q16 -23 35.5 -36.5t60.5 -13.5
q47 0 69.5 21t22.5 59v20q0 35 -20 53.5t-70 18.5h-47v17h41zM408 434l153 264h22l-153 -264h-22zM157 0l147 254h22l-147 -254h-22zM633 0v89h-191v19l179 261h30v-263h59v-17h-59v-89h-18zM633 352h-4l-168 -246h172v246z" />
    <glyph glyph-name="questiondown" unicode="&#xbf;" horiz-adv-x="411" 
d="M201 -204q-81 0 -124.5 45t-43.5 133q0 95 46 142.5t135 58.5v155h22v-173q-91 -5 -135.5 -47t-44.5 -115v-38q0 -66 36.5 -104t108.5 -38q69 0 105.5 33.5t53.5 99.5l20 -5q-18 -72 -60.5 -109.5t-118.5 -37.5zM225 455q-26 0 -26 24v8q0 24 26 24t26 -24v-8
q0 -24 -26 -24z" />
    <glyph glyph-name="Agrave" unicode="&#xc0;" horiz-adv-x="542" 
d="M491 0l-76 234h-288l-76 -234h-24l226 698h36l226 -698h-24zM321 527l-48 151h-4l-48 -151l-87 -274h274zM183 919l19 12l99 -154l-15 -10z" />
    <glyph glyph-name="Aacute" unicode="&#xc1;" horiz-adv-x="542" 
d="M491 0l-76 234h-288l-76 -234h-24l226 698h36l226 -698h-24zM321 527l-48 151h-4l-48 -151l-87 -274h274zM256 767l-15 10l99 154l19 -12z" />
    <glyph glyph-name="Acircumflex" unicode="&#xc2;" horiz-adv-x="542" 
d="M491 0l-76 234h-288l-76 -234h-24l226 698h36l226 -698h-24zM321 527l-48 151h-4l-48 -151l-87 -274h274zM283 923l100 -133l-14 -11l-98 127l-98 -127l-14 11l100 133h24z" />
    <glyph glyph-name="Atilde" unicode="&#xc3;" horiz-adv-x="542" 
d="M491 0l-76 234h-288l-76 -234h-24l226 698h36l226 -698h-24zM321 527l-48 151h-4l-48 -151l-87 -274h274zM335 808q-16 0 -31 6.5t-38 23.5q-20 14 -33.5 20t-26.5 6q-17 0 -30.5 -8t-27.5 -25l-12 13q17 20 33.5 29t36.5 9q16 0 31 -6.5t38 -23.5q20 -14 33.5 -20
t26.5 -6q17 0 30.5 8t27.5 25l12 -13q-17 -20 -33.5 -29t-36.5 -9z" />
    <glyph glyph-name="Adieresis" unicode="&#xc4;" horiz-adv-x="542" 
d="M491 0l-76 234h-288l-76 -234h-24l226 698h36l226 -698h-24zM321 527l-48 151h-4l-48 -151l-87 -274h274zM196 819q-13 0 -18 6.5t-5 14.5v7q0 8 5 14.5t18 6.5t18 -6.5t5 -14.5v-7q0 -8 -5 -14.5t-18 -6.5zM346 819q-13 0 -18 6.5t-5 14.5v7q0 8 5 14.5t18 6.5t18 -6.5
t5 -14.5v-7q0 -8 -5 -14.5t-18 -6.5z" />
    <glyph glyph-name="Aring" unicode="&#xc5;" horiz-adv-x="542" 
d="M491 0l-76 234h-288l-76 -234h-24l226 698h36l226 -698h-24zM321 527l-48 151h-4l-48 -151l-87 -274h274zM271 769q-39 0 -62.5 25t-23.5 66t23.5 66t62.5 25t62.5 -25t23.5 -66t-23.5 -66t-62.5 -25zM271 787q31 0 48.5 18.5t17.5 49.5v10q0 31 -17.5 49.5t-48.5 18.5
t-48.5 -18.5t-17.5 -49.5v-10q0 -31 17.5 -49.5t48.5 -18.5z" />
    <glyph glyph-name="AE" unicode="&#xc6;" horiz-adv-x="777" 
d="M368 234h-227l-115 -234h-24l344 698h366v-20h-322v-314h311v-20h-311v-324h322v-20h-344v234zM360 678l-209 -425h217v425h-8z" />
    <glyph glyph-name="Ccedilla" unicode="&#xc7;" horiz-adv-x="549" 
d="M300 690q-99 0 -156 -72t-57 -230v-78q0 -158 57 -230t156 -72q77 0 118.5 34.5t62.5 101.5l19 -8q-23 -70 -70 -109t-128 -39l-14 -66h4q10 6 24 6q28 0 46 -15.5t18 -47.5q0 -29 -19 -48t-56 -19q-26 0 -45.5 9.5t-27.5 22.5l12 12q20 -26 61 -26q26 0 40.5 13t14.5 36
t-14.5 36t-40.5 13h-37l17 74q-51 2 -92 21.5t-70 61.5t-44.5 110t-15.5 168q0 103 17 172.5t48 111.5t74.5 59.5t97.5 17.5q80 0 125.5 -36.5t70.5 -102.5l-19 -9q-23 63 -64.5 95.5t-112.5 32.5z" />
    <glyph glyph-name="Egrave" unicode="&#xc8;" horiz-adv-x="506" 
d="M97 0v698h344v-20h-322v-314h311v-20h-311v-324h322v-20h-344zM182 919l19 12l99 -154l-15 -10z" />
    <glyph glyph-name="Eacute" unicode="&#xc9;" horiz-adv-x="506" 
d="M97 0v698h344v-20h-322v-314h311v-20h-311v-324h322v-20h-344zM255 767l-15 10l99 154l19 -12z" />
    <glyph glyph-name="Ecircumflex" unicode="&#xca;" horiz-adv-x="506" 
d="M97 0v698h344v-20h-322v-314h311v-20h-311v-324h322v-20h-344zM282 923l100 -133l-14 -11l-98 127l-98 -127l-14 11l100 133h24z" />
    <glyph glyph-name="Edieresis" unicode="&#xcb;" horiz-adv-x="506" 
d="M97 0v698h344v-20h-322v-314h311v-20h-311v-324h322v-20h-344zM195 819q-13 0 -18 6.5t-5 14.5v7q0 8 5 14.5t18 6.5t18 -6.5t5 -14.5v-7q0 -8 -5 -14.5t-18 -6.5zM345 819q-13 0 -18 6.5t-5 14.5v7q0 8 5 14.5t18 6.5t18 -6.5t5 -14.5v-7q0 -8 -5 -14.5t-18 -6.5z" />
    <glyph glyph-name="Igrave" unicode="&#xcc;" horiz-adv-x="336" 
d="M61 0v19h96v660h-96v19h214v-19h-96v-660h96v-19h-214zM80 919l19 12l99 -154l-15 -10z" />
    <glyph glyph-name="Iacute" unicode="&#xcd;" horiz-adv-x="336" 
d="M61 0v19h96v660h-96v19h214v-19h-96v-660h96v-19h-214zM153 767l-15 10l99 154l19 -12z" />
    <glyph glyph-name="Icircumflex" unicode="&#xce;" horiz-adv-x="336" 
d="M61 0v19h96v660h-96v19h214v-19h-96v-660h96v-19h-214zM180 923l100 -133l-14 -11l-98 127l-98 -127l-14 11l100 133h24z" />
    <glyph glyph-name="Idieresis" unicode="&#xcf;" horiz-adv-x="336" 
d="M61 0v19h96v660h-96v19h214v-19h-96v-660h96v-19h-214zM93 819q-13 0 -18 6.5t-5 14.5v7q0 8 5 14.5t18 6.5t18 -6.5t5 -14.5v-7q0 -8 -5 -14.5t-18 -6.5zM243 819q-13 0 -18 6.5t-5 14.5v7q0 8 5 14.5t18 6.5t18 -6.5t5 -14.5v-7q0 -8 -5 -14.5t-18 -6.5z" />
    <glyph glyph-name="Eth" unicode="&#xd0;" horiz-adv-x="594" 
d="M97 355h-72v18h72v325h193q121 0 181 -84t60 -265t-60 -265t-181 -84h-193v355zM291 20q56 0 96.5 20.5t67 58.5t39.5 91.5t13 119.5v78q0 66 -13 119.5t-39.5 91.5t-67 58.5t-96.5 20.5h-172v-305h156v-18h-156v-335h172z" />
    <glyph glyph-name="Ntilde" unicode="&#xd1;" horiz-adv-x="623" 
d="M215 508l-92 170h-4v-678h-22v698h38l274 -508l92 -170h4v678h22v-698h-38zM376 808q-16 0 -31 6.5t-38 23.5q-20 14 -33.5 20t-26.5 6q-17 0 -30.5 -8t-27.5 -25l-12 13q17 20 33.5 29t36.5 9q16 0 31 -6.5t38 -23.5q20 -14 33.5 -20t26.5 -6q17 0 30.5 8t27.5 25
l12 -13q-17 -20 -33.5 -29t-36.5 -9z" />
    <glyph glyph-name="Ograve" unicode="&#xd2;" horiz-adv-x="614" 
d="M307 -12q-56 0 -101 17.5t-76.5 59.5t-49 111t-17.5 173q0 103 17.5 172.5t49 111.5t76.5 59.5t101 17.5q55 0 100.5 -17.5t77 -59.5t49 -111.5t17.5 -172.5q0 -104 -17.5 -173t-49 -111t-77 -59.5t-100.5 -17.5zM307 8q103 0 161.5 72t58.5 230v78q0 158 -58.5 230
t-161.5 72t-161.5 -72t-58.5 -230v-78q0 -158 58.5 -230t161.5 -72zM219 919l19 12l99 -154l-15 -10z" />
    <glyph glyph-name="Oacute" unicode="&#xd3;" horiz-adv-x="614" 
d="M307 -12q-56 0 -101 17.5t-76.5 59.5t-49 111t-17.5 173q0 103 17.5 172.5t49 111.5t76.5 59.5t101 17.5q55 0 100.5 -17.5t77 -59.5t49 -111.5t17.5 -172.5q0 -104 -17.5 -173t-49 -111t-77 -59.5t-100.5 -17.5zM307 8q103 0 161.5 72t58.5 230v78q0 158 -58.5 230
t-161.5 72t-161.5 -72t-58.5 -230v-78q0 -158 58.5 -230t161.5 -72zM292 767l-15 10l99 154l19 -12z" />
    <glyph glyph-name="Ocircumflex" unicode="&#xd4;" horiz-adv-x="614" 
d="M307 -12q-56 0 -101 17.5t-76.5 59.5t-49 111t-17.5 173q0 103 17.5 172.5t49 111.5t76.5 59.5t101 17.5q55 0 100.5 -17.5t77 -59.5t49 -111.5t17.5 -172.5q0 -104 -17.5 -173t-49 -111t-77 -59.5t-100.5 -17.5zM307 8q103 0 161.5 72t58.5 230v78q0 158 -58.5 230
t-161.5 72t-161.5 -72t-58.5 -230v-78q0 -158 58.5 -230t161.5 -72zM319 923l100 -133l-14 -11l-98 127l-98 -127l-14 11l100 133h24z" />
    <glyph glyph-name="Otilde" unicode="&#xd5;" horiz-adv-x="614" 
d="M307 -12q-56 0 -101 17.5t-76.5 59.5t-49 111t-17.5 173q0 103 17.5 172.5t49 111.5t76.5 59.5t101 17.5q55 0 100.5 -17.5t77 -59.5t49 -111.5t17.5 -172.5q0 -104 -17.5 -173t-49 -111t-77 -59.5t-100.5 -17.5zM307 8q103 0 161.5 72t58.5 230v78q0 158 -58.5 230
t-161.5 72t-161.5 -72t-58.5 -230v-78q0 -158 58.5 -230t161.5 -72zM371 808q-16 0 -31 6.5t-38 23.5q-20 14 -33.5 20t-26.5 6q-17 0 -30.5 -8t-27.5 -25l-12 13q17 20 33.5 29t36.5 9q16 0 31 -6.5t38 -23.5q20 -14 33.5 -20t26.5 -6q17 0 30.5 8t27.5 25l12 -13
q-17 -20 -33.5 -29t-36.5 -9z" />
    <glyph glyph-name="Odieresis" unicode="&#xd6;" horiz-adv-x="614" 
d="M307 -12q-56 0 -101 17.5t-76.5 59.5t-49 111t-17.5 173q0 103 17.5 172.5t49 111.5t76.5 59.5t101 17.5q55 0 100.5 -17.5t77 -59.5t49 -111.5t17.5 -172.5q0 -104 -17.5 -173t-49 -111t-77 -59.5t-100.5 -17.5zM307 8q103 0 161.5 72t58.5 230v78q0 158 -58.5 230
t-161.5 72t-161.5 -72t-58.5 -230v-78q0 -158 58.5 -230t161.5 -72zM232 819q-13 0 -18 6.5t-5 14.5v7q0 8 5 14.5t18 6.5t18 -6.5t5 -14.5v-7q0 -8 -5 -14.5t-18 -6.5zM382 819q-13 0 -18 6.5t-5 14.5v7q0 8 5 14.5t18 6.5t18 -6.5t5 -14.5v-7q0 -8 -5 -14.5t-18 -6.5z" />
    <glyph glyph-name="multiply" unicode="&#xd7;" 
d="M270 292l-179 -179l-14 13l180 180l-180 179l13 14l180 -180l180 180l13 -14l-179 -179l179 -180l-14 -13z" />
    <glyph glyph-name="Oslash" unicode="&#xd8;" horiz-adv-x="613" 
d="M307 -12q-53 0 -96 15.5t-75 53.5l-56 -89l-17 11l60 95q-29 43 -44.5 109.5t-15.5 165.5q0 103 17.5 172.5t49 111.5t76.5 59.5t101 17.5q53 0 96 -15.5t75 -53.5l56 89l17 -11l-60 -95q29 -43 44.5 -109.5t15.5 -165.5q0 -104 -17.5 -173t-49 -111t-77 -59.5
t-100.5 -17.5zM137 97l173 275l156 250q-29 35 -69 51.5t-90 16.5q-103 0 -161.5 -72t-58.5 -230v-78q0 -67 11.5 -121t35.5 -92h3zM148 76q29 -35 69 -51.5t90 -16.5q103 0 161.5 72t58.5 230v78q0 67 -11.5 121t-35.5 92h-3l-167 -267z" />
    <glyph glyph-name="Ugrave" unicode="&#xd9;" horiz-adv-x="588" 
d="M112 698v-450q0 -66 9 -111.5t30 -74t56 -41.5t87 -13t87 13t56 41.5t30 74t9 111.5v450h22v-448q0 -72 -10.5 -122t-34.5 -81t-63 -45t-96 -14t-96 14t-63 45t-34.5 81t-10.5 122v448h22zM205 919l19 12l99 -154l-15 -10z" />
    <glyph glyph-name="Uacute" unicode="&#xda;" horiz-adv-x="588" 
d="M112 698v-450q0 -66 9 -111.5t30 -74t56 -41.5t87 -13t87 13t56 41.5t30 74t9 111.5v450h22v-448q0 -72 -10.5 -122t-34.5 -81t-63 -45t-96 -14t-96 14t-63 45t-34.5 81t-10.5 122v448h22zM278 767l-15 10l99 154l19 -12z" />
    <glyph glyph-name="Ucircumflex" unicode="&#xdb;" horiz-adv-x="588" 
d="M112 698v-450q0 -66 9 -111.5t30 -74t56 -41.5t87 -13t87 13t56 41.5t30 74t9 111.5v450h22v-448q0 -72 -10.5 -122t-34.5 -81t-63 -45t-96 -14t-96 14t-63 45t-34.5 81t-10.5 122v448h22zM305 923l100 -133l-14 -11l-98 127l-98 -127l-14 11l100 133h24z" />
    <glyph glyph-name="Udieresis" unicode="&#xdc;" horiz-adv-x="588" 
d="M112 698v-450q0 -66 9 -111.5t30 -74t56 -41.5t87 -13t87 13t56 41.5t30 74t9 111.5v450h22v-448q0 -72 -10.5 -122t-34.5 -81t-63 -45t-96 -14t-96 14t-63 45t-34.5 81t-10.5 122v448h22zM218 819q-13 0 -18 6.5t-5 14.5v7q0 8 5 14.5t18 6.5t18 -6.5t5 -14.5v-7
q0 -8 -5 -14.5t-18 -6.5zM368 819q-13 0 -18 6.5t-5 14.5v7q0 8 5 14.5t18 6.5t18 -6.5t5 -14.5v-7q0 -8 -5 -14.5t-18 -6.5z" />
    <glyph glyph-name="Yacute" unicode="&#xdd;" horiz-adv-x="493" 
d="M235 0v294l-216 404h24l200 -374h6l200 374h24l-216 -404v-294h-22zM232 767l-15 10l99 154l19 -12z" />
    <glyph glyph-name="Thorn" unicode="&#xde;" horiz-adv-x="535" 
d="M97 0v698h22v-156h225q77 0 114.5 -48t37.5 -140t-37.5 -140t-114.5 -48h-225v-166h-22zM119 186h225q33 0 57 11t40 29.5t23.5 44t7.5 54.5v58q0 29 -7.5 54.5t-23.5 44t-40 29.5t-57 11h-225v-336z" />
    <glyph glyph-name="germandbls" unicode="&#xdf;" horiz-adv-x="580" 
d="M537 124q0 -65 -37 -100.5t-109 -35.5q-59 0 -100 20t-72 69l17 12q15 -23 31.5 -39t35 -25.5t40 -13.5t48.5 -4q66 0 95.5 30.5t29.5 86.5q0 49 -23 76t-73 41l-39 11q-59 16 -85.5 43t-26.5 84q0 66 46 96.5t137 30.5v35q0 100 -38 146t-118 46t-118 -46t-38 -146v-541
h-21v487h-85v19h85v35q0 106 43 158.5t134 52.5t134 -52.5t43 -158.5v-54h-21q-81 0 -121.5 -25.5t-40.5 -81.5q0 -24 5 -41.5t16 -29.5t29 -21t45 -16l39 -11q30 -8 51 -19t35 -27t20.5 -38.5t6.5 -52.5z" />
    <glyph glyph-name="agrave" unicode="&#xe0;" horiz-adv-x="468" 
d="M376 0q-14 0 -18.5 4.5t-4.5 18.5v55h-6q-14 -40 -50.5 -65t-94.5 -25q-69 0 -108.5 34.5t-39.5 108.5t42 108.5t116 34.5h141v85q0 77 -33.5 108.5t-97.5 31.5q-51 0 -84 -21t-51 -74l-17 8q18 52 53.5 79t98.5 27q76 0 114 -37.5t38 -118.5v-343h75v-19h-73zM202 7
q31 0 58.5 9t48 26.5t32.5 44t12 61.5v108h-141q-58 0 -96.5 -27.5t-38.5 -77.5v-39q0 -50 35.5 -77.5t89.5 -27.5zM137 739l19 12l99 -154l-15 -10z" />
    <glyph glyph-name="aacute" unicode="&#xe1;" horiz-adv-x="468" 
d="M376 0q-14 0 -18.5 4.5t-4.5 18.5v55h-6q-14 -40 -50.5 -65t-94.5 -25q-69 0 -108.5 34.5t-39.5 108.5t42 108.5t116 34.5h141v85q0 77 -33.5 108.5t-97.5 31.5q-51 0 -84 -21t-51 -74l-17 8q18 52 53.5 79t98.5 27q76 0 114 -37.5t38 -118.5v-343h75v-19h-73zM202 7
q31 0 58.5 9t48 26.5t32.5 44t12 61.5v108h-141q-58 0 -96.5 -27.5t-38.5 -77.5v-39q0 -50 35.5 -77.5t89.5 -27.5zM210 587l-15 10l99 154l19 -12z" />
    <glyph glyph-name="acircumflex" unicode="&#xe2;" horiz-adv-x="468" 
d="M376 0q-14 0 -18.5 4.5t-4.5 18.5v55h-6q-14 -40 -50.5 -65t-94.5 -25q-69 0 -108.5 34.5t-39.5 108.5t42 108.5t116 34.5h141v85q0 77 -33.5 108.5t-97.5 31.5q-51 0 -84 -21t-51 -74l-17 8q18 52 53.5 79t98.5 27q76 0 114 -37.5t38 -118.5v-343h75v-19h-73zM202 7
q31 0 58.5 9t48 26.5t32.5 44t12 61.5v108h-141q-58 0 -96.5 -27.5t-38.5 -77.5v-39q0 -50 35.5 -77.5t89.5 -27.5zM237 743l100 -133l-14 -11l-98 127l-98 -127l-14 11l100 133h24z" />
    <glyph glyph-name="atilde" unicode="&#xe3;" horiz-adv-x="468" 
d="M376 0q-14 0 -18.5 4.5t-4.5 18.5v55h-6q-14 -40 -50.5 -65t-94.5 -25q-69 0 -108.5 34.5t-39.5 108.5t42 108.5t116 34.5h141v85q0 77 -33.5 108.5t-97.5 31.5q-51 0 -84 -21t-51 -74l-17 8q18 52 53.5 79t98.5 27q76 0 114 -37.5t38 -118.5v-343h75v-19h-73zM202 7
q31 0 58.5 9t48 26.5t32.5 44t12 61.5v108h-141q-58 0 -96.5 -27.5t-38.5 -77.5v-39q0 -50 35.5 -77.5t89.5 -27.5zM289 628q-16 0 -31 6.5t-38 23.5q-20 14 -33.5 20t-26.5 6q-17 0 -30.5 -8t-27.5 -25l-12 13q17 20 33.5 29t36.5 9q16 0 31 -6.5t38 -23.5q20 -14 33.5 -20
t26.5 -6q17 0 30.5 8t27.5 25l12 -13q-17 -20 -33.5 -29t-36.5 -9z" />
    <glyph glyph-name="adieresis" unicode="&#xe4;" horiz-adv-x="468" 
d="M376 0q-14 0 -18.5 4.5t-4.5 18.5v55h-6q-14 -40 -50.5 -65t-94.5 -25q-69 0 -108.5 34.5t-39.5 108.5t42 108.5t116 34.5h141v85q0 77 -33.5 108.5t-97.5 31.5q-51 0 -84 -21t-51 -74l-17 8q18 52 53.5 79t98.5 27q76 0 114 -37.5t38 -118.5v-343h75v-19h-73zM202 7
q31 0 58.5 9t48 26.5t32.5 44t12 61.5v108h-141q-58 0 -96.5 -27.5t-38.5 -77.5v-39q0 -50 35.5 -77.5t89.5 -27.5zM150 642q-13 0 -18 6.5t-5 14.5v7q0 8 5 14.5t18 6.5t18 -6.5t5 -14.5v-7q0 -8 -5 -14.5t-18 -6.5zM300 642q-13 0 -18 6.5t-5 14.5v7q0 8 5 14.5t18 6.5
t18 -6.5t5 -14.5v-7q0 -8 -5 -14.5t-18 -6.5z" />
    <glyph glyph-name="aring" unicode="&#xe5;" horiz-adv-x="468" 
d="M376 0q-14 0 -18.5 4.5t-4.5 18.5v55h-6q-14 -40 -50.5 -65t-94.5 -25q-69 0 -108.5 34.5t-39.5 108.5t42 108.5t116 34.5h141v85q0 77 -33.5 108.5t-97.5 31.5q-51 0 -84 -21t-51 -74l-17 8q18 52 53.5 79t98.5 27q76 0 114 -37.5t38 -118.5v-343h75v-19h-73zM202 7
q31 0 58.5 9t48 26.5t32.5 44t12 61.5v108h-141q-58 0 -96.5 -27.5t-38.5 -77.5v-39q0 -50 35.5 -77.5t89.5 -27.5zM225 589q-39 0 -62.5 25t-23.5 66t23.5 66t62.5 25t62.5 -25t23.5 -66t-23.5 -66t-62.5 -25zM225 607q31 0 48.5 18.5t17.5 49.5v10q0 31 -17.5 49.5
t-48.5 18.5t-48.5 -18.5t-17.5 -49.5v-10q0 -31 17.5 -49.5t48.5 -18.5z" />
    <glyph glyph-name="ae" unicode="&#xe6;" horiz-adv-x="784" 
d="M212 256q-58 0 -96.5 -27.5t-38.5 -77.5v-39q0 -50 35.5 -77.5t89.5 -27.5q71 0 114 56t43 156v37h-147zM708 274v13q0 100 -39.5 156t-120.5 56t-124 -56t-43 -156v-13h327zM548 7q66 0 103 30.5t57 91.5l17 -7q-20 -67 -61.5 -100.5t-115.5 -33.5q-69 0 -113 37
t-62 116h-6q-18 -79 -61.5 -116t-103.5 -37q-69 0 -108.5 34.5t-39.5 108.5t42 108.5t116 34.5h147v13q0 48 -9 87t-27 66.5t-44.5 43t-61.5 15.5q-49 0 -80.5 -21t-49.5 -74l-17 8q18 52 51 79t94 27q122 0 152 -153h6q18 79 65.5 116t109.5 37q91 0 137 -63.5t46 -188.5
v-10h-350v-37q0 -100 43 -156t124 -56z" />
    <glyph glyph-name="ccedilla" unicode="&#xe7;" horiz-adv-x="439" 
d="M243 518q57 0 94.5 -24.5t57.5 -71.5l-18 -9q-21 45 -52 65.5t-82 20.5q-81 0 -123.5 -57t-42.5 -155v-68q0 -98 42.5 -155t123.5 -57q54 0 87.5 22t55.5 64l16 -11q-22 -42 -57.5 -67t-93.5 -27l-14 -66h4q10 6 24 6q28 0 46 -15.5t18 -47.5q0 -29 -19 -48t-56 -19
q-26 0 -45.5 9.5t-27.5 22.5l12 12q20 -26 61 -26q26 0 40.5 13t14.5 36t-14.5 36t-40.5 13h-37l17 74q-87 3 -133.5 66.5t-46.5 198.5q0 138 49 201.5t140 63.5z" />
    <glyph glyph-name="egrave" unicode="&#xe8;" horiz-adv-x="480" 
d="M244 -12q-91 0 -140.5 63.5t-49.5 201.5t49.5 201.5t140.5 63.5t137 -63.5t46 -188.5v-10h-350v-37q0 -100 43 -156t124 -56q66 0 103 30.5t57 91.5l17 -7q-20 -67 -61.5 -100.5t-115.5 -33.5zM244 499q-81 0 -124 -56t-43 -156v-13h327v13q0 100 -39.5 156t-120.5 56z
M155 739l19 12l99 -154l-15 -10z" />
    <glyph glyph-name="eacute" unicode="&#xe9;" horiz-adv-x="480" 
d="M244 -12q-91 0 -140.5 63.5t-49.5 201.5t49.5 201.5t140.5 63.5t137 -63.5t46 -188.5v-10h-350v-37q0 -100 43 -156t124 -56q66 0 103 30.5t57 91.5l17 -7q-20 -67 -61.5 -100.5t-115.5 -33.5zM244 499q-81 0 -124 -56t-43 -156v-13h327v13q0 100 -39.5 156t-120.5 56z
M228 587l-15 10l99 154l19 -12z" />
    <glyph glyph-name="ecircumflex" unicode="&#xea;" horiz-adv-x="480" 
d="M244 -12q-91 0 -140.5 63.5t-49.5 201.5t49.5 201.5t140.5 63.5t137 -63.5t46 -188.5v-10h-350v-37q0 -100 43 -156t124 -56q66 0 103 30.5t57 91.5l17 -7q-20 -67 -61.5 -100.5t-115.5 -33.5zM244 499q-81 0 -124 -56t-43 -156v-13h327v13q0 100 -39.5 156t-120.5 56z
M255 743l100 -133l-14 -11l-98 127l-98 -127l-14 11l100 133h24z" />
    <glyph glyph-name="edieresis" unicode="&#xeb;" horiz-adv-x="480" 
d="M244 -12q-91 0 -140.5 63.5t-49.5 201.5t49.5 201.5t140.5 63.5t137 -63.5t46 -188.5v-10h-350v-37q0 -100 43 -156t124 -56q66 0 103 30.5t57 91.5l17 -7q-20 -67 -61.5 -100.5t-115.5 -33.5zM244 499q-81 0 -124 -56t-43 -156v-13h327v13q0 100 -39.5 156t-120.5 56z
M168 642q-13 0 -18 6.5t-5 14.5v7q0 8 5 14.5t18 6.5t18 -6.5t5 -14.5v-7q0 -8 -5 -14.5t-18 -6.5zM318 642q-13 0 -18 6.5t-5 14.5v7q0 8 5 14.5t18 6.5t18 -6.5t5 -14.5v-7q0 -8 -5 -14.5t-18 -6.5z" />
    <glyph glyph-name="igrave" unicode="&#xec;" horiz-adv-x="209" 
d="M94 0v506h21v-506h-21zM17 739l19 12l99 -154l-15 -10z" />
    <glyph glyph-name="iacute" unicode="&#xed;" horiz-adv-x="209" 
d="M94 0v506h21v-506h-21zM90 587l-15 10l99 154l19 -12z" />
    <glyph glyph-name="icircumflex" unicode="&#xee;" horiz-adv-x="209" 
d="M94 0v506h21v-506h-21zM117 743l100 -133l-14 -11l-98 127l-98 -127l-14 11l100 133h24z" />
    <glyph glyph-name="idieresis" unicode="&#xef;" horiz-adv-x="209" 
d="M94 0v506h21v-506h-21zM30 642q-13 0 -18 6.5t-5 14.5v7q0 8 5 14.5t18 6.5t18 -6.5t5 -14.5v-7q0 -8 -5 -14.5t-18 -6.5zM180 642q-13 0 -18 6.5t-5 14.5v7q0 8 5 14.5t18 6.5t18 -6.5t5 -14.5v-7q0 -8 -5 -14.5t-18 -6.5z" />
    <glyph glyph-name="eth" unicode="&#xf0;" horiz-adv-x="490" 
d="M360 739l-97 -78q32 -32 62.5 -73t54.5 -92.5t38.5 -114t14.5 -137.5q0 -256 -190 -256t-190 256t190 256q52 0 85.5 -20.5t53.5 -58.5h6q-23 69 -57 125t-82 103l-96 -77l-11 13l94 76q-23 22 -48.5 41.5t-54.5 37.5h34q19 -13 40 -29.5t44 -37.5l98 79zM243 7
q82 0 124.5 53t42.5 153v62q0 100 -42.5 153t-124.5 53t-124.5 -53t-42.5 -153v-62q0 -100 42.5 -153t124.5 -53z" />
    <glyph glyph-name="ntilde" unicode="&#xf1;" horiz-adv-x="501" 
d="M94 0v506h21v-76h6q13 38 52 63t95 25q72 0 110 -43.5t38 -122.5v-352h-21v352q0 69 -33 108t-95 39q-30 0 -57.5 -9.5t-48.5 -27.5t-33.5 -44t-12.5 -59v-359h-21zM321 628q-16 0 -31 6.5t-38 23.5q-20 14 -33.5 20t-26.5 6q-17 0 -30.5 -8t-27.5 -25l-12 13
q17 20 33.5 29t36.5 9q16 0 31 -6.5t38 -23.5q20 -14 33.5 -20t26.5 -6q17 0 30.5 8t27.5 25l12 -13q-17 -20 -33.5 -29t-36.5 -9z" />
    <glyph glyph-name="ograve" unicode="&#xf2;" horiz-adv-x="488" 
d="M244 -12q-91 0 -140.5 63.5t-49.5 201.5t49.5 201.5t140.5 63.5t140.5 -63.5t49.5 -201.5t-49.5 -201.5t-140.5 -63.5zM244 7q81 0 124 56t43 156v68q0 100 -43 156t-124 56t-124 -56t-43 -156v-68q0 -100 43 -156t124 -56zM157 739l19 12l99 -154l-15 -10z" />
    <glyph glyph-name="oacute" unicode="&#xf3;" horiz-adv-x="488" 
d="M244 -12q-91 0 -140.5 63.5t-49.5 201.5t49.5 201.5t140.5 63.5t140.5 -63.5t49.5 -201.5t-49.5 -201.5t-140.5 -63.5zM244 7q81 0 124 56t43 156v68q0 100 -43 156t-124 56t-124 -56t-43 -156v-68q0 -100 43 -156t124 -56zM230 587l-15 10l99 154l19 -12z" />
    <glyph glyph-name="ocircumflex" unicode="&#xf4;" horiz-adv-x="488" 
d="M244 -12q-91 0 -140.5 63.5t-49.5 201.5t49.5 201.5t140.5 63.5t140.5 -63.5t49.5 -201.5t-49.5 -201.5t-140.5 -63.5zM244 7q81 0 124 56t43 156v68q0 100 -43 156t-124 56t-124 -56t-43 -156v-68q0 -100 43 -156t124 -56zM257 743l100 -133l-14 -11l-98 127l-98 -127
l-14 11l100 133h24z" />
    <glyph glyph-name="otilde" unicode="&#xf5;" horiz-adv-x="488" 
d="M244 -12q-91 0 -140.5 63.5t-49.5 201.5t49.5 201.5t140.5 63.5t140.5 -63.5t49.5 -201.5t-49.5 -201.5t-140.5 -63.5zM244 7q81 0 124 56t43 156v68q0 100 -43 156t-124 56t-124 -56t-43 -156v-68q0 -100 43 -156t124 -56zM309 628q-16 0 -31 6.5t-38 23.5
q-20 14 -33.5 20t-26.5 6q-17 0 -30.5 -8t-27.5 -25l-12 13q17 20 33.5 29t36.5 9q16 0 31 -6.5t38 -23.5q20 -14 33.5 -20t26.5 -6q17 0 30.5 8t27.5 25l12 -13q-17 -20 -33.5 -29t-36.5 -9z" />
    <glyph glyph-name="odieresis" unicode="&#xf6;" horiz-adv-x="488" 
d="M244 -12q-91 0 -140.5 63.5t-49.5 201.5t49.5 201.5t140.5 63.5t140.5 -63.5t49.5 -201.5t-49.5 -201.5t-140.5 -63.5zM244 7q81 0 124 56t43 156v68q0 100 -43 156t-124 56t-124 -56t-43 -156v-68q0 -100 43 -156t124 -56zM170 642q-13 0 -18 6.5t-5 14.5v7q0 8 5 14.5
t18 6.5t18 -6.5t5 -14.5v-7q0 -8 -5 -14.5t-18 -6.5zM320 642q-13 0 -18 6.5t-5 14.5v7q0 8 5 14.5t18 6.5t18 -6.5t5 -14.5v-7q0 -8 -5 -14.5t-18 -6.5z" />
    <glyph glyph-name="divide" unicode="&#xf7;" 
d="M56 296v19h428v-19h-428zM270 82q-32 0 -32 27v8q0 27 32 27t32 -27v-8q0 -27 -32 -27zM270 467q-32 0 -32 27v8q0 27 32 27t32 -27v-8q0 -27 -32 -27z" />
    <glyph glyph-name="oslash" unicode="&#xf8;" horiz-adv-x="488" 
d="M244 -12q-90 0 -137 59l-57 -78l-14 10l60 83q-20 33 -31 80t-11 111q0 138 49.5 201.5t140.5 63.5q90 0 137 -60l57 79l14 -10l-60 -83q20 -33 31 -80t11 -111q0 -138 -49.5 -201.5t-140.5 -63.5zM111 83l135 188l123 170q-45 58 -125 58q-81 0 -124 -56t-43 -156v-68
q0 -84 30 -136h4zM120 65q43 -58 124 -58t124 56t43 156v68q0 83 -30 136h-4l-131 -182z" />
    <glyph glyph-name="ugrave" unicode="&#xf9;" horiz-adv-x="501" 
d="M395 76h-6q-13 -38 -52 -63t-95 -25q-72 0 -110 42.5t-38 123.5v352h21v-352q0 -69 33 -108t95 -39q30 0 57.5 9.5t48.5 27.5t33.5 44t12.5 59v359h21v-506h-21v76zM159 739l19 12l99 -154l-15 -10z" />
    <glyph glyph-name="uacute" unicode="&#xfa;" horiz-adv-x="501" 
d="M395 76h-6q-13 -38 -52 -63t-95 -25q-72 0 -110 42.5t-38 123.5v352h21v-352q0 -69 33 -108t95 -39q30 0 57.5 9.5t48.5 27.5t33.5 44t12.5 59v359h21v-506h-21v76zM232 587l-15 10l99 154l19 -12z" />
    <glyph glyph-name="ucircumflex" unicode="&#xfb;" horiz-adv-x="501" 
d="M395 76h-6q-13 -38 -52 -63t-95 -25q-72 0 -110 42.5t-38 123.5v352h21v-352q0 -69 33 -108t95 -39q30 0 57.5 9.5t48.5 27.5t33.5 44t12.5 59v359h21v-506h-21v76zM259 743l100 -133l-14 -11l-98 127l-98 -127l-14 11l100 133h24z" />
    <glyph glyph-name="udieresis" unicode="&#xfc;" horiz-adv-x="501" 
d="M395 76h-6q-13 -38 -52 -63t-95 -25q-72 0 -110 42.5t-38 123.5v352h21v-352q0 -69 33 -108t95 -39q30 0 57.5 9.5t48.5 27.5t33.5 44t12.5 59v359h21v-506h-21v76zM172 642q-13 0 -18 6.5t-5 14.5v7q0 8 5 14.5t18 6.5t18 -6.5t5 -14.5v-7q0 -8 -5 -14.5t-18 -6.5z
M322 642q-13 0 -18 6.5t-5 14.5v7q0 8 5 14.5t18 6.5t18 -6.5t5 -14.5v-7q0 -8 -5 -14.5t-18 -6.5z" />
    <glyph glyph-name="yacute" unicode="&#xfd;" horiz-adv-x="408" 
d="M364 506h22l-224 -687q-4 -11 -9.5 -15t-16.5 -4h-84v19h89l52 162l-171 525h22l105 -322l53 -165h4l53 165zM192 587l-15 10l99 154l19 -12z" />
    <glyph glyph-name="thorn" unicode="&#xfe;" horiz-adv-x="509" 
d="M94 740h21v-310h6q14 40 51 64t93 24q91 0 140.5 -63.5t49.5 -201.5t-49.5 -201.5t-140.5 -63.5q-56 0 -93 25t-51 65h-6v-278h-21v940zM265 7q81 0 124 56t43 156v68q0 100 -43 156t-124 56q-32 0 -59.5 -9.5t-47.5 -27.5t-31.5 -44t-11.5 -59v-212q0 -33 11.5 -59
t31.5 -44t47.5 -27.5t59.5 -9.5z" />
    <glyph glyph-name="ydieresis" unicode="&#xff;" horiz-adv-x="408" 
d="M364 506h22l-224 -687q-4 -11 -9.5 -15t-16.5 -4h-84v19h89l52 162l-171 525h22l105 -322l53 -165h4l53 165zM132 642q-13 0 -18 6.5t-5 14.5v7q0 8 5 14.5t18 6.5t18 -6.5t5 -14.5v-7q0 -8 -5 -14.5t-18 -6.5zM282 642q-13 0 -18 6.5t-5 14.5v7q0 8 5 14.5t18 6.5
t18 -6.5t5 -14.5v-7q0 -8 -5 -14.5t-18 -6.5z" />
    <glyph glyph-name="Amacron" unicode="&#x100;" horiz-adv-x="542" 
d="M491 0l-76 234h-288l-76 -234h-24l226 698h36l226 -698h-24zM321 527l-48 151h-4l-48 -151l-87 -274h274zM158 856h226v-18h-226v18z" />
    <glyph glyph-name="amacron" unicode="&#x101;" horiz-adv-x="468" 
d="M376 0q-14 0 -18.5 4.5t-4.5 18.5v55h-6q-14 -40 -50.5 -65t-94.5 -25q-69 0 -108.5 34.5t-39.5 108.5t42 108.5t116 34.5h141v85q0 77 -33.5 108.5t-97.5 31.5q-51 0 -84 -21t-51 -74l-17 8q18 52 53.5 79t98.5 27q76 0 114 -37.5t38 -118.5v-343h75v-19h-73zM202 7
q31 0 58.5 9t48 26.5t32.5 44t12 61.5v108h-141q-58 0 -96.5 -27.5t-38.5 -77.5v-39q0 -50 35.5 -77.5t89.5 -27.5zM112 676h226v-18h-226v18z" />
    <glyph glyph-name="Abreve" unicode="&#x102;" horiz-adv-x="542" 
d="M491 0l-76 234h-288l-76 -234h-24l226 698h36l226 -698h-24zM321 527l-48 151h-4l-48 -151l-87 -274h274zM271 786q-21 0 -36.5 6t-28 19.5t-22 36t-18.5 55.5l16 7l9 -27q14 -44 32 -61t48 -17t48 17t32 61l9 27l16 -7q-9 -33 -18.5 -55.5t-22 -36t-28 -19.5t-36.5 -6z
" />
    <glyph glyph-name="abreve" unicode="&#x103;" horiz-adv-x="468" 
d="M376 0q-14 0 -18.5 4.5t-4.5 18.5v55h-6q-14 -40 -50.5 -65t-94.5 -25q-69 0 -108.5 34.5t-39.5 108.5t42 108.5t116 34.5h141v85q0 77 -33.5 108.5t-97.5 31.5q-51 0 -84 -21t-51 -74l-17 8q18 52 53.5 79t98.5 27q76 0 114 -37.5t38 -118.5v-343h75v-19h-73zM202 7
q31 0 58.5 9t48 26.5t32.5 44t12 61.5v108h-141q-58 0 -96.5 -27.5t-38.5 -77.5v-39q0 -50 35.5 -77.5t89.5 -27.5zM225 606q-21 0 -36.5 6t-28 19.5t-22 36t-18.5 55.5l16 7l9 -27q14 -44 32 -61t48 -17t48 17t32 61l9 27l16 -7q-9 -33 -18.5 -55.5t-22 -36t-28 -19.5
t-36.5 -6z" />
    <glyph glyph-name="Aogonek" unicode="&#x104;" horiz-adv-x="542" 
d="M528 -170q-8 -14 -25.5 -23t-42.5 -9q-32 0 -51.5 16t-19.5 48q0 34 26 66t78 67l-78 239h-288l-76 -234h-24l226 698h36l226 -698q-57 -42 -81.5 -73t-24.5 -62q0 -26 14.5 -37.5t37.5 -11.5q21 0 34 8t20 17zM321 527l-48 151h-4l-48 -151l-87 -274h274z" />
    <glyph glyph-name="aogonek" unicode="&#x105;" horiz-adv-x="468" 
d="M462 -170q-8 -14 -25.5 -23t-42.5 -9q-32 0 -51.5 16.5t-19.5 48.5q0 35 26.5 67.5t78.5 65.5l-1 4h-51q-14 0 -18.5 4.5t-4.5 18.5v55h-6q-14 -40 -50.5 -65t-94.5 -25q-69 0 -108.5 34.5t-39.5 108.5t42 108.5t116 34.5h141v85q0 77 -33.5 108.5t-97.5 31.5
q-51 0 -84 -21t-51 -74l-17 8q18 52 53.5 79t98.5 27q76 0 114 -37.5t38 -118.5v-343h75v-19q-57 -41 -81.5 -71.5t-24.5 -62.5q0 -26 14.5 -38t37.5 -12q21 0 34 8t20 17zM202 7q31 0 58.5 9t48 26.5t32.5 44t12 61.5v108h-141q-58 0 -96.5 -27.5t-38.5 -77.5v-39
q0 -50 35.5 -77.5t89.5 -27.5z" />
    <glyph glyph-name="Cacute" unicode="&#x106;" horiz-adv-x="549" 
d="M300 -12q-54 0 -97.5 17.5t-74.5 59.5t-48 111t-17 173q0 103 17 172.5t48 111.5t74.5 59.5t97.5 17.5q80 0 125.5 -36.5t70.5 -102.5l-19 -9q-23 63 -64.5 95.5t-112.5 32.5q-99 0 -156 -72t-57 -230v-78q0 -158 57 -230t156 -72q77 0 118.5 34.5t62.5 101.5l19 -8
q-23 -70 -70 -109t-130 -39zM281 767l-15 10l99 154l19 -12z" />
    <glyph glyph-name="cacute" unicode="&#x107;" horiz-adv-x="439" 
d="M243 -12q-91 0 -140 63.5t-49 201.5t49 201.5t140 63.5q57 0 94.5 -24.5t57.5 -71.5l-18 -9q-21 45 -52 65.5t-82 20.5q-81 0 -123.5 -57t-42.5 -155v-68q0 -98 42.5 -155t123.5 -57q54 0 87.5 22t55.5 64l16 -11q-23 -43 -60 -68.5t-99 -25.5zM229 587l-15 10l99 154
l19 -12z" />
    <glyph glyph-name="Ccircumflex" unicode="&#x108;" horiz-adv-x="549" 
d="M300 -12q-54 0 -97.5 17.5t-74.5 59.5t-48 111t-17 173q0 103 17 172.5t48 111.5t74.5 59.5t97.5 17.5q80 0 125.5 -36.5t70.5 -102.5l-19 -9q-23 63 -64.5 95.5t-112.5 32.5q-99 0 -156 -72t-57 -230v-78q0 -158 57 -230t156 -72q77 0 118.5 34.5t62.5 101.5l19 -8
q-23 -70 -70 -109t-130 -39zM308 923l100 -133l-14 -11l-98 127l-98 -127l-14 11l100 133h24z" />
    <glyph glyph-name="ccircumflex" unicode="&#x109;" horiz-adv-x="439" 
d="M243 -12q-91 0 -140 63.5t-49 201.5t49 201.5t140 63.5q57 0 94.5 -24.5t57.5 -71.5l-18 -9q-21 45 -52 65.5t-82 20.5q-81 0 -123.5 -57t-42.5 -155v-68q0 -98 42.5 -155t123.5 -57q54 0 87.5 22t55.5 64l16 -11q-23 -43 -60 -68.5t-99 -25.5zM256 743l100 -133l-14 -11
l-98 127l-98 -127l-14 11l100 133h24z" />
    <glyph glyph-name="Cdotaccent" unicode="&#x10a;" horiz-adv-x="549" 
d="M300 -12q-54 0 -97.5 17.5t-74.5 59.5t-48 111t-17 173q0 103 17 172.5t48 111.5t74.5 59.5t97.5 17.5q80 0 125.5 -36.5t70.5 -102.5l-19 -9q-23 63 -64.5 95.5t-112.5 32.5q-99 0 -156 -72t-57 -230v-78q0 -158 57 -230t156 -72q77 0 118.5 34.5t62.5 101.5l19 -8
q-23 -70 -70 -109t-130 -39zM296 822q-13 0 -18 6.5t-5 14.5v7q0 8 5 14.5t18 6.5t18 -6.5t5 -14.5v-7q0 -8 -5 -14.5t-18 -6.5z" />
    <glyph glyph-name="cdotaccent" unicode="&#x10b;" horiz-adv-x="439" 
d="M243 -12q-91 0 -140 63.5t-49 201.5t49 201.5t140 63.5q57 0 94.5 -24.5t57.5 -71.5l-18 -9q-21 45 -52 65.5t-82 20.5q-81 0 -123.5 -57t-42.5 -155v-68q0 -98 42.5 -155t123.5 -57q54 0 87.5 22t55.5 64l16 -11q-23 -43 -60 -68.5t-99 -25.5zM244 642q-13 0 -18 6.5
t-5 14.5v7q0 8 5 14.5t18 6.5t18 -6.5t5 -14.5v-7q0 -8 -5 -14.5t-18 -6.5z" />
    <glyph glyph-name="Ccaron" unicode="&#x10c;" horiz-adv-x="549" 
d="M300 -12q-54 0 -97.5 17.5t-74.5 59.5t-48 111t-17 173q0 103 17 172.5t48 111.5t74.5 59.5t97.5 17.5q80 0 125.5 -36.5t70.5 -102.5l-19 -9q-23 63 -64.5 95.5t-112.5 32.5q-99 0 -156 -72t-57 -230v-78q0 -158 57 -230t156 -72q77 0 118.5 34.5t62.5 101.5l19 -8
q-23 -70 -70 -109t-130 -39zM284 783l-100 133l14 11l98 -127l98 127l14 -11l-100 -133h-24z" />
    <glyph glyph-name="ccaron" unicode="&#x10d;" horiz-adv-x="439" 
d="M243 -12q-91 0 -140 63.5t-49 201.5t49 201.5t140 63.5q57 0 94.5 -24.5t57.5 -71.5l-18 -9q-21 45 -52 65.5t-82 20.5q-81 0 -123.5 -57t-42.5 -155v-68q0 -98 42.5 -155t123.5 -57q54 0 87.5 22t55.5 64l16 -11q-23 -43 -60 -68.5t-99 -25.5zM232 603l-100 133l14 11
l98 -127l98 127l14 -11l-100 -133h-24z" />
    <glyph glyph-name="Dcaron" unicode="&#x10e;" horiz-adv-x="594" 
d="M97 698h193q121 0 181 -84t60 -265t-60 -265t-181 -84h-193v698zM291 20q56 0 96.5 20.5t67 58.5t39.5 91.5t13 119.5v78q0 66 -13 119.5t-39.5 91.5t-67 58.5t-96.5 20.5h-172v-658h172zM258 783l-100 133l14 11l98 -127l98 127l14 -11l-100 -133h-24z" />
    <glyph glyph-name="dcaron" unicode="&#x10f;" horiz-adv-x="509" 
d="M394 78h-6q-14 -40 -51 -65t-93 -25q-91 0 -140.5 63.5t-49.5 201.5t49.5 201.5t140.5 63.5q56 0 93 -24t51 -64h6v310h21v-740h-21v78zM244 7q32 0 59.5 9.5t47.5 27.5t31.5 44t11.5 59v212q0 33 -11.5 59t-31.5 44t-47.5 27.5t-59.5 9.5q-81 0 -124 -56t-43 -156v-68
q0 -100 43 -156t124 -56zM510 564h-17l16 176h25z" />
    <glyph glyph-name="Dcroat" unicode="&#x110;" horiz-adv-x="594" 
d="M97 355h-72v18h72v325h193q121 0 181 -84t60 -265t-60 -265t-181 -84h-193v355zM291 20q56 0 96.5 20.5t67 58.5t39.5 91.5t13 119.5v78q0 66 -13 119.5t-39.5 91.5t-67 58.5t-96.5 20.5h-172v-305h156v-18h-156v-335h172z" />
    <glyph glyph-name="dcroat" unicode="&#x111;" horiz-adv-x="512" 
d="M394 78h-6q-14 -40 -51 -65t-93 -25q-91 0 -140.5 63.5t-49.5 201.5t49.5 201.5t140.5 63.5q56 0 93 -24t51 -64h6v199h-150v18h150v93h21v-93h65v-18h-65v-629h-21v78zM244 7q32 0 59.5 9.5t47.5 27.5t31.5 44t11.5 59v212q0 33 -11.5 59t-31.5 44t-47.5 27.5t-59.5 9.5
q-81 0 -124 -56t-43 -156v-68q0 -100 43 -156t124 -56z" />
    <glyph glyph-name="Emacron" unicode="&#x112;" horiz-adv-x="506" 
d="M97 0v698h344v-20h-322v-314h311v-20h-311v-324h322v-20h-344zM157 856h226v-18h-226v18z" />
    <glyph glyph-name="emacron" unicode="&#x113;" horiz-adv-x="480" 
d="M244 -12q-91 0 -140.5 63.5t-49.5 201.5t49.5 201.5t140.5 63.5t137 -63.5t46 -188.5v-10h-350v-37q0 -100 43 -156t124 -56q66 0 103 30.5t57 91.5l17 -7q-20 -67 -61.5 -100.5t-115.5 -33.5zM244 499q-81 0 -124 -56t-43 -156v-13h327v13q0 100 -39.5 156t-120.5 56z
M130 676h226v-18h-226v18z" />
    <glyph glyph-name="Ebreve" unicode="&#x114;" horiz-adv-x="506" 
d="M97 0v698h344v-20h-322v-314h311v-20h-311v-324h322v-20h-344zM270 786q-21 0 -36.5 6t-28 19.5t-22 36t-18.5 55.5l16 7l9 -27q14 -44 32 -61t48 -17t48 17t32 61l9 27l16 -7q-9 -33 -18.5 -55.5t-22 -36t-28 -19.5t-36.5 -6z" />
    <glyph glyph-name="ebreve" unicode="&#x115;" horiz-adv-x="480" 
d="M244 -12q-91 0 -140.5 63.5t-49.5 201.5t49.5 201.5t140.5 63.5t137 -63.5t46 -188.5v-10h-350v-37q0 -100 43 -156t124 -56q66 0 103 30.5t57 91.5l17 -7q-20 -67 -61.5 -100.5t-115.5 -33.5zM244 499q-81 0 -124 -56t-43 -156v-13h327v13q0 100 -39.5 156t-120.5 56z
M243 606q-21 0 -36.5 6t-28 19.5t-22 36t-18.5 55.5l16 7l9 -27q14 -44 32 -61t48 -17t48 17t32 61l9 27l16 -7q-9 -33 -18.5 -55.5t-22 -36t-28 -19.5t-36.5 -6z" />
    <glyph glyph-name="Edotaccent" unicode="&#x116;" horiz-adv-x="506" 
d="M97 0v698h344v-20h-322v-314h311v-20h-311v-324h322v-20h-344zM270 822q-13 0 -18 6.5t-5 14.5v7q0 8 5 14.5t18 6.5t18 -6.5t5 -14.5v-7q0 -8 -5 -14.5t-18 -6.5z" />
    <glyph glyph-name="edotaccent" unicode="&#x117;" horiz-adv-x="480" 
d="M244 -12q-91 0 -140.5 63.5t-49.5 201.5t49.5 201.5t140.5 63.5t137 -63.5t46 -188.5v-10h-350v-37q0 -100 43 -156t124 -56q66 0 103 30.5t57 91.5l17 -7q-20 -67 -61.5 -100.5t-115.5 -33.5zM244 499q-81 0 -124 -56t-43 -156v-13h327v13q0 100 -39.5 156t-120.5 56z
M243 642q-13 0 -18 6.5t-5 14.5v7q0 8 5 14.5t18 6.5t18 -6.5t5 -14.5v-7q0 -8 -5 -14.5t-18 -6.5z" />
    <glyph glyph-name="Eogonek" unicode="&#x118;" horiz-adv-x="506" 
d="M97 698h344v-20h-322v-314h311v-20h-311v-324h322v-20q-57 -42 -81.5 -72t-24.5 -62q0 -26 14.5 -38t37.5 -12q21 0 34 8t20 17l13 -11q-8 -14 -25.5 -23t-42.5 -9q-32 0 -51.5 16.5t-19.5 48.5q0 34 25.5 66t79.5 67v4h-323v698z" />
    <glyph glyph-name="eogonek" unicode="&#x119;" horiz-adv-x="480" 
d="M283 -202q-32 0 -51.5 16t-19.5 45q0 35 24 65.5t81 71.5l-1 3q-31 -11 -72 -11q-91 0 -140.5 63.5t-49.5 201.5t49.5 201.5t140.5 63.5t137 -63.5t46 -188.5v-10h-350v-37q0 -100 43 -156t124 -56q66 0 103 30.5t57 91.5l17 -7q-19 -66 -61 -100q-38 -31 -62.5 -54
t-39 -41.5t-20.5 -33.5t-6 -30q0 -24 14.5 -35.5t37.5 -11.5q21 0 34 8t20 17l13 -11q-8 -14 -25.5 -23t-42.5 -9zM404 274v13q0 100 -39.5 156t-120.5 56t-124 -56t-43 -156v-13h327z" />
    <glyph glyph-name="Ecaron" unicode="&#x11a;" horiz-adv-x="506" 
d="M97 0v698h344v-20h-322v-314h311v-20h-311v-324h322v-20h-344zM258 783l-100 133l14 11l98 -127l98 127l14 -11l-100 -133h-24z" />
    <glyph glyph-name="ecaron" unicode="&#x11b;" horiz-adv-x="480" 
d="M244 -12q-91 0 -140.5 63.5t-49.5 201.5t49.5 201.5t140.5 63.5t137 -63.5t46 -188.5v-10h-350v-37q0 -100 43 -156t124 -56q66 0 103 30.5t57 91.5l17 -7q-20 -67 -61.5 -100.5t-115.5 -33.5zM244 499q-81 0 -124 -56t-43 -156v-13h327v13q0 100 -39.5 156t-120.5 56z
M231 603l-100 133l14 11l98 -127l98 127l14 -11l-100 -133h-24z" />
    <glyph glyph-name="Gcircumflex" unicode="&#x11c;" horiz-adv-x="600" 
d="M507 114h-6q-19 -60 -66 -93t-128 -33q-56 0 -101 17.5t-76.5 59.5t-49 111t-17.5 173q0 103 17.5 172.5t49 111.5t76.5 59.5t101 17.5q85 0 135.5 -36.5t75.5 -102.5l-19 -9q-24 61 -70.5 94.5t-121.5 33.5q-103 0 -161.5 -72t-58.5 -230v-78q0 -158 58.5 -230
t161.5 -72q99 0 149.5 55.5t50.5 153.5v95h-158v20h180v-332h-22v114zM319 923l100 -133l-14 -11l-98 127l-98 -127l-14 11l100 133h24z" />
    <glyph glyph-name="gcircumflex" unicode="&#x11d;" horiz-adv-x="474" 
d="M452 -64q0 -80 -53 -114t-163 -34q-52 0 -88 9t-59 25.5t-33.5 41t-10.5 56.5q0 51 23 77t65 38v6q-23 6 -35 24.5t-12 44.5q0 32 22.5 54.5t53.5 24.5v6q-39 17 -60.5 55.5t-21.5 98.5q0 85 42 127t115 42q38 0 68 -12h146v-19h-122v-4q29 -8 47 -43t18 -91
q0 -85 -42 -127t-115 -42q-28 0 -52 6q-39 -11 -59 -28.5t-20 -46.5t17.5 -43.5t60.5 -14.5h122q78 0 112 -30t34 -87zM237 199q66 0 100 35.5t34 91.5v46q0 56 -34 91.5t-100 35.5t-100 -35.5t-34 -91.5v-46q0 -56 34 -91.5t100 -35.5zM430 -64q0 49 -27 73t-99 24h-143
q-21 -6 -38 -14.5t-30 -22t-20 -32t-7 -45.5q0 -54 38 -83t108 -29h49q82 0 125.5 31t43.5 98zM251 743l100 -133l-14 -11l-98 127l-98 -127l-14 11l100 133h24z" />
    <glyph glyph-name="Gbreve" unicode="&#x11e;" horiz-adv-x="600" 
d="M507 114h-6q-19 -60 -66 -93t-128 -33q-56 0 -101 17.5t-76.5 59.5t-49 111t-17.5 173q0 103 17.5 172.5t49 111.5t76.5 59.5t101 17.5q85 0 135.5 -36.5t75.5 -102.5l-19 -9q-24 61 -70.5 94.5t-121.5 33.5q-103 0 -161.5 -72t-58.5 -230v-78q0 -158 58.5 -230
t161.5 -72q99 0 149.5 55.5t50.5 153.5v95h-158v20h180v-332h-22v114zM307 786q-21 0 -36.5 6t-28 19.5t-22 36t-18.5 55.5l16 7l9 -27q14 -44 32 -61t48 -17t48 17t32 61l9 27l16 -7q-9 -33 -18.5 -55.5t-22 -36t-28 -19.5t-36.5 -6z" />
    <glyph glyph-name="gbreve" unicode="&#x11f;" horiz-adv-x="474" 
d="M452 -64q0 -80 -53 -114t-163 -34q-52 0 -88 9t-59 25.5t-33.5 41t-10.5 56.5q0 51 23 77t65 38v6q-23 6 -35 24.5t-12 44.5q0 32 22.5 54.5t53.5 24.5v6q-39 17 -60.5 55.5t-21.5 98.5q0 85 42 127t115 42q38 0 68 -12h146v-19h-122v-4q29 -8 47 -43t18 -91
q0 -85 -42 -127t-115 -42q-28 0 -52 6q-39 -11 -59 -28.5t-20 -46.5t17.5 -43.5t60.5 -14.5h122q78 0 112 -30t34 -87zM237 199q66 0 100 35.5t34 91.5v46q0 56 -34 91.5t-100 35.5t-100 -35.5t-34 -91.5v-46q0 -56 34 -91.5t100 -35.5zM430 -64q0 49 -27 73t-99 24h-143
q-21 -6 -38 -14.5t-30 -22t-20 -32t-7 -45.5q0 -54 38 -83t108 -29h49q82 0 125.5 31t43.5 98zM239 606q-21 0 -36.5 6t-28 19.5t-22 36t-18.5 55.5l16 7l9 -27q14 -44 32 -61t48 -17t48 17t32 61l9 27l16 -7q-9 -33 -18.5 -55.5t-22 -36t-28 -19.5t-36.5 -6z" />
    <glyph glyph-name="Gdotaccent" unicode="&#x120;" horiz-adv-x="600" 
d="M507 114h-6q-19 -60 -66 -93t-128 -33q-56 0 -101 17.5t-76.5 59.5t-49 111t-17.5 173q0 103 17.5 172.5t49 111.5t76.5 59.5t101 17.5q85 0 135.5 -36.5t75.5 -102.5l-19 -9q-24 61 -70.5 94.5t-121.5 33.5q-103 0 -161.5 -72t-58.5 -230v-78q0 -158 58.5 -230
t161.5 -72q99 0 149.5 55.5t50.5 153.5v95h-158v20h180v-332h-22v114zM307 822q-13 0 -18 6.5t-5 14.5v7q0 8 5 14.5t18 6.5t18 -6.5t5 -14.5v-7q0 -8 -5 -14.5t-18 -6.5z" />
    <glyph glyph-name="gdotaccent" unicode="&#x121;" horiz-adv-x="474" 
d="M452 -64q0 -80 -53 -114t-163 -34q-52 0 -88 9t-59 25.5t-33.5 41t-10.5 56.5q0 51 23 77t65 38v6q-23 6 -35 24.5t-12 44.5q0 32 22.5 54.5t53.5 24.5v6q-39 17 -60.5 55.5t-21.5 98.5q0 85 42 127t115 42q38 0 68 -12h146v-19h-122v-4q29 -8 47 -43t18 -91
q0 -85 -42 -127t-115 -42q-28 0 -52 6q-39 -11 -59 -28.5t-20 -46.5t17.5 -43.5t60.5 -14.5h122q78 0 112 -30t34 -87zM237 199q66 0 100 35.5t34 91.5v46q0 56 -34 91.5t-100 35.5t-100 -35.5t-34 -91.5v-46q0 -56 34 -91.5t100 -35.5zM430 -64q0 49 -27 73t-99 24h-143
q-21 -6 -38 -14.5t-30 -22t-20 -32t-7 -45.5q0 -54 38 -83t108 -29h49q82 0 125.5 31t43.5 98zM239 642q-13 0 -18 6.5t-5 14.5v7q0 8 5 14.5t18 6.5t18 -6.5t5 -14.5v-7q0 -8 -5 -14.5t-18 -6.5z" />
    <glyph glyph-name="Gcommaaccent" unicode="&#x122;" horiz-adv-x="600" 
d="M507 114h-6q-19 -60 -66 -93t-128 -33q-56 0 -101 17.5t-76.5 59.5t-49 111t-17.5 173q0 103 17.5 172.5t49 111.5t76.5 59.5t101 17.5q85 0 135.5 -36.5t75.5 -102.5l-19 -9q-24 61 -70.5 94.5t-121.5 33.5q-103 0 -161.5 -72t-58.5 -230v-78q0 -158 58.5 -230
t161.5 -72q99 0 149.5 55.5t50.5 153.5v95h-158v20h180v-332h-22v114zM307 -66q22 0 22 -22v-11q0 -26 -12.5 -58.5t-32.5 -54.5h-18q22 24 32.5 51.5t12.5 44.5q-17 0 -22.5 6t-5.5 14v8q0 10 5 16t19 6z" />
    <glyph glyph-name="gcommaaccent" unicode="&#x123;" horiz-adv-x="474" 
d="M452 -64q0 -80 -53 -114t-163 -34q-52 0 -88 9t-59 25.5t-33.5 41t-10.5 56.5q0 51 23 77t65 38v6q-23 6 -35 24.5t-12 44.5q0 32 22.5 54.5t53.5 24.5v6q-39 17 -60.5 55.5t-21.5 98.5q0 85 42 127t115 42q38 0 68 -12h146v-19h-122v-4q29 -8 47 -43t18 -91
q0 -85 -42 -127t-115 -42q-28 0 -52 6q-39 -11 -59 -28.5t-20 -46.5t17.5 -43.5t60.5 -14.5h122q78 0 112 -30t34 -87zM237 199q66 0 100 35.5t34 91.5v46q0 56 -34 91.5t-100 35.5t-100 -35.5t-34 -91.5v-46q0 -56 34 -91.5t100 -35.5zM430 -64q0 49 -27 73t-99 24h-143
q-21 -6 -38 -14.5t-30 -22t-20 -32t-7 -45.5q0 -54 38 -83t108 -29h49q82 0 125.5 31t43.5 98zM238 599q-22 0 -22 22v11q0 26 12.5 58.5t32.5 54.5h18q-22 -24 -32.5 -51.5t-12.5 -44.5q17 0 22.5 -6t5.5 -14v-8q0 -10 -5 -16t-19 -6z" />
    <glyph glyph-name="Hcircumflex" unicode="&#x124;" horiz-adv-x="624" 
d="M505 344h-386v-344h-22v698h22v-334h386v334h22v-698h-22v344zM324 923l100 -133l-14 -11l-98 127l-98 -127l-14 11l100 133h24z" />
    <glyph glyph-name="hcircumflex" unicode="&#x125;" horiz-adv-x="501" 
d="M94 740h21v-310h6q13 38 52 63t95 25q72 0 110 -43.5t38 -122.5v-352h-21v352q0 69 -33 108t-95 39q-30 0 -57.5 -9.5t-48.5 -27.5t-33.5 -44t-12.5 -59v-359h-21v740zM117 901l100 -133l-14 -11l-98 127l-98 -127l-14 11l100 133h24z" />
    <glyph glyph-name="Hbar" unicode="&#x126;" horiz-adv-x="624" 
d="M507 344h-386v-344h-22v537h-72v18h72v143h22v-143h386v143h22v-143h74v-18h-74v-537h-22v344zM507 364v173h-386v-173h386z" />
    <glyph glyph-name="hbar" unicode="&#x127;" horiz-adv-x="503" 
d="M94 0v629h-65v18h65v93h21v-93h150v-18h-150v-199h6q13 38 52 63t95 25q72 0 110 -43.5t38 -122.5v-352h-21v352q0 69 -33 108t-95 39q-30 0 -57.5 -9.5t-48.5 -27.5t-33.5 -44t-12.5 -59v-359h-21z" />
    <glyph glyph-name="Itilde" unicode="&#x128;" horiz-adv-x="336" 
d="M61 0v19h96v660h-96v19h214v-19h-96v-660h96v-19h-214zM232 808q-16 0 -31 6.5t-38 23.5q-20 14 -33.5 20t-26.5 6q-17 0 -30.5 -8t-27.5 -25l-12 13q17 20 33.5 29t36.5 9q16 0 31 -6.5t38 -23.5q20 -14 33.5 -20t26.5 -6q17 0 30.5 8t27.5 25l12 -13q-17 -20 -33.5 -29
t-36.5 -9z" />
    <glyph glyph-name="itilde" unicode="&#x129;" horiz-adv-x="209" 
d="M94 0v506h21v-506h-21zM169 628q-16 0 -31 6.5t-38 23.5q-20 14 -33.5 20t-26.5 6q-17 0 -30.5 -8t-27.5 -25l-12 13q17 20 33.5 29t36.5 9q16 0 31 -6.5t38 -23.5q20 -14 33.5 -20t26.5 -6q17 0 30.5 8t27.5 25l12 -13q-17 -20 -33.5 -29t-36.5 -9z" />
    <glyph glyph-name="Imacron" unicode="&#x12a;" horiz-adv-x="336" 
d="M61 0v19h96v660h-96v19h214v-19h-96v-660h96v-19h-214zM55 856h226v-18h-226v18z" />
    <glyph glyph-name="imacron" unicode="&#x12b;" horiz-adv-x="209" 
d="M94 0v506h21v-506h-21zM-8 676h226v-18h-226v18z" />
    <glyph glyph-name="Ibreve" unicode="&#x12c;" horiz-adv-x="336" 
d="M61 0v19h96v660h-96v19h214v-19h-96v-660h96v-19h-214zM168 786q-21 0 -36.5 6t-28 19.5t-22 36t-18.5 55.5l16 7l9 -27q14 -44 32 -61t48 -17t48 17t32 61l9 27l16 -7q-9 -33 -18.5 -55.5t-22 -36t-28 -19.5t-36.5 -6z" />
    <glyph glyph-name="ibreve" unicode="&#x12d;" horiz-adv-x="209" 
d="M94 0v506h21v-506h-21zM105 606q-21 0 -36.5 6t-28 19.5t-22 36t-18.5 55.5l16 7l9 -27q14 -44 32 -61t48 -17t48 17t32 61l9 27l16 -7q-9 -33 -18.5 -55.5t-22 -36t-28 -19.5t-36.5 -6z" />
    <glyph glyph-name="Iogonek" unicode="&#x12e;" horiz-adv-x="336" 
d="M61 19h96v660h-96v19h214v-19h-96v-660h96v-19q-57 -42 -81.5 -73t-24.5 -64q0 -24 14.5 -35.5t37.5 -11.5q21 0 34 8t20 17l13 -11q-8 -14 -25.5 -23t-42.5 -9q-32 0 -51.5 16t-19.5 46q0 36 26 68.5t79 67.5v4h-193v19z" />
    <glyph glyph-name="iogonek" unicode="&#x12f;" horiz-adv-x="209" 
d="M105 673q-12 0 -17 6t-5 14v9q0 8 5 14t17 6t16.5 -6t4.5 -14v-9q0 -8 -4.5 -14t-16.5 -6zM-11 -139q0 38 26.5 69t78.5 66v510h21v-506q-57 -43 -81.5 -73t-24.5 -63q0 -25 14.5 -36.5t37.5 -11.5q21 0 34 8t20 17l13 -11q-8 -14 -25.5 -23t-42.5 -9q-32 0 -51.5 16
t-19.5 47z" />
    <glyph glyph-name="Idotaccent" unicode="&#x130;" horiz-adv-x="336" 
d="M61 0v19h96v660h-96v19h214v-19h-96v-660h96v-19h-214zM168 822q-13 0 -18 6.5t-5 14.5v7q0 8 5 14.5t18 6.5t18 -6.5t5 -14.5v-7q0 -8 -5 -14.5t-18 -6.5z" />
    <glyph glyph-name="dotlessi" unicode="&#x131;" horiz-adv-x="209" 
d="M94 0v506h21v-506h-21z" />
    <glyph glyph-name="IJ" unicode="&#x132;" horiz-adv-x="568" 
d="M479 698v-511q0 -99 -52.5 -149t-145.5 -50q-82 0 -130 38t-65 106l19 6q17 -63 60 -96.5t116 -33.5q88 0 132 46.5t44 132.5v491h-176v20h198zM90 698h22v-408h-22v408z" />
    <glyph glyph-name="ij" unicode="&#x133;" horiz-adv-x="418" 
d="M105 673q-12 0 -17 6t-5 14v9q0 8 5 14t17 6t16.5 -6t4.5 -14v-9q0 -8 -4.5 -14t-16.5 -6zM94 506h21v-506h-21v506zM303 506h21v-679q0 -15 -6 -21t-21 -6h-71v19h77v687zM314 673q-12 0 -17 6t-5 14v9q0 8 5 14t17 6t16.5 -6t4.5 -14v-9q0 -8 -4.5 -14t-16.5 -6z" />
    <glyph glyph-name="Jcircumflex" unicode="&#x134;" horiz-adv-x="419" 
d="M330 698v-533q0 -88 -41.5 -132.5t-114.5 -44.5q-65 0 -102 32.5t-51 89.5l19 6q14 -51 46 -79.5t88 -28.5q67 0 100.5 41t33.5 116v513h-222v20h244zM223 923l100 -133l-14 -11l-98 127l-98 -127l-14 11l100 133h24z" />
    <glyph glyph-name="jcircumflex" unicode="&#x135;" horiz-adv-x="209" 
d="M17 -181h77v687h21v-679q0 -15 -6 -21t-21 -6h-71v19zM117 743l100 -133l-14 -11l-98 127l-98 -127l-14 11l100 133h24z" />
    <glyph glyph-name="Kcommaaccent" unicode="&#x136;" horiz-adv-x="517" 
d="M238 388l-119 -151v-237h-22v698h22v-425h4l130 164l216 261h26l-243 -294l247 -404h-26zM284 -66q22 0 22 -22v-11q0 -26 -12.5 -58.5t-32.5 -54.5h-18q22 24 32.5 51.5t12.5 44.5q-17 0 -22.5 6t-5.5 14v8q0 10 5 16t19 6z" />
    <glyph glyph-name="kcommaaccent" unicode="&#x137;" horiz-adv-x="442" 
d="M94 740h21v-518h4l70 77l186 207h26l-192 -215l216 -291h-26l-205 277l-79 -87v-190h-21v740zM245 -66q22 0 22 -22v-11q0 -26 -12.5 -58.5t-32.5 -54.5h-18q22 24 32.5 51.5t12.5 44.5q-17 0 -22.5 6t-5.5 14v8q0 10 5 16t19 6z" />
    <glyph glyph-name="kgreenlandic" unicode="&#x138;" horiz-adv-x="442" 
d="M194 277l-79 -87v-190h-21v506h21v-284h4l70 77l186 207h26l-192 -215l216 -291h-26z" />
    <glyph glyph-name="Lacute" unicode="&#x139;" horiz-adv-x="428" 
d="M97 0v698h22v-678h291v-20h-313zM94 767l-15 10l99 154l19 -12z" />
    <glyph glyph-name="lacute" unicode="&#x13a;" horiz-adv-x="227" 
d="M121 0q-15 0 -21 6t-6 21v713h21v-721h76v-19h-70zM90 787l-15 10l99 154l19 -12z" />
    <glyph glyph-name="Lcommaaccent" unicode="&#x13b;" horiz-adv-x="428" 
d="M97 0v698h22v-678h291v-20h-313zM264 -66q22 0 22 -22v-11q0 -26 -12.5 -58.5t-32.5 -54.5h-18q22 24 32.5 51.5t12.5 44.5q-17 0 -22.5 6t-5.5 14v8q0 10 5 16t19 6z" />
    <glyph glyph-name="lcommaaccent" unicode="&#x13c;" horiz-adv-x="227" 
d="M121 0q-15 0 -21 6t-6 21v713h21v-721h76v-19h-70zM147 -66q22 0 22 -22v-11q0 -26 -12.5 -58.5t-32.5 -54.5h-18q22 24 32.5 51.5t12.5 44.5q-17 0 -22.5 6t-5.5 14v8q0 10 5 16t19 6z" />
    <glyph glyph-name="Lcaron" unicode="&#x13d;" horiz-adv-x="428" 
d="M97 0v698h22v-678h291v-20h-313zM226 564h-17l16 176h25z" />
    <glyph glyph-name="lcaron" unicode="&#x13e;" horiz-adv-x="227" 
d="M121 0q-15 0 -21 6t-6 21v713h21v-721h76v-19h-70zM211 564h-17l16 176h25z" />
    <glyph glyph-name="Ldot" unicode="&#x13f;" horiz-adv-x="428" 
d="M97 0v698h22v-678h291v-20h-313zM324 271q-13 0 -18 6.5t-5 14.5v7q0 8 5 14.5t18 6.5t18 -6.5t5 -14.5v-7q0 -8 -5 -14.5t-18 -6.5z" />
    <glyph glyph-name="ldot" unicode="&#x140;" horiz-adv-x="242" 
d="M121 0q-15 0 -21 6t-6 21v713h21v-721h76v-19h-70zM228 240q-13 0 -18 6.5t-5 14.5v7q0 8 5 14.5t18 6.5t18 -6.5t5 -14.5v-7q0 -8 -5 -14.5t-18 -6.5z" />
    <glyph glyph-name="Lslash" unicode="&#x141;" horiz-adv-x="428" 
d="M412 0h-313v303l-84 -30v19l84 30v376h22v-369l184 65v-19l-184 -65v-290h291v-20z" />
    <glyph glyph-name="lslash" unicode="&#x142;" horiz-adv-x="232" 
d="M191 0h-70q-15 0 -21 6t-6 21v324l-65 -23v19l65 23v370h21v-362l85 30v-19l-85 -30v-340h76v-19z" />
    <glyph glyph-name="Nacute" unicode="&#x143;" horiz-adv-x="623" 
d="M215 508l-92 170h-4v-678h-22v698h38l274 -508l92 -170h4v678h22v-698h-38zM297 767l-15 10l99 154l19 -12z" />
    <glyph glyph-name="nacute" unicode="&#x144;" horiz-adv-x="501" 
d="M94 0v506h21v-76h6q13 38 52 63t95 25q72 0 110 -43.5t38 -122.5v-352h-21v352q0 69 -33 108t-95 39q-30 0 -57.5 -9.5t-48.5 -27.5t-33.5 -44t-12.5 -59v-359h-21zM242 587l-15 10l99 154l19 -12z" />
    <glyph glyph-name="Ncommaaccent" unicode="&#x145;" horiz-adv-x="623" 
d="M215 508l-92 170h-4v-678h-22v698h38l274 -508l92 -170h4v678h22v-698h-38zM313 -66q22 0 22 -22v-11q0 -26 -12.5 -58.5t-32.5 -54.5h-18q22 24 32.5 51.5t12.5 44.5q-17 0 -22.5 6t-5.5 14v8q0 10 5 16t19 6z" />
    <glyph glyph-name="ncommaaccent" unicode="&#x146;" horiz-adv-x="501" 
d="M94 0v506h21v-76h6q13 38 52 63t95 25q72 0 110 -43.5t38 -122.5v-352h-21v352q0 69 -33 108t-95 39q-30 0 -57.5 -9.5t-48.5 -27.5t-33.5 -44t-12.5 -59v-359h-21zM256 -66q22 0 22 -22v-11q0 -26 -12.5 -58.5t-32.5 -54.5h-18q22 24 32.5 51.5t12.5 44.5q-17 0 -22.5 6
t-5.5 14v8q0 10 5 16t19 6z" />
    <glyph glyph-name="Ncaron" unicode="&#x147;" horiz-adv-x="623" 
d="M215 508l-92 170h-4v-678h-22v698h38l274 -508l92 -170h4v678h22v-698h-38zM300 783l-100 133l14 11l98 -127l98 127l14 -11l-100 -133h-24z" />
    <glyph glyph-name="ncaron" unicode="&#x148;" horiz-adv-x="501" 
d="M94 0v506h21v-76h6q13 38 52 63t95 25q72 0 110 -43.5t38 -122.5v-352h-21v352q0 69 -33 108t-95 39q-30 0 -57.5 -9.5t-48.5 -27.5t-33.5 -44t-12.5 -59v-359h-21zM245 603l-100 133l14 11l98 -127l98 127l14 -11l-100 -133h-24z" />
    <glyph glyph-name="napostrophe" unicode="&#x149;" horiz-adv-x="719" 
d="M109 741q26 0 26 -24v-8q0 -48 -21 -92.5t-50 -73.5h-19q32 35 47 72.5t17 69.5q-26 0 -26 24v8q0 24 26 24zM312 0v506h21v-76h6q13 38 52 63t95 25q72 0 110 -43.5t38 -122.5v-352h-21v352q0 69 -33 108t-95 39q-30 0 -57.5 -9.5t-48.5 -27.5t-33.5 -44t-12.5 -59v-359
h-21z" />
    <glyph glyph-name="Eng" unicode="&#x14a;" horiz-adv-x="623" 
d="M97 0v698h38l274 -508l92 -170h4v678h22v-871q0 -15 -6 -21t-21 -6h-71v19h76v181h-16l-274 508l-92 170h-4v-678h-22z" />
    <glyph glyph-name="eng" unicode="&#x14b;" horiz-adv-x="501" 
d="M318 -181h77v533q0 69 -33 108t-95 39q-30 0 -57.5 -9.5t-48.5 -27.5t-33.5 -44t-12.5 -59v-359h-21v506h21v-76h6q13 38 52 63t95 25q72 0 110 -43.5t38 -122.5v-525q0 -15 -6 -21t-21 -6h-71v19z" />
    <glyph glyph-name="Omacron" unicode="&#x14c;" horiz-adv-x="614" 
d="M307 -12q-56 0 -101 17.5t-76.5 59.5t-49 111t-17.5 173q0 103 17.5 172.5t49 111.5t76.5 59.5t101 17.5q55 0 100.5 -17.5t77 -59.5t49 -111.5t17.5 -172.5q0 -104 -17.5 -173t-49 -111t-77 -59.5t-100.5 -17.5zM307 8q103 0 161.5 72t58.5 230v78q0 158 -58.5 230
t-161.5 72t-161.5 -72t-58.5 -230v-78q0 -158 58.5 -230t161.5 -72zM194 856h226v-18h-226v18z" />
    <glyph glyph-name="omacron" unicode="&#x14d;" horiz-adv-x="488" 
d="M244 -12q-91 0 -140.5 63.5t-49.5 201.5t49.5 201.5t140.5 63.5t140.5 -63.5t49.5 -201.5t-49.5 -201.5t-140.5 -63.5zM244 7q81 0 124 56t43 156v68q0 100 -43 156t-124 56t-124 -56t-43 -156v-68q0 -100 43 -156t124 -56zM132 676h226v-18h-226v18z" />
    <glyph glyph-name="Obreve" unicode="&#x14e;" horiz-adv-x="614" 
d="M307 -12q-56 0 -101 17.5t-76.5 59.5t-49 111t-17.5 173q0 103 17.5 172.5t49 111.5t76.5 59.5t101 17.5q55 0 100.5 -17.5t77 -59.5t49 -111.5t17.5 -172.5q0 -104 -17.5 -173t-49 -111t-77 -59.5t-100.5 -17.5zM307 8q103 0 161.5 72t58.5 230v78q0 158 -58.5 230
t-161.5 72t-161.5 -72t-58.5 -230v-78q0 -158 58.5 -230t161.5 -72zM307 786q-21 0 -36.5 6t-28 19.5t-22 36t-18.5 55.5l16 7l9 -27q14 -44 32 -61t48 -17t48 17t32 61l9 27l16 -7q-9 -33 -18.5 -55.5t-22 -36t-28 -19.5t-36.5 -6z" />
    <glyph glyph-name="obreve" unicode="&#x14f;" horiz-adv-x="488" 
d="M244 -12q-91 0 -140.5 63.5t-49.5 201.5t49.5 201.5t140.5 63.5t140.5 -63.5t49.5 -201.5t-49.5 -201.5t-140.5 -63.5zM244 7q81 0 124 56t43 156v68q0 100 -43 156t-124 56t-124 -56t-43 -156v-68q0 -100 43 -156t124 -56zM245 606q-21 0 -36.5 6t-28 19.5t-22 36
t-18.5 55.5l16 7l9 -27q14 -44 32 -61t48 -17t48 17t32 61l9 27l16 -7q-9 -33 -18.5 -55.5t-22 -36t-28 -19.5t-36.5 -6z" />
    <glyph glyph-name="Ohungarumlaut" unicode="&#x150;" horiz-adv-x="614" 
d="M307 -12q-56 0 -101 17.5t-76.5 59.5t-49 111t-17.5 173q0 103 17.5 172.5t49 111.5t76.5 59.5t101 17.5q55 0 100.5 -17.5t77 -59.5t49 -111.5t17.5 -172.5q0 -104 -17.5 -173t-49 -111t-77 -59.5t-100.5 -17.5zM307 8q103 0 161.5 72t58.5 230v78q0 158 -58.5 230
t-161.5 72t-161.5 -72t-58.5 -230v-78q0 -158 58.5 -230t161.5 -72zM236 767l-15 10l99 154l19 -12zM380 767l-15 10l99 154l19 -12z" />
    <glyph glyph-name="ohungarumlaut" unicode="&#x151;" horiz-adv-x="488" 
d="M244 -12q-91 0 -140.5 63.5t-49.5 201.5t49.5 201.5t140.5 63.5t140.5 -63.5t49.5 -201.5t-49.5 -201.5t-140.5 -63.5zM244 7q81 0 124 56t43 156v68q0 100 -43 156t-124 56t-124 -56t-43 -156v-68q0 -100 43 -156t124 -56zM174 587l-15 10l99 154l19 -12zM318 587
l-15 10l99 154l19 -12z" />
    <glyph glyph-name="OE" unicode="&#x152;" horiz-adv-x="872" 
d="M463 0q-22 -5 -56 -8.5t-72 -3.5q-62 0 -112 17.5t-85.5 59.5t-55 111t-19.5 173q0 103 19.5 172.5t55 111.5t85.5 59.5t112 17.5q38 0 72 -3.5t56 -8.5h344v-20h-322v-314h311v-20h-311v-324h322v-20h-344zM87 310q0 -158 66 -230t182 -72q41 0 74 4.5t54 9.5v654
q-21 5 -54.5 9.5t-73.5 4.5q-116 0 -182 -72t-66 -230v-78z" />
    <glyph glyph-name="oe" unicode="&#x153;" horiz-adv-x="836" 
d="M244 7q81 0 124 56t43 156v68q0 100 -43 156t-124 56t-124 -56t-43 -156v-68q0 -100 43 -156t124 -56zM761 275v12q0 100 -39.5 156t-120.5 56t-124 -56t-43 -156v-12h327zM601 -12q-69 0 -113.5 37t-62.5 116h-6q-18 -79 -62 -116t-113 -37q-91 0 -140.5 63.5
t-49.5 201.5t49.5 201.5t140.5 63.5q69 0 113 -37t62 -116h6q18 79 62.5 116t113.5 37q91 0 137 -63.5t46 -188.5v-10h-350v-37q0 -100 43 -156t124 -56q66 0 103 30.5t57 91.5l17 -7q-20 -67 -61.5 -100.5t-115.5 -33.5z" />
    <glyph glyph-name="Racute" unicode="&#x154;" horiz-adv-x="567" 
d="M119 0h-22v698h236q84 0 123.5 -48t39.5 -140t-39.5 -140t-120.5 -48l173 -322h-24l-171 322h-195v-322zM335 342q68 0 102.5 36.5t34.5 102.5v58q0 66 -34.5 102.5t-102.5 36.5h-216v-336h216zM259 767l-15 10l99 154l19 -12z" />
    <glyph glyph-name="racute" unicode="&#x155;" horiz-adv-x="308" 
d="M94 0v506h21v-88h6q15 41 49.5 64.5t86.5 23.5h39v-19h-39q-29 0 -54.5 -10t-45 -28.5t-31 -44t-11.5 -56.5v-348h-21zM185 587l-15 10l99 154l19 -12z" />
    <glyph glyph-name="Rcommaaccent" unicode="&#x156;" horiz-adv-x="567" 
d="M119 0h-22v698h236q84 0 123.5 -48t39.5 -140t-39.5 -140t-120.5 -48l173 -322h-24l-171 322h-195v-322zM335 342q68 0 102.5 36.5t34.5 102.5v58q0 66 -34.5 102.5t-102.5 36.5h-216v-336h216zM276 -66q22 0 22 -22v-11q0 -26 -12.5 -58.5t-32.5 -54.5h-18
q22 24 32.5 51.5t12.5 44.5q-17 0 -22.5 6t-5.5 14v8q0 10 5 16t19 6z" />
    <glyph glyph-name="rcommaaccent" unicode="&#x157;" horiz-adv-x="308" 
d="M94 0v506h21v-88h6q15 41 49.5 64.5t86.5 23.5h39v-19h-39q-29 0 -54.5 -10t-45 -28.5t-31 -44t-11.5 -56.5v-348h-21zM106 -66q22 0 22 -22v-11q0 -26 -12.5 -58.5t-32.5 -54.5h-18q22 24 32.5 51.5t12.5 44.5q-17 0 -22.5 6t-5.5 14v8q0 10 5 16t19 6z" />
    <glyph glyph-name="Rcaron" unicode="&#x158;" horiz-adv-x="567" 
d="M119 0h-22v698h236q84 0 123.5 -48t39.5 -140t-39.5 -140t-120.5 -48l173 -322h-24l-171 322h-195v-322zM335 342q68 0 102.5 36.5t34.5 102.5v58q0 66 -34.5 102.5t-102.5 36.5h-216v-336h216zM262 783l-100 133l14 11l98 -127l98 127l14 -11l-100 -133h-24z" />
    <glyph glyph-name="rcaron" unicode="&#x159;" horiz-adv-x="308" 
d="M94 0v506h21v-88h6q15 41 49.5 64.5t86.5 23.5h39v-19h-39q-29 0 -54.5 -10t-45 -28.5t-31 -44t-11.5 -56.5v-348h-21zM188 603l-100 133l14 11l98 -127l98 127l14 -11l-100 -133h-24z" />
    <glyph glyph-name="Sacute" unicode="&#x15a;" horiz-adv-x="494" 
d="M247 -12q-39 0 -70.5 8.5t-56.5 23.5t-45 36t-37 46l18 13q17 -24 35.5 -44t41 -34t50.5 -21.5t64 -7.5q85 0 129 40.5t44 125.5q0 70 -35.5 109.5t-109.5 56.5l-63 15q-42 10 -72 24t-49.5 35t-28.5 50.5t-9 68.5q0 92 52.5 134.5t141.5 42.5q73 0 115 -25.5t69 -68.5
l-18 -13q-14 22 -30 38.5t-35.5 27t-44 16t-56.5 5.5q-80 0 -126 -37.5t-46 -119.5q0 -35 8 -60.5t25.5 -44t44.5 -31t65 -21.5l63 -15q85 -20 123 -63t38 -122q0 -99 -50.5 -143.5t-144.5 -44.5zM228 767l-15 10l99 154l19 -12z" />
    <glyph glyph-name="sacute" unicode="&#x15b;" horiz-adv-x="417" 
d="M208 -12q-54 0 -93 20.5t-71 70.5l17 12q31 -47 64.5 -65.5t82.5 -18.5q64 0 99 29t35 89q0 57 -27 83.5t-85 36.5l-41 7q-64 11 -97.5 41.5t-33.5 95.5q0 64 41 96.5t107 32.5q59 0 92.5 -20.5t56.5 -50.5l-16 -14q-11 14 -23 26t-27.5 21t-35.5 14t-46 5q-57 0 -92 -27
t-35 -82t26.5 -81.5t86.5 -36.5l41 -7q63 -11 96.5 -42t33.5 -97q0 -69 -42 -103.5t-114 -34.5zM187 587l-15 10l99 154l19 -12z" />
    <glyph glyph-name="Scircumflex" unicode="&#x15c;" horiz-adv-x="494" 
d="M247 -12q-39 0 -70.5 8.5t-56.5 23.5t-45 36t-37 46l18 13q17 -24 35.5 -44t41 -34t50.5 -21.5t64 -7.5q85 0 129 40.5t44 125.5q0 70 -35.5 109.5t-109.5 56.5l-63 15q-42 10 -72 24t-49.5 35t-28.5 50.5t-9 68.5q0 92 52.5 134.5t141.5 42.5q73 0 115 -25.5t69 -68.5
l-18 -13q-14 22 -30 38.5t-35.5 27t-44 16t-56.5 5.5q-80 0 -126 -37.5t-46 -119.5q0 -35 8 -60.5t25.5 -44t44.5 -31t65 -21.5l63 -15q85 -20 123 -63t38 -122q0 -99 -50.5 -143.5t-144.5 -44.5zM255 923l100 -133l-14 -11l-98 127l-98 -127l-14 11l100 133h24z" />
    <glyph glyph-name="scircumflex" unicode="&#x15d;" horiz-adv-x="417" 
d="M208 -12q-54 0 -93 20.5t-71 70.5l17 12q31 -47 64.5 -65.5t82.5 -18.5q64 0 99 29t35 89q0 57 -27 83.5t-85 36.5l-41 7q-64 11 -97.5 41.5t-33.5 95.5q0 64 41 96.5t107 32.5q59 0 92.5 -20.5t56.5 -50.5l-16 -14q-11 14 -23 26t-27.5 21t-35.5 14t-46 5q-57 0 -92 -27
t-35 -82t26.5 -81.5t86.5 -36.5l41 -7q63 -11 96.5 -42t33.5 -97q0 -69 -42 -103.5t-114 -34.5zM214 743l100 -133l-14 -11l-98 127l-98 -127l-14 11l100 133h24z" />
    <glyph glyph-name="Scedilla" unicode="&#x15e;" horiz-adv-x="494" 
d="M247 690q-80 0 -126 -37.5t-46 -119.5q0 -35 8 -60.5t25.5 -44t44.5 -31t65 -21.5l63 -15q85 -20 123 -63t38 -122q0 -99 -50 -143.5t-139 -44.5l-14 -66h4q10 6 24 6q28 0 46 -15.5t18 -47.5q0 -29 -19 -48t-56 -19q-26 0 -45.5 9.5t-27.5 22.5l12 12q20 -26 61 -26
q26 0 40.5 13t14.5 36t-14.5 36t-40.5 13h-37l17 74q-37 1 -66 10t-53 24t-43.5 35.5t-35.5 44.5l18 13q17 -24 35.5 -44t41 -34t50.5 -21.5t64 -7.5q85 0 129 40.5t44 125.5q0 70 -35.5 109.5t-109.5 56.5l-63 15q-42 10 -72 24t-49.5 35t-28.5 50.5t-9 68.5
q0 92 52.5 134.5t141.5 42.5q73 0 115 -25.5t69 -68.5l-18 -13q-14 22 -30 38.5t-35.5 27t-44 16t-56.5 5.5z" />
    <glyph glyph-name="scedilla" unicode="&#x15f;" horiz-adv-x="417" 
d="M222 -202q-26 0 -45.5 9.5t-27.5 22.5l12 12q20 -26 61 -26q26 0 40.5 13t14.5 36t-14.5 36t-40.5 13h-37l17 74q-52 1 -89.5 22t-68.5 69l17 12q31 -47 64.5 -65.5t82.5 -18.5q64 0 99 29t35 89q0 57 -27 83.5t-85 36.5l-41 7q-64 11 -97.5 41.5t-33.5 95.5
q0 64 41 96.5t107 32.5q59 0 92.5 -20.5t56.5 -50.5l-16 -14q-11 14 -23 26t-27.5 21t-35.5 14t-46 5q-57 0 -92 -27t-35 -82t26.5 -81.5t86.5 -36.5l41 -7q63 -11 96.5 -42t33.5 -97t-39 -100.5t-106 -37.5l-14 -66h4q10 6 24 6q28 0 46 -15.5t18 -47.5q0 -29 -19 -48
t-56 -19z" />
    <glyph glyph-name="Scaron" unicode="&#x160;" horiz-adv-x="494" 
d="M247 -12q-39 0 -70.5 8.5t-56.5 23.5t-45 36t-37 46l18 13q17 -24 35.5 -44t41 -34t50.5 -21.5t64 -7.5q85 0 129 40.5t44 125.5q0 70 -35.5 109.5t-109.5 56.5l-63 15q-42 10 -72 24t-49.5 35t-28.5 50.5t-9 68.5q0 92 52.5 134.5t141.5 42.5q73 0 115 -25.5t69 -68.5
l-18 -13q-14 22 -30 38.5t-35.5 27t-44 16t-56.5 5.5q-80 0 -126 -37.5t-46 -119.5q0 -35 8 -60.5t25.5 -44t44.5 -31t65 -21.5l63 -15q85 -20 123 -63t38 -122q0 -99 -50.5 -143.5t-144.5 -44.5zM231 783l-100 133l14 11l98 -127l98 127l14 -11l-100 -133h-24z" />
    <glyph glyph-name="scaron" unicode="&#x161;" horiz-adv-x="417" 
d="M208 -12q-54 0 -93 20.5t-71 70.5l17 12q31 -47 64.5 -65.5t82.5 -18.5q64 0 99 29t35 89q0 57 -27 83.5t-85 36.5l-41 7q-64 11 -97.5 41.5t-33.5 95.5q0 64 41 96.5t107 32.5q59 0 92.5 -20.5t56.5 -50.5l-16 -14q-11 14 -23 26t-27.5 21t-35.5 14t-46 5q-57 0 -92 -27
t-35 -82t26.5 -81.5t86.5 -36.5l41 -7q63 -11 96.5 -42t33.5 -97q0 -69 -42 -103.5t-114 -34.5zM190 603l-100 133l14 11l98 -127l98 127l14 -11l-100 -133h-24z" />
    <glyph glyph-name="Tcommaaccent" unicode="&#x162;" horiz-adv-x="504" 
d="M263 678v-678h-22v678h-226v20h474v-20h-226zM253 -66q22 0 22 -22v-11q0 -26 -12.5 -58.5t-32.5 -54.5h-18q22 24 32.5 51.5t12.5 44.5q-17 0 -22.5 6t-5.5 14v8q0 10 5 16t19 6z" />
    <glyph glyph-name="tcommaaccent" unicode="&#x163;" horiz-adv-x="280" 
d="M139 0q-15 0 -21 6t-6 21v460h-85v19h64q13 0 17 5.5t4 18.5v120h21v-144h105v-19h-105v-468h100v-19h-94zM173 -66q22 0 22 -22v-11q0 -26 -12.5 -58.5t-32.5 -54.5h-18q22 24 32.5 51.5t12.5 44.5q-17 0 -22.5 6t-5.5 14v8q0 10 5 16t19 6z" />
    <glyph glyph-name="Tcaron" unicode="&#x164;" horiz-adv-x="504" 
d="M263 678v-678h-22v678h-226v20h474v-20h-226zM241 783l-100 133l14 11l98 -127l98 127l14 -11l-100 -133h-24z" />
    <glyph glyph-name="tcaron" unicode="&#x165;" horiz-adv-x="280" 
d="M139 0q-15 0 -21 6t-6 21v460h-85v19h64q13 0 17 5.5t4 18.5v120h21v-144h105v-19h-105v-468h100v-19h-94zM229 564h-17l16 176h25z" />
    <glyph glyph-name="Tbar" unicode="&#x166;" horiz-adv-x="504" 
d="M263 365v-365h-22v365h-166v18h166v295h-226v20h474v-20h-226v-295h166v-18h-166z" />
    <glyph glyph-name="tbar" unicode="&#x167;" horiz-adv-x="286" 
d="M233 0h-94q-15 0 -21 6t-6 21v253h-60v19h60v188h-85v19h64q13 0 17 5.5t4 18.5v120h21v-144h105v-19h-105v-188h90v-19h-90v-261h100v-19z" />
    <glyph glyph-name="Utilde" unicode="&#x168;" horiz-adv-x="588" 
d="M112 698v-450q0 -66 9 -111.5t30 -74t56 -41.5t87 -13t87 13t56 41.5t30 74t9 111.5v450h22v-448q0 -72 -10.5 -122t-34.5 -81t-63 -45t-96 -14t-96 14t-63 45t-34.5 81t-10.5 122v448h22zM357 808q-16 0 -31 6.5t-38 23.5q-20 14 -33.5 20t-26.5 6q-17 0 -30.5 -8
t-27.5 -25l-12 13q17 20 33.5 29t36.5 9q16 0 31 -6.5t38 -23.5q20 -14 33.5 -20t26.5 -6q17 0 30.5 8t27.5 25l12 -13q-17 -20 -33.5 -29t-36.5 -9z" />
    <glyph glyph-name="utilde" unicode="&#x169;" horiz-adv-x="501" 
d="M395 76h-6q-13 -38 -52 -63t-95 -25q-72 0 -110 42.5t-38 123.5v352h21v-352q0 -69 33 -108t95 -39q30 0 57.5 9.5t48.5 27.5t33.5 44t12.5 59v359h21v-506h-21v76zM311 628q-16 0 -31 6.5t-38 23.5q-20 14 -33.5 20t-26.5 6q-17 0 -30.5 -8t-27.5 -25l-12 13
q17 20 33.5 29t36.5 9q16 0 31 -6.5t38 -23.5q20 -14 33.5 -20t26.5 -6q17 0 30.5 8t27.5 25l12 -13q-17 -20 -33.5 -29t-36.5 -9z" />
    <glyph glyph-name="Umacron" unicode="&#x16a;" horiz-adv-x="588" 
d="M112 698v-450q0 -66 9 -111.5t30 -74t56 -41.5t87 -13t87 13t56 41.5t30 74t9 111.5v450h22v-448q0 -72 -10.5 -122t-34.5 -81t-63 -45t-96 -14t-96 14t-63 45t-34.5 81t-10.5 122v448h22zM180 856h226v-18h-226v18z" />
    <glyph glyph-name="umacron" unicode="&#x16b;" horiz-adv-x="501" 
d="M395 76h-6q-13 -38 -52 -63t-95 -25q-72 0 -110 42.5t-38 123.5v352h21v-352q0 -69 33 -108t95 -39q30 0 57.5 9.5t48.5 27.5t33.5 44t12.5 59v359h21v-506h-21v76zM134 676h226v-18h-226v18z" />
    <glyph glyph-name="Ubreve" unicode="&#x16c;" horiz-adv-x="588" 
d="M112 698v-450q0 -66 9 -111.5t30 -74t56 -41.5t87 -13t87 13t56 41.5t30 74t9 111.5v450h22v-448q0 -72 -10.5 -122t-34.5 -81t-63 -45t-96 -14t-96 14t-63 45t-34.5 81t-10.5 122v448h22zM293 786q-21 0 -36.5 6t-28 19.5t-22 36t-18.5 55.5l16 7l9 -27q14 -44 32 -61
t48 -17t48 17t32 61l9 27l16 -7q-9 -33 -18.5 -55.5t-22 -36t-28 -19.5t-36.5 -6z" />
    <glyph glyph-name="ubreve" unicode="&#x16d;" horiz-adv-x="501" 
d="M395 76h-6q-13 -38 -52 -63t-95 -25q-72 0 -110 42.5t-38 123.5v352h21v-352q0 -69 33 -108t95 -39q30 0 57.5 9.5t48.5 27.5t33.5 44t12.5 59v359h21v-506h-21v76zM247 606q-21 0 -36.5 6t-28 19.5t-22 36t-18.5 55.5l16 7l9 -27q14 -44 32 -61t48 -17t48 17t32 61l9 27
l16 -7q-9 -33 -18.5 -55.5t-22 -36t-28 -19.5t-36.5 -6z" />
    <glyph glyph-name="Uring" unicode="&#x16e;" horiz-adv-x="588" 
d="M112 698v-450q0 -66 9 -111.5t30 -74t56 -41.5t87 -13t87 13t56 41.5t30 74t9 111.5v450h22v-448q0 -72 -10.5 -122t-34.5 -81t-63 -45t-96 -14t-96 14t-63 45t-34.5 81t-10.5 122v448h22zM293 769q-39 0 -62.5 25t-23.5 66t23.5 66t62.5 25t62.5 -25t23.5 -66t-23.5 -66
t-62.5 -25zM293 787q31 0 48.5 18.5t17.5 49.5v10q0 31 -17.5 49.5t-48.5 18.5t-48.5 -18.5t-17.5 -49.5v-10q0 -31 17.5 -49.5t48.5 -18.5z" />
    <glyph glyph-name="uring" unicode="&#x16f;" horiz-adv-x="501" 
d="M395 76h-6q-13 -38 -52 -63t-95 -25q-72 0 -110 42.5t-38 123.5v352h21v-352q0 -69 33 -108t95 -39q30 0 57.5 9.5t48.5 27.5t33.5 44t12.5 59v359h21v-506h-21v76zM247 589q-39 0 -62.5 25t-23.5 66t23.5 66t62.5 25t62.5 -25t23.5 -66t-23.5 -66t-62.5 -25zM247 607
q31 0 48.5 18.5t17.5 49.5v10q0 31 -17.5 49.5t-48.5 18.5t-48.5 -18.5t-17.5 -49.5v-10q0 -31 17.5 -49.5t48.5 -18.5z" />
    <glyph glyph-name="Uhungarumlaut" unicode="&#x170;" horiz-adv-x="588" 
d="M112 698v-450q0 -66 9 -111.5t30 -74t56 -41.5t87 -13t87 13t56 41.5t30 74t9 111.5v450h22v-448q0 -72 -10.5 -122t-34.5 -81t-63 -45t-96 -14t-96 14t-63 45t-34.5 81t-10.5 122v448h22zM222 767l-15 10l99 154l19 -12zM366 767l-15 10l99 154l19 -12z" />
    <glyph glyph-name="uhungarumlaut" unicode="&#x171;" horiz-adv-x="501" 
d="M395 76h-6q-13 -38 -52 -63t-95 -25q-72 0 -110 42.5t-38 123.5v352h21v-352q0 -69 33 -108t95 -39q30 0 57.5 9.5t48.5 27.5t33.5 44t12.5 59v359h21v-506h-21v76zM176 587l-15 10l99 154l19 -12zM320 587l-15 10l99 154l19 -12z" />
    <glyph glyph-name="Uogonek" unicode="&#x172;" horiz-adv-x="588" 
d="M112 698v-450q0 -66 9 -111.5t30 -74t56 -41.5t87 -13t87 13t56 41.5t30 74t9 111.5v450h22v-448q0 -94 -18 -149.5t-61 -84.5q-75 -50 -103 -86t-28 -68q0 -23 14.5 -34.5t37.5 -11.5q21 0 34 8t20 17l13 -11q-8 -14 -25.5 -23t-42.5 -9q-32 0 -51.5 16t-19.5 47
q0 35 24.5 65.5t82.5 68.5v3q-34 -10 -81 -10q-57 0 -96 14t-63 45t-34.5 81t-10.5 122v448h22z" />
    <glyph glyph-name="uogonek" unicode="&#x173;" horiz-adv-x="501" 
d="M290 -139q0 33 26.5 66.5t78.5 68.5v80h-6q-13 -38 -52 -63t-95 -25q-72 0 -110 42.5t-38 123.5v352h21v-352q0 -69 33 -108t95 -39q30 0 57.5 9.5t48.5 27.5t33.5 44t12.5 59v359h21v-506q-57 -43 -81.5 -73.5t-24.5 -62.5q0 -25 14.5 -36.5t37.5 -11.5q21 0 34 8t20 17
l13 -11q-8 -14 -25.5 -23t-42.5 -9q-32 0 -51.5 16t-19.5 47z" />
    <glyph glyph-name="Wcircumflex" unicode="&#x174;" horiz-adv-x="785" 
d="M190 0l-163 698h24l105 -461l50 -217h4l53 217l111 461h36l113 -461l53 -217h4l50 217l105 461h24l-163 -698h-36l-113 461l-53 217h-4l-52 -217l-112 -461h-36zM402 923l100 -133l-14 -11l-98 127l-98 -127l-14 11l100 133h24z" />
    <glyph glyph-name="wcircumflex" unicode="&#x175;" horiz-adv-x="654" 
d="M31 506h22l85 -322l43 -164h4l42 164l82 322h36l83 -322l42 -164h4l43 164l85 322h22l-134 -506h-36l-83 322l-42 164h-4l-42 -164l-82 -322h-36zM339 743l100 -133l-14 -11l-98 127l-98 -127l-14 11l100 133h24z" />
    <glyph glyph-name="Ycircumflex" unicode="&#x176;" horiz-adv-x="493" 
d="M235 0v294l-216 404h24l200 -374h6l200 374h24l-216 -404v-294h-22zM259 923l100 -133l-14 -11l-98 127l-98 -127l-14 11l100 133h24z" />
    <glyph glyph-name="ycircumflex" unicode="&#x177;" horiz-adv-x="408" 
d="M364 506h22l-224 -687q-4 -11 -9.5 -15t-16.5 -4h-84v19h89l52 162l-171 525h22l105 -322l53 -165h4l53 165zM219 743l100 -133l-14 -11l-98 127l-98 -127l-14 11l100 133h24z" />
    <glyph glyph-name="Ydieresis" unicode="&#x178;" horiz-adv-x="493" 
d="M235 0v294l-216 404h24l200 -374h6l200 374h24l-216 -404v-294h-22zM172 819q-13 0 -18 6.5t-5 14.5v7q0 8 5 14.5t18 6.5t18 -6.5t5 -14.5v-7q0 -8 -5 -14.5t-18 -6.5zM322 819q-13 0 -18 6.5t-5 14.5v7q0 8 5 14.5t18 6.5t18 -6.5t5 -14.5v-7q0 -8 -5 -14.5t-18 -6.5z
" />
    <glyph glyph-name="Zacute" unicode="&#x179;" horiz-adv-x="500" 
d="M475 0h-440v22l396 656h-376v20h400v-22l-396 -656h416v-20zM240 767l-15 10l99 154l19 -12z" />
    <glyph glyph-name="zacute" unicode="&#x17a;" horiz-adv-x="377" 
d="M25 0v21l303 466h-295v19h317v-21l-302 -466h310v-19h-333zM175 587l-15 10l99 154l19 -12z" />
    <glyph glyph-name="Zdotaccent" unicode="&#x17b;" horiz-adv-x="500" 
d="M475 0h-440v22l396 656h-376v20h400v-22l-396 -656h416v-20zM255 822q-13 0 -18 6.5t-5 14.5v7q0 8 5 14.5t18 6.5t18 -6.5t5 -14.5v-7q0 -8 -5 -14.5t-18 -6.5z" />
    <glyph glyph-name="zdotaccent" unicode="&#x17c;" horiz-adv-x="377" 
d="M25 0v21l303 466h-295v19h317v-21l-302 -466h310v-19h-333zM190 642q-13 0 -18 6.5t-5 14.5v7q0 8 5 14.5t18 6.5t18 -6.5t5 -14.5v-7q0 -8 -5 -14.5t-18 -6.5z" />
    <glyph glyph-name="Zcaron" unicode="&#x17d;" horiz-adv-x="500" 
d="M475 0h-440v22l396 656h-376v20h400v-22l-396 -656h416v-20zM243 783l-100 133l14 11l98 -127l98 127l14 -11l-100 -133h-24z" />
    <glyph glyph-name="zcaron" unicode="&#x17e;" horiz-adv-x="377" 
d="M25 0v21l303 466h-295v19h317v-21l-302 -466h310v-19h-333zM178 603l-100 133l14 11l98 -127l98 127l14 -11l-100 -133h-24z" />
    <glyph glyph-name="uni018F" unicode="&#x18f;" horiz-adv-x="614" 
d="M307 -12q-56 0 -101 17.5t-76.5 59.5t-49 111t-17.5 173v2h464v37q0 158 -58.5 230t-161.5 72q-78 0 -131 -41t-75 -130l-20 5q13 52 34.5 87.5t50 57.5t64.5 31.5t77 9.5q55 0 100.5 -17.5t77 -59.5t49 -111.5t17.5 -172.5q0 -104 -17.5 -173t-49 -111t-77 -59.5
t-100.5 -17.5zM87 310q0 -158 58.5 -230t161.5 -72t161.5 72t58.5 230v21h-440v-21z" />
    <glyph glyph-name="florin" unicode="&#x192;" horiz-adv-x="439" 
d="M-1 -115h159l38 426h-155l2 19h155l31 348q1 10 6 15t19 5h163l-2 -19h-165l-31 -349h187l-2 -19h-187l-38 -425q-1 -10 -6 -15t-19 -5h-157z" />
    <glyph glyph-name="Ohorn" unicode="&#x1a0;" horiz-adv-x="614" 
d="M549 809v-105q0 -15 -4.5 -19.5t-19.5 -4.5h-107v-4q30 -10 54.5 -33t42 -62t27 -96t9.5 -136q0 -104 -17.5 -173t-49 -111t-77 -59.5t-100.5 -17.5q-56 0 -101 17.5t-76.5 59.5t-49 111t-17.5 173q0 103 17.5 172.5t49 111.5t76.5 59.5t101 17.5q23 0 44 -2.5t41 -9.5
h137v111h20zM307 8q103 0 161.5 72t58.5 230v78q0 158 -58.5 230t-161.5 72t-161.5 -72t-58.5 -230v-78q0 -158 58.5 -230t161.5 -72z" />
    <glyph glyph-name="ohorn" unicode="&#x1a1;" horiz-adv-x="487" 
d="M426 617v-105q0 -15 -4.5 -19.5t-19.5 -4.5h-65v-4q48 -15 72.5 -74.5t24.5 -156.5q0 -138 -49.5 -201.5t-140.5 -63.5t-140.5 63.5t-49.5 201.5t49.5 201.5t140.5 63.5q39 0 71 -12h91v111h20zM244 7q81 0 124 56t43 156v68q0 100 -43 156t-124 56t-124 -56t-43 -156
v-68q0 -100 43 -156t124 -56z" />
    <glyph glyph-name="Uhorn" unicode="&#x1af;" horiz-adv-x="588" 
d="M498 250q0 -72 -10.5 -122t-34.5 -81t-63 -45t-96 -14t-96 14t-63 45t-34.5 81t-10.5 122v448h22v-450q0 -66 9 -111.5t30 -74t56 -41.5t87 -13t87 13t56 41.5t30 74t9 111.5v450h72v111h20v-105q0 -15 -4.5 -19.5t-19.5 -4.5h-46v-430v0z" />
    <glyph glyph-name="uhorn" unicode="&#x1b0;" horiz-adv-x="501" 
d="M389 76q-13 -38 -52 -63t-95 -25q-72 0 -110 42.5t-38 123.5v352h21v-352q0 -69 33 -108t95 -39q30 0 57.5 9.5t48.5 27.5t33.5 44t12.5 59v359h72v111h20v-105q0 -15 -4.5 -19.5t-19.5 -4.5h-47v-488h-21v76h-6v0z" />
    <glyph glyph-name="Aringacute" unicode="&#x1fa;" horiz-adv-x="542" 
d="M491 0l-76 234h-288l-76 -234h-24l226 698h36l226 -698h-24zM321 527l-48 151h-4l-48 -151l-87 -274h274zM271 979l-14 10l79 102l18 -14zM271 769q-39 0 -62.5 25t-23.5 66t23.5 66t62.5 25t62.5 -25t23.5 -66t-23.5 -66t-62.5 -25zM271 787q31 0 48.5 18.5t17.5 49.5
v10q0 31 -17.5 49.5t-48.5 18.5t-48.5 -18.5t-17.5 -49.5v-10q0 -31 17.5 -49.5t48.5 -18.5z" />
    <glyph glyph-name="aringacute" unicode="&#x1fb;" horiz-adv-x="468" 
d="M376 0q-14 0 -18.5 4.5t-4.5 18.5v55h-6q-14 -40 -50.5 -65t-94.5 -25q-69 0 -108.5 34.5t-39.5 108.5t42 108.5t116 34.5h141v85q0 77 -33.5 108.5t-97.5 31.5q-51 0 -84 -21t-51 -74l-17 8q18 52 53.5 79t98.5 27q76 0 114 -37.5t38 -118.5v-343h75v-19h-73zM202 7
q31 0 58.5 9t48 26.5t32.5 44t12 61.5v108h-141q-58 0 -96.5 -27.5t-38.5 -77.5v-39q0 -50 35.5 -77.5t89.5 -27.5zM225 799l-14 10l79 102l18 -14zM225 589q-39 0 -62.5 25t-23.5 66t23.5 66t62.5 25t62.5 -25t23.5 -66t-23.5 -66t-62.5 -25zM225 607q31 0 48.5 18.5
t17.5 49.5v10q0 31 -17.5 49.5t-48.5 18.5t-48.5 -18.5t-17.5 -49.5v-10q0 -31 17.5 -49.5t48.5 -18.5z" />
    <glyph glyph-name="AEacute" unicode="&#x1fc;" horiz-adv-x="777" 
d="M368 234h-227l-115 -234h-24l344 698h366v-20h-322v-314h311v-20h-311v-324h322v-20h-344v234zM360 678l-209 -425h217v425h-8zM526 767l-15 10l99 154l19 -12z" />
    <glyph glyph-name="aeacute" unicode="&#x1fd;" horiz-adv-x="784" 
d="M212 256q-58 0 -96.5 -27.5t-38.5 -77.5v-39q0 -50 35.5 -77.5t89.5 -27.5q71 0 114 56t43 156v37h-147zM708 274v13q0 100 -39.5 156t-120.5 56t-124 -56t-43 -156v-13h327zM548 7q66 0 103 30.5t57 91.5l17 -7q-20 -67 -61.5 -100.5t-115.5 -33.5q-69 0 -113 37
t-62 116h-6q-18 -79 -61.5 -116t-103.5 -37q-69 0 -108.5 34.5t-39.5 108.5t42 108.5t116 34.5h147v13q0 48 -9 87t-27 66.5t-44.5 43t-61.5 15.5q-49 0 -80.5 -21t-49.5 -74l-17 8q18 52 51 79t94 27q122 0 152 -153h6q18 79 65.5 116t109.5 37q91 0 137 -63.5t46 -188.5
v-10h-350v-37q0 -100 43 -156t124 -56zM377 587l-15 10l99 154l19 -12z" />
    <glyph glyph-name="Oslashacute" unicode="&#x1fe;" horiz-adv-x="613" 
d="M307 -12q-53 0 -96 15.5t-75 53.5l-56 -89l-17 11l60 95q-29 43 -44.5 109.5t-15.5 165.5q0 103 17.5 172.5t49 111.5t76.5 59.5t101 17.5q53 0 96 -15.5t75 -53.5l56 89l17 -11l-60 -95q29 -43 44.5 -109.5t15.5 -165.5q0 -104 -17.5 -173t-49 -111t-77 -59.5
t-100.5 -17.5zM137 97l173 275l156 250q-29 35 -69 51.5t-90 16.5q-103 0 -161.5 -72t-58.5 -230v-78q0 -67 11.5 -121t35.5 -92h3zM148 76q29 -35 69 -51.5t90 -16.5q103 0 161.5 72t58.5 230v78q0 67 -11.5 121t-35.5 92h-3l-167 -267zM292 767l-15 10l99 154l19 -12z" />
    <glyph glyph-name="oslashacute" unicode="&#x1ff;" horiz-adv-x="488" 
d="M244 -12q-90 0 -137 59l-57 -78l-14 10l60 83q-20 33 -31 80t-11 111q0 138 49.5 201.5t140.5 63.5q90 0 137 -60l57 79l14 -10l-60 -83q20 -33 31 -80t11 -111q0 -138 -49.5 -201.5t-140.5 -63.5zM111 83l135 188l123 170q-45 58 -125 58q-81 0 -124 -56t-43 -156v-68
q0 -84 30 -136h4zM120 65q43 -58 124 -58t124 56t43 156v68q0 83 -30 136h-4l-131 -182zM230 587l-15 10l99 154l19 -12z" />
    <glyph glyph-name="Scommaaccent" unicode="&#x218;" horiz-adv-x="494" 
d="M247 -12q-39 0 -70.5 8.5t-56.5 23.5t-45 36t-37 46l18 13q17 -24 35.5 -44t41 -34t50.5 -21.5t64 -7.5q85 0 129 40.5t44 125.5q0 70 -35.5 109.5t-109.5 56.5l-63 15q-42 10 -72 24t-49.5 35t-28.5 50.5t-9 68.5q0 92 52.5 134.5t141.5 42.5q73 0 115 -25.5t69 -68.5
l-18 -13q-14 22 -30 38.5t-35.5 27t-44 16t-56.5 5.5q-80 0 -126 -37.5t-46 -119.5q0 -35 8 -60.5t25.5 -44t44.5 -31t65 -21.5l63 -15q85 -20 123 -63t38 -122q0 -99 -50.5 -143.5t-144.5 -44.5zM248 -66q22 0 22 -22v-11q0 -26 -12.5 -58.5t-32.5 -54.5h-18
q22 24 32.5 51.5t12.5 44.5q-17 0 -22.5 6t-5.5 14v8q0 10 5 16t19 6z" />
    <glyph glyph-name="scommaaccent" unicode="&#x219;" horiz-adv-x="417" 
d="M208 -12q-54 0 -93 20.5t-71 70.5l17 12q31 -47 64.5 -65.5t82.5 -18.5q64 0 99 29t35 89q0 57 -27 83.5t-85 36.5l-41 7q-64 11 -97.5 41.5t-33.5 95.5q0 64 41 96.5t107 32.5q59 0 92.5 -20.5t56.5 -50.5l-16 -14q-11 14 -23 26t-27.5 21t-35.5 14t-46 5q-57 0 -92 -27
t-35 -82t26.5 -81.5t86.5 -36.5l41 -7q63 -11 96.5 -42t33.5 -97q0 -69 -42 -103.5t-114 -34.5zM214 -66q22 0 22 -22v-11q0 -26 -12.5 -58.5t-32.5 -54.5h-18q22 24 32.5 51.5t12.5 44.5q-17 0 -22.5 6t-5.5 14v8q0 10 5 16t19 6z" />
    <glyph glyph-name="uni021A" unicode="&#x21a;" horiz-adv-x="504" 
d="M263 678v-678h-22v678h-226v20h474v-20h-226zM253 -66q22 0 22 -22v-11q0 -26 -12.5 -58.5t-32.5 -54.5h-18q22 24 32.5 51.5t12.5 44.5q-17 0 -22.5 6t-5.5 14v8q0 10 5 16t19 6z" />
    <glyph glyph-name="uni021B" unicode="&#x21b;" horiz-adv-x="280" 
d="M139 0q-15 0 -21 6t-6 21v460h-85v19h64q13 0 17 5.5t4 18.5v120h21v-144h105v-19h-105v-468h100v-19h-94zM173 -66q22 0 22 -22v-11q0 -26 -12.5 -58.5t-32.5 -54.5h-18q22 24 32.5 51.5t12.5 44.5q-17 0 -22.5 6t-5.5 14v8q0 10 5 16t19 6z" />
    <glyph glyph-name="uni0237" unicode="&#x237;" horiz-adv-x="209" 
d="M17 -181h77v687h21v-679q0 -15 -6 -21t-21 -6h-71v19z" />
    <glyph glyph-name="uni0259" unicode="&#x259;" horiz-adv-x="480" 
d="M403 250v37q0 100 -43 156t-124 56q-66 0 -103 -30.5t-57 -91.5l-17 7q20 67 61.5 100.5t115.5 33.5q91 0 140.5 -63.5t49.5 -201.5t-49.5 -201.5t-140.5 -63.5t-137 63.5t-46 188.5v10h350zM76 219q0 -100 39.5 -156t120.5 -56t124 56t43 156v13h-327v-13z" />
    <glyph glyph-name="uni02BB" unicode="&#x2bb;" 
d="M269 599q-22 0 -22 22v11q0 26 12.5 58.5t32.5 54.5h18q-22 -24 -32.5 -51.5t-12.5 -44.5q17 0 22.5 -6t5.5 -14v-8q0 -10 -5 -16t-19 -6z" />
    <glyph glyph-name="uni02BC" unicode="&#x2bc;" 
d="M287 564h-17l16 176h25z" />
    <glyph glyph-name="circumflex" unicode="&#x2c6;" 
d="M282 743l100 -133l-14 -11l-98 127l-98 -127l-14 11l100 133h24z" />
    <glyph glyph-name="caron" unicode="&#x2c7;" 
d="M258 603l-100 133l14 11l98 -127l98 127l14 -11l-100 -133h-24z" />
    <glyph glyph-name="breve" unicode="&#x2d8;" 
d="M270 606q-21 0 -36.5 6t-28 19.5t-22 36t-18.5 55.5l16 7l9 -27q14 -44 32 -61t48 -17t48 17t32 61l9 27l16 -7q-9 -33 -18.5 -55.5t-22 -36t-28 -19.5t-36.5 -6z" />
    <glyph glyph-name="dotaccent" unicode="&#x2d9;" 
d="M270 642q-13 0 -18 6.5t-5 14.5v7q0 8 5 14.5t18 6.5t18 -6.5t5 -14.5v-7q0 -8 -5 -14.5t-18 -6.5z" />
    <glyph glyph-name="ring" unicode="&#x2da;" 
d="M270 589q-39 0 -62.5 25t-23.5 66t23.5 66t62.5 25t62.5 -25t23.5 -66t-23.5 -66t-62.5 -25zM270 607q31 0 48.5 18.5t17.5 49.5v10q0 31 -17.5 49.5t-48.5 18.5t-48.5 -18.5t-17.5 -49.5v-10q0 -31 17.5 -49.5t48.5 -18.5z" />
    <glyph glyph-name="ogonek" unicode="&#x2db;" 
d="M215 -202q-32 0 -51.5 16.5t-19.5 48.5q0 71 105 133v10l12 4l9 -10q-57 -38 -81.5 -68.5t-24.5 -65.5q0 -26 14.5 -38t37.5 -12q21 0 34 8t20 17l13 -11q-8 -14 -25.5 -23t-42.5 -9z" />
    <glyph glyph-name="tilde" unicode="&#x2dc;" 
d="M334 628q-16 0 -31 6.5t-38 23.5q-20 14 -33.5 20t-26.5 6q-17 0 -30.5 -8t-27.5 -25l-12 13q17 20 33.5 29t36.5 9q16 0 31 -6.5t38 -23.5q20 -14 33.5 -20t26.5 -6q17 0 30.5 8t27.5 25l12 -13q-17 -20 -33.5 -29t-36.5 -9z" />
    <glyph glyph-name="hungarumlaut" unicode="&#x2dd;" 
d="M199 587l-15 10l99 154l19 -12zM343 587l-15 10l99 154l19 -12z" />
    <glyph glyph-name="uni0300" unicode="&#x300;" horiz-adv-x="0" 
d="M-87 739l19 12l99 -154l-15 -10z" />
    <glyph glyph-name="uni0301" unicode="&#x301;" horiz-adv-x="0" 
d="M-14 587l-15 10l99 154l19 -12z" />
    <glyph glyph-name="uni0302" unicode="&#x302;" horiz-adv-x="0" 
d="M13 743l100 -133l-14 -11l-98 127l-98 -127l-14 11l100 133h24z" />
    <glyph glyph-name="uni0303" unicode="&#x303;" horiz-adv-x="0" 
d="M65 628q-16 0 -31 6.5t-38 23.5q-20 14 -33.5 20t-26.5 6q-17 0 -30.5 -8t-27.5 -25l-12 13q17 20 33.5 29t36.5 9q16 0 31 -6.5t38 -23.5q20 -14 33.5 -20t26.5 -6q17 0 30.5 8t27.5 25l12 -13q-17 -20 -33.5 -29t-36.5 -9z" />
    <glyph glyph-name="uni0304" unicode="&#x304;" horiz-adv-x="0" 
d="M-112 676h226v-18h-226v18z" />
    <glyph glyph-name="uni0306" unicode="&#x306;" horiz-adv-x="0" 
d="M1 606q-21 0 -36.5 6t-28 19.5t-22 36t-18.5 55.5l16 7l9 -27q14 -44 32 -61t48 -17t48 17t32 61l9 27l16 -7q-9 -33 -18.5 -55.5t-22 -36t-28 -19.5t-36.5 -6z" />
    <glyph glyph-name="uni0307" unicode="&#x307;" horiz-adv-x="0" 
d="M1 642q-13 0 -18 6.5t-5 14.5v7q0 8 5 14.5t18 6.5t18 -6.5t5 -14.5v-7q0 -8 -5 -14.5t-18 -6.5z" />
    <glyph glyph-name="uni0308" unicode="&#x308;" horiz-adv-x="0" 
d="M-74 642q-13 0 -18 6.5t-5 14.5v7q0 8 5 14.5t18 6.5t18 -6.5t5 -14.5v-7q0 -8 -5 -14.5t-18 -6.5zM76 642q-13 0 -18 6.5t-5 14.5v7q0 8 5 14.5t18 6.5t18 -6.5t5 -14.5v-7q0 -8 -5 -14.5t-18 -6.5z" />
    <glyph glyph-name="uni0309" unicode="&#x309;" horiz-adv-x="0" 
d="M-68 737h123q23 0 23 -18q0 -6 -4 -14t-18 -31l-51 -89l-15 8l69 126h-127v18z" />
    <glyph glyph-name="uni030A" unicode="&#x30a;" horiz-adv-x="0" 
d="M1 589q-39 0 -62.5 25t-23.5 66t23.5 66t62.5 25t62.5 -25t23.5 -66t-23.5 -66t-62.5 -25zM1 607q31 0 48.5 18.5t17.5 49.5v10q0 31 -17.5 49.5t-48.5 18.5t-48.5 -18.5t-17.5 -49.5v-10q0 -31 17.5 -49.5t48.5 -18.5z" />
    <glyph glyph-name="uni030B" unicode="&#x30b;" horiz-adv-x="0" 
d="M-70 587l-15 10l99 154l19 -12zM74 587l-15 10l99 154l19 -12z" />
    <glyph glyph-name="uni030C" unicode="&#x30c;" horiz-adv-x="0" 
d="M-11 603l-100 133l14 11l98 -127l98 127l14 -11l-100 -133h-24z" />
    <glyph glyph-name="uni0312" unicode="&#x312;" horiz-adv-x="0" 
d="M0 599q-22 0 -22 22v11q0 26 12.5 58.5t32.5 54.5h18q-22 -24 -32.5 -51.5t-12.5 -44.5q17 0 22.5 -6t5.5 -14v-8q0 -10 -5 -16t-19 -6z" />
    <glyph glyph-name="uni0315" unicode="&#x315;" horiz-adv-x="0" 
d="M72 564h-17l16 176h25z" />
    <glyph glyph-name="uni031B" unicode="&#x31b;" horiz-adv-x="0" 
d="M25 512q0 -15 -4.5 -19.5t-19.5 -4.5h-68v18h72v109h20v-103z" />
    <glyph glyph-name="uni0323" unicode="&#x323;" horiz-adv-x="0" 
d="M0 -134q-13 0 -18 6.5t-5 14.5v7q0 8 5 14.5t18 6.5t18 -6.5t5 -14.5v-7q0 -8 -5 -14.5t-18 -6.5z" />
    <glyph glyph-name="uni0326" unicode="&#x326;" horiz-adv-x="0" 
d="M1 -66q22 0 22 -22v-11q0 -26 -12.5 -58.5t-32.5 -54.5h-18q22 24 32.5 51.5t12.5 44.5q-17 0 -22.5 6t-5.5 14v8q0 10 5 16t19 6z" />
    <glyph glyph-name="uni0327" unicode="&#x327;" horiz-adv-x="0" 
d="M10 -202q-26 0 -45.5 9.5t-27.5 22.5l12 12q20 -26 61 -26q26 0 40.5 13t14.5 36t-14.5 36t-40.5 13h-37l20 88h17l-17 -80h4q10 6 24 6q28 0 46 -15.5t18 -47.5q0 -29 -19 -48t-56 -19z" />
    <glyph glyph-name="uni0328" unicode="&#x328;" horiz-adv-x="0" 
d="M-54 -202q-32 0 -51.5 16.5t-19.5 48.5q0 71 105 133v10l12 4l9 -10q-57 -38 -81.5 -68.5t-24.5 -65.5q0 -26 14.5 -38t37.5 -12q21 0 34 8t20 17l13 -11q-8 -14 -25.5 -23t-42.5 -9z" />
    <glyph glyph-name="pi" unicode="&#x3c0;" horiz-adv-x="503" 
d="M390 19h86v-19h-80q-15 0 -21 6t-6 21v460h-244v-487h-21v487h-86v19h458v-19h-86v-468z" />
    <glyph glyph-name="uni0E3F" unicode="&#xe3f;" horiz-adv-x="546" 
d="M277 -82h-20v102h-160v657h160v103h20v-103h40q73 0 107.5 -41.5t34.5 -119.5q0 -71 -26 -104t-69 -41v-6q28 -4 51 -14.5t39 -30t24.5 -49.5t8.5 -72q0 -88 -39.5 -133.5t-116.5 -45.5h-54v-102zM257 376v281h-138v-281h138zM277 376h39q56 0 87.5 30t31.5 84v53
q0 54 -31.5 84t-87.5 30h-39v-281zM257 40v316h-138v-316h138zM277 40h52q61 0 97.5 35t36.5 97v52q0 62 -36.5 97t-97.5 35h-52v-316z" />
    <glyph glyph-name="Wgrave" unicode="&#x1e80;" horiz-adv-x="785" 
d="M190 0l-163 698h24l105 -461l50 -217h4l53 217l111 461h36l113 -461l53 -217h4l50 217l105 461h24l-163 -698h-36l-113 461l-53 217h-4l-52 -217l-112 -461h-36zM302 919l19 12l99 -154l-15 -10z" />
    <glyph glyph-name="wgrave" unicode="&#x1e81;" horiz-adv-x="654" 
d="M31 506h22l85 -322l43 -164h4l42 164l82 322h36l83 -322l42 -164h4l43 164l85 322h22l-134 -506h-36l-83 322l-42 164h-4l-42 -164l-82 -322h-36zM239 739l19 12l99 -154l-15 -10z" />
    <glyph glyph-name="Wacute" unicode="&#x1e82;" horiz-adv-x="785" 
d="M190 0l-163 698h24l105 -461l50 -217h4l53 217l111 461h36l113 -461l53 -217h4l50 217l105 461h24l-163 -698h-36l-113 461l-53 217h-4l-52 -217l-112 -461h-36zM375 767l-15 10l99 154l19 -12z" />
    <glyph glyph-name="wacute" unicode="&#x1e83;" horiz-adv-x="654" 
d="M31 506h22l85 -322l43 -164h4l42 164l82 322h36l83 -322l42 -164h4l43 164l85 322h22l-134 -506h-36l-83 322l-42 164h-4l-42 -164l-82 -322h-36zM312 587l-15 10l99 154l19 -12z" />
    <glyph glyph-name="Wdieresis" unicode="&#x1e84;" horiz-adv-x="785" 
d="M190 0l-163 698h24l105 -461l50 -217h4l53 217l111 461h36l113 -461l53 -217h4l50 217l105 461h24l-163 -698h-36l-113 461l-53 217h-4l-52 -217l-112 -461h-36zM315 819q-13 0 -18 6.5t-5 14.5v7q0 8 5 14.5t18 6.5t18 -6.5t5 -14.5v-7q0 -8 -5 -14.5t-18 -6.5zM465 819
q-13 0 -18 6.5t-5 14.5v7q0 8 5 14.5t18 6.5t18 -6.5t5 -14.5v-7q0 -8 -5 -14.5t-18 -6.5z" />
    <glyph glyph-name="wdieresis" unicode="&#x1e85;" horiz-adv-x="654" 
d="M31 506h22l85 -322l43 -164h4l42 164l82 322h36l83 -322l42 -164h4l43 164l85 322h22l-134 -506h-36l-83 322l-42 164h-4l-42 -164l-82 -322h-36zM252 642q-13 0 -18 6.5t-5 14.5v7q0 8 5 14.5t18 6.5t18 -6.5t5 -14.5v-7q0 -8 -5 -14.5t-18 -6.5zM402 642q-13 0 -18 6.5
t-5 14.5v7q0 8 5 14.5t18 6.5t18 -6.5t5 -14.5v-7q0 -8 -5 -14.5t-18 -6.5z" />
    <glyph glyph-name="uni1E9E" unicode="&#x1e9e;" horiz-adv-x="613" 
d="M563 192q0 -103 -44.5 -153.5t-132.5 -50.5q-34 0 -60 7t-46 19t-35.5 28.5t-28.5 36.5l18 13q13 -19 26.5 -34.5t30.5 -26.5t40 -17t55 -6t60 9.5t48.5 28t32.5 47t12 66.5v62q0 75 -45 116.5t-146 41.5h-25v20l176 279h-380v-678h-22v698h425v-22l-175 -275v-4
q111 0 163.5 -48.5t52.5 -156.5z" />
    <glyph glyph-name="uni1EA0" unicode="&#x1ea0;" horiz-adv-x="542" 
d="M491 0l-76 234h-288l-76 -234h-24l226 698h36l226 -698h-24zM321 527l-48 151h-4l-48 -151l-87 -274h274zM271 -134q-13 0 -18 6.5t-5 14.5v7q0 8 5 14.5t18 6.5t18 -6.5t5 -14.5v-7q0 -8 -5 -14.5t-18 -6.5z" />
    <glyph glyph-name="uni1EA1" unicode="&#x1ea1;" horiz-adv-x="468" 
d="M376 0q-14 0 -18.5 4.5t-4.5 18.5v55h-6q-14 -40 -50.5 -65t-94.5 -25q-69 0 -108.5 34.5t-39.5 108.5t42 108.5t116 34.5h141v85q0 77 -33.5 108.5t-97.5 31.5q-51 0 -84 -21t-51 -74l-17 8q18 52 53.5 79t98.5 27q76 0 114 -37.5t38 -118.5v-343h75v-19h-73zM202 7
q31 0 58.5 9t48 26.5t32.5 44t12 61.5v108h-141q-58 0 -96.5 -27.5t-38.5 -77.5v-39q0 -50 35.5 -77.5t89.5 -27.5zM202 -134q-13 0 -18 6.5t-5 14.5v7q0 8 5 14.5t18 6.5t18 -6.5t5 -14.5v-7q0 -8 -5 -14.5t-18 -6.5z" />
    <glyph glyph-name="uni1EA2" unicode="&#x1ea2;" horiz-adv-x="542" 
d="M491 0l-76 234h-288l-76 -234h-24l226 698h36l226 -698h-24zM321 527l-48 151h-4l-48 -151l-87 -274h274zM203 917h123q23 0 23 -18q0 -6 -4 -14t-18 -31l-51 -89l-15 8l69 126h-127v18z" />
    <glyph glyph-name="uni1EA3" unicode="&#x1ea3;" horiz-adv-x="468" 
d="M376 0q-14 0 -18.5 4.5t-4.5 18.5v55h-6q-14 -40 -50.5 -65t-94.5 -25q-69 0 -108.5 34.5t-39.5 108.5t42 108.5t116 34.5h141v85q0 77 -33.5 108.5t-97.5 31.5q-51 0 -84 -21t-51 -74l-17 8q18 52 53.5 79t98.5 27q76 0 114 -37.5t38 -118.5v-343h75v-19h-73zM202 7
q31 0 58.5 9t48 26.5t32.5 44t12 61.5v108h-141q-58 0 -96.5 -27.5t-38.5 -77.5v-39q0 -50 35.5 -77.5t89.5 -27.5zM156 737h123q23 0 23 -18q0 -6 -4 -14t-18 -31l-51 -89l-15 8l69 126h-127v18z" />
    <glyph glyph-name="uni1EA4" unicode="&#x1ea4;" horiz-adv-x="542" 
d="M491 0l-76 234h-288l-76 -234h-24l226 698h36l226 -698h-24zM321 527l-48 151h-4l-48 -151l-87 -274h274zM375 877l-15 10l99 154l19 -12zM283 915l115 -133l-14 -11l-113 127l-113 -127l-14 11l115 133h24z" />
    <glyph glyph-name="uni1EA5" unicode="&#x1ea5;" horiz-adv-x="468" 
d="M376 0q-14 0 -18.5 4.5t-4.5 18.5v55h-6q-14 -40 -50.5 -65t-94.5 -25q-69 0 -108.5 34.5t-39.5 108.5t42 108.5t116 34.5h141v85q0 77 -33.5 108.5t-97.5 31.5q-51 0 -84 -21t-51 -74l-17 8q18 52 53.5 79t98.5 27q76 0 114 -37.5t38 -118.5v-343h75v-19h-73zM202 7
q31 0 58.5 9t48 26.5t32.5 44t12 61.5v108h-141q-58 0 -96.5 -27.5t-38.5 -77.5v-39q0 -50 35.5 -77.5t89.5 -27.5zM328 697l-15 10l99 154l19 -12zM236 735l115 -133l-14 -11l-113 127l-113 -127l-14 11l115 133h24z" />
    <glyph glyph-name="uni1EA6" unicode="&#x1ea6;" horiz-adv-x="542" 
d="M491 0l-76 234h-288l-76 -234h-24l226 698h36l226 -698h-24zM321 527l-48 151h-4l-48 -151l-87 -274h274zM64 1029l19 12l99 -154l-15 -10zM283 915l115 -133l-14 -11l-113 127l-113 -127l-14 11l115 133h24z" />
    <glyph glyph-name="uni1EA7" unicode="&#x1ea7;" horiz-adv-x="468" 
d="M376 0q-14 0 -18.5 4.5t-4.5 18.5v55h-6q-14 -40 -50.5 -65t-94.5 -25q-69 0 -108.5 34.5t-39.5 108.5t42 108.5t116 34.5h141v85q0 77 -33.5 108.5t-97.5 31.5q-51 0 -84 -21t-51 -74l-17 8q18 52 53.5 79t98.5 27q76 0 114 -37.5t38 -118.5v-343h75v-19h-73zM202 7
q31 0 58.5 9t48 26.5t32.5 44t12 61.5v108h-141q-58 0 -96.5 -27.5t-38.5 -77.5v-39q0 -50 35.5 -77.5t89.5 -27.5zM17 849l19 12l99 -154l-15 -10zM236 735l115 -133l-14 -11l-113 127l-113 -127l-14 11l115 133h24z" />
    <glyph glyph-name="uni1EA8" unicode="&#x1ea8;" horiz-adv-x="542" 
d="M491 0l-76 234h-288l-76 -234h-24l226 698h36l226 -698h-24zM321 527l-48 151h-4l-48 -151l-87 -274h274zM306 1027h123q23 0 23 -18q0 -6 -4 -14t-18 -31l-51 -89l-15 8l69 126h-127v18zM283 915l115 -133l-14 -11l-113 127l-113 -127l-14 11l115 133h24z" />
    <glyph glyph-name="uni1EA9" unicode="&#x1ea9;" horiz-adv-x="468" 
d="M376 0q-14 0 -18.5 4.5t-4.5 18.5v55h-6q-14 -40 -50.5 -65t-94.5 -25q-69 0 -108.5 34.5t-39.5 108.5t42 108.5t116 34.5h141v85q0 77 -33.5 108.5t-97.5 31.5q-51 0 -84 -21t-51 -74l-17 8q18 52 53.5 79t98.5 27q76 0 114 -37.5t38 -118.5v-343h75v-19h-73zM202 7
q31 0 58.5 9t48 26.5t32.5 44t12 61.5v108h-141q-58 0 -96.5 -27.5t-38.5 -77.5v-39q0 -50 35.5 -77.5t89.5 -27.5zM259 847h123q23 0 23 -18q0 -6 -4 -14t-18 -31l-51 -89l-15 8l69 126h-127v18zM236 735l115 -133l-14 -11l-113 127l-113 -127l-14 11l115 133h24z" />
    <glyph glyph-name="uni1EAA" unicode="&#x1eaa;" horiz-adv-x="542" 
d="M491 0l-76 234h-288l-76 -234h-24l226 698h36l226 -698h-24zM321 527l-48 151h-4l-48 -151l-87 -274h274zM207 1027q16 0 31 -6.5t38 -23.5q20 -14 33.5 -20t26.5 -6q17 0 30.5 8t27.5 25l12 -12q-32 -39 -71 -39q-16 0 -31 6.5t-38 23.5q-20 14 -33.5 20t-26.5 6
q-17 0 -30.5 -8t-27.5 -25l-12 12q32 39 71 39zM283 915l115 -133l-14 -11l-113 127l-113 -127l-14 11l115 133h24z" />
    <glyph glyph-name="uni1EAB" unicode="&#x1eab;" horiz-adv-x="468" 
d="M376 0q-14 0 -18.5 4.5t-4.5 18.5v55h-6q-14 -40 -50.5 -65t-94.5 -25q-69 0 -108.5 34.5t-39.5 108.5t42 108.5t116 34.5h141v85q0 77 -33.5 108.5t-97.5 31.5q-51 0 -84 -21t-51 -74l-17 8q18 52 53.5 79t98.5 27q76 0 114 -37.5t38 -118.5v-343h75v-19h-73zM202 7
q31 0 58.5 9t48 26.5t32.5 44t12 61.5v108h-141q-58 0 -96.5 -27.5t-38.5 -77.5v-39q0 -50 35.5 -77.5t89.5 -27.5zM160 847q16 0 31 -6.5t38 -23.5q20 -14 33.5 -20t26.5 -6q17 0 30.5 8t27.5 25l12 -12q-32 -39 -71 -39q-16 0 -31 6.5t-38 23.5q-20 14 -33.5 20t-26.5 6
q-17 0 -30.5 -8t-27.5 -25l-12 12q32 39 71 39zM236 735l115 -133l-14 -11l-113 127l-113 -127l-14 11l115 133h24z" />
    <glyph glyph-name="uni1EAC" unicode="&#x1eac;" horiz-adv-x="542" 
d="M491 0l-76 234h-288l-76 -234h-24l226 698h36l226 -698h-24zM321 527l-48 151h-4l-48 -151l-87 -274h274zM283 923l100 -133l-14 -11l-98 127l-98 -127l-14 11l100 133h24zM271 -134q-13 0 -18 6.5t-5 14.5v7q0 8 5 14.5t18 6.5t18 -6.5t5 -14.5v-7q0 -8 -5 -14.5
t-18 -6.5z" />
    <glyph glyph-name="uni1EAD" unicode="&#x1ead;" horiz-adv-x="468" 
d="M376 0q-14 0 -18.5 4.5t-4.5 18.5v55h-6q-14 -40 -50.5 -65t-94.5 -25q-69 0 -108.5 34.5t-39.5 108.5t42 108.5t116 34.5h141v85q0 77 -33.5 108.5t-97.5 31.5q-51 0 -84 -21t-51 -74l-17 8q18 52 53.5 79t98.5 27q76 0 114 -37.5t38 -118.5v-343h75v-19h-73zM202 7
q31 0 58.5 9t48 26.5t32.5 44t12 61.5v108h-141q-58 0 -96.5 -27.5t-38.5 -77.5v-39q0 -50 35.5 -77.5t89.5 -27.5zM237 743l100 -133l-14 -11l-98 127l-98 -127l-14 11l100 133h24zM202 -134q-13 0 -18 6.5t-5 14.5v7q0 8 5 14.5t18 6.5t18 -6.5t5 -14.5v-7q0 -8 -5 -14.5
t-18 -6.5z" />
    <glyph glyph-name="uni1EAE" unicode="&#x1eae;" horiz-adv-x="542" 
d="M491 0l-76 234h-288l-76 -234h-24l226 698h36l226 -698h-24zM321 527l-48 151h-4l-48 -151l-87 -274h274zM271 774q-47 0 -72.5 28t-47.5 79l16 7l14 -27q11 -21 21 -34.5t20.5 -21t22 -10t26.5 -2.5t26.5 2.5t22 10t20.5 21t21 34.5l14 27l16 -7q-11 -26 -22.5 -46
t-25 -33.5t-31 -20.5t-41.5 -7zM263 877l-14 10l99 154l19 -12z" />
    <glyph glyph-name="uni1EAF" unicode="&#x1eaf;" horiz-adv-x="468" 
d="M376 0q-14 0 -18.5 4.5t-4.5 18.5v55h-6q-14 -40 -50.5 -65t-94.5 -25q-69 0 -108.5 34.5t-39.5 108.5t42 108.5t116 34.5h141v85q0 77 -33.5 108.5t-97.5 31.5q-51 0 -84 -21t-51 -74l-17 8q18 52 53.5 79t98.5 27q76 0 114 -37.5t38 -118.5v-343h75v-19h-73zM202 7
q31 0 58.5 9t48 26.5t32.5 44t12 61.5v108h-141q-58 0 -96.5 -27.5t-38.5 -77.5v-39q0 -50 35.5 -77.5t89.5 -27.5zM224 594q-47 0 -72.5 28t-47.5 79l16 7l14 -27q11 -21 21 -34.5t20.5 -21t22 -10t26.5 -2.5t26.5 2.5t22 10t20.5 21t21 34.5l14 27l16 -7
q-11 -26 -22.5 -46t-25 -33.5t-31 -20.5t-41.5 -7zM216 697l-14 10l99 154l19 -12z" />
    <glyph glyph-name="uni1EB0" unicode="&#x1eb0;" horiz-adv-x="542" 
d="M491 0l-76 234h-288l-76 -234h-24l226 698h36l226 -698h-24zM321 527l-48 151h-4l-48 -151l-87 -274h274zM271 774q-47 0 -72.5 27.5t-47.5 79.5l16 7l14 -27q11 -21 21 -34.5t20.5 -21t22 -10t26.5 -2.5t26.5 2.5t22 10t20.5 21t21 34.5l14 27l16 -7
q-11 -26 -22.5 -45.5t-25 -33.5t-31 -21t-41.5 -7zM175 1029l19 12l99 -154l-14 -10z" />
    <glyph glyph-name="uni1EB1" unicode="&#x1eb1;" horiz-adv-x="468" 
d="M376 0q-14 0 -18.5 4.5t-4.5 18.5v55h-6q-14 -40 -50.5 -65t-94.5 -25q-69 0 -108.5 34.5t-39.5 108.5t42 108.5t116 34.5h141v85q0 77 -33.5 108.5t-97.5 31.5q-51 0 -84 -21t-51 -74l-17 8q18 52 53.5 79t98.5 27q76 0 114 -37.5t38 -118.5v-343h75v-19h-73zM202 7
q31 0 58.5 9t48 26.5t32.5 44t12 61.5v108h-141q-58 0 -96.5 -27.5t-38.5 -77.5v-39q0 -50 35.5 -77.5t89.5 -27.5zM224 594q-47 0 -72.5 27.5t-47.5 79.5l16 7l14 -27q11 -21 21 -34.5t20.5 -21t22 -10t26.5 -2.5t26.5 2.5t22 10t20.5 21t21 34.5l14 27l16 -7
q-11 -26 -22.5 -45.5t-25 -33.5t-31 -21t-41.5 -7zM128 849l19 12l99 -154l-14 -10z" />
    <glyph glyph-name="uni1EB2" unicode="&#x1eb2;" horiz-adv-x="542" 
d="M491 0l-76 234h-288l-76 -234h-24l226 698h36l226 -698h-24zM321 527l-48 151h-4l-48 -151l-87 -274h274zM203 1027h123q23 0 23 -18q0 -6 -3.5 -14t-17.5 -31l-51 -89l-16 8l69 126h-127v18zM271 774q-47 0 -72.5 27.5t-47.5 79.5l16 7l14 -27q11 -21 21 -34.5t20.5 -21
t22 -10t26.5 -2.5t26.5 2.5t22 10t20.5 21t21 34.5l14 27l16 -7q-11 -26 -22.5 -45.5t-25 -33.5t-31 -21t-41.5 -7z" />
    <glyph glyph-name="uni1EB3" unicode="&#x1eb3;" horiz-adv-x="468" 
d="M376 0q-14 0 -18.5 4.5t-4.5 18.5v55h-6q-14 -40 -50.5 -65t-94.5 -25q-69 0 -108.5 34.5t-39.5 108.5t42 108.5t116 34.5h141v85q0 77 -33.5 108.5t-97.5 31.5q-51 0 -84 -21t-51 -74l-17 8q18 52 53.5 79t98.5 27q76 0 114 -37.5t38 -118.5v-343h75v-19h-73zM202 7
q31 0 58.5 9t48 26.5t32.5 44t12 61.5v108h-141q-58 0 -96.5 -27.5t-38.5 -77.5v-39q0 -50 35.5 -77.5t89.5 -27.5zM224 594q-47 0 -72.5 27.5t-47.5 79.5l16 7l14 -27q11 -21 21 -34.5t20.5 -21t22 -10t26.5 -2.5t26.5 2.5t22 10t20.5 21t21 34.5l14 27l16 -7
q-11 -26 -22.5 -45.5t-25 -33.5t-31 -21t-41.5 -7zM156 847h123q23 0 23 -18q0 -6 -3.5 -14t-17.5 -31l-51 -89l-16 8l69 126h-127v18z" />
    <glyph glyph-name="uni1EB4" unicode="&#x1eb4;" horiz-adv-x="542" 
d="M491 0l-76 234h-288l-76 -234h-24l226 698h36l226 -698h-24zM321 527l-48 151h-4l-48 -151l-87 -274h274zM335 943q-16 0 -31 6.5t-38 23.5q-20 14 -33.5 20t-26.5 6q-17 0 -30.5 -8t-27.5 -25l-12 12q32 39 71 39q16 0 31 -6.5t38 -23.5q20 -14 33.5 -20t26.5 -6
q17 0 30.5 8t27.5 25l12 -12q-32 -39 -71 -39zM271 774q-47 0 -72.5 27.5t-47.5 79.5l16 7l14 -27q11 -21 21 -34.5t20.5 -21t22 -10t26.5 -2.5t26.5 2.5t22 10t20.5 21t21 34.5l14 27l16 -7q-11 -26 -22.5 -45.5t-25 -33.5t-31 -21t-41.5 -7z" />
    <glyph glyph-name="uni1EB5" unicode="&#x1eb5;" horiz-adv-x="468" 
d="M376 0q-14 0 -18.5 4.5t-4.5 18.5v55h-6q-14 -40 -50.5 -65t-94.5 -25q-69 0 -108.5 34.5t-39.5 108.5t42 108.5t116 34.5h141v85q0 77 -33.5 108.5t-97.5 31.5q-51 0 -84 -21t-51 -74l-17 8q18 52 53.5 79t98.5 27q76 0 114 -37.5t38 -118.5v-343h75v-19h-73zM202 7
q31 0 58.5 9t48 26.5t32.5 44t12 61.5v108h-141q-58 0 -96.5 -27.5t-38.5 -77.5v-39q0 -50 35.5 -77.5t89.5 -27.5zM224 594q-47 0 -72.5 27.5t-47.5 79.5l16 7l14 -27q11 -21 21 -34.5t20.5 -21t22 -10t26.5 -2.5t26.5 2.5t22 10t20.5 21t21 34.5l14 27l16 -7
q-11 -26 -22.5 -45.5t-25 -33.5t-31 -21t-41.5 -7zM288 763q-16 0 -31 6.5t-38 23.5q-20 14 -33.5 20t-26.5 6q-17 0 -30.5 -8t-27.5 -25l-12 12q32 39 71 39q16 0 31 -6.5t38 -23.5q20 -14 33.5 -20t26.5 -6q17 0 30.5 8t27.5 25l12 -12q-32 -39 -71 -39z" />
    <glyph glyph-name="uni1EB6" unicode="&#x1eb6;" horiz-adv-x="542" 
d="M491 0l-76 234h-288l-76 -234h-24l226 698h36l226 -698h-24zM321 527l-48 151h-4l-48 -151l-87 -274h274zM271 786q-21 0 -36.5 6t-28 19.5t-22 36t-18.5 55.5l16 7l9 -27q14 -44 32 -61t48 -17t48 17t32 61l9 27l16 -7q-9 -33 -18.5 -55.5t-22 -36t-28 -19.5t-36.5 -6z
M271 -134q-13 0 -18 6.5t-5 14.5v7q0 8 5 14.5t18 6.5t18 -6.5t5 -14.5v-7q0 -8 -5 -14.5t-18 -6.5z" />
    <glyph glyph-name="uni1EB7" unicode="&#x1eb7;" horiz-adv-x="468" 
d="M376 0q-14 0 -18.5 4.5t-4.5 18.5v55h-6q-14 -40 -50.5 -65t-94.5 -25q-69 0 -108.5 34.5t-39.5 108.5t42 108.5t116 34.5h141v85q0 77 -33.5 108.5t-97.5 31.5q-51 0 -84 -21t-51 -74l-17 8q18 52 53.5 79t98.5 27q76 0 114 -37.5t38 -118.5v-343h75v-19h-73zM202 7
q31 0 58.5 9t48 26.5t32.5 44t12 61.5v108h-141q-58 0 -96.5 -27.5t-38.5 -77.5v-39q0 -50 35.5 -77.5t89.5 -27.5zM225 606q-21 0 -36.5 6t-28 19.5t-22 36t-18.5 55.5l16 7l9 -27q14 -44 32 -61t48 -17t48 17t32 61l9 27l16 -7q-9 -33 -18.5 -55.5t-22 -36t-28 -19.5
t-36.5 -6zM202 -134q-13 0 -18 6.5t-5 14.5v7q0 8 5 14.5t18 6.5t18 -6.5t5 -14.5v-7q0 -8 -5 -14.5t-18 -6.5z" />
    <glyph glyph-name="uni1EB8" unicode="&#x1eb8;" horiz-adv-x="506" 
d="M97 0v698h344v-20h-322v-314h311v-20h-311v-324h322v-20h-344zM269 -134q-13 0 -18 6.5t-5 14.5v7q0 8 5 14.5t18 6.5t18 -6.5t5 -14.5v-7q0 -8 -5 -14.5t-18 -6.5z" />
    <glyph glyph-name="uni1EB9" unicode="&#x1eb9;" horiz-adv-x="480" 
d="M244 -12q-91 0 -140.5 63.5t-49.5 201.5t49.5 201.5t140.5 63.5t137 -63.5t46 -188.5v-10h-350v-37q0 -100 43 -156t124 -56q66 0 103 30.5t57 91.5l17 -7q-20 -67 -61.5 -100.5t-115.5 -33.5zM244 499q-81 0 -124 -56t-43 -156v-13h327v13q0 100 -39.5 156t-120.5 56z
M245 -134q-13 0 -18 6.5t-5 14.5v7q0 8 5 14.5t18 6.5t18 -6.5t5 -14.5v-7q0 -8 -5 -14.5t-18 -6.5z" />
    <glyph glyph-name="uni1EBA" unicode="&#x1eba;" horiz-adv-x="506" 
d="M97 0v698h344v-20h-322v-314h311v-20h-311v-324h322v-20h-344zM201 917h123q23 0 23 -18q0 -6 -4 -14t-18 -31l-51 -89l-15 8l69 126h-127v18z" />
    <glyph glyph-name="uni1EBB" unicode="&#x1ebb;" horiz-adv-x="480" 
d="M244 -12q-91 0 -140.5 63.5t-49.5 201.5t49.5 201.5t140.5 63.5t137 -63.5t46 -188.5v-10h-350v-37q0 -100 43 -156t124 -56q66 0 103 30.5t57 91.5l17 -7q-20 -67 -61.5 -100.5t-115.5 -33.5zM244 499q-81 0 -124 -56t-43 -156v-13h327v13q0 100 -39.5 156t-120.5 56z
M174 737h123q23 0 23 -18q0 -6 -4 -14t-18 -31l-51 -89l-15 8l69 126h-127v18z" />
    <glyph glyph-name="uni1EBC" unicode="&#x1ebc;" horiz-adv-x="506" 
d="M97 0v698h344v-20h-322v-314h311v-20h-311v-324h322v-20h-344zM334 808q-16 0 -31 6.5t-38 23.5q-20 14 -33.5 20t-26.5 6q-17 0 -30.5 -8t-27.5 -25l-12 13q17 20 33.5 29t36.5 9q16 0 31 -6.5t38 -23.5q20 -14 33.5 -20t26.5 -6q17 0 30.5 8t27.5 25l12 -13
q-17 -20 -33.5 -29t-36.5 -9z" />
    <glyph glyph-name="uni1EBD" unicode="&#x1ebd;" horiz-adv-x="480" 
d="M244 -12q-91 0 -140.5 63.5t-49.5 201.5t49.5 201.5t140.5 63.5t137 -63.5t46 -188.5v-10h-350v-37q0 -100 43 -156t124 -56q66 0 103 30.5t57 91.5l17 -7q-20 -67 -61.5 -100.5t-115.5 -33.5zM244 499q-81 0 -124 -56t-43 -156v-13h327v13q0 100 -39.5 156t-120.5 56z
M307 628q-16 0 -31 6.5t-38 23.5q-20 14 -33.5 20t-26.5 6q-17 0 -30.5 -8t-27.5 -25l-12 13q17 20 33.5 29t36.5 9q16 0 31 -6.5t38 -23.5q20 -14 33.5 -20t26.5 -6q17 0 30.5 8t27.5 25l12 -13q-17 -20 -33.5 -29t-36.5 -9z" />
    <glyph glyph-name="uni1EBE" unicode="&#x1ebe;" horiz-adv-x="506" 
d="M97 0v698h344v-20h-322v-314h311v-20h-311v-324h322v-20h-344zM373 877l-15 10l99 154l19 -12zM281 915l115 -133l-14 -11l-113 127l-113 -127l-14 11l115 133h24z" />
    <glyph glyph-name="uni1EBF" unicode="&#x1ebf;" horiz-adv-x="480" 
d="M244 -12q-91 0 -140.5 63.5t-49.5 201.5t49.5 201.5t140.5 63.5t137 -63.5t46 -188.5v-10h-350v-37q0 -100 43 -156t124 -56q66 0 103 30.5t57 91.5l17 -7q-20 -67 -61.5 -100.5t-115.5 -33.5zM244 499q-81 0 -124 -56t-43 -156v-13h327v13q0 100 -39.5 156t-120.5 56z
M346 697l-15 10l99 154l19 -12zM254 735l115 -133l-14 -11l-113 127l-113 -127l-14 11l115 133h24z" />
    <glyph glyph-name="uni1EC0" unicode="&#x1ec0;" horiz-adv-x="506" 
d="M97 0v698h344v-20h-322v-314h311v-20h-311v-324h322v-20h-344zM62 1029l19 12l99 -154l-15 -10zM281 915l115 -133l-14 -11l-113 127l-113 -127l-14 11l115 133h24z" />
    <glyph glyph-name="uni1EC1" unicode="&#x1ec1;" horiz-adv-x="480" 
d="M244 -12q-91 0 -140.5 63.5t-49.5 201.5t49.5 201.5t140.5 63.5t137 -63.5t46 -188.5v-10h-350v-37q0 -100 43 -156t124 -56q66 0 103 30.5t57 91.5l17 -7q-20 -67 -61.5 -100.5t-115.5 -33.5zM244 499q-81 0 -124 -56t-43 -156v-13h327v13q0 100 -39.5 156t-120.5 56z
M35 849l19 12l99 -154l-15 -10zM254 735l115 -133l-14 -11l-113 127l-113 -127l-14 11l115 133h24z" />
    <glyph glyph-name="uni1EC2" unicode="&#x1ec2;" horiz-adv-x="506" 
d="M97 0v698h344v-20h-322v-314h311v-20h-311v-324h322v-20h-344zM304 1027h123q23 0 23 -18q0 -6 -4 -14t-18 -31l-51 -89l-15 8l69 126h-127v18zM281 915l115 -133l-14 -11l-113 127l-113 -127l-14 11l115 133h24z" />
    <glyph glyph-name="uni1EC3" unicode="&#x1ec3;" horiz-adv-x="480" 
d="M244 -12q-91 0 -140.5 63.5t-49.5 201.5t49.5 201.5t140.5 63.5t137 -63.5t46 -188.5v-10h-350v-37q0 -100 43 -156t124 -56q66 0 103 30.5t57 91.5l17 -7q-20 -67 -61.5 -100.5t-115.5 -33.5zM244 499q-81 0 -124 -56t-43 -156v-13h327v13q0 100 -39.5 156t-120.5 56z
M277 847h123q23 0 23 -18q0 -6 -4 -14t-18 -31l-51 -89l-15 8l69 126h-127v18zM254 735l115 -133l-14 -11l-113 127l-113 -127l-14 11l115 133h24z" />
    <glyph glyph-name="uni1EC4" unicode="&#x1ec4;" horiz-adv-x="506" 
d="M97 0v698h344v-20h-322v-314h311v-20h-311v-324h322v-20h-344zM205 1027q16 0 31 -6.5t38 -23.5q20 -14 33.5 -20t26.5 -6q17 0 30.5 8t27.5 25l12 -12q-32 -39 -71 -39q-16 0 -31 6.5t-38 23.5q-20 14 -33.5 20t-26.5 6q-17 0 -30.5 -8t-27.5 -25l-12 12q32 39 71 39z
M281 915l115 -133l-14 -11l-113 127l-113 -127l-14 11l115 133h24z" />
    <glyph glyph-name="uni1EC5" unicode="&#x1ec5;" horiz-adv-x="480" 
d="M244 -12q-91 0 -140.5 63.5t-49.5 201.5t49.5 201.5t140.5 63.5t137 -63.5t46 -188.5v-10h-350v-37q0 -100 43 -156t124 -56q66 0 103 30.5t57 91.5l17 -7q-20 -67 -61.5 -100.5t-115.5 -33.5zM244 499q-81 0 -124 -56t-43 -156v-13h327v13q0 100 -39.5 156t-120.5 56z
M178 847q16 0 31 -6.5t38 -23.5q20 -14 33.5 -20t26.5 -6q17 0 30.5 8t27.5 25l12 -12q-32 -39 -71 -39q-16 0 -31 6.5t-38 23.5q-20 14 -33.5 20t-26.5 6q-17 0 -30.5 -8t-27.5 -25l-12 12q32 39 71 39zM254 735l115 -133l-14 -11l-113 127l-113 -127l-14 11l115 133h24z
" />
    <glyph glyph-name="uni1EC6" unicode="&#x1ec6;" horiz-adv-x="506" 
d="M97 0v698h344v-20h-322v-314h311v-20h-311v-324h322v-20h-344zM282 923l100 -133l-14 -11l-98 127l-98 -127l-14 11l100 133h24zM269 -134q-13 0 -18 6.5t-5 14.5v7q0 8 5 14.5t18 6.5t18 -6.5t5 -14.5v-7q0 -8 -5 -14.5t-18 -6.5z" />
    <glyph glyph-name="uni1EC7" unicode="&#x1ec7;" horiz-adv-x="480" 
d="M244 -12q-91 0 -140.5 63.5t-49.5 201.5t49.5 201.5t140.5 63.5t137 -63.5t46 -188.5v-10h-350v-37q0 -100 43 -156t124 -56q66 0 103 30.5t57 91.5l17 -7q-20 -67 -61.5 -100.5t-115.5 -33.5zM244 499q-81 0 -124 -56t-43 -156v-13h327v13q0 100 -39.5 156t-120.5 56z
M255 743l100 -133l-14 -11l-98 127l-98 -127l-14 11l100 133h24zM245 -134q-13 0 -18 6.5t-5 14.5v7q0 8 5 14.5t18 6.5t18 -6.5t5 -14.5v-7q0 -8 -5 -14.5t-18 -6.5z" />
    <glyph glyph-name="uni1EC8" unicode="&#x1ec8;" horiz-adv-x="336" 
d="M61 0v19h96v660h-96v19h214v-19h-96v-660h96v-19h-214zM99 917h123q23 0 23 -18q0 -6 -4 -14t-18 -31l-51 -89l-15 8l69 126h-127v18z" />
    <glyph glyph-name="uni1EC9" unicode="&#x1ec9;" horiz-adv-x="209" 
d="M94 0v506h21v-506h-21zM36 737h123q23 0 23 -18q0 -6 -4 -14t-18 -31l-51 -89l-15 8l69 126h-127v18z" />
    <glyph glyph-name="uni1ECA" unicode="&#x1eca;" horiz-adv-x="336" 
d="M61 0v19h96v660h-96v19h214v-19h-96v-660h96v-19h-214zM167 -134q-13 0 -18 6.5t-5 14.5v7q0 8 5 14.5t18 6.5t18 -6.5t5 -14.5v-7q0 -8 -5 -14.5t-18 -6.5z" />
    <glyph glyph-name="uni1ECB" unicode="&#x1ecb;" horiz-adv-x="209" 
d="M105 673q-12 0 -17 6t-5 14v9q0 8 5 14t17 6t16.5 -6t4.5 -14v-9q0 -8 -4.5 -14t-16.5 -6zM94 506h21v-506h-21v506zM105 -134q-13 0 -18 6.5t-5 14.5v7q0 8 5 14.5t18 6.5t18 -6.5t5 -14.5v-7q0 -8 -5 -14.5t-18 -6.5z" />
    <glyph glyph-name="uni1ECC" unicode="&#x1ecc;" horiz-adv-x="614" 
d="M307 -12q-56 0 -101 17.5t-76.5 59.5t-49 111t-17.5 173q0 103 17.5 172.5t49 111.5t76.5 59.5t101 17.5q55 0 100.5 -17.5t77 -59.5t49 -111.5t17.5 -172.5q0 -104 -17.5 -173t-49 -111t-77 -59.5t-100.5 -17.5zM307 8q103 0 161.5 72t58.5 230v78q0 158 -58.5 230
t-161.5 72t-161.5 -72t-58.5 -230v-78q0 -158 58.5 -230t161.5 -72zM307 -134q-13 0 -18 6.5t-5 14.5v7q0 8 5 14.5t18 6.5t18 -6.5t5 -14.5v-7q0 -8 -5 -14.5t-18 -6.5z" />
    <glyph glyph-name="uni1ECD" unicode="&#x1ecd;" horiz-adv-x="488" 
d="M244 -12q-91 0 -140.5 63.5t-49.5 201.5t49.5 201.5t140.5 63.5t140.5 -63.5t49.5 -201.5t-49.5 -201.5t-140.5 -63.5zM244 7q81 0 124 56t43 156v68q0 100 -43 156t-124 56t-124 -56t-43 -156v-68q0 -100 43 -156t124 -56zM244 -134q-13 0 -18 6.5t-5 14.5v7q0 8 5 14.5
t18 6.5t18 -6.5t5 -14.5v-7q0 -8 -5 -14.5t-18 -6.5z" />
    <glyph glyph-name="uni1ECE" unicode="&#x1ece;" horiz-adv-x="614" 
d="M307 -12q-56 0 -101 17.5t-76.5 59.5t-49 111t-17.5 173q0 103 17.5 172.5t49 111.5t76.5 59.5t101 17.5q55 0 100.5 -17.5t77 -59.5t49 -111.5t17.5 -172.5q0 -104 -17.5 -173t-49 -111t-77 -59.5t-100.5 -17.5zM307 8q103 0 161.5 72t58.5 230v78q0 158 -58.5 230
t-161.5 72t-161.5 -72t-58.5 -230v-78q0 -158 58.5 -230t161.5 -72zM239 917h123q23 0 23 -18q0 -6 -4 -14t-18 -31l-51 -89l-15 8l69 126h-127v18z" />
    <glyph glyph-name="uni1ECF" unicode="&#x1ecf;" horiz-adv-x="488" 
d="M244 -12q-91 0 -140.5 63.5t-49.5 201.5t49.5 201.5t140.5 63.5t140.5 -63.5t49.5 -201.5t-49.5 -201.5t-140.5 -63.5zM244 7q81 0 124 56t43 156v68q0 100 -43 156t-124 56t-124 -56t-43 -156v-68q0 -100 43 -156t124 -56zM176 737h123q23 0 23 -18q0 -6 -4 -14t-18 -31
l-51 -89l-15 8l69 126h-127v18z" />
    <glyph glyph-name="uni1ED0" unicode="&#x1ed0;" horiz-adv-x="614" 
d="M307 -12q-56 0 -101 17.5t-76.5 59.5t-49 111t-17.5 173q0 103 17.5 172.5t49 111.5t76.5 59.5t101 17.5q55 0 100.5 -17.5t77 -59.5t49 -111.5t17.5 -172.5q0 -104 -17.5 -173t-49 -111t-77 -59.5t-100.5 -17.5zM307 8q103 0 161.5 72t58.5 230v78q0 158 -58.5 230
t-161.5 72t-161.5 -72t-58.5 -230v-78q0 -158 58.5 -230t161.5 -72zM411 877l-15 10l99 154l19 -12zM319 915l115 -133l-14 -11l-113 127l-113 -127l-14 11l115 133h24z" />
    <glyph glyph-name="uni1ED1" unicode="&#x1ed1;" horiz-adv-x="488" 
d="M244 -12q-91 0 -140.5 63.5t-49.5 201.5t49.5 201.5t140.5 63.5t140.5 -63.5t49.5 -201.5t-49.5 -201.5t-140.5 -63.5zM244 7q81 0 124 56t43 156v68q0 100 -43 156t-124 56t-124 -56t-43 -156v-68q0 -100 43 -156t124 -56zM348 697l-15 10l99 154l19 -12zM256 735
l115 -133l-14 -11l-113 127l-113 -127l-14 11l115 133h24z" />
    <glyph glyph-name="uni1ED2" unicode="&#x1ed2;" horiz-adv-x="614" 
d="M307 -12q-56 0 -101 17.5t-76.5 59.5t-49 111t-17.5 173q0 103 17.5 172.5t49 111.5t76.5 59.5t101 17.5q55 0 100.5 -17.5t77 -59.5t49 -111.5t17.5 -172.5q0 -104 -17.5 -173t-49 -111t-77 -59.5t-100.5 -17.5zM307 8q103 0 161.5 72t58.5 230v78q0 158 -58.5 230
t-161.5 72t-161.5 -72t-58.5 -230v-78q0 -158 58.5 -230t161.5 -72zM100 1029l19 12l99 -154l-15 -10zM319 915l115 -133l-14 -11l-113 127l-113 -127l-14 11l115 133h24z" />
    <glyph glyph-name="uni1ED3" unicode="&#x1ed3;" horiz-adv-x="488" 
d="M244 -12q-91 0 -140.5 63.5t-49.5 201.5t49.5 201.5t140.5 63.5t140.5 -63.5t49.5 -201.5t-49.5 -201.5t-140.5 -63.5zM244 7q81 0 124 56t43 156v68q0 100 -43 156t-124 56t-124 -56t-43 -156v-68q0 -100 43 -156t124 -56zM37 849l19 12l99 -154l-15 -10zM256 735
l115 -133l-14 -11l-113 127l-113 -127l-14 11l115 133h24z" />
    <glyph glyph-name="uni1ED4" unicode="&#x1ed4;" horiz-adv-x="614" 
d="M307 -12q-56 0 -101 17.5t-76.5 59.5t-49 111t-17.5 173q0 103 17.5 172.5t49 111.5t76.5 59.5t101 17.5q55 0 100.5 -17.5t77 -59.5t49 -111.5t17.5 -172.5q0 -104 -17.5 -173t-49 -111t-77 -59.5t-100.5 -17.5zM307 8q103 0 161.5 72t58.5 230v78q0 158 -58.5 230
t-161.5 72t-161.5 -72t-58.5 -230v-78q0 -158 58.5 -230t161.5 -72zM342 1027h123q23 0 23 -18q0 -6 -4 -14t-18 -31l-51 -89l-15 8l69 126h-127v18zM319 915l115 -133l-14 -11l-113 127l-113 -127l-14 11l115 133h24z" />
    <glyph glyph-name="uni1ED5" unicode="&#x1ed5;" horiz-adv-x="488" 
d="M244 -12q-91 0 -140.5 63.5t-49.5 201.5t49.5 201.5t140.5 63.5t140.5 -63.5t49.5 -201.5t-49.5 -201.5t-140.5 -63.5zM244 7q81 0 124 56t43 156v68q0 100 -43 156t-124 56t-124 -56t-43 -156v-68q0 -100 43 -156t124 -56zM279 847h123q23 0 23 -18q0 -6 -4 -14t-18 -31
l-51 -89l-15 8l69 126h-127v18zM256 735l115 -133l-14 -11l-113 127l-113 -127l-14 11l115 133h24z" />
    <glyph glyph-name="uni1ED6" unicode="&#x1ed6;" horiz-adv-x="614" 
d="M307 -12q-56 0 -101 17.5t-76.5 59.5t-49 111t-17.5 173q0 103 17.5 172.5t49 111.5t76.5 59.5t101 17.5q55 0 100.5 -17.5t77 -59.5t49 -111.5t17.5 -172.5q0 -104 -17.5 -173t-49 -111t-77 -59.5t-100.5 -17.5zM307 8q103 0 161.5 72t58.5 230v78q0 158 -58.5 230
t-161.5 72t-161.5 -72t-58.5 -230v-78q0 -158 58.5 -230t161.5 -72zM243 1027q16 0 31 -6.5t38 -23.5q20 -14 33.5 -20t26.5 -6q17 0 30.5 8t27.5 25l12 -12q-32 -39 -71 -39q-16 0 -31 6.5t-38 23.5q-20 14 -33.5 20t-26.5 6q-17 0 -30.5 -8t-27.5 -25l-12 12q32 39 71 39z
M319 915l115 -133l-14 -11l-113 127l-113 -127l-14 11l115 133h24z" />
    <glyph glyph-name="uni1ED7" unicode="&#x1ed7;" horiz-adv-x="488" 
d="M244 -12q-91 0 -140.5 63.5t-49.5 201.5t49.5 201.5t140.5 63.5t140.5 -63.5t49.5 -201.5t-49.5 -201.5t-140.5 -63.5zM244 7q81 0 124 56t43 156v68q0 100 -43 156t-124 56t-124 -56t-43 -156v-68q0 -100 43 -156t124 -56zM180 847q16 0 31 -6.5t38 -23.5
q20 -14 33.5 -20t26.5 -6q17 0 30.5 8t27.5 25l12 -12q-32 -39 -71 -39q-16 0 -31 6.5t-38 23.5q-20 14 -33.5 20t-26.5 6q-17 0 -30.5 -8t-27.5 -25l-12 12q32 39 71 39zM256 735l115 -133l-14 -11l-113 127l-113 -127l-14 11l115 133h24z" />
    <glyph glyph-name="uni1ED8" unicode="&#x1ed8;" horiz-adv-x="614" 
d="M307 -12q-56 0 -101 17.5t-76.5 59.5t-49 111t-17.5 173q0 103 17.5 172.5t49 111.5t76.5 59.5t101 17.5q55 0 100.5 -17.5t77 -59.5t49 -111.5t17.5 -172.5q0 -104 -17.5 -173t-49 -111t-77 -59.5t-100.5 -17.5zM307 8q103 0 161.5 72t58.5 230v78q0 158 -58.5 230
t-161.5 72t-161.5 -72t-58.5 -230v-78q0 -158 58.5 -230t161.5 -72zM319 923l100 -133l-14 -11l-98 127l-98 -127l-14 11l100 133h24zM307 -134q-13 0 -18 6.5t-5 14.5v7q0 8 5 14.5t18 6.5t18 -6.5t5 -14.5v-7q0 -8 -5 -14.5t-18 -6.5z" />
    <glyph glyph-name="uni1ED9" unicode="&#x1ed9;" horiz-adv-x="488" 
d="M244 -12q-91 0 -140.5 63.5t-49.5 201.5t49.5 201.5t140.5 63.5t140.5 -63.5t49.5 -201.5t-49.5 -201.5t-140.5 -63.5zM244 7q81 0 124 56t43 156v68q0 100 -43 156t-124 56t-124 -56t-43 -156v-68q0 -100 43 -156t124 -56zM257 743l100 -133l-14 -11l-98 127l-98 -127
l-14 11l100 133h24zM244 -134q-13 0 -18 6.5t-5 14.5v7q0 8 5 14.5t18 6.5t18 -6.5t5 -14.5v-7q0 -8 -5 -14.5t-18 -6.5z" />
    <glyph glyph-name="uni1EDA" unicode="&#x1eda;" horiz-adv-x="614" 
d="M549 809v-105q0 -15 -4.5 -19.5t-19.5 -4.5h-107v-4q30 -10 54.5 -33t42 -62t27 -96t9.5 -136q0 -104 -17.5 -173t-49 -111t-77 -59.5t-100.5 -17.5q-56 0 -101 17.5t-76.5 59.5t-49 111t-17.5 173q0 103 17.5 172.5t49 111.5t76.5 59.5t101 17.5q23 0 44 -2.5t41 -9.5
h137v111h20zM307 8q103 0 161.5 72t58.5 230v78q0 158 -58.5 230t-161.5 72t-161.5 -72t-58.5 -230v-78q0 -158 58.5 -230t161.5 -72zM292 767l-15 10l99 154l19 -12z" />
    <glyph glyph-name="uni1EDB" unicode="&#x1edb;" horiz-adv-x="487" 
d="M426 617v-105q0 -15 -4.5 -19.5t-19.5 -4.5h-65v-4q48 -15 72.5 -74.5t24.5 -156.5q0 -138 -49.5 -201.5t-140.5 -63.5t-140.5 63.5t-49.5 201.5t49.5 201.5t140.5 63.5q39 0 71 -12h91v111h20zM244 7q81 0 124 56t43 156v68q0 100 -43 156t-124 56t-124 -56t-43 -156
v-68q0 -100 43 -156t124 -56zM229 587l-15 10l99 154l19 -12z" />
    <glyph glyph-name="uni1EDC" unicode="&#x1edc;" horiz-adv-x="614" 
d="M549 809v-105q0 -15 -4.5 -19.5t-19.5 -4.5h-107v-4q30 -10 54.5 -33t42 -62t27 -96t9.5 -136q0 -104 -17.5 -173t-49 -111t-77 -59.5t-100.5 -17.5q-56 0 -101 17.5t-76.5 59.5t-49 111t-17.5 173q0 103 17.5 172.5t49 111.5t76.5 59.5t101 17.5q23 0 44 -2.5t41 -9.5
h137v111h20zM307 8q103 0 161.5 72t58.5 230v78q0 158 -58.5 230t-161.5 72t-161.5 -72t-58.5 -230v-78q0 -158 58.5 -230t161.5 -72zM219 919l19 12l99 -154l-15 -10z" />
    <glyph glyph-name="uni1EDD" unicode="&#x1edd;" horiz-adv-x="487" 
d="M426 617v-105q0 -15 -4.5 -19.5t-19.5 -4.5h-65v-4q48 -15 72.5 -74.5t24.5 -156.5q0 -138 -49.5 -201.5t-140.5 -63.5t-140.5 63.5t-49.5 201.5t49.5 201.5t140.5 63.5q39 0 71 -12h91v111h20zM244 7q81 0 124 56t43 156v68q0 100 -43 156t-124 56t-124 -56t-43 -156
v-68q0 -100 43 -156t124 -56zM156 739l19 12l99 -154l-15 -10z" />
    <glyph glyph-name="uni1EDE" unicode="&#x1ede;" horiz-adv-x="614" 
d="M549 809v-105q0 -15 -4.5 -19.5t-19.5 -4.5h-107v-4q30 -10 54.5 -33t42 -62t27 -96t9.5 -136q0 -104 -17.5 -173t-49 -111t-77 -59.5t-100.5 -17.5q-56 0 -101 17.5t-76.5 59.5t-49 111t-17.5 173q0 103 17.5 172.5t49 111.5t76.5 59.5t101 17.5q23 0 44 -2.5t41 -9.5
h137v111h20zM307 8q103 0 161.5 72t58.5 230v78q0 158 -58.5 230t-161.5 72t-161.5 -72t-58.5 -230v-78q0 -158 58.5 -230t161.5 -72zM239 917h123q23 0 23 -18q0 -6 -4 -14t-18 -31l-51 -89l-15 8l69 126h-127v18z" />
    <glyph glyph-name="uni1EDF" unicode="&#x1edf;" horiz-adv-x="487" 
d="M426 617v-105q0 -15 -4.5 -19.5t-19.5 -4.5h-65v-4q48 -15 72.5 -74.5t24.5 -156.5q0 -138 -49.5 -201.5t-140.5 -63.5t-140.5 63.5t-49.5 201.5t49.5 201.5t140.5 63.5q39 0 71 -12h91v111h20zM244 7q81 0 124 56t43 156v68q0 100 -43 156t-124 56t-124 -56t-43 -156
v-68q0 -100 43 -156t124 -56zM175 737h123q23 0 23 -18q0 -6 -4 -14t-18 -31l-51 -89l-15 8l69 126h-127v18z" />
    <glyph glyph-name="uni1EE0" unicode="&#x1ee0;" horiz-adv-x="614" 
d="M549 809v-105q0 -15 -4.5 -19.5t-19.5 -4.5h-107v-4q30 -10 54.5 -33t42 -62t27 -96t9.5 -136q0 -104 -17.5 -173t-49 -111t-77 -59.5t-100.5 -17.5q-56 0 -101 17.5t-76.5 59.5t-49 111t-17.5 173q0 103 17.5 172.5t49 111.5t76.5 59.5t101 17.5q23 0 44 -2.5t41 -9.5
h137v111h20zM307 8q103 0 161.5 72t58.5 230v78q0 158 -58.5 230t-161.5 72t-161.5 -72t-58.5 -230v-78q0 -158 58.5 -230t161.5 -72zM371 808q-16 0 -31 6.5t-38 23.5q-20 14 -33.5 20t-26.5 6q-17 0 -30.5 -8t-27.5 -25l-12 13q17 20 33.5 29t36.5 9q16 0 31 -6.5
t38 -23.5q20 -14 33.5 -20t26.5 -6q17 0 30.5 8t27.5 25l12 -13q-17 -20 -33.5 -29t-36.5 -9z" />
    <glyph glyph-name="uni1EE1" unicode="&#x1ee1;" horiz-adv-x="487" 
d="M426 617v-105q0 -15 -4.5 -19.5t-19.5 -4.5h-65v-4q48 -15 72.5 -74.5t24.5 -156.5q0 -138 -49.5 -201.5t-140.5 -63.5t-140.5 63.5t-49.5 201.5t49.5 201.5t140.5 63.5q39 0 71 -12h91v111h20zM244 7q81 0 124 56t43 156v68q0 100 -43 156t-124 56t-124 -56t-43 -156
v-68q0 -100 43 -156t124 -56zM308 628q-16 0 -31 6.5t-38 23.5q-20 14 -33.5 20t-26.5 6q-17 0 -30.5 -8t-27.5 -25l-12 13q17 20 33.5 29t36.5 9q16 0 31 -6.5t38 -23.5q20 -14 33.5 -20t26.5 -6q17 0 30.5 8t27.5 25l12 -13q-17 -20 -33.5 -29t-36.5 -9z" />
    <glyph glyph-name="uni1EE2" unicode="&#x1ee2;" horiz-adv-x="614" 
d="M549 809v-105q0 -15 -4.5 -19.5t-19.5 -4.5h-107v-4q30 -10 54.5 -33t42 -62t27 -96t9.5 -136q0 -104 -17.5 -173t-49 -111t-77 -59.5t-100.5 -17.5q-56 0 -101 17.5t-76.5 59.5t-49 111t-17.5 173q0 103 17.5 172.5t49 111.5t76.5 59.5t101 17.5q23 0 44 -2.5t41 -9.5
h137v111h20zM307 8q103 0 161.5 72t58.5 230v78q0 158 -58.5 230t-161.5 72t-161.5 -72t-58.5 -230v-78q0 -158 58.5 -230t161.5 -72zM307 -134q-13 0 -18 6.5t-5 14.5v7q0 8 5 14.5t18 6.5t18 -6.5t5 -14.5v-7q0 -8 -5 -14.5t-18 -6.5z" />
    <glyph glyph-name="uni1EE3" unicode="&#x1ee3;" horiz-adv-x="487" 
d="M426 617v-105q0 -15 -4.5 -19.5t-19.5 -4.5h-65v-4q48 -15 72.5 -74.5t24.5 -156.5q0 -138 -49.5 -201.5t-140.5 -63.5t-140.5 63.5t-49.5 201.5t49.5 201.5t140.5 63.5q39 0 71 -12h91v111h20zM244 7q81 0 124 56t43 156v68q0 100 -43 156t-124 56t-124 -56t-43 -156
v-68q0 -100 43 -156t124 -56zM243 -134q-13 0 -18 6.5t-5 14.5v7q0 8 5 14.5t18 6.5t18 -6.5t5 -14.5v-7q0 -8 -5 -14.5t-18 -6.5z" />
    <glyph glyph-name="uni1EE4" unicode="&#x1ee4;" horiz-adv-x="588" 
d="M112 698v-450q0 -66 9 -111.5t30 -74t56 -41.5t87 -13t87 13t56 41.5t30 74t9 111.5v450h22v-448q0 -72 -10.5 -122t-34.5 -81t-63 -45t-96 -14t-96 14t-63 45t-34.5 81t-10.5 122v448h22zM294 -134q-13 0 -18 6.5t-5 14.5v7q0 8 5 14.5t18 6.5t18 -6.5t5 -14.5v-7
q0 -8 -5 -14.5t-18 -6.5z" />
    <glyph glyph-name="uni1EE5" unicode="&#x1ee5;" horiz-adv-x="501" 
d="M395 76h-6q-13 -38 -52 -63t-95 -25q-72 0 -110 42.5t-38 123.5v352h21v-352q0 -69 33 -108t95 -39q30 0 57.5 9.5t48.5 27.5t33.5 44t12.5 59v359h21v-506h-21v76zM242 -134q-13 0 -18 6.5t-5 14.5v7q0 8 5 14.5t18 6.5t18 -6.5t5 -14.5v-7q0 -8 -5 -14.5t-18 -6.5z" />
    <glyph glyph-name="uni1EE6" unicode="&#x1ee6;" horiz-adv-x="588" 
d="M112 698v-450q0 -66 9 -111.5t30 -74t56 -41.5t87 -13t87 13t56 41.5t30 74t9 111.5v450h22v-448q0 -72 -10.5 -122t-34.5 -81t-63 -45t-96 -14t-96 14t-63 45t-34.5 81t-10.5 122v448h22zM225 917h123q23 0 23 -18q0 -6 -4 -14t-18 -31l-51 -89l-15 8l69 126h-127v18z
" />
    <glyph glyph-name="uni1EE7" unicode="&#x1ee7;" horiz-adv-x="501" 
d="M395 76h-6q-13 -38 -52 -63t-95 -25q-72 0 -110 42.5t-38 123.5v352h21v-352q0 -69 33 -108t95 -39q30 0 57.5 9.5t48.5 27.5t33.5 44t12.5 59v359h21v-506h-21v76zM178 737h123q23 0 23 -18q0 -6 -4 -14t-18 -31l-51 -89l-15 8l69 126h-127v18z" />
    <glyph glyph-name="uni1EE8" unicode="&#x1ee8;" horiz-adv-x="588" 
d="M498 250q0 -72 -10.5 -122t-34.5 -81t-63 -45t-96 -14t-96 14t-63 45t-34.5 81t-10.5 122v448h22v-450q0 -66 9 -111.5t30 -74t56 -41.5t87 -13t87 13t56 41.5t30 74t9 111.5v450h72v111h20v-105q0 -15 -4.5 -19.5t-19.5 -4.5h-46v-430v0zM278 767l-15 10l99 154l19 -12z
" />
    <glyph glyph-name="uni1EE9" unicode="&#x1ee9;" horiz-adv-x="501" 
d="M389 76q-13 -38 -52 -63t-95 -25q-72 0 -110 42.5t-38 123.5v352h21v-352q0 -69 33 -108t95 -39q30 0 57.5 9.5t48.5 27.5t33.5 44t12.5 59v359h72v111h20v-105q0 -15 -4.5 -19.5t-19.5 -4.5h-47v-488h-21v76h-6v0zM241 587l-15 10l99 154l19 -12z" />
    <glyph glyph-name="uni1EEA" unicode="&#x1eea;" horiz-adv-x="588" 
d="M498 250q0 -72 -10.5 -122t-34.5 -81t-63 -45t-96 -14t-96 14t-63 45t-34.5 81t-10.5 122v448h22v-450q0 -66 9 -111.5t30 -74t56 -41.5t87 -13t87 13t56 41.5t30 74t9 111.5v450h72v111h20v-105q0 -15 -4.5 -19.5t-19.5 -4.5h-46v-430v0zM205 919l19 12l99 -154l-15 -10
z" />
    <glyph glyph-name="uni1EEB" unicode="&#x1eeb;" horiz-adv-x="501" 
d="M389 76q-13 -38 -52 -63t-95 -25q-72 0 -110 42.5t-38 123.5v352h21v-352q0 -69 33 -108t95 -39q30 0 57.5 9.5t48.5 27.5t33.5 44t12.5 59v359h72v111h20v-105q0 -15 -4.5 -19.5t-19.5 -4.5h-47v-488h-21v76h-6v0zM168 739l19 12l99 -154l-15 -10z" />
    <glyph glyph-name="uni1EEC" unicode="&#x1eec;" horiz-adv-x="588" 
d="M498 250q0 -72 -10.5 -122t-34.5 -81t-63 -45t-96 -14t-96 14t-63 45t-34.5 81t-10.5 122v448h22v-450q0 -66 9 -111.5t30 -74t56 -41.5t87 -13t87 13t56 41.5t30 74t9 111.5v450h72v111h20v-105q0 -15 -4.5 -19.5t-19.5 -4.5h-46v-430v0zM225 917h123q23 0 23 -18
q0 -6 -4 -14t-18 -31l-51 -89l-15 8l69 126h-127v18z" />
    <glyph glyph-name="uni1EED" unicode="&#x1eed;" horiz-adv-x="501" 
d="M389 76q-13 -38 -52 -63t-95 -25q-72 0 -110 42.5t-38 123.5v352h21v-352q0 -69 33 -108t95 -39q30 0 57.5 9.5t48.5 27.5t33.5 44t12.5 59v359h72v111h20v-105q0 -15 -4.5 -19.5t-19.5 -4.5h-47v-488h-21v76h-6v0zM187 737h123q23 0 23 -18q0 -6 -4 -14t-18 -31l-51 -89
l-15 8l69 126h-127v18z" />
    <glyph glyph-name="uni1EEE" unicode="&#x1eee;" horiz-adv-x="588" 
d="M498 250q0 -72 -10.5 -122t-34.5 -81t-63 -45t-96 -14t-96 14t-63 45t-34.5 81t-10.5 122v448h22v-450q0 -66 9 -111.5t30 -74t56 -41.5t87 -13t87 13t56 41.5t30 74t9 111.5v450h72v111h20v-105q0 -15 -4.5 -19.5t-19.5 -4.5h-46v-430v0zM357 808q-16 0 -31 6.5
t-38 23.5q-20 14 -33.5 20t-26.5 6q-17 0 -30.5 -8t-27.5 -25l-12 13q17 20 33.5 29t36.5 9q16 0 31 -6.5t38 -23.5q20 -14 33.5 -20t26.5 -6q17 0 30.5 8t27.5 25l12 -13q-17 -20 -33.5 -29t-36.5 -9z" />
    <glyph glyph-name="uni1EEF" unicode="&#x1eef;" horiz-adv-x="501" 
d="M389 76q-13 -38 -52 -63t-95 -25q-72 0 -110 42.5t-38 123.5v352h21v-352q0 -69 33 -108t95 -39q30 0 57.5 9.5t48.5 27.5t33.5 44t12.5 59v359h72v111h20v-105q0 -15 -4.5 -19.5t-19.5 -4.5h-47v-488h-21v76h-6v0zM320 628q-16 0 -31 6.5t-38 23.5q-20 14 -33.5 20
t-26.5 6q-17 0 -30.5 -8t-27.5 -25l-12 13q17 20 33.5 29t36.5 9q16 0 31 -6.5t38 -23.5q20 -14 33.5 -20t26.5 -6q17 0 30.5 8t27.5 25l12 -13q-17 -20 -33.5 -29t-36.5 -9z" />
    <glyph glyph-name="uni1EF0" unicode="&#x1ef0;" horiz-adv-x="588" 
d="M498 250q0 -72 -10.5 -122t-34.5 -81t-63 -45t-96 -14t-96 14t-63 45t-34.5 81t-10.5 122v448h22v-450q0 -66 9 -111.5t30 -74t56 -41.5t87 -13t87 13t56 41.5t30 74t9 111.5v450h72v111h20v-105q0 -15 -4.5 -19.5t-19.5 -4.5h-46v-430v0zM296 -134q-13 0 -18 6.5
t-5 14.5v7q0 8 5 14.5t18 6.5t18 -6.5t5 -14.5v-7q0 -8 -5 -14.5t-18 -6.5z" />
    <glyph glyph-name="uni1EF1" unicode="&#x1ef1;" horiz-adv-x="501" 
d="M389 76q-13 -38 -52 -63t-95 -25q-72 0 -110 42.5t-38 123.5v352h21v-352q0 -69 33 -108t95 -39q30 0 57.5 9.5t48.5 27.5t33.5 44t12.5 59v359h72v111h20v-105q0 -15 -4.5 -19.5t-19.5 -4.5h-47v-488h-21v76h-6v0zM248 -134q-13 0 -18 6.5t-5 14.5v7q0 8 5 14.5t18 6.5
t18 -6.5t5 -14.5v-7q0 -8 -5 -14.5t-18 -6.5z" />
    <glyph glyph-name="Ygrave" unicode="&#x1ef2;" horiz-adv-x="493" 
d="M235 0v294l-216 404h24l200 -374h6l200 374h24l-216 -404v-294h-22zM159 919l19 12l99 -154l-15 -10z" />
    <glyph glyph-name="ygrave" unicode="&#x1ef3;" horiz-adv-x="408" 
d="M364 506h22l-224 -687q-4 -11 -9.5 -15t-16.5 -4h-84v19h89l52 162l-171 525h22l105 -322l53 -165h4l53 165zM119 739l19 12l99 -154l-15 -10z" />
    <glyph glyph-name="uni1EF4" unicode="&#x1ef4;" horiz-adv-x="493" 
d="M235 0v294l-216 404h24l200 -374h6l200 374h24l-216 -404v-294h-22zM247 -134q-13 0 -18 6.5t-5 14.5v7q0 8 5 14.5t18 6.5t18 -6.5t5 -14.5v-7q0 -8 -5 -14.5t-18 -6.5z" />
    <glyph glyph-name="uni1EF5" unicode="&#x1ef5;" horiz-adv-x="408" 
d="M364 506h22l-224 -687q-4 -11 -9.5 -15t-16.5 -4h-84v19h89l52 162l-171 525h22l105 -322l53 -165h4l53 165zM322 -134q-13 0 -18 6.5t-5 14.5v7q0 8 5 14.5t18 6.5t18 -6.5t5 -14.5v-7q0 -8 -5 -14.5t-18 -6.5z" />
    <glyph glyph-name="uni1EF6" unicode="&#x1ef6;" horiz-adv-x="493" 
d="M235 0v294l-216 404h24l200 -374h6l200 374h24l-216 -404v-294h-22zM178 917h123q23 0 23 -18q0 -6 -4 -14t-18 -31l-51 -89l-15 8l69 126h-127v18z" />
    <glyph glyph-name="uni1EF7" unicode="&#x1ef7;" horiz-adv-x="408" 
d="M364 506h22l-224 -687q-4 -11 -9.5 -15t-16.5 -4h-84v19h89l52 162l-171 525h22l105 -322l53 -165h4l53 165zM138 737h123q23 0 23 -18q0 -6 -4 -14t-18 -31l-51 -89l-15 8l69 126h-127v18z" />
    <glyph glyph-name="uni1EF8" unicode="&#x1ef8;" horiz-adv-x="493" 
d="M235 0v294l-216 404h24l200 -374h6l200 374h24l-216 -404v-294h-22zM311 808q-16 0 -31 6.5t-38 23.5q-20 14 -33.5 20t-26.5 6q-17 0 -30.5 -8t-27.5 -25l-12 13q17 20 33.5 29t36.5 9q16 0 31 -6.5t38 -23.5q20 -14 33.5 -20t26.5 -6q17 0 30.5 8t27.5 25l12 -13
q-17 -20 -33.5 -29t-36.5 -9z" />
    <glyph glyph-name="uni1EF9" unicode="&#x1ef9;" horiz-adv-x="408" 
d="M364 506h22l-224 -687q-4 -11 -9.5 -15t-16.5 -4h-84v19h89l52 162l-171 525h22l105 -322l53 -165h4l53 165zM271 628q-16 0 -31 6.5t-38 23.5q-20 14 -33.5 20t-26.5 6q-17 0 -30.5 -8t-27.5 -25l-12 13q17 20 33.5 29t36.5 9q16 0 31 -6.5t38 -23.5q20 -14 33.5 -20
t26.5 -6q17 0 30.5 8t27.5 25l12 -13q-17 -20 -33.5 -29t-36.5 -9z" />
    <glyph glyph-name="endash" unicode="&#x2013;" horiz-adv-x="528" 
d="M32 296v18h464v-18h-464z" />
    <glyph glyph-name="emdash" unicode="&#x2014;" horiz-adv-x="702" 
d="M32 296v18h638v-18h-638z" />
    <glyph glyph-name="quoteleft" unicode="&#x2018;" horiz-adv-x="218" 
d="M109 542q-26 0 -26 24v8q0 48 21 92.5t50 73.5h19q-32 -35 -47 -72.5t-17 -69.5q26 0 26 -24v-8q0 -24 -26 -24z" />
    <glyph glyph-name="quoteright" unicode="&#x2019;" horiz-adv-x="218" 
d="M109 741q26 0 26 -24v-8q0 -48 -21 -92.5t-50 -73.5h-19q32 35 47 72.5t17 69.5q-26 0 -26 24v8q0 24 26 24z" />
    <glyph glyph-name="quotesinglbase" unicode="&#x201a;" horiz-adv-x="218" 
d="M109 64q26 0 26 -24v-8q0 -48 -21 -92.5t-50 -73.5h-19q32 35 47 72.5t17 69.5q-26 0 -26 24v8q0 24 26 24z" />
    <glyph glyph-name="quotedblleft" unicode="&#x201c;" horiz-adv-x="364" 
d="M109 542q-26 0 -26 24v8q0 48 21 92.5t50 73.5h19q-32 -35 -47 -72.5t-17 -69.5q26 0 26 -24v-8q0 -24 -26 -24zM255 542q-26 0 -26 24v8q0 48 21 92.5t50 73.5h19q-32 -35 -47 -72.5t-17 -69.5q26 0 26 -24v-8q0 -24 -26 -24z" />
    <glyph glyph-name="quotedblright" unicode="&#x201d;" horiz-adv-x="364" 
d="M109 741q26 0 26 -24v-8q0 -48 -21 -92.5t-50 -73.5h-19q32 35 47 72.5t17 69.5q-26 0 -26 24v8q0 24 26 24zM255 741q26 0 26 -24v-8q0 -48 -21 -92.5t-50 -73.5h-19q32 35 47 72.5t17 69.5q-26 0 -26 24v8q0 24 26 24z" />
    <glyph glyph-name="quotedblbase" unicode="&#x201e;" horiz-adv-x="364" 
d="M109 64q26 0 26 -24v-8q0 -48 -21 -92.5t-50 -73.5h-19q32 35 47 72.5t17 69.5q-26 0 -26 24v8q0 24 26 24zM255 64q26 0 26 -24v-8q0 -48 -21 -92.5t-50 -73.5h-19q32 35 47 72.5t17 69.5q-26 0 -26 24v8q0 24 26 24z" />
    <glyph glyph-name="dagger" unicode="&#x2020;" horiz-adv-x="505" 
d="M242 -200v687h-190v19h190v234h21v-234h190v-19h-190v-687h-21z" />
    <glyph glyph-name="daggerdbl" unicode="&#x2021;" horiz-adv-x="505" 
d="M242 -200v234h-190v19h190v434h-190v19h190v234h21v-234h190v-19h-190v-434h190v-19h-190v-234h-21z" />
    <glyph glyph-name="bullet" unicode="&#x2022;" horiz-adv-x="306" 
d="M153 220q-84 0 -84 67v34q0 67 84 67t84 -67v-34q0 -67 -84 -67z" />
    <glyph glyph-name="ellipsis" unicode="&#x2026;" horiz-adv-x="652" 
d="M109 -5q-26 0 -26 24v8q0 24 26 24t26 -24v-8q0 -24 -26 -24zM326 -5q-26 0 -26 24v8q0 24 26 24t26 -24v-8q0 -24 -26 -24zM543 -5q-26 0 -26 24v8q0 24 26 24t26 -24v-8q0 -24 -26 -24z" />
    <glyph glyph-name="perthousand" unicode="&#x2030;" horiz-adv-x="1118" 
d="M168 0l436 698h22l-436 -698h-22zM194 326q-61 0 -94.5 44.5t-33.5 147.5t33.5 147.5t94.5 44.5t94.5 -44.5t33.5 -147.5t-33.5 -147.5t-94.5 -44.5zM194 343q51 0 79 36.5t28 116.5v44q0 80 -28 116.5t-79 36.5t-79 -36.5t-28 -116.5v-44q0 -80 28 -116.5t79 -36.5z
M600 -12q-62 0 -95 44.5t-33 147.5t33 147.5t95 44.5t95 -44.5t33 -147.5t-33 -147.5t-95 -44.5zM600 5q51 0 79 36.5t28 116.5v44q0 80 -28 116.5t-79 36.5t-79 -36.5t-28 -116.5v-44q0 -80 28 -116.5t79 -36.5zM924 -12q-62 0 -95 44.5t-33 147.5t33 147.5t95 44.5
t95 -44.5t33 -147.5t-33 -147.5t-95 -44.5zM924 5q51 0 79 36.5t28 116.5v44q0 80 -28 116.5t-79 36.5t-79 -36.5t-28 -116.5v-44q0 -80 28 -116.5t79 -36.5z" />
    <glyph glyph-name="guilsinglleft" unicode="&#x2039;" horiz-adv-x="263" 
d="M219 116l-188 168v20l187 168l10 -15l-172 -161v-4l173 -161z" />
    <glyph glyph-name="guilsinglright" unicode="&#x203a;" horiz-adv-x="263" 
d="M44 472l188 -168v-20l-187 -168l-10 15l172 161v4l-173 161z" />
    <glyph glyph-name="fraction" unicode="&#x2044;" horiz-adv-x="100" 
d="M88 434l153 264h22l-153 -264h-22zM-163 0l147 254h22l-147 -254h-22z" />
    <glyph glyph-name="uni2070" unicode="&#x2070;" horiz-adv-x="320" 
d="M162 323q-65 0 -92.5 45.5t-27.5 145.5t27.5 145t92.5 45q64 0 90 -45.5t26 -144.5q0 -100 -25.5 -145.5t-90.5 -45.5zM162 340q55 0 75.5 38t20.5 105v61q0 67 -20.5 105t-75.5 38t-77.5 -38t-22.5 -105v-61q0 -67 22.5 -105t77.5 -38z" />
    <glyph glyph-name="uni2074" unicode="&#x2074;" horiz-adv-x="320" 
d="M213 329v89h-191v19l179 261h30v-263h59v-17h-59v-89h-18zM213 681h-4l-168 -246h172v246z" />
    <glyph glyph-name="uni2075" unicode="&#x2075;" horiz-adv-x="320" 
d="M258 681h-169l-11 -167h4q14 17 33 27t50 10q107 0 107 -112q0 -59 -30 -87.5t-85 -28.5q-24 0 -41.5 4.5t-30 12t-22 17.5t-17.5 22l14 11q8 -11 16.5 -20.5t19 -16t25 -10t35.5 -3.5q48 0 72.5 23t24.5 60v29q0 38 -21.5 60t-69.5 22q-18 0 -30.5 -2.5t-21.5 -7.5
t-16.5 -12t-15.5 -16l-17 2l11 200h186v-17z" />
    <glyph glyph-name="uni2076" unicode="&#x2076;" horiz-adv-x="320" 
d="M164 323q-25 0 -45.5 7t-35.5 22t-23 39.5t-8 59.5q0 46 13.5 85t33 70t42.5 54t43 38h28q-52 -37 -87 -84t-52 -114h4q22 51 91 51q51 0 80.5 -27.5t29.5 -86.5q0 -57 -30.5 -85.5t-83.5 -28.5zM165 340q40 0 66 20t26 63v28q0 43 -26 63t-66 20q-39 0 -65.5 -20
t-26.5 -63v-28q0 -43 26.5 -63t65.5 -20z" />
    <glyph glyph-name="uni2077" unicode="&#x2077;" horiz-adv-x="320" 
d="M116 329l141 352h-195v-90h-18v107h232v-17l-140 -352h-20z" />
    <glyph glyph-name="uni2078" unicode="&#x2078;" horiz-adv-x="320" 
d="M160 323q-124 0 -124 103q0 45 23.5 65t60.5 27v4q-40 9 -55.5 32.5t-15.5 55.5q0 49 29 71.5t82 22.5t82.5 -22.5t29.5 -71.5q0 -32 -16 -55.5t-56 -32.5v-4q37 -7 60.5 -27t23.5 -65q0 -103 -124 -103zM160 528q48 0 70 18.5t22 49.5v23q0 31 -22 49.5t-70 18.5
t-70 -18.5t-22 -49.5v-23q0 -31 22 -49.5t70 -18.5zM160 340q51 0 78 19t27 54v25q0 35 -27 54t-78 19t-77.5 -19t-26.5 -54v-25q0 -35 26.5 -54t77.5 -19z" />
    <glyph glyph-name="uni2079" unicode="&#x2079;" horiz-adv-x="320" 
d="M268 576q0 -46 -13.5 -85t-33 -70t-43 -54t-42.5 -38h-28q52 37 87 84t52 114h-4q-22 -51 -91 -51q-51 0 -80.5 27.5t-29.5 86.5q0 57 30.5 85.5t83.5 28.5q25 0 45.5 -7t35.5 -22t23 -39.5t8 -59.5zM155 493q39 0 65.5 20t26.5 63v28q0 43 -26.5 63t-65.5 20
q-40 0 -66 -20t-26 -63v-28q0 -43 26 -63t66 -20z" />
    <glyph glyph-name="uni2080" unicode="&#x2080;" horiz-adv-x="320" 
d="M162 -7q-65 0 -92.5 45.5t-27.5 145.5t27.5 145t92.5 45q64 0 90 -45.5t26 -144.5q0 -100 -25.5 -145.5t-90.5 -45.5zM162 10q55 0 75.5 38t20.5 105v61q0 67 -20.5 105t-75.5 38t-77.5 -38t-22.5 -105v-61q0 -67 22.5 -105t77.5 -38z" />
    <glyph glyph-name="uni2081" unicode="&#x2081;" horiz-adv-x="320" 
d="M47 0v17h115v334l-124 -71l-8 14l129 75h22v-352h105v-17h-239z" />
    <glyph glyph-name="uni2082" unicode="&#x2082;" horiz-adv-x="320" 
d="M274 0h-230v20l128 117q72 65 72 118v26q0 33 -20.5 55t-63.5 22q-48 0 -69.5 -21.5t-32.5 -56.5l-16 5q5 18 14 34.5t22.5 29t33.5 19.5t48 7q50 0 77 -27t27 -78q0 -43 -19.5 -75t-61.5 -70l-119 -108h210v-17z" />
    <glyph glyph-name="uni2083" unicode="&#x2083;" horiz-adv-x="320" 
d="M148 200q50 0 70 19t20 53v20q0 30 -20 48t-61 18q-38 0 -57.5 -12t-33.5 -34l-14 10q14 23 38.5 38t66.5 15q49 0 75 -23.5t26 -71.5q0 -38 -20 -60t-52 -26v-4q38 -2 58 -26t20 -62q0 -108 -112 -108q-45 0 -69.5 16.5t-40.5 39.5l14 11q16 -23 35.5 -36.5t60.5 -13.5
q47 0 69.5 21t22.5 59v20q0 35 -20 53.5t-70 18.5h-47v17h41z" />
    <glyph glyph-name="uni2084" unicode="&#x2084;" horiz-adv-x="320" 
d="M213 0v89h-191v19l179 261h30v-263h59v-17h-59v-89h-18zM213 352h-4l-168 -246h172v246z" />
    <glyph glyph-name="uni2085" unicode="&#x2085;" horiz-adv-x="320" 
d="M89 352l-11 -167h4q14 17 33 27t50 10q107 0 107 -112q0 -59 -30 -87.5t-85 -28.5q-24 0 -41.5 4.5t-30 12t-22 17.5t-17.5 22l14 11q8 -11 16.5 -20.5t19 -16t25 -10t35.5 -3.5q48 0 72.5 23t24.5 60v29q0 38 -21.5 60t-69.5 22q-18 0 -30.5 -2.5t-21.5 -7.5t-16.5 -12
t-15.5 -16l-17 2l11 200h186v-17h-169z" />
    <glyph glyph-name="uni2086" unicode="&#x2086;" horiz-adv-x="320" 
d="M164 -6q-25 0 -45.5 7t-35.5 22t-23 39.5t-8 59.5q0 46 13.5 85t33 70t42.5 54t43 38h28q-52 -37 -87 -84t-52 -114h4q22 51 91 51q51 0 80.5 -27.5t29.5 -86.5q0 -57 -30.5 -85.5t-83.5 -28.5zM165 11q40 0 66 20t26 63v28q0 43 -26 63t-66 20q-39 0 -65.5 -20
t-26.5 -63v-28q0 -43 26.5 -63t65.5 -20z" />
    <glyph glyph-name="uni2087" unicode="&#x2087;" horiz-adv-x="320" 
d="M116 0l141 352h-195v-90h-18v107h232v-17l-140 -352h-20z" />
    <glyph glyph-name="uni2088" unicode="&#x2088;" horiz-adv-x="320" 
d="M160 -6q-124 0 -124 103q0 45 23.5 65t60.5 27v4q-40 9 -55.5 32.5t-15.5 55.5q0 49 29 71.5t82 22.5t82.5 -22.5t29.5 -71.5q0 -32 -16 -55.5t-56 -32.5v-4q37 -7 60.5 -27t23.5 -65q0 -103 -124 -103zM160 11q51 0 78 19t27 54v25q0 35 -27 54t-78 19t-77.5 -19
t-26.5 -54v-25q0 -35 26.5 -54t77.5 -19zM160 199q48 0 70 18.5t22 49.5v23q0 31 -22 49.5t-70 18.5t-70 -18.5t-22 -49.5v-23q0 -31 22 -49.5t70 -18.5z" />
    <glyph glyph-name="uni2089" unicode="&#x2089;" horiz-adv-x="320" 
d="M268 247q0 -46 -13.5 -85t-33 -70t-43 -54t-42.5 -38h-28q52 37 87 84t52 114h-4q-22 -51 -91 -51q-51 0 -80.5 27.5t-29.5 86.5q0 57 30.5 85.5t83.5 28.5q25 0 45.5 -7t35.5 -22t23 -39.5t8 -59.5zM155 164q39 0 65.5 20t26.5 63v28q0 43 -26.5 63t-65.5 20
q-40 0 -66 -20t-26 -63v-28q0 -43 26 -63t66 -20z" />
    <glyph glyph-name="uni20A1" unicode="&#x20a1;" horiz-adv-x="550" 
d="M290 -2q-28 1 -52.5 5.5t-46.5 15.5l-11 -101h-19l12 111q-52 32 -81 108.5t-29 211.5q0 88 13 151t37 104t58 63t76 29l9 84h19l-9 -81q9 1 15 1h14q41 0 71 -10l10 90h19l-11 -97q37 -16 61.5 -46t40.5 -72l-19 -9q-14 38 -34.5 65t-50.5 41l-71 -644q67 4 104 37.5
t56 96.5l19 -8q-21 -66 -64 -104t-117 -42l-9 -80h-19zM295 680h-15.5t-15.5 -2l-70 -637q21 -12 46 -17.5t52 -5.5l72 652q-29 10 -69 10zM87 310q0 -99 22.5 -162.5t66.5 -95.5l68 623q-76 -16 -116.5 -85t-40.5 -202v-78z" />
    <glyph glyph-name="uni20A4" unicode="&#x20a4;" horiz-adv-x="522" 
d="M111 427q-5 20 -8 40t-3 43q0 102 48.5 151t136.5 49q68 0 111.5 -28.5t69.5 -77.5l-18 -10q-26 45 -64 70.5t-98 25.5q-80 0 -122 -43.5t-42 -136.5q0 -22 3.5 -42.5t8.5 -40.5h226v-19h-221l22 -68t17 -70h182v-19h-180q1 -8 1.5 -15t0.5 -15q0 -68 -22.5 -118.5
t-66.5 -76.5v-6h369v-20h-387v25q38 29 61.5 75.5t23.5 119.5q0 8 -0.5 15.5t-1.5 15.5h-95v19h93q-6 38 -17.5 71t-21.5 67h-54v19h48z" />
    <glyph glyph-name="uni20A6" unicode="&#x20a6;" horiz-adv-x="602" 
d="M99 261h-85v18h85v140h-85v18h85v261h38l130 -261h212v261h22v-261h85v-18h-85v-140h85v-18h-85v-261h-38l-130 261h-212v-261h-22v261zM324 279l-69 140h-134v-140h203zM479 279v140h-203l69 -140h134zM246 437l-121 241h-4v-241h125zM479 20v241h-125l121 -241h4z" />
    <glyph glyph-name="uni20A8" unicode="&#x20a8;" horiz-adv-x="647" 
d="M97 0v698h120q41 0 68 -11t43 -33.5t22.5 -57t6.5 -81.5q0 -85 -22.5 -129t-84.5 -52l117 -238q25 -52 55 -70t75 -18q44 0 69.5 25.5t25.5 69.5q0 16 -3 29t-10 25t-18.5 24t-29.5 27l-35 30q-21 18 -36 33.5t-24.5 31t-13.5 33t-4 39.5q0 42 23 70t74 28q27 0 49.5 -8
t39.5 -25l-13 -16q-28 29 -75 29q-77 0 -77 -78q0 -38 16 -64t54 -57l36 -30q37 -30 52.5 -56.5t15.5 -64.5q0 -53 -31 -84t-85 -31q-28 0 -49.5 5t-39 16.5t-32.5 31t-30 49.5l-119 242h-10h-98v-332h-22zM217 352q64 0 90 32t26 101v60q0 69 -26 101t-90 32h-98v-326h98z
" />
    <glyph glyph-name="uni20A9" unicode="&#x20a9;" horiz-adv-x="812" 
d="M143 256h-107v18h103l-33 140h-70v18h66l-62 266h24l60 -266h199l64 266h36l65 -266h199l61 266h24l-63 -266h67v-18h-71l-33 -140h104v-18h-108l-59 -256h-36l-63 256h-209l-62 -256h-36zM506 274l-35 140h-132l-33 -140h200zM651 274l32 140h-191l35 -140h124zM285 274
l33 140h-190l32 -140h125zM467 432l-60 246h-4l-59 -246h123zM593 20l54 236h-116l58 -236h4zM223 20l57 236h-116l55 -236h4z" />
    <glyph glyph-name="uni20AA" unicode="&#x20aa;" horiz-adv-x="690" 
d="M255 572h22v-552h187q107 0 107 109v569h22v-569q0 -129 -129 -129h-209v572zM97 0v698h209q129 0 129 -129v-443h-22v443q0 109 -107 109h-187v-678h-22z" />
    <glyph glyph-name="uni20AB" unicode="&#x20ab;" horiz-adv-x="506" 
d="M385 183h-6q-20 -41 -57.5 -63t-86.5 -22q-39 0 -71 12t-54.5 39t-35 69.5t-12.5 104.5q0 61 12.5 104t35 70t54.5 39t71 12q49 0 86.5 -22.5t57.5 -63.5h6v183h-150v19h150v76h21v-76h65v-19h-65v-535h-21v73zM234 117q30 0 57.5 9.5t48.5 27t33 42t12 53.5v148
q0 29 -12 53.5t-33 42t-48.5 27t-57.5 9.5q-67 0 -108 -44t-41 -131v-62q0 -87 41 -131t108 -44zM62 0v20h375v-20h-375z" />
    <glyph glyph-name="Euro" unicode="&#x20ac;" horiz-adv-x="550" 
d="M295 -12q-53 0 -95.5 17.5t-73 59.5t-47 111t-16.5 173q0 103 16.5 172.5t47 111.5t73 59.5t95.5 17.5q77 0 121.5 -37t69.5 -102l-19 -9q-23 63 -63 95.5t-109 32.5q-89 0 -143.5 -60t-62.5 -192h237v-18h-238q-3 -36 -3 -74.5t3 -67.5h238v-18h-237q8 -131 62.5 -191.5
t143.5 -60.5q74 0 114.5 34.5t61.5 101.5l19 -8q-23 -70 -68.5 -109t-126.5 -39z" />
    <glyph glyph-name="uni20AD" unicode="&#x20ad;" horiz-adv-x="514" 
d="M121 0h-22v358h-85v20h85v320h22v-320h86l236 320h26l-175 -235l-63 -85h227v-20h-227l59 -85l189 -273h-26l-246 358h-86v-358z" />
    <glyph glyph-name="uni20AE" unicode="&#x20ae;" horiz-adv-x="523" 
d="M273 253v-253h-22v244l-140 -76v20l140 76v130l-140 -76v20l140 76v264h-226v20h474v-20h-226v-255l140 76v-20l-140 -76v-130l140 76v-20z" />
    <glyph glyph-name="uni20B1" unicode="&#x20b1;" horiz-adv-x="547" 
d="M122 0h-22v394h-85v18h85v130h-85v18h85v138h199q63 0 100 -35t51 -103h82v-18h-79q2 -15 3 -31t1 -33q0 -18 -1 -34.5t-3 -31.5h79v-18h-83q-13 -66 -50 -101t-100 -35h-177v-258zM122 542v-130h309q4 38 4 71t-3 59h-310zM122 560h307q-10 54 -43.5 86t-86.5 32h-177
v-118zM299 278q53 0 86 31t44 85h-307v-116h177z" />
    <glyph glyph-name="uni20B2" unicode="&#x20b2;" horiz-adv-x="581" 
d="M300 -2q-23 0 -44 3l-12 -83h-19l13 86q-87 19 -131 101.5t-44 243.5q0 94 15 160.5t44.5 109t74 62t103.5 19.5q10 0 19 -0.5t18 -1.5l12 82h19l-13 -85q54 -11 87.5 -45t53.5 -86l-19 -9q-17 49 -47 79t-77 41l-49 -343h207v-119q0 -49 -14.5 -89t-42 -68t-66.5 -43
t-88 -15zM87 310q0 -128 39.5 -197.5t114.5 -87.5l93 653q-8 1 -16.5 1.5t-17.5 0.5q-103 0 -158 -70t-55 -222v-78zM301 313l-42 -292q19 -3 41 -3q89 0 139 52.5t50 142.5v100h-188z" />
    <glyph glyph-name="uni20B4" unicode="&#x20b4;" horiz-adv-x="557" 
d="M275 -12q-88 0 -130.5 38t-42.5 120q0 29 11 60t32 54h-103v18h118l150 114l37 28h-305v18h325q23 23 34.5 54t11.5 60q0 70 -33.5 104t-108.5 34q-47 0 -82 -18t-71 -64l-16 14q37 48 78 68t92 20q82 0 122.5 -38t40.5 -120q0 -29 -11 -60t-32 -54h103v-18h-118
l-150 -114l-37 -28h305v-18h-325q-23 -23 -34.5 -54t-11.5 -60q0 -70 36 -104t116 -34q49 0 87.5 17.5t75.5 64.5l16 -14q-38 -49 -82 -68.5t-98 -19.5z" />
    <glyph glyph-name="uni20B5" unicode="&#x20b5;" horiz-adv-x="550" 
d="M295 -2q-12 0 -23 1t-22 3l-12 -84h-19l13 88q-39 9 -70.5 32t-53 64t-33.5 102t-12 145q0 100 16.5 167.5t47 108t73 58t95.5 17.5q10 0 19 -0.5t17 -1.5l12 82h19l-13 -85q53 -12 85 -46t52 -86l-19 -9q-17 49 -46 79.5t-74 41.5l-94 -653q10 -2 20.5 -3t21.5 -1
q74 0 115 34t61 100l19 -8q-22 -69 -68 -107.5t-127 -38.5zM87 310q0 -128 38 -196.5t110 -87.5l93 652q-8 1 -16 1.5t-17 0.5q-100 0 -154 -70t-54 -222v-78z" />
    <glyph glyph-name="uni20B8" unicode="&#x20b8;" horiz-adv-x="542" 
d="M34 680v18h474v-18h-474zM282 530v-530h-22v530h-226v18h474v-18h-226z" />
    <glyph glyph-name="uni20B9" unicode="&#x20b9;" horiz-adv-x="550" 
d="M235 322l222 -322h-26l-220 322h-147v18h193q68 0 101 41.5t33 107.5v21h-327v18h327v3q0 66 -33 107.5t-101 41.5h-193v18h450v-18h-187v-5q38 -16 60.5 -48t25.5 -99h101v-18h-100v-8q0 -40 -9.5 -73t-29 -57t-49 -37t-70.5 -13h-21z" />
    <glyph glyph-name="uni20BA" unicode="&#x20ba;" horiz-adv-x="550" 
d="M137 304l-115 -62v20l115 62v130l-115 -62v20l115 62v224h22v-215l190 103v-20l-190 -103v-130l190 103v-20l-190 -103v-293h124q102 0 149 72t47 203h22q0 -143 -51.5 -219t-164.5 -76h-148v304z" />
    <glyph glyph-name="uni20BD" unicode="&#x20bd;" horiz-adv-x="538" 
d="M121 173v-173h-22v173h-85v18h85v131h-85v20h85v356h247q77 0 114.5 -48t37.5 -140t-37.5 -140t-114.5 -48h-225v-131h225v-18h-225zM121 342h225q33 0 57 11t40 29.5t23.5 44t7.5 54.5v58q0 29 -7.5 54.5t-23.5 44t-40 29.5t-57 11h-225v-336z" />
    <glyph glyph-name="uni20BF" unicode="&#x20bf;" horiz-adv-x="546" 
d="M313 20h-97v-102h-18v102h-101v657h101v103h18v-103h97v103h18v-103q63 -5 95.5 -44t32.5 -117q0 -71 -26 -104t-69 -41v-6q28 -4 51 -14.5t39 -30t24.5 -49.5t8.5 -72q0 -88 -39.5 -133.5t-116.5 -45.5v-102h-18v102zM119 376h197q56 0 87.5 30t31.5 84v53
q0 54 -31.5 84t-87.5 30h-197v-281zM119 40h210q61 0 97.5 35t36.5 97v52q0 62 -36.5 97t-97.5 35h-210v-316z" />
    <glyph glyph-name="uni2113" unicode="&#x2113;" horiz-adv-x="414" 
d="M236 -12q-63 0 -93.5 37.5t-30.5 118.5v55l-63 -49l-11 15l74 58v386q0 70 23 106.5t77 36.5t77 -36.5t23 -106.5q0 -58 -12.5 -114t-36 -107t-56.5 -95t-74 -77v-72q0 -78 26.5 -107.5t77.5 -29.5q76 0 119 110l18 -9q-22 -58 -56.5 -89t-81.5 -31zM212 733
q-39 0 -59 -24.5t-20 -89.5v-379q36 31 65 71.5t49.5 86.5t32 96.5t11.5 101.5v23q0 65 -20 89.5t-59 24.5z" />
    <glyph glyph-name="uni2116" unicode="&#x2116;" horiz-adv-x="911" 
d="M750 366q-61 0 -97 41t-36 131t36 131t97 41t97 -41t36 -131t-36 -131t-97 -41zM97 0v698h38l274 -508l92 -170h4v678h22v-698h-38l-274 508l-92 170h-4v-678h-22zM750 383q55 0 83.5 33.5t28.5 96.5v50q0 63 -28.5 96.5t-83.5 33.5t-83.5 -33.5t-28.5 -96.5v-50
q0 -63 28.5 -96.5t83.5 -33.5zM627 285v19h248v-19h-248z" />
    <glyph glyph-name="trademark" unicode="&#x2122;" horiz-adv-x="575" 
d="M116 430v252h-95v16h209v-16h-95v-252h-19zM292 430v268h26l75 -167h2l75 167h26v-268h-17v246h-3l-82 -182l-82 182h-3v-246h-17z" />
    <glyph glyph-name="Omega" unicode="&#x2126;" horiz-adv-x="646" 
d="M82 20h160v17q-34 13 -64 38.5t-52.5 66.5t-36 99t-13.5 138q0 166 64.5 248.5t182.5 82.5t182.5 -82.5t64.5 -248.5q0 -80 -13.5 -138t-36 -99t-52.5 -66.5t-64 -38.5v-17h160v-20h-180v47q36 15 66 38t51.5 58t33 84t11.5 116v72q0 71 -17.5 123t-47.5 85.5t-70.5 50
t-87.5 16.5t-87.5 -16.5t-70.5 -50t-47.5 -85.5t-17.5 -123v-72q0 -67 11.5 -116t33 -84t51.5 -58t66 -38v-47h-180v20z" />
    <glyph glyph-name="uni212E" unicode="&#x212e;" horiz-adv-x="624" 
d="M89 181q22 -78 80.5 -125.5t142.5 -47.5q89 0 142.5 38t85.5 103l18 -10q-15 -32 -37 -60t-52 -48t-69 -31.5t-88 -11.5q-62 0 -112.5 23t-86.5 68.5t-55.5 113t-19.5 156.5t19.5 156.5t55.5 113t86.5 68.5t112.5 23t112.5 -23t86.5 -68.5t55.5 -113t19.5 -156.5h-497
v-168zM535 369v151q-22 80 -81 125t-142 45t-142 -45t-81 -125v-151h446z" />
    <glyph glyph-name="uni2150" unicode="&#x2150;" horiz-adv-x="740" 
d="M47 329v17h115v334l-124 -71l-8 14l129 75h22v-352h105v-17h-239zM408 434l153 264h22l-153 -264h-22zM157 0l147 254h22l-147 -254h-22zM536 0l141 352h-195v-90h-18v107h232v-17l-140 -352h-20z" />
    <glyph glyph-name="uni2151" unicode="&#x2151;" horiz-adv-x="740" 
d="M47 329v17h115v334l-124 -71l-8 14l129 75h22v-352h105v-17h-239zM408 434l153 264h22l-153 -264h-22zM157 0l147 254h22l-147 -254h-22zM688 247q0 -46 -13.5 -85t-33 -70t-43 -54t-42.5 -38h-28q52 37 87 84t52 114h-4q-22 -51 -91 -51q-51 0 -80.5 27.5t-29.5 86.5
q0 57 30.5 85.5t83.5 28.5q25 0 45.5 -7t35.5 -22t23 -39.5t8 -59.5zM575 164q39 0 65.5 20t26.5 63v28q0 43 -26.5 63t-65.5 20q-40 0 -66 -20t-26 -63v-28q0 -43 26 -63t66 -20z" />
    <glyph glyph-name="uni2153" unicode="&#x2153;" horiz-adv-x="740" 
d="M47 329v17h115v334l-124 -71l-8 14l129 75h22v-352h105v-17h-239zM408 434l153 264h22l-153 -264h-22zM157 0l147 254h22l-147 -254h-22zM568 200q50 0 70 19t20 53v20q0 30 -20 48t-61 18q-38 0 -57.5 -12t-33.5 -34l-14 10q14 23 38.5 38t66.5 15q49 0 75 -23.5
t26 -71.5q0 -38 -20 -60t-52 -26v-4q38 -2 58 -26t20 -62q0 -108 -112 -108q-45 0 -69.5 16.5t-40.5 39.5l14 11q16 -23 35.5 -36.5t60.5 -13.5q47 0 69.5 21t22.5 59v20q0 35 -20 53.5t-70 18.5h-47v17h41z" />
    <glyph glyph-name="uni2154" unicode="&#x2154;" horiz-adv-x="740" 
d="M274 329h-230v20l128 117q72 65 72 118v26q0 33 -20.5 55t-63.5 22q-48 0 -69.5 -21.5t-32.5 -56.5l-16 5q5 18 14 34.5t22.5 29t33.5 19.5t48 7q50 0 77 -27t27 -78q0 -43 -19.5 -75t-61.5 -70l-119 -108h210v-17zM408 434l153 264h22l-153 -264h-22zM157 0l147 254h22
l-147 -254h-22zM568 200q50 0 70 19t20 53v20q0 30 -20 48t-61 18q-38 0 -57.5 -12t-33.5 -34l-14 10q14 23 38.5 38t66.5 15q49 0 75 -23.5t26 -71.5q0 -38 -20 -60t-52 -26v-4q38 -2 58 -26t20 -62q0 -108 -112 -108q-45 0 -69.5 16.5t-40.5 39.5l14 11q16 -23 35.5 -36.5
t60.5 -13.5q47 0 69.5 21t22.5 59v20q0 35 -20 53.5t-70 18.5h-47v17h41z" />
    <glyph glyph-name="uni2155" unicode="&#x2155;" horiz-adv-x="740" 
d="M47 329v17h115v334l-124 -71l-8 14l129 75h22v-352h105v-17h-239zM408 434l153 264h22l-153 -264h-22zM157 0l147 254h22l-147 -254h-22zM509 352l-11 -167h4q14 17 33 27t50 10q107 0 107 -112q0 -59 -30 -87.5t-85 -28.5q-24 0 -41.5 4.5t-30 12t-22 17.5t-17.5 22
l14 11q8 -11 16.5 -20.5t19 -16t25 -10t35.5 -3.5q48 0 72.5 23t24.5 60v29q0 38 -21.5 60t-69.5 22q-18 0 -30.5 -2.5t-21.5 -7.5t-16.5 -12t-15.5 -16l-17 2l11 200h186v-17h-169z" />
    <glyph glyph-name="uni2156" unicode="&#x2156;" horiz-adv-x="740" 
d="M274 329h-230v20l128 117q72 65 72 118v26q0 33 -20.5 55t-63.5 22q-48 0 -69.5 -21.5t-32.5 -56.5l-16 5q5 18 14 34.5t22.5 29t33.5 19.5t48 7q50 0 77 -27t27 -78q0 -43 -19.5 -75t-61.5 -70l-119 -108h210v-17zM408 434l153 264h22l-153 -264h-22zM157 0l147 254h22
l-147 -254h-22zM509 352l-11 -167h4q14 17 33 27t50 10q107 0 107 -112q0 -59 -30 -87.5t-85 -28.5q-24 0 -41.5 4.5t-30 12t-22 17.5t-17.5 22l14 11q8 -11 16.5 -20.5t19 -16t25 -10t35.5 -3.5q48 0 72.5 23t24.5 60v29q0 38 -21.5 60t-69.5 22q-18 0 -30.5 -2.5
t-21.5 -7.5t-16.5 -12t-15.5 -16l-17 2l11 200h186v-17h-169z" />
    <glyph glyph-name="uni2157" unicode="&#x2157;" horiz-adv-x="740" 
d="M148 529q50 0 70 19t20 53v20q0 30 -20 48t-61 18q-38 0 -57.5 -12t-33.5 -34l-14 10q14 23 38.5 38t66.5 15q49 0 75 -23.5t26 -71.5q0 -38 -20 -60t-52 -26v-4q38 -2 58 -26t20 -62q0 -108 -112 -108q-45 0 -69.5 16.5t-40.5 39.5l14 11q16 -23 35.5 -36.5t60.5 -13.5
q47 0 69.5 21t22.5 59v20q0 35 -20 53.5t-70 18.5h-47v17h41zM408 434l153 264h22l-153 -264h-22zM157 0l147 254h22l-147 -254h-22zM509 352l-11 -167h4q14 17 33 27t50 10q107 0 107 -112q0 -59 -30 -87.5t-85 -28.5q-24 0 -41.5 4.5t-30 12t-22 17.5t-17.5 22l14 11
q8 -11 16.5 -20.5t19 -16t25 -10t35.5 -3.5q48 0 72.5 23t24.5 60v29q0 38 -21.5 60t-69.5 22q-18 0 -30.5 -2.5t-21.5 -7.5t-16.5 -12t-15.5 -16l-17 2l11 200h186v-17h-169z" />
    <glyph glyph-name="uni2158" unicode="&#x2158;" horiz-adv-x="740" 
d="M213 329v89h-191v19l179 261h30v-263h59v-17h-59v-89h-18zM213 681h-4l-168 -246h172v246zM408 434l153 264h22l-153 -264h-22zM157 0l147 254h22l-147 -254h-22zM509 352l-11 -167h4q14 17 33 27t50 10q107 0 107 -112q0 -59 -30 -87.5t-85 -28.5q-24 0 -41.5 4.5
t-30 12t-22 17.5t-17.5 22l14 11q8 -11 16.5 -20.5t19 -16t25 -10t35.5 -3.5q48 0 72.5 23t24.5 60v29q0 38 -21.5 60t-69.5 22q-18 0 -30.5 -2.5t-21.5 -7.5t-16.5 -12t-15.5 -16l-17 2l11 200h186v-17h-169z" />
    <glyph glyph-name="uni2159" unicode="&#x2159;" horiz-adv-x="740" 
d="M47 329v17h115v334l-124 -71l-8 14l129 75h22v-352h105v-17h-239zM408 434l153 264h22l-153 -264h-22zM157 0l147 254h22l-147 -254h-22zM584 -6q-25 0 -45.5 7t-35.5 22t-23 39.5t-8 59.5q0 46 13.5 85t33 70t42.5 54t43 38h28q-52 -37 -87 -84t-52 -114h4q22 51 91 51
q51 0 80.5 -27.5t29.5 -86.5q0 -57 -30.5 -85.5t-83.5 -28.5zM585 11q40 0 66 20t26 63v28q0 43 -26 63t-66 20q-39 0 -65.5 -20t-26.5 -63v-28q0 -43 26.5 -63t65.5 -20z" />
    <glyph glyph-name="uni215A" unicode="&#x215a;" horiz-adv-x="740" 
d="M258 681h-169l-11 -167h4q14 17 33 27t50 10q107 0 107 -112q0 -59 -30 -87.5t-85 -28.5q-24 0 -41.5 4.5t-30 12t-22 17.5t-17.5 22l14 11q8 -11 16.5 -20.5t19 -16t25 -10t35.5 -3.5q48 0 72.5 23t24.5 60v29q0 38 -21.5 60t-69.5 22q-18 0 -30.5 -2.5t-21.5 -7.5
t-16.5 -12t-15.5 -16l-17 2l11 200h186v-17zM408 434l153 264h22l-153 -264h-22zM157 0l147 254h22l-147 -254h-22zM584 -6q-25 0 -45.5 7t-35.5 22t-23 39.5t-8 59.5q0 46 13.5 85t33 70t42.5 54t43 38h28q-52 -37 -87 -84t-52 -114h4q22 51 91 51q51 0 80.5 -27.5
t29.5 -86.5q0 -57 -30.5 -85.5t-83.5 -28.5zM585 11q40 0 66 20t26 63v28q0 43 -26 63t-66 20q-39 0 -65.5 -20t-26.5 -63v-28q0 -43 26.5 -63t65.5 -20z" />
    <glyph glyph-name="uni215B" unicode="&#x215b;" horiz-adv-x="740" 
d="M47 329v17h115v334l-124 -71l-8 14l129 75h22v-352h105v-17h-239zM408 434l153 264h22l-153 -264h-22zM157 0l147 254h22l-147 -254h-22zM580 -6q-124 0 -124 103q0 45 23.5 65t60.5 27v4q-40 9 -55.5 32.5t-15.5 55.5q0 49 29 71.5t82 22.5t82.5 -22.5t29.5 -71.5
q0 -32 -16 -55.5t-56 -32.5v-4q37 -7 60.5 -27t23.5 -65q0 -103 -124 -103zM580 11q51 0 78 19t27 54v25q0 35 -27 54t-78 19t-77.5 -19t-26.5 -54v-25q0 -35 26.5 -54t77.5 -19zM580 199q48 0 70 18.5t22 49.5v23q0 31 -22 49.5t-70 18.5t-70 -18.5t-22 -49.5v-23
q0 -31 22 -49.5t70 -18.5z" />
    <glyph glyph-name="uni215C" unicode="&#x215c;" horiz-adv-x="740" 
d="M148 529q50 0 70 19t20 53v20q0 30 -20 48t-61 18q-38 0 -57.5 -12t-33.5 -34l-14 10q14 23 38.5 38t66.5 15q49 0 75 -23.5t26 -71.5q0 -38 -20 -60t-52 -26v-4q38 -2 58 -26t20 -62q0 -108 -112 -108q-45 0 -69.5 16.5t-40.5 39.5l14 11q16 -23 35.5 -36.5t60.5 -13.5
q47 0 69.5 21t22.5 59v20q0 35 -20 53.5t-70 18.5h-47v17h41zM408 434l153 264h22l-153 -264h-22zM157 0l147 254h22l-147 -254h-22zM580 -6q-124 0 -124 103q0 45 23.5 65t60.5 27v4q-40 9 -55.5 32.5t-15.5 55.5q0 49 29 71.5t82 22.5t82.5 -22.5t29.5 -71.5
q0 -32 -16 -55.5t-56 -32.5v-4q37 -7 60.5 -27t23.5 -65q0 -103 -124 -103zM580 11q51 0 78 19t27 54v25q0 35 -27 54t-78 19t-77.5 -19t-26.5 -54v-25q0 -35 26.5 -54t77.5 -19zM580 199q48 0 70 18.5t22 49.5v23q0 31 -22 49.5t-70 18.5t-70 -18.5t-22 -49.5v-23
q0 -31 22 -49.5t70 -18.5z" />
    <glyph glyph-name="uni215D" unicode="&#x215d;" horiz-adv-x="740" 
d="M258 681h-169l-11 -167h4q14 17 33 27t50 10q107 0 107 -112q0 -59 -30 -87.5t-85 -28.5q-24 0 -41.5 4.5t-30 12t-22 17.5t-17.5 22l14 11q8 -11 16.5 -20.5t19 -16t25 -10t35.5 -3.5q48 0 72.5 23t24.5 60v29q0 38 -21.5 60t-69.5 22q-18 0 -30.5 -2.5t-21.5 -7.5
t-16.5 -12t-15.5 -16l-17 2l11 200h186v-17zM408 434l153 264h22l-153 -264h-22zM157 0l147 254h22l-147 -254h-22zM580 -6q-124 0 -124 103q0 45 23.5 65t60.5 27v4q-40 9 -55.5 32.5t-15.5 55.5q0 49 29 71.5t82 22.5t82.5 -22.5t29.5 -71.5q0 -32 -16 -55.5t-56 -32.5v-4
q37 -7 60.5 -27t23.5 -65q0 -103 -124 -103zM580 11q51 0 78 19t27 54v25q0 35 -27 54t-78 19t-77.5 -19t-26.5 -54v-25q0 -35 26.5 -54t77.5 -19zM580 199q48 0 70 18.5t22 49.5v23q0 31 -22 49.5t-70 18.5t-70 -18.5t-22 -49.5v-23q0 -31 22 -49.5t70 -18.5z" />
    <glyph glyph-name="uni215E" unicode="&#x215e;" horiz-adv-x="740" 
d="M116 329l141 352h-195v-90h-18v107h232v-17l-140 -352h-20zM408 434l153 264h22l-153 -264h-22zM157 0l147 254h22l-147 -254h-22zM580 -6q-124 0 -124 103q0 45 23.5 65t60.5 27v4q-40 9 -55.5 32.5t-15.5 55.5q0 49 29 71.5t82 22.5t82.5 -22.5t29.5 -71.5
q0 -32 -16 -55.5t-56 -32.5v-4q37 -7 60.5 -27t23.5 -65q0 -103 -124 -103zM580 11q51 0 78 19t27 54v25q0 35 -27 54t-78 19t-77.5 -19t-26.5 -54v-25q0 -35 26.5 -54t77.5 -19zM580 199q48 0 70 18.5t22 49.5v23q0 31 -22 49.5t-70 18.5t-70 -18.5t-22 -49.5v-23
q0 -31 22 -49.5t70 -18.5z" />
    <glyph glyph-name="uni2190" unicode="&#x2190;" horiz-adv-x="740" 
d="M192 532l15 -15l-101 -101l-56 -49l3 -6l88 4h584v-20h-584l-88 4l-3 -6l56 -49l101 -101l-15 -15l-177 177z" />
    <glyph glyph-name="uni2191" unicode="&#x2191;" horiz-adv-x="740" 
d="M547 533l-15 -15l-101 101l-49 56l-6 -3l4 -88v-584h-20v584l4 88l-6 3l-49 -56l-101 -101l-15 15l177 177z" />
    <glyph glyph-name="uni2192" unicode="&#x2192;" horiz-adv-x="740" 
d="M548 178l-15 15l101 101l56 49l-3 6l-88 -4h-584v20h584l88 -4l3 6l-56 49l-101 101l15 15l177 -177z" />
    <glyph glyph-name="uni2193" unicode="&#x2193;" horiz-adv-x="740" 
d="M193 165l15 15l101 -101l49 -56l6 3l-4 88v584h20v-584l-4 -88l6 -3l49 56l101 101l15 -15l-177 -177z" />
    <glyph glyph-name="uni2194" unicode="&#x2194;" horiz-adv-x="740" 
d="M186 532l15 -15l-101 -101l-56 -49l3 -6l88 4h470l88 -4l3 6l-56 49l-101 101l15 15l177 -177l-177 -177l-15 15l101 101l56 49l-3 6l-88 -4h-470l-88 4l-3 -6l56 -49l101 -101l-15 -15l-177 177z" />
    <glyph glyph-name="uni2195" unicode="&#x2195;" horiz-adv-x="740" 
d="M193 165l15 15l101 -101l49 -56l6 3l-4 88v470l4 88l-6 3l-49 -56l-101 -101l-15 15l177 177l177 -177l-15 -15l-101 101l-49 56l-6 -3l4 -88v-470l-4 -88l6 -3l49 56l101 101l15 -15l-177 -177z" />
    <glyph glyph-name="uni2196" unicode="&#x2196;" horiz-adv-x="740" 
d="M366 606v-21h-143l-74 5l-2 -7l65 -59l413 -413l-14 -14l-413 413l-59 65l-7 -2l5 -74v-143h-21v250h250z" />
    <glyph glyph-name="uni2197" unicode="&#x2197;" horiz-adv-x="740" 
d="M624 356h-21v143l5 74l-7 2l-59 -65l-413 -413l-14 14l413 413l65 59l-2 7l-74 -5h-143v21h250v-250z" />
    <glyph glyph-name="uni2198" unicode="&#x2198;" horiz-adv-x="740" 
d="M374 97v21h143l74 -5l2 7l-65 59l-413 413l14 14l413 -413l59 -65l7 2l-5 74v143h21v-250h-250z" />
    <glyph glyph-name="uni2199" unicode="&#x2199;" horiz-adv-x="740" 
d="M116 347h21v-143l-5 -74l7 -2l59 65l413 413l14 -14l-413 -413l-65 -59l2 -7l74 5h143v-21h-250v250z" />
    <glyph glyph-name="uni21A9" unicode="&#x21a9;" horiz-adv-x="740" 
d="M222 453l15 -15l-101 -101l-56 -49l3 -6l88 4h343q73 0 116 40.5t43 109.5t-43 110.5t-116 41.5v18q41 0 74.5 -12t57 -34.5t36.5 -54t13 -69.5t-13 -69.5t-36.5 -54t-57 -34.5t-74.5 -12h-343l-88 4l-3 -6l56 -49l101 -101l-15 -15l-177 177z" />
    <glyph glyph-name="uni21AA" unicode="&#x21aa;" horiz-adv-x="740" 
d="M518 99l-15 15l101 101l56 49l-3 6l-88 -4h-343q-41 0 -74.5 12t-57 34.5t-36.5 54t-13 69.5t13 69.5t36.5 54t57 34.5t74.5 12v-18q-73 0 -116 -41.5t-43 -110.5t43 -109.5t116 -40.5h343l88 -4l3 6l-56 49l-101 101l15 15l177 -177z" />
    <glyph glyph-name="uni21B0" unicode="&#x21b0;" horiz-adv-x="740" 
d="M266 710l15 -15l-101 -101l-56 -49l3 -6l88 4h344v-543h-20v523h-324l-88 4l-3 -6l56 -49l101 -101l-15 -15l-177 177z" />
    <glyph glyph-name="uni21B1" unicode="&#x21b1;" horiz-adv-x="740" 
d="M474 356l-15 15l101 101l56 49l-3 6l-88 -4h-324v-523h-20v543h344l88 -4l3 6l-56 49l-101 101l15 15l177 -177z" />
    <glyph glyph-name="uni21B2" unicode="&#x21b2;" horiz-adv-x="740" 
d="M266 342l15 -15l-101 -101l-56 -49l3 -6l88 4h324v523h20v-543h-344l-88 4l-3 -6l56 -49l101 -101l-15 -15l-177 177z" />
    <glyph glyph-name="uni21B3" unicode="&#x21b3;" horiz-adv-x="740" 
d="M474 -12l-15 15l101 101l56 49l-3 6l-88 -4h-344v543h20v-523h324l88 -4l3 6l-56 49l-101 101l15 15l177 -177z" />
    <glyph glyph-name="uni21B6" unicode="&#x21b6;" horiz-adv-x="740" 
d="M9 225l15 15l101 -101l49 -56l6 3l-4 88v224q0 57 20.5 105t56 83t84.5 54.5t106 19.5t106 -19.5t84.5 -54.5t56 -83t20.5 -105h-20q0 52 -19 97t-52 77.5t-78 51t-98 18.5t-98 -18.5t-78 -51t-52 -77.5t-19 -97v-224l-4 -88l6 -3l49 56l101 101l15 -15l-177 -177z" />
    <glyph glyph-name="uni21B7" unicode="&#x21b7;" horiz-adv-x="740" 
d="M377 225l15 15l101 -101l49 -56l6 3l-4 88v224q0 52 -19 97t-52 77.5t-78 51t-98 18.5t-98 -18.5t-78 -51t-52 -77.5t-19 -97h-20q0 57 20.5 105t56 83t84.5 54.5t106 19.5t106 -19.5t84.5 -54.5t56 -83t20.5 -105v-224l-4 -88l6 -3l49 56l101 101l15 -15l-177 -177z" />
    <glyph glyph-name="uni21BA" unicode="&#x21ba;" horiz-adv-x="740" 
d="M625 698v-21h-143l-74 5l-2 -7l65 -60q49 -45 86.5 -81t62.5 -72t37.5 -76.5t12.5 -95.5q0 -65 -22.5 -120t-62.5 -95.5t-95 -63.5t-120 -23t-120 22.5t-94.5 63t-62.5 96t-23 120.5q0 66 22.5 120.5t63.5 93.5l15 -15q-38 -37 -58.5 -87.5t-20.5 -111.5t21.5 -113.5
t58.5 -90t87.5 -59t110.5 -21.5t110.5 21.5t88 59.5t58.5 90t21 113q0 58 -13.5 97.5t-38.5 72.5t-59.5 65.5t-77.5 77.5l-61 64l-7 -2l5 -74v-143h-21v250h250z" />
    <glyph glyph-name="uni21BB" unicode="&#x21bb;" horiz-adv-x="740" 
d="M365 448h-21v143l5 74l-7 2l-61 -64q-43 -45 -78 -77.5t-59.5 -65.5t-38 -72.5t-13.5 -97.5q0 -61 21 -113t58.5 -90t88 -59.5t110.5 -21.5t110.5 21.5t87.5 59t58.5 90t21.5 113.5t-20.5 111.5t-58.5 87.5l15 15q41 -39 63.5 -93.5t22.5 -120.5q0 -65 -23 -120.5
t-62.5 -95.5t-94.5 -63t-120 -23t-120 23t-95 63.5t-62.5 95.5t-22.5 120q0 55 12.5 95.5t37.5 76.5t62.5 72t86.5 81l65 60l-2 7l-74 -5h-143v21h250v-250z" />
    <glyph glyph-name="uni21C4" unicode="&#x21c4;" horiz-adv-x="740" 
d="M548 356l-15 15l101 101l56 49l-3 6l-88 -4h-584v20h584l88 -4l3 6l-56 49l-101 101l15 15l177 -177zM192 343l15 -15l-101 -101l-56 -49l3 -6l88 4h584v-20h-584l-88 4l-3 -6l56 -49l101 -101l-15 -15l-177 177z" />
    <glyph glyph-name="uni21C6" unicode="&#x21c6;" horiz-adv-x="740" 
d="M192 710l15 -15l-101 -101l-56 -49l3 -6l88 4h584v-20h-584l-88 4l-3 -6l56 -49l101 -101l-15 -15l-177 177zM548 -11l-15 15l101 101l56 49l-3 6l-88 -4h-584v20h584l88 -4l3 6l-56 49l-101 101l15 15l177 -177z" />
    <glyph glyph-name="partialdiff" unicode="&#x2202;" horiz-adv-x="519" 
d="M447 246q0 -258 -190 -258t-190 258t190 258q52 0 85.5 -20.5t53.5 -58.5h6q-15 44 -41 83.5t-60 74t-74.5 63.5t-83.5 52h39q39 -24 85 -57.5t86 -85.5t67 -127.5t27 -181.5zM257 7q82 0 124.5 54t42.5 154v62q0 100 -42.5 154t-124.5 54t-124.5 -54t-42.5 -154v-62
q0 -100 42.5 -154t124.5 -54z" />
    <glyph glyph-name="Delta" unicode="&#x2206;" horiz-adv-x="542" 
d="M35 19l219 679h32l220 -679v-19h-471v19zM342 461l-70 217h-4l-69 -217l-141 -441h425z" />
    <glyph glyph-name="product" unicode="&#x220f;" horiz-adv-x="637" 
d="M128 -200v878h-66v20h513v-20h-66v-878h-22v878h-337v-878h-22z" />
    <glyph glyph-name="summation" unicode="&#x2211;" horiz-adv-x="435" 
d="M402 -200h-388v18l272 428v6l-272 428v18h388v-20h-360l268 -423v-12l-268 -423h360v-20z" />
    <glyph glyph-name="minus" unicode="&#x2212;" 
d="M56 296v19h428v-19h-428z" />
    <glyph glyph-name="radical" unicode="&#x221a;" 
d="M258 0l-133 487h-95v19h112l87 -322l44 -165h4l44 165l139 514h22l-190 -698h-34z" />
    <glyph glyph-name="infinity" unicode="&#x221e;" horiz-adv-x="659" 
d="M172 126q-75 0 -111 43t-36 136t36 136t111 43q59 0 101 -42t58 -114h6q13 72 54 114t96 42q75 0 111 -43t36 -136t-36 -136t-111 -43q-59 0 -101 42t-58 114h-6q-13 -72 -54 -114t-96 -42zM170 145q51 0 90 40t59 120q-20 85 -59 122.5t-90 37.5q-57 0 -90 -32.5
t-33 -101.5v-52q0 -69 33 -101.5t90 -32.5zM489 145q57 0 90 32.5t33 101.5v52q0 69 -33 101.5t-90 32.5q-51 0 -89.5 -40t-58.5 -120q20 -85 58.5 -122.5t89.5 -37.5z" />
    <glyph glyph-name="integral" unicode="&#x222b;" horiz-adv-x="322" 
d="M45 -181h106v893q0 15 6 21.5t21 6.5h99v-19h-105v-894q0 -15 -6 -21t-21 -6h-100v19z" />
    <glyph glyph-name="approxequal" unicode="&#x2248;" 
d="M381 339q-13 0 -25 2t-25.5 7t-29.5 12t-37 18q-38 20 -60 28.5t-46 8.5q-28 0 -47.5 -9.5t-39.5 -32.5l-13 14q22 25 45.5 36.5t55.5 11.5q25 0 50 -9t67 -30q38 -20 60 -28.5t46 -8.5q28 0 47.5 9.5t39.5 32.5l13 -14q-22 -25 -45.5 -36.5t-55.5 -11.5zM381 174
q-13 0 -25 2t-25.5 7t-29.5 12t-37 18q-38 20 -60 28.5t-46 8.5q-28 0 -47.5 -9.5t-39.5 -32.5l-13 14q22 25 45.5 36.5t55.5 11.5q25 0 50 -9t67 -30q38 -20 60 -28.5t46 -8.5q28 0 47.5 9.5t39.5 32.5l13 -14q-22 -25 -45.5 -36.5t-55.5 -11.5z" />
    <glyph glyph-name="notequal" unicode="&#x2260;" 
d="M143 92l63 115h-150v19h160l87 159h-247v19h257l63 115h21l-63 -115h150v-19h-160l-87 -159h247v-19h-257l-63 -115h-21z" />
    <glyph glyph-name="lessequal" unicode="&#x2264;" 
d="M77 0v19h386v-19h-386zM463 569l-364 -221v-6l364 -221v-23l-386 236v22l386 236v-23z" />
    <glyph glyph-name="greaterequal" unicode="&#x2265;" 
d="M77 121l364 221v6l-364 221v23l386 -236v-22l-386 -236v23zM77 19h386v-19h-386v19z" />
    <glyph glyph-name="lozenge" unicode="&#x25ca;" 
d="M258 0l-208 349l208 349h24l208 -349l-208 -349h-24zM273 20l194 329l-194 329h-6l-194 -329l194 -329h6z" />
    <glyph glyph-name="uni2713" unicode="&#x2713;" horiz-adv-x="800" 
d="M373 0h-29l-231 485l19 9l148 -310l75 -164h6l75 164l240 502l19 -9z" />
    <glyph glyph-name="uni274C" unicode="&#x274c;" horiz-adv-x="800" 
d="M656 12l-256 320l-256 -320l-18 12l260 325l-260 325l18 12l256 -320l256 320l18 -12l-260 -325l260 -325z" />
    <glyph glyph-name="uni2B0E" unicode="&#x2b0e;" horiz-adv-x="740" 
d="M371 319l15 15l101 -101l49 -56l6 3l-4 88v324h-523v20h543v-344l-4 -88l6 -3l49 56l101 101l15 -15l-177 -177z" />
    <glyph glyph-name="uni2B0F" unicode="&#x2b0f;" horiz-adv-x="740" 
d="M725 447l-15 -15l-101 101l-49 56l-6 -3l4 -88v-344h-543v20h523v324l4 88l-6 3l-49 -56l-101 -101l-15 15l177 177z" />
    <glyph glyph-name="uni2B10" unicode="&#x2b10;" horiz-adv-x="740" 
d="M15 319l15 15l101 -101l49 -56l6 3l-4 88v344h543v-20h-523v-324l-4 -88l6 -3l49 56l101 101l15 -15l-177 -177z" />
    <glyph glyph-name="uni2B11" unicode="&#x2b11;" horiz-adv-x="740" 
d="M369 447l-15 -15l-101 101l-49 56l-6 -3l4 -88v-324h523v-20h-543v344l4 88l-6 3l-49 -56l-101 -101l-15 15l177 177z" />
    <glyph glyph-name="uniEBE7" unicode="&#xebe7;" horiz-adv-x="644" 
d="M488 160q-20 0 -34.5 11.5t-19.5 31.5l-38 142l121 -82q27 -19 27 -48q0 -23 -16.5 -39t-39.5 -16zM156 160q-23 0 -39.5 16t-16.5 39q0 29 27 48l121 82l-38 -142q-5 -20 -19.5 -31.5t-34.5 -11.5zM396 252h-148v37h148v-37zM396 178h-148v37h148v-37zM322 104
q-20 0 -37.5 10t-26.5 27h128q-9 -17 -26.5 -27t-37.5 -10zM322 363q20 0 37.5 -10t26.5 -27h-128q9 17 26.5 27t37.5 10zM364 373q-14 0 -23.5 9t-9.5 23t9.5 23t23.5 9t23.5 -9t9.5 -23t-9.5 -23t-23.5 -9zM280 373q-14 0 -23.5 9t-9.5 23t9.5 23t23.5 9t23.5 -9t9.5 -23
t-9.5 -23t-23.5 -9zM174 2v19h116l7 -19h-123zM347 2l7 19h116v-19h-123zM174 39v19h104l6 -19h-110zM360 39l6 19h104v-19h-110zM335 -35l6 19h92v-19h-98zM211 -35v19h92l6 -19h-98zM174 -183v19h93v-19h-93zM377 -183v19h93v-19h-93zM174 -220v19h93v-19h-93zM377 -220
v19h93v-19h-93zM279 -90h86l-6 -19h-74zM377 -109v19h56v-19h-56zM377 -72v19h56v-19h-56zM377 -146v19h56v-19h-56zM211 -109v19h56v-19h-56zM211 -72v19h56v-19h-56zM211 -146v19h56v-19h-56zM291 -127h62l-7 -19h-48zM273 -72l-6 19h48l7 -19h-49zM322 -72l7 19h48
l-6 -19h-49zM304 -164h36l-6 -19h-24zM316 -201h12l-6 -19zM285 586q0 16 10.5 26.5t26.5 10.5t26.5 -10.5t10.5 -26.5t-10.5 -26.5t-26.5 -10.5t-26.5 10.5t-10.5 26.5zM239 586q0 -35 24 -59t59 -24t59 24t24 59t-24 59t-59 24t-59 -24t-24 -59zM470 586
q-18 -45 -58 -73.5t-90 -28.5t-90 28.5t-58 73.5q18 45 58 73.5t90 28.5t90 -28.5t58 -73.5zM322 734q-42 0 -78 -18t-61 -47v28q21 38 57.5 60.5t81.5 22.5t81.5 -22.5t57.5 -60.5v-28q-25 29 -61 47t-78 18z" />
    <glyph glyph-name="uniECE0" unicode="&#xece0;" horiz-adv-x="1177" 
d="M1044 604q-45 0 -86 -15t-74 -42t-56 -63.5t-32 -79.5h209v-110h-209q9 -43 32 -79.5t56 -63.5t74 -42t86 -15q19 0 37 3v-107q-6 -1 -16.5 -1.5t-21.5 -0.5q-74 0 -139 28.5t-114 77.5t-77.5 114.5t-28.5 140.5t28.5 140.5t77.5 114.5t114 77.5t139 28.5q11 0 21.5 -0.5
t16.5 -1.5v-107q-18 3 -37 3zM170 349q0 -53 20 -99t54.5 -81t81 -55t98.5 -20q19 0 37 3v-107q-6 -1 -16.5 -1.5t-21.5 -0.5q-74 0 -139 28.5t-114 77.5t-77.5 114.5t-28.5 140.5t28.5 140.5t77.5 114.5t114 77.5t139 28.5q11 0 21.5 -0.5t16.5 -1.5v-107q-18 3 -37 3
q-52 0 -98.5 -20t-81 -55t-54.5 -81.5t-20 -98.5z" />
    <glyph glyph-name="uniEFCC" unicode="&#xefcc;" horiz-adv-x="1046" 
d="M563 349q0 -28 10 -52t27 -41.5t40.5 -27.5t49.5 -10q34 0 62 16t45 42l63 -45q-29 -41 -72.5 -64.5t-95.5 -23.5q-43 0 -80.5 16t-65.5 44t-44 65.5t-16 80.5t16 80.5t44 65.5t65.5 44t80.5 16q52 0 95.5 -23.5t72.5 -64.5l-63 -45q-17 26 -45 42t-62 16
q-26 0 -49.5 -10t-40.5 -27.5t-27 -41.5t-10 -52zM200 54l-72 -52v696h303l-61 -76h-170v-235h136q7 67 37.5 125.5t78.5 102t109.5 68t131.5 24.5q89 0 164 -40t125 -109l-63 -46q-18 25 -42 47t-53.5 38.5t-63 25.5t-69.5 9q-54 0 -104.5 -20.5t-89.5 -58t-62.5 -89.5
t-23.5 -115t23.5 -115t62.5 -89.5t89.5 -58t104.5 -20.5q36 0 69.5 9t63 25.5t53.5 38t42 47.5l63 -46q-50 -69 -125 -109t-164 -40q-70 0 -131.5 24.5t-109.5 68t-78.5 101.5t-37.5 126h-136v-257z" />
    <glyph glyph-name="dieresisacute" unicode="&#xf6d7;" horiz-adv-x="0" 
d="M8 697l-15 10l99 154l19 -12zM-82 634q-13 0 -18 6.5t-5 14.5v7q0 8 5 14.5t18 6.5t18 -6.5t5 -14.5v-7q0 -8 -5 -14.5t-18 -6.5zM82 634q-13 0 -18 6.5t-5 14.5v7q0 8 5 14.5t18 6.5t18 -6.5t5 -14.5v-7q0 -8 -5 -14.5t-18 -6.5z" />
    <glyph glyph-name="dieresisgrave" unicode="&#xf6d8;" horiz-adv-x="0" 
d="M-110 849l19 12l99 -154l-15 -10zM-82 634q-13 0 -18 6.5t-5 14.5v7q0 8 5 14.5t18 6.5t18 -6.5t5 -14.5v-7q0 -8 -5 -14.5t-18 -6.5zM82 634q-13 0 -18 6.5t-5 14.5v7q0 8 5 14.5t18 6.5t18 -6.5t5 -14.5v-7q0 -8 -5 -14.5t-18 -6.5z" />
    <glyph glyph-name="fl" unicode="&#xfb02;" horiz-adv-x="485" 
d="M110 487h-85v19h85v207q0 15 6 21t21 6h99v-19h-105v-215h105v-19h-105v-487h-21v487zM379 0q-15 0 -21 6t-6 21v713h21v-721h76v-19h-70z" />
    <glyph glyph-name="a.alt01" horiz-adv-x="509" 
d="M394 78h-6q-14 -40 -51 -65t-93 -25q-91 0 -140.5 63.5t-49.5 201.5t49.5 201.5t140.5 63.5q56 0 93 -24t51 -64h6v76h21v-506h-21v78zM244 7q32 0 59.5 9.5t47.5 27.5t31.5 44t11.5 59v212q0 33 -11.5 59t-31.5 44t-47.5 27.5t-59.5 9.5q-81 0 -124 -56t-43 -156v-68
q0 -100 43 -156t124 -56z" />
    <glyph glyph-name="g.alt01" horiz-adv-x="509" 
d="M415 -21q0 -98 -46 -144.5t-134 -46.5q-58 0 -93 17t-63 49l14 16q25 -30 56.5 -46.5t85.5 -16.5q78 0 118.5 40.5t40.5 131.5v99h-6q-14 -40 -51 -65t-93 -25q-91 0 -140.5 63.5t-49.5 201.5t49.5 201.5t140.5 63.5q56 0 93 -24t51 -64h6v76h21v-527zM244 7
q32 0 59.5 9.5t47.5 27.5t31.5 44t11.5 59v212q0 33 -11.5 59t-31.5 44t-47.5 27.5t-59.5 9.5q-81 0 -124 -56t-43 -156v-68q0 -100 43 -156t124 -56z" />
    <glyph glyph-name="g.alt02" horiz-adv-x="474" 
d="M452 -64q0 -80 -53 -114t-163 -34q-52 0 -88 9t-59 25.5t-33.5 41t-10.5 56.5q0 51 23 77t65 38v6q-23 6 -35 24.5t-12 44.5q0 32 22.5 54.5t53.5 24.5v6q-39 17 -60.5 55.5t-21.5 98.5q0 85 42 127t115 42q38 0 68 -12h146v-19h-122v-4q29 -8 47 -43t18 -91
q0 -85 -42 -127t-115 -42q-28 0 -52 6q-39 -11 -59 -28.5t-20 -46.5t17.5 -43.5t60.5 -14.5h122q78 0 112 -30t34 -87zM237 199q66 0 100 35.5t34 91.5v46q0 56 -34 91.5t-100 35.5t-100 -35.5t-34 -91.5v-46q0 -56 34 -91.5t100 -35.5zM430 -64q0 49 -27 73t-99 24h-143
q-21 -6 -38 -14.5t-30 -22t-20 -32t-7 -45.5q0 -54 38 -83t108 -29h49q82 0 125.5 31t43.5 98z" />
    <glyph glyph-name="zero.alt01" 
d="M270 -12q-48 0 -86 17.5t-64.5 59t-41 111t-14.5 173.5t14.5 173.5t41 111t64.5 59t86 17.5t86 -17.5t64.5 -59t41 -111t14.5 -173.5t-14.5 -173.5t-41 -111t-64.5 -59t-86 -17.5zM270 8q90 0 136 72t46 225v88q0 153 -46 225t-136 72t-136 -72t-46 -225v-88
q0 -153 46 -225t136 -72zM270 325q-11 0 -18 3.5t-7 14.5v12q0 11 7 14.5t18 3.5t18 -3.5t7 -14.5v-12q0 -11 -7 -14.5t-18 -3.5z" />
    <glyph glyph-name="zero.alt02" 
d="M270 -12q-48 0 -86 17.5t-64.5 59t-41 111t-14.5 173.5t14.5 173.5t41 111t64.5 59t86 17.5t86 -17.5t64.5 -59t41 -111t14.5 -173.5t-14.5 -173.5t-41 -111t-64.5 -59t-86 -17.5zM270 8q90 0 136 72t46 225v88q0 90 -17 155h-1l-162 -212l-160 -208q20 -59 59 -89.5
t99 -30.5zM270 690q-90 0 -136 -72t-46 -225v-88q0 -90 17 -155h1l166 216l156 204q-20 59 -59 89.5t-99 30.5z" />
    <glyph glyph-name="aacute.alt01" horiz-adv-x="509" 
d="M394 78h-6q-14 -40 -51 -65t-93 -25q-91 0 -140.5 63.5t-49.5 201.5t49.5 201.5t140.5 63.5q56 0 93 -24t51 -64h6v76h21v-506h-21v78zM244 7q32 0 59.5 9.5t47.5 27.5t31.5 44t11.5 59v212q0 33 -11.5 59t-31.5 44t-47.5 27.5t-59.5 9.5q-81 0 -124 -56t-43 -156v-68
q0 -100 43 -156t124 -56zM231 587l-15 10l99 154l19 -12z" />
    <glyph glyph-name="abreve.alt01" horiz-adv-x="509" 
d="M394 78h-6q-14 -40 -51 -65t-93 -25q-91 0 -140.5 63.5t-49.5 201.5t49.5 201.5t140.5 63.5q56 0 93 -24t51 -64h6v76h21v-506h-21v78zM244 7q32 0 59.5 9.5t47.5 27.5t31.5 44t11.5 59v212q0 33 -11.5 59t-31.5 44t-47.5 27.5t-59.5 9.5q-81 0 -124 -56t-43 -156v-68
q0 -100 43 -156t124 -56zM246 606q-21 0 -36.5 6t-28 19.5t-22 36t-18.5 55.5l16 7l9 -27q14 -44 32 -61t48 -17t48 17t32 61l9 27l16 -7q-9 -33 -18.5 -55.5t-22 -36t-28 -19.5t-36.5 -6z" />
    <glyph glyph-name="acircumflex.alt01" horiz-adv-x="509" 
d="M394 78h-6q-14 -40 -51 -65t-93 -25q-91 0 -140.5 63.5t-49.5 201.5t49.5 201.5t140.5 63.5q56 0 93 -24t51 -64h6v76h21v-506h-21v78zM244 7q32 0 59.5 9.5t47.5 27.5t31.5 44t11.5 59v212q0 33 -11.5 59t-31.5 44t-47.5 27.5t-59.5 9.5q-81 0 -124 -56t-43 -156v-68
q0 -100 43 -156t124 -56zM258 743l100 -133l-14 -11l-98 127l-98 -127l-14 11l100 133h24z" />
    <glyph glyph-name="adieresis.alt01" horiz-adv-x="509" 
d="M394 78h-6q-14 -40 -51 -65t-93 -25q-91 0 -140.5 63.5t-49.5 201.5t49.5 201.5t140.5 63.5q56 0 93 -24t51 -64h6v76h21v-506h-21v78zM244 7q32 0 59.5 9.5t47.5 27.5t31.5 44t11.5 59v212q0 33 -11.5 59t-31.5 44t-47.5 27.5t-59.5 9.5q-81 0 -124 -56t-43 -156v-68
q0 -100 43 -156t124 -56zM171 642q-13 0 -18 6.5t-5 14.5v7q0 8 5 14.5t18 6.5t18 -6.5t5 -14.5v-7q0 -8 -5 -14.5t-18 -6.5zM321 642q-13 0 -18 6.5t-5 14.5v7q0 8 5 14.5t18 6.5t18 -6.5t5 -14.5v-7q0 -8 -5 -14.5t-18 -6.5z" />
    <glyph glyph-name="uni1EA1.alt01" horiz-adv-x="509" 
d="M394 78h-6q-14 -40 -51 -65t-93 -25q-91 0 -140.5 63.5t-49.5 201.5t49.5 201.5t140.5 63.5q56 0 93 -24t51 -64h6v76h21v-506h-21v78zM244 7q32 0 59.5 9.5t47.5 27.5t31.5 44t11.5 59v212q0 33 -11.5 59t-31.5 44t-47.5 27.5t-59.5 9.5q-81 0 -124 -56t-43 -156v-68
q0 -100 43 -156t124 -56zM245 -134q-13 0 -18 6.5t-5 14.5v7q0 8 5 14.5t18 6.5t18 -6.5t5 -14.5v-7q0 -8 -5 -14.5t-18 -6.5z" />
    <glyph glyph-name="agrave.alt01" horiz-adv-x="509" 
d="M394 78h-6q-14 -40 -51 -65t-93 -25q-91 0 -140.5 63.5t-49.5 201.5t49.5 201.5t140.5 63.5q56 0 93 -24t51 -64h6v76h21v-506h-21v78zM244 7q32 0 59.5 9.5t47.5 27.5t31.5 44t11.5 59v212q0 33 -11.5 59t-31.5 44t-47.5 27.5t-59.5 9.5q-81 0 -124 -56t-43 -156v-68
q0 -100 43 -156t124 -56zM158 739l19 12l99 -154l-15 -10z" />
    <glyph glyph-name="uni1EA3.alt01" horiz-adv-x="509" 
d="M394 78h-6q-14 -40 -51 -65t-93 -25q-91 0 -140.5 63.5t-49.5 201.5t49.5 201.5t140.5 63.5q56 0 93 -24t51 -64h6v76h21v-506h-21v78zM244 7q32 0 59.5 9.5t47.5 27.5t31.5 44t11.5 59v212q0 33 -11.5 59t-31.5 44t-47.5 27.5t-59.5 9.5q-81 0 -124 -56t-43 -156v-68
q0 -100 43 -156t124 -56zM177 737h123q23 0 23 -18q0 -6 -4 -14t-18 -31l-51 -89l-15 8l69 126h-127v18z" />
    <glyph glyph-name="amacron.alt01" horiz-adv-x="509" 
d="M394 78h-6q-14 -40 -51 -65t-93 -25q-91 0 -140.5 63.5t-49.5 201.5t49.5 201.5t140.5 63.5q56 0 93 -24t51 -64h6v76h21v-506h-21v78zM244 7q32 0 59.5 9.5t47.5 27.5t31.5 44t11.5 59v212q0 33 -11.5 59t-31.5 44t-47.5 27.5t-59.5 9.5q-81 0 -124 -56t-43 -156v-68
q0 -100 43 -156t124 -56zM133 676h226v-18h-226v18z" />
    <glyph glyph-name="aogonek.alt01" horiz-adv-x="509" 
d="M289 -138q0 34 26.5 66.5t78.5 67.5v82h-6q-14 -40 -51 -65t-93 -25q-91 0 -140.5 63.5t-49.5 201.5t49.5 201.5t140.5 63.5q56 0 93 -24t51 -64h6v76h21v-506q-57 -42 -81.5 -73t-24.5 -63q0 -25 14.5 -36.5t37.5 -11.5q21 0 34 8t20 17l13 -11q-8 -14 -25.5 -23
t-42.5 -9q-32 0 -51.5 16t-19.5 48zM244 7q32 0 59.5 9.5t47.5 27.5t31.5 44t11.5 59v212q0 33 -11.5 59t-31.5 44t-47.5 27.5t-59.5 9.5q-81 0 -124 -56t-43 -156v-68q0 -100 43 -156t124 -56z" />
    <glyph glyph-name="aring.alt01" horiz-adv-x="509" 
d="M394 78h-6q-14 -40 -51 -65t-93 -25q-91 0 -140.5 63.5t-49.5 201.5t49.5 201.5t140.5 63.5q56 0 93 -24t51 -64h6v76h21v-506h-21v78zM244 7q32 0 59.5 9.5t47.5 27.5t31.5 44t11.5 59v212q0 33 -11.5 59t-31.5 44t-47.5 27.5t-59.5 9.5q-81 0 -124 -56t-43 -156v-68
q0 -100 43 -156t124 -56zM246 589q-39 0 -62.5 25t-23.5 66t23.5 66t62.5 25t62.5 -25t23.5 -66t-23.5 -66t-62.5 -25zM246 607q31 0 48.5 18.5t17.5 49.5v10q0 31 -17.5 49.5t-48.5 18.5t-48.5 -18.5t-17.5 -49.5v-10q0 -31 17.5 -49.5t48.5 -18.5z" />
    <glyph glyph-name="aringacute.alt01" horiz-adv-x="509" 
d="M394 78h-6q-14 -40 -51 -65t-93 -25q-91 0 -140.5 63.5t-49.5 201.5t49.5 201.5t140.5 63.5q56 0 93 -24t51 -64h6v76h21v-506h-21v78zM244 7q32 0 59.5 9.5t47.5 27.5t31.5 44t11.5 59v212q0 33 -11.5 59t-31.5 44t-47.5 27.5t-59.5 9.5q-81 0 -124 -56t-43 -156v-68
q0 -100 43 -156t124 -56zM246 799l-14 10l79 102l18 -14zM246 589q-39 0 -62.5 25t-23.5 66t23.5 66t62.5 25t62.5 -25t23.5 -66t-23.5 -66t-62.5 -25zM246 607q31 0 48.5 18.5t17.5 49.5v10q0 31 -17.5 49.5t-48.5 18.5t-48.5 -18.5t-17.5 -49.5v-10q0 -31 17.5 -49.5
t48.5 -18.5z" />
    <glyph glyph-name="atilde.alt01" horiz-adv-x="509" 
d="M394 78h-6q-14 -40 -51 -65t-93 -25q-91 0 -140.5 63.5t-49.5 201.5t49.5 201.5t140.5 63.5q56 0 93 -24t51 -64h6v76h21v-506h-21v78zM244 7q32 0 59.5 9.5t47.5 27.5t31.5 44t11.5 59v212q0 33 -11.5 59t-31.5 44t-47.5 27.5t-59.5 9.5q-81 0 -124 -56t-43 -156v-68
q0 -100 43 -156t124 -56zM310 628q-16 0 -31 6.5t-38 23.5q-20 14 -33.5 20t-26.5 6q-17 0 -30.5 -8t-27.5 -25l-12 13q17 20 33.5 29t36.5 9q16 0 31 -6.5t38 -23.5q20 -14 33.5 -20t26.5 -6q17 0 30.5 8t27.5 25l12 -13q-17 -20 -33.5 -29t-36.5 -9z" />
    <glyph glyph-name="uni1EAF.alt01" horiz-adv-x="509" 
d="M394 78h-6q-14 -40 -51 -65t-93 -25q-91 0 -140.5 63.5t-49.5 201.5t49.5 201.5t140.5 63.5q56 0 93 -24t51 -64h6v76h21v-506h-21v78zM244 7q32 0 59.5 9.5t47.5 27.5t31.5 44t11.5 59v212q0 33 -11.5 59t-31.5 44t-47.5 27.5t-59.5 9.5q-81 0 -124 -56t-43 -156v-68
q0 -100 43 -156t124 -56zM245 594q-47 0 -72.5 28t-47.5 79l16 7l14 -27q11 -21 21 -34.5t20.5 -21t22 -10t26.5 -2.5t26.5 2.5t22 10t20.5 21t21 34.5l14 27l16 -7q-11 -26 -22.5 -46t-25 -33.5t-31 -20.5t-41.5 -7zM237 697l-14 10l99 154l19 -12z" />
    <glyph glyph-name="uni1EB7.alt01" horiz-adv-x="509" 
d="M394 78h-6q-14 -40 -51 -65t-93 -25q-91 0 -140.5 63.5t-49.5 201.5t49.5 201.5t140.5 63.5q56 0 93 -24t51 -64h6v76h21v-506h-21v78zM244 7q32 0 59.5 9.5t47.5 27.5t31.5 44t11.5 59v212q0 33 -11.5 59t-31.5 44t-47.5 27.5t-59.5 9.5q-81 0 -124 -56t-43 -156v-68
q0 -100 43 -156t124 -56zM246 606q-21 0 -36.5 6t-28 19.5t-22 36t-18.5 55.5l16 7l9 -27q14 -44 32 -61t48 -17t48 17t32 61l9 27l16 -7q-9 -33 -18.5 -55.5t-22 -36t-28 -19.5t-36.5 -6zM245 -134q-13 0 -18 6.5t-5 14.5v7q0 8 5 14.5t18 6.5t18 -6.5t5 -14.5v-7
q0 -8 -5 -14.5t-18 -6.5z" />
    <glyph glyph-name="uni1EB1.alt01" horiz-adv-x="509" 
d="M394 78h-6q-14 -40 -51 -65t-93 -25q-91 0 -140.5 63.5t-49.5 201.5t49.5 201.5t140.5 63.5q56 0 93 -24t51 -64h6v76h21v-506h-21v78zM244 7q32 0 59.5 9.5t47.5 27.5t31.5 44t11.5 59v212q0 33 -11.5 59t-31.5 44t-47.5 27.5t-59.5 9.5q-81 0 -124 -56t-43 -156v-68
q0 -100 43 -156t124 -56zM245 594q-47 0 -72.5 27.5t-47.5 79.5l16 7l14 -27q11 -21 21 -34.5t20.5 -21t22 -10t26.5 -2.5t26.5 2.5t22 10t20.5 21t21 34.5l14 27l16 -7q-11 -26 -22.5 -45.5t-25 -33.5t-31 -21t-41.5 -7zM149 849l19 12l99 -154l-14 -10z" />
    <glyph glyph-name="uni1EB3.alt01" horiz-adv-x="509" 
d="M394 78h-6q-14 -40 -51 -65t-93 -25q-91 0 -140.5 63.5t-49.5 201.5t49.5 201.5t140.5 63.5q56 0 93 -24t51 -64h6v76h21v-506h-21v78zM244 7q32 0 59.5 9.5t47.5 27.5t31.5 44t11.5 59v212q0 33 -11.5 59t-31.5 44t-47.5 27.5t-59.5 9.5q-81 0 -124 -56t-43 -156v-68
q0 -100 43 -156t124 -56zM245 594q-47 0 -72.5 27.5t-47.5 79.5l16 7l14 -27q11 -21 21 -34.5t20.5 -21t22 -10t26.5 -2.5t26.5 2.5t22 10t20.5 21t21 34.5l14 27l16 -7q-11 -26 -22.5 -45.5t-25 -33.5t-31 -21t-41.5 -7zM177 847h123q23 0 23 -18q0 -6 -3.5 -14t-17.5 -31
l-51 -89l-16 8l69 126h-127v18z" />
    <glyph glyph-name="uni1EB5.alt01" horiz-adv-x="509" 
d="M394 78h-6q-14 -40 -51 -65t-93 -25q-91 0 -140.5 63.5t-49.5 201.5t49.5 201.5t140.5 63.5q56 0 93 -24t51 -64h6v76h21v-506h-21v78zM244 7q32 0 59.5 9.5t47.5 27.5t31.5 44t11.5 59v212q0 33 -11.5 59t-31.5 44t-47.5 27.5t-59.5 9.5q-81 0 -124 -56t-43 -156v-68
q0 -100 43 -156t124 -56zM245 594q-47 0 -72.5 27.5t-47.5 79.5l16 7l14 -27q11 -21 21 -34.5t20.5 -21t22 -10t26.5 -2.5t26.5 2.5t22 10t20.5 21t21 34.5l14 27l16 -7q-11 -26 -22.5 -45.5t-25 -33.5t-31 -21t-41.5 -7zM309 763q-16 0 -31 6.5t-38 23.5q-20 14 -33.5 20
t-26.5 6q-17 0 -30.5 -8t-27.5 -25l-12 12q32 39 71 39q16 0 31 -6.5t38 -23.5q20 -14 33.5 -20t26.5 -6q17 0 30.5 8t27.5 25l12 -12q-32 -39 -71 -39z" />
    <glyph glyph-name="uni1EA5.alt01" horiz-adv-x="509" 
d="M394 78h-6q-14 -40 -51 -65t-93 -25q-91 0 -140.5 63.5t-49.5 201.5t49.5 201.5t140.5 63.5q56 0 93 -24t51 -64h6v76h21v-506h-21v78zM244 7q32 0 59.5 9.5t47.5 27.5t31.5 44t11.5 59v212q0 33 -11.5 59t-31.5 44t-47.5 27.5t-59.5 9.5q-81 0 -124 -56t-43 -156v-68
q0 -100 43 -156t124 -56zM349 697l-15 10l99 154l19 -12zM257 735l115 -133l-14 -11l-113 127l-113 -127l-14 11l115 133h24z" />
    <glyph glyph-name="uni1EAD.alt01" horiz-adv-x="509" 
d="M394 78h-6q-14 -40 -51 -65t-93 -25q-91 0 -140.5 63.5t-49.5 201.5t49.5 201.5t140.5 63.5q56 0 93 -24t51 -64h6v76h21v-506h-21v78zM244 7q32 0 59.5 9.5t47.5 27.5t31.5 44t11.5 59v212q0 33 -11.5 59t-31.5 44t-47.5 27.5t-59.5 9.5q-81 0 -124 -56t-43 -156v-68
q0 -100 43 -156t124 -56zM258 743l100 -133l-14 -11l-98 127l-98 -127l-14 11l100 133h24zM245 -134q-13 0 -18 6.5t-5 14.5v7q0 8 5 14.5t18 6.5t18 -6.5t5 -14.5v-7q0 -8 -5 -14.5t-18 -6.5z" />
    </font>
</defs>
</svg>
