<?xml version="1.0" standalone="no"?>
<!DOCTYPE svg PUBLIC "-//W3C//DTD SVG 1.1//EN" "http://www.w3.org/Graphics/SVG/1.1/DTD/svg11.dtd" >
<svg xmlns="http://www.w3.org/2000/svg" xmlns:xlink="http://www.w3.org/1999/xlink" version="1.1">
<metadata>
Created by FontForge 20170731 at Fri Feb 16 16:54:28 2018
 By Aleksey,,,
Copyright 2018 IBM Corp. All rights reserved.
</metadata>
<defs>
<font id="IBMPlexSerif-MediumItalic" horiz-adv-x="0" >
  <font-face 
    font-family="IBM Plex Serif Medium"
    font-weight="500"
    font-style="italic"
    font-stretch="normal"
    units-per-em="1000"
    panose-1="2 6 6 3 5 4 6 0 2 3"
    ascent="780"
    descent="-220"
    x-height="520"
    cap-height="698"
    bbox="-286 -261 1159 1132"
    underline-thickness="56"
    underline-position="-148"
    slope="-14"
    unicode-range="U+000D-FB02"
  />
<missing-glyph horiz-adv-x="424" 
d="M32 0v780h360v-780h-360zM88 56h248v668h-248v-668z" />
    <glyph glyph-name="fi" unicode="fi" horiz-adv-x="621" 
d="M-71 -212q-54 0 -79 21.5t-25 53.5q0 27 17.5 46.5t46.5 19.5q26 0 41 -15t15 -37q0 -31 -32 -50l7 -8q39 2 61.5 26.5t36.5 78.5l135 540h-88l14 56h88l8 33q13 54 39 94.5t62 67.5t80 41t94 14q73 0 111.5 -27.5t38.5 -62.5q0 -27 -18.5 -50t-52.5 -23q-29 0 -43 15.5
t-14 37.5q0 20 11.5 36.5t28.5 23.5l-4 8q-6 3 -15 4t-19 1q-59 0 -106 -35.5t-69 -116.5l-16 -61h214l82 12l-116 -465l18 -8l101 115l31 -22l-62 -83q-36 -49 -66 -65t-58 -16q-42 0 -59.5 22.5t-17.5 49.5q0 12 3 26.5t5 24.5l88 353h-177l-124 -496q-11 -44 -32 -77.5
t-49.5 -56.5t-63 -34.5t-71.5 -11.5z" />
    <glyph glyph-name="fl" unicode="fl" horiz-adv-x="621" 
d="M427 -12q-41 0 -59 22.5t-18 49.5q0 12 3 26.5t5 24.5l149 599q-29 13 -64 13q-47 0 -84 -28t-56 -99l-20 -76h89l-13 -56h-90l-124 -496q-11 -44 -32 -77.5t-49.5 -56.5t-63 -34.5t-71.5 -11.5q-54 0 -79 21.5t-25 53.5q0 27 17.5 46.5t46.5 19.5q26 0 41 -15t15 -37
q0 -31 -32 -50l7 -8q39 2 61.5 26.5t36.5 78.5l135 540h-88l14 56h88l11 45q26 104 91.5 154.5t161.5 50.5q33 0 61.5 -7t48.5 -18l97 25l-175 -703l18 -8l101 115l31 -22l-62 -83q-36 -49 -66 -65t-58 -16z" />
    <glyph glyph-name=".notdef" horiz-adv-x="424" 
d="M32 0v780h360v-780h-360zM88 56h248v668h-248v-668z" />
    <glyph glyph-name=".null" 
 />
    <glyph glyph-name=".null" 
 />
    <glyph glyph-name="uni000D" unicode="&#xd;" horiz-adv-x="212" 
 />
    <glyph glyph-name="space" unicode=" " horiz-adv-x="212" 
 />
    <glyph glyph-name="exclam" unicode="!" horiz-adv-x="276" 
d="M141 520l45 178h123l-44 -178l-116 -319h-50zM80 -12q-33 0 -51 18.5t-18 43.5q0 10 3 25q8 31 31 49t55 18q33 0 51 -18.5t18 -43.5q0 -10 -3 -25q-8 -31 -31 -49t-55 -18z" />
    <glyph glyph-name="quotedbl" unicode="&#x22;" horiz-adv-x="418" 
d="M161 638l26 102h95l-26 -102l-80 -198h-35zM352 638l26 102h95l-26 -102l-80 -198h-35z" />
    <glyph glyph-name="numbersign" unicode="#" horiz-adv-x="610" 
d="M338 201h-144l-81 -201h-72l81 201h-103l16 61h112l71 174h-103l16 61h111l81 201h72l-81 -201h144l81 201h72l-81 -201h103l-16 -61h-112l-71 -174h103l-16 -61h-111l-81 -201h-72zM362 262l71 174h-143l-71 -174h143z" />
    <glyph glyph-name="dollar" unicode="$" horiz-adv-x="553" 
d="M184 -3q-35 2 -65 10t-52 22.5t-34.5 35.5t-12.5 49q0 17 5.5 33.5t15 29t24 20t32.5 7.5q28 0 43 -17t15 -40q0 -26 -15.5 -48t-47.5 -29v-7q19 -8 42.5 -12t62.5 -5l66 264l-7 3q-71 26 -104 64t-33 105q0 45 16.5 84t48 68t76 47t100.5 21l20 78h54l-20 -78
q30 -3 56 -11.5t46 -23t31.5 -35.5t11.5 -48q0 -17 -5.5 -33t-15 -28.5t-24 -20t-32.5 -7.5q-28 0 -43 16.5t-15 40.5q0 26 15.5 47.5t47.5 28.5v8q-18 6 -37.5 10t-48.5 6l-62 -245l17 -6q73 -26 105 -64.5t32 -99.5q0 -47 -18 -89.5t-51 -75t-80.5 -53t-105.5 -23.5
l-20 -78h-54zM392 199q0 35 -21.5 56.5t-59.5 37.5l-61 -243q31 6 57.5 19.5t45 33.5t29 44.5t10.5 51.5zM216 519q0 -33 18 -55.5t58 -39.5l56 225q-34 -5 -58.5 -17.5t-41 -30.5t-24.5 -39t-8 -43z" />
    <glyph glyph-name="percent" unicode="%" horiz-adv-x="847" 
d="M718 698h70l-614 -698h-70zM226 314q-53 0 -88 28.5t-35 96.5q0 22 4.5 51t15 59t27 59t40 51.5t55 36.5t72.5 14q53 0 87.5 -28.5t35.5 -96.5q0 -22 -5 -51t-15.5 -59t-26.5 -59t-40 -51.5t-55.5 -36.5t-71.5 -14zM233 359q62 0 91 107q12 52 21.5 88.5t9.5 56.5
q0 29 -13 41.5t-32 12.5q-63 0 -91 -107q-13 -52 -22 -88.5t-9 -56.5q0 -29 12.5 -41.5t32.5 -12.5zM576 -12q-53 0 -88 28.5t-35 96.5q0 22 4.5 51t15 59t27 59t40 51.5t55 36.5t72.5 14q53 0 87.5 -28.5t35.5 -96.5q0 -22 -5 -51t-15.5 -59t-26.5 -59t-40 -51.5
t-55.5 -36.5t-71.5 -14zM583 33q62 0 91 107q12 52 21.5 88.5t9.5 56.5q0 29 -13 41.5t-32 12.5q-63 0 -91 -107q-13 -52 -22 -88.5t-9 -56.5q0 -29 12.5 -41.5t32.5 -12.5z" />
    <glyph glyph-name="ampersand" unicode="&#x26;" horiz-adv-x="680" 
d="M216 -12q-96 0 -150.5 37t-54.5 113q0 46 16 81t44.5 63.5t67.5 51.5t86 45l-9 16q-18 35 -27.5 60t-9.5 56q0 46 18.5 83t50 62.5t73 39.5t87.5 14q79 0 117 -30t38 -84q0 -39 -20 -71t-51.5 -58t-70.5 -46.5t-76 -37.5l112 -204q24 32 44 69.5t33 79.5h-62l14 54h187
l-13 -54h-63q-19 -60 -47.5 -110.5t-63.5 -92.5l18 -32q13 -23 37 -32t62 -9l-13 -52h-92q-33 0 -54 12.5t-38 36.5q-42 -29 -89 -45t-101 -16zM244 48q37 0 71 12.5t64 35.5l-130 239q-45 -30 -69 -64.5t-33 -75.5q-3 -11 -6.5 -28.5t-3.5 -29.5q0 -45 29.5 -67t77.5 -22z
M292 527q0 -26 7.5 -50t23.5 -53q54 29 86 61t42 71q2 6 4.5 19.5t2.5 23.5q0 28 -15.5 43t-41.5 15q-38 0 -65.5 -25.5t-37.5 -63.5q-6 -21 -6 -41z" />
    <glyph glyph-name="quotesingle" unicode="'" horiz-adv-x="227" 
d="M161 638l26 102h95l-26 -102l-80 -198h-35z" />
    <glyph glyph-name="parenleft" unicode="(" horiz-adv-x="315" 
d="M438 739q-45 -30 -84 -72.5t-71 -94t-56.5 -110t-39.5 -120.5l-19 -79q-20 -78 -20 -155q0 -31 4 -62.5t13 -61.5t23 -57t34 -48l-37 -35q-30 21 -56.5 53t-46 74t-31 93.5t-11.5 112.5q0 85 27 174q21 70 57.5 135t83 120.5t99.5 100t107 73.5z" />
    <glyph glyph-name="parenright" unicode=")" horiz-adv-x="315" 
d="M-98 -115q44 30 83 72.5t71 94t56.5 110t39.5 120.5l20 79q20 78 20 155q0 31 -4 62.5t-13 61.5t-23 57t-34 48l37 35q30 -21 56.5 -53t46 -74t31 -93.5t11.5 -112.5q0 -42 -6.5 -85.5t-20.5 -88.5q-21 -71 -57.5 -135.5t-83 -120t-99.5 -100t-107 -73.5z" />
    <glyph glyph-name="asterisk" unicode="*" horiz-adv-x="484" 
d="M304 694l13 53h96l-13 -53l-56 -105h-35zM157 553l-48 16l48 81l47 -16l81 -60l-16 -28zM360 574l104 61l56 16l8 -88l-54 -16l-111 -3zM233 402l-43 -44l-68 55l42 44l107 67l25 -20zM347 522l75 -72l20 -44l-87 -49l-21 44l-16 104z" />
    <glyph glyph-name="plus" unicode="+" horiz-adv-x="550" 
d="M242 273h-177l16 64h177l49 197h73l-49 -197h176l-17 -64h-175l-49 -197h-73z" />
    <glyph glyph-name="comma" unicode="," horiz-adv-x="267" 
d="M-58 -139q39 30 69.5 63.5t49.5 65.5q-25 5 -39.5 22t-14.5 39q0 13 3 25q7 29 30.5 47.5t55.5 18.5t50.5 -20t18.5 -46q0 -6 -1 -13t-3 -15q-7 -26 -23 -52.5t-37 -51t-45 -46t-47 -37.5h-67z" />
    <glyph glyph-name="hyphen" unicode="-" horiz-adv-x="369" 
d="M55 265l20 80h262l-20 -80h-262z" />
    <glyph glyph-name="period" unicode="." horiz-adv-x="266" 
d="M76 -12q-33 0 -51 18.5t-18 43.5q0 10 3 25q8 31 31 49t55 18q33 0 51 -18.5t18 -43.5q0 -10 -3 -25q-8 -31 -31 -49t-55 -18z" />
    <glyph glyph-name="slash" unicode="/" horiz-adv-x="383" 
d="M-95 -151l477 891h85l-478 -891h-84z" />
    <glyph glyph-name="zero" unicode="0" horiz-adv-x="550" 
d="M213 -12q-84 0 -129 49t-45 152q0 29 6.5 79t21.5 108t40.5 117t63.5 107.5t89.5 79t119.5 30.5q82 0 127.5 -49t46.5 -152q0 -29 -6.5 -79t-22 -108t-41 -117t-63 -107.5t-89 -79t-119.5 -30.5zM218 44q33 0 58 16t44 46.5t34 74t29 98.5q15 62 27 107.5t19.5 79.5
t11.5 58.5t4 45.5q0 38 -16 61t-54 23q-33 0 -58 -16t-44 -46.5t-34 -74t-29 -98.5q-15 -62 -27 -107.5t-19.5 -79.5t-11.5 -58.5t-4 -45.5q0 -38 16 -61t54 -23z" />
    <glyph glyph-name="one" unicode="1" horiz-adv-x="550" 
d="M40 52h148l138 557l-171 -67l-9 49l227 107h98l-162 -646h141l-13 -52h-410z" />
    <glyph glyph-name="two" unicode="2" horiz-adv-x="550" 
d="M-1 81l244 217q56 49 94.5 100t55.5 114q2 8 6.5 27.5t4.5 36.5q0 37 -21.5 59t-60.5 22q-31 0 -53 -5.5t-39 -13.5l-3 -8q17 -5 27.5 -18t10.5 -33q0 -13 -5 -26t-14.5 -24t-23.5 -18t-33 -7q-27 0 -43.5 15.5t-16.5 44.5q0 28 17.5 54.5t47.5 46.5t70 32.5t85 12.5
q95 0 138.5 -40t43.5 -102q0 -55 -21 -100t-54.5 -83.5t-75 -72t-82.5 -63.5l-199 -150l-3 -9h271l23 93h73l-45 -183h-439z" />
    <glyph glyph-name="three" unicode="3" horiz-adv-x="550" 
d="M186 -12q-47 0 -80.5 10.5t-54.5 28t-31 39t-10 42.5t7 37t18 27.5t25 17t29 5.5q32 0 46 -17t14 -39q0 -17 -6.5 -29.5t-16.5 -20.5t-21.5 -12.5t-21.5 -5.5l-3 -8q16 -12 38.5 -17t48.5 -5q136 0 169 133q1 4 3.5 13.5t4.5 20t4 22t2 20.5q0 24 -8 40t-22.5 26
t-34.5 14.5t-43 4.5h-64l15 59h59q69 0 108 33.5t52 83.5q2 12 7 33t5 38q0 36 -22.5 55.5t-66.5 19.5q-26 0 -50.5 -4t-41.5 -13l-3 -8q20 -5 29 -18.5t9 -32.5q0 -28 -20 -51t-56 -23q-27 0 -43.5 15t-16.5 44q0 27 17 53t46.5 46.5t70 32.5t88.5 12q94 0 140.5 -35.5
t46.5 -98.5q0 -47 -18 -82t-47 -59.5t-65 -39.5t-72 -22l-2 -8q60 -11 95 -45t35 -88q0 -43 -18 -86.5t-54.5 -78.5t-91 -57t-127.5 -22z" />
    <glyph glyph-name="four" unicode="4" horiz-adv-x="550" 
d="M276 146h-274l19 74l382 478h127l-118 -473h92l-20 -79h-92l-36 -146h-117zM295 225l94 371h-7l-291 -371h204z" />
    <glyph glyph-name="five" unicode="5" horiz-adv-x="550" 
d="M197 -12q-48 0 -81 11t-53.5 28.5t-29.5 38.5t-9 42q0 42 24.5 64.5t54.5 22.5q31 0 45.5 -17t14.5 -39q0 -17 -6 -29t-15.5 -20t-21.5 -13t-23 -6l-3 -8q14 -12 36 -17t48 -5q64 0 106.5 40.5t61.5 115.5q2 6 7.5 30t5.5 47q0 48 -26 68t-63 20t-68.5 -19.5t-50.5 -43.5
l-57 13l120 386h356l-24 -96h-307l-80 -260h9q23 35 62.5 62t100.5 27q30 0 58 -8t50 -25.5t35 -45.5t13 -69q0 -63 -22.5 -116.5t-61.5 -93.5t-92 -62.5t-114 -22.5z" />
    <glyph glyph-name="six" unicode="6" horiz-adv-x="550" 
d="M213 -12q-81 0 -129 44t-48 135q0 54 14 112t41.5 114.5t69 108.5t96.5 94.5t124 72t151 41.5l2 -48q-61 -13 -114.5 -42t-97.5 -71t-76.5 -93.5t-50.5 -109.5l8 -2q10 18 25.5 35t35.5 30.5t45.5 21.5t56.5 8q62 0 99 -36t37 -108t-24.5 -128.5t-64.5 -96.5t-92.5 -61
t-107.5 -21zM220 44q30 0 52.5 11.5t39 32.5t28 50t20.5 64q1 4 3.5 14.5t5.5 24t5 28t2 26.5q0 34 -16.5 56t-54.5 22q-30 0 -52.5 -12t-39 -33t-28 -50t-20.5 -63q-1 -5 -3.5 -15t-5.5 -23.5t-5 -28t-2 -26.5q0 -34 16.5 -56t54.5 -22z" />
    <glyph glyph-name="seven" unicode="7" horiz-adv-x="550" 
d="M496 602h-283l-32 -128h-73l56 224h437l-19 -77l-374 -621h-122z" />
    <glyph glyph-name="eight" unicode="8" horiz-adv-x="550" 
d="M217 -12q-99 0 -147.5 42t-48.5 111q0 48 17.5 86t46.5 66t66 45t76 22l2 8q-40 9 -70.5 42.5t-30.5 88.5q0 43 18 81t51 67t80 46t106 17q48 0 82 -10t56.5 -28t33 -43.5t10.5 -56.5q0 -43 -17 -79t-44 -62.5t-60 -42.5t-64 -20l-2 -8q53 -11 85.5 -43.5t32.5 -89.5
q0 -41 -17 -83.5t-52 -77t-87.5 -56.5t-122.5 -22zM226 42q57 0 89 39.5t47 101.5q1 3 3 12t4.5 21t4.5 24.5t2 21.5q0 37 -21 57.5t-62 20.5q-57 0 -89 -39.5t-47 -101.5q-1 -3 -3 -12t-4.5 -21t-4.5 -24.5t-2 -21.5q0 -37 21 -57.5t62 -20.5zM313 392q27 0 46.5 10
t33.5 27.5t23.5 41t16.5 51.5q6 24 9 38.5t3 28.5q0 35 -18.5 52t-51.5 17q-27 0 -46.5 -10t-33.5 -27.5t-23.5 -41t-16.5 -51.5q-6 -24 -9 -38.5t-3 -28.5q0 -35 18.5 -52t51.5 -17z" />
    <glyph glyph-name="nine" unicode="9" horiz-adv-x="550" 
d="M61 36q61 13 114.5 42t97.5 71t76.5 93.5t50.5 109.5l-8 2q-10 -18 -25.5 -35t-35.5 -30.5t-45.5 -21.5t-56.5 -8q-62 0 -99 36t-37 108t24.5 128.5t64.5 96.5t92 61t108 21q81 0 129 -44t48 -135q0 -54 -14 -112t-41.5 -114.5t-69 -108.5t-96.5 -94.5t-124 -72.5
t-151 -41zM290 325q30 0 52.5 11.5t39 32.5t28 50t20.5 64q1 4 3.5 14.5t5.5 24t5 28t2 26.5q0 34 -16.5 56t-54.5 22q-30 0 -52.5 -12t-39 -33t-28 -50t-20.5 -63q-1 -5 -3.5 -15t-5.5 -23.5t-5 -28t-2 -26.5q0 -34 16.5 -56t54.5 -22z" />
    <glyph glyph-name="colon" unicode=":" horiz-adv-x="274" 
d="M83 -12q-33 0 -51 18.5t-18 43.5q0 10 3 25q8 31 31 49t55 18q33 0 51 -18.5t18 -43.5q0 -10 -3 -25q-8 -31 -31 -49t-55 -18zM180 376q-33 0 -51 18.5t-18 43.5q0 10 3 25q8 31 31 49t55 18q33 0 51 -18.5t18 -43.5q0 -10 -3 -25q-8 -31 -31 -49t-55 -18z" />
    <glyph glyph-name="semicolon" unicode=";" horiz-adv-x="274" 
d="M-52 -139q39 30 69.5 63.5t49.5 65.5q-25 5 -39.5 22t-14.5 39q0 13 3 25q7 29 30.5 47.5t55.5 18.5t50.5 -20t18.5 -46q0 -6 -1 -13t-3 -15q-7 -26 -23 -52.5t-37 -51t-45 -46t-47 -37.5h-67zM180 376q-33 0 -51 18.5t-18 43.5q0 10 3 25q8 31 31 49t55 18
q33 0 51 -18.5t18 -43.5q0 -10 -3 -25q-8 -31 -31 -49t-55 -18z" />
    <glyph glyph-name="less" unicode="&#x3c;" horiz-adv-x="550" 
d="M81 231l18 73l421 242l-20 -83l-328 -197l-3 -10l230 -199l-17 -69z" />
    <glyph glyph-name="equal" unicode="=" horiz-adv-x="550" 
d="M92 381l16 64h426l-17 -64h-425zM39 167l16 64h426l-17 -64h-425z" />
    <glyph glyph-name="greater" unicode="&#x3e;" horiz-adv-x="550" 
d="M55 71l328 197l2 10l-230 199l18 69l301 -243l-18 -73l-421 -242z" />
    <glyph glyph-name="question" unicode="?" horiz-adv-x="462" 
d="M176 376q72 4 122 39t68 105q2 8 6 26t4 35q0 37 -22 56.5t-60 19.5q-23 0 -47.5 -4.5t-39.5 -12.5l-3 -8q17 -5 27.5 -17.5t10.5 -32.5q0 -27 -19.5 -51t-55.5 -24q-29 0 -45.5 15.5t-16.5 43.5q0 30 19 56t50.5 45.5t72 31t83.5 11.5q46 0 79 -10.5t54 -28.5t31 -43
t10 -54q0 -59 -24.5 -105t-64.5 -78t-89.5 -50t-100.5 -22l-25 -100h-64zM122 -12q-33 0 -51 18.5t-18 43.5q0 10 3 25q8 31 31 49t55 18q33 0 51 -18.5t18 -43.5q0 -10 -3 -25q-8 -31 -31 -49t-55 -18z" />
    <glyph glyph-name="at" unicode="@" horiz-adv-x="840" 
d="M363 136q15 0 31.5 12t32 31.5t30 44t26 49t19.5 46t11 36.5l3 17q8 37 -0.5 58.5t-40.5 21.5q-36 0 -67.5 -32t-50.5 -101q-4 -14 -8 -32t-7 -36t-5 -34.5t-2 -28.5q0 -25 6 -38.5t22 -13.5zM531 -109q-48 -5 -91 -8.5t-91 -3.5q-59 0 -112 17.5t-93 53t-63 89
t-23 125.5q0 62 13.5 127t40 125.5t65.5 114t90.5 93.5t114.5 63t137 23q63 0 115 -16.5t89.5 -49t58 -80t20.5 -110.5q0 -70 -17.5 -139t-48.5 -123.5t-73.5 -88.5t-93.5 -34q-48 0 -70 25t-22 67q0 24 7 51l-8 2q-15 -32 -30 -58.5t-32.5 -45.5t-38.5 -30t-47 -11
q-44 0 -64 32t-20 90q0 50 14.5 106t41.5 103t65 78t86 31q36 0 58.5 -18t32.5 -58h7l42 67h46l-78 -317q-3 -11 -4 -18.5t-1 -15.5q0 -34 32 -34q19 0 38 14.5t35.5 40.5t31 63t25.5 81q11 42 16 73t5 67q0 106 -57 161t-161 55q-71 0 -130.5 -27.5t-106.5 -75t-80.5 -112
t-51.5 -138.5q-2 -7 -6 -24t-9 -39t-8.5 -46.5t-3.5 -45.5q0 -58 18 -102.5t50 -74.5t74.5 -45.5t92.5 -15.5h182z" />
    <glyph glyph-name="A" unicode="A" horiz-adv-x="652" 
d="M-54 0l13 52h50l371 646h111l48 -646h50l-13 -52h-241l13 52h71l-9 172h-230l-95 -172h71l-12 -52h-198zM384 600l-176 -322h199l-16 322h-7z" />
    <glyph glyph-name="B" unicode="B" horiz-adv-x="630" 
d="M-26 0l13 52h66l148 594h-66l13 52h314q88 0 129 -34.5t41 -99.5q0 -75 -46.5 -126t-126.5 -70l-2 -8q51 -13 84.5 -47t33.5 -90q0 -41 -16.5 -80.5t-47 -71.5t-75.5 -51.5t-102 -19.5h-360zM299 56q51 0 88.5 31.5t51.5 86.5q7 26 11.5 45t4.5 33q0 35 -20.5 57.5
t-62.5 22.5h-126l-69 -276h122zM366 388q48 0 82.5 30.5t47.5 81.5q6 24 10.5 42.5t4.5 31.5q0 29 -17.5 48.5t-58.5 19.5h-112l-63 -254h106z" />
    <glyph glyph-name="C" unicode="C" horiz-adv-x="603" 
d="M543 165q-18 -32 -44.5 -64t-61.5 -57t-77.5 -40.5t-91.5 -15.5q-47 0 -86 14.5t-67.5 44t-44.5 74.5t-16 107q0 50 10.5 105.5t32 109t52.5 102t72 85.5t91 58.5t110 21.5q56 0 88.5 -21.5t41.5 -51.5h9l15 61h92l-53 -213h-92l12 48q2 8 3 15t1 15q0 41 -29 63.5
t-75 22.5q-42 0 -75.5 -17.5t-60 -47.5t-45 -69t-28.5 -82q-14 -56 -23 -93t-14.5 -62.5t-8 -44t-2.5 -36.5q0 -62 31 -100t95 -38q66 0 115.5 37t84.5 94l39 -25v0z" />
    <glyph glyph-name="D" unicode="D" horiz-adv-x="682" 
d="M-13 52h66l148 594h-66l13 52h280q58 0 102.5 -17.5t75 -49t46 -75.5t15.5 -98q0 -40 -9 -89.5t-28 -100t-50 -99t-75 -86t-102 -60.5t-131 -23h-298zM256 56q94 0 156.5 60.5t88.5 169.5q14 57 23 93t14 59.5t7 39t2 31.5q0 65 -35.5 99t-104.5 34h-84l-146 -586h79z
" />
    <glyph glyph-name="E" unicode="E" horiz-adv-x="601" 
d="M396 334h-150l-69 -278h231l34 136h92l-48 -192h-512l13 52h66l148 594h-66l13 52h503l-44 -178h-92l31 122h-223l-62 -252h149l19 73h62l-51 -202h-63z" />
    <glyph glyph-name="F" unicode="F" horiz-adv-x="575" 
d="M-13 52h66l148 594h-66l13 52h503l-44 -178h-92l31 122h-223l-66 -266h150l18 72h62l-51 -202h-63l19 74h-149l-67 -268h90l-12 -52h-280z" />
    <glyph glyph-name="G" unicode="G" horiz-adv-x="697" 
d="M470 93h-8q-12 -19 -30 -37.5t-42.5 -33.5t-55.5 -24.5t-67 -9.5q-100 0 -156.5 60.5t-56.5 178.5q0 52 11.5 108t33.5 109.5t54.5 102t75 84.5t94.5 57.5t113 21.5q63 0 101 -21t49 -52h8l16 61h91l-53 -213h-91l12 47q4 15 4 31q0 40 -33.5 64t-88.5 24q-44 0 -81 -18
t-65.5 -49t-49 -72.5t-31.5 -87.5q-14 -57 -23.5 -94.5t-15 -63t-8 -43.5t-2.5 -37q0 -60 29 -97.5t86 -37.5q60 0 109.5 37.5t66.5 106.5l23 97h-102l13 52h277l-14 -52h-51l-72 -292h-43z" />
    <glyph glyph-name="H" unicode="H" horiz-adv-x="731" 
d="M372 0l13 52h66l68 275h-274l-69 -275h66l-12 -52h-256l13 52h66l148 594h-66l13 52h256l-13 -52h-67l-65 -262h274l66 262h-66l12 52h256l-13 -52h-66l-148 -594h66l-12 -52h-256z" />
    <glyph glyph-name="I" unicode="I" horiz-adv-x="333" 
d="M-26 0l13 52h66l148 594h-66l13 52h256l-14 -52h-66l-148 -594h66l-12 -52h-256z" />
    <glyph glyph-name="J" unicode="J" horiz-adv-x="455" 
d="M63 44q6 -2 15 -4t19 -2q44 0 71 30t41 87l122 491h-90l13 52h279l-13 -52h-66l-118 -477q-22 -90 -78 -135.5t-150 -45.5q-68 0 -102 28t-34 68q0 31 19.5 54t53.5 23q28 0 44 -15t16 -40q0 -18 -10.5 -34.5t-31.5 -23.5v-4v0z" />
    <glyph glyph-name="K" unicode="K" horiz-adv-x="687" 
d="M350 0l13 52h66l-91 297l-114 -104l-48 -193h66l-12 -52h-256l13 52h66l148 594h-66l13 52h256l-14 -52h-66l-78 -313h7l109 102l226 211h-76l13 52h224l-13 -52h-61l-241 -221l127 -373h61l-13 -52h-259z" />
    <glyph glyph-name="L" unicode="L" horiz-adv-x="555" 
d="M324 646l-147 -590h202l34 136h92l-48 -192h-483l13 52h66l148 594h-66l13 52h255l-13 -52h-66z" />
    <glyph glyph-name="M" unicode="M" horiz-adv-x="815" 
d="M872 646h-66l-149 -594h66l-13 -52h-254l13 52h66l134 535h-8l-93 -138l-227 -340l-60 342l-22 136h-7l-134 -535h66l-13 -52h-197l13 52h66l148 594h-66l13 52h205l58 -377h7l249 377h218z" />
    <glyph glyph-name="N" unicode="N" horiz-adv-x="713" 
d="M-13 52h66l148 594h-66l13 52h204l167 -529h8l120 477h-66l13 52h197l-13 -52h-66l-162 -646h-97l-193 592h-7l-135 -540h66l-13 -52h-197z" />
    <glyph glyph-name="O" unicode="O" horiz-adv-x="695" 
d="M301 47q40 0 73 16t58.5 44.5t44 67t29.5 82.5q15 61 25 102t16 69.5t8.5 48.5t2.5 41q0 28 -7 52.5t-22.5 42.5t-39.5 28t-57 10q-40 0 -73 -16t-58.5 -44.5t-44 -67t-29.5 -82.5q-15 -62 -25 -102.5t-16 -69t-8.5 -49t-2.5 -40.5q0 -28 7 -52.5t22.5 -42.5t39.5 -28
t57 -10zM289 -12q-56 0 -100 17.5t-74 50.5t-45.5 80t-15.5 105q0 43 10 95t31 104t53 100.5t75 86.5t98 60.5t123 22.5q56 0 100 -17.5t74 -50.5t45.5 -80t15.5 -105q0 -43 -10 -95t-31 -104t-52.5 -100.5t-75 -86.5t-98.5 -60.5t-123 -22.5z" />
    <glyph glyph-name="P" unicode="P" horiz-adv-x="603" 
d="M474 698q74 0 118.5 -32t44.5 -101q0 -32 -11 -75t-39 -81.5t-76.5 -65t-123.5 -26.5h-145l-66 -265h90l-13 -52h-279l13 52h66l148 594h-66l13 52h326zM256 374h115q48 0 81 30t46 81q1 7 4 18t6 23t5 24t2 20q0 32 -19 52t-58 20h-115z" />
    <glyph glyph-name="Q" unicode="Q" horiz-adv-x="695" 
d="M400 -177q-52 0 -79.5 18.5t-46.5 59.5l-44 94q-85 17 -130.5 81t-45.5 165q0 43 10 95t31 104t53 100.5t75 86.5t98 60.5t123 22.5q56 0 100 -17.5t74 -50.5t45.5 -80t15.5 -105q0 -40 -8.5 -87t-26 -95t-44 -94t-63 -84t-82.5 -65.5t-103 -37.5l47 -75q14 -22 33 -33.5
t47 -11.5h19l-13 -51h-85zM301 47q40 0 73 16t58.5 44.5t44 67t29.5 82.5q15 61 25 102t16 69.5t8.5 48.5t2.5 41q0 28 -7 52.5t-22.5 42.5t-39.5 28t-57 10q-40 0 -73 -16t-58.5 -44.5t-44 -67t-29.5 -82.5q-15 -62 -25 -102.5t-16 -69t-8.5 -49t-2.5 -40.5q0 -28 7 -52.5
t22.5 -42.5t39.5 -28t57 -10z" />
    <glyph glyph-name="R" unicode="R" horiz-adv-x="644" 
d="M-13 52h66l148 594h-66l13 52h326q74 0 118.5 -32t44.5 -99q0 -40 -11.5 -79t-35 -71t-60 -55.5t-85.5 -32.5l60 -216q9 -32 26 -46.5t49 -14.5h9l-13 -52h-71q-30 0 -51 4.5t-35.5 15.5t-23 29.5t-14.5 46.5l-50 224h-88l-67 -268h66l-12 -52h-256zM370 374
q48 0 81.5 30t46.5 81q1 7 4 18t6 23t5 24t2 20q0 32 -19 52t-58 20h-115l-67 -268h114z" />
    <glyph glyph-name="S" unicode="S" horiz-adv-x="566" 
d="M226 48q39 0 71 11.5t54.5 31t34.5 46t12 56.5q0 39 -21.5 60.5t-69.5 38.5l-42 15q-75 26 -110 66.5t-35 106.5q0 49 19 91t53 73t81 48.5t104 17.5q55 0 86.5 -19.5t36.5 -48.5h8l14 56h92l-49 -199h-92l11 47q4 16 4 30q0 74 -110 74q-38 0 -67 -11t-48 -28.5
t-28.5 -40.5t-9.5 -47q0 -38 22 -61.5t78 -42.5l40 -14q76 -27 108.5 -66.5t32.5 -101.5q0 -51 -19.5 -96.5t-55.5 -79t-86 -53.5t-111 -20q-57 0 -91 20t-40 53h-9l-16 -61h-92l51 204h92l-11 -45q-2 -9 -3.5 -16t-1.5 -15q0 -37 27.5 -58.5t85.5 -21.5z" />
    <glyph glyph-name="T" unicode="T" horiz-adv-x="639" 
d="M116 52h90l147 590h-138l-31 -122h-92l44 178h584l-44 -178h-92l31 122h-138l-148 -590h90l-13 -52h-303z" />
    <glyph glyph-name="U" unicode="U" horiz-adv-x="689" 
d="M318 646l-99 -401q-14 -54 -14 -93q0 -51 27.5 -76t87.5 -25q83 0 131.5 50t74.5 155l97 390h-66l13 52h198l-14 -52h-66l-98 -395q-17 -69 -42.5 -118.5t-60.5 -82t-80.5 -47.5t-103.5 -15q-51 0 -91.5 9.5t-68 30.5t-42.5 54t-15 80t18 115l91 369h-66l13 52h255
l-13 -52h-66z" />
    <glyph glyph-name="V" unicode="V" horiz-adv-x="622" 
d="M659 646l-359 -646h-106l-39 646h-50l13 52h242l-13 -52h-71l10 -282l7 -254h8l132 252l152 284h-71l13 52h195l-13 -52h-50z" />
    <glyph glyph-name="W" unicode="W" horiz-adv-x="929" 
d="M160 646h-50l14 52h241l-13 -52h-71l-17 -504h7l274 556h107l-4 -556h7l235 504h-71l13 52h195l-13 -52h-50l-315 -646h-110l4 548h-7l-273 -548h-115z" />
    <glyph glyph-name="X" unicode="X" horiz-adv-x="634" 
d="M319 52h61l-76 231h-8l-197 -231h61l-13 -52h-200l13 52h57l262 290l-106 304h-57l13 52h244l-13 -52h-61l74 -222h8l186 222h-61l13 52h200l-13 -52h-57l-253 -280l112 -314h57l-12 -52h-247z" />
    <glyph glyph-name="Y" unicode="Y" horiz-adv-x="619" 
d="M117 52h80l57 230l-95 364h-50l13 52h248l-13 -52h-71l68 -288h7l211 288h-71l13 52h200l-13 -52h-50l-271 -351l-61 -243h80l-12 -52h-283z" />
    <glyph glyph-name="Z" unicode="Z" horiz-adv-x="584" 
d="M-11 56l499 586h-250l-30 -122h-92l44 178h481l-14 -56l-498 -586h270l34 136h92l-48 -192h-502z" />
    <glyph glyph-name="bracketleft" unicode="[" horiz-adv-x="310" 
d="M196 760h213l-13 -52h-106l-200 -794h106l-13 -52h-213z" />
    <glyph glyph-name="backslash" unicode="\" horiz-adv-x="383" 
d="M193 -151l-32 891h74l32 -891h-74z" />
    <glyph glyph-name="bracketright" unicode="]" horiz-adv-x="310" 
d="M139 -138h-212l13 52h106l199 794h-106l13 52h213z" />
    <glyph glyph-name="asciicircum" unicode="^" horiz-adv-x="550" 
d="M449 311l-77 314h-7l-231 -314l-56 32l261 355h85l90 -361z" />
    <glyph glyph-name="underscore" unicode="_" horiz-adv-x="521" 
d="M-60 -97h463l-16 -63h-462z" />
    <glyph glyph-name="grave" unicode="`" horiz-adv-x="600" 
d="M226 747l103 38l23 -191l-34 -12z" />
    <glyph glyph-name="a" unicode="a" horiz-adv-x="574" 
d="M141 -12q-57 0 -82 39.5t-25 112.5q0 62 18 131t52 127t82.5 96t108.5 38q45 0 73.5 -22.5t39.5 -72.5h10l54 83h58l-114 -453l18 -8l102 115l31 -22l-63 -83q-34 -45 -61 -63t-55 -18q-41 0 -56.5 21.5t-15.5 48.5q0 13 3 29t5 26l13 51l-10 2q-18 -39 -37 -71.5
t-41.5 -56.5t-49 -37t-58.5 -13zM328 467q-43 0 -82.5 -41.5t-64.5 -132.5q-5 -17 -10 -38.5t-8.5 -43.5t-6 -42.5t-2.5 -35.5q0 -31 6.5 -48t26.5 -17q19 0 39 15.5t39 40t37 55t32 61t24 58t14 45.5l5 20q11 48 0 76t-49 28z" />
    <glyph glyph-name="b" unicode="b" horiz-adv-x="547" 
d="M252 -12q-45 0 -73.5 22.5t-39.5 71.5h-10l-54 -82h-58l169 678h-86l12 48l213 44l-115 -414l10 -2q18 38 37 70.5t41 56.5t48.5 37.5t59.5 13.5q57 0 82 -39.5t25 -112.5q0 -62 -18 -131t-52 -127t-82.5 -96t-108.5 -38zM219 53q43 0 82.5 41.5t64.5 132.5q5 16 10 38
t8.5 44t6 42.5t2.5 35.5q0 31 -6.5 48t-26.5 17q-19 0 -39 -15.5t-39 -40t-37 -55t-32 -61t-24 -58t-14 -45.5l-5 -20q-11 -48 0 -76t49 -28z" />
    <glyph glyph-name="c" unicode="c" horiz-adv-x="448" 
d="M180 -12q-74 0 -109 42.5t-35 121.5q0 58 16.5 124.5t50 123.5t84.5 94.5t120 37.5q65 0 101.5 -30.5t36.5 -78.5q0 -38 -22 -65.5t-60 -27.5q-29 0 -42.5 17t-13.5 39q0 25 18.5 48.5t59.5 26.5v9q-23 17 -64 17q-21 0 -39.5 -7.5t-35.5 -28t-32.5 -56t-29.5 -91.5
q-12 -45 -20 -89.5t-8 -74.5q0 -82 65 -82q44 0 83 37.5t75 105.5l36 -17q-24 -48 -48.5 -85t-52 -61.5t-60.5 -37t-74 -12.5z" />
    <glyph glyph-name="d" unicode="d" horiz-adv-x="575" 
d="M141 -12q-57 0 -82 39.5t-25 112.5q0 62 18 131t52 127t82 96t108 38q45 0 67 -20.5t33 -52.5h10l50 219h-86l12 48l213 44l-177 -703l18 -8l102 115l31 -22l-63 -83q-34 -45 -61 -63t-55 -18q-40 0 -56 21.5t-16 48.5q0 13 3 29t5 26l13 51l-10 2q-18 -39 -37 -71.5
t-41.5 -56.5t-49 -37t-58.5 -13zM328 467q-43 0 -82.5 -41.5t-64.5 -132.5q-5 -17 -10 -38.5t-8.5 -43.5t-6 -42.5t-2.5 -35.5q0 -31 6.5 -48t26.5 -17q19 0 39 15.5t39 40t37 55t32 61t24 58t14 45.5l5 20q11 48 0 76t-49 28z" />
    <glyph glyph-name="e" unicode="e" horiz-adv-x="467" 
d="M181 -12q-75 0 -110 43t-35 124q0 38 7 81t22 85t38 80t54.5 67.5t71.5 46.5t90 17q27 0 52 -5.5t44.5 -17.5t31.5 -32t12 -49q0 -26 -12.5 -53.5t-44.5 -51.5t-87.5 -41.5t-142.5 -22.5q-7 -32 -11.5 -63.5t-4.5 -54.5q0 -83 65 -83q45 0 84.5 37.5t75.5 105.5l36 -17
q-24 -48 -48 -84.5t-52 -61t-61.5 -37.5t-74.5 -13zM181 296q98 13 137.5 48t39.5 86q0 24 -11.5 39t-38.5 15q-21 0 -38 -9t-32 -31t-29 -58t-28 -90z" />
    <glyph glyph-name="f" unicode="f" horiz-adv-x="341" 
d="M-71 -212q-54 0 -79 21.5t-25 53.5q0 27 17.5 46.5t46.5 19.5q26 0 41 -15t15 -37q0 -31 -32 -50l7 -8q39 2 61.5 26.5t36.5 78.5l135 540h-88l14 56h88l17 69q22 88 81.5 134.5t138.5 46.5q56 0 81.5 -21.5t25.5 -53.5q0 -28 -17.5 -48t-47.5 -20q-26 0 -41 14.5
t-15 37.5q0 15 8.5 29t23.5 23l-7 8q-41 -1 -65 -26.5t-38 -78.5l-29 -114h107l-14 -56h-107l-124 -496q-11 -44 -32 -77.5t-49.5 -56.5t-63 -34.5t-71.5 -11.5z" />
    <glyph glyph-name="g" unicode="g" horiz-adv-x="496" 
d="M226 189q-11 0 -22 1t-21 3q-24 -4 -43 -15t-19 -29q0 -17 14.5 -24.5t38.5 -16.5l91 -31q73 -25 108.5 -53.5t35.5 -79.5q0 -42 -22 -71.5t-59 -48.5t-85.5 -27.5t-101.5 -8.5q-59 0 -99.5 8.5t-66 22.5t-37 33.5t-11.5 40.5q0 24 13.5 43t35 33.5t49.5 25t57 18.5l2 9
q-30 14 -43 32.5t-13 42.5q0 22 9.5 39.5t24.5 30t34.5 21.5t39.5 14l2 8q-29 16 -45.5 45t-16.5 69q0 46 18.5 84.5t51 66t75.5 42.5t91 15q44 0 80 -17q11 46 33.5 74t59.5 28q26 0 40.5 -12.5t14.5 -34.5q0 -25 -16 -42t-39 -17q-19 0 -30 9.5t-16 25.5h-5l-17 -48
q21 -18 33 -43t12 -58q0 -47 -18.5 -85.5t-51 -65.5t-75.5 -42t-91 -15zM125 6q-43 -16 -74.5 -40.5t-31.5 -61.5q0 -35 31 -57t105 -22q27 0 53.5 4.5t47 14t33 25.5t12.5 39q0 28 -17.5 39.5t-50.5 22.5zM238 233q40 0 62 28t33 75q11 43 15 63.5t4 31.5q0 26 -11.5 41.5
t-40.5 15.5q-40 0 -62 -28t-33 -75q-11 -43 -15 -63.5t-4 -31.5q0 -26 11.5 -41.5t40.5 -15.5z" />
    <glyph glyph-name="h" unicode="h" horiz-adv-x="580" 
d="M385 -12q-43 0 -60.5 22.5t-17.5 49.5q0 12 2.5 26t5.5 25l81 292q3 12 3 22q0 26 -25 26q-23 0 -52.5 -24.5t-58.5 -66.5t-55 -99t-42 -123l-35 -138h-115l169 678h-86l12 48l213 44l-114 -419l10 -4q21 37 41.5 70.5t44.5 59t52 40.5t64 15q48 0 70 -26.5t22 -69.5
q0 -32 -10 -66l-85 -303l18 -8l102 115l31 -22l-63 -83q-34 -47 -63 -64t-59 -17z" />
    <glyph glyph-name="i" unicode="i" horiz-adv-x="320" 
d="M128 -12q-43 0 -61 22t-18 50q0 12 3 26.5t5 24.5l82 329h-86l12 48l213 44l-116 -465l18 -8l101 115l31 -22l-62 -83q-36 -49 -66 -65t-56 -16zM245 621q-31 0 -47 16.5t-16 37.5q0 11 3 23q6 26 27 42t50 16q31 0 47 -16.5t16 -37.5q0 -11 -3 -23q-6 -26 -27 -42
t-50 -16z" />
    <glyph glyph-name="j" unicode="j" horiz-adv-x="294" 
d="M-62 -212q-54 0 -78.5 20t-24.5 50q0 27 16.5 47.5t47.5 20.5q26 0 40.5 -15t14.5 -38q0 -12 -7 -26t-23 -24l6 -8q34 2 51.5 31.5t31.5 83.5l127 510h-86l12 48l213 44l-142 -569q-21 -85 -74 -130t-125 -45zM246 621q-31 0 -47 16.5t-16 37.5q0 11 3 23q6 26 27 42
t50 16q31 0 47 -16.5t16 -37.5q0 -11 -3 -23q-6 -26 -27 -42t-50 -16z" />
    <glyph glyph-name="k" unicode="k" horiz-adv-x="565" 
d="M386 -12q-26 0 -46.5 10.5t-34.5 45.5l-71 172q44 25 75.5 52t52 53.5t30 50.5t9.5 44q0 35 -29 35q-24 0 -53.5 -24.5t-58 -67t-53.5 -99.5t-41 -122l-35 -138h-115l169 678h-86l12 48l213 44l-114 -419l10 -4q21 39 42.5 73t45 58.5t51 39t62.5 14.5q49 0 71 -26.5
t22 -67.5q0 -36 -16.5 -67.5t-41 -56.5t-54 -44.5t-56.5 -31.5l76 -173h14l95 109l31 -21l-64 -86q-17 -23 -31 -38.5t-27 -24.5t-26 -12.5t-28 -3.5z" />
    <glyph glyph-name="l" unicode="l" horiz-adv-x="305" 
d="M113 -12q-22 0 -37 6t-24.5 16.5t-13.5 23t-4 26.5q0 12 3 26.5t5 24.5l141 567h-86l12 48l213 44l-175 -703l18 -8l101 115l31 -22l-62 -83q-36 -49 -66 -65t-56 -16z" />
    <glyph glyph-name="m" unicode="m" horiz-adv-x="871" 
d="M140 440h-86l12 48l203 44l-45 -181l10 -4q21 37 41.5 70.5t44 59t51 40.5t62.5 15q43 0 62.5 -25t19.5 -69q0 -20 -5 -48l-9 -39l10 -4q21 37 41.5 70.5t44.5 59t52.5 40.5t63.5 15q49 0 70.5 -27t21.5 -69q0 -32 -10 -66l-84 -303l18 -8l101 115l31 -22l-62 -83
q-35 -47 -64 -64t-59 -17q-43 0 -60.5 22.5t-17.5 49.5q0 12 2.5 26t5.5 25l81 292q3 12 3 22q0 26 -25 26q-23 0 -52 -23.5t-58 -65.5t-55 -99.5t-43 -124.5l-35 -138h-115l101 403q3 12 3 22q0 26 -24 26q-23 0 -52.5 -24.5t-58.5 -67t-54.5 -99.5t-41.5 -122l-35 -138
h-115z" />
    <glyph glyph-name="n" unicode="n" horiz-adv-x="594" 
d="M140 440h-86l12 48l203 44l-45 -181l10 -4q21 37 41.5 70.5t44.5 59t52 40.5t64 15q48 0 70 -26.5t22 -69.5q0 -32 -10 -66l-84 -303l18 -8l101 115l31 -22l-62 -83q-35 -46 -64 -63.5t-59 -17.5q-43 0 -60.5 22.5t-17.5 49.5q0 12 2.5 26t5.5 25l81 292q3 12 3 22
q0 26 -25 26q-23 0 -52.5 -24.5t-58.5 -66.5t-55 -99t-42 -123l-35 -138h-115z" />
    <glyph glyph-name="o" unicode="o" horiz-adv-x="527" 
d="M204 -12q-85 0 -127 51t-42 138q0 57 19 120t55.5 115t90.5 86t123 34q85 0 127 -51t42 -138q0 -57 -19 -120t-55.5 -115t-90.5 -86t-123 -34zM209 38q49 0 79 40.5t46 102.5q15 58 24.5 96.5t15 62.5t7.5 38t2 25q0 34 -15 56.5t-50 22.5q-25 0 -44.5 -11t-35 -30
t-26.5 -45t-19 -57q-15 -59 -24.5 -97t-15 -62t-7.5 -38.5t-2 -24.5q0 -34 15 -56.5t50 -22.5z" />
    <glyph glyph-name="p" unicode="p" horiz-adv-x="561" 
d="M-73 -149h67l148 589h-86l12 48l201 44l-44 -176l10 -2q18 39 37.5 72t41.5 56.5t48 36.5t58 13q57 0 82.5 -39.5t25.5 -112.5q0 -62 -18.5 -131t-52 -127t-81.5 -96t-108 -38q-46 0 -69 20.5t-32 52.5h-10l-48 -210h90l-13 -51h-272zM234 53q44 0 83 42t64 132
q5 17 10 38.5t8.5 43.5t6 42.5t2.5 35.5q0 31 -6.5 48t-26.5 17q-19 0 -39 -15.5t-39 -40t-37 -55t-32 -61t-24 -58t-14 -45.5l-5 -20q-11 -48 0 -76t49 -28z" />
    <glyph glyph-name="q" unicode="q" horiz-adv-x="548" 
d="M159 -149h89l89 312l-10 3q-18 -39 -37 -71.5t-41.5 -56.5t-49 -37t-58.5 -13q-57 0 -82 39.5t-25 112.5q0 62 18 131t52 127t82.5 96t108.5 38q45 0 73.5 -22.5t39.5 -72.5h10l54 83h58l-167 -669h68l-12 -51h-273zM328 467q-43 0 -82.5 -41.5t-64.5 -132.5
q-5 -17 -10 -38.5t-8.5 -43.5t-6 -42.5t-2.5 -35.5q0 -31 6.5 -48t26.5 -17q19 0 39 15.5t39 40t37 55t32 61t24 58t14 45.5l5 20q11 48 0 76t-49 28z" />
    <glyph glyph-name="r" unicode="r" horiz-adv-x="464" 
d="M140 440h-86l12 48l200 44l-44 -177l10 -4q18 46 36 80t38 56.5t43.5 33.5t52.5 11q42 0 64 -21t22 -55q0 -32 -20 -56t-54 -24q-26 0 -42.5 14.5t-16.5 37.5q0 15 6.5 29.5t14.5 22.5l-7 6q-25 -5 -55.5 -45.5t-60.5 -106.5q-10 -20 -21 -46.5t-22 -57t-21.5 -63.5
t-17.5 -65l-26 -102h-115z" />
    <glyph glyph-name="s" unicode="s" horiz-adv-x="400" 
d="M111 -12q-65 0 -92 21t-27 53q0 26 16.5 46.5t48.5 20.5q24 0 39 -14t15 -39q0 -13 -5 -27.5t-14 -23.5l5 -8q52 6 84.5 29.5t32.5 67.5q0 21 -7.5 38t-19.5 33t-27 32t-31 34q-20 23 -34.5 49t-14.5 62q0 40 16 72t44 53.5t65.5 33t79.5 11.5q63 0 89.5 -21.5
t26.5 -53.5q0 -25 -16.5 -45.5t-48.5 -20.5q-24 0 -39 14t-15 39q0 13 5 27.5t14 23.5l-5 8q-50 -6 -77 -30.5t-27 -66.5q0 -22 7.5 -39t19.5 -33t27 -31.5t31 -33.5q17 -20 32.5 -46.5t15.5 -64.5q0 -41 -17.5 -72.5t-47 -53t-68 -33t-81.5 -11.5z" />
    <glyph glyph-name="t" unicode="t" horiz-adv-x="373" 
d="M78 520h41q33 0 49 11t32 37l55 90h61l-35 -138h121l-13 -56h-122l-97 -393l17 -11l129 109l28 -27l-92 -88q-21 -21 -37.5 -34t-30 -20t-26 -9.5t-25.5 -2.5q-21 0 -36 6t-24 16t-13 23t-4 26t3 27.5t5 24.5l88 353h-88z" />
    <glyph glyph-name="u" unicode="u" horiz-adv-x="592" 
d="M143 -12q-48 0 -70 27t-22 69q0 32 10 66l81 290h-86l12 48l216 44l-115 -415q-3 -12 -3 -22q0 -26 25 -26q23 0 52 24.5t58.5 66.5t55 99t42.5 122l35 139h115l-114 -453l18 -8l101 115l31 -22l-62 -83q-18 -25 -34.5 -40.5t-31 -24.5t-27.5 -12.5t-26 -3.5
q-41 0 -56.5 22t-15.5 48q0 13 3.5 29t5.5 26l14 56l-10 4q-21 -38 -41.5 -71.5t-44.5 -58.5t-52.5 -40t-63.5 -15z" />
    <glyph glyph-name="v" unicode="v" horiz-adv-x="482" 
d="M237 122l189 347h-56l13 51h163l-12 -51h-39l-278 -469h-88l-37 469h-42l13 51h218l-13 -51h-57l17 -347h9z" />
    <glyph glyph-name="w" unicode="w" horiz-adv-x="748" 
d="M399 369l-198 -369h-94l-5 469h-41l13 51h215l-12 -51h-58l-12 -344h9l209 399h85l-6 -399h9l176 344h-59l12 51h166l-12 -51h-39l-264 -469h-88l3 369h-9z" />
    <glyph glyph-name="x" unicode="x" horiz-adv-x="596" 
d="M403 68l16 -2l82 88l28 -23l-48 -62q-38 -50 -67 -65.5t-55 -15.5q-33 0 -49.5 18.5t-21.5 50.5l-23 135h-7q-13 -39 -25.5 -70.5t-28.5 -56.5q-27 -42 -60.5 -59.5t-65.5 -17.5q-43 0 -65.5 19.5t-22.5 51.5q0 33 20 57.5t55 24.5q26 0 42 -15t16 -38q0 -14 -6 -29
t-15 -23l8 -6q15 4 32 22.5t34 47.5t34.5 67t33.5 82l-52 203l-16 2l-81 -89l-28 24l47 62q39 50 67.5 65.5t54.5 15.5q34 0 50.5 -18.5t21.5 -50.5l22 -135h8q12 39 25 70.5t29 55.5q27 43 60.5 60.5t64.5 17.5q44 0 66 -20t22 -52t-20 -56.5t-54 -24.5q-26 0 -42 15
t-16 38q0 14 6 28.5t14 22.5l-7 7q-15 -5 -32 -23t-34.5 -47t-35 -67t-33.5 -82z" />
    <glyph glyph-name="y" unicode="y" horiz-adv-x="482" 
d="M0 -212q-42 0 -67.5 19.5t-25.5 51.5q0 29 19 51t51 22q26 0 40.5 -14t14.5 -37q0 -14 -5.5 -28t-14.5 -22l7 -6q33 17 61.5 50t59.5 93l-52 501h-42l12 51h218l-13 -51h-56l22 -346h9l192 346h-55l13 51h162l-13 -51h-39l-320 -534q-25 -41 -48.5 -69.5t-46 -45.5
t-43.5 -24.5t-40 -7.5z" />
    <glyph glyph-name="z" unicode="z" horiz-adv-x="472" 
d="M-9 35q3 12 6.5 20t8 15.5t11 15t15.5 16.5l298 293l-188 34l-18 -11l-33 -97l-37 6l32 135q10 40 30 55t59 15q22 0 43 -4t47.5 -11.5t60 -19t80.5 -26.5l13 49h57l-9 -35q-6 -23 -14 -35.5t-27 -31.5l-299 -294l220 -33l17 11l34 97l37 -6l-33 -135q-10 -41 -30 -55.5
t-59 -14.5q-23 0 -46 3.5t-53 11t-69 19t-93 27.5l-12 -49h-58z" />
    <glyph glyph-name="braceleft" unicode="{" horiz-adv-x="330" 
d="M36 339q39 0 70.5 24t42.5 67l62 245q10 38 39 61.5t83 23.5h95l-14 -52h-87l-68 -271q-6 -23 -18.5 -43t-30.5 -36t-39.5 -27t-43.5 -15l-3 -10q31 -7 52 -34.5t21 -67.5q0 -8 -1 -16.5t-4 -19.5l-65 -254h88l-12 -52h-112q-32 0 -48 18t-16 46q0 14 4 29l60 241
q2 7 3 13.5t1 12.5q0 30 -20 45t-53 15z" />
    <glyph glyph-name="bar" unicode="|" horiz-adv-x="332" 
d="M29 -138l224 898h75l-224 -898h-75z" />
    <glyph glyph-name="braceright" unicode="}" horiz-adv-x="330" 
d="M319 283q-39 0 -70.5 -24t-42.5 -67l-62 -245q-10 -38 -39 -61.5t-83 -23.5h-95l14 52h87l68 271q6 22 18.5 42.5t30.5 36.5t39 27t44 15l3 10q-31 7 -52 34.5t-21 67.5q0 8 1 16.5t4 19.5l65 254h-88l12 52h112q32 0 48 -18t16 -46q0 -14 -4 -29l-60 -241
q-2 -7 -3 -13.5t-1 -12.5q0 -30 20 -45t53 -15z" />
    <glyph glyph-name="asciitilde" unicode="~" horiz-adv-x="550" 
d="M374 241q-32 0 -55.5 9.5t-49.5 26.5q-21 14 -41.5 23.5t-47.5 9.5q-21 0 -39.5 -7t-41.5 -23l-23 44q23 25 50.5 39t69.5 14q32 0 55.5 -9.5t49.5 -26.5q21 -14 41.5 -23.5t47.5 -9.5q21 0 39.5 7t41.5 23l23 -44q-23 -25 -50.5 -39t-69.5 -14z" />
    <glyph glyph-name="uni00A0" unicode="&#xa0;" horiz-adv-x="212" 
 />
    <glyph glyph-name="exclamdown" unicode="&#xa1;" horiz-adv-x="276" 
d="M128 319h50l-42 -319l-45 -178h-123l44 178zM177 378q-33 0 -51 18.5t-18 43.5q0 10 3 25q8 31 31 49t55 18q33 0 51 -18.5t18 -43.5q0 -10 -3 -25q-8 -31 -31 -49t-55 -18z" />
    <glyph glyph-name="cent" unicode="&#xa2;" horiz-adv-x="475" 
d="M159 -10q-63 5 -93.5 46t-30.5 116q0 56 15 119.5t46.5 118.5t80.5 94t117 46l26 100h53l-26 -100q57 -6 88 -35t31 -70q0 -35 -19.5 -60t-54.5 -25q-27 0 -40 15t-13 35q0 11 4 23t13 22t23 17t33 8v9q-11 7 -32 11.5t-45 5.5l-107 -428q50 3 90 40.5t75 102.5l36 -17
q-44 -89 -93.5 -138t-123.5 -56l-25 -104h-54zM148 140q0 -58 32 -75l103 416q-35 -11 -60 -50.5t-47 -126.5q-12 -45 -20 -89.5t-8 -74.5z" />
    <glyph glyph-name="sterling" unicode="&#xa3;" horiz-adv-x="549" 
d="M65 365h64q-2 14 -3 32.5t-1 39.5q0 73 23.5 124.5t61 84.5t84.5 48.5t93 15.5q35 0 66.5 -7.5t55.5 -23t38 -38.5t14 -54q0 -18 -5.5 -34t-15.5 -29t-24 -20.5t-32 -7.5q-29 0 -44.5 17t-15.5 41q0 27 16.5 48.5t48.5 29.5l1 7q-20 7 -38.5 10.5t-44.5 3.5
q-43 0 -73.5 -17.5t-50.5 -47t-29.5 -68t-9.5 -80.5v-35.5t1 -39.5h154l-13 -53h-142q-3 -46 -17.5 -81.5t-36.5 -62t-49.5 -45t-56.5 -29.5l-1 -8h292l28 110h74l-48 -196h-453l21 85q20 9 43.5 30t44.5 50.5t35 66.5t14 80h-83z" />
    <glyph glyph-name="yen" unicode="&#xa5;" horiz-adv-x="610" 
d="M117 350h132l-73 296h-50l14 52h243l-13 -52h-71l53 -266h7l191 266h-71l13 52h200l-13 -52h-50l-226 -296h136l-13 -52h-154l-24 -97h154l-13 -52h-154l-24 -97h75l-13 -52h-265l13 52h75l24 97h-154l13 52h154l25 97h-154z" />
    <glyph glyph-name="brokenbar" unicode="&#xa6;" horiz-adv-x="332" 
d="M163 401l90 359h75l-89 -359h-76zM29 -138l89 359h76l-90 -359h-75z" />
    <glyph glyph-name="section" unicode="&#xa7;" horiz-adv-x="526" 
d="M151 -157q-30 0 -56 6.5t-45 18.5t-30 29.5t-11 39.5q0 32 20.5 57t52.5 25q24 0 38.5 -14.5t14.5 -37.5t-15.5 -42t-41.5 -23v-9q12 -5 27.5 -7.5t31.5 -2.5q58 0 94 27t36 69q0 17 -6 31t-16.5 27t-25 25t-30.5 26l-44 34q-23 19 -43 36.5t-35 37t-24 41.5t-9 49
q0 29 11.5 53.5t32 43.5t48.5 31.5t60 17.5l2 11q-16 20 -24 41t-8 48q0 35 16.5 67.5t45 57t68 39t86.5 14.5q30 0 56 -6.5t44.5 -18.5t29.5 -29.5t11 -39.5q0 -32 -20 -57t-52 -25q-24 0 -39 14.5t-15 37.5t16 42t42 23v9q-13 5 -28 7.5t-31 2.5q-58 0 -94 -27t-36 -69
q0 -17 6 -31t16.5 -27t24.5 -25t31 -26l44 -34q22 -19 42.5 -36.5t35.5 -37t24 -41.5t9 -49q0 -29 -11.5 -53.5t-32 -43.5t-48.5 -31.5t-60 -17.5l-3 -12q17 -20 25 -41t8 -47q0 -35 -16.5 -67.5t-45.5 -57t-68.5 -39t-85.5 -14.5zM306 138q42 9 62 35t20 55q0 17 -5.5 31
t-16 26.5t-25 24.5t-31.5 26l-43 35q-14 11 -27 22t-24 22q-42 -9 -61.5 -35t-19.5 -55q0 -17 5.5 -31t16 -26.5t25 -24.5t31.5 -26l43 -35q3 -2 10 -8.5t15.5 -13.5t15.5 -13.5t9 -8.5z" />
    <glyph glyph-name="dieresis" unicode="&#xa8;" horiz-adv-x="600" 
d="M229 611q-27 0 -41 16t-14 35q0 8 3 20q5 21 22.5 35.5t43.5 14.5q27 0 40.5 -16t13.5 -35v-9.5t-2 -10.5q-5 -21 -22.5 -35.5t-43.5 -14.5zM421 611q-27 0 -40.5 16t-13.5 35v9.5t2 10.5q5 21 22.5 35.5t43.5 14.5q27 0 41 -16t14 -35q0 -8 -3 -20q-5 -21 -22.5 -35.5
t-43.5 -14.5z" />
    <glyph glyph-name="copyright" unicode="&#xa9;" horiz-adv-x="774" 
d="M346 -12q-65 0 -116.5 21.5t-88 60.5t-56 93.5t-19.5 119.5q0 81 28.5 158t81 137t126 96t162.5 36q64 0 116 -21.5t88.5 -60.5t56 -93.5t19.5 -119.5q0 -81 -28.5 -158t-81 -137t-126 -96t-162.5 -36zM350 32q58 0 110 20.5t93 56t69.5 82.5t40.5 101l8 36t7 34.5t5 31
t2 23.5q0 58 -16 104t-45 78.5t-71 49.5t-93 17q-59 0 -110.5 -20.5t-92.5 -56t-69.5 -82.5t-40.5 -101l-8 -36t-7 -34.5t-5 -31t-2 -23.5q0 -58 16 -104t45 -78.5t71 -49.5t93 -17zM353 148q-57 0 -83.5 30.5t-26.5 90.5q0 43 12 92.5t37.5 91t64 69t91.5 27.5
q49 0 74.5 -23.5t25.5 -58.5q0 -28 -15.5 -48t-42.5 -20q-22 0 -32.5 12t-10.5 28q0 19 14 36.5t43 19.5v6q-17 12 -48 12q-16 0 -29.5 -5t-26 -19.5t-23.5 -40t-22 -67.5q-9 -32 -14.5 -63.5t-5.5 -54.5q0 -60 48 -60q32 0 60.5 26.5t55.5 75.5l28 -12
q-35 -72 -74.5 -108.5t-99.5 -36.5z" />
    <glyph glyph-name="ordfeminine" unicode="&#xaa;" horiz-adv-x="392" 
d="M160 335q-34 0 -55 19.5t-21 50.5q0 28 12 51.5t38.5 41t67.5 28.5t100 14q4 17 8.5 40t4.5 38q0 27 -14 39t-37 12q-9 0 -20.5 -2t-21.5 -6l-1 -6q5 -3 8 -8.5t3 -16.5q0 -20 -13 -35.5t-36 -15.5q-17 0 -26.5 9t-9.5 29q0 16 10.5 32t29 28t43.5 19.5t54 7.5
q48 0 79.5 -23t31.5 -68q0 -11 -2.5 -26t-4.5 -28l-42 -169l13 -6l68 77l21 -15l-44 -57q-23 -30 -42.5 -42t-37.5 -12q-26 0 -38.5 13.5t-12.5 33.5q0 7 1 14.5t6 23.5l-7 2q-17 -42 -46.5 -64.5t-66.5 -22.5zM197 381q12 0 26 9.5t27 24t23 32.5t14 35l7 29
q-61 -5 -89 -23t-35 -47q-2 -5 -3 -12.5t-1 -13.5q0 -34 31 -34z" />
    <glyph glyph-name="guillemotleft" unicode="&#xab;" horiz-adv-x="497" 
d="M178 72l-131 185l12 53l216 181l17 -38l-138 -181l53 -169zM384 72l-131 185l12 53l216 181l17 -38l-138 -181l53 -169z" />
    <glyph glyph-name="logicalnot" unicode="&#xac;" horiz-adv-x="550" 
d="M357 78l49 195h-341l16 64h414l-66 -259h-72z" />
    <glyph glyph-name="uni00AD" unicode="&#xad;" horiz-adv-x="369" 
d="M55 265l20 80h262l-20 -80h-262z" />
    <glyph glyph-name="registered" unicode="&#xae;" horiz-adv-x="442" 
d="M258 298q-37 0 -69 13.5t-55 37t-36.5 55.5t-13.5 69q0 51 16 94.5t45 75t69 49.5t87 18q37 0 69 -13.5t55 -37t36.5 -55.5t13.5 -69q0 -51 -16 -94.5t-45 -75t-69 -49.5t-87 -18zM261 331q34 0 62 11.5t49.5 31.5t36 47.5t20.5 59.5q2 11 4 28.5t2 22.5q0 31 -10 57.5
t-28 46t-43.5 30.5t-55.5 11q-34 0 -62 -11.5t-49.5 -31.5t-36 -47.5t-20.5 -59.5q-2 -11 -4 -28.5t-2 -22.5q0 -31 10 -57.5t28 -46t43.5 -30.5t55.5 -11zM374 566q0 -27 -16 -46.5t-42 -26.5l18 -58q5 -15 22 -15h2l-5 -22h-20q-20 0 -29 6t-14 24l-17 61h-21l-18 -69h15
l-6 -22h-79l5 22h19l42 168h-18l5 22h102q55 0 55 -44zM289 512q12 0 20 8.5t12 21.5q2 5 3.5 12t1.5 12q0 18 -20 18h-31l-17 -72h31z" />
    <glyph glyph-name="macron" unicode="&#xaf;" horiz-adv-x="600" 
d="M204 707h273l-17 -69h-273z" />
    <glyph glyph-name="degree" unicode="&#xb0;" horiz-adv-x="431" 
d="M264 352q-32 0 -59.5 12t-48 33t-32 50t-11.5 64q0 42 14.5 78.5t39.5 63.5t59.5 42t75.5 15q33 0 60.5 -12t48 -33t32 -50t11.5 -63q0 -43 -14.5 -79.5t-40 -63.5t-60 -42t-75.5 -15zM271 413q26 0 47 11t36 29.5t23.5 43.5t8.5 54q0 41 -24 69.5t-66 28.5
q-26 0 -47.5 -11t-36.5 -29.5t-23 -44t-8 -53.5q0 -41 24 -69.5t66 -28.5z" />
    <glyph glyph-name="plusminus" unicode="&#xb1;" horiz-adv-x="550" 
d="M265 364h-176l16 64h176l47 187h73l-47 -187h176l-16 -64h-176l-47 -187h-73zM14 64h426l-17 -64h-425z" />
    <glyph glyph-name="twosuperior" unicode="&#xb2;" horiz-adv-x="341" 
d="M70 388l127 103q31 26 53 50t31 56q2 5 4 13.5t2 18.5q0 17 -11.5 28t-33.5 11q-26 0 -44 -8l-2 -5q18 -6 18 -25q0 -20 -14 -34.5t-34 -14.5q-17 0 -26.5 9.5t-9.5 26.5q0 18 11 34t29 27.5t41.5 18.5t48.5 7q57 0 83.5 -22t26.5 -60q0 -29 -12.5 -53.5t-31.5 -44
t-41.5 -35t-41.5 -27.5l-112 -70l-2 -5h151l11 45h47l-25 -103h-257z" />
    <glyph glyph-name="threesuperior" unicode="&#xb3;" horiz-adv-x="336" 
d="M166 323q-46 0 -72.5 19.5t-26.5 49.5q0 25 14.5 39.5t33.5 14.5q17 0 27 -8.5t10 -25.5q0 -16 -9.5 -26.5t-23.5 -13.5l-2 -5q15 -9 40 -9q33 0 56 18t31 52q2 6 3 15.5t1 14.5q0 43 -50 43h-29l10 40h22q35 0 54.5 18.5t26.5 44.5q1 3 3 12t2 16q0 18 -12 27t-33 9
q-11 0 -22.5 -2.5t-19.5 -5.5l-2 -4q17 -7 17 -28q0 -16 -12 -30.5t-35 -14.5q-18 0 -27 10t-9 27t10.5 32t28.5 26.5t42 18.5t51 7q108 0 108 -74q0 -24 -9 -42t-24 -31t-33 -20.5t-36 -9.5l-1 -5q30 -7 47 -26t17 -45t-11 -49.5t-32 -41t-52 -27.5t-72 -10z" />
    <glyph glyph-name="acute" unicode="&#xb4;" horiz-adv-x="600" 
d="M307 582l-32 17l102 186l93 -48z" />
    <glyph glyph-name="mu" unicode="&#xb5;" horiz-adv-x="592" 
d="M140 440h-86l12 48l216 44l-108 -390q-4 -13 -7 -25t-3 -20q0 -28 25 -28q21 0 49.5 22.5t58 64t56 99t44.5 126.5l35 139h115l-114 -453l18 -8l101 115l31 -22l-64 -85q-17 -23 -32.5 -38.5t-30 -24.5t-28.5 -12.5t-27 -3.5q-40 0 -55.5 22t-15.5 48q0 13 3.5 29t5.5 26
l14 56l-10 4q-20 -38 -39 -71.5t-40 -58.5t-44.5 -40t-51.5 -15q-24 0 -38.5 14.5t-16.5 46.5h-10l-8 -197l-13 -52h-110z" />
    <glyph glyph-name="paragraph" unicode="&#xb6;" horiz-adv-x="566" 
d="M85 467q0 55 23.5 98.5t63 72.5t90.5 44.5t107 15.5h262l-13 -52h-67l-141 -563q-29 -115 -95 -176.5t-157 -61.5q-72 0 -111.5 31.5t-39.5 76.5q0 36 21 60t52 24q26 0 40 -16t14 -37q0 -26 -15.5 -44t-45.5 -23l-1 -8q17 -9 39 -12.5t46 -3.5h6.5t6.5 1l101 401
q-41 0 -75 11.5t-59 33.5t-38.5 54t-13.5 73zM231 -91q43 20 74.5 64t48.5 113l141 560h-79z" />
    <glyph glyph-name="periodcentered" unicode="&#xb7;" horiz-adv-x="322" 
d="M162 228q-33 0 -51 18.5t-18 43.5q0 10 3 25q8 31 31 49t55 18q33 0 51 -18.5t18 -43.5q0 -10 -3 -25q-8 -31 -31 -49t-55 -18z" />
    <glyph glyph-name="cedilla" unicode="&#xb8;" horiz-adv-x="600" 
d="M269 -209q-38 0 -60 14t-31 31l26 26q19 -26 56 -26q17 0 27.5 5.5t16.5 13.5t8 16.5t2 14.5q0 12 -9 21.5t-37 13.5l-24 3l38 88h46l-31 -71l2 -3q21 6 37 6q26 0 42.5 -13t16.5 -39q0 -24 -10.5 -42.5t-28.5 -31.5t-40.5 -20t-46.5 -7z" />
    <glyph glyph-name="onesuperior" unicode="&#xb9;" horiz-adv-x="334" 
d="M75 368h90l67 271l-100 -40l-7 34l145 65h57l-82 -330h78l-9 -39h-249z" />
    <glyph glyph-name="ordmasculine" unicode="&#xba;" horiz-adv-x="386" 
d="M421 579q0 -43 -14 -86.5t-40 -78.5t-63.5 -57t-85.5 -22q-60 0 -91 34t-31 91q0 43 14 86.5t40 78.5t63.5 57t85.5 22q60 0 91 -34t31 -91zM201 563q-13 -51 -21 -82.5t-8 -51.5q0 -28 14 -41.5t37 -13.5q36 0 59 28.5t34 73.5q13 51 21 82.5t8 51.5q0 28 -14 41.5
t-37 13.5q-36 0 -59 -28.5t-34 -73.5z" />
    <glyph glyph-name="guillemotright" unicode="&#xbb;" horiz-adv-x="497" 
d="M147 292l-53 169l29 31l131 -185l-12 -53l-216 -181l-17 38zM353 292l-53 169l29 31l131 -185l-12 -53l-216 -181l-17 38z" />
    <glyph glyph-name="onequarter" unicode="&#xbc;" horiz-adv-x="848" 
d="M75 368h90l67 271l-100 -40l-7 34l145 65h57l-82 -330h78l-9 -39h-249zM730 698h72l-637 -698h-72zM587 72h-158l13 55l204 242h91l-60 -242h46l-14 -55h-46l-18 -72h-76zM486 127h115l45 183h-7z" />
    <glyph glyph-name="onehalf" unicode="&#xbd;" horiz-adv-x="850" 
d="M75 368h90l67 271l-100 -40l-7 34l145 65h57l-82 -330h78l-9 -39h-249zM730 698h72l-637 -698h-72zM470 59l127 103q31 26 53 50t31 56q2 5 4 13.5t2 18.5q0 17 -11.5 28t-33.5 11q-26 0 -44 -8l-2 -5q18 -6 18 -25q0 -20 -14 -34.5t-34 -14.5q-17 0 -26.5 9.5t-9.5 26.5
q0 18 11 34t29 27.5t41.5 18.5t48.5 7q57 0 83.5 -22t26.5 -60q0 -29 -12.5 -53.5t-31.5 -44t-41.5 -35t-41.5 -27.5l-112 -70l-2 -5h151l11 45h47l-25 -103h-257z" />
    <glyph glyph-name="threequarters" unicode="&#xbe;" horiz-adv-x="810" 
d="M166 323q-46 0 -72.5 19.5t-26.5 49.5q0 25 14.5 39.5t33.5 14.5q17 0 27 -8.5t10 -25.5q0 -16 -9.5 -26.5t-23.5 -13.5l-2 -5q15 -9 40 -9q33 0 56 18t31 52q2 6 3 15.5t1 14.5q0 43 -50 43h-29l10 40h22q35 0 54.5 18.5t26.5 44.5q1 3 3 12t2 16q0 18 -12 27t-33 9
q-11 0 -22.5 -2.5t-19.5 -5.5l-2 -4q17 -7 17 -28q0 -16 -12 -30.5t-35 -14.5q-18 0 -27 10t-9 27t10.5 32t28.5 26.5t42 18.5t51 7q108 0 108 -74q0 -24 -9 -42t-24 -31t-33 -20.5t-36 -9.5l-1 -5q30 -7 47 -26t17 -45t-11 -49.5t-32 -41t-52 -27.5t-72 -10zM692 698h72
l-637 -698h-72zM549 72h-158l13 55l204 242h91l-60 -242h46l-14 -55h-46l-18 -72h-76zM448 127h115l45 183h-7z" />
    <glyph glyph-name="questiondown" unicode="&#xbf;" horiz-adv-x="465" 
d="M134 -190q-47 0 -80 10.5t-54 28.5t-30.5 43t-9.5 54q0 59 24.5 105t64.5 78t89.5 50t100.5 22l25 100h64l-40 -157q-72 -4 -122 -39t-68 -105q-2 -8 -6 -26t-4 -35q0 -37 22 -56.5t60 -19.5q23 0 47.5 4.5t39.5 12.5l3 8q-17 5 -27.5 17.5t-10.5 32.5q0 27 19.5 51
t55.5 24q29 0 45.5 -15.5t16.5 -43.5q0 -30 -19 -56.5t-50.5 -46t-72 -30.5t-83.5 -11zM322 378q-33 0 -51 18.5t-18 43.5q0 10 3 25q8 31 31 49t55 18q33 0 51 -18.5t18 -43.5q0 -10 -3 -25q-8 -31 -31 -49t-55 -18z" />
    <glyph glyph-name="Agrave" unicode="&#xc0;" horiz-adv-x="652" 
d="M-54 0l13 52h50l371 646h111l48 -646h50l-13 -52h-241l13 52h71l-9 172h-230l-95 -172h71l-12 -52h-198zM384 600l-176 -322h199l-16 322h-7zM352 917l103 38l23 -191l-34 -12z" />
    <glyph glyph-name="Aacute" unicode="&#xc1;" horiz-adv-x="652" 
d="M-54 0l13 52h50l371 646h111l48 -646h50l-13 -52h-241l13 52h71l-9 172h-230l-95 -172h71l-12 -52h-198zM384 600l-176 -322h199l-16 322h-7zM444 752l-32 17l102 186l93 -48z" />
    <glyph glyph-name="Acircumflex" unicode="&#xc2;" horiz-adv-x="652" 
d="M-54 0l13 52h50l371 646h111l48 -646h50l-13 -52h-241l13 52h71l-9 172h-230l-95 -172h71l-12 -52h-198zM384 600l-176 -322h199l-16 322h-7zM527 945l78 -172l-31 -17l-97 101l-148 -101l-28 21l153 168h73z" />
    <glyph glyph-name="Atilde" unicode="&#xc3;" horiz-adv-x="652" 
d="M-54 0l13 52h50l371 646h111l48 -646h50l-13 -52h-241l13 52h71l-9 172h-230l-95 -172h71l-12 -52h-198zM384 600l-176 -322h199l-16 322h-7zM528 776q-23 0 -42 8t-39 19q-23 12 -39 20.5t-32 8.5q-13 0 -25 -6.5t-31 -25.5l-25 24q24 32 47.5 56t57.5 24q23 0 42 -8
t39 -19q23 -12 39 -20.5t32 -8.5q13 0 25 6.5t31 25.5l25 -24q-24 -32 -47.5 -56t-57.5 -24z" />
    <glyph glyph-name="Adieresis" unicode="&#xc4;" horiz-adv-x="652" 
d="M-54 0l13 52h50l371 646h111l48 -646h50l-13 -52h-241l13 52h71l-9 172h-230l-95 -172h71l-12 -52h-198zM384 600l-176 -322h199l-16 322h-7zM362 779q-27 0 -41 16t-14 35q0 8 3 20q5 21 22.5 35.5t43.5 14.5q27 0 40.5 -16t13.5 -35v-9.5t-2 -10.5q-5 -21 -22.5 -35.5
t-43.5 -14.5zM554 779q-27 0 -40.5 16t-13.5 35v9.5t2 10.5q5 21 22.5 35.5t43.5 14.5q27 0 41 -16t14 -35q0 -8 -3 -20q-5 -21 -22.5 -35.5t-43.5 -14.5z" />
    <glyph glyph-name="Aring" unicode="&#xc5;" horiz-adv-x="652" 
d="M-54 0l13 52h50l371 646h111l48 -646h50l-13 -52h-241l13 52h71l-9 172h-230l-95 -172h71l-12 -52h-198zM384 600l-176 -322h199l-16 322h-7zM450 734q-26 0 -45.5 8t-33 21.5t-20.5 31t-7 36.5q0 34 11 63t30.5 50t46 33t57.5 12q25 0 45 -8t33.5 -21.5t20.5 -31
t7 -36.5q0 -34 -11 -63t-30.5 -50t-46 -33t-57.5 -12zM453 776q48 0 62 56q5 23 9.5 44.5t4.5 30.5q0 17 -10 28.5t-33 11.5q-48 0 -62 -56q-5 -23 -9.5 -44.5t-4.5 -30.5q0 -17 10 -28.5t33 -11.5z" />
    <glyph glyph-name="AE" unicode="&#xc6;" horiz-adv-x="920" 
d="M-54 0l13 52h54l428 594h-68l13 52h584l-44 -178h-92l31 122h-223l-62 -252h149l19 73h62l-51 -202h-63l19 73h-150l-69 -278h230l35 136h91l-48 -192h-512l12 52h68l43 173h-205l-123 -173h68l-13 -52h-196zM428 279l92 367h-8l-264 -367h180z" />
    <glyph glyph-name="Ccedilla" unicode="&#xc7;" horiz-adv-x="603" 
d="M242 -209q-38 0 -60 14t-31 31l26 26q19 -26 56 -26q17 0 27.5 5.5t16.5 13.5t8 16.5t2 14.5q0 12 -9 21.5t-37 13.5l-25 3l29 65q-42 3 -77.5 19t-60.5 45.5t-39 73t-14 101.5q0 50 10.5 105.5t32 109t52.5 102t72 85.5t91 58.5t110 21.5q56 0 88.5 -21.5t41.5 -51.5h9
l15 61h92l-53 -213h-92l12 48q4 16 4 30q0 41 -29 63.5t-75 22.5q-42 0 -75.5 -17.5t-60 -47.5t-45 -69t-28.5 -82q-14 -56 -23 -93t-14.5 -62.5t-8 -44t-2.5 -36.5q0 -62 31 -100t95 -38q66 0 115.5 37t84.5 94l39 -25q-17 -30 -41.5 -60t-56.5 -54.5t-71 -41t-83 -20.5
l-21 -48l2 -3q21 6 37 6q26 0 42.5 -13t16.5 -39q0 -24 -10.5 -42.5t-28.5 -31.5t-40.5 -20t-46.5 -7z" />
    <glyph glyph-name="Egrave" unicode="&#xc8;" horiz-adv-x="601" 
d="M396 334h-150l-69 -278h231l34 136h92l-48 -192h-512l13 52h66l148 594h-66l13 52h503l-44 -178h-92l31 122h-223l-62 -252h149l19 73h62l-51 -202h-63zM327 917l103 38l23 -191l-34 -12z" />
    <glyph glyph-name="Eacute" unicode="&#xc9;" horiz-adv-x="601" 
d="M396 334h-150l-69 -278h231l34 136h92l-48 -192h-512l13 52h66l148 594h-66l13 52h503l-44 -178h-92l31 122h-223l-62 -252h149l19 73h62l-51 -202h-63zM419 752l-32 17l102 186l93 -48z" />
    <glyph glyph-name="Ecircumflex" unicode="&#xca;" horiz-adv-x="601" 
d="M396 334h-150l-69 -278h231l34 136h92l-48 -192h-512l13 52h66l148 594h-66l13 52h503l-44 -178h-92l31 122h-223l-62 -252h149l19 73h62l-51 -202h-63zM502 945l78 -172l-31 -17l-97 101l-148 -101l-28 21l153 168h73z" />
    <glyph glyph-name="Edieresis" unicode="&#xcb;" horiz-adv-x="601" 
d="M396 334h-150l-69 -278h231l34 136h92l-48 -192h-512l13 52h66l148 594h-66l13 52h503l-44 -178h-92l31 122h-223l-62 -252h149l19 73h62l-51 -202h-63zM337 779q-27 0 -41 16t-14 35q0 8 3 20q5 21 22.5 35.5t43.5 14.5q27 0 40.5 -16t13.5 -35v-9.5t-2 -10.5
q-5 -21 -22.5 -35.5t-43.5 -14.5zM529 779q-27 0 -40.5 16t-13.5 35v9.5t2 10.5q5 21 22.5 35.5t43.5 14.5q27 0 41 -16t14 -35q0 -8 -3 -20q-5 -21 -22.5 -35.5t-43.5 -14.5z" />
    <glyph glyph-name="Igrave" unicode="&#xcc;" horiz-adv-x="333" 
d="M-26 0l13 52h66l148 594h-66l13 52h256l-14 -52h-66l-148 -594h66l-12 -52h-256zM196 917l103 38l23 -191l-34 -12z" />
    <glyph glyph-name="Iacute" unicode="&#xcd;" horiz-adv-x="333" 
d="M-26 0l13 52h66l148 594h-66l13 52h256l-14 -52h-66l-148 -594h66l-12 -52h-256zM288 752l-32 17l102 186l93 -48z" />
    <glyph glyph-name="Icircumflex" unicode="&#xce;" horiz-adv-x="333" 
d="M-26 0l13 52h66l148 594h-66l13 52h256l-14 -52h-66l-148 -594h66l-12 -52h-256zM371 945l78 -172l-31 -17l-97 101l-148 -101l-28 21l153 168h73z" />
    <glyph glyph-name="Idieresis" unicode="&#xcf;" horiz-adv-x="333" 
d="M-26 0l13 52h66l148 594h-66l13 52h256l-14 -52h-66l-148 -594h66l-12 -52h-256zM206 779q-27 0 -41 16t-14 35q0 8 3 20q5 21 22.5 35.5t43.5 14.5q27 0 40.5 -16t13.5 -35v-9.5t-2 -10.5q-5 -21 -22.5 -35.5t-43.5 -14.5zM398 779q-27 0 -40.5 16t-13.5 35v9.5t2 10.5
q5 21 22.5 35.5t43.5 14.5q27 0 41 -16t14 -35q0 -8 -3 -20q-5 -21 -22.5 -35.5t-43.5 -14.5z" />
    <glyph glyph-name="Eth" unicode="&#xd0;" horiz-adv-x="682" 
d="M-13 52h66l68 273h-80l13 55h81l66 266h-66l13 52h280q58 0 102.5 -17.5t75 -49t46 -75.5t15.5 -98q0 -40 -9 -89.5t-28 -100t-50 -99t-75 -86t-102 -60.5t-131 -23h-298zM256 56q94 0 156.5 60.5t88.5 169.5q14 57 23 93t14 59.5t7 39t2 31.5q0 65 -35.5 99t-104.5 34
h-84l-65 -262h112l-13 -55h-113l-67 -269h79z" />
    <glyph glyph-name="Ntilde" unicode="&#xd1;" horiz-adv-x="713" 
d="M-13 52h66l148 594h-66l13 52h204l167 -529h8l120 477h-66l13 52h197l-13 -52h-66l-162 -646h-97l-193 592h-7l-135 -540h66l-13 -52h-197zM579 776q-23 0 -42 8t-39 19q-23 12 -39 20.5t-32 8.5q-13 0 -25 -6.5t-31 -25.5l-25 24q24 32 47.5 56t57.5 24q23 0 42 -8
t39 -19q23 -12 39 -20.5t32 -8.5q13 0 25 6.5t31 25.5l25 -24q-24 -32 -47.5 -56t-57.5 -24z" />
    <glyph glyph-name="Ograve" unicode="&#xd2;" horiz-adv-x="695" 
d="M301 47q40 0 73 16t58.5 44.5t44 67t29.5 82.5q15 61 25 102t16 69.5t8.5 48.5t2.5 41q0 28 -7 52.5t-22.5 42.5t-39.5 28t-57 10q-40 0 -73 -16t-58.5 -44.5t-44 -67t-29.5 -82.5q-15 -62 -25 -102.5t-16 -69t-8.5 -49t-2.5 -40.5q0 -28 7 -52.5t22.5 -42.5t39.5 -28
t57 -10zM289 -12q-56 0 -100 17.5t-74 50.5t-45.5 80t-15.5 105q0 43 10 95t31 104t53 100.5t75 86.5t98 60.5t123 22.5q56 0 100 -17.5t74 -50.5t45.5 -80t15.5 -105q0 -43 -10 -95t-31 -104t-52.5 -100.5t-75 -86.5t-98.5 -60.5t-123 -22.5zM359 917l103 38l23 -191
l-34 -12z" />
    <glyph glyph-name="Oacute" unicode="&#xd3;" horiz-adv-x="695" 
d="M301 47q40 0 73 16t58.5 44.5t44 67t29.5 82.5q15 61 25 102t16 69.5t8.5 48.5t2.5 41q0 28 -7 52.5t-22.5 42.5t-39.5 28t-57 10q-40 0 -73 -16t-58.5 -44.5t-44 -67t-29.5 -82.5q-15 -62 -25 -102.5t-16 -69t-8.5 -49t-2.5 -40.5q0 -28 7 -52.5t22.5 -42.5t39.5 -28
t57 -10zM289 -12q-56 0 -100 17.5t-74 50.5t-45.5 80t-15.5 105q0 43 10 95t31 104t53 100.5t75 86.5t98 60.5t123 22.5q56 0 100 -17.5t74 -50.5t45.5 -80t15.5 -105q0 -43 -10 -95t-31 -104t-52.5 -100.5t-75 -86.5t-98.5 -60.5t-123 -22.5zM451 752l-32 17l102 186
l93 -48z" />
    <glyph glyph-name="Ocircumflex" unicode="&#xd4;" horiz-adv-x="695" 
d="M301 47q40 0 73 16t58.5 44.5t44 67t29.5 82.5q15 61 25 102t16 69.5t8.5 48.5t2.5 41q0 28 -7 52.5t-22.5 42.5t-39.5 28t-57 10q-40 0 -73 -16t-58.5 -44.5t-44 -67t-29.5 -82.5q-15 -62 -25 -102.5t-16 -69t-8.5 -49t-2.5 -40.5q0 -28 7 -52.5t22.5 -42.5t39.5 -28
t57 -10zM289 -12q-56 0 -100 17.5t-74 50.5t-45.5 80t-15.5 105q0 43 10 95t31 104t53 100.5t75 86.5t98 60.5t123 22.5q56 0 100 -17.5t74 -50.5t45.5 -80t15.5 -105q0 -43 -10 -95t-31 -104t-52.5 -100.5t-75 -86.5t-98.5 -60.5t-123 -22.5zM534 945l78 -172l-31 -17
l-97 101l-148 -101l-28 21l153 168h73z" />
    <glyph glyph-name="Otilde" unicode="&#xd5;" horiz-adv-x="695" 
d="M301 47q40 0 73 16t58.5 44.5t44 67t29.5 82.5q15 61 25 102t16 69.5t8.5 48.5t2.5 41q0 28 -7 52.5t-22.5 42.5t-39.5 28t-57 10q-40 0 -73 -16t-58.5 -44.5t-44 -67t-29.5 -82.5q-15 -62 -25 -102.5t-16 -69t-8.5 -49t-2.5 -40.5q0 -28 7 -52.5t22.5 -42.5t39.5 -28
t57 -10zM289 -12q-56 0 -100 17.5t-74 50.5t-45.5 80t-15.5 105q0 43 10 95t31 104t53 100.5t75 86.5t98 60.5t123 22.5q56 0 100 -17.5t74 -50.5t45.5 -80t15.5 -105q0 -43 -10 -95t-31 -104t-52.5 -100.5t-75 -86.5t-98.5 -60.5t-123 -22.5zM535 776q-23 0 -42 8t-39 19
q-23 12 -39 20.5t-32 8.5q-13 0 -25 -6.5t-31 -25.5l-25 24q24 32 47.5 56t57.5 24q23 0 42 -8t39 -19q23 -12 39 -20.5t32 -8.5q13 0 25 6.5t31 25.5l25 -24q-24 -32 -47.5 -56t-57.5 -24z" />
    <glyph glyph-name="Odieresis" unicode="&#xd6;" horiz-adv-x="695" 
d="M301 47q40 0 73 16t58.5 44.5t44 67t29.5 82.5q15 61 25 102t16 69.5t8.5 48.5t2.5 41q0 28 -7 52.5t-22.5 42.5t-39.5 28t-57 10q-40 0 -73 -16t-58.5 -44.5t-44 -67t-29.5 -82.5q-15 -62 -25 -102.5t-16 -69t-8.5 -49t-2.5 -40.5q0 -28 7 -52.5t22.5 -42.5t39.5 -28
t57 -10zM289 -12q-56 0 -100 17.5t-74 50.5t-45.5 80t-15.5 105q0 43 10 95t31 104t53 100.5t75 86.5t98 60.5t123 22.5q56 0 100 -17.5t74 -50.5t45.5 -80t15.5 -105q0 -43 -10 -95t-31 -104t-52.5 -100.5t-75 -86.5t-98.5 -60.5t-123 -22.5zM369 779q-27 0 -41 16t-14 35
q0 8 3 20q5 21 22.5 35.5t43.5 14.5q27 0 40.5 -16t13.5 -35v-9.5t-2 -10.5q-5 -21 -22.5 -35.5t-43.5 -14.5zM561 779q-27 0 -40.5 16t-13.5 35v9.5t2 10.5q5 21 22.5 35.5t43.5 14.5q27 0 41 -16t14 -35q0 -8 -3 -20q-5 -21 -22.5 -35.5t-43.5 -14.5z" />
    <glyph glyph-name="multiply" unicode="&#xd7;" horiz-adv-x="550" 
d="M51 144l189 162l-108 163l56 44l106 -161l185 160l40 -51l-189 -162l108 -163l-56 -44l-106 161l-185 -160z" />
    <glyph glyph-name="Oslash" unicode="&#xd8;" horiz-adv-x="695" 
d="M16 -8l79 90q-41 64 -41 159q0 43 10 95t31 104t53 100.5t75 86.5t98 60.5t123 22.5q49 0 88.5 -13.5t68.5 -38.5l75 85l41 -37l-79 -90q41 -64 41 -159q0 -43 -10 -95t-31 -104t-53 -100.5t-75 -86.5t-98.5 -60.5t-122.5 -22.5q-49 0 -88.5 13.5t-68.5 38.5l-75 -85z
M432 651q-40 0 -73 -16t-59.5 -44.5t-45 -67t-29.5 -82.5q-11 -45 -19.5 -79.5t-14.5 -61.5t-10 -48.5t-5 -40.5q-2 -21 0 -38l368 419q-14 27 -42 43t-70 16zM301 47q40 0 73 16t59.5 44.5t45 67t29.5 82.5q11 45 19.5 79.5t14.5 61.5t9.5 48.5t5.5 40.5q2 21 0 38
l-368 -419q14 -27 42 -43t70 -16z" />
    <glyph glyph-name="Ugrave" unicode="&#xd9;" horiz-adv-x="689" 
d="M318 646l-99 -401q-14 -54 -14 -93q0 -51 27.5 -76t87.5 -25q83 0 131.5 50t74.5 155l97 390h-66l13 52h198l-14 -52h-66l-98 -395q-17 -69 -42.5 -118.5t-60.5 -82t-80.5 -47.5t-103.5 -15q-51 0 -91.5 9.5t-68 30.5t-42.5 54t-15 80t18 115l91 369h-66l13 52h255
l-13 -52h-66zM402 917l103 38l23 -191l-34 -12z" />
    <glyph glyph-name="Uacute" unicode="&#xda;" horiz-adv-x="689" 
d="M318 646l-99 -401q-14 -54 -14 -93q0 -51 27.5 -76t87.5 -25q83 0 131.5 50t74.5 155l97 390h-66l13 52h198l-14 -52h-66l-98 -395q-17 -69 -42.5 -118.5t-60.5 -82t-80.5 -47.5t-103.5 -15q-51 0 -91.5 9.5t-68 30.5t-42.5 54t-15 80t18 115l91 369h-66l13 52h255
l-13 -52h-66zM494 752l-32 17l102 186l93 -48z" />
    <glyph glyph-name="Ucircumflex" unicode="&#xdb;" horiz-adv-x="689" 
d="M318 646l-99 -401q-14 -54 -14 -93q0 -51 27.5 -76t87.5 -25q83 0 131.5 50t74.5 155l97 390h-66l13 52h198l-14 -52h-66l-98 -395q-17 -69 -42.5 -118.5t-60.5 -82t-80.5 -47.5t-103.5 -15q-51 0 -91.5 9.5t-68 30.5t-42.5 54t-15 80t18 115l91 369h-66l13 52h255
l-13 -52h-66zM577 945l78 -172l-31 -17l-97 101l-148 -101l-28 21l153 168h73z" />
    <glyph glyph-name="Udieresis" unicode="&#xdc;" horiz-adv-x="689" 
d="M318 646l-99 -401q-14 -54 -14 -93q0 -51 27.5 -76t87.5 -25q83 0 131.5 50t74.5 155l97 390h-66l13 52h198l-14 -52h-66l-98 -395q-17 -69 -42.5 -118.5t-60.5 -82t-80.5 -47.5t-103.5 -15q-51 0 -91.5 9.5t-68 30.5t-42.5 54t-15 80t18 115l91 369h-66l13 52h255
l-13 -52h-66zM412 779q-27 0 -41 16t-14 35q0 8 3 20q5 21 22.5 35.5t43.5 14.5q27 0 40.5 -16t13.5 -35v-9.5t-2 -10.5q-5 -21 -22.5 -35.5t-43.5 -14.5zM604 779q-27 0 -40.5 16t-13.5 35v9.5t2 10.5q5 21 22.5 35.5t43.5 14.5q27 0 41 -16t14 -35q0 -8 -3 -20
q-5 -21 -22.5 -35.5t-43.5 -14.5z" />
    <glyph glyph-name="Yacute" unicode="&#xdd;" horiz-adv-x="619" 
d="M117 52h80l57 230l-95 364h-50l13 52h248l-13 -52h-71l68 -288h7l211 288h-71l13 52h200l-13 -52h-50l-271 -351l-61 -243h80l-12 -52h-283zM452 752l-32 17l102 186l93 -48z" />
    <glyph glyph-name="Thorn" unicode="&#xde;" horiz-adv-x="595" 
d="M390 646h-66l-27 -105h138q74 0 118.5 -32t44.5 -100q0 -33 -11 -76t-39 -81.5t-76.5 -65t-123.5 -26.5h-145l-27 -108h66l-12 -52h-256l13 52h66l148 594h-66l13 52h254zM284 485l-67 -268h114q48 0 81.5 29.5t46.5 80.5q2 7 5 18.5t5.5 23.5t4.5 24t2 20q0 32 -19.5 52
t-58.5 20h-114z" />
    <glyph glyph-name="germandbls" unicode="&#xdf;" horiz-adv-x="624" 
d="M349 -12q-64 0 -91.5 21t-27.5 53q0 26 17 46.5t48 20.5q24 0 39.5 -14t15.5 -39q0 -13 -5 -27.5t-15 -23.5l6 -8q51 6 81.5 30.5t30.5 68.5q0 19 -5.5 35t-15.5 30.5t-22.5 29t-27.5 31.5q-21 24 -37 52t-16 68q0 33 12.5 60t34.5 46.5t50 31.5t60 15l15 59q9 37 9 65
q0 42 -19.5 63.5t-54.5 21.5q-54 0 -85 -39.5t-51 -117.5l-150 -599q-11 -44 -32 -77.5t-49 -56.5t-62.5 -34.5t-71.5 -11.5q-54 0 -79 21.5t-25 53.5q0 27 17.5 46.5t46.5 19.5q26 0 41 -15t15 -37q0 -31 -32 -50l7 -8q39 2 61.5 26.5t36.5 78.5l135 540h-88l14 56h88l8 34
q26 100 90 158t170 58q89 0 130.5 -42t41.5 -111q0 -34 -9 -71l-13 -49h-37q-51 0 -82 -23t-31 -70q0 -35 20.5 -62t48.5 -59q20 -23 37 -51.5t17 -70.5q0 -40 -16.5 -72t-45 -54.5t-67 -34.5t-81.5 -12z" />
    <glyph glyph-name="agrave" unicode="&#xe0;" horiz-adv-x="574" 
d="M141 -12q-57 0 -82 39.5t-25 112.5q0 62 18 131t52 127t82.5 96t108.5 38q45 0 73.5 -22.5t39.5 -72.5h10l54 83h58l-114 -453l18 -8l102 115l31 -22l-63 -83q-34 -45 -61 -63t-55 -18q-41 0 -56.5 21.5t-15.5 48.5q0 13 3 29t5 26l13 51l-10 2q-18 -39 -37 -71.5
t-41.5 -56.5t-49 -37t-58.5 -13zM328 467q-43 0 -82.5 -41.5t-64.5 -132.5q-5 -17 -10 -38.5t-8.5 -43.5t-6 -42.5t-2.5 -35.5q0 -31 6.5 -48t26.5 -17q19 0 39 15.5t39 40t37 55t32 61t24 58t14 45.5l5 20q11 48 0 76t-49 28zM246 747l103 38l23 -191l-34 -12z" />
    <glyph glyph-name="aacute" unicode="&#xe1;" horiz-adv-x="574" 
d="M141 -12q-57 0 -82 39.5t-25 112.5q0 62 18 131t52 127t82.5 96t108.5 38q45 0 73.5 -22.5t39.5 -72.5h10l54 83h58l-114 -453l18 -8l102 115l31 -22l-63 -83q-34 -45 -61 -63t-55 -18q-41 0 -56.5 21.5t-15.5 48.5q0 13 3 29t5 26l13 51l-10 2q-18 -39 -37 -71.5
t-41.5 -56.5t-49 -37t-58.5 -13zM328 467q-43 0 -82.5 -41.5t-64.5 -132.5q-5 -17 -10 -38.5t-8.5 -43.5t-6 -42.5t-2.5 -35.5q0 -31 6.5 -48t26.5 -17q19 0 39 15.5t39 40t37 55t32 61t24 58t14 45.5l5 20q11 48 0 76t-49 28zM327 582l-32 17l102 186l93 -48z" />
    <glyph glyph-name="acircumflex" unicode="&#xe2;" horiz-adv-x="574" 
d="M141 -12q-57 0 -82 39.5t-25 112.5q0 62 18 131t52 127t82.5 96t108.5 38q45 0 73.5 -22.5t39.5 -72.5h10l54 83h58l-114 -453l18 -8l102 115l31 -22l-63 -83q-34 -45 -61 -63t-55 -18q-41 0 -56.5 21.5t-15.5 48.5q0 13 3 29t5 26l13 51l-10 2q-18 -39 -37 -71.5
t-41.5 -56.5t-49 -37t-58.5 -13zM328 467q-43 0 -82.5 -41.5t-64.5 -132.5q-5 -17 -10 -38.5t-8.5 -43.5t-6 -42.5t-2.5 -35.5q0 -31 6.5 -48t26.5 -17q19 0 39 15.5t39 40t37 55t32 61t24 58t14 45.5l5 20q11 48 0 76t-49 28zM410 779l78 -172l-31 -17l-97 101l-148 -101
l-28 21l153 168h73z" />
    <glyph glyph-name="atilde" unicode="&#xe3;" horiz-adv-x="574" 
d="M141 -12q-57 0 -82 39.5t-25 112.5q0 62 18 131t52 127t82.5 96t108.5 38q45 0 73.5 -22.5t39.5 -72.5h10l54 83h58l-114 -453l18 -8l102 115l31 -22l-63 -83q-34 -45 -61 -63t-55 -18q-41 0 -56.5 21.5t-15.5 48.5q0 13 3 29t5 26l13 51l-10 2q-18 -39 -37 -71.5
t-41.5 -56.5t-49 -37t-58.5 -13zM328 467q-43 0 -82.5 -41.5t-64.5 -132.5q-5 -17 -10 -38.5t-8.5 -43.5t-6 -42.5t-2.5 -35.5q0 -31 6.5 -48t26.5 -17q19 0 39 15.5t39 40t37 55t32 61t24 58t14 45.5l5 20q11 48 0 76t-49 28zM411 610q-23 0 -42 8t-39 19q-23 12 -39 20.5
t-32 8.5q-13 0 -25 -6.5t-31 -25.5l-25 24q24 32 47.5 56t57.5 24q23 0 42 -8t39 -19q23 -12 39 -20.5t32 -8.5q13 0 25 6.5t31 25.5l25 -24q-24 -32 -47.5 -56t-57.5 -24z" />
    <glyph glyph-name="adieresis" unicode="&#xe4;" horiz-adv-x="574" 
d="M141 -12q-57 0 -82 39.5t-25 112.5q0 62 18 131t52 127t82.5 96t108.5 38q45 0 73.5 -22.5t39.5 -72.5h10l54 83h58l-114 -453l18 -8l102 115l31 -22l-63 -83q-34 -45 -61 -63t-55 -18q-41 0 -56.5 21.5t-15.5 48.5q0 13 3 29t5 26l13 51l-10 2q-18 -39 -37 -71.5
t-41.5 -56.5t-49 -37t-58.5 -13zM328 467q-43 0 -82.5 -41.5t-64.5 -132.5q-5 -17 -10 -38.5t-8.5 -43.5t-6 -42.5t-2.5 -35.5q0 -31 6.5 -48t26.5 -17q19 0 39 15.5t39 40t37 55t32 61t24 58t14 45.5l5 20q11 48 0 76t-49 28zM249 611q-27 0 -41 16t-14 35q0 8 3 20
q5 21 22.5 35.5t43.5 14.5q27 0 40.5 -16t13.5 -35v-9.5t-2 -10.5q-5 -21 -22.5 -35.5t-43.5 -14.5zM441 611q-27 0 -40.5 16t-13.5 35v9.5t2 10.5q5 21 22.5 35.5t43.5 14.5q27 0 41 -16t14 -35q0 -8 -3 -20q-5 -21 -22.5 -35.5t-43.5 -14.5z" />
    <glyph glyph-name="aring" unicode="&#xe5;" horiz-adv-x="574" 
d="M141 -12q-57 0 -82 39.5t-25 112.5q0 62 18 131t52 127t82.5 96t108.5 38q45 0 73.5 -22.5t39.5 -72.5h10l54 83h58l-114 -453l18 -8l102 115l31 -22l-63 -83q-34 -45 -61 -63t-55 -18q-41 0 -56.5 21.5t-15.5 48.5q0 13 3 29t5 26l13 51l-10 2q-18 -39 -37 -71.5
t-41.5 -56.5t-49 -37t-58.5 -13zM328 467q-43 0 -82.5 -41.5t-64.5 -132.5q-5 -17 -10 -38.5t-8.5 -43.5t-6 -42.5t-2.5 -35.5q0 -31 6.5 -48t26.5 -17q19 0 39 15.5t39 40t37 55t32 61t24 58t14 45.5l5 20q11 48 0 76t-49 28zM338 568q-26 0 -45.5 8t-33 21.5t-20.5 31
t-7 36.5q0 34 11 63t30.5 50t46 33t57.5 12q25 0 45 -8t33.5 -21.5t20.5 -31t7 -36.5q0 -34 -11 -63t-30.5 -50t-46 -33t-57.5 -12zM341 610q48 0 62 56q5 23 9.5 44.5t4.5 30.5q0 17 -10 28.5t-33 11.5q-48 0 -62 -56q-5 -23 -9.5 -44.5t-4.5 -30.5q0 -17 10 -28.5
t33 -11.5z" />
    <glyph glyph-name="ae" unicode="&#xe6;" horiz-adv-x="711" 
d="M110 -12q-47 0 -75.5 29t-28.5 75q0 40 16.5 73.5t53 59t94 41.5t139.5 21q6 26 14 59.5t8 58.5q0 40 -21 59t-55 19q-15 0 -30 -2.5t-29 -7.5l-3 -9q9 -7 15.5 -17.5t6.5 -26.5q0 -29 -18.5 -51.5t-52.5 -22.5q-24 0 -39 14.5t-15 41.5q0 25 15.5 48.5t42.5 41.5
t62.5 29t75.5 11q42 0 73.5 -17t45.5 -55h10q24 33 63 52.5t86 19.5q27 0 52 -5.5t44.5 -17.5t31 -32t11.5 -49q0 -26 -12.5 -53t-44.5 -51t-87.5 -41.5t-141.5 -22.5q-8 -33 -12.5 -64.5t-4.5 -54.5q0 -83 65 -83q45 0 84 37.5t76 105.5l36 -17q-23 -48 -47.5 -84.5
t-53 -61.5t-61.5 -37.5t-73 -12.5q-68 0 -98.5 36.5t-32.5 94.5h-11q-26 -62 -72.5 -96.5t-101.5 -34.5zM159 56q18 0 38 13t38 33.5t32.5 47t20.5 53.5l12 49q-84 -11 -126 -37t-53 -71q-2 -8 -4 -18t-2 -20q0 -50 44 -50zM425 296q98 13 137.5 48t39.5 86q0 24 -11.5 39
t-38.5 15q-21 0 -38 -9t-32 -31t-29 -58t-28 -90z" />
    <glyph glyph-name="ccedilla" unicode="&#xe7;" horiz-adv-x="448" 
d="M154 -209q-38 0 -60 14t-31 31l26 26q19 -26 56 -26q17 0 27.5 5.5t16.5 13.5t8 16.5t2 14.5q0 12 -9 21.5t-37 13.5l-24 3l28 65q-62 7 -91.5 49t-29.5 114q0 58 16.5 124.5t50 123.5t84.5 94.5t120 37.5q65 0 101.5 -30.5t36.5 -78.5q0 -38 -22 -65.5t-60 -27.5
q-29 0 -42.5 17t-13.5 39q0 25 18.5 48.5t59.5 26.5v9q-23 17 -64 17q-21 0 -39.5 -7.5t-35.5 -28t-32.5 -56t-29.5 -91.5q-12 -45 -20 -89.5t-8 -74.5q0 -82 65 -82q44 0 83 37.5t75 105.5l36 -17q-44 -90 -92 -139t-120 -56l-21 -48l2 -3q21 6 37 6q26 0 42.5 -13
t16.5 -39q0 -24 -10.5 -42.5t-28.5 -31.5t-40.5 -20t-46.5 -7z" />
    <glyph glyph-name="egrave" unicode="&#xe8;" horiz-adv-x="467" 
d="M181 -12q-75 0 -110 43t-35 124q0 38 7 81t22 85t38 80t54.5 67.5t71.5 46.5t90 17q27 0 52 -5.5t44.5 -17.5t31.5 -32t12 -49q0 -26 -12.5 -53.5t-44.5 -51.5t-87.5 -41.5t-142.5 -22.5q-7 -32 -11.5 -63.5t-4.5 -54.5q0 -83 65 -83q45 0 84.5 37.5t75.5 105.5l36 -17
q-24 -48 -48 -84.5t-52 -61t-61.5 -37.5t-74.5 -13zM181 296q98 13 137.5 48t39.5 86q0 24 -11.5 39t-38.5 15q-21 0 -38 -9t-32 -31t-29 -58t-28 -90zM246 747l103 38l23 -191l-34 -12z" />
    <glyph glyph-name="eacute" unicode="&#xe9;" horiz-adv-x="467" 
d="M181 -12q-75 0 -110 43t-35 124q0 38 7 81t22 85t38 80t54.5 67.5t71.5 46.5t90 17q27 0 52 -5.5t44.5 -17.5t31.5 -32t12 -49q0 -26 -12.5 -53.5t-44.5 -51.5t-87.5 -41.5t-142.5 -22.5q-7 -32 -11.5 -63.5t-4.5 -54.5q0 -83 65 -83q45 0 84.5 37.5t75.5 105.5l36 -17
q-24 -48 -48 -84.5t-52 -61t-61.5 -37.5t-74.5 -13zM181 296q98 13 137.5 48t39.5 86q0 24 -11.5 39t-38.5 15q-21 0 -38 -9t-32 -31t-29 -58t-28 -90zM327 582l-32 17l102 186l93 -48z" />
    <glyph glyph-name="ecircumflex" unicode="&#xea;" horiz-adv-x="467" 
d="M181 -12q-75 0 -110 43t-35 124q0 38 7 81t22 85t38 80t54.5 67.5t71.5 46.5t90 17q27 0 52 -5.5t44.5 -17.5t31.5 -32t12 -49q0 -26 -12.5 -53.5t-44.5 -51.5t-87.5 -41.5t-142.5 -22.5q-7 -32 -11.5 -63.5t-4.5 -54.5q0 -83 65 -83q45 0 84.5 37.5t75.5 105.5l36 -17
q-24 -48 -48 -84.5t-52 -61t-61.5 -37.5t-74.5 -13zM181 296q98 13 137.5 48t39.5 86q0 24 -11.5 39t-38.5 15q-21 0 -38 -9t-32 -31t-29 -58t-28 -90zM410 779l78 -172l-31 -17l-97 101l-148 -101l-28 21l153 168h73z" />
    <glyph glyph-name="edieresis" unicode="&#xeb;" horiz-adv-x="467" 
d="M181 -12q-75 0 -110 43t-35 124q0 38 7 81t22 85t38 80t54.5 67.5t71.5 46.5t90 17q27 0 52 -5.5t44.5 -17.5t31.5 -32t12 -49q0 -26 -12.5 -53.5t-44.5 -51.5t-87.5 -41.5t-142.5 -22.5q-7 -32 -11.5 -63.5t-4.5 -54.5q0 -83 65 -83q45 0 84.5 37.5t75.5 105.5l36 -17
q-24 -48 -48 -84.5t-52 -61t-61.5 -37.5t-74.5 -13zM181 296q98 13 137.5 48t39.5 86q0 24 -11.5 39t-38.5 15q-21 0 -38 -9t-32 -31t-29 -58t-28 -90zM249 611q-27 0 -41 16t-14 35q0 8 3 20q5 21 22.5 35.5t43.5 14.5q27 0 40.5 -16t13.5 -35v-9.5t-2 -10.5
q-5 -21 -22.5 -35.5t-43.5 -14.5zM441 611q-27 0 -40.5 16t-13.5 35v9.5t2 10.5q5 21 22.5 35.5t43.5 14.5q27 0 41 -16t14 -35q0 -8 -3 -20q-5 -21 -22.5 -35.5t-43.5 -14.5z" />
    <glyph glyph-name="igrave" unicode="&#xec;" horiz-adv-x="320" 
d="M128 -12q-43 0 -61 22t-18 50q0 12 3 26.5t5 24.5l82 329h-86l12 48l213 44l-116 -465l18 -8l101 115l31 -22l-62 -83q-36 -49 -66 -65t-56 -16zM132 747l103 38l23 -191l-34 -12z" />
    <glyph glyph-name="iacute" unicode="&#xed;" horiz-adv-x="320" 
d="M128 -12q-43 0 -61 22t-18 50q0 12 3 26.5t5 24.5l82 329h-86l12 48l213 44l-116 -465l18 -8l101 115l31 -22l-62 -83q-36 -49 -66 -65t-56 -16zM213 582l-32 17l102 186l93 -48z" />
    <glyph glyph-name="icircumflex" unicode="&#xee;" horiz-adv-x="320" 
d="M128 -12q-43 0 -61 22t-18 50q0 12 3 26.5t5 24.5l82 329h-86l12 48l213 44l-116 -465l18 -8l101 115l31 -22l-62 -83q-36 -49 -66 -65t-56 -16zM296 779l78 -172l-31 -17l-97 101l-148 -101l-28 21l153 168h73z" />
    <glyph glyph-name="idieresis" unicode="&#xef;" horiz-adv-x="320" 
d="M128 -12q-43 0 -61 22t-18 50q0 12 3 26.5t5 24.5l82 329h-86l12 48l213 44l-116 -465l18 -8l101 115l31 -22l-62 -83q-36 -49 -66 -65t-56 -16zM135 611q-27 0 -41 16t-14 35q0 8 3 20q5 21 22.5 35.5t43.5 14.5q27 0 40.5 -16t13.5 -35v-9.5t-2 -10.5
q-5 -21 -22.5 -35.5t-43.5 -14.5zM327 611q-27 0 -40.5 16t-13.5 35v9.5t2 10.5q5 21 22.5 35.5t43.5 14.5q27 0 41 -16t14 -35q0 -8 -3 -20q-5 -21 -22.5 -35.5t-43.5 -14.5z" />
    <glyph glyph-name="eth" unicode="&#xf0;" horiz-adv-x="535" 
d="M204 -12q-84 0 -126 51t-42 138q0 60 18.5 119t51.5 105.5t80 75t104 28.5q45 0 71 -24t31 -68l9 2q0 60 -12.5 113.5t-36.5 96.5l-95 -57l-26 46l93 57q-19 25 -39.5 46t-47.5 41h78q17 -11 34.5 -25t31.5 -28l105 64l27 -45l-96 -60q42 -54 63.5 -119.5t21.5 -139.5
q0 -89 -20.5 -165t-59.5 -132t-94 -88t-124 -32zM210 38q49 0 80 40.5t46 102.5q14 56 22.5 88.5t12.5 51t5 28t1 20.5q0 34 -15.5 56.5t-51.5 22.5q-25 0 -45 -11t-35.5 -30t-27 -45t-18.5 -56q-14 -56 -22.5 -89t-12.5 -51.5t-5 -28.5t-1 -20q0 -34 15.5 -56.5t51.5 -22.5
z" />
    <glyph glyph-name="ntilde" unicode="&#xf1;" horiz-adv-x="594" 
d="M140 440h-86l12 48l203 44l-45 -181l10 -4q21 37 41.5 70.5t44.5 59t52 40.5t64 15q48 0 70 -26.5t22 -69.5q0 -32 -10 -66l-84 -303l18 -8l101 115l31 -22l-62 -83q-35 -46 -64 -63.5t-59 -17.5q-43 0 -60.5 22.5t-17.5 49.5q0 12 2.5 26t5.5 25l81 292q3 12 3 22
q0 26 -25 26q-23 0 -52.5 -24.5t-58.5 -66.5t-55 -99t-42 -123l-35 -138h-115zM444 610q-23 0 -42 8t-39 19q-23 12 -39 20.5t-32 8.5q-13 0 -25 -6.5t-31 -25.5l-25 24q24 32 47.5 56t57.5 24q23 0 42 -8t39 -19q23 -12 39 -20.5t32 -8.5q13 0 25 6.5t31 25.5l25 -24
q-24 -32 -47.5 -56t-57.5 -24z" />
    <glyph glyph-name="ograve" unicode="&#xf2;" horiz-adv-x="527" 
d="M204 -12q-85 0 -127 51t-42 138q0 57 19 120t55.5 115t90.5 86t123 34q85 0 127 -51t42 -138q0 -57 -19 -120t-55.5 -115t-90.5 -86t-123 -34zM209 38q49 0 79 40.5t46 102.5q15 58 24.5 96.5t15 62.5t7.5 38t2 25q0 34 -15 56.5t-50 22.5q-25 0 -44.5 -11t-35 -30
t-26.5 -45t-19 -57q-15 -59 -24.5 -97t-15 -62t-7.5 -38.5t-2 -24.5q0 -34 15 -56.5t50 -22.5zM252 747l103 38l23 -191l-34 -12z" />
    <glyph glyph-name="oacute" unicode="&#xf3;" horiz-adv-x="527" 
d="M204 -12q-85 0 -127 51t-42 138q0 57 19 120t55.5 115t90.5 86t123 34q85 0 127 -51t42 -138q0 -57 -19 -120t-55.5 -115t-90.5 -86t-123 -34zM209 38q49 0 79 40.5t46 102.5q15 58 24.5 96.5t15 62.5t7.5 38t2 25q0 34 -15 56.5t-50 22.5q-25 0 -44.5 -11t-35 -30
t-26.5 -45t-19 -57q-15 -59 -24.5 -97t-15 -62t-7.5 -38.5t-2 -24.5q0 -34 15 -56.5t50 -22.5zM333 582l-32 17l102 186l93 -48z" />
    <glyph glyph-name="ocircumflex" unicode="&#xf4;" horiz-adv-x="527" 
d="M204 -12q-85 0 -127 51t-42 138q0 57 19 120t55.5 115t90.5 86t123 34q85 0 127 -51t42 -138q0 -57 -19 -120t-55.5 -115t-90.5 -86t-123 -34zM209 38q49 0 79 40.5t46 102.5q15 58 24.5 96.5t15 62.5t7.5 38t2 25q0 34 -15 56.5t-50 22.5q-25 0 -44.5 -11t-35 -30
t-26.5 -45t-19 -57q-15 -59 -24.5 -97t-15 -62t-7.5 -38.5t-2 -24.5q0 -34 15 -56.5t50 -22.5zM416 779l78 -172l-31 -17l-97 101l-148 -101l-28 21l153 168h73z" />
    <glyph glyph-name="otilde" unicode="&#xf5;" horiz-adv-x="527" 
d="M204 -12q-85 0 -127 51t-42 138q0 57 19 120t55.5 115t90.5 86t123 34q85 0 127 -51t42 -138q0 -57 -19 -120t-55.5 -115t-90.5 -86t-123 -34zM209 38q49 0 79 40.5t46 102.5q15 58 24.5 96.5t15 62.5t7.5 38t2 25q0 34 -15 56.5t-50 22.5q-25 0 -44.5 -11t-35 -30
t-26.5 -45t-19 -57q-15 -59 -24.5 -97t-15 -62t-7.5 -38.5t-2 -24.5q0 -34 15 -56.5t50 -22.5zM417 610q-23 0 -42 8t-39 19q-23 12 -39 20.5t-32 8.5q-13 0 -25 -6.5t-31 -25.5l-25 24q24 32 47.5 56t57.5 24q23 0 42 -8t39 -19q23 -12 39 -20.5t32 -8.5q13 0 25 6.5
t31 25.5l25 -24q-24 -32 -47.5 -56t-57.5 -24z" />
    <glyph glyph-name="odieresis" unicode="&#xf6;" horiz-adv-x="527" 
d="M204 -12q-85 0 -127 51t-42 138q0 57 19 120t55.5 115t90.5 86t123 34q85 0 127 -51t42 -138q0 -57 -19 -120t-55.5 -115t-90.5 -86t-123 -34zM209 38q49 0 79 40.5t46 102.5q15 58 24.5 96.5t15 62.5t7.5 38t2 25q0 34 -15 56.5t-50 22.5q-25 0 -44.5 -11t-35 -30
t-26.5 -45t-19 -57q-15 -59 -24.5 -97t-15 -62t-7.5 -38.5t-2 -24.5q0 -34 15 -56.5t50 -22.5zM255 611q-27 0 -41 16t-14 35q0 8 3 20q5 21 22.5 35.5t43.5 14.5q27 0 40.5 -16t13.5 -35v-9.5t-2 -10.5q-5 -21 -22.5 -35.5t-43.5 -14.5zM447 611q-27 0 -40.5 16t-13.5 35
v9.5t2 10.5q5 21 22.5 35.5t43.5 14.5q27 0 41 -16t14 -35q0 -8 -3 -20q-5 -21 -22.5 -35.5t-43.5 -14.5z" />
    <glyph glyph-name="divide" unicode="&#xf7;" horiz-adv-x="550" 
d="M65 273l16 64h426l-17 -64h-425zM231 54q-30 0 -46 17t-16 37q0 10 3 22q7 27 26.5 42t49.5 15t46 -17t16 -37q0 -10 -3 -22q-7 -27 -26.5 -42t-49.5 -15zM324 423q-30 0 -46 17t-16 37q0 10 3 22q7 27 26.5 42t49.5 15t46 -17t16 -37q0 -10 -3 -22q-7 -27 -26.5 -42
t-49.5 -15z" />
    <glyph glyph-name="oslash" unicode="&#xf8;" horiz-adv-x="527" 
d="M204 -12q-78 0 -122 46l-73 -76l-35 37l80 82q-19 41 -19 100q0 57 19 120t55.5 115t90.5 86t123 34q40 0 70.5 -12t51.5 -34l72 76l35 -37l-79 -82q19 -41 19 -100q0 -57 -19 -120t-55.5 -115t-90.5 -86t-123 -34zM318 482q-25 0 -44.5 -11t-35 -30t-26.5 -45t-19 -57
q-15 -59 -24.5 -96.5t-14.5 -62.5l228 241q-4 27 -19 44t-45 17zM209 38q49 0 79 40.5t46 102.5q15 58 24.5 95.5t14.5 62.5l-228 -240q4 -27 19 -44t45 -17z" />
    <glyph glyph-name="ugrave" unicode="&#xf9;" horiz-adv-x="592" 
d="M143 -12q-48 0 -70 27t-22 69q0 32 10 66l81 290h-86l12 48l216 44l-115 -415q-3 -12 -3 -22q0 -26 25 -26q23 0 52 24.5t58.5 66.5t55 99t42.5 122l35 139h115l-114 -453l18 -8l101 115l31 -22l-62 -83q-18 -25 -34.5 -40.5t-31 -24.5t-27.5 -12.5t-26 -3.5
q-41 0 -56.5 22t-15.5 48q0 13 3.5 29t5.5 26l14 56l-10 4q-21 -38 -41.5 -71.5t-44.5 -58.5t-52.5 -40t-63.5 -15zM285 747l103 38l23 -191l-34 -12z" />
    <glyph glyph-name="uacute" unicode="&#xfa;" horiz-adv-x="592" 
d="M143 -12q-48 0 -70 27t-22 69q0 32 10 66l81 290h-86l12 48l216 44l-115 -415q-3 -12 -3 -22q0 -26 25 -26q23 0 52 24.5t58.5 66.5t55 99t42.5 122l35 139h115l-114 -453l18 -8l101 115l31 -22l-62 -83q-18 -25 -34.5 -40.5t-31 -24.5t-27.5 -12.5t-26 -3.5
q-41 0 -56.5 22t-15.5 48q0 13 3.5 29t5.5 26l14 56l-10 4q-21 -38 -41.5 -71.5t-44.5 -58.5t-52.5 -40t-63.5 -15zM366 582l-32 17l102 186l93 -48z" />
    <glyph glyph-name="ucircumflex" unicode="&#xfb;" horiz-adv-x="592" 
d="M143 -12q-48 0 -70 27t-22 69q0 32 10 66l81 290h-86l12 48l216 44l-115 -415q-3 -12 -3 -22q0 -26 25 -26q23 0 52 24.5t58.5 66.5t55 99t42.5 122l35 139h115l-114 -453l18 -8l101 115l31 -22l-62 -83q-18 -25 -34.5 -40.5t-31 -24.5t-27.5 -12.5t-26 -3.5
q-41 0 -56.5 22t-15.5 48q0 13 3.5 29t5.5 26l14 56l-10 4q-21 -38 -41.5 -71.5t-44.5 -58.5t-52.5 -40t-63.5 -15zM449 779l78 -172l-31 -17l-97 101l-148 -101l-28 21l153 168h73z" />
    <glyph glyph-name="udieresis" unicode="&#xfc;" horiz-adv-x="592" 
d="M143 -12q-48 0 -70 27t-22 69q0 32 10 66l81 290h-86l12 48l216 44l-115 -415q-3 -12 -3 -22q0 -26 25 -26q23 0 52 24.5t58.5 66.5t55 99t42.5 122l35 139h115l-114 -453l18 -8l101 115l31 -22l-62 -83q-18 -25 -34.5 -40.5t-31 -24.5t-27.5 -12.5t-26 -3.5
q-41 0 -56.5 22t-15.5 48q0 13 3.5 29t5.5 26l14 56l-10 4q-21 -38 -41.5 -71.5t-44.5 -58.5t-52.5 -40t-63.5 -15zM288 611q-27 0 -41 16t-14 35q0 8 3 20q5 21 22.5 35.5t43.5 14.5q27 0 40.5 -16t13.5 -35v-9.5t-2 -10.5q-5 -21 -22.5 -35.5t-43.5 -14.5zM480 611
q-27 0 -40.5 16t-13.5 35v9.5t2 10.5q5 21 22.5 35.5t43.5 14.5q27 0 41 -16t14 -35q0 -8 -3 -20q-5 -21 -22.5 -35.5t-43.5 -14.5z" />
    <glyph glyph-name="yacute" unicode="&#xfd;" horiz-adv-x="482" 
d="M0 -212q-42 0 -67.5 19.5t-25.5 51.5q0 29 19 51t51 22q26 0 40.5 -14t14.5 -37q0 -14 -5.5 -28t-14.5 -22l7 -6q33 17 61.5 50t59.5 93l-52 501h-42l12 51h218l-13 -51h-56l22 -346h9l192 346h-55l13 51h162l-13 -51h-39l-320 -534q-25 -41 -48.5 -69.5t-46 -45.5
t-43.5 -24.5t-40 -7.5zM341 582l-32 17l102 186l93 -48z" />
    <glyph glyph-name="thorn" unicode="&#xfe;" horiz-adv-x="544" 
d="M-91 -149h67l207 827h-87l12 48l213 44l-114 -414l10 -2q18 39 37 71.5t41.5 56.5t48.5 37t58 13q57 0 82.5 -39.5t25.5 -112.5q0 -62 -18.5 -131t-52 -127t-81.5 -96t-108 -38q-46 0 -69 20.5t-32 52.5h-10l-47 -210h89l-13 -51h-272zM216 53q43 0 82.5 42t64.5 132
q5 17 10 38.5t8.5 43.5t6 42.5t2.5 35.5q0 31 -6.5 48t-26.5 17q-19 0 -39 -15.5t-39 -40t-37 -55t-32 -61t-24 -58t-14 -45.5l-5 -20q-11 -48 0 -76t49 -28z" />
    <glyph glyph-name="ydieresis" unicode="&#xff;" horiz-adv-x="482" 
d="M0 -212q-42 0 -67.5 19.5t-25.5 51.5q0 29 19 51t51 22q26 0 40.5 -14t14.5 -37q0 -14 -5.5 -28t-14.5 -22l7 -6q33 17 61.5 50t59.5 93l-52 501h-42l12 51h218l-13 -51h-56l22 -346h9l192 346h-55l13 51h162l-13 -51h-39l-320 -534q-25 -41 -48.5 -69.5t-46 -45.5
t-43.5 -24.5t-40 -7.5zM263 611q-27 0 -41 16t-14 35q0 8 3 20q5 21 22.5 35.5t43.5 14.5q27 0 40.5 -16t13.5 -35v-9.5t-2 -10.5q-5 -21 -22.5 -35.5t-43.5 -14.5zM455 611q-27 0 -40.5 16t-13.5 35v9.5t2 10.5q5 21 22.5 35.5t43.5 14.5q27 0 41 -16t14 -35q0 -8 -3 -20
q-5 -21 -22.5 -35.5t-43.5 -14.5z" />
    <glyph glyph-name="Amacron" unicode="&#x100;" horiz-adv-x="652" 
d="M-54 0l13 52h50l371 646h111l48 -646h50l-13 -52h-241l13 52h71l-9 172h-230l-95 -172h71l-12 -52h-198zM384 600l-176 -322h199l-16 322h-7zM339 875h273l-17 -69h-273z" />
    <glyph glyph-name="amacron" unicode="&#x101;" horiz-adv-x="574" 
d="M141 -12q-57 0 -82 39.5t-25 112.5q0 62 18 131t52 127t82.5 96t108.5 38q45 0 73.5 -22.5t39.5 -72.5h10l54 83h58l-114 -453l18 -8l102 115l31 -22l-63 -83q-34 -45 -61 -63t-55 -18q-41 0 -56.5 21.5t-15.5 48.5q0 13 3 29t5 26l13 51l-10 2q-18 -39 -37 -71.5
t-41.5 -56.5t-49 -37t-58.5 -13zM328 467q-43 0 -82.5 -41.5t-64.5 -132.5q-5 -17 -10 -38.5t-8.5 -43.5t-6 -42.5t-2.5 -35.5q0 -31 6.5 -48t26.5 -17q19 0 39 15.5t39 40t37 55t32 61t24 58t14 45.5l5 20q11 48 0 76t-49 28zM224 707h273l-17 -69h-273z" />
    <glyph glyph-name="Abreve" unicode="&#x102;" horiz-adv-x="652" 
d="M-54 0l13 52h50l371 646h111l48 -646h50l-13 -52h-241l13 52h71l-9 172h-230l-95 -172h71l-12 -52h-198zM384 600l-176 -322h199l-16 322h-7zM451 759q-37 0 -59.5 14.5t-35 37t-18 50.5t-8.5 56l34 14l12 -37q8 -28 29 -40t60 -12t64.5 11.5t46.5 40.5l28 37l31 -17
q-14 -27 -31 -54.5t-38.5 -50t-49.5 -36.5t-65 -14z" />
    <glyph glyph-name="abreve" unicode="&#x103;" horiz-adv-x="574" 
d="M141 -12q-57 0 -82 39.5t-25 112.5q0 62 18 131t52 127t82.5 96t108.5 38q45 0 73.5 -22.5t39.5 -72.5h10l54 83h58l-114 -453l18 -8l102 115l31 -22l-63 -83q-34 -45 -61 -63t-55 -18q-41 0 -56.5 21.5t-15.5 48.5q0 13 3 29t5 26l13 51l-10 2q-18 -39 -37 -71.5
t-41.5 -56.5t-49 -37t-58.5 -13zM328 467q-43 0 -82.5 -41.5t-64.5 -132.5q-5 -17 -10 -38.5t-8.5 -43.5t-6 -42.5t-2.5 -35.5q0 -31 6.5 -48t26.5 -17q19 0 39 15.5t39 40t37 55t32 61t24 58t14 45.5l5 20q11 48 0 76t-49 28zM336 593q-37 0 -59.5 14.5t-35 37t-18 50.5
t-8.5 56l34 14l12 -37q8 -28 29 -40t60 -12t64.5 11.5t46.5 40.5l28 37l31 -17q-14 -27 -31 -54.5t-38.5 -50t-49.5 -36.5t-65 -14z" />
    <glyph glyph-name="Aogonek" unicode="&#x104;" horiz-adv-x="652" 
d="M-54 0l13 52h50l371 646h111l48 -646h50l-13 -52q-19 -14 -36.5 -30t-31.5 -32.5t-22.5 -33t-8.5 -31.5q0 -30 27 -30q15 0 26 7.5t25 18.5l27 -29q-20 -20 -45 -34.5t-60 -14.5t-57 16.5t-22 49.5q0 25 11 45.5t30 37t43.5 30.5t51.5 25l-1 5h-198l13 52h71l-9 172h-230
l-95 -172h71l-12 -52h-198zM384 600l-176 -322h199l-16 322h-7z" />
    <glyph glyph-name="aogonek" unicode="&#x105;" horiz-adv-x="574" 
d="M353 -209q-35 0 -57 16.5t-22 49.5q0 24 10.5 43t28.5 34.5t41 28t48 23.5l-2 5q-11 -3 -18 -3q-38 0 -52 21.5t-14 48.5q0 13 3 29t5 26l13 51l-10 2q-18 -39 -37 -71.5t-41.5 -56.5t-49 -37t-58.5 -13q-57 0 -82 39.5t-25 112.5q0 62 18 131t52 127t82.5 96t108.5 38
q45 0 73.5 -22.5t39.5 -72.5h10l54 83h58l-114 -453l18 -8l102 115l31 -22l-98 -122q-16 -22 -36 -41.5t-38 -38.5t-30 -37.5t-12 -38.5q0 -15 7.5 -23t19.5 -8q15 0 26 7.5t25 18.5l28 -29q-20 -20 -45.5 -34.5t-60.5 -14.5zM328 467q-43 0 -82.5 -41.5t-64.5 -132.5
q-5 -17 -10 -38.5t-8.5 -43.5t-6 -42.5t-2.5 -35.5q0 -31 6.5 -48t26.5 -17q19 0 39 15.5t39 40t37 55t32 61t24 58t14 45.5l5 20q11 48 0 76t-49 28z" />
    <glyph glyph-name="Cacute" unicode="&#x106;" horiz-adv-x="603" 
d="M543 165q-18 -32 -44.5 -64t-61.5 -57t-77.5 -40.5t-91.5 -15.5q-47 0 -86 14.5t-67.5 44t-44.5 74.5t-16 107q0 50 10.5 105.5t32 109t52.5 102t72 85.5t91 58.5t110 21.5q56 0 88.5 -21.5t41.5 -51.5h9l15 61h92l-53 -213h-92l12 48q2 8 3 15t1 15q0 41 -29 63.5
t-75 22.5q-42 0 -75.5 -17.5t-60 -47.5t-45 -69t-28.5 -82q-14 -56 -23 -93t-14.5 -62.5t-8 -44t-2.5 -36.5q0 -62 31 -100t95 -38q66 0 115.5 37t84.5 94l39 -25v0zM429 752l-32 17l102 186l93 -48z" />
    <glyph glyph-name="cacute" unicode="&#x107;" horiz-adv-x="448" 
d="M180 -12q-74 0 -109 42.5t-35 121.5q0 58 16.5 124.5t50 123.5t84.5 94.5t120 37.5q65 0 101.5 -30.5t36.5 -78.5q0 -38 -22 -65.5t-60 -27.5q-29 0 -42.5 17t-13.5 39q0 25 18.5 48.5t59.5 26.5v9q-23 17 -64 17q-21 0 -39.5 -7.5t-35.5 -28t-32.5 -56t-29.5 -91.5
q-12 -45 -20 -89.5t-8 -74.5q0 -82 65 -82q44 0 83 37.5t75 105.5l36 -17q-24 -48 -48.5 -85t-52 -61.5t-60.5 -37t-74 -12.5zM316 582l-32 17l102 186l93 -48z" />
    <glyph glyph-name="Ccircumflex" unicode="&#x108;" horiz-adv-x="603" 
d="M543 165q-18 -32 -44.5 -64t-61.5 -57t-77.5 -40.5t-91.5 -15.5q-47 0 -86 14.5t-67.5 44t-44.5 74.5t-16 107q0 50 10.5 105.5t32 109t52.5 102t72 85.5t91 58.5t110 21.5q56 0 88.5 -21.5t41.5 -51.5h9l15 61h92l-53 -213h-92l12 48q2 8 3 15t1 15q0 41 -29 63.5
t-75 22.5q-42 0 -75.5 -17.5t-60 -47.5t-45 -69t-28.5 -82q-14 -56 -23 -93t-14.5 -62.5t-8 -44t-2.5 -36.5q0 -62 31 -100t95 -38q66 0 115.5 37t84.5 94l39 -25v0zM512 945l78 -172l-31 -17l-97 101l-148 -101l-28 21l153 168h73z" />
    <glyph glyph-name="ccircumflex" unicode="&#x109;" horiz-adv-x="448" 
d="M180 -12q-74 0 -109 42.5t-35 121.5q0 58 16.5 124.5t50 123.5t84.5 94.5t120 37.5q65 0 101.5 -30.5t36.5 -78.5q0 -38 -22 -65.5t-60 -27.5q-29 0 -42.5 17t-13.5 39q0 25 18.5 48.5t59.5 26.5v9q-23 17 -64 17q-21 0 -39.5 -7.5t-35.5 -28t-32.5 -56t-29.5 -91.5
q-12 -45 -20 -89.5t-8 -74.5q0 -82 65 -82q44 0 83 37.5t75 105.5l36 -17q-24 -48 -48.5 -85t-52 -61.5t-60.5 -37t-74 -12.5zM399 779l78 -172l-31 -17l-97 101l-148 -101l-28 21l153 168h73z" />
    <glyph glyph-name="Cdotaccent" unicode="&#x10a;" horiz-adv-x="603" 
d="M543 165q-18 -32 -44.5 -64t-61.5 -57t-77.5 -40.5t-91.5 -15.5q-47 0 -86 14.5t-67.5 44t-44.5 74.5t-16 107q0 50 10.5 105.5t32 109t52.5 102t72 85.5t91 58.5t110 21.5q56 0 88.5 -21.5t41.5 -51.5h9l15 61h92l-53 -213h-92l12 48q2 8 3 15t1 15q0 41 -29 63.5
t-75 22.5q-42 0 -75.5 -17.5t-60 -47.5t-45 -69t-28.5 -82q-14 -56 -23 -93t-14.5 -62.5t-8 -44t-2.5 -36.5q0 -62 31 -100t95 -38q66 0 115.5 37t84.5 94l39 -25v0zM442 775q-29 0 -43.5 16.5t-14.5 36.5v10t2 11q5 25 23.5 40t47.5 15t43.5 -16.5t14.5 -36.5v-10t-2 -11
q-5 -25 -23.5 -40t-47.5 -15z" />
    <glyph glyph-name="cdotaccent" unicode="&#x10b;" horiz-adv-x="448" 
d="M180 -12q-74 0 -109 42.5t-35 121.5q0 58 16.5 124.5t50 123.5t84.5 94.5t120 37.5q65 0 101.5 -30.5t36.5 -78.5q0 -38 -22 -65.5t-60 -27.5q-29 0 -42.5 17t-13.5 39q0 25 18.5 48.5t59.5 26.5v9q-23 17 -64 17q-21 0 -39.5 -7.5t-35.5 -28t-32.5 -56t-29.5 -91.5
q-12 -45 -20 -89.5t-8 -74.5q0 -82 65 -82q44 0 83 37.5t75 105.5l36 -17q-24 -48 -48.5 -85t-52 -61.5t-60.5 -37t-74 -12.5zM333 607q-29 0 -43.5 16.5t-14.5 36.5v10t2 11q5 25 23.5 40t47.5 15t43.5 -16.5t14.5 -36.5v-10t-2 -11q-5 -25 -23.5 -40t-47.5 -15z" />
    <glyph glyph-name="Ccaron" unicode="&#x10c;" horiz-adv-x="603" 
d="M543 165q-18 -32 -44.5 -64t-61.5 -57t-77.5 -40.5t-91.5 -15.5q-47 0 -86 14.5t-67.5 44t-44.5 74.5t-16 107q0 50 10.5 105.5t32 109t52.5 102t72 85.5t91 58.5t110 21.5q56 0 88.5 -21.5t41.5 -51.5h9l15 61h92l-53 -213h-92l12 48q2 8 3 15t1 15q0 41 -29 63.5
t-75 22.5q-42 0 -75.5 -17.5t-60 -47.5t-45 -69t-28.5 -82q-14 -56 -23 -93t-14.5 -62.5t-8 -44t-2.5 -36.5q0 -62 31 -100t95 -38q66 0 115.5 37t84.5 94l39 -25v0zM397 760l-78 172l31 17l97 -101l148 101l28 -21l-153 -168h-73z" />
    <glyph glyph-name="ccaron" unicode="&#x10d;" horiz-adv-x="448" 
d="M180 -12q-74 0 -109 42.5t-35 121.5q0 58 16.5 124.5t50 123.5t84.5 94.5t120 37.5q65 0 101.5 -30.5t36.5 -78.5q0 -38 -22 -65.5t-60 -27.5q-29 0 -42.5 17t-13.5 39q0 25 18.5 48.5t59.5 26.5v9q-23 17 -64 17q-21 0 -39.5 -7.5t-35.5 -28t-32.5 -56t-29.5 -91.5
q-12 -45 -20 -89.5t-8 -74.5q0 -82 65 -82q44 0 83 37.5t75 105.5l36 -17q-24 -48 -48.5 -85t-52 -61.5t-60.5 -37t-74 -12.5zM288 594l-78 172l31 17l97 -101l148 101l28 -21l-153 -168h-73z" />
    <glyph glyph-name="Dcaron" unicode="&#x10e;" horiz-adv-x="682" 
d="M-13 52h66l148 594h-66l13 52h280q58 0 102.5 -17.5t75 -49t46 -75.5t15.5 -98q0 -40 -9 -89.5t-28 -100t-50 -99t-75 -86t-102 -60.5t-131 -23h-298zM256 56q94 0 156.5 60.5t88.5 169.5q14 57 23 93t14 59.5t7 39t2 31.5q0 65 -35.5 99t-104.5 34h-84l-146 -586h79z
M376 760l-78 172l31 17l97 -101l148 101l28 -21l-153 -168h-73z" />
    <glyph glyph-name="dcaron" unicode="&#x10f;" horiz-adv-x="575" 
d="M141 -12q-57 0 -82 39.5t-25 112.5q0 62 18 131t52 127t82 96t108 38q45 0 67 -20.5t33 -52.5h10l50 219h-86l12 48l213 44l-177 -703l18 -8l102 115l31 -22l-63 -83q-34 -45 -61 -63t-55 -18q-40 0 -56 21.5t-16 48.5q0 13 3 29t5 26l13 51l-10 2q-18 -39 -37 -71.5
t-41.5 -56.5t-49 -37t-58.5 -13zM328 467q-43 0 -82.5 -41.5t-64.5 -132.5q-5 -17 -10 -38.5t-8.5 -43.5t-6 -42.5t-2.5 -35.5q0 -31 6.5 -48t26.5 -17q19 0 39 15.5t39 40t37 55t32 61t24 58t14 45.5l5 20q11 48 0 76t-49 28zM635 559h-37l56 199h107z" />
    <glyph glyph-name="Dcroat" unicode="&#x110;" horiz-adv-x="682" 
d="M-13 52h66l68 273h-80l13 55h81l66 266h-66l13 52h280q58 0 102.5 -17.5t75 -49t46 -75.5t15.5 -98q0 -40 -9 -89.5t-28 -100t-50 -99t-75 -86t-102 -60.5t-131 -23h-298zM256 56q94 0 156.5 60.5t88.5 169.5q14 57 23 93t14 59.5t7 39t2 31.5q0 65 -35.5 99t-104.5 34
h-84l-65 -262h112l-13 -55h-113l-67 -269h79z" />
    <glyph glyph-name="dcroat" unicode="&#x111;" horiz-adv-x="575" 
d="M434 59l102 115l31 -22l-63 -83q-19 -26 -35 -41.5t-30.5 -24.5t-27 -12t-24.5 -3q-38 0 -54.5 21.5t-16.5 48.5q0 13 3 29t5 26l13 51l-10 2q-18 -39 -37 -71.5t-41.5 -56.5t-49 -37t-58.5 -13q-57 0 -82 39.5t-25 112.5q0 62 18 131t52 127t82 96t108 38q45 0 67 -20.5
t33 -52.5h10l34 152h-147l14 55h146l17 79l125 25l-26 -104h65l-14 -55h-66l-136 -544zM328 467q-43 0 -82.5 -41.5t-64.5 -132.5q-5 -17 -10 -38.5t-8.5 -43.5t-6 -42.5t-2.5 -35.5q0 -31 6.5 -48t26.5 -17q19 0 39 15.5t39 40t37 55t32 61t24 58t14 45.5l5 20q11 48 0 76
t-49 28z" />
    <glyph glyph-name="Emacron" unicode="&#x112;" horiz-adv-x="601" 
d="M396 334h-150l-69 -278h231l34 136h92l-48 -192h-512l13 52h66l148 594h-66l13 52h503l-44 -178h-92l31 122h-223l-62 -252h149l19 73h62l-51 -202h-63zM314 875h273l-17 -69h-273z" />
    <glyph glyph-name="emacron" unicode="&#x113;" horiz-adv-x="467" 
d="M181 -12q-75 0 -110 43t-35 124q0 38 7 81t22 85t38 80t54.5 67.5t71.5 46.5t90 17q27 0 52 -5.5t44.5 -17.5t31.5 -32t12 -49q0 -26 -12.5 -53.5t-44.5 -51.5t-87.5 -41.5t-142.5 -22.5q-7 -32 -11.5 -63.5t-4.5 -54.5q0 -83 65 -83q45 0 84.5 37.5t75.5 105.5l36 -17
q-24 -48 -48 -84.5t-52 -61t-61.5 -37.5t-74.5 -13zM181 296q98 13 137.5 48t39.5 86q0 24 -11.5 39t-38.5 15q-21 0 -38 -9t-32 -31t-29 -58t-28 -90zM224 707h273l-17 -69h-273z" />
    <glyph glyph-name="Ebreve" unicode="&#x114;" horiz-adv-x="601" 
d="M396 334h-150l-69 -278h231l34 136h92l-48 -192h-512l13 52h66l148 594h-66l13 52h503l-44 -178h-92l31 122h-223l-62 -252h149l19 73h62l-51 -202h-63zM426 759q-37 0 -59.5 14.5t-35 37t-18 50.5t-8.5 56l34 14l12 -37q8 -28 29 -40t60 -12t64.5 11.5t46.5 40.5l28 37
l31 -17q-14 -27 -31 -54.5t-38.5 -50t-49.5 -36.5t-65 -14z" />
    <glyph glyph-name="ebreve" unicode="&#x115;" horiz-adv-x="467" 
d="M181 -12q-75 0 -110 43t-35 124q0 38 7 81t22 85t38 80t54.5 67.5t71.5 46.5t90 17q27 0 52 -5.5t44.5 -17.5t31.5 -32t12 -49q0 -26 -12.5 -53.5t-44.5 -51.5t-87.5 -41.5t-142.5 -22.5q-7 -32 -11.5 -63.5t-4.5 -54.5q0 -83 65 -83q45 0 84.5 37.5t75.5 105.5l36 -17
q-24 -48 -48 -84.5t-52 -61t-61.5 -37.5t-74.5 -13zM181 296q98 13 137.5 48t39.5 86q0 24 -11.5 39t-38.5 15q-21 0 -38 -9t-32 -31t-29 -58t-28 -90zM336 593q-37 0 -59.5 14.5t-35 37t-18 50.5t-8.5 56l34 14l12 -37q8 -28 29 -40t60 -12t64.5 11.5t46.5 40.5l28 37
l31 -17q-14 -27 -31 -54.5t-38.5 -50t-49.5 -36.5t-65 -14z" />
    <glyph glyph-name="Edotaccent" unicode="&#x116;" horiz-adv-x="601" 
d="M396 334h-150l-69 -278h231l34 136h92l-48 -192h-512l13 52h66l148 594h-66l13 52h503l-44 -178h-92l31 122h-223l-62 -252h149l19 73h62l-51 -202h-63zM432 775q-29 0 -43.5 16.5t-14.5 36.5v10t2 11q5 25 23.5 40t47.5 15t43.5 -16.5t14.5 -36.5v-10t-2 -11
q-5 -25 -23.5 -40t-47.5 -15z" />
    <glyph glyph-name="edotaccent" unicode="&#x117;" horiz-adv-x="467" 
d="M181 -12q-75 0 -110 43t-35 124q0 38 7 81t22 85t38 80t54.5 67.5t71.5 46.5t90 17q27 0 52 -5.5t44.5 -17.5t31.5 -32t12 -49q0 -26 -12.5 -53.5t-44.5 -51.5t-87.5 -41.5t-142.5 -22.5q-7 -32 -11.5 -63.5t-4.5 -54.5q0 -83 65 -83q45 0 84.5 37.5t75.5 105.5l36 -17
q-24 -48 -48 -84.5t-52 -61t-61.5 -37.5t-74.5 -13zM181 296q98 13 137.5 48t39.5 86q0 24 -11.5 39t-38.5 15q-21 0 -38 -9t-32 -31t-29 -58t-28 -90zM344 607q-29 0 -43.5 16.5t-14.5 36.5v10t2 11q5 25 23.5 40t47.5 15t43.5 -16.5t14.5 -36.5v-10t-2 -11
q-5 -25 -23.5 -40t-47.5 -15z" />
    <glyph glyph-name="Eogonek" unicode="&#x118;" horiz-adv-x="601" 
d="M383 -209q-35 0 -57 16.5t-22 49.5q0 25 11.5 45.5t30.5 37t44.5 30.5t52.5 25l-1 5h-468l13 52h66l148 594h-66l13 52h503l-44 -178h-92l31 122h-223l-62 -252h149l19 73h62l-51 -202h-63l19 73h-150l-69 -278h231l34 136h92l-48 -192q-19 -14 -37.5 -30t-33 -32.5
t-23.5 -33t-9 -31.5q0 -30 27 -30q15 0 26 7.5t25 18.5l27 -29q-20 -20 -45 -34.5t-60 -14.5z" />
    <glyph glyph-name="eogonek" unicode="&#x119;" horiz-adv-x="467" 
d="M174 -209q-35 0 -57 16.5t-22 49.5q0 25 10.5 45t28.5 36t42 29.5t51 24.5v4q-21 -8 -45 -8q-76 0 -111 43t-35 124q0 38 7 81t22 85t38 80t54.5 67.5t71.5 46.5t90 17q27 0 52 -5.5t44.5 -17.5t31.5 -32t12 -49q0 -26 -12.5 -53.5t-44.5 -51.5t-87.5 -41.5t-142.5 -22.5
q-7 -32 -11.5 -63.5t-4.5 -54.5q0 -83 65 -83q45 0 84 37.5t76 105.5l36 -17q-14 -29 -26 -49.5t-23 -36.5t-21.5 -28.5t-22.5 -24.5q-19 -19 -45 -39t-49 -42t-39.5 -44.5t-16.5 -46.5q0 -30 27 -30q15 0 26 7.5t25 18.5l27 -29q-20 -20 -45.5 -34.5t-59.5 -14.5zM181 296
q98 13 137.5 48t39.5 86q0 24 -11.5 39t-38.5 15q-21 0 -38 -9t-32 -31t-29 -58t-28 -90z" />
    <glyph glyph-name="Ecaron" unicode="&#x11a;" horiz-adv-x="601" 
d="M396 334h-150l-69 -278h231l34 136h92l-48 -192h-512l13 52h66l148 594h-66l13 52h503l-44 -178h-92l31 122h-223l-62 -252h149l19 73h62l-51 -202h-63zM387 760l-78 172l31 17l97 -101l148 101l28 -21l-153 -168h-73z" />
    <glyph glyph-name="ecaron" unicode="&#x11b;" horiz-adv-x="467" 
d="M181 -12q-75 0 -110 43t-35 124q0 38 7 81t22 85t38 80t54.5 67.5t71.5 46.5t90 17q27 0 52 -5.5t44.5 -17.5t31.5 -32t12 -49q0 -26 -12.5 -53.5t-44.5 -51.5t-87.5 -41.5t-142.5 -22.5q-7 -32 -11.5 -63.5t-4.5 -54.5q0 -83 65 -83q45 0 84.5 37.5t75.5 105.5l36 -17
q-24 -48 -48 -84.5t-52 -61t-61.5 -37.5t-74.5 -13zM181 296q98 13 137.5 48t39.5 86q0 24 -11.5 39t-38.5 15q-21 0 -38 -9t-32 -31t-29 -58t-28 -90zM299 594l-78 172l31 17l97 -101l148 101l28 -21l-153 -168h-73z" />
    <glyph glyph-name="Gcircumflex" unicode="&#x11c;" horiz-adv-x="697" 
d="M470 93h-8q-12 -19 -30 -37.5t-42.5 -33.5t-55.5 -24.5t-67 -9.5q-100 0 -156.5 60.5t-56.5 178.5q0 52 11.5 108t33.5 109.5t54.5 102t75 84.5t94.5 57.5t113 21.5q63 0 101 -21t49 -52h8l16 61h91l-53 -213h-91l12 47q4 15 4 31q0 40 -33.5 64t-88.5 24q-44 0 -81 -18
t-65.5 -49t-49 -72.5t-31.5 -87.5q-14 -57 -23.5 -94.5t-15 -63t-8 -43.5t-2.5 -37q0 -60 29 -97.5t86 -37.5q60 0 109.5 37.5t66.5 106.5l23 97h-102l13 52h277l-14 -52h-51l-72 -292h-43zM526 945l78 -172l-31 -17l-97 101l-148 -101l-28 21l153 168h73z" />
    <glyph glyph-name="gcircumflex" unicode="&#x11d;" horiz-adv-x="496" 
d="M141 -212q-59 0 -99.5 8.5t-66 22.5t-37 33.5t-11.5 40.5q0 24 13.5 43t35 33.5t49.5 25t57 18.5l2 9q-30 14 -43 32.5t-13 42.5q0 22 9.5 39.5t24.5 30t34.5 21.5t39.5 14l2 8q-62 37 -62 114q0 46 18.5 84.5t51 66t75.5 42.5t91 15q40 0 70 -12h154l-13 -55h-38l-41 4
l-3 -5q10 -14 15.5 -31t5.5 -36q0 -47 -18.5 -85.5t-51 -65.5t-75.5 -42t-91 -15q-11 0 -22 1t-21 3q-24 -4 -43 -15t-19 -29q0 -17 14.5 -24.5t38.5 -16.5l91 -31q73 -25 108.5 -53.5t35.5 -79.5q0 -42 -22 -71.5t-59.5 -48.5t-86 -27.5t-100.5 -8.5zM125 6
q-43 -16 -74.5 -40.5t-31.5 -61.5q0 -35 31 -57t105 -22q27 0 53.5 4.5t47 14t33 25.5t12.5 39q0 28 -17.5 39.5t-51.5 22.5zM238 233q40 0 62 28t33 75q11 43 15 63.5t4 31.5q0 26 -11.5 41.5t-40.5 15.5q-40 0 -62 -28t-33 -75q-11 -43 -15 -63.5t-4 -31.5
q0 -26 11.5 -41.5t40.5 -15.5zM401 779l78 -172l-31 -17l-97 101l-148 -101l-28 21l153 168h73z" />
    <glyph glyph-name="Gbreve" unicode="&#x11e;" horiz-adv-x="697" 
d="M470 93h-8q-12 -19 -30 -37.5t-42.5 -33.5t-55.5 -24.5t-67 -9.5q-100 0 -156.5 60.5t-56.5 178.5q0 52 11.5 108t33.5 109.5t54.5 102t75 84.5t94.5 57.5t113 21.5q63 0 101 -21t49 -52h8l16 61h91l-53 -213h-91l12 47q4 15 4 31q0 40 -33.5 64t-88.5 24q-44 0 -81 -18
t-65.5 -49t-49 -72.5t-31.5 -87.5q-14 -57 -23.5 -94.5t-15 -63t-8 -43.5t-2.5 -37q0 -60 29 -97.5t86 -37.5q60 0 109.5 37.5t66.5 106.5l23 97h-102l13 52h277l-14 -52h-51l-72 -292h-43zM450 759q-37 0 -59.5 14.5t-35 37t-18 50.5t-8.5 56l34 14l12 -37q8 -28 29 -40
t60 -12t64.5 11.5t46.5 40.5l28 37l31 -17q-14 -27 -31 -54.5t-38.5 -50t-49.5 -36.5t-65 -14z" />
    <glyph glyph-name="gbreve" unicode="&#x11f;" horiz-adv-x="496" 
d="M141 -212q-59 0 -99.5 8.5t-66 22.5t-37 33.5t-11.5 40.5q0 24 13.5 43t35 33.5t49.5 25t57 18.5l2 9q-30 14 -43 32.5t-13 42.5q0 22 9.5 39.5t24.5 30t34.5 21.5t39.5 14l2 8q-62 37 -62 114q0 46 18.5 84.5t51 66t75.5 42.5t91 15q40 0 70 -12h154l-13 -55h-38l-41 4
l-3 -5q10 -14 15.5 -31t5.5 -36q0 -47 -18.5 -85.5t-51 -65.5t-75.5 -42t-91 -15q-11 0 -22 1t-21 3q-24 -4 -43 -15t-19 -29q0 -17 14.5 -24.5t38.5 -16.5l91 -31q73 -25 108.5 -53.5t35.5 -79.5q0 -42 -22 -71.5t-59.5 -48.5t-86 -27.5t-100.5 -8.5zM125 6
q-43 -16 -74.5 -40.5t-31.5 -61.5q0 -35 31 -57t105 -22q27 0 53.5 4.5t47 14t33 25.5t12.5 39q0 28 -17.5 39.5t-51.5 22.5zM238 233q40 0 62 28t33 75q11 43 15 63.5t4 31.5q0 26 -11.5 41.5t-40.5 15.5q-40 0 -62 -28t-33 -75q-11 -43 -15 -63.5t-4 -31.5
q0 -26 11.5 -41.5t40.5 -15.5zM327 593q-37 0 -59.5 14.5t-35 37t-18 50.5t-8.5 56l34 14l12 -37q8 -28 29 -40t60 -12t64.5 11.5t46.5 40.5l28 37l31 -17q-14 -27 -31 -54.5t-38.5 -50t-49.5 -36.5t-65 -14z" />
    <glyph glyph-name="Gdotaccent" unicode="&#x120;" horiz-adv-x="697" 
d="M470 93h-8q-12 -19 -30 -37.5t-42.5 -33.5t-55.5 -24.5t-67 -9.5q-100 0 -156.5 60.5t-56.5 178.5q0 52 11.5 108t33.5 109.5t54.5 102t75 84.5t94.5 57.5t113 21.5q63 0 101 -21t49 -52h8l16 61h91l-53 -213h-91l12 47q4 15 4 31q0 40 -33.5 64t-88.5 24q-44 0 -81 -18
t-65.5 -49t-49 -72.5t-31.5 -87.5q-14 -57 -23.5 -94.5t-15 -63t-8 -43.5t-2.5 -37q0 -60 29 -97.5t86 -37.5q60 0 109.5 37.5t66.5 106.5l23 97h-102l13 52h277l-14 -52h-51l-72 -292h-43zM456 775q-29 0 -43.5 16.5t-14.5 36.5v10t2 11q5 25 23.5 40t47.5 15t43.5 -16.5
t14.5 -36.5v-10t-2 -11q-5 -25 -23.5 -40t-47.5 -15z" />
    <glyph glyph-name="gdotaccent" unicode="&#x121;" horiz-adv-x="496" 
d="M226 189q-11 0 -22 1t-21 3q-24 -4 -43 -15t-19 -29q0 -17 14.5 -24.5t38.5 -16.5l91 -31q73 -25 108.5 -53.5t35.5 -79.5q0 -42 -22 -71.5t-59 -48.5t-85.5 -27.5t-101.5 -8.5q-59 0 -99.5 8.5t-66 22.5t-37 33.5t-11.5 40.5q0 24 13.5 43t35 33.5t49.5 25t57 18.5l2 9
q-30 14 -43 32.5t-13 42.5q0 22 9.5 39.5t24.5 30t34.5 21.5t39.5 14l2 8q-29 16 -45.5 45t-16.5 69q0 46 18.5 84.5t51 66t75.5 42.5t91 15q44 0 80 -17q11 46 33.5 74t59.5 28q26 0 40.5 -12.5t14.5 -34.5q0 -25 -16 -42t-39 -17q-19 0 -30 9.5t-16 25.5h-5l-17 -48
q21 -18 33 -43t12 -58q0 -47 -18.5 -85.5t-51 -65.5t-75.5 -42t-91 -15zM125 6q-43 -16 -74.5 -40.5t-31.5 -61.5q0 -35 31 -57t105 -22q27 0 53.5 4.5t47 14t33 25.5t12.5 39q0 28 -17.5 39.5t-50.5 22.5zM238 233q40 0 62 28t33 75q11 43 15 63.5t4 31.5q0 26 -11.5 41.5
t-40.5 15.5q-40 0 -62 -28t-33 -75q-11 -43 -15 -63.5t-4 -31.5q0 -26 11.5 -41.5t40.5 -15.5zM335 607q-29 0 -43.5 16.5t-14.5 36.5v10t2 11q5 25 23.5 40t47.5 15t43.5 -16.5t14.5 -36.5v-10t-2 -11q-5 -25 -23.5 -40t-47.5 -15z" />
    <glyph glyph-name="Gcommaaccent" unicode="&#x122;" horiz-adv-x="697" 
d="M470 93h-8q-12 -19 -30 -37.5t-42.5 -33.5t-55.5 -24.5t-67 -9.5q-100 0 -156.5 60.5t-56.5 178.5q0 52 11.5 108t33.5 109.5t54.5 102t75 84.5t94.5 57.5t113 21.5q63 0 101 -21t49 -52h8l16 61h91l-53 -213h-91l12 47q4 15 4 31q0 40 -33.5 64t-88.5 24q-44 0 -81 -18
t-65.5 -49t-49 -72.5t-31.5 -87.5q-14 -57 -23.5 -94.5t-15 -63t-8 -43.5t-2.5 -37q0 -60 29 -97.5t86 -37.5q60 0 109.5 37.5t66.5 106.5l23 97h-102l13 52h277l-14 -52h-51l-72 -292h-43zM150 -261q23 20 43.5 45.5t31.5 48.5q-41 9 -41 44q0 8 3 20q6 25 24 38t43 13
t38 -13t13 -34q0 -9 -3 -22q-11 -38 -38 -74.5t-62 -65.5h-52v0z" />
    <glyph glyph-name="gcommaaccent" unicode="&#x123;" horiz-adv-x="496" 
d="M226 189q-11 0 -22 1t-21 3q-24 -4 -43 -15t-19 -29q0 -17 14.5 -24.5t38.5 -16.5l91 -31q73 -25 108.5 -53.5t35.5 -79.5q0 -42 -22 -71.5t-59 -48.5t-85.5 -27.5t-101.5 -8.5q-59 0 -99.5 8.5t-66 22.5t-37 33.5t-11.5 40.5q0 24 13.5 43t35 33.5t49.5 25t57 18.5l2 9
q-30 14 -43 32.5t-13 42.5q0 22 9.5 39.5t24.5 30t34.5 21.5t39.5 14l2 8q-29 16 -45.5 45t-16.5 69q0 46 18.5 84.5t51 66t75.5 42.5t91 15q44 0 80 -17q11 46 33.5 74t59.5 28q26 0 40.5 -12.5t14.5 -34.5q0 -25 -16 -42t-39 -17q-19 0 -30 9.5t-16 25.5h-5l-17 -48
q21 -18 33 -43t12 -58q0 -47 -18.5 -85.5t-51 -65.5t-75.5 -42t-91 -15zM125 6q-43 -16 -74.5 -40.5t-31.5 -61.5q0 -35 31 -57t105 -22q27 0 53.5 4.5t47 14t33 25.5t12.5 39q0 28 -17.5 39.5t-50.5 22.5zM238 233q40 0 62 28t33 75q11 43 15 63.5t4 31.5q0 26 -11.5 41.5
t-40.5 15.5q-40 0 -62 -28t-33 -75q-11 -43 -15 -63.5t-4 -31.5q0 -26 11.5 -41.5t40.5 -15.5zM428 793q-22 -20 -43 -47t-31 -49q18 -5 29 -16.5t11 -28.5v-8.5t-2 -10.5q-6 -25 -24 -38t-42 -13q-25 0 -39 13.5t-14 34.5q0 9 3 21q9 36 37.5 74.5t63.5 67.5h51v0z" />
    <glyph glyph-name="Hcircumflex" unicode="&#x124;" horiz-adv-x="731" 
d="M372 0l13 52h66l68 275h-274l-69 -275h66l-12 -52h-256l13 52h66l148 594h-66l13 52h256l-13 -52h-67l-65 -262h274l66 262h-66l12 52h256l-13 -52h-66l-148 -594h66l-12 -52h-256zM570 945l78 -172l-31 -17l-97 101l-148 -101l-28 21l153 168h73z" />
    <glyph glyph-name="hcircumflex" unicode="&#x125;" horiz-adv-x="580" 
d="M385 -12q-43 0 -60.5 22.5t-17.5 49.5q0 12 2.5 26t5.5 25l81 292q3 12 3 22q0 26 -25 26q-23 0 -52.5 -24.5t-58.5 -66.5t-55 -99t-42 -123l-35 -138h-115l169 678h-86l12 48l213 44l-114 -419l10 -4q21 37 41.5 70.5t44.5 59t52 40.5t64 15q48 0 70 -26.5t22 -69.5
q0 -32 -10 -66l-85 -303l18 -8l102 115l31 -22l-63 -83q-34 -47 -63 -64t-59 -17zM332 957l78 -172l-31 -17l-97 101l-148 -101l-28 21l153 168h73z" />
    <glyph glyph-name="Hbar" unicode="&#x126;" horiz-adv-x="730" 
d="M372 0l13 52h66l68 275h-275l-68 -275h66l-12 -52h-256l13 52h66l110 442h-80l13 54h81l24 98h-66l13 52h256l-13 -52h-67l-24 -98h274l25 98h-66l12 52h256l-13 -52h-66l-25 -98h80l-13 -54h-80l-110 -442h66l-12 -52h-256zM259 384h274l28 110h-275z" />
    <glyph glyph-name="hbar" unicode="&#x127;" horiz-adv-x="580" 
d="M280 611l-70 -260l10 -4q21 37 41.5 70.5t44.5 59t52 40.5t64 15q48 0 70 -26.5t22 -69.5q0 -32 -10 -66l-85 -303l18 -8l102 115l31 -22l-63 -83q-35 -49 -65 -65t-58 -16q-41 0 -59 22.5t-18 49.5q0 12 2.5 26t5.5 25l81 292q3 12 3 22q0 26 -24 26q-23 0 -52.5 -24.5
t-59 -66.5t-55.5 -99t-42 -123l-35 -138h-115l152 611h-65l14 55h65l20 79l122 25l-29 -104h145l-14 -55h-146z" />
    <glyph glyph-name="Itilde" unicode="&#x128;" horiz-adv-x="333" 
d="M-26 0l13 52h66l148 594h-66l13 52h256l-14 -52h-66l-148 -594h66l-12 -52h-256zM372 776q-23 0 -42 8t-39 19q-23 12 -39 20.5t-32 8.5q-13 0 -25 -6.5t-31 -25.5l-25 24q24 32 47.5 56t57.5 24q23 0 42 -8t39 -19q23 -12 39 -20.5t32 -8.5q13 0 25 6.5t31 25.5l25 -24
q-24 -32 -47.5 -56t-57.5 -24z" />
    <glyph glyph-name="itilde" unicode="&#x129;" horiz-adv-x="320" 
d="M128 -12q-43 0 -61 22t-18 50q0 12 3 26.5t5 24.5l82 329h-86l12 48l213 44l-116 -465l18 -8l101 115l31 -22l-62 -83q-36 -49 -66 -65t-56 -16zM297 610q-23 0 -42 8t-39 19q-23 12 -39 20.5t-32 8.5q-13 0 -25 -6.5t-31 -25.5l-25 24q24 32 47.5 56t57.5 24q23 0 42 -8
t39 -19q23 -12 39 -20.5t32 -8.5q13 0 25 6.5t31 25.5l25 -24q-24 -32 -47.5 -56t-57.5 -24z" />
    <glyph glyph-name="Imacron" unicode="&#x12a;" horiz-adv-x="333" 
d="M-26 0l13 52h66l148 594h-66l13 52h256l-14 -52h-66l-148 -594h66l-12 -52h-256zM183 875h273l-17 -69h-273z" />
    <glyph glyph-name="imacron" unicode="&#x12b;" horiz-adv-x="320" 
d="M128 -12q-43 0 -61 22t-18 50q0 12 3 26.5t5 24.5l82 329h-86l12 48l213 44l-116 -465l18 -8l101 115l31 -22l-62 -83q-36 -49 -66 -65t-56 -16zM110 707h273l-17 -69h-273z" />
    <glyph glyph-name="Ibreve" unicode="&#x12c;" horiz-adv-x="333" 
d="M-26 0l13 52h66l148 594h-66l13 52h256l-14 -52h-66l-148 -594h66l-12 -52h-256zM295 759q-37 0 -59.5 14.5t-35 37t-18 50.5t-8.5 56l34 14l12 -37q8 -28 29 -40t60 -12t64.5 11.5t46.5 40.5l28 37l31 -17q-14 -27 -31 -54.5t-38.5 -50t-49.5 -36.5t-65 -14z" />
    <glyph glyph-name="ibreve" unicode="&#x12d;" horiz-adv-x="320" 
d="M128 -12q-43 0 -61 22t-18 50q0 12 3 26.5t5 24.5l82 329h-86l12 48l213 44l-116 -465l18 -8l101 115l31 -22l-62 -83q-36 -49 -66 -65t-56 -16zM222 593q-37 0 -59.5 14.5t-35 37t-18 50.5t-8.5 56l34 14l12 -37q8 -28 29 -40t60 -12t64.5 11.5t46.5 40.5l28 37l31 -17
q-14 -27 -31 -54.5t-38.5 -50t-49.5 -36.5t-65 -14z" />
    <glyph glyph-name="Iogonek" unicode="&#x12e;" horiz-adv-x="333" 
d="M127 -209q-35 0 -57 16.5t-22 49.5q0 25 11.5 45.5t30.5 37t44.5 30.5t52.5 25l-1 5h-212l13 52h66l148 594h-66l13 52h256l-14 -52h-66l-148 -594h66l-12 -52q-19 -14 -37.5 -30t-33 -32.5t-23.5 -33t-9 -31.5q0 -30 27 -30q15 0 26 7.5t25 18.5l27 -29
q-20 -20 -45 -34.5t-60 -14.5z" />
    <glyph glyph-name="iogonek" unicode="&#x12f;" horiz-adv-x="320" 
d="M245 621q-31 0 -47 16.5t-16 37.5q0 11 3 23q6 26 27 42t50 16q31 0 47 -16.5t16 -37.5q0 -11 -3 -23q-6 -26 -27 -42t-50 -16zM36 -141q0 24 10.5 43t27 34.5t37.5 27.5t41 22l-2 6q-6 -2 -14.5 -3t-13.5 -1q-39 0 -56 22.5t-17 49.5q0 12 3 26.5t5 24.5l82 329h-86
l12 48l213 44l-116 -465l18 -8l101 115l31 -22l-87 -107q-13 -17 -31.5 -39t-36 -45t-30 -45.5t-12.5 -40.5q0 -32 27 -32q15 0 26 7.5t25 18.5l27 -29q-20 -20 -45 -34.5t-60 -14.5t-57 17.5t-22 50.5z" />
    <glyph glyph-name="Idotaccent" unicode="&#x130;" horiz-adv-x="333" 
d="M-26 0l13 52h66l148 594h-66l13 52h256l-14 -52h-66l-148 -594h66l-12 -52h-256zM301 775q-29 0 -43.5 16.5t-14.5 36.5v10t2 11q5 25 23.5 40t47.5 15t43.5 -16.5t14.5 -36.5v-10t-2 -11q-5 -25 -23.5 -40t-47.5 -15z" />
    <glyph glyph-name="dotlessi" unicode="&#x131;" horiz-adv-x="320" 
d="M128 -12q-43 0 -61 22t-18 50q0 12 3 26.5t5 24.5l82 329h-86l12 48l213 44l-116 -465l18 -8l101 115l31 -22l-62 -83q-36 -49 -66 -65t-56 -16z" />
    <glyph glyph-name="IJ" unicode="&#x132;" horiz-adv-x="788" 
d="M-26 0l13 52h66l148 594h-66l13 52h256l-14 -52h-66l-148 -594h66l-12 -52h-256zM396 44q6 -2 15 -4t19 -2q44 0 71 30t41 87l122 491h-90l13 52h279l-13 -52h-66l-118 -477q-22 -90 -78 -135.5t-150 -45.5q-68 0 -102 28t-34 68q0 31 19.5 54t53.5 23q28 0 44 -15
t16 -40q0 -18 -10.5 -34.5t-31.5 -23.5v-4v0z" />
    <glyph glyph-name="ij" unicode="&#x133;" horiz-adv-x="614" 
d="M128 -12q-43 0 -61 22t-18 50q0 12 3 26.5t5 24.5l82 329h-86l12 48l213 44l-116 -465l18 -8l101 115l31 -22l-62 -83q-36 -49 -66 -65t-56 -16zM245 621q-31 0 -47 16.5t-16 37.5q0 11 3 23q6 26 27 42t50 16q31 0 47 -16.5t16 -37.5q0 -11 -3 -23q-6 -26 -27 -42
t-50 -16zM258 -212q-54 0 -78.5 20t-24.5 50q0 27 16.5 47.5t47.5 20.5q26 0 40.5 -15t14.5 -38q0 -12 -7 -26t-23 -24l6 -8q34 2 51.5 31.5t31.5 83.5l127 510h-86l12 48l213 44l-142 -569q-21 -85 -74 -130t-125 -45zM566 621q-31 0 -47 16.5t-16 37.5q0 11 3 23
q6 26 27 42t50 16q31 0 47 -16.5t16 -37.5q0 -11 -3 -23q-6 -26 -27 -42t-50 -16z" />
    <glyph glyph-name="Jcircumflex" unicode="&#x134;" horiz-adv-x="455" 
d="M63 44q6 -2 15 -4t19 -2q44 0 71 30t41 87l122 491h-90l13 52h279l-13 -52h-66l-118 -477q-22 -90 -78 -135.5t-150 -45.5q-68 0 -102 28t-34 68q0 31 19.5 54t53.5 23q28 0 44 -15t16 -40q0 -18 -10.5 -34.5t-31.5 -23.5v-4v0zM487 945l78 -172l-31 -17l-97 101
l-148 -101l-28 21l153 168h73z" />
    <glyph glyph-name="jcircumflex" unicode="&#x135;" horiz-adv-x="294" 
d="M-62 -212q-54 0 -78.5 20t-24.5 50q0 27 16.5 47.5t47.5 20.5q26 0 40.5 -15t14.5 -38q0 -12 -7 -26t-23 -24l6 -8q34 2 51.5 31.5t31.5 83.5l127 510h-86l12 48l213 44l-142 -569q-21 -85 -74 -130t-125 -45zM296 779l78 -172l-31 -17l-97 101l-148 -101l-28 21l153 168
h73z" />
    <glyph glyph-name="Kcommaaccent" unicode="&#x136;" horiz-adv-x="687" 
d="M350 0l13 52h66l-91 297l-114 -104l-48 -193h66l-12 -52h-256l13 52h66l148 594h-66l13 52h256l-14 -52h-66l-78 -313h7l109 102l226 211h-76l13 52h224l-13 -52h-61l-241 -221l127 -373h61l-13 -52h-259zM171 -261q23 20 43.5 45.5t31.5 48.5q-41 9 -41 44q0 8 3 20
q6 25 24 38t43 13t38 -13t13 -34q0 -9 -3 -22q-11 -38 -38 -74.5t-62 -65.5h-52v0z" />
    <glyph glyph-name="kcommaaccent" unicode="&#x137;" horiz-adv-x="565" 
d="M386 -12q-26 0 -46.5 10.5t-34.5 45.5l-71 172q44 25 75.5 52t52 53.5t30 50.5t9.5 44q0 35 -29 35q-24 0 -53.5 -24.5t-58 -67t-53.5 -99.5t-41 -122l-35 -138h-115l169 678h-86l12 48l213 44l-114 -419l10 -4q21 39 42.5 73t45 58.5t51 39t62.5 14.5q49 0 71 -26.5
t22 -67.5q0 -36 -16.5 -67.5t-41 -56.5t-54 -44.5t-56.5 -31.5l76 -173h14l95 109l31 -21l-64 -86q-17 -23 -31 -38.5t-27 -24.5t-26 -12.5t-28 -3.5zM102 -261q23 20 43.5 45.5t31.5 48.5q-41 9 -41 44q0 8 3 20q6 25 24 38t43 13t38 -13t13 -34q0 -9 -3 -22
q-11 -38 -38 -74.5t-62 -65.5h-52v0z" />
    <glyph glyph-name="kgreenlandic" unicode="&#x138;" horiz-adv-x="582" 
d="M31 0l108 440h-86l12 48l213 44l-70 -280h5l69 68l157 148h-61l13 52h187l-12 -52h-52l-171 -161l95 -242h14l95 109l31 -21l-66 -89q-32 -43 -55.5 -59.5t-55.5 -16.5q-26 0 -47 11.5t-33 46.5l-71 191l-59 -56l-45 -181h-115z" />
    <glyph glyph-name="Lacute" unicode="&#x139;" horiz-adv-x="555" 
d="M324 646l-147 -590h202l34 136h92l-48 -192h-483l13 52h66l148 594h-66l13 52h255l-13 -52h-66zM289 752l-32 17l102 186l93 -48z" />
    <glyph glyph-name="lacute" unicode="&#x13a;" horiz-adv-x="305" 
d="M113 -12q-22 0 -37 6t-24.5 16.5t-13.5 23t-4 26.5q0 12 3 26.5t5 24.5l141 567h-86l12 48l213 44l-175 -703l18 -8l101 115l31 -22l-62 -83q-36 -49 -66 -65t-56 -16zM258 782l-32 17l102 186l93 -48z" />
    <glyph glyph-name="Lcommaaccent" unicode="&#x13b;" horiz-adv-x="555" 
d="M324 646l-147 -590h202l34 136h92l-48 -192h-483l13 52h66l148 594h-66l13 52h255l-13 -52h-66zM103 -261q23 20 43.5 45.5t31.5 48.5q-41 9 -41 44q0 8 3 20q6 25 24 38t43 13t38 -13t13 -34q0 -9 -3 -22q-11 -38 -38 -74.5t-62 -65.5h-52v0z" />
    <glyph glyph-name="lcommaaccent" unicode="&#x13c;" horiz-adv-x="305" 
d="M113 -12q-22 0 -37 6t-24.5 16.5t-13.5 23t-4 26.5q0 12 3 26.5t5 24.5l141 567h-86l12 48l213 44l-175 -703l18 -8l101 115l31 -22l-62 -83q-36 -49 -66 -65t-56 -16zM-12 -261q23 20 43.5 45.5t31.5 48.5q-41 9 -41 44q0 8 3 20q6 25 24 38t43 13t38 -13t13 -34
q0 -9 -3 -22q-11 -38 -38 -74.5t-62 -65.5h-52v0z" />
    <glyph glyph-name="Lcaron" unicode="&#x13d;" horiz-adv-x="555" 
d="M324 646l-147 -590h202l34 136h92l-48 -192h-483l13 52h66l148 594h-66l13 52h255l-13 -52h-66zM453 542h-37l56 199h107z" />
    <glyph glyph-name="lcaron" unicode="&#x13e;" horiz-adv-x="305" 
d="M113 -12q-22 0 -37 6t-24.5 16.5t-13.5 23t-4 26.5q0 12 3 26.5t5 24.5l141 567h-86l12 48l213 44l-175 -703l18 -8l101 115l31 -22l-62 -83q-36 -49 -66 -65t-56 -16zM365 559h-37l56 199h107z" />
    <glyph glyph-name="Ldot" unicode="&#x13f;" horiz-adv-x="556" 
d="M324 646l-147 -590h202l34 136h92l-48 -192h-483l13 52h66l148 594h-66l13 52h255l-13 -52h-66zM383 277q-29 0 -43.5 16.5t-14.5 36.5v10t2 11q5 25 23.5 40t47.5 15t43.5 -16.5t14.5 -36.5v-10t-2 -11q-5 -25 -23.5 -40t-47.5 -15z" />
    <glyph glyph-name="ldot" unicode="&#x140;" horiz-adv-x="381" 
d="M113 -12q-22 0 -37 6t-24.5 16.5t-13.5 23t-4 26.5q0 12 3 26.5t5 24.5l141 567h-86l12 48l213 44l-175 -703l18 -8l101 115l31 -22l-62 -83q-36 -49 -66 -65t-56 -16zM331 254q-29 0 -43.5 16.5t-14.5 36.5v10t2 11q5 25 23.5 40t47.5 15t43.5 -16.5t14.5 -36.5v-10
t-2 -11q-5 -25 -23.5 -40t-47.5 -15z" />
    <glyph glyph-name="Lslash" unicode="&#x141;" horiz-adv-x="556" 
d="M241 315l-64 -259h202l34 136h92l-48 -192h-483l13 52h66l54 218l-83 -28l16 60l82 28l79 316h-66l13 52h255l-13 -52h-66l-68 -271l143 49l-15 -61z" />
    <glyph glyph-name="lslash" unicode="&#x142;" horiz-adv-x="315" 
d="M118 -12q-22 0 -37 6t-24.5 16.5t-13.5 23t-4 26.5q0 12 3 26.5t5 24.5l54 215l-64 -19l15 56l62 19l74 296h-86l12 48l213 44l-87 -348l93 29l-13 -56l-94 -30l-74 -298l18 -8l101 115l31 -22l-62 -83q-36 -49 -66 -65t-56 -16z" />
    <glyph glyph-name="Nacute" unicode="&#x143;" horiz-adv-x="713" 
d="M-13 52h66l148 594h-66l13 52h204l167 -529h8l120 477h-66l13 52h197l-13 -52h-66l-162 -646h-97l-193 592h-7l-135 -540h66l-13 -52h-197zM495 752l-32 17l102 186l93 -48z" />
    <glyph glyph-name="nacute" unicode="&#x144;" horiz-adv-x="594" 
d="M140 440h-86l12 48l203 44l-45 -181l10 -4q21 37 41.5 70.5t44.5 59t52 40.5t64 15q48 0 70 -26.5t22 -69.5q0 -32 -10 -66l-84 -303l18 -8l101 115l31 -22l-62 -83q-35 -46 -64 -63.5t-59 -17.5q-43 0 -60.5 22.5t-17.5 49.5q0 12 2.5 26t5.5 25l81 292q3 12 3 22
q0 26 -25 26q-23 0 -52.5 -24.5t-58.5 -66.5t-55 -99t-42 -123l-35 -138h-115zM360 582l-32 17l102 186l93 -48z" />
    <glyph glyph-name="Ncommaaccent" unicode="&#x145;" horiz-adv-x="713" 
d="M-13 52h66l148 594h-66l13 52h204l167 -529h8l120 477h-66l13 52h197l-13 -52h-66l-162 -646h-97l-193 592h-7l-135 -540h66l-13 -52h-197zM179 -261q23 20 43.5 45.5t31.5 48.5q-41 9 -41 44q0 8 3 20q6 25 24 38t43 13t38 -13t13 -34q0 -9 -3 -22q-11 -38 -38 -74.5
t-62 -65.5h-52v0z" />
    <glyph glyph-name="ncommaaccent" unicode="&#x146;" horiz-adv-x="594" 
d="M140 440h-86l12 48l203 44l-45 -181l10 -4q21 37 41.5 70.5t44.5 59t52 40.5t64 15q48 0 70 -26.5t22 -69.5q0 -32 -10 -66l-84 -303l18 -8l101 115l31 -22l-62 -83q-35 -46 -64 -63.5t-59 -17.5q-43 0 -60.5 22.5t-17.5 49.5q0 12 2.5 26t5.5 25l81 292q3 12 3 22
q0 26 -25 26q-23 0 -52.5 -24.5t-58.5 -66.5t-55 -99t-42 -123l-35 -138h-115zM113 -261q23 20 43.5 45.5t31.5 48.5q-41 9 -41 44q0 8 3 20q6 25 24 38t43 13t38 -13t13 -34q0 -9 -3 -22q-11 -38 -38 -74.5t-62 -65.5h-52v0z" />
    <glyph glyph-name="Ncaron" unicode="&#x147;" horiz-adv-x="713" 
d="M-13 52h66l148 594h-66l13 52h204l167 -529h8l120 477h-66l13 52h197l-13 -52h-66l-162 -646h-97l-193 592h-7l-135 -540h66l-13 -52h-197zM463 760l-78 172l31 17l97 -101l148 101l28 -21l-153 -168h-73z" />
    <glyph glyph-name="ncaron" unicode="&#x148;" horiz-adv-x="594" 
d="M140 440h-86l12 48l203 44l-45 -181l10 -4q21 37 41.5 70.5t44.5 59t52 40.5t64 15q48 0 70 -26.5t22 -69.5q0 -32 -10 -66l-84 -303l18 -8l101 115l31 -22l-62 -83q-35 -46 -64 -63.5t-59 -17.5q-43 0 -60.5 22.5t-17.5 49.5q0 12 2.5 26t5.5 25l81 292q3 12 3 22
q0 26 -25 26q-23 0 -52.5 -24.5t-58.5 -66.5t-55 -99t-42 -123l-35 -138h-115zM332 594l-78 172l31 17l97 -101l148 101l28 -21l-153 -168h-73z" />
    <glyph glyph-name="napostrophe" unicode="&#x149;" horiz-adv-x="875" 
d="M97 466q39 30 67 61t47 63q-26 4 -41.5 20.5t-15.5 38.5q0 14 3 25q8 30 31 48t55 18q33 0 51 -20.5t18 -46.5q0 -6 -1 -13t-3 -15q-6 -25 -21.5 -50.5t-35.5 -49t-42.5 -44t-44.5 -35.5h-67v0zM421 440h-86l12 48l203 44l-45 -181l10 -4q21 37 41.5 70.5t44.5 59
t52 40.5t64 15q48 0 70 -26.5t22 -69.5q0 -32 -10 -66l-84 -303l18 -8l101 115l31 -22l-62 -83q-35 -46 -64 -63.5t-59 -17.5q-43 0 -60.5 22.5t-17.5 49.5q0 12 2.5 26t5.5 25l81 292q3 12 3 22q0 26 -25 26q-23 0 -52.5 -24.5t-58.5 -66.5t-55 -99t-42 -123l-35 -138h-115
z" />
    <glyph glyph-name="Eng" unicode="&#x14a;" horiz-adv-x="710" 
d="M542 -36q-21 -84 -59.5 -130t-112.5 -46q-48 0 -71.5 20t-23.5 51q0 27 17 47t46 20q26 0 41 -14.5t15 -37.5q0 -12 -6 -24t-20 -22l6 -8q65 3 90 110l17 70h-28l-193 592h-7l-135 -540h66l-13 -52h-197l13 52h66l148 594h-66l13 52h204l167 -529h8l120 477h-66l13 52
h197l-13 -52h-66z" />
    <glyph glyph-name="eng" unicode="&#x14b;" horiz-adv-x="570" 
d="M140 440h-86l12 48l203 44l-45 -181l10 -4q21 37 41.5 70.5t44.5 59t52 40.5t64 15q48 0 70 -26.5t22 -69.5q0 -32 -10 -66l-111 -408q-23 -83 -76 -128.5t-127 -45.5q-54 0 -78.5 19.5t-24.5 51.5q0 26 17 46.5t48 20.5q25 0 40 -15t15 -38q0 -12 -7 -26t-23 -24l6 -8
q32 2 52 30.5t35 84.5l126 473q3 13 3 21q0 27 -25 27q-23 0 -52.5 -24.5t-58.5 -66.5t-55 -99t-42 -123l-35 -138h-115z" />
    <glyph glyph-name="Omacron" unicode="&#x14c;" horiz-adv-x="695" 
d="M301 47q40 0 73 16t58.5 44.5t44 67t29.5 82.5q15 61 25 102t16 69.5t8.5 48.5t2.5 41q0 28 -7 52.5t-22.5 42.5t-39.5 28t-57 10q-40 0 -73 -16t-58.5 -44.5t-44 -67t-29.5 -82.5q-15 -62 -25 -102.5t-16 -69t-8.5 -49t-2.5 -40.5q0 -28 7 -52.5t22.5 -42.5t39.5 -28
t57 -10zM289 -12q-56 0 -100 17.5t-74 50.5t-45.5 80t-15.5 105q0 43 10 95t31 104t53 100.5t75 86.5t98 60.5t123 22.5q56 0 100 -17.5t74 -50.5t45.5 -80t15.5 -105q0 -43 -10 -95t-31 -104t-52.5 -100.5t-75 -86.5t-98.5 -60.5t-123 -22.5zM346 875h273l-17 -69h-273z
" />
    <glyph glyph-name="omacron" unicode="&#x14d;" horiz-adv-x="527" 
d="M204 -12q-85 0 -127 51t-42 138q0 57 19 120t55.5 115t90.5 86t123 34q85 0 127 -51t42 -138q0 -57 -19 -120t-55.5 -115t-90.5 -86t-123 -34zM209 38q49 0 79 40.5t46 102.5q15 58 24.5 96.5t15 62.5t7.5 38t2 25q0 34 -15 56.5t-50 22.5q-25 0 -44.5 -11t-35 -30
t-26.5 -45t-19 -57q-15 -59 -24.5 -97t-15 -62t-7.5 -38.5t-2 -24.5q0 -34 15 -56.5t50 -22.5zM230 707h273l-17 -69h-273z" />
    <glyph glyph-name="Obreve" unicode="&#x14e;" horiz-adv-x="695" 
d="M301 47q40 0 73 16t58.5 44.5t44 67t29.5 82.5q15 61 25 102t16 69.5t8.5 48.5t2.5 41q0 28 -7 52.5t-22.5 42.5t-39.5 28t-57 10q-40 0 -73 -16t-58.5 -44.5t-44 -67t-29.5 -82.5q-15 -62 -25 -102.5t-16 -69t-8.5 -49t-2.5 -40.5q0 -28 7 -52.5t22.5 -42.5t39.5 -28
t57 -10zM289 -12q-56 0 -100 17.5t-74 50.5t-45.5 80t-15.5 105q0 43 10 95t31 104t53 100.5t75 86.5t98 60.5t123 22.5q56 0 100 -17.5t74 -50.5t45.5 -80t15.5 -105q0 -43 -10 -95t-31 -104t-52.5 -100.5t-75 -86.5t-98.5 -60.5t-123 -22.5zM458 759q-37 0 -59.5 14.5
t-35 37t-18 50.5t-8.5 56l34 14l12 -37q8 -28 29 -40t60 -12t64.5 11.5t46.5 40.5l28 37l31 -17q-14 -27 -31 -54.5t-38.5 -50t-49.5 -36.5t-65 -14z" />
    <glyph glyph-name="obreve" unicode="&#x14f;" horiz-adv-x="527" 
d="M204 -12q-85 0 -127 51t-42 138q0 57 19 120t55.5 115t90.5 86t123 34q85 0 127 -51t42 -138q0 -57 -19 -120t-55.5 -115t-90.5 -86t-123 -34zM209 38q49 0 79 40.5t46 102.5q15 58 24.5 96.5t15 62.5t7.5 38t2 25q0 34 -15 56.5t-50 22.5q-25 0 -44.5 -11t-35 -30
t-26.5 -45t-19 -57q-15 -59 -24.5 -97t-15 -62t-7.5 -38.5t-2 -24.5q0 -34 15 -56.5t50 -22.5zM342 593q-37 0 -59.5 14.5t-35 37t-18 50.5t-8.5 56l34 14l12 -37q8 -28 29 -40t60 -12t64.5 11.5t46.5 40.5l28 37l31 -17q-14 -27 -31 -54.5t-38.5 -50t-49.5 -36.5t-65 -14z
" />
    <glyph glyph-name="Ohungarumlaut" unicode="&#x150;" horiz-adv-x="695" 
d="M301 47q40 0 73 16t58.5 44.5t44 67t29.5 82.5q15 61 25 102t16 69.5t8.5 48.5t2.5 41q0 28 -7 52.5t-22.5 42.5t-39.5 28t-57 10q-40 0 -73 -16t-58.5 -44.5t-44 -67t-29.5 -82.5q-15 -62 -25 -102.5t-16 -69t-8.5 -49t-2.5 -40.5q0 -28 7 -52.5t22.5 -42.5t39.5 -28
t57 -10zM289 -12q-56 0 -100 17.5t-74 50.5t-45.5 80t-15.5 105q0 43 10 95t31 104t53 100.5t75 86.5t98 60.5t123 22.5q56 0 100 -17.5t74 -50.5t45.5 -80t15.5 -105q0 -43 -10 -95t-31 -104t-52.5 -100.5t-75 -86.5t-98.5 -60.5t-123 -22.5zM366 752l-31 16l106 185
l86 -46zM530 752l-31 16l106 185l86 -46z" />
    <glyph glyph-name="ohungarumlaut" unicode="&#x151;" horiz-adv-x="527" 
d="M204 -12q-85 0 -127 51t-42 138q0 57 19 120t55.5 115t90.5 86t123 34q85 0 127 -51t42 -138q0 -57 -19 -120t-55.5 -115t-90.5 -86t-123 -34zM209 38q49 0 79 40.5t46 102.5q15 58 24.5 96.5t15 62.5t7.5 38t2 25q0 34 -15 56.5t-50 22.5q-25 0 -44.5 -11t-35 -30
t-26.5 -45t-19 -57q-15 -59 -24.5 -97t-15 -62t-7.5 -38.5t-2 -24.5q0 -34 15 -56.5t50 -22.5zM250 585l-31 16l106 185l86 -46zM414 585l-31 16l106 185l86 -46z" />
    <glyph glyph-name="OE" unicode="&#x152;" horiz-adv-x="962" 
d="M288 -12q-56 0 -99.5 17.5t-73.5 50.5t-45.5 80t-15.5 105q0 43 10 95t30 104t51.5 100.5t74.5 86.5t97.5 60.5t122.5 22.5q50 0 89 -12h483l-44 -178h-92l31 122h-223l-62 -252h149l19 73h62l-51 -202h-63l19 73h-150l-69 -278h231l34 136h92l-48 -192h-466
q-45 -12 -93 -12zM297 47q35 0 68.5 12t57.5 31l128 514q-15 20 -47 33.5t-72 13.5t-72.5 -16t-58.5 -44.5t-44.5 -66.5t-29.5 -83q-15 -61 -25 -101t-16 -68.5t-8.5 -48.5t-2.5 -40q0 -60 29 -98t93 -38z" />
    <glyph glyph-name="oe" unicode="&#x153;" horiz-adv-x="768" 
d="M202 -12q-84 0 -125.5 51t-41.5 138q0 57 18.5 120t54 115t88.5 86t122 34q45 0 81.5 -20.5t49.5 -62.5h9q29 40 72.5 61.5t94.5 21.5q26 0 51 -5.5t44.5 -17.5t31.5 -32t12 -49q0 -26 -13 -54t-46 -51.5t-89 -41t-142 -22.5q-2 -11 -5 -26t-5.5 -31t-4 -32t-1.5 -29
q0 -43 18 -63t50 -20q45 0 84.5 38.5t75.5 104.5l36 -17q-23 -47 -47 -83.5t-52 -61.5t-61.5 -38t-73.5 -13q-45 0 -78 21t-44 62h-9q-30 -42 -71 -62.5t-84 -20.5zM483 296q92 11 136 44.5t44 89.5q0 24 -12 39t-39 15q-20 0 -37 -8.5t-33 -29.5t-30.5 -57.5t-28.5 -92.5z
M208 38q48 0 77 40.5t44 102.5q15 58 24.5 96.5t15.5 62.5t8 38t2 25q0 34 -13.5 56.5t-48.5 22.5q-24 0 -43.5 -11t-34.5 -30t-26.5 -45t-18.5 -57q-15 -59 -24.5 -97t-15 -62t-7.5 -38.5t-2 -24.5q0 -34 14 -56.5t49 -22.5z" />
    <glyph glyph-name="Racute" unicode="&#x154;" horiz-adv-x="644" 
d="M-13 52h66l148 594h-66l13 52h326q74 0 118.5 -32t44.5 -99q0 -40 -11.5 -79t-35 -71t-60 -55.5t-85.5 -32.5l60 -216q9 -32 26 -46.5t49 -14.5h9l-13 -52h-71q-30 0 -51 4.5t-35.5 15.5t-23 29.5t-14.5 46.5l-50 224h-88l-67 -268h66l-12 -52h-256zM370 374
q48 0 81.5 30t46.5 81q1 7 4 18t6 23t5 24t2 20q0 32 -19 52t-58 20h-115l-67 -268h114zM411 752l-32 17l102 186l93 -48z" />
    <glyph glyph-name="racute" unicode="&#x155;" horiz-adv-x="464" 
d="M140 440h-86l12 48l200 44l-44 -177l10 -4q18 46 36 80t38 56.5t43.5 33.5t52.5 11q42 0 64 -21t22 -55q0 -32 -20 -56t-54 -24q-26 0 -42.5 14.5t-16.5 37.5q0 15 6.5 29.5t14.5 22.5l-7 6q-25 -5 -55.5 -45.5t-60.5 -106.5q-10 -20 -21 -46.5t-22 -57t-21.5 -63.5
t-17.5 -65l-26 -102h-115zM305 582l-32 17l102 186l93 -48z" />
    <glyph glyph-name="Rcommaaccent" unicode="&#x156;" horiz-adv-x="644" 
d="M-13 52h66l148 594h-66l13 52h326q74 0 118.5 -32t44.5 -99q0 -40 -11.5 -79t-35 -71t-60 -55.5t-85.5 -32.5l60 -216q9 -32 26 -46.5t49 -14.5h9l-13 -52h-71q-30 0 -51 4.5t-35.5 15.5t-23 29.5t-14.5 46.5l-50 224h-88l-67 -268h66l-12 -52h-256zM370 374
q48 0 81.5 30t46.5 81q1 7 4 18t6 23t5 24t2 20q0 32 -19 52t-58 20h-115l-67 -268h114zM178 -261q23 20 43.5 45.5t31.5 48.5q-41 9 -41 44q0 8 3 20q6 25 24 38t43 13t38 -13t13 -34q0 -9 -3 -22q-11 -38 -38 -74.5t-62 -65.5h-52v0z" />
    <glyph glyph-name="rcommaaccent" unicode="&#x157;" horiz-adv-x="464" 
d="M140 440h-86l12 48l200 44l-44 -177l10 -4q18 46 36 80t38 56.5t43.5 33.5t52.5 11q42 0 64 -21t22 -55q0 -32 -20 -56t-54 -24q-26 0 -42.5 14.5t-16.5 37.5q0 15 6.5 29.5t14.5 22.5l-7 6q-25 -5 -55.5 -45.5t-60.5 -106.5q-10 -20 -21 -46.5t-22 -57t-21.5 -63.5
t-17.5 -65l-26 -102h-115zM-33 -261q23 20 43.5 45.5t31.5 48.5q-41 9 -41 44q0 8 3 20q6 25 24 38t43 13t38 -13t13 -34q0 -9 -3 -22q-11 -38 -38 -74.5t-62 -65.5h-52v0z" />
    <glyph glyph-name="Rcaron" unicode="&#x158;" horiz-adv-x="644" 
d="M-13 52h66l148 594h-66l13 52h326q74 0 118.5 -32t44.5 -99q0 -40 -11.5 -79t-35 -71t-60 -55.5t-85.5 -32.5l60 -216q9 -32 26 -46.5t49 -14.5h9l-13 -52h-71q-30 0 -51 4.5t-35.5 15.5t-23 29.5t-14.5 46.5l-50 224h-88l-67 -268h66l-12 -52h-256zM370 374
q48 0 81.5 30t46.5 81q1 7 4 18t6 23t5 24t2 20q0 32 -19 52t-58 20h-115l-67 -268h114zM379 760l-78 172l31 17l97 -101l148 101l28 -21l-153 -168h-73z" />
    <glyph glyph-name="rcaron" unicode="&#x159;" horiz-adv-x="464" 
d="M140 440h-86l12 48l200 44l-44 -177l10 -4q18 46 36 80t38 56.5t43.5 33.5t52.5 11q42 0 64 -21t22 -55q0 -32 -20 -56t-54 -24q-26 0 -42.5 14.5t-16.5 37.5q0 15 6.5 29.5t14.5 22.5l-7 6q-25 -5 -55.5 -45.5t-60.5 -106.5q-10 -20 -21 -46.5t-22 -57t-21.5 -63.5
t-17.5 -65l-26 -102h-115zM277 594l-78 172l31 17l97 -101l148 101l28 -21l-153 -168h-73z" />
    <glyph glyph-name="Sacute" unicode="&#x15a;" horiz-adv-x="566" 
d="M226 48q39 0 71 11.5t54.5 31t34.5 46t12 56.5q0 39 -21.5 60.5t-69.5 38.5l-42 15q-75 26 -110 66.5t-35 106.5q0 49 19 91t53 73t81 48.5t104 17.5q55 0 86.5 -19.5t36.5 -48.5h8l14 56h92l-49 -199h-92l11 47q4 16 4 30q0 74 -110 74q-38 0 -67 -11t-48 -28.5
t-28.5 -40.5t-9.5 -47q0 -38 22 -61.5t78 -42.5l40 -14q76 -27 108.5 -66.5t32.5 -101.5q0 -51 -19.5 -96.5t-55.5 -79t-86 -53.5t-111 -20q-57 0 -91 20t-40 53h-9l-16 -61h-92l51 204h92l-11 -45q-2 -9 -3.5 -16t-1.5 -15q0 -37 27.5 -58.5t85.5 -21.5zM384 752l-32 17
l102 186l93 -48z" />
    <glyph glyph-name="sacute" unicode="&#x15b;" horiz-adv-x="400" 
d="M111 -12q-65 0 -92 21t-27 53q0 26 16.5 46.5t48.5 20.5q24 0 39 -14t15 -39q0 -13 -5 -27.5t-14 -23.5l5 -8q52 6 84.5 29.5t32.5 67.5q0 21 -7.5 38t-19.5 33t-27 32t-31 34q-20 23 -34.5 49t-14.5 62q0 40 16 72t44 53.5t65.5 33t79.5 11.5q63 0 89.5 -21.5
t26.5 -53.5q0 -25 -16.5 -45.5t-48.5 -20.5q-24 0 -39 14t-15 39q0 13 5 27.5t14 23.5l-5 8q-50 -6 -77 -30.5t-27 -66.5q0 -22 7.5 -39t19.5 -33t27 -31.5t31 -33.5q17 -20 32.5 -46.5t15.5 -64.5q0 -41 -17.5 -72.5t-47 -53t-68 -33t-81.5 -11.5zM288 582l-32 17l102 186
l93 -48z" />
    <glyph glyph-name="Scircumflex" unicode="&#x15c;" horiz-adv-x="566" 
d="M226 48q39 0 71 11.5t54.5 31t34.5 46t12 56.5q0 39 -21.5 60.5t-69.5 38.5l-42 15q-75 26 -110 66.5t-35 106.5q0 49 19 91t53 73t81 48.5t104 17.5q55 0 86.5 -19.5t36.5 -48.5h8l14 56h92l-49 -199h-92l11 47q4 16 4 30q0 74 -110 74q-38 0 -67 -11t-48 -28.5
t-28.5 -40.5t-9.5 -47q0 -38 22 -61.5t78 -42.5l40 -14q76 -27 108.5 -66.5t32.5 -101.5q0 -51 -19.5 -96.5t-55.5 -79t-86 -53.5t-111 -20q-57 0 -91 20t-40 53h-9l-16 -61h-92l51 204h92l-11 -45q-2 -9 -3.5 -16t-1.5 -15q0 -37 27.5 -58.5t85.5 -21.5zM467 945l78 -172
l-31 -17l-97 101l-148 -101l-28 21l153 168h73z" />
    <glyph glyph-name="scircumflex" unicode="&#x15d;" horiz-adv-x="400" 
d="M111 -12q-65 0 -92 21t-27 53q0 26 16.5 46.5t48.5 20.5q24 0 39 -14t15 -39q0 -13 -5 -27.5t-14 -23.5l5 -8q52 6 84.5 29.5t32.5 67.5q0 21 -7.5 38t-19.5 33t-27 32t-31 34q-20 23 -34.5 49t-14.5 62q0 40 16 72t44 53.5t65.5 33t79.5 11.5q63 0 89.5 -21.5
t26.5 -53.5q0 -25 -16.5 -45.5t-48.5 -20.5q-24 0 -39 14t-15 39q0 13 5 27.5t14 23.5l-5 8q-50 -6 -77 -30.5t-27 -66.5q0 -22 7.5 -39t19.5 -33t27 -31.5t31 -33.5q17 -20 32.5 -46.5t15.5 -64.5q0 -41 -17.5 -72.5t-47 -53t-68 -33t-81.5 -11.5zM371 779l78 -172l-31 -17
l-97 101l-148 -101l-28 21l153 168h73z" />
    <glyph glyph-name="Scedilla" unicode="&#x15e;" horiz-adv-x="566" 
d="M203 -209q-38 0 -60 14t-31 31l26 26q19 -26 56 -26q17 0 27.5 5.5t16.5 13.5t8 16.5t2 14.5q0 12 -9 21.5t-37 13.5l-24 3l28 65q-44 5 -71 24t-32 48h-9l-16 -61h-92l51 204h92l-11 -45q-2 -9 -3.5 -16t-1.5 -15q0 -37 27.5 -58.5t85.5 -21.5q39 0 71 11.5t54.5 31
t34.5 46t12 56.5q0 39 -21.5 60.5t-69.5 38.5l-42 15q-75 26 -110 66.5t-35 106.5q0 49 19 91t53 73t81 48.5t104 17.5q55 0 86.5 -19.5t36.5 -48.5h8l14 56h92l-49 -199h-92l11 47q4 16 4 30q0 74 -110 74q-38 0 -67 -11t-48 -28.5t-28.5 -40.5t-9.5 -47q0 -38 22 -61.5
t78 -42.5l40 -14q76 -27 108.5 -66.5t32.5 -101.5q0 -49 -18.5 -93t-51.5 -77.5t-80 -54t-104 -23.5l-21 -48l2 -3q21 6 37 6q26 0 42.5 -13t16.5 -39q0 -24 -10.5 -42.5t-28.5 -31.5t-40.5 -20t-46.5 -7z" />
    <glyph glyph-name="scedilla" unicode="&#x15f;" horiz-adv-x="400" 
d="M90 -209q-37 0 -59 14t-32 31l27 26q18 -26 56 -26q17 0 27.5 5.5t16.5 13.5t8 16.5t2 14.5q0 12 -9 21.5t-38 13.5l-24 3l28 65q-54 3 -77.5 23t-23.5 50q0 26 16.5 46.5t48.5 20.5q24 0 39 -14t15 -39q0 -13 -5 -27.5t-14 -23.5l5 -8q52 6 84.5 29.5t32.5 67.5
q0 21 -7.5 38t-19.5 33t-27 32t-31 34q-20 23 -34.5 49t-14.5 62q0 40 16 72t44 53.5t65.5 33t79.5 11.5q63 0 89.5 -21.5t26.5 -53.5q0 -25 -16.5 -45.5t-48.5 -20.5q-24 0 -39 14t-15 39q0 13 5 27.5t14 23.5l-5 8q-50 -6 -77 -30.5t-27 -66.5q0 -22 7.5 -39t19.5 -33
t27 -31.5t31 -33.5q17 -20 32.5 -46.5t15.5 -64.5q0 -37 -14.5 -66.5t-40 -51t-59 -34.5t-72.5 -17l-21 -48l3 -3q19 6 37 6q26 0 42 -13t16 -39q0 -24 -10.5 -42.5t-28.5 -31.5t-40.5 -20t-46.5 -7z" />
    <glyph glyph-name="Scaron" unicode="&#x160;" horiz-adv-x="566" 
d="M226 48q39 0 71 11.5t54.5 31t34.5 46t12 56.5q0 39 -21.5 60.5t-69.5 38.5l-42 15q-75 26 -110 66.5t-35 106.5q0 49 19 91t53 73t81 48.5t104 17.5q55 0 86.5 -19.5t36.5 -48.5h8l14 56h92l-49 -199h-92l11 47q4 16 4 30q0 74 -110 74q-38 0 -67 -11t-48 -28.5
t-28.5 -40.5t-9.5 -47q0 -38 22 -61.5t78 -42.5l40 -14q76 -27 108.5 -66.5t32.5 -101.5q0 -51 -19.5 -96.5t-55.5 -79t-86 -53.5t-111 -20q-57 0 -91 20t-40 53h-9l-16 -61h-92l51 204h92l-11 -45q-2 -9 -3.5 -16t-1.5 -15q0 -37 27.5 -58.5t85.5 -21.5zM352 760l-78 172
l31 17l97 -101l148 101l28 -21l-153 -168h-73z" />
    <glyph glyph-name="scaron" unicode="&#x161;" horiz-adv-x="400" 
d="M111 -12q-65 0 -92 21t-27 53q0 26 16.5 46.5t48.5 20.5q24 0 39 -14t15 -39q0 -13 -5 -27.5t-14 -23.5l5 -8q52 6 84.5 29.5t32.5 67.5q0 21 -7.5 38t-19.5 33t-27 32t-31 34q-20 23 -34.5 49t-14.5 62q0 40 16 72t44 53.5t65.5 33t79.5 11.5q63 0 89.5 -21.5
t26.5 -53.5q0 -25 -16.5 -45.5t-48.5 -20.5q-24 0 -39 14t-15 39q0 13 5 27.5t14 23.5l-5 8q-50 -6 -77 -30.5t-27 -66.5q0 -22 7.5 -39t19.5 -33t27 -31.5t31 -33.5q17 -20 32.5 -46.5t15.5 -64.5q0 -41 -17.5 -72.5t-47 -53t-68 -33t-81.5 -11.5zM260 594l-78 172l31 17
l97 -101l148 101l28 -21l-153 -168h-73z" />
    <glyph glyph-name="Tcommaaccent" unicode="&#x162;" horiz-adv-x="639" 
d="M116 52h90l147 590h-138l-31 -122h-92l44 178h584l-44 -178h-92l31 122h-138l-148 -590h90l-13 -52h-303zM132 -261q23 20 43.5 45.5t31.5 48.5q-41 9 -41 44q0 8 3 20q6 25 24 38t43 13t38 -13t13 -34q0 -9 -3 -22q-11 -38 -38 -74.5t-62 -65.5h-52v0z" />
    <glyph glyph-name="tcommaaccent" unicode="&#x163;" horiz-adv-x="373" 
d="M78 520h41q33 0 49 11t32 37l55 90h61l-35 -138h121l-13 -56h-122l-97 -393l17 -11l129 109l28 -27l-92 -88q-21 -21 -37.5 -34t-30 -20t-26 -9.5t-25.5 -2.5q-21 0 -36 6t-24 16t-13 23t-4 26t3 27.5t5 24.5l88 353h-88zM20 -261q23 20 43.5 45.5t31.5 48.5
q-41 9 -41 44q0 8 3 20q6 25 24 38t43 13t38 -13t13 -34q0 -9 -3 -22q-11 -38 -38 -74.5t-62 -65.5h-52v0z" />
    <glyph glyph-name="Tcaron" unicode="&#x164;" horiz-adv-x="639" 
d="M116 52h90l147 590h-138l-31 -122h-92l44 178h584l-44 -178h-92l31 122h-138l-148 -590h90l-13 -52h-303zM407 760l-78 172l31 17l97 -101l148 101l28 -21l-153 -168h-73z" />
    <glyph glyph-name="tcaron" unicode="&#x165;" horiz-adv-x="373" 
d="M78 520h41q33 0 49 11t32 37l55 90h61l-35 -138h121l-13 -56h-122l-97 -393l17 -11l129 109l28 -27l-92 -88q-21 -21 -37.5 -34t-30 -20t-26 -9.5t-25.5 -2.5q-21 0 -36 6t-24 16t-13 23t-4 26t3 27.5t5 24.5l88 353h-88zM390 567h-37l56 199h107z" />
    <glyph glyph-name="Tbar" unicode="&#x166;" horiz-adv-x="638" 
d="M115 52h90l69 275h-124l14 55h124l64 260h-138l-30 -122h-92l45 178h583l-44 -178h-92l30 122h-138l-65 -260h123l-14 -55h-123l-69 -275h90l-12 -52h-303z" />
    <glyph glyph-name="tbar" unicode="&#x167;" horiz-adv-x="374" 
d="M64 310h50l39 154h-88l14 56h41q33 0 49 11t32 37l55 90h61l-35 -138h121l-13 -56h-122l-38 -154h86l-13 -52h-86l-46 -187l17 -11l129 109l28 -27l-92 -88q-21 -21 -37.5 -34t-30 -20t-26 -9.5t-25.5 -2.5q-21 0 -36 6t-24 16t-13 23t-4 26t3 27.5t5 24.5l36 147h-50z
" />
    <glyph glyph-name="Utilde" unicode="&#x168;" horiz-adv-x="689" 
d="M318 646l-99 -401q-14 -54 -14 -93q0 -51 27.5 -76t87.5 -25q83 0 131.5 50t74.5 155l97 390h-66l13 52h198l-14 -52h-66l-98 -395q-17 -69 -42.5 -118.5t-60.5 -82t-80.5 -47.5t-103.5 -15q-51 0 -91.5 9.5t-68 30.5t-42.5 54t-15 80t18 115l91 369h-66l13 52h255
l-13 -52h-66zM578 776q-23 0 -42 8t-39 19q-23 12 -39 20.5t-32 8.5q-13 0 -25 -6.5t-31 -25.5l-25 24q24 32 47.5 56t57.5 24q23 0 42 -8t39 -19q23 -12 39 -20.5t32 -8.5q13 0 25 6.5t31 25.5l25 -24q-24 -32 -47.5 -56t-57.5 -24z" />
    <glyph glyph-name="utilde" unicode="&#x169;" horiz-adv-x="592" 
d="M143 -12q-48 0 -70 27t-22 69q0 32 10 66l81 290h-86l12 48l216 44l-115 -415q-3 -12 -3 -22q0 -26 25 -26q23 0 52 24.5t58.5 66.5t55 99t42.5 122l35 139h115l-114 -453l18 -8l101 115l31 -22l-62 -83q-18 -25 -34.5 -40.5t-31 -24.5t-27.5 -12.5t-26 -3.5
q-41 0 -56.5 22t-15.5 48q0 13 3.5 29t5.5 26l14 56l-10 4q-21 -38 -41.5 -71.5t-44.5 -58.5t-52.5 -40t-63.5 -15zM450 610q-23 0 -42 8t-39 19q-23 12 -39 20.5t-32 8.5q-13 0 -25 -6.5t-31 -25.5l-25 24q24 32 47.5 56t57.5 24q23 0 42 -8t39 -19q23 -12 39 -20.5
t32 -8.5q13 0 25 6.5t31 25.5l25 -24q-24 -32 -47.5 -56t-57.5 -24z" />
    <glyph glyph-name="Umacron" unicode="&#x16a;" horiz-adv-x="689" 
d="M318 646l-99 -401q-14 -54 -14 -93q0 -51 27.5 -76t87.5 -25q83 0 131.5 50t74.5 155l97 390h-66l13 52h198l-14 -52h-66l-98 -395q-17 -69 -42.5 -118.5t-60.5 -82t-80.5 -47.5t-103.5 -15q-51 0 -91.5 9.5t-68 30.5t-42.5 54t-15 80t18 115l91 369h-66l13 52h255
l-13 -52h-66zM389 875h273l-17 -69h-273z" />
    <glyph glyph-name="umacron" unicode="&#x16b;" horiz-adv-x="592" 
d="M143 -12q-48 0 -70 27t-22 69q0 32 10 66l81 290h-86l12 48l216 44l-115 -415q-3 -12 -3 -22q0 -26 25 -26q23 0 52 24.5t58.5 66.5t55 99t42.5 122l35 139h115l-114 -453l18 -8l101 115l31 -22l-62 -83q-18 -25 -34.5 -40.5t-31 -24.5t-27.5 -12.5t-26 -3.5
q-41 0 -56.5 22t-15.5 48q0 13 3.5 29t5.5 26l14 56l-10 4q-21 -38 -41.5 -71.5t-44.5 -58.5t-52.5 -40t-63.5 -15zM263 707h273l-17 -69h-273z" />
    <glyph glyph-name="Ubreve" unicode="&#x16c;" horiz-adv-x="689" 
d="M318 646l-99 -401q-14 -54 -14 -93q0 -51 27.5 -76t87.5 -25q83 0 131.5 50t74.5 155l97 390h-66l13 52h198l-14 -52h-66l-98 -395q-17 -69 -42.5 -118.5t-60.5 -82t-80.5 -47.5t-103.5 -15q-51 0 -91.5 9.5t-68 30.5t-42.5 54t-15 80t18 115l91 369h-66l13 52h255
l-13 -52h-66zM501 759q-37 0 -59.5 14.5t-35 37t-18 50.5t-8.5 56l34 14l12 -37q8 -28 29 -40t60 -12t64.5 11.5t46.5 40.5l28 37l31 -17q-14 -27 -31 -54.5t-38.5 -50t-49.5 -36.5t-65 -14z" />
    <glyph glyph-name="ubreve" unicode="&#x16d;" horiz-adv-x="592" 
d="M143 -12q-48 0 -70 27t-22 69q0 32 10 66l81 290h-86l12 48l216 44l-115 -415q-3 -12 -3 -22q0 -26 25 -26q23 0 52 24.5t58.5 66.5t55 99t42.5 122l35 139h115l-114 -453l18 -8l101 115l31 -22l-62 -83q-18 -25 -34.5 -40.5t-31 -24.5t-27.5 -12.5t-26 -3.5
q-41 0 -56.5 22t-15.5 48q0 13 3.5 29t5.5 26l14 56l-10 4q-21 -38 -41.5 -71.5t-44.5 -58.5t-52.5 -40t-63.5 -15zM375 593q-37 0 -59.5 14.5t-35 37t-18 50.5t-8.5 56l34 14l12 -37q8 -28 29 -40t60 -12t64.5 11.5t46.5 40.5l28 37l31 -17q-14 -27 -31 -54.5t-38.5 -50
t-49.5 -36.5t-65 -14z" />
    <glyph glyph-name="Uring" unicode="&#x16e;" horiz-adv-x="689" 
d="M318 646l-99 -401q-14 -54 -14 -93q0 -51 27.5 -76t87.5 -25q83 0 131.5 50t74.5 155l97 390h-66l13 52h198l-14 -52h-66l-98 -395q-17 -69 -42.5 -118.5t-60.5 -82t-80.5 -47.5t-103.5 -15q-51 0 -91.5 9.5t-68 30.5t-42.5 54t-15 80t18 115l91 369h-66l13 52h255
l-13 -52h-66zM500 734q-26 0 -45.5 8t-33 21.5t-20.5 31t-7 36.5q0 34 11 63t30.5 50t46 33t57.5 12q25 0 45 -8t33.5 -21.5t20.5 -31t7 -36.5q0 -34 -11 -63t-30.5 -50t-46 -33t-57.5 -12zM503 776q48 0 62 56q5 23 9.5 44.5t4.5 30.5q0 17 -10 28.5t-33 11.5
q-48 0 -62 -56q-5 -23 -9.5 -44.5t-4.5 -30.5q0 -17 10 -28.5t33 -11.5z" />
    <glyph glyph-name="uring" unicode="&#x16f;" horiz-adv-x="592" 
d="M143 -12q-48 0 -70 27t-22 69q0 32 10 66l81 290h-86l12 48l216 44l-115 -415q-3 -12 -3 -22q0 -26 25 -26q23 0 52 24.5t58.5 66.5t55 99t42.5 122l35 139h115l-114 -453l18 -8l101 115l31 -22l-62 -83q-18 -25 -34.5 -40.5t-31 -24.5t-27.5 -12.5t-26 -3.5
q-41 0 -56.5 22t-15.5 48q0 13 3.5 29t5.5 26l14 56l-10 4q-21 -38 -41.5 -71.5t-44.5 -58.5t-52.5 -40t-63.5 -15zM377 568q-26 0 -45.5 8t-33 21.5t-20.5 31t-7 36.5q0 34 11 63t30.5 50t46 33t57.5 12q25 0 45 -8t33.5 -21.5t20.5 -31t7 -36.5q0 -34 -11 -63t-30.5 -50
t-46 -33t-57.5 -12zM380 610q48 0 62 56q5 23 9.5 44.5t4.5 30.5q0 17 -10 28.5t-33 11.5q-48 0 -62 -56q-5 -23 -9.5 -44.5t-4.5 -30.5q0 -17 10 -28.5t33 -11.5z" />
    <glyph glyph-name="Uhungarumlaut" unicode="&#x170;" horiz-adv-x="689" 
d="M318 646l-99 -401q-14 -54 -14 -93q0 -51 27.5 -76t87.5 -25q83 0 131.5 50t74.5 155l97 390h-66l13 52h198l-14 -52h-66l-98 -395q-17 -69 -42.5 -118.5t-60.5 -82t-80.5 -47.5t-103.5 -15q-51 0 -91.5 9.5t-68 30.5t-42.5 54t-15 80t18 115l91 369h-66l13 52h255
l-13 -52h-66zM409 752l-31 16l106 185l86 -46zM573 752l-31 16l106 185l86 -46z" />
    <glyph glyph-name="uhungarumlaut" unicode="&#x171;" horiz-adv-x="592" 
d="M143 -12q-48 0 -70 27t-22 69q0 32 10 66l81 290h-86l12 48l216 44l-115 -415q-3 -12 -3 -22q0 -26 25 -26q23 0 52 24.5t58.5 66.5t55 99t42.5 122l35 139h115l-114 -453l18 -8l101 115l31 -22l-62 -83q-18 -25 -34.5 -40.5t-31 -24.5t-27.5 -12.5t-26 -3.5
q-41 0 -56.5 22t-15.5 48q0 13 3.5 29t5.5 26l14 56l-10 4q-21 -38 -41.5 -71.5t-44.5 -58.5t-52.5 -40t-63.5 -15zM283 585l-31 16l106 185l86 -46zM447 585l-31 16l106 185l86 -46z" />
    <glyph glyph-name="Uogonek" unicode="&#x172;" horiz-adv-x="689" 
d="M292 -209q-35 0 -57 16.5t-22 49.5q0 22 10.5 41.5t28 35.5t40.5 29t48 23l-1 5q-17 -3 -36 -3q-51 0 -91.5 9.5t-68 30.5t-42.5 54t-15 80t18 115l91 369h-66l13 52h255l-13 -52h-66l-99 -401q-14 -54 -14 -93q0 -51 27.5 -76t87.5 -25q83 0 131.5 50t74.5 155l97 390
h-66l13 52h198l-14 -52h-66l-98 -395q-20 -77 -45 -122.5t-53 -72.5q-20 -20 -39.5 -32t-40 -22.5t-41 -23.5t-42.5 -34q-12 -12 -24.5 -32.5t-12.5 -38.5q0 -30 27 -30q14 0 25.5 7.5t25.5 18.5l27 -29q-20 -20 -45.5 -34.5t-59.5 -14.5z" />
    <glyph glyph-name="uogonek" unicode="&#x173;" horiz-adv-x="592" 
d="M388 -209q-34 0 -56 17.5t-22 50.5q0 24 10.5 43.5t27 35t37.5 28t41 22.5v5q-17 -5 -28 -5q-38 0 -52 22t-14 48q0 13 3.5 29t5.5 26l14 56l-10 4q-20 -37 -41 -70.5t-45 -59t-52.5 -40.5t-63.5 -15q-48 0 -70 27t-22 69q0 32 10 66l81 290h-87l12 48l217 44l-115 -415
q-3 -12 -3 -22q0 -26 25 -26q23 0 52.5 24.5t58.5 66.5t54.5 99t42.5 122l35 139h115l-114 -453l18 -8l101 115l32 -22l-88 -107q-13 -17 -31.5 -39t-36 -45t-29.5 -45.5t-12 -40.5q0 -32 27 -32q14 0 25.5 7.5t25.5 18.5l27 -29q-20 -20 -45.5 -34.5t-60.5 -14.5z" />
    <glyph glyph-name="Wcircumflex" unicode="&#x174;" horiz-adv-x="929" 
d="M160 646h-50l14 52h241l-13 -52h-71l-17 -504h7l274 556h107l-4 -556h7l235 504h-71l13 52h195l-13 -52h-50l-315 -646h-110l4 548h-7l-273 -548h-115zM693 945l78 -172l-31 -17l-97 101l-148 -101l-28 21l153 168h73z" />
    <glyph glyph-name="wcircumflex" unicode="&#x175;" horiz-adv-x="748" 
d="M399 369l-198 -369h-94l-5 469h-41l13 51h215l-12 -51h-58l-12 -344h9l209 399h85l-6 -399h9l176 344h-59l12 51h166l-12 -51h-39l-264 -469h-88l3 369h-9zM560 779l78 -172l-31 -17l-97 101l-148 -101l-28 21l153 168h73z" />
    <glyph glyph-name="Ycircumflex" unicode="&#x176;" horiz-adv-x="619" 
d="M117 52h80l57 230l-95 364h-50l13 52h248l-13 -52h-71l68 -288h7l211 288h-71l13 52h200l-13 -52h-50l-271 -351l-61 -243h80l-12 -52h-283zM535 945l78 -172l-31 -17l-97 101l-148 -101l-28 21l153 168h73z" />
    <glyph glyph-name="ycircumflex" unicode="&#x177;" horiz-adv-x="482" 
d="M0 -212q-42 0 -67.5 19.5t-25.5 51.5q0 29 19 51t51 22q26 0 40.5 -14t14.5 -37q0 -14 -5.5 -28t-14.5 -22l7 -6q33 17 61.5 50t59.5 93l-52 501h-42l12 51h218l-13 -51h-56l22 -346h9l192 346h-55l13 51h162l-13 -51h-39l-320 -534q-25 -41 -48.5 -69.5t-46 -45.5
t-43.5 -24.5t-40 -7.5zM424 779l78 -172l-31 -17l-97 101l-148 -101l-28 21l153 168h73z" />
    <glyph glyph-name="Ydieresis" unicode="&#x178;" horiz-adv-x="619" 
d="M117 52h80l57 230l-95 364h-50l13 52h248l-13 -52h-71l68 -288h7l211 288h-71l13 52h200l-13 -52h-50l-271 -351l-61 -243h80l-12 -52h-283zM370 779q-27 0 -41 16t-14 35q0 8 3 20q5 21 22.5 35.5t43.5 14.5q27 0 40.5 -16t13.5 -35v-9.5t-2 -10.5q-5 -21 -22.5 -35.5
t-43.5 -14.5zM562 779q-27 0 -40.5 16t-13.5 35v9.5t2 10.5q5 21 22.5 35.5t43.5 14.5q27 0 41 -16t14 -35q0 -8 -3 -20q-5 -21 -22.5 -35.5t-43.5 -14.5z" />
    <glyph glyph-name="Zacute" unicode="&#x179;" horiz-adv-x="584" 
d="M-11 56l499 586h-250l-30 -122h-92l44 178h481l-14 -56l-498 -586h270l34 136h92l-48 -192h-502zM403 752l-32 17l102 186l93 -48z" />
    <glyph glyph-name="zacute" unicode="&#x17a;" horiz-adv-x="472" 
d="M-9 35q3 12 6.5 20t8 15.5t11 15t15.5 16.5l298 293l-188 34l-18 -11l-33 -97l-37 6l32 135q10 40 30 55t59 15q22 0 43 -4t47.5 -11.5t60 -19t80.5 -26.5l13 49h57l-9 -35q-6 -23 -14 -35.5t-27 -31.5l-299 -294l220 -33l17 11l34 97l37 -6l-33 -135q-10 -41 -30 -55.5
t-59 -14.5q-23 0 -46 3.5t-53 11t-69 19t-93 27.5l-12 -49h-58zM298 582l-32 17l102 186l93 -48z" />
    <glyph glyph-name="Zdotaccent" unicode="&#x17b;" horiz-adv-x="584" 
d="M-11 56l499 586h-250l-30 -122h-92l44 178h481l-14 -56l-498 -586h270l34 136h92l-48 -192h-502zM416 775q-29 0 -43.5 16.5t-14.5 36.5v10t2 11q5 25 23.5 40t47.5 15t43.5 -16.5t14.5 -36.5v-10t-2 -11q-5 -25 -23.5 -40t-47.5 -15z" />
    <glyph glyph-name="zdotaccent" unicode="&#x17c;" horiz-adv-x="472" 
d="M-9 35q3 12 6.5 20t8 15.5t11 15t15.5 16.5l298 293l-188 34l-18 -11l-33 -97l-37 6l32 135q10 40 30 55t59 15q22 0 43 -4t47.5 -11.5t60 -19t80.5 -26.5l13 49h57l-9 -35q-6 -23 -14 -35.5t-27 -31.5l-299 -294l220 -33l17 11l34 97l37 -6l-33 -135q-10 -41 -30 -55.5
t-59 -14.5q-23 0 -46 3.5t-53 11t-69 19t-93 27.5l-12 -49h-58zM315 607q-29 0 -43.5 16.5t-14.5 36.5v10t2 11q5 25 23.5 40t47.5 15t43.5 -16.5t14.5 -36.5v-10t-2 -11q-5 -25 -23.5 -40t-47.5 -15z" />
    <glyph glyph-name="Zcaron" unicode="&#x17d;" horiz-adv-x="584" 
d="M-11 56l499 586h-250l-30 -122h-92l44 178h481l-14 -56l-498 -586h270l34 136h92l-48 -192h-502zM371 760l-78 172l31 17l97 -101l148 101l28 -21l-153 -168h-73z" />
    <glyph glyph-name="zcaron" unicode="&#x17e;" horiz-adv-x="472" 
d="M-9 35q3 12 6.5 20t8 15.5t11 15t15.5 16.5l298 293l-188 34l-18 -11l-33 -97l-37 6l32 135q10 40 30 55t59 15q22 0 43 -4t47.5 -11.5t60 -19t80.5 -26.5l13 49h57l-9 -35q-6 -23 -14 -35.5t-27 -31.5l-299 -294l220 -33l17 11l34 97l37 -6l-33 -135q-10 -41 -30 -55.5
t-59 -14.5q-23 0 -46 3.5t-53 11t-69 19t-93 27.5l-12 -49h-58zM270 594l-78 172l31 17l97 -101l148 101l28 -21l-153 -168h-73z" />
    <glyph glyph-name="uni018F" unicode="&#x18f;" horiz-adv-x="679" 
d="M275 -12q-55 0 -97 16.5t-70 46.5t-42 71.5t-14 90.5q0 31 5.5 64t13.5 62h439l15 59q9 36 12.5 59t3.5 45q0 61 -35 99t-108 38q-70 0 -130 -35.5t-96 -95.5l-40 25q18 33 46.5 65t66.5 57t84 40t100 15q56 0 99.5 -17.5t73.5 -50.5t45.5 -80t15.5 -105q0 -43 -10 -95
t-30.5 -104t-52 -100.5t-75 -86.5t-98.5 -60.5t-122 -22.5zM276 47q40 0 74 16.5t62 47t48.5 74t34.5 96.5h-317l-9 -41q-8 -32 -8 -63q0 -62 30 -96t85 -34z" />
    <glyph glyph-name="florin" unicode="&#x192;" horiz-adv-x="474" 
d="M190 46q-15 -43 -38 -78.5t-53 -60.5t-67 -39t-79 -14q-53 0 -78 20.5t-25 51.5q0 29 18.5 50.5t50.5 21.5q25 0 39 -14t14 -35q0 -17 -9 -32t-25 -23l4 -8q5 -1 6.5 -1h3.5q22 0 40 11.5t32.5 31.5t26.5 47t23 59l88 256h-156l18 53h156l60 175q30 88 91 140t146 52
q53 0 78 -20.5t25 -51.5q0 -29 -19 -50.5t-51 -21.5q-24 0 -38.5 14t-14.5 35q0 17 9.5 32t25.5 23l-5 8q-3 1 -5.5 1h-3.5q-22 0 -40 -11.5t-32.5 -31.5t-26.5 -47t-23 -59l-65 -187h183l-18 -53h-183l-83 -244v0z" />
    <glyph glyph-name="Ohorn" unicode="&#x1a0;" horiz-adv-x="695" 
d="M289 -12q-56 0 -100 17.5t-74 50.5t-45.5 80t-15.5 105q0 43 10 95t31 104t52.5 100.5t74.5 86.5t98 60.5t123 22.5q46 0 84 -12h99l28 112h96l-21 -85q-8 -30 -28 -48.5t-59 -18.5h-42q38 -33 58.5 -84t20.5 -117q0 -43 -10 -95t-31 -104t-52.5 -100.5t-75 -86.5
t-98.5 -60.5t-123 -22.5zM301 47q40 0 73 16t58.5 44.5t44 67t29.5 82.5q15 61 25 102t16 69.5t8.5 48.5t2.5 41q0 28 -7 52.5t-22.5 42.5t-39.5 28t-57 10q-40 0 -73 -16t-58.5 -44.5t-44 -67t-29.5 -82.5q-15 -62 -25 -102.5t-16 -69t-8.5 -49t-2.5 -40.5q0 -28 7 -52.5
t22.5 -42.5t39.5 -28t57 -10z" />
    <glyph glyph-name="ohorn" unicode="&#x1a1;" horiz-adv-x="527" 
d="M204 -12q-85 0 -127 51t-42 138q0 57 19 120t55.5 115t90.5 86t123 34q39 0 69 -12h75l27 109h97l-21 -82q-8 -30 -28 -48.5t-58 -18.5h-35q43 -51 43 -137q0 -57 -19 -120t-56 -115t-90.5 -86t-122.5 -34zM209 38q49 0 79 40.5t45 102.5q15 58 24.5 96.5t15.5 62.5t8 38
t2 25q0 34 -15 56.5t-50 22.5q-25 0 -44.5 -11t-35 -30t-26.5 -45t-19 -57q-15 -59 -24.5 -97t-15 -62t-7.5 -38.5t-2 -24.5q0 -34 15 -56.5t50 -22.5z" />
    <glyph glyph-name="Uhorn" unicode="&#x1af;" horiz-adv-x="698" 
d="M810 726q-8 -29 -28 -50t-59 -21h-33l-100 -404q-17 -69 -42.5 -118.5t-60.5 -82t-80.5 -47.5t-103.5 -15q-51 0 -91.5 9.5t-68 30.5t-42.5 54t-15 80t18 115l91 369h-66l13 52h255l-13 -52h-66l-99 -401q-14 -54 -14 -93q0 -51 27.5 -76t87.5 -25q83 0 131.5 50
t74.5 155l97 390h-66l13 52h136l28 112h97z" />
    <glyph glyph-name="uhorn" unicode="&#x1b0;" horiz-adv-x="592" 
d="M639 547q-8 -30 -26.5 -48.5t-54.5 -18.5h-20l-103 -413l18 -8l101 115l31 -22l-62 -83q-36 -49 -64.5 -65t-54.5 -16q-41 0 -56.5 22t-15.5 48q0 13 3.5 29t5.5 26l14 56l-10 4q-20 -37 -41 -70.5t-45 -59t-52.5 -40.5t-63.5 -15q-48 0 -70 27t-22 69q0 32 10 66l81 290
h-87l12 48l217 44l-115 -415q-3 -12 -3 -22q0 -26 25 -26q23 0 52.5 25t59 67.5t55 99t41.5 120.5l34 139h102l28 109h96z" />
    <glyph glyph-name="Aringacute" unicode="&#x1fa;" horiz-adv-x="652" 
d="M-54 0l13 52h50l371 646h111l48 -646h50l-13 -52h-241l13 52h71l-9 172h-230l-95 -172h71l-12 -52h-198zM384 600l-176 -322h199l-16 322h-7zM500 988l-24 20l109 124l60 -52zM451 732q-53 0 -81 26.5t-28 64.5q0 28 9.5 54t28 45.5t45.5 31t62 11.5q53 0 81 -26.5
t28 -64.5q0 -29 -9.5 -54.5t-28 -45t-45.5 -31t-62 -11.5zM455 772q26 0 40 14t21 41q2 11 7 29.5t5 28.5q0 17 -10.5 28.5t-34.5 11.5q-26 0 -40 -14t-21 -41q-2 -11 -7 -29.5t-5 -28.5q0 -17 10.5 -28.5t34.5 -11.5z" />
    <glyph glyph-name="aringacute" unicode="&#x1fb;" horiz-adv-x="574" 
d="M141 -12q-57 0 -82 39.5t-25 112.5q0 62 18 131t52 127t82.5 96t108.5 38q45 0 73.5 -22.5t39.5 -72.5h10l54 83h58l-114 -453l18 -8l102 115l31 -22l-63 -83q-34 -45 -61 -63t-55 -18q-41 0 -56.5 21.5t-15.5 48.5q0 13 3 29t5 26l13 51l-10 2q-18 -39 -37 -71.5
t-41.5 -56.5t-49 -37t-58.5 -13zM328 467q-43 0 -82.5 -41.5t-64.5 -132.5q-5 -17 -10 -38.5t-8.5 -43.5t-6 -42.5t-2.5 -35.5q0 -31 6.5 -48t26.5 -17q19 0 39 15.5t39 40t37 55t32 61t24 58t14 45.5l5 20q11 48 0 76t-49 28zM387 821l-24 20l109 124l60 -52zM338 565
q-53 0 -81 26.5t-28 64.5q0 28 9.5 54t28 45.5t45.5 31t62 11.5q53 0 81 -26.5t28 -64.5q0 -29 -9.5 -54.5t-28 -45t-45.5 -31t-62 -11.5zM342 605q26 0 40 14t21 41q2 11 7 29.5t5 28.5q0 17 -10.5 28.5t-34.5 11.5q-26 0 -40 -14t-21 -41q-2 -11 -7 -29.5t-5 -28.5
q0 -17 10.5 -28.5t34.5 -11.5z" />
    <glyph glyph-name="AEacute" unicode="&#x1fc;" horiz-adv-x="920" 
d="M-54 0l13 52h54l428 594h-68l13 52h584l-44 -178h-92l31 122h-223l-62 -252h149l19 73h62l-51 -202h-63l19 73h-150l-69 -278h230l35 136h91l-48 -192h-512l12 52h68l43 173h-205l-123 -173h68l-13 -52h-196zM428 279l92 367h-8l-264 -367h180zM637 752l-32 17l102 186
l93 -48z" />
    <glyph glyph-name="aeacute" unicode="&#x1fd;" horiz-adv-x="711" 
d="M110 -12q-47 0 -75.5 29t-28.5 75q0 40 16.5 73.5t53 59t94 41.5t139.5 21q6 26 14 59.5t8 58.5q0 40 -21 59t-55 19q-15 0 -30 -2.5t-29 -7.5l-3 -9q9 -7 15.5 -17.5t6.5 -26.5q0 -29 -18.5 -51.5t-52.5 -22.5q-24 0 -39 14.5t-15 41.5q0 25 15.5 48.5t42.5 41.5
t62.5 29t75.5 11q42 0 73.5 -17t45.5 -55h10q24 33 63 52.5t86 19.5q27 0 52 -5.5t44.5 -17.5t31 -32t11.5 -49q0 -26 -12.5 -53t-44.5 -51t-87.5 -41.5t-141.5 -22.5q-8 -33 -12.5 -64.5t-4.5 -54.5q0 -83 65 -83q45 0 84 37.5t76 105.5l36 -17q-23 -48 -47.5 -84.5
t-53 -61.5t-61.5 -37.5t-73 -12.5q-68 0 -98.5 36.5t-32.5 94.5h-11q-26 -62 -72.5 -96.5t-101.5 -34.5zM159 56q18 0 38 13t38 33.5t32.5 47t20.5 53.5l12 49q-84 -11 -126 -37t-53 -71q-2 -8 -4 -18t-2 -20q0 -50 44 -50zM425 296q98 13 137.5 48t39.5 86q0 24 -11.5 39
t-38.5 15q-21 0 -38 -9t-32 -31t-29 -58t-28 -90zM454 582l-32 17l102 186l93 -48z" />
    <glyph glyph-name="Oslashacute" unicode="&#x1fe;" horiz-adv-x="695" 
d="M16 -8l79 90q-41 64 -41 159q0 43 10 95t31 104t53 100.5t75 86.5t98 60.5t123 22.5q49 0 88.5 -13.5t68.5 -38.5l75 85l41 -37l-79 -90q41 -64 41 -159q0 -43 -10 -95t-31 -104t-53 -100.5t-75 -86.5t-98.5 -60.5t-122.5 -22.5q-49 0 -88.5 13.5t-68.5 38.5l-75 -85z
M432 651q-40 0 -73 -16t-59.5 -44.5t-45 -67t-29.5 -82.5q-11 -45 -19.5 -79.5t-14.5 -61.5t-10 -48.5t-5 -40.5q-2 -21 0 -38l368 419q-14 27 -42 43t-70 16zM301 47q40 0 73 16t59.5 44.5t45 67t29.5 82.5q11 45 19.5 79.5t14.5 61.5t9.5 48.5t5.5 40.5q2 21 0 38
l-368 -419q14 -27 42 -43t70 -16zM451 752l-32 17l102 186l93 -48z" />
    <glyph glyph-name="oslashacute" unicode="&#x1ff;" horiz-adv-x="527" 
d="M204 -12q-78 0 -122 46l-73 -76l-35 37l80 82q-19 41 -19 100q0 57 19 120t55.5 115t90.5 86t123 34q40 0 70.5 -12t51.5 -34l72 76l35 -37l-79 -82q19 -41 19 -100q0 -57 -19 -120t-55.5 -115t-90.5 -86t-123 -34zM318 482q-25 0 -44.5 -11t-35 -30t-26.5 -45t-19 -57
q-15 -59 -24.5 -96.5t-14.5 -62.5l228 241q-4 27 -19 44t-45 17zM209 38q49 0 79 40.5t46 102.5q15 58 24.5 95.5t14.5 62.5l-228 -240q4 -27 19 -44t45 -17zM336 582l-32 17l102 186l93 -48z" />
    <glyph glyph-name="Scommaaccent" unicode="&#x218;" horiz-adv-x="566" 
d="M226 48q39 0 71 11.5t54.5 31t34.5 46t12 56.5q0 39 -21.5 60.5t-69.5 38.5l-42 15q-75 26 -110 66.5t-35 106.5q0 49 19 91t53 73t81 48.5t104 17.5q55 0 86.5 -19.5t36.5 -48.5h8l14 56h92l-49 -199h-92l11 47q4 16 4 30q0 74 -110 74q-38 0 -67 -11t-48 -28.5
t-28.5 -40.5t-9.5 -47q0 -38 22 -61.5t78 -42.5l40 -14q76 -27 108.5 -66.5t32.5 -101.5q0 -51 -19.5 -96.5t-55.5 -79t-86 -53.5t-111 -20q-57 0 -91 20t-40 53h-9l-16 -61h-92l51 204h92l-11 -45q-2 -9 -3.5 -16t-1.5 -15q0 -37 27.5 -58.5t85.5 -21.5zM115 -261
q23 20 43.5 45.5t31.5 48.5q-41 9 -41 44q0 8 3 20q6 25 24 38t43 13t38 -13t13 -34q0 -9 -3 -22q-11 -38 -38 -74.5t-62 -65.5h-52v0z" />
    <glyph glyph-name="scommaaccent" unicode="&#x219;" horiz-adv-x="400" 
d="M111 -12q-65 0 -92 21t-27 53q0 26 16.5 46.5t48.5 20.5q24 0 39 -14t15 -39q0 -13 -5 -27.5t-14 -23.5l5 -8q52 6 84.5 29.5t32.5 67.5q0 21 -7.5 38t-19.5 33t-27 32t-31 34q-20 23 -34.5 49t-14.5 62q0 40 16 72t44 53.5t65.5 33t79.5 11.5q63 0 89.5 -21.5
t26.5 -53.5q0 -25 -16.5 -45.5t-48.5 -20.5q-24 0 -39 14t-15 39q0 13 5 27.5t14 23.5l-5 8q-50 -6 -77 -30.5t-27 -66.5q0 -22 7.5 -39t19.5 -33t27 -31.5t31 -33.5q17 -20 32.5 -46.5t15.5 -64.5q0 -41 -17.5 -72.5t-47 -53t-68 -33t-81.5 -11.5zM1 -261q23 20 43.5 45.5
t31.5 48.5q-41 9 -41 44q0 8 3 20q6 25 24 38t43 13t38 -13t13 -34q0 -9 -3 -22q-11 -38 -38 -74.5t-62 -65.5h-52v0z" />
    <glyph glyph-name="uni021A" unicode="&#x21a;" horiz-adv-x="639" 
d="M116 52h90l147 590h-138l-31 -122h-92l44 178h584l-44 -178h-92l31 122h-138l-148 -590h90l-13 -52h-303zM132 -261q23 20 43.5 45.5t31.5 48.5q-41 9 -41 44q0 8 3 20q6 25 24 38t43 13t38 -13t13 -34q0 -9 -3 -22q-11 -38 -38 -74.5t-62 -65.5h-52v0z" />
    <glyph glyph-name="uni021B" unicode="&#x21b;" horiz-adv-x="373" 
d="M78 520h41q33 0 49 11t32 37l55 90h61l-35 -138h121l-13 -56h-122l-97 -393l17 -11l129 109l28 -27l-92 -88q-21 -21 -37.5 -34t-30 -20t-26 -9.5t-25.5 -2.5q-21 0 -36 6t-24 16t-13 23t-4 26t3 27.5t5 24.5l88 353h-88zM20 -261q23 20 43.5 45.5t31.5 48.5
q-41 9 -41 44q0 8 3 20q6 25 24 38t43 13t38 -13t13 -34q0 -9 -3 -22q-11 -38 -38 -74.5t-62 -65.5h-52v0z" />
    <glyph glyph-name="uni0237" unicode="&#x237;" horiz-adv-x="294" 
d="M-62 -212q-54 0 -78.5 20t-24.5 50q0 27 16.5 47.5t47.5 20.5q26 0 40.5 -15t14.5 -38q0 -12 -7 -26t-23 -24l6 -8q34 2 51.5 31.5t31.5 83.5l127 510h-86l12 48l213 44l-142 -569q-21 -85 -74 -130t-125 -45z" />
    <glyph glyph-name="uni0259" unicode="&#x259;" horiz-adv-x="465" 
d="M285 532q75 0 110 -43t35 -124q0 -58 -16.5 -124t-51 -122.5t-88 -93.5t-127.5 -37q-27 0 -52.5 5.5t-45 17.5t-31 32t-11.5 49q0 25 12.5 53t44.5 52t87.5 41.5t142.5 22.5q7 32 11.5 63.5t4.5 54.5q0 83 -65 83q-45 0 -84.5 -37.5t-75.5 -105.5l-36 17q24 48 48 84.5
t52 61t61.5 37.5t74.5 13zM158 36q21 0 38 9t32 31t29 58t28 90q-98 -13 -137.5 -48t-39.5 -86q0 -24 11.5 -39t38.5 -15z" />
    <glyph glyph-name="uni02BB" unicode="&#x2bb;" horiz-adv-x="600" 
d="M417 793q-22 -20 -43 -47t-31 -49q18 -5 29 -16.5t11 -28.5v-8.5t-2 -10.5q-6 -25 -24 -38t-42 -13q-25 0 -39 13.5t-14 34.5q0 9 3 21q9 36 37.5 74.5t63.5 67.5h51v0z" />
    <glyph glyph-name="uni02BC" unicode="&#x2bc;" horiz-adv-x="600" 
d="M332 559h-37l56 199h107z" />
    <glyph glyph-name="circumflex" unicode="&#x2c6;" horiz-adv-x="600" 
d="M390 779l78 -172l-31 -17l-97 101l-148 -101l-28 21l153 168h73z" />
    <glyph glyph-name="caron" unicode="&#x2c7;" horiz-adv-x="600" 
d="M279 594l-78 172l31 17l97 -101l148 101l28 -21l-153 -168h-73z" />
    <glyph glyph-name="breve" unicode="&#x2d8;" horiz-adv-x="600" 
d="M316 593q-37 0 -59.5 14.5t-35 37t-18 50.5t-8.5 56l34 14l12 -37q8 -28 29 -40t60 -12t64.5 11.5t46.5 40.5l28 37l31 -17q-14 -27 -31 -54.5t-38.5 -50t-49.5 -36.5t-65 -14z" />
    <glyph glyph-name="dotaccent" unicode="&#x2d9;" horiz-adv-x="600" 
d="M324 607q-29 0 -43.5 16.5t-14.5 36.5v10t2 11q5 25 23.5 40t47.5 15t43.5 -16.5t14.5 -36.5v-10t-2 -11q-5 -25 -23.5 -40t-47.5 -15z" />
    <glyph glyph-name="ring" unicode="&#x2da;" horiz-adv-x="600" 
d="M318 568q-26 0 -45.5 8t-33 21.5t-20.5 31t-7 36.5q0 34 11 63t30.5 50t46 33t57.5 12q25 0 45 -8t33.5 -21.5t20.5 -31t7 -36.5q0 -34 -11 -63t-30.5 -50t-46 -33t-57.5 -12zM321 610q48 0 62 56q5 23 9.5 44.5t4.5 30.5q0 17 -10 28.5t-33 11.5q-48 0 -62 -56
q-5 -23 -9.5 -44.5t-4.5 -30.5q0 -17 10 -28.5t33 -11.5z" />
    <glyph glyph-name="ogonek" unicode="&#x2db;" horiz-adv-x="600" 
d="M198 -209q-35 0 -57 17t-22 49q0 25 11.5 45.5t30.5 37t44 30.5t53 25l-3 27h43l2 -22q-20 -14 -38 -30t-32.5 -32.5t-23 -33t-8.5 -31.5q0 -30 27 -30q14 0 25.5 7t25.5 19l27 -29q-20 -20 -45.5 -34.5t-59.5 -14.5z" />
    <glyph glyph-name="tilde" unicode="&#x2dc;" horiz-adv-x="600" 
d="M391 610q-23 0 -42 8t-39 19q-23 12 -39 20.5t-32 8.5q-13 0 -25 -6.5t-31 -25.5l-25 24q24 32 47.5 56t57.5 24q23 0 42 -8t39 -19q23 -12 39 -20.5t32 -8.5q13 0 25 6.5t31 25.5l25 -24q-24 -32 -47.5 -56t-57.5 -24z" />
    <glyph glyph-name="hungarumlaut" unicode="&#x2dd;" horiz-adv-x="600" 
d="M224 585l-31 16l106 185l86 -46zM388 585l-31 16l106 185l86 -46z" />
    <glyph glyph-name="uni0300" unicode="&#x300;" 
d="M-73 747l103 38l23 -191l-34 -12z" />
    <glyph glyph-name="uni0301" unicode="&#x301;" 
d="M8 582l-32 17l102 186l93 -48z" />
    <glyph glyph-name="uni0302" unicode="&#x302;" 
d="M91 779l78 -172l-31 -17l-97 101l-148 -101l-28 21l153 168h73z" />
    <glyph glyph-name="uni0303" unicode="&#x303;" 
d="M92 610q-23 0 -42 8t-39 19q-23 12 -39 20.5t-32 8.5q-13 0 -25 -6.5t-31 -25.5l-25 24q24 32 47.5 56t57.5 24q23 0 42 -8t39 -19q23 -12 39 -20.5t32 -8.5q13 0 25 6.5t31 25.5l25 -24q-24 -32 -47.5 -56t-57.5 -24z" />
    <glyph glyph-name="uni0304" unicode="&#x304;" 
d="M-95 707h273l-17 -69h-273z" />
    <glyph glyph-name="uni0306" unicode="&#x306;" 
d="M17 593q-37 0 -59.5 14.5t-35 37t-18 50.5t-8.5 56l34 14l12 -37q8 -28 29 -40t60 -12t64.5 11.5t46.5 40.5l28 37l31 -17q-14 -27 -31 -54.5t-38.5 -50t-49.5 -36.5t-65 -14z" />
    <glyph glyph-name="uni0307" unicode="&#x307;" 
d="M25 607q-29 0 -43.5 16.5t-14.5 36.5v10t2 11q5 25 23.5 40t47.5 15t43.5 -16.5t14.5 -36.5v-10t-2 -11q-5 -25 -23.5 -40t-47.5 -15z" />
    <glyph glyph-name="uni0308" unicode="&#x308;" 
d="M-70 611q-27 0 -41 16t-14 35q0 8 3 20q5 21 22.5 35.5t43.5 14.5q27 0 40.5 -16t13.5 -35v-9.5t-2 -10.5q-5 -21 -22.5 -35.5t-43.5 -14.5zM122 611q-27 0 -40.5 16t-13.5 35v9.5t2 10.5q5 21 22.5 35.5t43.5 14.5q27 0 41 -16t14 -35q0 -8 -3 -20q-5 -21 -22.5 -35.5
t-43.5 -14.5z" />
    <glyph glyph-name="uni0309" unicode="&#x309;" 
d="M-36 777h101q32 0 50 -13.5t18 -39.5q0 -28 -23.5 -58t-53.5 -61l-29 -30l-34 15l73 113h-122z" />
    <glyph glyph-name="uni030A" unicode="&#x30a;" 
d="M19 568q-26 0 -45.5 8t-33 21.5t-20.5 31t-7 36.5q0 34 11 63t30.5 50t46 33t57.5 12q25 0 45 -8t33.5 -21.5t20.5 -31t7 -36.5q0 -34 -11 -63t-30.5 -50t-46 -33t-57.5 -12zM22 610q48 0 62 56q5 23 9.5 44.5t4.5 30.5q0 17 -10 28.5t-33 11.5q-48 0 -62 -56
q-5 -23 -9.5 -44.5t-4.5 -30.5q0 -17 10 -28.5t33 -11.5z" />
    <glyph glyph-name="uni030B" unicode="&#x30b;" 
d="M-75 585l-31 16l106 185l86 -46zM89 585l-31 16l106 185l86 -46z" />
    <glyph glyph-name="uni030C" unicode="&#x30c;" 
d="M-20 594l-78 172l31 17l97 -101l148 101l28 -21l-153 -168h-73z" />
    <glyph glyph-name="uni0312" unicode="&#x312;" 
d="M118 793q-22 -20 -43 -47t-31 -49q18 -5 29 -16.5t11 -28.5v-8.5t-2 -10.5q-6 -25 -24 -38t-42 -13q-25 0 -39 13.5t-14 34.5q0 9 3 21q9 36 37.5 74.5t63.5 67.5h51v0z" />
    <glyph glyph-name="uni0315" unicode="&#x315;" 
d="M33 559h-37l56 199h107z" />
    <glyph glyph-name="uni031B" unicode="&#x31b;" 
d="M148 547q-8 -29 -26.5 -48t-55.5 -19h-114l11 40h81l27 109h97z" />
    <glyph glyph-name="uni0323" unicode="&#x323;" 
d="M-32 -180q-26 0 -39.5 15.5t-13.5 33.5q0 10 3 22q6 23 24.5 36.5t42.5 13.5q26 0 39.5 -15.5t13.5 -33.5q0 -10 -3 -22q-6 -23 -24.5 -36.5t-42.5 -13.5z" />
    <glyph glyph-name="uni0326" unicode="&#x326;" 
d="M-121 -261q23 20 43.5 45.5t31.5 48.5q-41 9 -41 44q0 8 3 20q6 25 24 38t43 13t38 -13t13 -34q0 -9 -3 -22q-11 -38 -38 -74.5t-62 -65.5h-52v0z" />
    <glyph glyph-name="uni0327" unicode="&#x327;" 
d="M-30 -209q-38 0 -60 14t-31 31l26 26q19 -26 56 -26q17 0 27.5 5.5t16.5 13.5t8 16.5t2 14.5q0 12 -9 21.5t-37 13.5l-24 3l38 88h46l-31 -71l2 -3q21 6 37 6q26 0 42.5 -13t16.5 -39q0 -24 -10.5 -42.5t-28.5 -31.5t-40.5 -20t-46.5 -7z" />
    <glyph glyph-name="uni0328" unicode="&#x328;" 
d="M-101 -209q-35 0 -57 17t-22 49q0 25 11.5 45.5t30.5 37t44 30.5t53 25l-3 27h43l2 -22q-20 -14 -38 -30t-32.5 -32.5t-23 -33t-8.5 -31.5q0 -30 27 -30q14 0 25.5 7t25.5 19l27 -29q-20 -20 -45.5 -34.5t-59.5 -14.5z" />
    <glyph glyph-name="pi" unicode="&#x3c0;" horiz-adv-x="593" 
d="M439 59l101 115l31 -22l-62 -83q-36 -49 -66 -65t-56 -16q-43 0 -61 22.5t-18 49.5q0 12 3 26.5t5 24.5l88 353h-144l-116 -464h-116l116 464h-87l14 56h549l-13 -56h-87l-99 -397z" />
    <glyph glyph-name="uni0400" unicode="&#x400;" horiz-adv-x="601" 
d="M396 334h-150l-69 -278h231l34 136h92l-48 -192h-512l13 52h66l148 594h-66l13 52h503l-44 -178h-92l31 122h-223l-62 -252h149l19 73h62l-51 -202h-63zM327 917l103 38l23 -191l-34 -12z" />
    <glyph glyph-name="uni0401" unicode="&#x401;" horiz-adv-x="601" 
d="M396 334h-150l-69 -278h231l34 136h92l-48 -192h-512l13 52h66l148 594h-66l13 52h503l-44 -178h-92l31 122h-223l-62 -252h149l19 73h62l-51 -202h-63zM337 779q-27 0 -41 16t-14 35q0 8 3 20q5 21 22.5 35.5t43.5 14.5q27 0 40.5 -16t13.5 -35v-9.5t-2 -10.5
q-5 -21 -22.5 -35.5t-43.5 -14.5zM529 779q-27 0 -40.5 16t-13.5 35v9.5t2 10.5q5 21 22.5 35.5t43.5 14.5q27 0 41 -16t14 -35q0 -8 -3 -20q-5 -21 -22.5 -35.5t-43.5 -14.5z" />
    <glyph glyph-name="uni0402" unicode="&#x402;" horiz-adv-x="777" 
d="M139 52h66l147 590h-138l-30 -122h-92l45 178h583l-44 -178h-92l30 122h-139l-61 -247h5q29 11 60 18t66 7q90 0 137.5 -34.5t47.5 -102.5q0 -23 -4 -47t-15 -68l-37 -152q-21 -87 -79 -133.5t-144 -46.5h-76l14 52h90q53 38 72 119l40 170q10 42 14 65t4 41q0 79 -98 79
q-32 0 -60 -6.5t-52 -17.5l-71 -286h66l-14 -52h-254z" />
    <glyph glyph-name="uni0403" unicode="&#x403;" horiz-adv-x="539" 
d="M-13 52h66l148 594h-66l13 52h473l-45 -178h-92l31 122h-192l-147 -590h90l-13 -52h-279zM402 752l-32 17l102 186l93 -48z" />
    <glyph glyph-name="uni0404" unicode="&#x404;" horiz-adv-x="619" 
d="M308 -12q-125 0 -190.5 63.5t-65.5 176.5q0 96 30 183.5t80 154t116.5 105.5t140.5 39q60 0 94 -21.5t43 -51.5h8l16 61h92l-53 -210h-92l12 45q2 7 3 14.5t1 15.5q0 41 -30 64.5t-81 23.5q-76 0 -130.5 -58.5t-81.5 -169.5l-9 -37h237l-15 -59h-237q-9 -38 -15.5 -72.5
t-6.5 -63.5q0 -149 163 -149q43 0 72 9t48 24v8q-23 3 -38.5 17.5t-15.5 40.5t19.5 45.5t51.5 19.5q29 0 47.5 -17t18.5 -46q0 -33 -17.5 -61.5t-49 -49t-74 -32.5t-91.5 -12z" />
    <glyph glyph-name="uni0405" unicode="&#x405;" horiz-adv-x="566" 
d="M226 48q39 0 71 11.5t54.5 31t34.5 46t12 56.5q0 39 -21.5 60.5t-69.5 38.5l-42 15q-75 26 -110 66.5t-35 106.5q0 49 19 91t53 73t81 48.5t104 17.5q55 0 86.5 -19.5t36.5 -48.5h8l14 56h92l-49 -199h-92l11 47q4 16 4 30q0 74 -110 74q-38 0 -67 -11t-48 -28.5
t-28.5 -40.5t-9.5 -47q0 -38 22 -61.5t78 -42.5l40 -14q76 -27 108.5 -66.5t32.5 -101.5q0 -51 -19.5 -96.5t-55.5 -79t-86 -53.5t-111 -20q-57 0 -91 20t-40 53h-9l-16 -61h-92l51 204h92l-11 -45q-2 -9 -3.5 -16t-1.5 -15q0 -37 27.5 -58.5t85.5 -21.5z" />
    <glyph glyph-name="uni0406" unicode="&#x406;" horiz-adv-x="333" 
d="M-26 0l13 52h66l148 594h-66l13 52h256l-14 -52h-66l-148 -594h66l-12 -52h-256z" />
    <glyph glyph-name="uni0407" unicode="&#x407;" horiz-adv-x="334" 
d="M-26 0l13 52h66l148 594h-66l13 52h256l-14 -52h-66l-148 -594h66l-12 -52h-256zM206 779q-27 0 -41 16t-14 35q0 8 3 20q5 21 22.5 35.5t43.5 14.5q27 0 40.5 -16t13.5 -35v-9.5t-2 -10.5q-5 -21 -22.5 -35.5t-43.5 -14.5zM398 779q-27 0 -40.5 16t-13.5 35v9.5t2 10.5
q5 21 22.5 35.5t43.5 14.5q27 0 41 -16t14 -35q0 -8 -3 -20q-5 -21 -22.5 -35.5t-43.5 -14.5z" />
    <glyph glyph-name="uni0408" unicode="&#x408;" horiz-adv-x="455" 
d="M63 44q6 -2 15 -4t19 -2q44 0 71 30t41 87l122 491h-90l13 52h279l-13 -52h-66l-118 -477q-22 -90 -78 -135.5t-150 -45.5q-68 0 -102 28t-34 68q0 31 19.5 54t53.5 23q28 0 44 -15t16 -40q0 -18 -10.5 -34.5t-31.5 -23.5v-4v0z" />
    <glyph glyph-name="uni0409" unicode="&#x409;" horiz-adv-x="901" 
d="M72 -12q-48 0 -78 25t-30 67q0 32 19.5 55t55.5 23q29 0 45 -15.5t16 -40.5q0 -18 -10.5 -34t-29.5 -23v-4q6 -3 17 -3t22.5 4.5t25.5 18.5q15 15 31 43t35.5 80t42.5 131.5t53 198.5l33 132h-75l13 52h473l-13 -52h-66l-58 -230h106q80 0 123.5 -36t43.5 -108
q0 -60 -18.5 -110t-52.5 -86t-80.5 -56t-102.5 -20h-310l13 52h66l147 590h-140l-31 -125q-31 -125 -56 -209t-46 -138.5t-40.5 -86t-40.5 -52.5q-24 -24 -49 -33.5t-54 -9.5zM592 57q51 0 85 29.5t51 96.5q6 24 11.5 51t5.5 47q0 36 -20 57.5t-62 21.5h-81l-76 -303h86z
" />
    <glyph glyph-name="uni040A" unicode="&#x40a;" horiz-adv-x="944" 
d="M-13 52h66l148 594h-66l13 52h256l-13 -52h-67l-65 -262h249l65 262h-67l13 52h256l-13 -52h-67l-58 -230h106q80 0 123.5 -36t43.5 -108q0 -60 -18.5 -110t-52.5 -86t-80.5 -56t-102.5 -20h-310l13 52h66l68 275h-248l-69 -275h66l-12 -52h-256zM635 57q51 0 85 29.5
t51 96.5q6 24 11.5 51t5.5 47q0 36 -20 57.5t-62 21.5h-81l-76 -303h86z" />
    <glyph glyph-name="uni040B" unicode="&#x40b;" horiz-adv-x="831" 
d="M139 52h66l147 590h-138l-30 -122h-92l45 178h583l-44 -178h-92l30 122h-139l-61 -247h5q31 12 63.5 18.5t68.5 6.5q91 0 137.5 -34t46.5 -103q0 -22 -4 -45.5t-15 -68.5l-28 -117h65l-13 -52h-251l13 52h65l29 125q10 42 14 65.5t4 40.5q0 40 -23 60t-74 20
q-35 0 -64 -6.5t-54 -18.5l-71 -286h66l-14 -52h-254z" />
    <glyph glyph-name="uni040C" unicode="&#x40c;" horiz-adv-x="675" 
d="M-13 52h66l148 594h-66l13 52h256l-14 -52h-66l-65 -262h75l134 204q23 34 43.5 57.5t40.5 38t40 20.5t43 6q45 0 71 -24.5t26 -62.5q0 -31 -18.5 -53t-53.5 -22q-26 0 -43.5 15.5t-17.5 43.5q0 14 7 29t21 24l-2 8q-10 -2 -19.5 -7t-21 -16.5t-26 -30.5t-33.5 -49
l-129 -196q23 -6 37.5 -22.5t26.5 -51.5l86 -243h61l-13 -52h-157l-113 323l-7 5h-72l-69 -276h66l-12 -52h-256zM476 752l-32 17l102 186l93 -48z" />
    <glyph glyph-name="uni040D" unicode="&#x40d;" horiz-adv-x="734" 
d="M-13 52h66l148 594h-66l13 52h253l-13 -52h-66l-67 -269l-56 -184h4l392 417l9 36h-66l13 52h253l-13 -52h-66l-148 -594h66l-13 -52h-253l13 52h66l67 269l56 184h-4l-392 -417l-9 -36h66l-13 -52h-253zM395 917l103 38l23 -191l-34 -12z" />
    <glyph glyph-name="uni040E" unicode="&#x40e;" horiz-adv-x="633" 
d="M156 -12q-53 0 -82.5 25.5t-29.5 66.5q0 34 20.5 56t53.5 22q29 0 45 -15.5t16 -40.5q0 -18 -10.5 -34t-31.5 -23v-4q6 -3 20 -3q15 0 29 4t27.5 14.5t29 29t33.5 47.5l19 30l-133 483h-50l14 52h243l-13 -52h-71l61 -229l27 -122h3l73 119l146 232h-72l14 52h194
l-13 -52h-49l-339 -531q-23 -36 -44 -60.5t-42 -39.5t-42.5 -21t-45.5 -6zM474 758q-52 0 -80.5 24t-28.5 61q0 32 19.5 54t52.5 22q26 0 40.5 -14.5t14.5 -38.5q0 -17 -9.5 -32.5t-23.5 -20.5v-7q7 -4 27 -4q38 0 76 26t73 90l32 -21q-45 -78 -91.5 -108.5t-101.5 -30.5z
" />
    <glyph glyph-name="uni040F" unicode="&#x40f;" horiz-adv-x="716" 
d="M245 0h-271l13 52h66l149 594h-66l13 52h255l-13 -52h-66l-147 -589h259l147 589h-66l13 52h255l-13 -52h-66l-149 -594h66l-13 -52h-269l-40 -160h-97z" />
    <glyph glyph-name="uni0410" unicode="&#x410;" horiz-adv-x="652" 
d="M-54 0l13 52h50l371 646h111l48 -646h50l-13 -52h-241l13 52h71l-9 172h-230l-95 -172h71l-12 -52h-198zM384 600l-176 -322h199l-16 322h-7z" />
    <glyph glyph-name="uni0411" unicode="&#x411;" horiz-adv-x="587" 
d="M-13 52h65l148 594h-65l13 52h459l-44 -178h-92l30 122h-179l-59 -237h113q81 0 124.5 -36t43.5 -105q0 -58 -18.5 -106.5t-51.5 -83.5t-79.5 -54.5t-102.5 -19.5h-318zM272 56q50 0 84 29.5t51 95.5q6 22 10.5 46t4.5 46q0 34 -20 55t-62 21h-91l-73 -293h96z" />
    <glyph glyph-name="uni0412" unicode="&#x412;" horiz-adv-x="630" 
d="M-26 0l13 52h66l148 594h-66l13 52h314q88 0 129 -34.5t41 -99.5q0 -75 -46.5 -126t-126.5 -70l-2 -8q51 -13 84.5 -47t33.5 -90q0 -41 -16.5 -80.5t-47 -71.5t-75.5 -51.5t-102 -19.5h-360zM299 56q51 0 88.5 31.5t51.5 86.5q7 26 11.5 45t4.5 33q0 35 -20.5 57.5
t-62.5 22.5h-126l-69 -276h122zM366 388q48 0 82.5 30.5t47.5 81.5q6 24 10.5 42.5t4.5 31.5q0 29 -17.5 48.5t-58.5 19.5h-112l-63 -254h106z" />
    <glyph glyph-name="uni0413" unicode="&#x413;" horiz-adv-x="539" 
d="M-13 52h66l148 594h-66l13 52h473l-45 -178h-92l31 122h-192l-147 -590h90l-13 -52h-279z" />
    <glyph glyph-name="uni0414" unicode="&#x414;" horiz-adv-x="678" 
d="M-35 56h74q83 88 148 219t109 307l16 64h-74l13 52h482l-13 -52h-66l-148 -590h104l-54 -216h-99l40 160h-447l-40 -160h-99zM384 56l147 586h-149l-16 -64q-41 -168 -105 -301t-141 -221h264z" />
    <glyph glyph-name="uni0415" unicode="&#x415;" horiz-adv-x="601" 
d="M396 334h-150l-69 -278h231l34 136h92l-48 -192h-512l13 52h66l148 594h-66l13 52h503l-44 -178h-92l31 122h-223l-62 -252h149l19 73h62l-51 -202h-63z" />
    <glyph glyph-name="uni0416" unicode="&#x416;" horiz-adv-x="980" 
d="M-35 52h60l193 253q29 37 52 50.5t53 13.5l-18 170q-3 37 -8.5 61.5t-13 39.5t-17 22t-22.5 10l-4 -8q18 -17 18 -47q0 -29 -18 -49t-53 -20q-29 0 -45.5 17.5t-16.5 45.5q0 43 32 71t81 28q58 0 89 -37.5t40 -129.5l17 -159h76l65 262h-66l13 52h253l-13 -52h-66
l-65 -262h76l118 202q20 36 40 59.5t40 38t41 20.5t44 6q45 0 71 -24.5t26 -62.5q0 -31 -18.5 -53t-53.5 -22q-26 0 -43.5 15.5t-17.5 43.5q0 14 7 29t21 24l-2 8q-24 -5 -46 -28t-51 -75l-115 -196q21 -5 34.5 -20.5t23.5 -50.5l75 -246h61l-13 -52h-157l-97 323l-6 4h-73
l-68 -275h66l-13 -52h-254l13 52h67l68 275h-71l-6 -4l-247 -323h-170z" />
    <glyph glyph-name="uni0417" unicode="&#x417;" horiz-adv-x="591" 
d="M224 -12q-44 0 -81 9.5t-63.5 27t-41 42t-14.5 53.5q0 38 22 62t56 24q28 0 44.5 -15t16.5 -40q0 -28 -17.5 -45.5t-48.5 -22.5l-3 -8q15 -14 40.5 -23.5t70.5 -9.5q80 0 126.5 33.5t63.5 99.5q5 20 9 39t4 35q0 37 -22.5 57.5t-77.5 20.5h-94l15 59h89q48 0 87 31t53 89
q5 20 7 33.5t2 25.5q0 40 -25.5 63t-70.5 23q-57 0 -98.5 -32t-53.5 -80l-13 -51h-88l52 210h89l-15 -60h4q58 72 163 72q40 0 73.5 -10.5t56.5 -30t36 -46.5t13 -61q0 -75 -47.5 -126t-128.5 -72l-2 -8q119 -30 119 -132q0 -47 -20.5 -89.5t-60 -75t-96.5 -52t-130 -19.5z
" />
    <glyph glyph-name="uni0418" unicode="&#x418;" horiz-adv-x="734" 
d="M-13 52h66l148 594h-66l13 52h253l-13 -52h-66l-67 -269l-56 -184h4l392 417l9 36h-66l13 52h253l-13 -52h-66l-148 -594h66l-13 -52h-253l13 52h66l67 269l56 184h-4l-392 -417l-9 -36h66l-13 -52h-253z" />
    <glyph glyph-name="uni0419" unicode="&#x419;" horiz-adv-x="734" 
d="M-13 52h66l148 594h-66l13 52h253l-13 -52h-66l-67 -269l-56 -184h4l392 417l9 36h-66l13 52h253l-13 -52h-66l-148 -594h66l-13 -52h-253l13 52h66l67 269l56 184h-4l-392 -417l-9 -36h66l-13 -52h-253zM497 758q-52 0 -80.5 24t-28.5 61q0 32 19.5 54t52.5 22
q26 0 40.5 -14.5t14.5 -38.5q0 -17 -9.5 -32.5t-23.5 -20.5v-7q7 -4 27 -4q38 0 76 26t73 90l32 -21q-45 -78 -91.5 -108.5t-101.5 -30.5z" />
    <glyph glyph-name="uni041A" unicode="&#x41a;" horiz-adv-x="675" 
d="M-13 52h66l148 594h-66l13 52h256l-14 -52h-66l-65 -262h75l134 204q23 34 43.5 57.5t40.5 38t40 20.5t43 6q45 0 71 -24.5t26 -62.5q0 -31 -18.5 -53t-53.5 -22q-26 0 -43.5 15.5t-17.5 43.5q0 14 7 29t21 24l-2 8q-10 -2 -19.5 -7t-21 -16.5t-26 -30.5t-33.5 -49
l-129 -196q23 -6 37.5 -22.5t26.5 -51.5l86 -243h61l-13 -52h-157l-113 323l-7 5h-72l-69 -276h66l-12 -52h-256z" />
    <glyph glyph-name="uni041B" unicode="&#x41b;" horiz-adv-x="671" 
d="M72 -12q-48 0 -78 25t-30 67q0 32 19.5 55t55.5 23q29 0 45 -15.5t16 -40.5q0 -18 -10.5 -34t-29.5 -23v-4q6 -3 17 -3t22.5 4.5t25.5 18.5q15 15 31 43t35.5 80t42.5 131.5t53 198.5l33 132h-75l13 52h483l-13 -52h-66l-148 -594h66l-13 -52h-255l13 52h67l146 590h-149
l-31 -125q-31 -125 -56 -209t-46 -138.5t-40.5 -86t-40.5 -52.5q-24 -24 -49 -33.5t-54 -9.5z" />
    <glyph glyph-name="uni041C" unicode="&#x41c;" horiz-adv-x="815" 
d="M872 646h-66l-149 -594h66l-13 -52h-254l13 52h66l134 535h-8l-93 -138l-227 -340l-60 342l-22 136h-7l-134 -535h66l-13 -52h-197l13 52h66l148 594h-66l13 52h205l58 -377h7l249 377h218z" />
    <glyph glyph-name="uni041D" unicode="&#x41d;" horiz-adv-x="731" 
d="M372 0l13 52h66l68 275h-274l-69 -275h66l-12 -52h-256l13 52h66l148 594h-66l13 52h256l-13 -52h-67l-65 -262h274l66 262h-66l12 52h256l-13 -52h-66l-148 -594h66l-12 -52h-256z" />
    <glyph glyph-name="uni041E" unicode="&#x41e;" horiz-adv-x="695" 
d="M301 47q40 0 73 16t58.5 44.5t44 67t29.5 82.5q15 61 25 102t16 69.5t8.5 48.5t2.5 41q0 28 -7 52.5t-22.5 42.5t-39.5 28t-57 10q-40 0 -73 -16t-58.5 -44.5t-44 -67t-29.5 -82.5q-15 -62 -25 -102.5t-16 -69t-8.5 -49t-2.5 -40.5q0 -28 7 -52.5t22.5 -42.5t39.5 -28
t57 -10zM289 -12q-56 0 -100 17.5t-74 50.5t-45.5 80t-15.5 105q0 43 10 95t31 104t53 100.5t75 86.5t98 60.5t123 22.5q56 0 100 -17.5t74 -50.5t45.5 -80t15.5 -105q0 -43 -10 -95t-31 -104t-52.5 -100.5t-75 -86.5t-98.5 -60.5t-123 -22.5z" />
    <glyph glyph-name="uni041F" unicode="&#x41f;" horiz-adv-x="731" 
d="M-13 52h66l148 594h-66l13 52h652l-13 -52h-66l-148 -594h66l-13 -52h-255l13 52h66l147 590h-274l-147 -590h66l-12 -52h-256z" />
    <glyph glyph-name="uni0420" unicode="&#x420;" horiz-adv-x="603" 
d="M474 698q74 0 118.5 -32t44.5 -101q0 -32 -11 -75t-39 -81.5t-76.5 -65t-123.5 -26.5h-145l-66 -265h90l-13 -52h-279l13 52h66l148 594h-66l13 52h326zM256 374h115q48 0 81 30t46 81q1 7 4 18t6 23t5 24t2 20q0 32 -19 52t-58 20h-115z" />
    <glyph glyph-name="uni0421" unicode="&#x421;" horiz-adv-x="603" 
d="M543 165q-18 -32 -44.5 -64t-61.5 -57t-77.5 -40.5t-91.5 -15.5q-47 0 -86 14.5t-67.5 44t-44.5 74.5t-16 107q0 50 10.5 105.5t32 109t52.5 102t72 85.5t91 58.5t110 21.5q56 0 88.5 -21.5t41.5 -51.5h9l15 61h92l-53 -213h-92l12 48q2 8 3 15t1 15q0 41 -29 63.5
t-75 22.5q-42 0 -75.5 -17.5t-60 -47.5t-45 -69t-28.5 -82q-14 -56 -23 -93t-14.5 -62.5t-8 -44t-2.5 -36.5q0 -62 31 -100t95 -38q66 0 115.5 37t84.5 94l39 -25v0z" />
    <glyph glyph-name="uni0422" unicode="&#x422;" horiz-adv-x="639" 
d="M116 52h90l147 590h-138l-31 -122h-92l44 178h584l-44 -178h-92l31 122h-138l-148 -590h90l-13 -52h-303z" />
    <glyph glyph-name="uni0423" unicode="&#x423;" horiz-adv-x="633" 
d="M156 -12q-53 0 -82.5 25.5t-29.5 66.5q0 34 20.5 56t53.5 22q29 0 45 -15.5t16 -40.5q0 -18 -10.5 -34t-31.5 -23v-4q6 -3 20 -3q15 0 29 4t27.5 14.5t29 29t33.5 47.5l19 30l-133 483h-50l14 52h243l-13 -52h-71l61 -229l27 -122h3l73 119l146 232h-72l14 52h194
l-13 -52h-49l-339 -531q-23 -36 -44 -60.5t-42 -39.5t-42.5 -21t-45.5 -6z" />
    <glyph glyph-name="uni0424" unicode="&#x424;" horiz-adv-x="833" 
d="M234 40h66l21 82h-46q-109 0 -165 46t-56 127q0 67 23.5 121t67 92.5t105.5 59t139 20.5h49l18 70h-66l13 52h253l-13 -52h-66l-18 -70h46q109 0 165 -46t56 -127q0 -67 -23.5 -121t-67 -92.5t-105.5 -59t-139 -20.5h-49l-23 -82h68l-13 -52h-253zM424 533h-42
q-72 0 -122 -39t-70 -119q-11 -41 -13.5 -60.5t-2.5 -37.5q0 -48 28.5 -74t90.5 -26h42zM498 177q72 0 122 39t70 119q10 41 13 60.5t3 37.5q0 48 -28.5 74t-90.5 26h-42l-89 -356h42z" />
    <glyph glyph-name="uni0425" unicode="&#x425;" horiz-adv-x="634" 
d="M319 52h61l-76 231h-8l-197 -231h61l-13 -52h-200l13 52h57l262 290l-106 304h-57l13 52h244l-13 -52h-61l74 -222h8l186 222h-61l13 52h200l-13 -52h-57l-253 -280l112 -314h57l-12 -52h-247z" />
    <glyph glyph-name="uni0426" unicode="&#x426;" horiz-adv-x="734" 
d="M166 -205q8 46 18.5 69.5t24.5 40.5q11 14 26 18.5t35 4.5q9 0 19 -0.5t23 -2.5t31 -6t43 -10q27 -7 45 -11t31.5 -6.5t23.5 -3.5t22 -1q41 0 63 19.5t22 51.5q0 23 -12.5 32.5t-40.5 9.5h-567l13 52h66l149 594h-66l13 52h255l-13 -52h-66l-147 -589h259l147 589h-66
l13 52h255l-13 -52h-66l-148 -590h8q46 0 71.5 -23t25.5 -69q0 -67 -53 -109t-156 -42q-21 0 -40.5 1t-45 4t-59 7.5t-81.5 12.5l-17 -43h-45v0z" />
    <glyph glyph-name="uni0427" unicode="&#x427;" horiz-adv-x="679" 
d="M309 52h90l58 235h-5q-31 -12 -63.5 -18.5t-68.5 -6.5q-91 0 -137 34.5t-46 102.5q0 11 0.5 22t2.5 24t5.5 29.5t9.5 39.5l33 132h-66l13 52h252l-13 -52h-63l-35 -141q-11 -42 -15.5 -65t-4.5 -41q0 -79 98 -79q35 0 63.5 6.5t53.5 17.5l76 302h-66l13 52h255l-13 -52
h-66l-148 -594h66l-13 -52h-279z" />
    <glyph glyph-name="uni0428" unicode="&#x428;" horiz-adv-x="931" 
d="M-13 52h66l148 594h-66l13 52h250l-13 -52h-61l-147 -589h177l147 589h-61l13 52h244l-13 -52h-61l-147 -589h177l147 589h-61l13 52h249l-13 -52h-66l-147 -594h66l-13 -52h-854z" />
    <glyph glyph-name="uni0429" unicode="&#x429;" horiz-adv-x="951" 
d="M321 -205q8 46 17.5 70t25.5 40q13 13 28 18t37 5q10 0 21.5 -1t26.5 -3.5t35 -6.5t49 -10q27 -6 47.5 -9.5t39 -6t35.5 -3.5t37 -1q45 0 68 19.5t23 51.5q0 23 -12.5 32.5t-41.5 9.5h-783l13 52h66l148 594h-66l13 52h250l-13 -52h-61l-147 -589h177l147 589h-61l13 52
h244l-13 -52h-61l-147 -589h177l147 589h-61l13 52h249l-13 -52h-66l-146 -590h8q46 0 71.5 -23t25.5 -69q0 -67 -54 -109t-163 -42q-31 0 -60 1t-61 4t-70.5 8t-88.5 12l-17 -43h-46v0z" />
    <glyph glyph-name="uni042A" unicode="&#x42a;" horiz-adv-x="719" 
d="M116 52h66l147 590h-115l-30 -122h-91l44 178h394l-13 -52h-66l-58 -230h106q80 0 123.5 -36t43.5 -108q0 -59 -18.5 -108.5t-51.5 -86t-80 -57t-104 -20.5h-310zM392 57q51 0 85 29.5t51 96.5q6 24 11.5 51t5.5 47q0 36 -20 57.5t-62 21.5h-81l-76 -303h86z" />
    <glyph glyph-name="uni042B" unicode="&#x42b;" horiz-adv-x="874" 
d="M-13 52h66l148 594h-66l13 52h254l-13 -52h-66l-58 -230h106q80 0 123.5 -36t43.5 -108q0 -60 -18.5 -110t-52.5 -86t-80.5 -56t-102.5 -20h-310zM529 52h66l148 594h-66l13 52h254l-13 -52h-66l-148 -594h66l-13 -52h-254zM263 57q51 0 85 29.5t51 96.5q6 24 11.5 51
t5.5 47q0 36 -20 57.5t-62 21.5h-81l-76 -303h86z" />
    <glyph glyph-name="uni042C" unicode="&#x42c;" horiz-adv-x="589" 
d="M-13 52h66l149 594h-66l13 52h254l-13 -52h-66l-58 -230h121q81 0 124.5 -36t43.5 -108q0 -59 -18.5 -109t-52.5 -86t-80.5 -56.5t-102.5 -20.5h-327zM280 57q51 0 85 29.5t51 96.5q6 24 11.5 51t5.5 47q0 36 -20 57.5t-62 21.5h-99l-76 -303h104z" />
    <glyph glyph-name="uni042D" unicode="&#x42d;" horiz-adv-x="628" 
d="M226 -12q-45 0 -82 9.5t-64 27t-41.5 42t-14.5 53.5q0 38 22 62t56 24q28 0 44.5 -15t16.5 -40q0 -28 -17.5 -45.5t-48.5 -22.5l-3 -8q15 -14 41 -23.5t72 -9.5q93 0 151 55.5t87 170.5l15 59h-246l15 59h246q11 49 15.5 79.5t4.5 55.5q0 63 -30 96.5t-87 33.5
q-62 0 -105 -32t-54 -80l-12 -51h-89l52 210h89l-15 -60h4q58 72 159 72q97 0 153 -60t56 -172q0 -102 -30.5 -191.5t-83 -156t-124 -104.5t-152.5 -38z" />
    <glyph glyph-name="uni042E" unicode="&#x42e;" horiz-adv-x="946" 
d="M557 -12q-106 0 -162.5 68t-56.5 185q0 20 1.5 41.5t5.5 44.5h-100l-69 -275h66l-12 -52h-256l13 52h66l148 594h-66l13 52h256l-13 -52h-67l-65 -262h99q16 60 46 118t74 104.5t102.5 75t132.5 28.5q53 0 94 -17.5t69 -50.5t42.5 -80t14.5 -105q0 -44 -9.5 -95.5
t-29.5 -103.5t-50.5 -101t-72 -86.5t-95 -60t-119.5 -22.5zM570 47q37 0 67 16t54 44.5t41.5 67t28.5 82.5q16 63 26 104.5t15.5 70t7.5 48.5t2 42q0 28 -6 51.5t-19 40.5t-34.5 27t-51.5 10q-37 0 -67 -16t-54 -44.5t-41.5 -67t-28.5 -82.5q-16 -63 -26 -104.5t-16 -70
t-8 -48.5t-2 -42q0 -28 6 -51.5t19.5 -41t35 -27t51.5 -9.5z" />
    <glyph glyph-name="uni042F" unicode="&#x42f;" horiz-adv-x="648" 
d="M-37 52h61l163 205q26 33 47.5 47t50.5 18l2 7q-79 3 -115 36.5t-36 94.5q0 51 18.5 95t51.5 75.5t78.5 49.5t98.5 18h335l-12 -52h-66l-148 -594h66l-13 -52h-268l14 52h78l66 268h-58l-7 -4l-250 -316h-171zM516 642h-114q-103 0 -133 -118q-5 -21 -8 -39t-3 -35
q0 -35 20.5 -55.5t63.5 -20.5h107z" />
    <glyph glyph-name="uni0430" unicode="&#x430;" horiz-adv-x="574" 
d="M141 -12q-57 0 -82 39.5t-25 112.5q0 62 18 131t52 127t82.5 96t108.5 38q45 0 73.5 -22.5t39.5 -72.5h10l54 83h58l-114 -453l18 -8l102 115l31 -22l-63 -83q-34 -45 -61 -63t-55 -18q-41 0 -56.5 21.5t-15.5 48.5q0 13 3 29t5 26l13 51l-10 2q-18 -39 -37 -71.5
t-41.5 -56.5t-49 -37t-58.5 -13zM328 467q-43 0 -82.5 -41.5t-64.5 -132.5q-5 -17 -10 -38.5t-8.5 -43.5t-6 -42.5t-2.5 -35.5q0 -31 6.5 -48t26.5 -17q19 0 39 15.5t39 40t37 55t32 61t24 58t14 45.5l5 20q11 48 0 76t-49 28z" />
    <glyph glyph-name="uni0431" unicode="&#x431;" horiz-adv-x="526" 
d="M204 -12q-81 0 -125 48.5t-44 137.5q0 50 21 136q57 224 148 315q22 22 43.5 37.5t46.5 26t53.5 17t63.5 9.5q28 3 46.5 5t30.5 4t19.5 4t13.5 5l14 37h45q-11 -49 -22.5 -77.5t-31.5 -48.5t-56 -31t-99 -16q-31 -3 -53.5 -6.5t-39.5 -9t-29.5 -13.5t-24.5 -20
q-25 -25 -46 -66.5t-41 -103.5l9 -3q39 69 83 99.5t99 30.5q75 0 117 -45t42 -128q0 -69 -23 -131.5t-61.5 -110t-90 -75t-108.5 -27.5zM210 38q44 0 76 37.5t51 109.5q13 48 21 80t12.5 53.5t6 36t1.5 27.5q0 36 -17 54.5t-48 18.5q-43 0 -76 -36.5t-51 -108.5
q-14 -53 -22 -86t-12.5 -54t-6 -33.5t-1.5 -24.5q0 -35 17.5 -54.5t48.5 -19.5z" />
    <glyph glyph-name="uni0432" unicode="&#x432;" horiz-adv-x="502" 
d="M216 -12q-88 0 -134 42t-46 127q0 78 21.5 146.5t59.5 119t91 80t115 29.5q76 0 114.5 -28t38.5 -76t-32 -80t-97 -52l-1 -8q47 -6 71 -32.5t24 -69.5q0 -42 -18 -78t-48.5 -63t-71.5 -42t-87 -15zM221 36q32 0 57 19t38 64q4 14 7 32t3 35q0 41 -19.5 57t-61.5 16
q-17 0 -38 -2t-39 -6q-8 -30 -12.5 -64.5t-4.5 -66.5q0 -45 19 -64.5t51 -19.5zM312 484q-21 0 -39 -8.5t-34 -29.5t-31 -57.5t-29 -91.5q86 12 127.5 35.5t52.5 62.5q3 11 4 19.5t1 19.5q0 25 -14.5 37.5t-37.5 12.5z" />
    <glyph glyph-name="uni0433" unicode="&#x433;" horiz-adv-x="452" 
d="M166 -12q-67 0 -106 34.5t-39 91.5q0 55 30 96.5t103 77.5l83 40q45 22 63.5 45.5t18.5 51.5q0 49 -61 49q-33 0 -63.5 -17.5t-62.5 -59.5l-33 23q41 59 85.5 85.5t103.5 26.5q66 0 104.5 -33t38.5 -87q0 -55 -32.5 -95t-99.5 -73l-84 -41q-48 -23 -65 -47t-17 -55
q0 -26 16 -40.5t45 -14.5q33 0 67 19t76 70l32 -23q-45 -63 -93 -93.5t-110 -30.5z" />
    <glyph glyph-name="uni0434" unicode="&#x434;" horiz-adv-x="536" 
d="M204 -12q-85 0 -127 51t-42 138q0 67 20 127.5t54.5 105.5t80 71.5t96.5 26.5q84 0 102 -73l9 3q7 35 11 78.5t4 84.5q0 62 -22 90t-60 28t-69.5 -23t-67.5 -74l-34 20q43 69 87 98.5t102 29.5q38 0 69.5 -13.5t54 -43.5t34.5 -78t12 -117q0 -68 -10 -136t-29 -129
t-45 -110.5t-57 -81.5q-40 -40 -83.5 -56.5t-89.5 -16.5zM208 38q46 0 76.5 37t48.5 106q13 49 21.5 82.5t13.5 55.5t7 35.5t2 24.5q0 79 -64 79q-88 0 -125 -143q-14 -53 -22.5 -86.5t-13.5 -55t-6.5 -34t-1.5 -22.5q0 -79 64 -79z" />
    <glyph glyph-name="uni0435" unicode="&#x435;" horiz-adv-x="467" 
d="M181 -12q-75 0 -110 43t-35 124q0 38 7 81t22 85t38 80t54.5 67.5t71.5 46.5t90 17q27 0 52 -5.5t44.5 -17.5t31.5 -32t12 -49q0 -26 -12.5 -53.5t-44.5 -51.5t-87.5 -41.5t-142.5 -22.5q-7 -32 -11.5 -63.5t-4.5 -54.5q0 -83 65 -83q45 0 84.5 37.5t75.5 105.5l36 -17
q-24 -48 -48 -84.5t-52 -61t-61.5 -37.5t-74.5 -13zM181 296q98 13 137.5 48t39.5 86q0 24 -11.5 39t-38.5 15q-21 0 -38 -9t-32 -31t-29 -58t-28 -90z" />
    <glyph glyph-name="uni0436" unicode="&#x436;" horiz-adv-x="883" 
d="M89 -12q-48 0 -72.5 20t-24.5 52q0 29 18 47t45 18q23 0 38 -13.5t15 -38.5q0 -14 -5 -26.5t-14 -20.5l6 -9q15 4 29.5 15.5t28.5 33.5t27 57t27 88q17 69 24 119t7 91q0 32 -9 44t-23 12q-21 0 -41.5 -21.5t-50.5 -77.5l-36 17q35 72 69 104.5t80 32.5q48 0 77.5 -33.5
t29.5 -106.5q0 -29 -2 -55t-5 -45h69l57 228h108l-57 -228h66q30 113 88 176.5t132 63.5q45 0 71 -19.5t26 -52.5q0 -29 -18 -47t-45 -18q-23 0 -38 13.5t-15 38.5q0 29 18 47l-5 8q-15 -5 -28.5 -15.5t-26.5 -32.5t-26.5 -57t-26.5 -88q-17 -69 -24 -119t-7 -90
q0 -32 10 -44.5t27 -12.5q23 0 43.5 21.5t50.5 77.5l36 -17q-35 -72 -69 -104.5t-81 -32.5q-51 0 -82 33.5t-31 107.5q0 29 2.5 58.5t6.5 55.5h-67l-61 -243h-108l61 243h-65q-15 -58 -37 -105t-51.5 -80.5t-65 -51.5t-75.5 -18z" />
    <glyph glyph-name="uni0437" unicode="&#x437;" horiz-adv-x="452" 
d="M158 -12q-40 0 -70 9t-49.5 24t-29 34.5t-9.5 40.5q0 38 21.5 61.5t53.5 23.5q27 0 41.5 -16.5t14.5 -40.5t-17.5 -43t-43.5 -23l-2 -8q11 -8 28.5 -12.5t44.5 -4.5q55 0 85 21t41 66q4 16 6 29t2 29q0 67 -92 67h-52l14 56h48q44 0 77.5 22.5t40.5 58.5q2 11 3.5 20
t1.5 17q0 55 -69 55q-36 0 -66.5 -19.5t-62.5 -61.5l-34 21q41 62 87.5 90t109.5 28q72 0 109.5 -30t37.5 -78q0 -50 -34 -84.5t-96 -51.5l-2 -8q45 -7 69.5 -33t24.5 -67q0 -39 -17 -74t-48 -61t-73.5 -41.5t-93.5 -15.5z" />
    <glyph glyph-name="uni0438" unicode="&#x438;" horiz-adv-x="592" 
d="M143 -12q-48 0 -70 27t-22 69q0 32 10 66l81 290h-86l12 48l216 44l-115 -415q-3 -12 -3 -22q0 -26 25 -26q23 0 52 24.5t58.5 66.5t55 99t42.5 122l35 139h115l-114 -453l18 -8l101 115l31 -22l-62 -83q-18 -25 -34.5 -40.5t-31 -24.5t-27.5 -12.5t-26 -3.5
q-41 0 -56.5 22t-15.5 48q0 13 3.5 29t5.5 26l14 56l-10 4q-21 -38 -41.5 -71.5t-44.5 -58.5t-52.5 -40t-63.5 -15z" />
    <glyph glyph-name="uni0439" unicode="&#x439;" horiz-adv-x="592" 
d="M143 -12q-48 0 -70 27t-22 69q0 32 10 66l81 290h-86l12 48l216 44l-115 -415q-3 -12 -3 -22q0 -26 25 -26q23 0 52 24.5t58.5 66.5t55 99t42.5 122l35 139h115l-114 -453l18 -8l101 115l31 -22l-62 -83q-18 -25 -34.5 -40.5t-31 -24.5t-27.5 -12.5t-26 -3.5
q-41 0 -56.5 22t-15.5 48q0 13 3.5 29t5.5 26l14 56l-10 4q-21 -38 -41.5 -71.5t-44.5 -58.5t-52.5 -40t-63.5 -15zM378 592q-52 0 -80.5 24t-28.5 61q0 32 19.5 54t52.5 22q26 0 40.5 -14.5t14.5 -38.5q0 -17 -9.5 -32.5t-23.5 -20.5v-7q7 -4 27 -4q38 0 76 26t73 90
l32 -21q-45 -78 -91.5 -108.5t-101.5 -30.5z" />
    <glyph glyph-name="uni043A" unicode="&#x43a;" horiz-adv-x="582" 
d="M375 -12q-35 0 -55 17t-25 58l-25 176l-6 4h-58l-61 -243h-115l110 440h-87l12 48l213 44l-59 -237h32q12 0 24 4.5t25 16.5t27.5 33.5t31.5 56.5q18 35 34 59t33 39t36 21.5t42 6.5q38 0 60 -20t22 -53q0 -32 -20 -56t-54 -24q-26 0 -42 15t-16 38q0 14 5 27t13 21l-7 7
q-16 -11 -32 -34t-40 -72q-25 -50 -42.5 -70t-38.5 -27v-5q35 -5 54 -25t25 -70l15 -117l17 -2l81 93l32 -23l-49 -66q-18 -24 -33 -40t-28 -25t-25.5 -12.5t-25.5 -3.5z" />
    <glyph glyph-name="uni043B" unicode="&#x43b;" horiz-adv-x="599" 
d="M60 -12q-40 0 -64 22t-24 54q0 29 19 51.5t52 22.5q25 0 39.5 -14.5t14.5 -37.5q0 -14 -5.5 -26t-13.5 -19l7 -7q10 3 25 18q12 12 22.5 29t23 48.5t27 81.5t33.5 126l33 132h-72l13 51h364l-112 -453l18 -8l101 115l31 -21l-62 -84q-36 -49 -65.5 -65t-55.5 -16
q-43 0 -61 22.5t-18 49.5q0 12 2.5 26.5t4.5 25.5l88 352h-120l-30 -120q-21 -83 -37 -137.5t-30.5 -89.5t-27.5 -55.5t-28 -35.5q-21 -21 -43.5 -29.5t-48.5 -8.5z" />
    <glyph glyph-name="uni043C" unicode="&#x43c;" horiz-adv-x="798" 
d="M64 -12q-41 0 -64.5 22t-23.5 54q0 29 18.5 51.5t51.5 22.5q25 0 40 -14.5t15 -37.5q0 -14 -6 -26t-14 -19l7 -7q10 3 21 14q9 9 18 25t18.5 43.5t21.5 70t27 104.5l44 178h-72l13 51h204l37 -291h5l185 291h143l-113 -453l18 -8l102 115l31 -21l-63 -84
q-31 -42 -60 -61.5t-61 -19.5q-36 0 -57.5 19.5t-21.5 52.5q0 12 2.5 26t5.5 26l77 307h-5l-49 -82l-219 -342l-45 342l-7 82h-6l-29 -118q-18 -73 -32 -121.5t-26 -79.5t-23 -49t-23 -30q-33 -33 -85 -33z" />
    <glyph glyph-name="uni043D" unicode="&#x43d;" horiz-adv-x="596" 
d="M406 -12q-36 0 -58 18.5t-22 53.5q0 12 2.5 26.5t5.5 25.5l32 127h-161l-60 -239h-115l110 440h-87l12 48l213 44l-59 -237h161l56 225h115l-113 -453l18 -8l102 115l31 -21l-63 -84q-31 -42 -59.5 -61.5t-60.5 -19.5z" />
    <glyph glyph-name="uni043E" unicode="&#x43e;" horiz-adv-x="527" 
d="M204 -12q-85 0 -127 51t-42 138q0 57 19 120t55.5 115t90.5 86t123 34q85 0 127 -51t42 -138q0 -57 -19 -120t-55.5 -115t-90.5 -86t-123 -34zM209 38q49 0 79 40.5t46 102.5q15 58 24.5 96.5t15 62.5t7.5 38t2 25q0 34 -15 56.5t-50 22.5q-25 0 -44.5 -11t-35 -30
t-26.5 -45t-19 -57q-15 -59 -24.5 -97t-15 -62t-7.5 -38.5t-2 -24.5q0 -34 15 -56.5t50 -22.5z" />
    <glyph glyph-name="uni043F" unicode="&#x43f;" horiz-adv-x="594" 
d="M140 440h-86l12 48l203 44l-45 -181l10 -4q21 37 41.5 70.5t44.5 59t52 40.5t64 15q48 0 70 -26.5t22 -69.5q0 -32 -10 -66l-84 -303l18 -8l101 115l31 -22l-62 -83q-35 -46 -64 -63.5t-59 -17.5q-43 0 -60.5 22.5t-17.5 49.5q0 12 2.5 26t5.5 25l81 292q3 12 3 22
q0 26 -25 26q-23 0 -52.5 -24.5t-58.5 -66.5t-55 -99t-42 -123l-35 -138h-115z" />
    <glyph glyph-name="uni0440" unicode="&#x440;" horiz-adv-x="561" 
d="M-73 -149h67l148 589h-86l12 48l201 44l-44 -176l10 -2q18 39 37.5 72t41.5 56.5t48 36.5t58 13q57 0 82.5 -39.5t25.5 -112.5q0 -62 -18.5 -131t-52 -127t-81.5 -96t-108 -38q-46 0 -69 20.5t-32 52.5h-10l-48 -210h90l-13 -51h-272zM234 53q44 0 83 42t64 132
q5 17 10 38.5t8.5 43.5t6 42.5t2.5 35.5q0 31 -6.5 48t-26.5 17q-19 0 -39 -15.5t-39 -40t-37 -55t-32 -61t-24 -58t-14 -45.5l-5 -20q-11 -48 0 -76t49 -28z" />
    <glyph glyph-name="uni0441" unicode="&#x441;" horiz-adv-x="448" 
d="M180 -12q-74 0 -109 42.5t-35 121.5q0 58 16.5 124.5t50 123.5t84.5 94.5t120 37.5q65 0 101.5 -30.5t36.5 -78.5q0 -38 -22 -65.5t-60 -27.5q-29 0 -42.5 17t-13.5 39q0 25 18.5 48.5t59.5 26.5v9q-23 17 -64 17q-21 0 -39.5 -7.5t-35.5 -28t-32.5 -56t-29.5 -91.5
q-12 -45 -20 -89.5t-8 -74.5q0 -82 65 -82q44 0 83 37.5t75 105.5l36 -17q-24 -48 -48.5 -85t-52 -61.5t-60.5 -37t-74 -12.5z" />
    <glyph glyph-name="uni0442" unicode="&#x442;" horiz-adv-x="871" 
d="M140 440h-86l12 48l203 44l-45 -181l10 -4q21 37 41.5 70.5t44 59t51 40.5t62.5 15q43 0 62.5 -25t19.5 -69q0 -20 -5 -48l-9 -39l10 -4q21 37 41.5 70.5t44.5 59t52.5 40.5t63.5 15q49 0 70.5 -27t21.5 -69q0 -32 -10 -66l-84 -303l18 -8l101 115l31 -22l-62 -83
q-35 -47 -64 -64t-59 -17q-43 0 -60.5 22.5t-17.5 49.5q0 12 2.5 26t5.5 25l81 292q3 12 3 22q0 26 -25 26q-23 0 -52 -23.5t-58 -65.5t-55 -99.5t-43 -124.5l-35 -138h-115l101 403q3 12 3 22q0 26 -24 26q-23 0 -52.5 -24.5t-58.5 -67t-54.5 -99.5t-41.5 -122l-35 -138
h-115z" />
    <glyph glyph-name="uni0443" unicode="&#x443;" horiz-adv-x="482" 
d="M0 -212q-42 0 -67.5 19.5t-25.5 51.5q0 29 19 51t51 22q26 0 40.5 -14t14.5 -37q0 -14 -5.5 -28t-14.5 -22l7 -6q33 17 61.5 50t59.5 93l-52 501h-42l12 51h218l-13 -51h-56l22 -346h9l192 346h-55l13 51h162l-13 -51h-39l-320 -534q-25 -41 -48.5 -69.5t-46 -45.5
t-43.5 -24.5t-40 -7.5z" />
    <glyph glyph-name="uni0444" unicode="&#x444;" horiz-adv-x="756" 
d="M149 -212q-50 0 -77.5 20t-27.5 55q0 29 18 47.5t46 18.5q25 0 40.5 -14.5t15.5 -37.5q0 -31 -32 -50l7 -8q38 2 61.5 26.5t37.5 78.5l42 168l-8 3q-31 -54 -62 -78t-69 -24q-49 0 -74.5 35.5t-25.5 104.5q0 79 19.5 150.5t52.5 125.5t76.5 86t91.5 32q63 0 85 -61h7
l24 96q22 87 77.5 135t135.5 48q50 0 77.5 -20t27.5 -55q0 -29 -18 -47.5t-46 -18.5q-24 0 -40 14.5t-16 37.5q0 31 32 50l-7 8q-38 -2 -61.5 -26.5t-37.5 -78.5l-45 -181l8 -3q31 54 62 78t69 24q49 0 74.5 -35.5t25.5 -104.5q0 -80 -19.5 -151.5t-52.5 -125.5t-76.5 -85.5
t-91.5 -31.5q-63 0 -85 61h-7l-21 -83q-22 -87 -77.5 -135t-135.5 -48zM182 67q20 0 41 16.5t40.5 46.5t37 72t29.5 92l19 76q24 98 -38 98q-42 0 -77.5 -46.5t-58.5 -131.5q-13 -48 -19.5 -89.5t-6.5 -67.5q0 -36 7.5 -51t25.5 -15zM445 52q42 0 77.5 46.5t58.5 131.5
q13 48 19.5 89.5t6.5 67.5q0 36 -7.5 51t-25.5 15q-20 0 -41 -16.5t-40.5 -46.5t-37 -72t-29.5 -92l-19 -76q-24 -98 38 -98z" />
    <glyph glyph-name="uni0445" unicode="&#x445;" horiz-adv-x="596" 
d="M403 68l16 -2l82 88l28 -23l-48 -62q-38 -50 -67 -65.5t-55 -15.5q-33 0 -49.5 18.5t-21.5 50.5l-23 135h-7q-13 -39 -25.5 -70.5t-28.5 -56.5q-27 -42 -60.5 -59.5t-65.5 -17.5q-43 0 -65.5 19.5t-22.5 51.5q0 33 20 57.5t55 24.5q26 0 42 -15t16 -38q0 -14 -6 -29
t-15 -23l8 -6q15 4 32 22.5t34 47.5t34.5 67t33.5 82l-52 203l-16 2l-81 -89l-28 24l47 62q39 50 67.5 65.5t54.5 15.5q34 0 50.5 -18.5t21.5 -50.5l22 -135h8q12 39 25 70.5t29 55.5q27 43 60.5 60.5t64.5 17.5q44 0 66 -20t22 -52t-20 -56.5t-54 -24.5q-26 0 -42 15
t-16 38q0 14 6 28.5t14 22.5l-7 7q-15 -5 -32 -23t-34.5 -47t-35 -67t-33.5 -82z" />
    <glyph glyph-name="uni0446" unicode="&#x446;" horiz-adv-x="593" 
d="M329 -189q-8 0 -15 0.5t-12 1.5v33h11q11 0 20 2t18 8t19 16t24 27l113 138l-7 7q-25 -26 -49.5 -41t-45.5 -15t-35 6t-22.5 16t-12 22.5t-3.5 25.5t3 28t6 27l14 56l-10 4q-21 -38 -41.5 -71.5t-44.5 -58.5t-52.5 -40t-63.5 -15q-48 0 -70 27t-22 69q0 32 10 66l81 290
h-86l12 48l216 44l-115 -415q-3 -12 -3 -22q0 -26 25 -26q23 0 52 24.5t58.5 66.5t55 99t42.5 122l35 139h115l-114 -453l18 -8l101 115l31 -20q-13 -19 -22.5 -35t-16 -31.5t-11.5 -32t-9 -36.5q-13 -61 -29 -98.5t-37 -58.5q-24 -24 -56.5 -37.5t-74.5 -13.5z" />
    <glyph glyph-name="uni0447" unicode="&#x447;" horiz-adv-x="561" 
d="M372 -12q-37 0 -58.5 19.5t-21.5 52.5q0 12 2.5 26.5t5.5 25.5l38 156l-10 4q-35 -57 -69.5 -80.5t-74.5 -23.5q-51 0 -77 27.5t-26 73.5q0 19 3.5 38t9.5 43l23 90h-87l12 48l212 44l-47 -189q-6 -23 -8 -35.5t-2 -23.5q0 -35 36 -35q22 0 43.5 12t40 33t33 50.5
t23.5 64.5l28 111h115l-113 -453l19 -8l101 115l31 -21l-62 -84q-60 -81 -120 -81z" />
    <glyph glyph-name="uni0448" unicode="&#x448;" horiz-adv-x="870" 
d="M143 -12q-49 0 -71 26.5t-22 69.5q0 28 11 66l80 290h-86l12 48l217 44l-115 -415q-3 -12 -3 -22q0 -26 24 -26q23 0 52.5 24.5t59 67t55.5 100.5t43 125l34 134h115l-101 -403q-3 -14 -3 -22q0 -26 24 -26q23 0 52 24.5t58 67t54.5 99.5t42.5 122l35 138h115l-113 -453
l18 -8l101 115l31 -21l-62 -84q-32 -42 -60 -61.5t-59 -19.5q-35 0 -54 18.5t-19 51.5q0 14 3 29t6 26l14 56l-10 3q-29 -51 -53.5 -86t-48 -57t-47.5 -31.5t-51 -9.5q-43 0 -62.5 25t-19.5 69q0 11 1 23t4 25l9 39l-9 3q-29 -51 -54 -86.5t-48.5 -57t-48 -31t-51.5 -9.5z
" />
    <glyph glyph-name="uni0449" unicode="&#x449;" horiz-adv-x="870" 
d="M606 -189q-8 0 -15 0.5t-12 1.5v33h11q11 0 20 2t18 8t19 16t24 27l113 138l-7 7q-25 -26 -49 -41t-46 -15q-21 0 -35 6t-22.5 16t-12 22.5t-3.5 25.5q0 14 3 29.5t6 25.5l14 56l-10 4q-21 -38 -41.5 -71.5t-44.5 -58.5t-52.5 -40t-63.5 -15q-42 0 -61 25t-19 69
q0 22 6 48l8 39l-10 4q-21 -38 -41.5 -71.5t-44.5 -58.5t-52.5 -40t-63.5 -15q-48 0 -70 27t-22 69q0 32 10 66l81 290h-86l12 48l216 44l-115 -415q-3 -12 -3 -22q0 -26 25 -26q23 0 52 24.5t58.5 66.5t55 99t42.5 122l35 139h115l-102 -403q-3 -14 -3 -22q0 -26 26 -26
q22 0 51 24.5t58.5 66.5t55 99t42.5 122l35 139h115l-114 -453l18 -8l100 115l31 -21q-14 -19 -23 -34.5t-15.5 -31t-11 -32t-8.5 -36.5q-13 -61 -29 -99t-37 -58q-23 -23 -56 -37t-75 -14z" />
    <glyph glyph-name="uni044A" unicode="&#x44a;" horiz-adv-x="553" 
d="M272 -12q-85 0 -128.5 40.5t-43.5 106.5q0 34 8.5 68t28 69t50.5 72t76 78l-127 24l-15 -10l-34 -102l-36 6l30 125q9 37 27 51.5t43 14.5q28 0 66 -12t103 -36l10 37h57l-8 -31q-3 -12 -7.5 -20.5t-17.5 -22.5q-41 -45 -64 -79.5t-40 -71.5l8 -4q26 23 53.5 35.5
t63.5 12.5q56 0 91.5 -29t35.5 -86q0 -48 -17 -91t-47.5 -75t-72.5 -51t-93 -19zM277 36q35 0 60 28t38 82q6 26 9 46t3 39q0 29 -15 42.5t-41 13.5q-38 0 -68.5 -27.5t-41.5 -68.5q-6 -22 -8 -40.5t-2 -32.5q0 -82 66 -82z" />
    <glyph glyph-name="uni044B" unicode="&#x44b;" horiz-adv-x="759" 
d="M225 -12q-79 0 -122.5 39.5t-43.5 110.5q0 22 4.5 50t15.5 66l50 186h-85l12 48l216 44l-64 -237l8 -4q51 48 112 48q54 0 88.5 -29t34.5 -86q0 -48 -17 -91t-47 -75t-71.5 -51t-90.5 -19zM570 -12q-37 0 -58.5 19.5t-21.5 52.5q0 12 2.5 26.5t5.5 25.5l101 408h116
l-113 -453l18 -8l101 115l32 -21l-63 -84q-60 -81 -120 -81zM230 36q68 0 94 110q6 26 8.5 46t2.5 39q0 56 -49 56q-18 0 -35 -7.5t-31.5 -21t-25 -31t-15.5 -36.5q-10 -41 -10 -75q0 -41 16 -60.5t45 -19.5z" />
    <glyph glyph-name="uni044C" unicode="&#x44c;" horiz-adv-x="512" 
d="M230 -12q-83 0 -127 39.5t-44 110.5q0 22 4.5 50t15.5 66l52 186h-87l12 48l217 44l-65 -237l8 -4q26 24 54 36t63 12q56 0 92 -29t36 -86q0 -48 -17 -91t-48 -75t-73 -51t-93 -19zM235 36q35 0 60.5 28t38.5 82q6 26 8.5 46t2.5 39q0 56 -55 56q-19 0 -37 -7.5
t-32.5 -20t-25.5 -30t-16 -38.5q-5 -22 -7.5 -40.5t-2.5 -32.5q0 -82 66 -82z" />
    <glyph glyph-name="uni044D" unicode="&#x44d;" horiz-adv-x="467" 
d="M149 -12q-37 0 -65 9t-46.5 23.5t-28 33.5t-9.5 40q0 37 21.5 60.5t53.5 23.5q27 0 41.5 -16.5t14.5 -39.5q0 -24 -17.5 -43t-43.5 -23l-2 -8q23 -15 67 -15q25 0 47 8t41 28.5t35.5 56.5t30.5 92l6 26h-159l14 56h157q7 31 10 54t3 48q0 36 -18.5 54t-50.5 18
q-39 0 -72.5 -24t-70.5 -78l-34 19q48 75 95.5 108t112.5 33q75 0 112.5 -42.5t37.5 -122.5t-21.5 -149t-59.5 -120t-90 -80.5t-112 -29.5z" />
    <glyph glyph-name="uni044E" unicode="&#x44e;" horiz-adv-x="772" 
d="M456 -12q-78 0 -120 49t-42 140q0 17 1 32.5t3 29.5h-93l-60 -239h-115l110 440h-87l12 48l213 44l-59 -237h92q16 54 42 98t60.5 75t75 47.5t85.5 16.5q78 0 120 -49t42 -140q0 -72 -22.5 -136.5t-61 -113t-89 -77t-107.5 -28.5zM461 38q42 0 70 34.5t47 108.5
q16 62 25.5 100.5t14.5 62.5t7 37t2 24q0 77 -58 77q-42 0 -70 -34.5t-47 -108.5q-16 -62 -25.5 -100.5t-15 -62.5t-7 -37.5t-1.5 -23.5q0 -77 58 -77z" />
    <glyph glyph-name="uni044F" unicode="&#x44f;" horiz-adv-x="567" 
d="M95 -12q-34 0 -54.5 18t-29.5 57l-17 71l39 13l26 -84h14l55 88q24 39 47 58.5t57 24.5v8q-63 8 -98.5 39t-35.5 76q0 39 17 71.5t48 55.5t75 35.5t97 12.5q47 0 95 -6t90 -17l-110 -442l18 -8l101 115l31 -21l-62 -84q-60 -81 -120 -81q-37 0 -58.5 19.5t-21.5 52.5
q0 12 2.5 26.5t5.5 25.5l27 110h-39l-95 -156q-28 -46 -51.5 -62t-52.5 -16zM396 475q-17 5 -34 7t-40 2q-42 0 -67 -19t-34 -54q-5 -17 -6.5 -30t-1.5 -27q0 -87 97 -87h34z" />
    <glyph glyph-name="uni0450" unicode="&#x450;" horiz-adv-x="467" 
d="M181 -12q-75 0 -110 43t-35 124q0 38 7 81t22 85t38 80t54.5 67.5t71.5 46.5t90 17q27 0 52 -5.5t44.5 -17.5t31.5 -32t12 -49q0 -26 -12.5 -53.5t-44.5 -51.5t-87.5 -41.5t-142.5 -22.5q-7 -32 -11.5 -63.5t-4.5 -54.5q0 -83 65 -83q45 0 84.5 37.5t75.5 105.5l36 -17
q-24 -48 -48 -84.5t-52 -61t-61.5 -37.5t-74.5 -13zM181 296q98 13 137.5 48t39.5 86q0 24 -11.5 39t-38.5 15q-21 0 -38 -9t-32 -31t-29 -58t-28 -90zM246 747l103 38l23 -191l-34 -12z" />
    <glyph glyph-name="uni0451" unicode="&#x451;" horiz-adv-x="467" 
d="M181 -12q-75 0 -110 43t-35 124q0 38 7 81t22 85t38 80t54.5 67.5t71.5 46.5t90 17q27 0 52 -5.5t44.5 -17.5t31.5 -32t12 -49q0 -26 -12.5 -53.5t-44.5 -51.5t-87.5 -41.5t-142.5 -22.5q-7 -32 -11.5 -63.5t-4.5 -54.5q0 -83 65 -83q45 0 84.5 37.5t75.5 105.5l36 -17
q-24 -48 -48 -84.5t-52 -61t-61.5 -37.5t-74.5 -13zM181 296q98 13 137.5 48t39.5 86q0 24 -11.5 39t-38.5 15q-21 0 -38 -9t-32 -31t-29 -58t-28 -90zM249 611q-27 0 -41 16t-14 35q0 8 3 20q5 21 22.5 35.5t43.5 14.5q27 0 40.5 -16t13.5 -35v-9.5t-2 -10.5
q-5 -21 -22.5 -35.5t-43.5 -14.5zM441 611q-27 0 -40.5 16t-13.5 35v9.5t2 10.5q5 21 22.5 35.5t43.5 14.5q27 0 41 -16t14 -35q0 -8 -3 -20q-5 -21 -22.5 -35.5t-43.5 -14.5z" />
    <glyph glyph-name="uni0452" unicode="&#x452;" horiz-adv-x="556" 
d="M189 -212q-53 0 -77.5 19.5t-24.5 51.5q0 29 18 48t47 19q24 0 39 -15t15 -38q0 -12 -6.5 -26t-23.5 -24l7 -8q56 4 88 122l125 466q3 12 3 22q0 26 -25 26q-23 0 -52.5 -24.5t-58.5 -66.5t-55 -99t-42 -123l-35 -138h-115l152 611h-65l14 55h65l20 79l122 25l-28 -104
h146l-14 -55h-147l-71 -260l10 -4q29 52 53.5 87t48.5 57t48 31.5t52 9.5q48 0 70 -26.5t22 -69.5q0 -32 -10 -66l-112 -408q-23 -83 -75.5 -128.5t-127.5 -45.5z" />
    <glyph glyph-name="uni0453" unicode="&#x453;" horiz-adv-x="452" 
d="M166 -12q-67 0 -106 34.5t-39 91.5q0 55 30 96.5t103 77.5l83 40q45 22 63.5 45.5t18.5 51.5q0 49 -61 49q-33 0 -63.5 -17.5t-62.5 -59.5l-33 23q41 59 85.5 85.5t103.5 26.5q66 0 104.5 -33t38.5 -87q0 -55 -32.5 -95t-99.5 -73l-84 -41q-48 -23 -65 -47t-17 -55
q0 -26 16 -40.5t45 -14.5q33 0 67 19t76 70l32 -23q-45 -63 -93 -93.5t-110 -30.5zM304 582l-32 17l102 186l93 -48z" />
    <glyph glyph-name="uni0454" unicode="&#x454;" horiz-adv-x="458" 
d="M187 -12q-77 0 -114 42t-37 123q0 79 22 148.5t59.5 120.5t88.5 80.5t109 29.5q63 0 101 -28.5t38 -76.5q0 -36 -21 -59t-52 -23q-26 0 -40 16t-14 39q0 26 18.5 44t41.5 20l1 8q-10 7 -26 11t-35 4q-54 0 -88 -41.5t-57 -132.5l-5 -23h158l-14 -56h-157
q-9 -38 -12.5 -64t-3.5 -52q0 -36 18 -54t51 -18q45 0 79.5 25t72.5 84l34 -19q-24 -40 -48 -68t-50 -46t-55 -26t-63 -8z" />
    <glyph glyph-name="uni0455" unicode="&#x455;" horiz-adv-x="400" 
d="M111 -12q-65 0 -92 21t-27 53q0 26 16.5 46.5t48.5 20.5q24 0 39 -14t15 -39q0 -13 -5 -27.5t-14 -23.5l5 -8q52 6 84.5 29.5t32.5 67.5q0 21 -7.5 38t-19.5 33t-27 32t-31 34q-20 23 -34.5 49t-14.5 62q0 40 16 72t44 53.5t65.5 33t79.5 11.5q63 0 89.5 -21.5
t26.5 -53.5q0 -25 -16.5 -45.5t-48.5 -20.5q-24 0 -39 14t-15 39q0 13 5 27.5t14 23.5l-5 8q-50 -6 -77 -30.5t-27 -66.5q0 -22 7.5 -39t19.5 -33t27 -31.5t31 -33.5q17 -20 32.5 -46.5t15.5 -64.5q0 -41 -17.5 -72.5t-47 -53t-68 -33t-81.5 -11.5z" />
    <glyph glyph-name="uni0456" unicode="&#x456;" horiz-adv-x="320" 
d="M128 -12q-43 0 -61 22t-18 50q0 12 3 26.5t5 24.5l82 329h-86l12 48l213 44l-116 -465l18 -8l101 115l31 -22l-62 -83q-36 -49 -66 -65t-56 -16zM245 621q-31 0 -47 16.5t-16 37.5q0 11 3 23q6 26 27 42t50 16q31 0 47 -16.5t16 -37.5q0 -11 -3 -23q-6 -26 -27 -42
t-50 -16z" />
    <glyph glyph-name="uni0457" unicode="&#x457;" horiz-adv-x="320" 
d="M128 -12q-43 0 -61 22t-18 50q0 12 3 26.5t5 24.5l82 329h-86l12 48l213 44l-116 -465l18 -8l101 115l31 -22l-62 -83q-36 -49 -66 -65t-56 -16zM135 611q-27 0 -41 16t-14 35q0 8 3 20q5 21 22.5 35.5t43.5 14.5q27 0 40.5 -16t13.5 -35v-9.5t-2 -10.5
q-5 -21 -22.5 -35.5t-43.5 -14.5zM327 611q-27 0 -40.5 16t-13.5 35v9.5t2 10.5q5 21 22.5 35.5t43.5 14.5q27 0 41 -16t14 -35q0 -8 -3 -20q-5 -21 -22.5 -35.5t-43.5 -14.5z" />
    <glyph glyph-name="uni0458" unicode="&#x458;" horiz-adv-x="294" 
d="M-62 -212q-54 0 -78.5 20t-24.5 50q0 27 16.5 47.5t47.5 20.5q26 0 40.5 -15t14.5 -38q0 -12 -7 -26t-23 -24l6 -8q34 2 51.5 31.5t31.5 83.5l127 510h-86l12 48l213 44l-142 -569q-21 -85 -74 -130t-125 -45zM246 621q-31 0 -47 16.5t-16 37.5q0 11 3 23q6 26 27 42
t50 16q31 0 47 -16.5t16 -37.5q0 -11 -3 -23q-6 -26 -27 -42t-50 -16z" />
    <glyph glyph-name="uni0459" unicode="&#x459;" horiz-adv-x="785" 
d="M60 -12q-40 0 -64 22t-24 54q0 29 19 51.5t52 22.5q25 0 39.5 -14.5t14.5 -37.5q0 -14 -5.5 -26t-13.5 -19l7 -7q10 3 25 18q12 12 22.5 29t23 48.5t27 81.5t33.5 126l33 132h-72l13 51h357l-56 -225l8 -4q51 48 112 48q54 0 88.5 -29t34.5 -86q0 -48 -17 -91t-47 -75
t-71.5 -51t-91.5 -19q-78 0 -120 39.5t-42 110.5q0 38 21 118l52 208h-113l-30 -120q-21 -83 -37 -137.5t-30.5 -89.5t-27.5 -55.5t-28 -35.5q-21 -21 -43.5 -29.5t-48.5 -8.5zM512 36q29 0 54 24t41 86q6 25 8.5 45.5t2.5 39.5q0 29 -13.5 42.5t-36.5 13.5
q-18 0 -34.5 -7.5t-30 -21t-24 -31t-15.5 -36.5q-6 -22 -8.5 -40.5t-2.5 -34.5q0 -41 16 -60.5t43 -19.5z" />
    <glyph glyph-name="uni045A" unicode="&#x45a;" horiz-adv-x="772" 
d="M140 440h-87l12 48l213 44l-59 -237h144l56 225h115l-56 -225l8 -4q51 48 112 48q54 0 88.5 -29t34.5 -86q0 -48 -17 -91t-47 -75t-71.5 -51t-91.5 -19q-78 0 -120 39.5t-42 110.5q0 18 4.5 43t12.5 58h-144l-60 -239h-115zM499 36q29 0 54 24t41 86q6 25 8.5 45.5
t2.5 39.5q0 29 -13.5 42.5t-36.5 13.5q-18 0 -34.5 -7.5t-30 -21t-24 -31t-15.5 -36.5q-6 -22 -8.5 -40.5t-2.5 -34.5q0 -41 16 -60.5t43 -19.5z" />
    <glyph glyph-name="uni045B" unicode="&#x45b;" horiz-adv-x="580" 
d="M280 611l-70 -260l10 -4q21 37 41.5 70.5t44.5 59t52 40.5t64 15q48 0 70 -26.5t22 -69.5q0 -32 -10 -66l-85 -303l18 -8l102 115l31 -22l-63 -83q-35 -49 -65 -65t-58 -16q-41 0 -59 22.5t-18 49.5q0 12 2.5 26t5.5 25l81 292q3 12 3 22q0 26 -24 26q-23 0 -52.5 -24.5
t-59 -66.5t-55.5 -99t-42 -123l-35 -138h-115l152 611h-65l14 55h65l20 79l122 25l-29 -104h145l-14 -55h-146z" />
    <glyph glyph-name="uni045C" unicode="&#x45c;" horiz-adv-x="582" 
d="M375 -12q-35 0 -55 17t-25 58l-25 176l-6 4h-58l-61 -243h-115l110 440h-87l12 48l213 44l-59 -237h32q12 0 24 4.5t25 16.5t27.5 33.5t31.5 56.5q18 35 34 59t33 39t36 21.5t42 6.5q38 0 60 -20t22 -53q0 -32 -20 -56t-54 -24q-26 0 -42 15t-16 38q0 14 5 27t13 21l-7 7
q-16 -11 -32 -34t-40 -72q-25 -50 -42.5 -70t-38.5 -27v-5q35 -5 54 -25t25 -70l15 -117l17 -2l81 93l32 -23l-49 -66q-18 -24 -33 -40t-28 -25t-25.5 -12.5t-25.5 -3.5zM357 582l-32 17l102 186l93 -48z" />
    <glyph glyph-name="uni045D" unicode="&#x45d;" horiz-adv-x="592" 
d="M143 -12q-48 0 -70 27t-22 69q0 32 10 66l81 290h-86l12 48l216 44l-115 -415q-3 -12 -3 -22q0 -26 25 -26q23 0 52 24.5t58.5 66.5t55 99t42.5 122l35 139h115l-114 -453l18 -8l101 115l31 -22l-62 -83q-18 -25 -34.5 -40.5t-31 -24.5t-27.5 -12.5t-26 -3.5
q-41 0 -56.5 22t-15.5 48q0 13 3.5 29t5.5 26l14 56l-10 4q-21 -38 -41.5 -71.5t-44.5 -58.5t-52.5 -40t-63.5 -15zM285 747l103 38l23 -191l-34 -12z" />
    <glyph glyph-name="uni045E" unicode="&#x45e;" horiz-adv-x="482" 
d="M0 -212q-42 0 -67.5 19.5t-25.5 51.5q0 29 19 51t51 22q26 0 40.5 -14t14.5 -37q0 -14 -5.5 -28t-14.5 -22l7 -6q33 17 61.5 50t59.5 93l-52 501h-42l12 51h218l-13 -51h-56l22 -346h9l192 346h-55l13 51h162l-13 -51h-39l-320 -534q-25 -41 -48.5 -69.5t-46 -45.5
t-43.5 -24.5t-40 -7.5zM353 592q-52 0 -80.5 24t-28.5 61q0 32 19.5 54t52.5 22q26 0 40.5 -14.5t14.5 -38.5q0 -17 -9.5 -32.5t-23.5 -20.5v-7q7 -4 27 -4q38 0 76 26t73 90l32 -21q-45 -78 -91.5 -108.5t-101.5 -30.5z" />
    <glyph glyph-name="uni045F" unicode="&#x45f;" horiz-adv-x="593" 
d="M142 -12q-48 0 -70 27t-22 69q0 32 10 66l81 290h-86l12 48l216 44l-115 -415q-3 -12 -3 -22q0 -26 25 -26q23 0 52 24.5t58.5 66.5t55 99t42.5 122l35 139h115l-114 -453l18 -8l101 115l31 -22l-62 -83q-18 -25 -34.5 -40.5t-31 -24.5t-27.5 -12.5t-26 -3.5
q-41 0 -56.5 22t-15.5 48q0 14 3.5 29.5t5.5 25.5l14 56l-10 4q-21 -38 -41.5 -71.5t-44.5 -58.5t-52.5 -40t-63.5 -15zM103 -181q13 0 23 7.5t24 30.5l57 92q18 27 32 41l27 -13q-8 -16 -11 -38q-8 -52 -19.5 -79t-28.5 -44q-31 -31 -88 -31q-8 0 -15 0.5t-12 1.5v32h11z
" />
    <glyph glyph-name="uni0472" unicode="&#x472;" horiz-adv-x="690" 
d="M287 -12q-56 0 -100 17.5t-74 50.5t-45.5 80t-15.5 105q0 43 10 95t31 104t53 100.5t75 86.5t98 60.5t123 22.5q56 0 100 -17.5t74 -50.5t45.5 -80t15.5 -105q0 -43 -10 -95t-31 -104t-52.5 -100.5t-75 -86.5t-98.5 -60.5t-123 -22.5zM224 441q-7 -25 -14 -56h327
q6 27 10.5 47t6.5 35t3 27t1 25q0 63 -34 97.5t-94 34.5q-75 0 -125.5 -51.5t-80.5 -158.5zM299 47q75 0 125.5 51.5t80.5 158.5q4 14 7.5 29t10.5 44h-327q-8 -33 -13 -56t-7.5 -39.5t-3.5 -29.5t-1 -26q0 -63 34 -97.5t94 -34.5z" />
    <glyph glyph-name="uni0473" unicode="&#x473;" horiz-adv-x="527" 
d="M204 -12q-85 0 -127 51t-42 138q0 57 19 120t55.5 115t90.5 86t123 34q85 0 127 -51t42 -138q0 -57 -19 -120t-55.5 -115t-90.5 -86t-123 -34zM318 482q-45 0 -75 -34.5t-51 -108.5q-8 -27 -13 -49h183q13 49 17.5 73.5t4.5 39.5q0 79 -66 79zM209 38q45 0 75 34.5
t51 108.5q4 14 8 29t7 28h-183q-7 -28 -11.5 -47.5t-7.5 -33.5t-4 -23.5t-1 -16.5q0 -79 66 -79z" />
    <glyph glyph-name="uni0490" unicode="&#x490;" horiz-adv-x="539" 
d="M-13 52h66l148 594h-66l13 52h374l40 160h99l-54 -216h-284l-147 -590h90l-13 -52h-279z" />
    <glyph glyph-name="uni0491" unicode="&#x491;" horiz-adv-x="483" 
d="M147 469h-62l13 51h312l38 150h89l-52 -206h-224l-116 -464h-115z" />
    <glyph glyph-name="uni0492" unicode="&#x492;" horiz-adv-x="539" 
d="M-13 52h66l69 275h-79l13 55h79l66 264h-66l13 52h473l-44 -178h-92l30 122h-192l-65 -260h192l-14 -55h-192l-68 -275h90l-13 -52h-279z" />
    <glyph glyph-name="uni0493" unicode="&#x493;" horiz-adv-x="489" 
d="M95 236h-73l13 53h73l45 180h-62l13 51h402l-39 -154h-77l25 98h-148l-43 -175h128l-13 -53h-129l-59 -236h-115z" />
    <glyph glyph-name="uni0494" unicode="&#x494;" horiz-adv-x="624" 
d="M-13 52h66l148 594h-66l13 52h473l-44 -178h-92l30 122h-192l-71 -285h4q29 11 60 18t66 7q91 0 138.5 -34.5t47.5 -102.5q0 -23 -4 -47t-15 -68l-28 -114q-21 -87 -79 -133.5t-143 -46.5h-76l14 52h89q52 36 72 119l31 132q10 42 14 65t4 41q0 79 -98 79
q-33 0 -60.5 -6.5t-51.5 -17.5l-61 -248h66l-12 -52h-256z" />
    <glyph glyph-name="uni0495" unicode="&#x495;" horiz-adv-x="520" 
d="M133 -149h80q52 33 73 113l40 160q6 23 8 34t2 20q0 38 -41 38q-42 0 -77 -32.5t-51 -97.5l-22 -86h-115l117 469h-62l13 51h402l-39 -154h-77l25 98h-148l-63 -252l11 -3q31 45 65 66t76 21q50 0 76 -27.5t26 -76.5q0 -31 -12 -77l-35 -140q-22 -86 -76 -130.5
t-137 -44.5h-72z" />
    <glyph glyph-name="uni0496" unicode="&#x496;" horiz-adv-x="995" 
d="M829 0h-87l-97 323l-6 4h-73l-68 -275h66l-13 -52h-254l13 52h67l68 275h-71l-6 -4l-247 -323h-170l14 52h60l193 253q29 37 52 50.5t53 13.5l-18 170q-3 37 -8.5 61.5t-13 39.5t-17 22t-22.5 10l-4 -8q18 -17 18 -47q0 -29 -18 -49t-53 -20q-29 0 -45.5 17.5t-16.5 45.5
q0 43 32 71t81 28q58 0 89 -37.5t40 -129.5l17 -159h76l65 262h-66l13 52h253l-13 -52h-66l-65 -262h76l118 202q20 36 40 59.5t40 38t41 20.5t44 6q45 0 71 -24.5t26 -62.5q0 -31 -18.5 -53t-53.5 -22q-26 0 -43.5 15.5t-17.5 43.5q0 14 7 29t21 24l-2 8q-24 -5 -46 -28
t-51 -75l-115 -196q21 -5 34.5 -20.5t23.5 -50.5l74 -242h91l-55 -220h-98z" />
    <glyph glyph-name="uni0497" unicode="&#x497;" horiz-adv-x="883" 
d="M89 -12q-48 0 -72.5 20t-24.5 52q0 29 18 47t45 18q23 0 38 -13.5t15 -38.5q0 -14 -5 -26.5t-14 -20.5l6 -9q15 4 29.5 15.5t28.5 33.5t27 57t27 88q17 69 24 119t7 91q0 32 -9 44t-23 12q-21 0 -41.5 -21.5t-50.5 -77.5l-36 17q35 72 69 104.5t80 32.5q48 0 77.5 -33.5
t29.5 -106.5q0 -29 -2 -55t-5 -45h69l57 228h108l-57 -228h66q30 113 88 176.5t132 63.5q45 0 71 -19.5t26 -52.5q0 -29 -18 -47t-45 -18q-23 0 -38 13.5t-15 38.5q0 29 18 47l-5 8q-15 -5 -28.5 -15.5t-26.5 -32.5t-26.5 -57t-26.5 -88q-17 -69 -24 -119t-7 -90
q0 -32 10 -44.5t27 -12.5q23 0 43.5 21.5t50.5 77.5l36 -17q-7 -13 -12 -23.5t-9 -22.5t-7.5 -26t-7.5 -34q-13 -61 -29 -99t-37 -58q-23 -23 -56 -37t-75 -14q-8 0 -15 0.5t-12 1.5v33h11q22 0 38.5 10.5t42.5 42.5l109 131l-6 7q-25 -28 -46 -38.5t-44 -10.5
q-48 0 -78 33.5t-30 107.5q0 29 2.5 58.5t6.5 55.5h-67l-61 -243h-108l61 243h-65q-15 -58 -37 -105t-51.5 -80.5t-65 -51.5t-75.5 -18z" />
    <glyph glyph-name="uni0498" unicode="&#x498;" horiz-adv-x="594" 
d="M197 -11q-78 5 -125.5 41t-47.5 90q0 38 22 62t56 24q28 0 44.5 -15t16.5 -40q0 -28 -17.5 -45.5t-48.5 -22.5l-3 -8q15 -14 40.5 -23.5t70.5 -9.5q80 0 126.5 33.5t63.5 99.5q5 20 9 39t4 35q0 37 -22.5 57.5t-77.5 20.5h-94l15 59h89q48 0 87 31t53 89q5 20 7 33.5
t2 25.5q0 40 -25.5 63t-70.5 23q-57 0 -98.5 -32t-53.5 -80l-13 -51h-89l53 210h89l-15 -60h4q58 72 163 72q40 0 73.5 -10.5t56.5 -30t36 -46.5t13 -61q0 -75 -47.5 -126t-128.5 -72l-2 -8q119 -30 119 -132q0 -41 -15.5 -79t-45.5 -68.5t-73.5 -52t-99.5 -30.5l-39 -154
h-98z" />
    <glyph glyph-name="uni0499" unicode="&#x499;" horiz-adv-x="452" 
d="M122 -10q-62 8 -92 38.5t-30 66.5q0 38 21.5 61.5t53.5 23.5q27 0 41.5 -16.5t14.5 -39.5q0 -25 -17.5 -43.5t-43.5 -22.5l-2 -8q11 -8 28.5 -12.5t44.5 -4.5q50 0 82.5 19.5t43.5 67.5q4 16 6 29t2 29q0 35 -23.5 50.5t-68.5 15.5h-52l14 56h48q43 0 77 23t41 59
q2 11 3.5 20t1.5 17q0 55 -69 55q-36 0 -66.5 -19.5t-62.5 -61.5l-34 21q41 62 87.5 90t109.5 28q72 0 109.5 -30t37.5 -78q0 -50 -34 -85.5t-96 -51.5l-2 -8q45 -8 69.5 -33t24.5 -66q0 -34 -13 -64.5t-36.5 -55.5t-56 -42.5t-72.5 -24.5l-35 -143h-90z" />
    <glyph glyph-name="uni049A" unicode="&#x49a;" horiz-adv-x="690" 
d="M524 0h-87l-113 323l-7 5h-72l-69 -276h66l-12 -52h-256l13 52h66l148 594h-66l13 52h256l-14 -52h-66l-65 -262h75l134 204q23 34 43.5 57.5t40.5 38t40 20.5t43 6q45 0 71 -24.5t26 -62.5q0 -31 -18.5 -53t-53.5 -22q-26 0 -43.5 15.5t-17.5 43.5q0 14 7 29t21 24l-2 8
q-10 -2 -19.5 -7t-21 -16.5t-26 -30.5t-33.5 -49l-129 -196q23 -6 37.5 -22.5t26.5 -51.5l84 -239h92l-54 -216h-98z" />
    <glyph glyph-name="uni049B" unicode="&#x49b;" horiz-adv-x="582" 
d="M140 440h-87l12 48l213 44l-59 -237h32q12 0 24 4.5t25 16.5t27.5 33.5t31.5 56.5q18 35 34 59t33 39t36 21.5t42 6.5q38 0 60 -20t22 -53q0 -32 -20 -56t-54 -24q-26 0 -42 15t-16 38q0 14 5 27t13 21l-7 7q-16 -11 -32 -34t-40 -72q-25 -50 -42.5 -70t-38.5 -27v-5
q35 -5 54 -25t25 -70l15 -117l17 -2l81 93l31 -21q-12 -16 -19.5 -30.5t-13.5 -29.5t-10 -31t-8 -36q-14 -63 -27 -96t-33 -52q-24 -23 -56.5 -37t-74.5 -14q-8 0 -14.5 0.5t-11.5 1.5v33h10q11 0 20 2t18 8t19 16t24 27l107 133l-6 6q-28 -29 -47 -39.5t-39 -10.5
q-34 0 -53.5 17t-24.5 58l-25 176l-6 4h-58l-61 -243h-115z" />
    <glyph glyph-name="uni049C" unicode="&#x49c;" horiz-adv-x="705" 
d="M-13 52h66l148 594h-66l13 52h256l-14 -52h-66l-65 -262h33l38 152h57l-38 -152h24l127 202q22 35 42 59t39.5 38.5t40 20.5t43.5 6q46 0 72 -24.5t26 -62.5q0 -31 -18.5 -53t-53.5 -22q-26 0 -43.5 15.5t-17.5 43.5q0 14 7 29t21 24l-2 8q-10 -2 -19.5 -7t-21 -16.5
t-25.5 -31t-33 -49.5l-122 -195q23 -6 36.5 -21t25.5 -53l79 -243h62l-13 -52h-158l-105 323l-6 5h-21l-37 -151h-57l37 151h-33l-69 -276h66l-12 -52h-256z" />
    </font>
</defs>
</svg>
