<?xml version="1.0" standalone="no"?>
<!DOCTYPE svg PUBLIC "-//W3C//DTD SVG 1.1//EN" "http://www.w3.org/Graphics/SVG/1.1/DTD/svg11.dtd" >
<svg xmlns="http://www.w3.org/2000/svg" xmlns:xlink="http://www.w3.org/1999/xlink" version="1.1">
<metadata>
Created by FontForge 20170731 at Fri Feb 16 16:54:28 2018
 By Aleksey,,,
Copyright 2018 IBM Corp. All rights reserved.
</metadata>
<defs>
<font id="IBMPlexSerif" horiz-adv-x="600" >
  <font-face 
    font-family="IBM Plex Serif"
    font-weight="400"
    font-stretch="normal"
    units-per-em="1000"
    panose-1="2 6 5 3 5 4 6 0 2 3"
    ascent="780"
    descent="-220"
    x-height="516"
    cap-height="698"
    bbox="-265 -250 1257 1127"
    underline-thickness="48"
    underline-position="-148"
    unicode-range="U+000D-FB02"
  />
<missing-glyph horiz-adv-x="464" 
d="M32 0v780h400v-780h-400zM80 48h304v684h-304v-684z" />
    <glyph glyph-name="fi" unicode="fi" horiz-adv-x="649" 
d="M45 48h75v416h-75v52h75v28q0 104 61.5 165t179.5 61q86 0 129.5 -26.5t43.5 -68.5q0 -26 -16.5 -42.5t-40.5 -16.5q-23 0 -37.5 15t-14.5 35q0 18 8 30.5t22 17.5v2q-14 5 -32 9t-59 4q-38 0 -67 -13t-48.5 -36.5t-29.5 -55t-10 -68.5v-40h161l165 12v-480h75v-48h-239
v48h75v416h-237v-416h75v-48h-239v48z" />
    <glyph glyph-name="fl" unicode="fl" horiz-adv-x="650" 
d="M45 48h75v416h-75v52h75v52q0 46 16 83.5t45 64t69.5 40.5t89.5 14q41 0 66 -5t45 -13l89 18v-722h75v-48h-239v48h75v658q-22 10 -47.5 13.5t-54.5 3.5q-66 0 -103 -36.5t-37 -99.5v-71h115v-52h-115v-416h75v-48h-239v48z" />
    <glyph glyph-name=".notdef" horiz-adv-x="464" 
d="M32 0v780h400v-780h-400zM80 48h304v684h-304v-684z" />
    <glyph glyph-name=".null" horiz-adv-x="0" 
 />
    <glyph glyph-name=".null" horiz-adv-x="0" 
 />
    <glyph glyph-name="uni000D" unicode="&#xd;" horiz-adv-x="212" 
 />
    <glyph glyph-name="space" unicode=" " horiz-adv-x="232" 
 />
    <glyph glyph-name="exclam" unicode="!" horiz-adv-x="284" 
d="M142 -12q-31 0 -48.5 19t-17.5 45v6q0 26 17.5 45t48.5 19t48.5 -19t17.5 -45v-6q0 -26 -17.5 -45t-48.5 -19zM98 495v203h88v-203l-26 -310h-36z" />
    <glyph glyph-name="quotedbl" unicode="&#x22;" horiz-adv-x="420" 
d="M82 650v90h79v-90l-23 -190h-33zM259 650v90h79v-90l-23 -190h-33z" />
    <glyph glyph-name="numbersign" unicode="#" horiz-adv-x="707" 
d="M190 209h-131v52h140l30 176h-131v52h140l36 209h60l-36 -209h158l36 209h60l-36 -209h131v-52h-140l-30 -176h131v-52h-140l-36 -209h-60l36 209h-158l-36 -209h-60zM259 261h158l30 176h-158z" />
    <glyph glyph-name="dollar" unicode="$" horiz-adv-x="604" 
d="M282 -6q-96 3 -151.5 38t-55.5 89q0 33 18 52.5t49 19.5q32 0 48.5 -19t16.5 -45q0 -23 -12 -39t-33 -25v-3q17 -6 48 -11.5t74 -6.5v276q-100 25 -153.5 72t-53.5 132q0 39 15 70.5t42 54.5t65 36.5t83 17.5v77h54v-77q85 -5 134.5 -39.5t49.5 -86.5q0 -33 -18 -52.5
t-49 -19.5q-32 0 -48.5 19t-16.5 45q0 23 12 39t33 25v3q-14 6 -38.5 11t-59.5 7v-252q103 -26 154 -74t51 -129q0 -84 -52.5 -138t-150.5 -65v-78h-55v76zM284 653q-63 -6 -96 -36.5t-33 -75.5q0 -48 31 -78.5t98 -47.5v238zM335 46q65 8 97 42t32 89q0 101 -129 131v-262z
" />
    <glyph glyph-name="percent" unicode="%" horiz-adv-x="933" 
d="M228 356q86 0 86 116v80q0 116 -86 116t-86 -116v-80q0 -116 86 -116zM705 30q86 0 86 116v80q0 116 -86 116t-86 -116v-80q0 -116 86 -116zM228 314q-76 0 -119.5 50.5t-43.5 147.5t43.5 147.5t119.5 50.5t119.5 -50.5t43.5 -147.5t-43.5 -147.5t-119.5 -50.5zM705 -12
q-76 0 -119.5 50.5t-43.5 147.5t43.5 147.5t119.5 50.5t119.5 -50.5t43.5 -147.5t-43.5 -147.5t-119.5 -50.5zM677 698h63l-484 -698h-63z" />
    <glyph glyph-name="ampersand" unicode="&#x26;" horiz-adv-x="724" 
d="M304 -12q-54 0 -100 12.5t-79 37t-51.5 59.5t-18.5 80q0 70 40.5 115t107.5 80l-19 21q-31 33 -49.5 71.5t-18.5 85.5q0 73 51.5 116.5t140.5 43.5q41 0 74 -10.5t56.5 -29t36 -44.5t12.5 -56q0 -31 -14 -58.5t-38.5 -51.5t-57 -45t-68.5 -39l197 -213q18 35 28 76.5
t14 89.5h-73v50h208v-50h-81q-5 -59 -20.5 -110t-41.5 -93l32 -35q22 -23 47.5 -33t69.5 -10v-48h-72q-40 0 -67 11.5t-50 36.5l-12 13q-36 -35 -82 -54t-102 -19zM279 409q66 34 97 68.5t31 76.5v13q0 40 -27 66.5t-76 26.5q-50 0 -76 -30t-26 -72v-10q0 -37 21 -69t49 -62
zM310 43q46 0 82.5 13.5t63.5 39.5l-223 243q-25 -15 -41 -32t-25 -35.5t-12.5 -39.5t-3.5 -44v-17q0 -61 44.5 -94.5t114.5 -33.5z" />
    <glyph glyph-name="quotesingle" unicode="'" horiz-adv-x="243" 
d="M82 650v90h79v-90l-23 -190h-33z" />
    <glyph glyph-name="parenleft" unicode="(" horiz-adv-x="329" 
d="M308 -156q-44 27 -88 72.5t-79.5 105.5t-58 133.5t-22.5 156.5t22.5 156.5t58 133.5t79.5 105.5t88 72.5l25 -33q-42 -31 -74.5 -74t-55 -94t-34.5 -108.5t-12 -117.5v-82q0 -60 12 -117.5t34.5 -108.5t55 -94t74.5 -74l-25 -33v0z" />
    <glyph glyph-name="parenright" unicode=")" horiz-adv-x="329" 
d="M-4 -123q42 31 74.5 74t55 94t34.5 108.5t12 117.5v82q0 60 -12 117.5t-34.5 108.5t-55 94t-74.5 74l25 33q44 -27 88 -72.5t79.5 -105.5t58 -133.5t22.5 -156.5t-22.5 -156.5t-58 -133.5t-79.5 -105.5t-88 -72.5z" />
    <glyph glyph-name="asterisk" unicode="*" horiz-adv-x="451" 
d="M84 431l29 41l80 65l22 -16l-38 -95l-29 -41zM84 565l-48 15l24 75l48 -15l85 -54l-9 -26zM186 697v50h79v-50l-26 -97h-27zM274 426l-38 95l22 16l80 -65l29 -41l-64 -46zM258 586l85 54l48 15l24 -75l-48 -15l-100 -5z" />
    <glyph glyph-name="plus" unicode="+" 
d="M270 277h-203v56h203v201h60v-201h203v-56h-203v-201h-60v201z" />
    <glyph glyph-name="comma" unicode="," horiz-adv-x="272" 
d="M44 -133q34 29 58 60.5t31 60.5h-2q-29 0 -45 19t-16 44v6q0 27 18 46t48 19q31 0 48.5 -20t17.5 -49v-10q0 -22 -8 -46.5t-22 -48t-33 -45t-41 -36.5h-54v0z" />
    <glyph glyph-name="hyphen" unicode="-" horiz-adv-x="401" 
d="M66 342h269v-74h-269v74z" />
    <glyph glyph-name="period" unicode="." horiz-adv-x="272" 
d="M136 -12q-31 0 -48.5 19t-17.5 45v6q0 26 17.5 45t48.5 19t48.5 -19t17.5 -45v-6q0 -26 -17.5 -45t-48.5 -19z" />
    <glyph glyph-name="slash" unicode="/" horiz-adv-x="373" 
d="M270 740h61l-261 -891h-61z" />
    <glyph glyph-name="zero" unicode="0" 
d="M300 40q41 0 69.5 16.5t46 46.5t25.5 72.5t8 95.5v156q0 52 -8 95t-25.5 73t-46 46.5t-69.5 16.5t-69.5 -16.5t-46 -46.5t-25.5 -73t-8 -95v-156q0 -53 8 -95.5t25.5 -72.5t46 -46.5t69.5 -16.5zM300 -12q-121 0 -186 93.5t-65 267.5t65 267.5t186 93.5t186 -93.5
t65 -267.5t-65 -267.5t-186 -93.5z" />
    <glyph glyph-name="one" unicode="1" horiz-adv-x="575" 
d="M87 48h168v576l-174 -78l-16 46l200 106h82v-650h164v-48h-424v48z" />
    <glyph glyph-name="two" unicode="2" 
d="M56 70l224 223q50 50 77 100t27 111v21q0 62 -35.5 98t-97.5 36q-33 0 -57 -6.5t-39 -14.5v-2q13 -5 25 -21t12 -39q0 -29 -17.5 -47t-46.5 -18t-46 19t-17 51q0 26 15.5 49.5t42.5 41t64 28t79 10.5q102 0 161 -51t59 -140q0 -46 -13.5 -83.5t-36 -70.5t-53 -62.5
t-64.5 -58.5l-183 -156v-4h326v93h52v-177h-458v70z" />
    <glyph glyph-name="three" unicode="3" 
d="M270 -12q-48 0 -86.5 11.5t-65.5 29.5t-41.5 41t-14.5 47q0 32 17.5 51t46.5 19t46 -18t17 -47q0 -22 -12 -38.5t-25 -21.5v-2q16 -9 42.5 -15t62.5 -6q78 0 121 34.5t43 99.5v34q0 62 -39.5 96t-115.5 34h-80v55h74q72 0 109 33t37 84v39q0 56 -35 83.5t-95 27.5
q-35 0 -61.5 -6t-42.5 -15v-2q14 -6 25.5 -22.5t11.5 -37.5q0 -29 -17.5 -47t-46.5 -18t-46 19t-17 51q0 24 14 47t40 41t63 29.5t83 11.5t87 -11t72 -32.5t49 -54.5t18 -78q0 -34 -12.5 -61t-33 -47t-47.5 -34t-55 -21v-4q29 -6 58 -19.5t52.5 -35t38 -52t14.5 -69.5
q0 -48 -18.5 -85.5t-52 -63.5t-80 -40t-102.5 -14z" />
    <glyph glyph-name="four" unicode="4" 
d="M364 161h-324v62l330 475h83v-468h99v-69h-99v-161h-89v161zM103 230h261v366h-4z" />
    <glyph glyph-name="five" unicode="5" 
d="M268 -12q-46 0 -83 11.5t-63 29.5t-40 41t-14 47q0 32 17.5 51t46.5 19t46 -18t17 -46q0 -21 -10.5 -37t-26.5 -22v-4q16 -9 42.5 -15t61.5 -6q83 0 123 41t40 111v21q0 72 -37.5 113.5t-109.5 41.5q-45 0 -75.5 -20t-45.5 -45l-58 12l25 384h371v-90h-327l-18 -266h4
q18 35 57 62t96 27q46 0 86 -13.5t70 -41.5t47 -69.5t17 -98.5q0 -48 -19 -88.5t-53 -70t-82 -45.5t-105 -16z" />
    <glyph glyph-name="six" unicode="6" 
d="M301 -12q-115 0 -176.5 74t-61.5 209q0 93 29 168.5t80 131.5t120 91.5t149 47.5l13 -44q-63 -12 -115 -42t-89.5 -73t-60.5 -98t-28 -116l6 -1q8 17 21.5 34.5t33.5 31.5t47 23t61 9q48 0 86 -16t65 -44.5t41.5 -69.5t14.5 -90q0 -50 -18 -91.5t-49.5 -71.5t-75 -46.5
t-93.5 -16.5zM300 40q37 0 63.5 12.5t43 34t24 50.5t7.5 63v17q0 34 -7.5 63t-24 50.5t-43 34t-63.5 12.5t-63.5 -12.5t-43 -34t-24 -50.5t-7.5 -63v-17q0 -34 7.5 -63t24 -50.5t43 -34t63.5 -12.5z" />
    <glyph glyph-name="seven" unicode="7" 
d="M465 608h-345v-111h-52v201h462v-65l-266 -633h-76z" />
    <glyph glyph-name="eight" unicode="8" 
d="M300 -12q-57 0 -102 14.5t-75.5 40.5t-47 63t-16.5 81q0 38 14 68t36.5 52t51.5 35t59 18v8q-27 4 -52.5 18t-45 35.5t-31 49.5t-11.5 60q0 41 16 74t45 56.5t69.5 36t89.5 12.5t89.5 -12.5t69.5 -36t45 -56.5t16 -74q0 -32 -12 -60t-31.5 -49.5t-44.5 -35.5t-52 -18v-8
q30 -5 59 -18t51.5 -35t36.5 -52t14 -68q0 -44 -16.5 -81t-47 -63t-75.5 -40.5t-102 -14.5zM300 38q35 0 61.5 11t44.5 30.5t27.5 45t9.5 55.5v20q0 30 -9.5 55.5t-27.5 45t-44.5 30.5t-61.5 11t-61.5 -11t-44.5 -30.5t-27.5 -45t-9.5 -55.5v-20q0 -30 9.5 -55.5t27.5 -45
t44.5 -30.5t61.5 -11zM300 391q32 0 55 11t38 29t22 41.5t7 48.5v11q0 25 -7 48.5t-22 41.5t-38 29t-55 11t-55 -11t-38 -29t-22 -41.5t-7 -48.5v-11q0 -25 7 -48.5t22 -41.5t38 -29t55 -11z" />
    <glyph glyph-name="nine" unicode="9" 
d="M146 32q63 12 115 42t89.5 73t60.5 97.5t28 116.5l-6 1q-8 -17 -21.5 -34.5t-33.5 -31.5t-47 -23t-61 -9q-48 0 -86 16t-65 44.5t-41.5 69t-14.5 90.5t18 91.5t49.5 71.5t75 46.5t93.5 16.5q115 0 176.5 -74t61.5 -209q0 -93 -29 -168.5t-80 -131.5t-120 -91.5
t-149 -47.5zM300 321q37 0 63.5 12.5t43 34t24 50.5t7.5 63v17q0 34 -7.5 63t-24 50.5t-43 34t-63.5 12.5t-63.5 -12.5t-43 -34t-24 -50.5t-7.5 -63v-17q0 -34 7.5 -63t24 -50.5t43 -34t63.5 -12.5z" />
    <glyph glyph-name="colon" unicode=":" horiz-adv-x="292" 
d="M146 -12q-31 0 -48.5 19t-17.5 45v6q0 26 17.5 45t48.5 19t48.5 -19t17.5 -45v-6q0 -26 -17.5 -45t-48.5 -19zM146 390q-31 0 -48.5 19t-17.5 45v6q0 26 17.5 45t48.5 19t48.5 -19t17.5 -45v-6q0 -26 -17.5 -45t-48.5 -19z" />
    <glyph glyph-name="semicolon" unicode=";" horiz-adv-x="292" 
d="M54 -133q34 29 58 60.5t31 60.5h-2q-29 0 -45 19t-16 44v6q0 27 18 46t48 19q31 0 48.5 -20t17.5 -49v-10q0 -22 -8 -46.5t-22 -48t-33 -45t-41 -36.5h-54v0zM146 390q-31 0 -48.5 19t-17.5 45v6q0 26 17.5 45t48.5 19t48.5 -19t17.5 -45v-6q0 -26 -17.5 -45t-48.5 -19z
" />
    <glyph glyph-name="less" unicode="&#x3c;" 
d="M90 232v70l419 244v-64l-356 -211v-8l356 -211v-64z" />
    <glyph glyph-name="equal" unicode="=" 
d="M67 229h466v-56h-466v56zM67 437h466v-56h-466v56z" />
    <glyph glyph-name="greater" unicode="&#x3e;" 
d="M90 52l356 211v8l-356 211v64l419 -244v-70l-419 -244v64z" />
    <glyph glyph-name="question" unicode="?" horiz-adv-x="493" 
d="M170 373q40 2 73.5 12t58 27.5t38 43t13.5 58.5v22q0 59 -34 91t-89 32q-35 0 -58 -6.5t-39 -14.5v-2q11 -5 24 -21t13 -39q0 -27 -17 -46t-46 -19t-46.5 18.5t-17.5 51.5q0 26 16 49.5t43.5 41t64 28t77.5 10.5q46 0 84 -13t65 -37t42 -57.5t15 -74.5q0 -45 -17.5 -81.5
t-47.5 -63t-70.5 -42.5t-86.5 -20v-113h-58v165zM200 -12q-31 0 -48.5 19t-17.5 45v6q0 26 17.5 45t48.5 19t48.5 -19t17.5 -45v-6q0 -26 -17.5 -45t-48.5 -19z" />
    <glyph glyph-name="at" unicode="@" horiz-adv-x="942" 
d="M462 -121q-86 0 -156.5 29t-120.5 82.5t-77.5 129t-27.5 168.5t28 170.5t79 133.5t122.5 87t159.5 31t160.5 -29t124 -81t80 -124t28.5 -158q0 -51 -9.5 -96t-30 -79t-53 -54t-79.5 -20q-54 0 -81.5 24t-32.5 62h-4q-20 -40 -49 -63t-75 -23q-34 0 -65 13.5t-54 40.5
t-37 68.5t-14 97.5t14 97.5t37 68.5t54 40.5t65 13.5q46 0 73 -22.5t41 -54.5h4l30 68h40v-314q0 -76 59 -76q51 0 77 47t26 148v46q0 66 -21.5 123.5t-63.5 100t-103 67t-140 24.5q-78 0 -139 -27t-102.5 -73.5t-63 -109.5t-21.5 -135v-59q0 -73 22 -134.5t63 -105.5
t100.5 -69t133.5 -25h231v-31q-54 -8 -109.5 -13t-122.5 -5zM460 123q54 0 80 25t26 71v140q0 46 -26 71t-80 25t-79 -31t-25 -83v-104q0 -52 25 -83t79 -31z" />
    <glyph glyph-name="A" unicode="A" horiz-adv-x="701" 
d="M16 48h53l230 650h103l230 -650h53v-48h-244v48h90l-63 179h-274l-61 -179h90v-48h-207v48zM209 277h244l-117 344h-7z" />
    <glyph glyph-name="B" unicode="B" horiz-adv-x="685" 
d="M55 48h76v602h-76v48h343q90 0 141.5 -45.5t51.5 -119.5q0 -37 -11.5 -66.5t-31 -50.5t-44 -33.5t-49.5 -16.5v-4q26 -2 55 -12.5t53 -31.5t39.5 -51.5t15.5 -72.5q0 -44 -14 -80t-39.5 -61.5t-60 -39t-74.5 -13.5h-375v48zM225 52h170q58 0 91 33t33 86v44q0 53 -33 86
t-91 33h-170v-282zM225 386h154q53 0 83 30.5t30 78.5v42q0 48 -30 78.5t-83 30.5h-154v-260z" />
    <glyph glyph-name="C" unicode="C" horiz-adv-x="662" 
d="M349 -12q-68 0 -123 25.5t-94 72.5t-60.5 113.5t-21.5 149.5q0 86 21.5 153.5t60.5 113.5t93 70t119 24q63 0 108 -20.5t59 -52.5h4v61h77v-204h-77v51q0 49 -44 79t-115 30q-54 0 -92 -19.5t-62.5 -52t-35.5 -75.5t-11 -90v-128q0 -53 14.5 -95.5t42 -73.5t67.5 -47.5
t91 -16.5q71 0 120 37t71 93l41 -20q-9 -29 -29 -60t-51.5 -57.5t-74.5 -43.5t-98 -17z" />
    <glyph glyph-name="D" unicode="D" horiz-adv-x="724" 
d="M55 48h76v602h-76v48h301q70 0 128.5 -21.5t100.5 -65t65.5 -109t23.5 -153.5t-23.5 -153.5t-65.5 -109t-100.5 -65t-128.5 -21.5h-301v48zM225 52h121q51 0 92 17t70.5 48t45 74t15.5 96v124q0 52 -15.5 95.5t-45 74.5t-70.5 48t-92 17h-121v-594z" />
    <glyph glyph-name="E" unicode="E" horiz-adv-x="658" 
d="M55 48h76v602h-76v48h533v-170h-77v118h-286v-261h197v80h64v-212h-64v80h-197v-281h296v128h77v-180h-543v48z" />
    <glyph glyph-name="F" unicode="F" horiz-adv-x="643" 
d="M55 48h76v602h-76v48h533v-170h-77v118h-286v-276h197v80h64v-212h-64v80h-197v-270h96v-48h-266v48z" />
    <glyph glyph-name="G" unicode="G" horiz-adv-x="735" 
d="M347 -12q-67 0 -121.5 25t-93.5 71.5t-60.5 113.5t-21.5 151q0 87 21.5 154.5t61.5 113t96.5 69.5t126.5 24q82 0 126.5 -22t57.5 -52h5v62h77v-204h-77v47q0 56 -47 84.5t-129 28.5q-56 0 -96 -17t-66.5 -48.5t-39 -75t-12.5 -95.5v-136q0 -52 14.5 -95t41 -73.5t64 -47
t83.5 -16.5q39 0 71.5 9.5t56.5 28.5t37.5 46t13.5 63v93h-125v48h283v-48h-64v-290h-35l-53 95h-4q-8 -19 -23.5 -38t-39.5 -34.5t-56 -25t-73 -9.5z" />
    <glyph glyph-name="H" unicode="H" horiz-adv-x="806" 
d="M55 48h76v602h-76v48h246v-48h-76v-269h356v269h-76v48h246v-48h-76v-602h76v-48h-246v48h76v281h-356v-281h76v-48h-246v48z" />
    <glyph glyph-name="I" unicode="I" horiz-adv-x="356" 
d="M55 48h76v602h-76v48h246v-48h-76v-602h76v-48h-246v48z" />
    <glyph glyph-name="J" unicode="J" horiz-adv-x="471" 
d="M158 -12q-72 0 -107.5 27.5t-35.5 70.5q0 29 17 48.5t47 19.5q27 0 42 -17t15 -43q0 -21 -10.5 -33.5t-21.5 -16.5v-3q19 -6 54 -6q98 0 98 119v496h-96v48h266v-48h-76v-487q0 -88 -50.5 -131.5t-141.5 -43.5z" />
    <glyph glyph-name="K" unicode="K" horiz-adv-x="725" 
d="M55 48h76v602h-76v48h246v-48h-76v-328h4l91 102l212 226h-81v48h223v-48h-69l-217 -230l244 -372h71v-48h-249v48h71l-203 306l-97 -103v-203h76v-48h-246v48z" />
    <glyph glyph-name="L" unicode="L" horiz-adv-x="608" 
d="M55 48h76v602h-76v48h246v-48h-76v-598h256v128h77v-180h-503v48z" />
    <glyph glyph-name="M" unicode="M" horiz-adv-x="891" 
d="M55 48h76v602h-76v48h185l204 -433h4l215 433h173v-48h-76v-602h76v-48h-246v48h76v542h-4l-41 -91l-198 -392l-175 365l-54 118h-4v-542h76v-48h-211v48z" />
    <glyph glyph-name="N" unicode="N" horiz-adv-x="796" 
d="M55 48h76v602h-76v48h178l379 -551h4v503h-76v48h211v-48h-76v-650h-72l-409 595h-4v-547h76v-48h-211v48z" />
    <glyph glyph-name="O" unicode="O" horiz-adv-x="734" 
d="M367 44q52 0 91.5 18.5t66.5 51.5t40.5 77.5t13.5 97.5v120q0 52 -13.5 97t-40.5 78t-66.5 51.5t-91.5 18.5t-91.5 -18.5t-66.5 -51.5t-40.5 -78t-13.5 -97v-120q0 -53 13.5 -97.5t40.5 -77.5t66.5 -51.5t91.5 -18.5zM367 -12q-71 0 -129.5 25t-100 72t-64.5 114t-23 150
t23 150t64.5 114t100 72t129.5 25t129.5 -25t100 -72t64.5 -114t23 -150t-23 -150t-64.5 -114t-100 -72t-129.5 -25z" />
    <glyph glyph-name="P" unicode="P" horiz-adv-x="639" 
d="M55 48h76v602h-76v48h334q98 0 150 -47.5t52 -139.5t-53.5 -142t-150.5 -50h-162v-271h96v-48h-266v48zM225 371h157q53 0 81.5 32.5t28.5 80.5v49q0 48 -28.5 80.5t-81.5 32.5h-157v-275z" />
    <glyph glyph-name="Q" unicode="Q" horiz-adv-x="734" 
d="M526 -173q-30 0 -52 3.5t-38.5 11.5t-30.5 21t-27 33l-67 96q-60 9 -108 38t-82 75t-52.5 107.5t-18.5 136.5q0 83 23 150t64.5 114t100 72t129.5 25t129.5 -25t100 -72t64.5 -114t23 -150q0 -77 -19.5 -139.5t-55 -108.5t-85.5 -74.5t-112 -35.5l46 -62
q12 -16 21.5 -26.5t19.5 -16.5t22.5 -8.5t30.5 -2.5h30v-48h-56zM367 44q52 0 91.5 18.5t66.5 51.5t40.5 77.5t13.5 97.5v120q0 52 -13.5 97t-40.5 78t-66.5 51.5t-91.5 18.5t-91.5 -18.5t-66.5 -51.5t-40.5 -78t-13.5 -97v-120q0 -53 13.5 -97.5t40.5 -77.5t66.5 -51.5
t91.5 -18.5z" />
    <glyph glyph-name="R" unicode="R" horiz-adv-x="688" 
d="M55 48h76v602h-76v48h335q95 0 148 -46t53 -139q0 -70 -39.5 -117.5t-116.5 -62.5l118 -214q20 -37 46 -54t64 -17h8v-48h-68q-30 0 -50.5 5.5t-36 17t-27.5 28.5t-24 40l-125 229h-115v-272h76v-48h-246v48zM225 372h156q53 0 82 32.5t29 80.5v48q0 48 -29 80.5
t-82 32.5h-156v-274z" />
    <glyph glyph-name="S" unicode="S" horiz-adv-x="601" 
d="M302 -12q-61 0 -102 19t-57 52h-6v-59h-77v204h77v-44q0 -25 8 -46t25.5 -36.5t46 -24.5t69.5 -9q88 0 126 36t38 97q0 51 -28.5 80.5t-92.5 46.5l-55 14q-94 24 -147.5 72t-53.5 134q0 42 16.5 76.5t46.5 59t71.5 37.5t91.5 13q57 0 93.5 -16.5t52.5 -47.5h6v52h77v-194
h-77v44q0 24 -7.5 44t-25 33.5t-47 21t-72.5 7.5q-70 0 -104.5 -31t-34.5 -82t31 -81.5t100 -48.5l51 -13q91 -23 142.5 -71t51.5 -128q0 -46 -15.5 -84.5t-45.5 -66.5t-73.5 -44t-99.5 -16z" />
    <glyph glyph-name="T" unicode="T" horiz-adv-x="668" 
d="M191 48h96v598h-175v-118h-77v170h598v-170h-77v118h-175v-598h96v-48h-286v48z" />
    <glyph glyph-name="U" unicode="U" horiz-adv-x="751" 
d="M384 -12q-70 0 -120 15t-81.5 49t-46.5 87t-15 130v381h-76v48h246v-48h-76v-398q0 -51 9 -89.5t29.5 -64t53.5 -38t82 -12.5q99 0 140.5 51t41.5 153v398h-76v48h211v-48h-76v-367q0 -76 -12.5 -131.5t-41.5 -92t-76 -54t-116 -17.5z" />
    <glyph glyph-name="V" unicode="V" horiz-adv-x="677" 
d="M74 650h-53v48h242v-48h-90l102 -304l80 -255h4l82 255l97 304h-90v48h208v-48h-53l-218 -650h-93z" />
    <glyph glyph-name="W" unicode="W" horiz-adv-x="987" 
d="M76 650h-53v48h242v-48h-90l129 -542h4l154 590h91l158 -590h4l131 542h-90v48h208v-48h-53l-168 -650h-89l-161 576h-4l-155 -576h-90z" />
    <glyph glyph-name="X" unicode="X" horiz-adv-x="684" 
d="M18 48h61l214 291l-210 311h-61v48h247v-48h-73l159 -242h4l167 242h-65v48h199v-48h-61l-210 -286l214 -316h61v-48h-247v48h73l-162 246h-4l-170 -246h65v-48h-201v48z" />
    <glyph glyph-name="Y" unicode="Y" horiz-adv-x="648" 
d="M181 48h96v233l-204 369h-53v48h249v-48h-90l162 -305h4l165 305h-90v48h208v-48h-53l-204 -364v-238h96v-48h-286v48z" />
    <glyph glyph-name="Z" unicode="Z" horiz-adv-x="651" 
d="M60 52l408 594h-322v-118h-77v170h508v-52l-408 -594h340v128h77v-180h-526v52z" />
    <glyph glyph-name="bracketleft" unicode="[" horiz-adv-x="282" 
d="M55 760h202v-48h-119v-802h119v-48h-202v898z" />
    <glyph glyph-name="backslash" unicode="\" horiz-adv-x="372" 
d="M41 740h61l261 -891h-61z" />
    <glyph glyph-name="bracketright" unicode="]" horiz-adv-x="282" 
d="M25 -90h119v802h-119v48h202v-898h-202v48z" />
    <glyph glyph-name="asciicircum" unicode="^" 
d="M57 340l206 358h74l206 -358l-48 -26l-193 321h-4l-193 -321z" />
    <glyph glyph-name="underscore" unicode="_" horiz-adv-x="576" 
d="M25 -100h526v-58h-526v58z" />
    <glyph glyph-name="grave" unicode="`" 
d="M178 738l84 41l73 -180l-29 -14z" />
    <glyph glyph-name="a" unicode="a" horiz-adv-x="558" 
d="M206 -12q-73 0 -114.5 37.5t-41.5 102.5q0 37 12.5 66t40.5 48t73 29t110 10h73v74q0 60 -29.5 92.5t-89.5 32.5q-23 0 -45.5 -4t-36.5 -12v-2q12 -7 23 -19t11 -35q0 -28 -16 -43t-43 -15q-26 0 -42 15.5t-16 45.5q0 22 13 43t38 37.5t62 26.5t84 10q83 0 129.5 -42
t46.5 -118v-322h75v-38q-11 -8 -30 -14t-43 -6q-42 0 -64 23t-22 61v3h-5q-8 -17 -19.5 -32.5t-29.5 -27.5t-43.5 -19.5t-60.5 -7.5zM244 46q24 0 44.5 6t36.5 18t25 30t9 43v95h-64q-43 0 -72 -6t-46 -18t-24.5 -30t-7.5 -42v-20q0 -38 26 -57t73 -19z" />
    <glyph glyph-name="b" unicode="b" horiz-adv-x="613" 
d="M347 -12q-62 0 -101 25.5t-56 62.5h-4l-51 -76h-35v689l-75 14v36l164 31v-331h4q17 37 54.5 63t99.5 26q49 0 88.5 -17.5t68 -52t44 -84.5t15.5 -116t-15.5 -116t-44 -84.5t-68 -52t-88.5 -17.5zM321 48q69 0 107 45.5t38 121.5v86q0 76 -38 121.5t-107 45.5
q-24 0 -48 -7t-42.5 -19.5t-30 -31.5t-11.5 -43v-218q0 -24 11.5 -43t30 -31.5t42.5 -19.5t48 -7z" />
    <glyph glyph-name="c" unicode="c" horiz-adv-x="529" 
d="M286 -12q-57 0 -102 19.5t-76 55t-47 85.5t-16 110q0 61 18 111t51 85.5t79 54.5t101 19q42 0 76 -9.5t57.5 -26t36.5 -40t13 -50.5q0 -33 -18 -52.5t-49 -19.5q-32 0 -48.5 19.5t-16.5 45.5q0 23 12 39.5t33 25.5v3q-12 7 -33 11.5t-53 4.5q-35 0 -64.5 -13t-50.5 -35.5
t-33 -53.5t-12 -67v-76q0 -40 11 -73t31 -56t49 -36t65 -13q62 0 97.5 25t56.5 66l35 -22q-10 -27 -27 -51.5t-42 -43.5t-58.5 -30.5t-75.5 -11.5z" />
    <glyph glyph-name="d" unicode="d" horiz-adv-x="623" 
d="M266 -12q-49 0 -88.5 17.5t-68 52t-44 84.5t-15.5 116t15.5 116t44 84.5t68 52t88.5 17.5q62 0 99.5 -26t54.5 -63h4v250l-75 14v36l164 31v-701l75 -14v-36l-164 -31v88h-4q-17 -37 -54.5 -62.5t-99.5 -25.5zM292 48q24 0 48 7t42.5 19.5t30 31.5t11.5 43v218
q0 24 -11.5 43t-30 31.5t-42.5 19.5t-48 7q-69 0 -107 -45.5t-38 -121.5v-86q0 -76 38 -121.5t107 -45.5z" />
    <glyph glyph-name="e" unicode="e" horiz-adv-x="549" 
d="M286 -12q-57 0 -102 19.5t-76 55t-47 85.5t-16 110t18 109.5t49.5 85.5t74.5 55.5t94 19.5q52 0 93.5 -18t70 -50.5t44 -77.5t15.5 -98v-24h-360v-25q0 -83 42.5 -131t113.5 -48q63 0 100 25t58 66l35 -22q-10 -27 -27.5 -51.5t-43.5 -43.5t-60 -30.5t-76 -11.5zM144 308
h266v11q0 34 -7.5 63t-23 50.5t-40 33.5t-58.5 12t-59.5 -11.5t-43 -32.5t-26 -49.5t-8.5 -62.5v-14z" />
    <glyph glyph-name="f" unicode="f" horiz-adv-x="356" 
d="M45 48h75v416h-75v52h75v88q0 37 12.5 67.5t35 52.5t53 34t67.5 12q57 0 90 -21t33 -63q0 -26 -15.5 -42.5t-39.5 -16.5q-23 0 -37.5 15t-14.5 35q0 36 28 47v2q-7 2 -16 3t-20 1q-42 0 -64.5 -30t-22.5 -84v-100h115v-52h-115v-416h95v-48h-259v48z" />
    <glyph glyph-name="g" unicode="g" horiz-adv-x="559" 
d="M267 -212q-62 0 -104.5 9t-69 25t-38.5 39t-12 51q0 20 9.5 36.5t24.5 29t34.5 22t39.5 14.5v4q-65 23 -65 87q0 40 26 63t61 33v5q-48 20 -76.5 58.5t-28.5 93.5q0 39 15.5 70.5t42.5 53.5t64 34t81 12q48 0 82.5 -12.5t58.5 -29.5q0 30 6.5 49t17 30t24 15.5t28.5 4.5
q23 0 38.5 -13.5t15.5 -36.5q0 -22 -14 -35.5t-40 -13.5q-13 0 -25 4.5t-20 14.5h-3v-45q12 -15 23.5 -39.5t11.5 -62.5q0 -39 -15.5 -70.5t-42.5 -53.5t-64.5 -34t-81.5 -12q-14 0 -27 1.5t-26 3.5q-26 -5 -47 -20.5t-21 -38.5q0 -26 19.5 -35t64.5 -9h120q90 0 133.5 -36
t43.5 -103q0 -73 -66.5 -118t-197.5 -45zM271 233q54 0 81.5 28t27.5 78v38q0 50 -27 78t-81 28t-81.5 -28t-27.5 -78v-38q0 -50 27 -78t81 -28zM121 -83q0 -39 34.5 -58t92.5 -19h48q75 0 118 24t43 65q0 37 -26 56t-91 19h-160q-32 -15 -45.5 -37.5t-13.5 -49.5z" />
    <glyph glyph-name="h" unicode="h" horiz-adv-x="640" 
d="M35 48h75v641l-75 14v36l164 31v-331h4q6 15 18.5 31t31 29t43.5 21t56 8q96 0 137 -48.5t41 -145.5v-286h75v-48h-239v48h75v279q0 71 -29 106t-92 35q-22 0 -43.5 -6t-39 -18.5t-28 -31t-10.5 -43.5v-321h75v-48h-239v48z" />
    <glyph glyph-name="i" unicode="i" horiz-adv-x="324" 
d="M169 632q-27 0 -42 16t-15 39v6q0 23 15 39t42 16t42 -16t15 -39v-6q0 -23 -15 -39t-42 -16zM50 48h75v399l-75 14v36l164 31v-480h75v-48h-239v48z" />
    <glyph glyph-name="j" unicode="j" horiz-adv-x="314" 
d="M62 -212q-51 0 -76.5 23t-25.5 58q0 23 14 38.5t38 15.5q23 0 35.5 -13.5t12.5 -35.5q0 -15 -6.5 -26.5t-16.5 -14.5v-3q9 -4 25 -4q63 0 63 79v542l-75 14v36l164 31v-576q0 -83 -40 -123.5t-112 -40.5zM169 632q-27 0 -42 16t-15 39v6q0 23 15 39t42 16t42 -16t15 -39
v-6q0 -23 -15 -39t-42 -16z" />
    <glyph glyph-name="k" unicode="k" horiz-adv-x="599" 
d="M35 48h75v641l-75 14v36l164 31v-531h5l85 94l125 135h-69v48h223v-48h-76l-144 -147l182 -273h57v-48h-221v48h64l-143 214l-88 -90v-124h75v-48h-239v48z" />
    <glyph glyph-name="l" unicode="l" horiz-adv-x="309" 
d="M35 48h75v641l-75 14v36l164 31v-722h75v-48h-239v48z" />
    <glyph glyph-name="m" unicode="m" horiz-adv-x="974" 
d="M50 48h75v399l-75 14v36l161 31v-90h4q6 16 18.5 32t31.5 29t43.5 21t54.5 8q68 0 107.5 -25t54.5 -76h4q8 17 21 35t32.5 32.5t45.5 24t60 9.5q95 0 135.5 -49t40.5 -146v-285h75v-48h-239v48h75v279q0 141 -118 141q-22 0 -43.5 -6t-38 -18.5t-26.5 -31.5t-10 -44v-320
h75v-48h-239v48h75v279q0 141 -118 141q-22 0 -43.5 -6t-38 -18.5t-26.5 -31.5t-10 -44v-320h75v-48h-239v48z" />
    <glyph glyph-name="n" unicode="n" horiz-adv-x="655" 
d="M50 48h75v399l-75 14v36l161 31v-90h4q6 15 19 31t32 29t44.5 21.5t56.5 8.5q96 0 137 -48.5t41 -145.5v-286h75v-48h-239v48h75v279q0 71 -29 106t-92 35q-22 0 -43.5 -6t-39 -18.5t-28 -31t-10.5 -43.5v-321h75v-48h-239v48z" />
    <glyph glyph-name="o" unicode="o" horiz-adv-x="578" 
d="M289 40q37 0 64.5 12.5t44.5 34t25.5 51t8.5 63.5v114q0 34 -8.5 63.5t-25.5 51t-44.5 34t-64.5 12.5q-38 0 -65 -12.5t-44 -34t-25.5 -51t-8.5 -63.5v-114q0 -34 8.5 -63.5t25.5 -51t44 -34t65 -12.5zM289 -12q-55 0 -100 19.5t-77 54.5t-49.5 85t-17.5 111t17.5 111
t49.5 85t77 54.5t100 19.5t100 -19.5t77 -54.5t49.5 -85t17.5 -111t-17.5 -111t-49.5 -85t-77 -54.5t-100 -19.5z" />
    <glyph glyph-name="p" unicode="p" horiz-adv-x="628" 
d="M40 -152h75v599l-75 14v36l164 31v-89h4q17 37 54.5 63t99.5 26q49 0 88.5 -17.5t68 -52t44 -84.5t15.5 -116t-15.5 -116t-44 -84.5t-68 -52t-88.5 -17.5q-62 0 -99.5 25.5t-54.5 62.5h-4v-228h95v-48h-259v48zM336 48q69 0 107 45.5t38 121.5v86q0 76 -38 121.5
t-107 45.5q-24 0 -48 -7t-42.5 -19.5t-30 -31.5t-11.5 -43v-218q0 -24 11.5 -43t30 -31.5t42.5 -19.5t48 -7z" />
    <glyph glyph-name="q" unicode="q" horiz-adv-x="613" 
d="M329 -152h95v228h-4q-17 -37 -54.5 -62.5t-99.5 -25.5q-49 0 -88.5 17.5t-68 52t-44 84.5t-15.5 116t15.5 116t44 84.5t68 52t88.5 17.5q62 0 101 -25.5t56 -62.5h4l51 76h35v-668h75v-48h-259v48zM292 48q24 0 48 7t42.5 19.5t30 31.5t11.5 43v218q0 24 -11.5 43
t-30 31.5t-42.5 19.5t-48 7q-69 0 -107 -45.5t-38 -121.5v-86q0 -76 38 -121.5t107 -45.5z" />
    <glyph glyph-name="r" unicode="r" horiz-adv-x="458" 
d="M50 48h75v399l-75 14v36l161 31v-89h5q7 16 18 31.5t26.5 28.5t36.5 21t48 8q46 0 74.5 -22t28.5 -64q0 -32 -16 -49.5t-42 -17.5q-29 0 -46 15.5t-17 38.5q0 22 9 34.5t21 14.5v2q-5 1 -10.5 1.5t-15.5 0.5q-21 0 -42 -10t-37.5 -26.5t-27 -37t-10.5 -40.5v-320h95v-48
h-259v48z" />
    <glyph glyph-name="s" unicode="s" horiz-adv-x="499" 
d="M258 -12q-24 0 -45 5.5t-37.5 14t-28.5 19.5t-18 23h-4v-50h-65v156h65v-20q0 -42 26.5 -68.5t89.5 -26.5q57 0 88.5 18.5t31.5 63.5q0 33 -21.5 55.5t-62.5 30.5l-62 13q-76 16 -114.5 54.5t-38.5 104.5q0 69 48 108t130 39q48 0 79 -14.5t41 -38.5h4v41h65v-156h-65v39
q0 38 -27 57.5t-85 19.5q-51 0 -79.5 -19t-28.5 -59q0 -34 23 -57t62 -31l58 -12q79 -17 118.5 -54.5t39.5 -103.5q0 -32 -13 -59.5t-37 -48t-58.5 -32.5t-78.5 -12z" />
    <glyph glyph-name="t" unicode="t" horiz-adv-x="363" 
d="M210 -6q-57 0 -78.5 22.5t-21.5 77.5v370h-67v52h8q22 0 35 3t21 8.5t12 14t7 19.5l25 89h48v-134h135v-52h-135v-412h135v-35q-17 -10 -52.5 -16.5t-71.5 -6.5z" />
    <glyph glyph-name="u" unicode="u" horiz-adv-x="635" 
d="M283 -12q-96 0 -137 48.5t-41 146.5v264l-75 14v36l164 31v-338q0 -72 29 -107t92 -35q22 0 43.5 6t38.5 18.5t28 31t11 43.5v300l-75 14v36l164 31v-459l75 -14v-36l-161 -31v90h-4q-6 -15 -19 -31t-32 -29t-44.5 -21.5t-56.5 -8.5z" />
    <glyph glyph-name="v" unicode="v" horiz-adv-x="549" 
d="M55 468h-53v48h221v-48h-71l140 -370h4l135 370h-71v48h187v-48h-53l-186 -468h-67z" />
    <glyph glyph-name="w" unicode="w" horiz-adv-x="795" 
d="M61 468h-53v48h214v-48h-71l103 -383h4l125 431h75l115 -431h4l104 383h-71v48h177v-48h-53l-132 -468h-87l-110 398h-4l-122 -398h-86z" />
    <glyph glyph-name="x" unicode="x" horiz-adv-x="572" 
d="M31 48h58l152 203l-155 217h-52v48h218v-48h-58l110 -159h4l105 159h-62v48h186v-48h-58l-144 -200l155 -220h52v-48h-219v48h58l-109 162h-4l-112 -162h62v-48h-187v48z" />
    <glyph glyph-name="y" unicode="y" horiz-adv-x="549" 
d="M127 -212q-53 0 -77 22.5t-24 58.5q0 27 14.5 43.5t42.5 16.5q24 0 37.5 -14t13.5 -38q0 -17 -9 -28t-19 -14v-3q11 -4 26 -4q26 0 51 22t45 72l22 56l-195 490h-53v48h221v-48h-71l141 -370h4l134 370h-71v48h187v-48h-53l-220 -555q-21 -53 -57.5 -89t-89.5 -36z" />
    <glyph glyph-name="z" unicode="z" horiz-adv-x="521" 
d="M50 36l298 430h-225v-106h-65v156h405v-36l-298 -430h241v106h65v-156h-421v36z" />
    <glyph glyph-name="braceleft" unicode="{" horiz-adv-x="328" 
d="M200 -138q-42 0 -63 23.5t-21 58.5v252q0 44 -28.5 66.5t-72.5 22.5v52q44 0 72.5 22.5t28.5 66.5v252q0 35 21 58.5t63 23.5h98v-48h-99v-268q0 -24 -9 -45t-25 -38.5t-36.5 -29t-42.5 -15.5v-10q22 -4 42.5 -15.5t36.5 -29t25 -38.5t9 -45v-268h99v-48h-98v0z" />
    <glyph glyph-name="bar" unicode="|" horiz-adv-x="304" 
d="M123 760h58v-898h-58v898z" />
    <glyph glyph-name="braceright" unicode="}" horiz-adv-x="328" 
d="M30 -90h99v268q0 24 9 45t25 38.5t36 29t43 15.5v10q-23 4 -43 15.5t-36 29t-25 38.5t-9 45v268h-99v48h98q42 0 63 -23.5t21 -58.5v-252q0 -44 28.5 -66.5t72.5 -22.5v-52q-44 0 -72.5 -22.5t-28.5 -66.5v-252q0 -35 -21 -58.5t-63 -23.5h-98v48z" />
    <glyph glyph-name="asciitilde" unicode="~" 
d="M419 242q-37 0 -65.5 10t-63.5 27q-28 14 -55 24t-58 10q-25 0 -44.5 -7.5t-42.5 -24.5l-26 35q20 25 46 40t71 15q37 0 65.5 -10t63.5 -27q28 -14 55 -24t58 -10q25 0 44.5 7.5t42.5 24.5l26 -35q-20 -25 -46 -40t-71 -15z" />
    <glyph glyph-name="uni00A0" unicode="&#xa0;" horiz-adv-x="232" 
 />
    <glyph glyph-name="exclamdown" unicode="&#xa1;" horiz-adv-x="284" 
d="M142 394q-31 0 -48.5 19t-17.5 45v6q0 26 17.5 45t48.5 19t48.5 -19t17.5 -45v-6q0 -26 -17.5 -45t-48.5 -19zM98 21l26 310h36l26 -310v-203h-88v203z" />
    <glyph glyph-name="cent" unicode="&#xa2;" horiz-adv-x="529" 
d="M257 -11q-51 5 -90.5 26.5t-66.5 56.5t-41 82t-14 104q0 56 15.5 102.5t43 81t66.5 56.5t87 28v104h55v-102q77 -5 121 -39.5t44 -86.5q0 -32 -17.5 -50t-48.5 -18q-29 0 -45.5 18t-16.5 44q0 21 12 36t33 24v3q-14 8 -34.5 14t-49.5 6v-423q57 2 90.5 27t53.5 64l35 -22
q-9 -24 -24.5 -47t-37 -41.5t-50.5 -31t-65 -16.5v-103h-55v103zM259 473q-53 -14 -85 -58.5t-32 -104.5v-76q0 -69 31 -114.5t86 -58.5v412z" />
    <glyph glyph-name="sterling" unicode="&#xa3;" 
d="M67 75q45 19 67.5 66.5t22.5 104.5q0 14 -2 28.5t-5 28.5h-93v49h80q-13 40 -25 80t-12 84q0 42 15.5 78t44 61.5t69.5 40t91 14.5q48 0 86.5 -10t65.5 -27.5t41.5 -42t14.5 -53.5q0 -33 -18 -52.5t-50 -19.5t-48 19t-16 44q0 23 12 39.5t33 25.5v3q-15 8 -43 13t-59 5
q-80 0 -115 -36t-35 -90q0 -52 13 -93.5t25 -82.5h185v-49h-174q4 -20 4 -46q0 -32 -10 -60t-26 -50.5t-34.5 -39.5t-36.5 -27v-5h351v98h52v-173h-471v75z" />
    <glyph glyph-name="yen" unicode="&#xa5;" horiz-adv-x="648" 
d="M181 48h96v101h-176v48h176v104h-176v48h149l-177 301h-57v48h254v-48h-91l162 -284h4l165 284h-87v48h209v-48h-57l-182 -301h154v-48h-176v-104h176v-48h-176v-101h96v-48h-286v48z" />
    <glyph glyph-name="brokenbar" unicode="&#xa6;" horiz-adv-x="304" 
d="M123 221h58v-359h-58v359zM123 760h58v-359h-58v359z" />
    <glyph glyph-name="section" unicode="&#xa7;" horiz-adv-x="610" 
d="M280 -154q-73 0 -116.5 24t-43.5 70q0 32 17.5 49.5t45.5 17.5q26 0 42 -15.5t16 -38.5q0 -22 -10.5 -32.5t-24.5 -16.5v-2q29 -8 58 -8q62 0 95 23.5t33 71.5q0 39 -23 65t-62 37l-71 20q-39 11 -69 24.5t-50 32.5t-30.5 44t-10.5 59q0 51 35.5 89t91.5 54v5
q-67 43 -67 131q0 75 49 117.5t145 42.5q73 0 116.5 -24t43.5 -70q0 -32 -17.5 -49.5t-45.5 -17.5q-26 0 -42 15.5t-16 38.5q0 22 10.5 32.5t24.5 16.5v2q-29 8 -58 8q-62 0 -95 -23.5t-33 -71.5q0 -39 23 -65t62 -37l71 -20q39 -11 69 -24.5t50 -32.5t30.5 -44t10.5 -59
q0 -51 -35.5 -89t-91.5 -54v-5q67 -43 67 -131q0 -75 -49 -117.5t-145 -42.5zM362 160q42 6 65 31.5t23 76.5q0 36 -22.5 59t-63.5 34l-75 21q-11 3 -21 6.5t-20 7.5q-42 -6 -65 -31.5t-23 -76.5q0 -36 22.5 -59t63.5 -34l75 -21q11 -3 21 -6.5t20 -7.5z" />
    <glyph glyph-name="dieresis" unicode="&#xa8;" 
d="M209 616q-24 0 -38.5 15t-14.5 36v5q0 21 14.5 36t38.5 15t38.5 -15t14.5 -36v-5q0 -21 -14.5 -36t-38.5 -15zM391 616q-24 0 -38.5 15t-14.5 36v5q0 21 14.5 36t38.5 15t38.5 -15t14.5 -36v-5q0 -21 -14.5 -36t-38.5 -15z" />
    <glyph glyph-name="copyright" unicode="&#xa9;" horiz-adv-x="778" 
d="M399 155q-42 0 -75 14t-55.5 39.5t-34 61t-11.5 78.5q0 44 13.5 80t37.5 61.5t57.5 39.5t73.5 14q60 0 95.5 -27t35.5 -69q0 -23 -13.5 -37t-36.5 -14q-22 0 -33.5 14t-11.5 34q0 15 9 26.5t24 18.5v2q-9 5 -24 8t-38 3q-51 0 -83.5 -32.5t-32.5 -82.5v-56
q0 -55 30.5 -88.5t82.5 -33.5q45 0 69.5 16.5t38.5 43.5l27 -16q-7 -19 -19 -36.5t-30 -31t-42 -22t-54 -8.5zM389 38q61 0 112 21t88 58.5t57.5 89t20.5 111.5v62q0 60 -20.5 111t-57.5 88.5t-88 59t-112 21.5t-112 -21.5t-88 -59t-57.5 -88.5t-20.5 -111v-62
q0 -60 20.5 -111.5t57.5 -89t88 -58.5t112 -21zM389 -12q-70 0 -131 25t-106 72t-71 114t-26 150t26 150t71 114t106 72t131 25t131 -25t106 -72t71 -114t26 -150t-26 -150t-71 -114t-106 -72t-131 -25z" />
    <glyph glyph-name="ordfeminine" unicode="&#xaa;" horiz-adv-x="401" 
d="M147 344q-51 0 -79 25.5t-28 67.5q0 25 8.5 45t27.5 33t49.5 20t74.5 7h45v46q0 82 -75 82q-33 0 -52 -9v-3q9 -4 16 -13.5t7 -21.5q0 -18 -11.5 -28.5t-29.5 -10.5q-19 0 -31 11t-12 32q0 29 34.5 53t98.5 24q57 0 89.5 -28t32.5 -79v-213h49v-26q-8 -5 -21 -9.5
t-30 -4.5q-29 0 -44 14.5t-15 39.5v3h-4q-10 -23 -33.5 -40t-66.5 -17zM173 385q30 0 51 15.5t21 47.5v62h-39q-56 0 -76.5 -15.5t-20.5 -47.5v-12q0 -26 17 -38t47 -12z" />
    <glyph glyph-name="guillemotleft" unicode="&#xab;" horiz-adv-x="513" 
d="M36 260v48l192 180l22 -29l-120 -175l120 -175l-22 -29zM245 260v48l192 180l22 -29l-120 -175l120 -175l-22 -29z" />
    <glyph glyph-name="logicalnot" unicode="&#xac;" 
d="M457 277h-390v56h450v-255h-60v199z" />
    <glyph glyph-name="uni00AD" unicode="&#xad;" horiz-adv-x="401" 
d="M66 342h269v-74h-269v74z" />
    <glyph glyph-name="registered" unicode="&#xae;" horiz-adv-x="476" 
d="M147 417h19v174h-19v19h103q31 0 48 -14t17 -42q0 -44 -41 -58l34 -61q10 -18 26 -18h2v-19h-11q-20 0 -34 6t-24 24l-34 61h-26v-72h16v-19h-76v19zM238 331q35 0 64.5 13.5t50.5 36t33 51.5t12 61v22q0 31 -12 60.5t-33 52t-50.5 36t-64.5 13.5t-64.5 -13.5t-50.5 -36
t-33 -52t-12 -60.5v-22q0 -32 12 -61t33 -51.5t50.5 -36t64.5 -13.5zM238 298q-41 0 -77 15.5t-63 43.5t-42.5 65.5t-15.5 81.5t15.5 81.5t42.5 65.5t63 43.5t77 15.5q40 0 76 -15.5t63 -43.5t43 -65.5t16 -81.5t-16 -81.5t-43 -65.5t-63 -43.5t-76 -15.5zM207 512h40
q12 0 19 8.5t7 22.5v12q0 14 -7 22.5t-19 8.5h-40v-74z" />
    <glyph glyph-name="macron" unicode="&#xaf;" 
d="M160 702h280v-62h-280v62z" />
    <glyph glyph-name="degree" unicode="&#xb0;" horiz-adv-x="468" 
d="M234 366q-36 0 -66.5 13t-53 36t-35.5 54.5t-13 68.5t13 68.5t35.5 54.5t53 36t66.5 13t66.5 -13t53 -36t35.5 -54.5t13 -68.5t-13 -68.5t-35.5 -54.5t-53 -36t-66.5 -13zM234 419q24 0 43.5 9.5t34 25.5t22 38t7.5 46t-7.5 46t-22 38t-34 25.5t-43.5 9.5t-43.5 -9.5
t-34 -25.5t-22 -38t-7.5 -46t7.5 -46t22 -38t34 -25.5t43.5 -9.5z" />
    <glyph glyph-name="plusminus" unicode="&#xb1;" 
d="M270 364h-203v56h203v195h60v-195h203v-56h-203v-195h-60v195zM67 56h466v-56h-466v56z" />
    <glyph glyph-name="twosuperior" unicode="&#xb2;" horiz-adv-x="346" 
d="M36 381l130 109q24 20 41 45t17 54v11q0 31 -19.5 50.5t-52.5 19.5q-17 0 -28.5 -2.5t-20.5 -7.5v-3q8 -5 13.5 -15t5.5 -20q0 -18 -10.5 -29.5t-28.5 -11.5q-20 0 -31 12t-11 33q0 32 34 55t88 23q63 0 98 -27.5t35 -76.5q0 -25 -8 -45.5t-21.5 -38.5t-31 -32.5
t-36.5 -27.5l-109 -71v-4h182v45h40v-97h-276v52z" />
    <glyph glyph-name="threesuperior" unicode="&#xb3;" horiz-adv-x="346" 
d="M156 323q-60 0 -92.5 24t-32.5 55q0 20 11 32t31 12t29.5 -11.5t9.5 -28.5q0 -11 -5 -20t-12 -14v-3q17 -12 51 -12q40 0 61.5 18.5t21.5 48.5v15q0 29 -19.5 46.5t-57.5 17.5h-33v37h29q36 0 55 18t19 41v13q0 29 -18.5 43.5t-49.5 14.5q-34 0 -49 -9v-3
q6 -5 11.5 -13.5t5.5 -20.5q0 -17 -10 -28.5t-29 -11.5q-20 0 -31 12.5t-11 32.5q0 29 34 52t87 23q64 0 98 -22t34 -70q0 -17 -7 -31.5t-18.5 -26t-26.5 -18.5t-31 -10v-4q37 -6 63.5 -28.5t26.5 -60.5q0 -54 -40 -82t-105 -28z" />
    <glyph glyph-name="acute" unicode="&#xb4;" 
d="M266 599l72 180l83 -41l-126 -153z" />
    <glyph glyph-name="mu" unicode="&#xb5;" horiz-adv-x="635" 
d="M105 447l-75 14v36l164 31v-338q0 -72 29 -107t92 -35q22 0 43.5 6t38.5 18.5t28 31t11 43.5v300l-75 14v36l164 31v-459l75 -14v-36l-161 -31v90h-4q-6 -15 -19 -31t-32 -29t-44.5 -21.5t-56.5 -8.5q-40 0 -72.5 13.5t-49.5 38.5h-4l44 -193v-47h-96v647z" />
    <glyph glyph-name="paragraph" unicode="&#xb6;" horiz-adv-x="658" 
d="M305 -154q-39 0 -72 8.5t-57 24.5t-37.5 37t-13.5 47q0 31 17 50.5t47 19.5q27 0 42 -16.5t15 -42.5q0 -24 -13 -38t-35 -20v-3q18 -11 43.5 -17t63.5 -6h9v413q-54 0 -101.5 12.5t-83 37t-56 61.5t-20.5 87t20.5 87t56 61.5t83 36.5t101.5 12h269v-48h-76v-574
q0 -115 -53 -172.5t-149 -57.5zM368 -99q85 33 85 175v574h-85v-749z" />
    <glyph glyph-name="periodcentered" unicode="&#xb7;" horiz-adv-x="326" 
d="M163 237q-31 0 -48.5 19t-17.5 45v6q0 26 17.5 45t48.5 19t48.5 -19t17.5 -45v-6q0 -26 -17.5 -45t-48.5 -19z" />
    <glyph glyph-name="cedilla" unicode="&#xb8;" 
d="M312 -207q-37 0 -57.5 13.5t-31.5 27.5l21 22q10 -11 23.5 -17.5t33.5 -6.5q24 0 38 10t14 31q0 15 -11.5 28.5t-49.5 18.5l-27 3l19 97h41l-16 -81l3 -3q9 2 19 4t18 2q32 0 53 -17t21 -49q0 -21 -9 -37t-24.5 -26t-35.5 -15t-42 -5z" />
    <glyph glyph-name="onesuperior" unicode="&#xb9;" horiz-adv-x="360" 
d="M56 367h108v277l-112 -42l-15 32l141 64h53v-331h95v-38h-270v38z" />
    <glyph glyph-name="ordmasculine" unicode="&#xba;" horiz-adv-x="410" 
d="M205 380q49 0 69.5 30.5t20.5 74.5v78q0 44 -20.5 74.5t-69.5 30.5t-69.5 -30.5t-20.5 -74.5v-78q0 -44 20.5 -74.5t69.5 -30.5zM205 344q-37 0 -67 13t-51.5 37t-33 57t-11.5 73t11.5 73t33 57t51.5 37t67 13t67 -13t51.5 -37t33 -57t11.5 -73t-11.5 -73t-33 -57
t-51.5 -37t-67 -13z" />
    <glyph glyph-name="guillemotright" unicode="&#xbb;" horiz-adv-x="513" 
d="M54 109l120 175l-120 175l22 29l192 -180v-48l-192 -180zM263 109l120 175l-120 175l22 29l192 -180v-48l-192 -180z" />
    <glyph glyph-name="onequarter" unicode="&#xbc;" horiz-adv-x="900" 
d="M56 367h108v277l-112 -42l-15 32l141 64h53v-331h95v-38h-270v38zM688 698h67l-486 -698h-67zM729 72h-187v49l182 248h67v-248h56v-49h-56v-72h-62v72zM585 121h144v192h-4z" />
    <glyph glyph-name="onehalf" unicode="&#xbd;" horiz-adv-x="903" 
d="M56 367h108v277l-112 -42l-15 32l141 64h53v-331h95v-38h-270v38zM688 698h67l-486 -698h-67zM593 52l130 109q24 20 41 45t17 54v11q0 31 -19.5 50.5t-52.5 19.5q-17 0 -28.5 -2.5t-20.5 -7.5v-3q8 -5 13.5 -15t5.5 -20q0 -18 -10.5 -29.5t-28.5 -11.5q-20 0 -31 12
t-11 33q0 32 34 55t88 23q63 0 98 -27.5t35 -76.5q0 -25 -8 -45.5t-21.5 -38.5t-31 -32.5t-36.5 -27.5l-109 -71v-4h182v45h40v-97h-276v52z" />
    <glyph glyph-name="threequarters" unicode="&#xbe;" horiz-adv-x="846" 
d="M156 323q-60 0 -92.5 24t-32.5 55q0 20 11 32t31 12t29.5 -11.5t9.5 -28.5q0 -11 -5 -20t-12 -14v-3q17 -12 51 -12q40 0 61.5 18.5t21.5 48.5v15q0 29 -19.5 46.5t-57.5 17.5h-33v37h29q36 0 55 18t19 41v13q0 29 -18.5 43.5t-49.5 14.5q-34 0 -49 -9v-3
q6 -5 11.5 -13.5t5.5 -20.5q0 -17 -10 -28.5t-29 -11.5q-20 0 -31 12.5t-11 32.5q0 29 34 52t87 23q64 0 98 -22t34 -70q0 -17 -7 -31.5t-18.5 -26t-26.5 -18.5t-31 -10v-4q37 -6 63.5 -28.5t26.5 -60.5q0 -54 -40 -82t-105 -28zM634 698h67l-486 -698h-67zM675 72h-187v49
l182 248h67v-248h56v-49h-56v-72h-62v72zM531 121h144v192h-4z" />
    <glyph glyph-name="questiondown" unicode="&#xbf;" horiz-adv-x="493" 
d="M249 -194q-46 0 -84 13t-65 37t-42 57.5t-15 74.5q0 45 17.5 81.5t47.5 63t70.5 42.5t86.5 20v113h58v-165q-40 -2 -73.5 -12t-58 -27.5t-38 -43t-13.5 -58.5v-22q0 -59 34 -91t89 -32q35 0 58 6.5t39 14.5v2q-11 5 -24 21t-13 39q0 27 17 46t46 19t46.5 -18.5
t17.5 -51.5q0 -26 -16 -49.5t-43.5 -41t-64 -28t-77.5 -10.5zM293 394q-31 0 -48.5 19t-17.5 45v6q0 26 17.5 45t48.5 19t48.5 -19t17.5 -45v-6q0 -26 -17.5 -45t-48.5 -19z" />
    <glyph glyph-name="Agrave" unicode="&#xc0;" horiz-adv-x="701" 
d="M16 48h53l230 650h103l230 -650h53v-48h-244v48h90l-63 179h-274l-61 -179h90v-48h-207v48zM209 277h244l-117 344h-7zM228 913l84 41l73 -180l-29 -14z" />
    <glyph glyph-name="Aacute" unicode="&#xc1;" horiz-adv-x="701" 
d="M16 48h53l230 650h103l230 -650h53v-48h-244v48h90l-63 179h-274l-61 -179h90v-48h-207v48zM209 277h244l-117 344h-7zM316 774l72 180l83 -41l-126 -153z" />
    <glyph glyph-name="Acircumflex" unicode="&#xc2;" horiz-adv-x="701" 
d="M16 48h53l230 650h103l230 -650h53v-48h-244v48h90l-63 179h-274l-61 -179h90v-48h-207v48zM209 277h244l-117 344h-7zM198 785l122 150h60l122 -150l-25 -17l-127 93l-127 -93z" />
    <glyph glyph-name="Atilde" unicode="&#xc3;" horiz-adv-x="701" 
d="M16 48h53l230 650h103l230 -650h53v-48h-244v48h90l-63 179h-274l-61 -179h90v-48h-207v48zM209 277h244l-117 344h-7zM410 783q-19 0 -37 9t-35 18t-37.5 19t-35.5 10t-24 -7.5t-28 -26.5l-20 22q13 16 23.5 29t22 22.5t23.5 14.5t28 5q19 0 36.5 -8.5t35.5 -18.5
t38 -19.5t35 -9.5q7 0 12.5 1.5t11 5.5t12 10.5l16.5 16.5l20 -22q-13 -16 -23.5 -29t-22 -22.5t-23.5 -14.5t-28 -5z" />
    <glyph glyph-name="Adieresis" unicode="&#xc4;" horiz-adv-x="701" 
d="M16 48h53l230 650h103l230 -650h53v-48h-244v48h90l-63 179h-274l-61 -179h90v-48h-207v48zM209 277h244l-117 344h-7zM259 788q-24 0 -38.5 15t-14.5 36v5q0 21 14.5 36t38.5 15t38.5 -15t14.5 -36v-5q0 -21 -14.5 -36t-38.5 -15zM441 788q-24 0 -38.5 15t-14.5 36v5
q0 21 14.5 36t38.5 15t38.5 -15t14.5 -36v-5q0 -21 -14.5 -36t-38.5 -15z" />
    <glyph glyph-name="Aring" unicode="&#xc5;" horiz-adv-x="701" 
d="M16 48h53l230 650h103l230 -650h53v-48h-244v48h90l-63 179h-274l-61 -179h90v-48h-207v48zM209 277h244l-117 344h-7zM350 782q27 0 42.5 16.5t15.5 46.5v32q0 30 -15.5 46.5t-42.5 16.5t-42.5 -16.5t-15.5 -46.5v-32q0 -30 15.5 -46.5t42.5 -16.5zM350 746
q-25 0 -47 8.5t-38 24t-25.5 36.5t-9.5 46t9.5 46t25.5 36.5t38 24t47 8.5t47 -8.5t38 -24t25.5 -36.5t9.5 -46t-9.5 -46t-25.5 -36.5t-38 -24t-47 -8.5z" />
    <glyph glyph-name="AE" unicode="&#xc6;" horiz-adv-x="975" 
d="M11 48h53l311 602h-76v48h606v-170h-77v118h-286v-261h197v80h64v-212h-64v80h-197v-281h296v128h77v-180h-543v48h76v179h-228l-91 -179h76v-48h-194v48zM243 277h205v373h-10z" />
    <glyph glyph-name="Ccedilla" unicode="&#xc7;" horiz-adv-x="662" 
d="M361 -207q-37 0 -57.5 13.5t-31.5 27.5l21 22q10 -11 23.5 -17.5t33.5 -6.5q24 0 38 10t14 31q0 15 -11.5 28.5t-49.5 18.5l-27 3l13 66q-63 4 -114 31t-87.5 74t-56 111.5t-19.5 143.5q0 86 21.5 153.5t60.5 113.5t93 70t119 24q63 0 108 -20.5t59 -52.5h4v61h77v-204
h-77v51q0 49 -44 79t-115 30q-54 0 -92 -19.5t-62.5 -52t-35.5 -75.5t-11 -90v-128q0 -53 14.5 -95.5t42 -73.5t67.5 -47.5t91 -16.5q71 0 120 37t71 93l41 -20q-8 -27 -27 -57t-48 -55.5t-69 -43.5t-90 -21l-10 -50l3 -3q9 2 19 4t18 2q32 0 53 -17t21 -49q0 -21 -9 -37
t-24.5 -26t-35.5 -15t-42 -5z" />
    <glyph glyph-name="Egrave" unicode="&#xc8;" horiz-adv-x="658" 
d="M55 48h76v602h-76v48h533v-170h-77v118h-286v-261h197v80h64v-212h-64v80h-197v-281h296v128h77v-180h-543v48zM222 913l84 41l73 -180l-29 -14z" />
    <glyph glyph-name="Eacute" unicode="&#xc9;" horiz-adv-x="658" 
d="M55 48h76v602h-76v48h533v-170h-77v118h-286v-261h197v80h64v-212h-64v80h-197v-281h296v128h77v-180h-543v48zM310 774l72 180l83 -41l-126 -153z" />
    <glyph glyph-name="Ecircumflex" unicode="&#xca;" horiz-adv-x="658" 
d="M55 48h76v602h-76v48h533v-170h-77v118h-286v-261h197v80h64v-212h-64v80h-197v-281h296v128h77v-180h-543v48zM192 785l122 150h60l122 -150l-25 -17l-127 93l-127 -93z" />
    <glyph glyph-name="Edieresis" unicode="&#xcb;" horiz-adv-x="658" 
d="M55 48h76v602h-76v48h533v-170h-77v118h-286v-261h197v80h64v-212h-64v80h-197v-281h296v128h77v-180h-543v48zM253 788q-24 0 -38.5 15t-14.5 36v5q0 21 14.5 36t38.5 15t38.5 -15t14.5 -36v-5q0 -21 -14.5 -36t-38.5 -15zM435 788q-24 0 -38.5 15t-14.5 36v5
q0 21 14.5 36t38.5 15t38.5 -15t14.5 -36v-5q0 -21 -14.5 -36t-38.5 -15z" />
    <glyph glyph-name="Igrave" unicode="&#xcc;" horiz-adv-x="356" 
d="M55 48h76v602h-76v48h246v-48h-76v-602h76v-48h-246v48zM57 913l84 41l73 -180l-29 -14z" />
    <glyph glyph-name="Iacute" unicode="&#xcd;" horiz-adv-x="356" 
d="M55 48h76v602h-76v48h246v-48h-76v-602h76v-48h-246v48zM145 774l72 180l83 -41l-126 -153z" />
    <glyph glyph-name="Icircumflex" unicode="&#xce;" horiz-adv-x="356" 
d="M55 48h76v602h-76v48h246v-48h-76v-602h76v-48h-246v48zM27 785l122 150h60l122 -150l-25 -17l-127 93l-127 -93z" />
    <glyph glyph-name="Idieresis" unicode="&#xcf;" horiz-adv-x="356" 
d="M55 48h76v602h-76v48h246v-48h-76v-602h76v-48h-246v48zM88 788q-24 0 -38.5 15t-14.5 36v5q0 21 14.5 36t38.5 15t38.5 -15t14.5 -36v-5q0 -21 -14.5 -36t-38.5 -15zM270 788q-24 0 -38.5 15t-14.5 36v5q0 21 14.5 36t38.5 15t38.5 -15t14.5 -36v-5q0 -21 -14.5 -36
t-38.5 -15z" />
    <glyph glyph-name="Eth" unicode="&#xd0;" horiz-adv-x="724" 
d="M55 48h76v276h-91v50h91v276h-76v48h301q70 0 128.5 -21.5t100.5 -65t65.5 -109t23.5 -153.5t-23.5 -153.5t-65.5 -109t-100.5 -65t-128.5 -21.5h-301v48zM225 52h121q51 0 92 17t70.5 48t45 74t15.5 96v124q0 52 -15.5 95.5t-45 74.5t-70.5 48t-92 17h-121v-272h138v-50
h-138v-272z" />
    <glyph glyph-name="Ntilde" unicode="&#xd1;" horiz-adv-x="796" 
d="M55 48h76v602h-76v48h178l379 -551h4v503h-76v48h211v-48h-76v-650h-72l-409 595h-4v-547h76v-48h-211v48zM462 783q-19 0 -37 9t-35 18t-37.5 19t-35.5 10t-24 -7.5t-28 -26.5l-20 22q13 16 23.5 29t22 22.5t23.5 14.5t28 5q19 0 36.5 -8.5t35.5 -18.5t38 -19.5t35 -9.5
q7 0 12.5 1.5t11 5.5t12 10.5l16.5 16.5l20 -22q-13 -16 -23.5 -29t-22 -22.5t-23.5 -14.5t-28 -5z" />
    <glyph glyph-name="Ograve" unicode="&#xd2;" horiz-adv-x="734" 
d="M367 44q52 0 91.5 18.5t66.5 51.5t40.5 77.5t13.5 97.5v120q0 52 -13.5 97t-40.5 78t-66.5 51.5t-91.5 18.5t-91.5 -18.5t-66.5 -51.5t-40.5 -78t-13.5 -97v-120q0 -53 13.5 -97.5t40.5 -77.5t66.5 -51.5t91.5 -18.5zM367 -12q-71 0 -129.5 25t-100 72t-64.5 114t-23 150
t23 150t64.5 114t100 72t129.5 25t129.5 -25t100 -72t64.5 -114t23 -150t-23 -150t-64.5 -114t-100 -72t-129.5 -25zM245 913l84 41l73 -180l-29 -14z" />
    <glyph glyph-name="Oacute" unicode="&#xd3;" horiz-adv-x="734" 
d="M367 44q52 0 91.5 18.5t66.5 51.5t40.5 77.5t13.5 97.5v120q0 52 -13.5 97t-40.5 78t-66.5 51.5t-91.5 18.5t-91.5 -18.5t-66.5 -51.5t-40.5 -78t-13.5 -97v-120q0 -53 13.5 -97.5t40.5 -77.5t66.5 -51.5t91.5 -18.5zM367 -12q-71 0 -129.5 25t-100 72t-64.5 114t-23 150
t23 150t64.5 114t100 72t129.5 25t129.5 -25t100 -72t64.5 -114t23 -150t-23 -150t-64.5 -114t-100 -72t-129.5 -25zM333 774l72 180l83 -41l-126 -153z" />
    <glyph glyph-name="Ocircumflex" unicode="&#xd4;" horiz-adv-x="734" 
d="M367 44q52 0 91.5 18.5t66.5 51.5t40.5 77.5t13.5 97.5v120q0 52 -13.5 97t-40.5 78t-66.5 51.5t-91.5 18.5t-91.5 -18.5t-66.5 -51.5t-40.5 -78t-13.5 -97v-120q0 -53 13.5 -97.5t40.5 -77.5t66.5 -51.5t91.5 -18.5zM367 -12q-71 0 -129.5 25t-100 72t-64.5 114t-23 150
t23 150t64.5 114t100 72t129.5 25t129.5 -25t100 -72t64.5 -114t23 -150t-23 -150t-64.5 -114t-100 -72t-129.5 -25zM215 785l122 150h60l122 -150l-25 -17l-127 93l-127 -93z" />
    <glyph glyph-name="Otilde" unicode="&#xd5;" horiz-adv-x="734" 
d="M367 44q52 0 91.5 18.5t66.5 51.5t40.5 77.5t13.5 97.5v120q0 52 -13.5 97t-40.5 78t-66.5 51.5t-91.5 18.5t-91.5 -18.5t-66.5 -51.5t-40.5 -78t-13.5 -97v-120q0 -53 13.5 -97.5t40.5 -77.5t66.5 -51.5t91.5 -18.5zM367 -12q-71 0 -129.5 25t-100 72t-64.5 114t-23 150
t23 150t64.5 114t100 72t129.5 25t129.5 -25t100 -72t64.5 -114t23 -150t-23 -150t-64.5 -114t-100 -72t-129.5 -25zM427 783q-19 0 -37 9t-35 18t-37.5 19t-35.5 10t-24 -7.5t-28 -26.5l-20 22q13 16 23.5 29t22 22.5t23.5 14.5t28 5q19 0 36.5 -8.5t35.5 -18.5t38 -19.5
t35 -9.5q7 0 12.5 1.5t11 5.5t12 10.5l16.5 16.5l20 -22q-13 -16 -23.5 -29t-22 -22.5t-23.5 -14.5t-28 -5z" />
    <glyph glyph-name="Odieresis" unicode="&#xd6;" horiz-adv-x="734" 
d="M367 44q52 0 91.5 18.5t66.5 51.5t40.5 77.5t13.5 97.5v120q0 52 -13.5 97t-40.5 78t-66.5 51.5t-91.5 18.5t-91.5 -18.5t-66.5 -51.5t-40.5 -78t-13.5 -97v-120q0 -53 13.5 -97.5t40.5 -77.5t66.5 -51.5t91.5 -18.5zM367 -12q-71 0 -129.5 25t-100 72t-64.5 114t-23 150
t23 150t64.5 114t100 72t129.5 25t129.5 -25t100 -72t64.5 -114t23 -150t-23 -150t-64.5 -114t-100 -72t-129.5 -25zM276 788q-24 0 -38.5 15t-14.5 36v5q0 21 14.5 36t38.5 15t38.5 -15t14.5 -36v-5q0 -21 -14.5 -36t-38.5 -15zM458 788q-24 0 -38.5 15t-14.5 36v5
q0 21 14.5 36t38.5 15t38.5 -15t14.5 -36v-5q0 -21 -14.5 -36t-38.5 -15z" />
    <glyph glyph-name="multiply" unicode="&#xd7;" 
d="M95 140l165 165l-165 165l40 40l165 -165l165 165l40 -40l-165 -165l165 -165l-40 -40l-165 165l-165 -165z" />
    <glyph glyph-name="Oslash" unicode="&#xd8;" horiz-adv-x="734" 
d="M92 -17l59 88q-48 48 -74.5 117.5t-26.5 160.5q0 83 23 150t64.5 114t100 72t129.5 25q51 0 95.5 -13t81.5 -38l56 84l42 -28l-59 -88q48 -48 74.5 -117.5t26.5 -160.5q0 -83 -23 -150t-64.5 -114t-100 -72t-129.5 -25q-51 0 -95.5 13t-81.5 38l-56 -84zM507 603
q-26 24 -61 37.5t-79 13.5q-52 0 -91.5 -18.5t-66.5 -51.5t-40.5 -78t-13.5 -97v-120q0 -91 39 -154zM367 44q52 0 91.5 18.5t66.5 51.5t40.5 77.5t13.5 97.5v120q0 91 -39 154l-313 -468q26 -24 61 -37.5t79 -13.5z" />
    <glyph glyph-name="Ugrave" unicode="&#xd9;" horiz-adv-x="751" 
d="M384 -12q-70 0 -120 15t-81.5 49t-46.5 87t-15 130v381h-76v48h246v-48h-76v-398q0 -51 9 -89.5t29.5 -64t53.5 -38t82 -12.5q99 0 140.5 51t41.5 153v398h-76v48h211v-48h-76v-367q0 -76 -12.5 -131.5t-41.5 -92t-76 -54t-116 -17.5zM271 913l84 41l73 -180l-29 -14z
" />
    <glyph glyph-name="Uacute" unicode="&#xda;" horiz-adv-x="751" 
d="M384 -12q-70 0 -120 15t-81.5 49t-46.5 87t-15 130v381h-76v48h246v-48h-76v-398q0 -51 9 -89.5t29.5 -64t53.5 -38t82 -12.5q99 0 140.5 51t41.5 153v398h-76v48h211v-48h-76v-367q0 -76 -12.5 -131.5t-41.5 -92t-76 -54t-116 -17.5zM359 774l72 180l83 -41l-126 -153z
" />
    <glyph glyph-name="Ucircumflex" unicode="&#xdb;" horiz-adv-x="751" 
d="M384 -12q-70 0 -120 15t-81.5 49t-46.5 87t-15 130v381h-76v48h246v-48h-76v-398q0 -51 9 -89.5t29.5 -64t53.5 -38t82 -12.5q99 0 140.5 51t41.5 153v398h-76v48h211v-48h-76v-367q0 -76 -12.5 -131.5t-41.5 -92t-76 -54t-116 -17.5zM241 785l122 150h60l122 -150
l-25 -17l-127 93l-127 -93z" />
    <glyph glyph-name="Udieresis" unicode="&#xdc;" horiz-adv-x="751" 
d="M384 -12q-70 0 -120 15t-81.5 49t-46.5 87t-15 130v381h-76v48h246v-48h-76v-398q0 -51 9 -89.5t29.5 -64t53.5 -38t82 -12.5q99 0 140.5 51t41.5 153v398h-76v48h211v-48h-76v-367q0 -76 -12.5 -131.5t-41.5 -92t-76 -54t-116 -17.5zM302 788q-24 0 -38.5 15t-14.5 36v5
q0 21 14.5 36t38.5 15t38.5 -15t14.5 -36v-5q0 -21 -14.5 -36t-38.5 -15zM484 788q-24 0 -38.5 15t-14.5 36v5q0 21 14.5 36t38.5 15t38.5 -15t14.5 -36v-5q0 -21 -14.5 -36t-38.5 -15z" />
    <glyph glyph-name="Yacute" unicode="&#xdd;" horiz-adv-x="648" 
d="M181 48h96v233l-204 369h-53v48h249v-48h-90l162 -305h4l165 305h-90v48h208v-48h-53l-204 -364v-238h96v-48h-286v48zM310 774l72 180l83 -41l-126 -153z" />
    <glyph glyph-name="Thorn" unicode="&#xde;" horiz-adv-x="639" 
d="M55 48h76v602h-76v48h246v-48h-76v-108h164q98 0 150 -47.5t52 -139.5t-53.5 -142t-150.5 -50h-162v-115h76v-48h-246v48zM225 215h157q53 0 81.5 32.5t28.5 80.5v49q0 48 -28.5 80.5t-81.5 32.5h-157v-275z" />
    <glyph glyph-name="germandbls" unicode="&#xdf;" horiz-adv-x="662" 
d="M449 -12q-85 0 -128 28t-43 72q0 25 14 41t37 16t35.5 -14t12.5 -35q0 -32 -25 -45v-4q17 -6 35.5 -9t44.5 -3q58 0 88.5 23.5t30.5 66.5q0 39 -20 60t-68 33l-26 7q-72 20 -104 53.5t-32 94.5q0 64 47 102.5t129 42.5v41q0 80 -34 119.5t-98 39.5q-71 0 -103.5 -40
t-32.5 -119v-559h-164v48h75v416h-75v52h75v31q0 50 16 91t45 70.5t71 45.5t93 16t91.5 -17.5t69 -48t43.5 -71.5t15 -88v-73h-40q-76 0 -108.5 -24t-32.5 -60q0 -35 17 -53t61 -31l25 -7q74 -19 111.5 -54t37.5 -95q0 -34 -13 -63t-37 -50.5t-58.5 -34t-77.5 -12.5z" />
    <glyph glyph-name="agrave" unicode="&#xe0;" horiz-adv-x="558" 
d="M206 -12q-73 0 -114.5 37.5t-41.5 102.5q0 37 12.5 66t40.5 48t73 29t110 10h73v74q0 60 -29.5 92.5t-89.5 32.5q-23 0 -45.5 -4t-36.5 -12v-2q12 -7 23 -19t11 -35q0 -28 -16 -43t-43 -15q-26 0 -42 15.5t-16 45.5q0 22 13 43t38 37.5t62 26.5t84 10q83 0 129.5 -42
t46.5 -118v-322h75v-38q-11 -8 -30 -14t-43 -6q-42 0 -64 23t-22 61v3h-5q-8 -17 -19.5 -32.5t-29.5 -27.5t-43.5 -19.5t-60.5 -7.5zM244 46q24 0 44.5 6t36.5 18t25 30t9 43v95h-64q-43 0 -72 -6t-46 -18t-24.5 -30t-7.5 -42v-20q0 -38 26 -57t73 -19zM151 738l84 41
l73 -180l-29 -14z" />
    <glyph glyph-name="aacute" unicode="&#xe1;" horiz-adv-x="558" 
d="M206 -12q-73 0 -114.5 37.5t-41.5 102.5q0 37 12.5 66t40.5 48t73 29t110 10h73v74q0 60 -29.5 92.5t-89.5 32.5q-23 0 -45.5 -4t-36.5 -12v-2q12 -7 23 -19t11 -35q0 -28 -16 -43t-43 -15q-26 0 -42 15.5t-16 45.5q0 22 13 43t38 37.5t62 26.5t84 10q83 0 129.5 -42
t46.5 -118v-322h75v-38q-11 -8 -30 -14t-43 -6q-42 0 -64 23t-22 61v3h-5q-8 -17 -19.5 -32.5t-29.5 -27.5t-43.5 -19.5t-60.5 -7.5zM244 46q24 0 44.5 6t36.5 18t25 30t9 43v95h-64q-43 0 -72 -6t-46 -18t-24.5 -30t-7.5 -42v-20q0 -38 26 -57t73 -19zM239 599l72 180
l83 -41l-126 -153z" />
    <glyph glyph-name="acircumflex" unicode="&#xe2;" horiz-adv-x="558" 
d="M206 -12q-73 0 -114.5 37.5t-41.5 102.5q0 37 12.5 66t40.5 48t73 29t110 10h73v74q0 60 -29.5 92.5t-89.5 32.5q-23 0 -45.5 -4t-36.5 -12v-2q12 -7 23 -19t11 -35q0 -28 -16 -43t-43 -15q-26 0 -42 15.5t-16 45.5q0 22 13 43t38 37.5t62 26.5t84 10q83 0 129.5 -42
t46.5 -118v-322h75v-38q-11 -8 -30 -14t-43 -6q-42 0 -64 23t-22 61v3h-5q-8 -17 -19.5 -32.5t-29.5 -27.5t-43.5 -19.5t-60.5 -7.5zM244 46q24 0 44.5 6t36.5 18t25 30t9 43v95h-64q-43 0 -72 -6t-46 -18t-24.5 -30t-7.5 -42v-20q0 -38 26 -57t73 -19zM121 615l122 150h60
l122 -150l-25 -17l-127 93l-127 -93z" />
    <glyph glyph-name="atilde" unicode="&#xe3;" horiz-adv-x="558" 
d="M206 -12q-73 0 -114.5 37.5t-41.5 102.5q0 37 12.5 66t40.5 48t73 29t110 10h73v74q0 60 -29.5 92.5t-89.5 32.5q-23 0 -45.5 -4t-36.5 -12v-2q12 -7 23 -19t11 -35q0 -28 -16 -43t-43 -15q-26 0 -42 15.5t-16 45.5q0 22 13 43t38 37.5t62 26.5t84 10q83 0 129.5 -42
t46.5 -118v-322h75v-38q-11 -8 -30 -14t-43 -6q-42 0 -64 23t-22 61v3h-5q-8 -17 -19.5 -32.5t-29.5 -27.5t-43.5 -19.5t-60.5 -7.5zM244 46q24 0 44.5 6t36.5 18t25 30t9 43v95h-64q-43 0 -72 -6t-46 -18t-24.5 -30t-7.5 -42v-20q0 -38 26 -57t73 -19zM333 616q-19 0 -37 9
t-35 18t-37.5 19t-35.5 10t-24 -7.5t-28 -26.5l-20 22q13 16 23.5 29t22 22.5t23.5 14.5t28 5q19 0 36.5 -8.5t35.5 -18.5t38 -19.5t35 -9.5q7 0 12.5 1.5t11 5.5t12 10.5l16.5 16.5l20 -22q-13 -16 -23.5 -29t-22 -22.5t-23.5 -14.5t-28 -5z" />
    <glyph glyph-name="adieresis" unicode="&#xe4;" horiz-adv-x="558" 
d="M206 -12q-73 0 -114.5 37.5t-41.5 102.5q0 37 12.5 66t40.5 48t73 29t110 10h73v74q0 60 -29.5 92.5t-89.5 32.5q-23 0 -45.5 -4t-36.5 -12v-2q12 -7 23 -19t11 -35q0 -28 -16 -43t-43 -15q-26 0 -42 15.5t-16 45.5q0 22 13 43t38 37.5t62 26.5t84 10q83 0 129.5 -42
t46.5 -118v-322h75v-38q-11 -8 -30 -14t-43 -6q-42 0 -64 23t-22 61v3h-5q-8 -17 -19.5 -32.5t-29.5 -27.5t-43.5 -19.5t-60.5 -7.5zM244 46q24 0 44.5 6t36.5 18t25 30t9 43v95h-64q-43 0 -72 -6t-46 -18t-24.5 -30t-7.5 -42v-20q0 -38 26 -57t73 -19zM182 616
q-24 0 -38.5 15t-14.5 36v5q0 21 14.5 36t38.5 15t38.5 -15t14.5 -36v-5q0 -21 -14.5 -36t-38.5 -15zM364 616q-24 0 -38.5 15t-14.5 36v5q0 21 14.5 36t38.5 15t38.5 -15t14.5 -36v-5q0 -21 -14.5 -36t-38.5 -15z" />
    <glyph glyph-name="aring" unicode="&#xe5;" horiz-adv-x="558" 
d="M206 -12q-73 0 -114.5 37.5t-41.5 102.5q0 37 12.5 66t40.5 48t73 29t110 10h73v74q0 60 -29.5 92.5t-89.5 32.5q-23 0 -45.5 -4t-36.5 -12v-2q12 -7 23 -19t11 -35q0 -28 -16 -43t-43 -15q-26 0 -42 15.5t-16 45.5q0 22 13 43t38 37.5t62 26.5t84 10q83 0 129.5 -42
t46.5 -118v-322h75v-38q-11 -8 -30 -14t-43 -6q-42 0 -64 23t-22 61v3h-5q-8 -17 -19.5 -32.5t-29.5 -27.5t-43.5 -19.5t-60.5 -7.5zM244 46q24 0 44.5 6t36.5 18t25 30t9 43v95h-64q-43 0 -72 -6t-46 -18t-24.5 -30t-7.5 -42v-20q0 -38 26 -57t73 -19zM273 612
q27 0 42.5 16.5t15.5 46.5v32q0 30 -15.5 46.5t-42.5 16.5t-42.5 -16.5t-15.5 -46.5v-32q0 -30 15.5 -46.5t42.5 -16.5zM273 576q-25 0 -47 8.5t-38 24t-25.5 36.5t-9.5 46t9.5 46t25.5 36.5t38 24t47 8.5t47 -8.5t38 -24t25.5 -36.5t9.5 -46t-9.5 -46t-25.5 -36.5t-38 -24
t-47 -8.5z" />
    <glyph glyph-name="ae" unicode="&#xe6;" horiz-adv-x="839" 
d="M214 -12q-79 0 -121.5 39t-42.5 105q0 42 12.5 72.5t40.5 50.5t73 29.5t110 9.5h73v61q0 60 -32 92.5t-97 32.5q-20 0 -39.5 -4.5t-32.5 -11.5v-2q12 -7 23 -19t11 -35q0 -28 -16 -43t-43 -15q-26 0 -42 15.5t-16 45.5q0 21 12.5 42t36 37.5t58.5 27t80 10.5
q69 0 107.5 -31.5t45.5 -75.5h6q5 21 19.5 40.5t35.5 34.5t48 23.5t57 8.5q50 0 89.5 -18t67 -50.5t42 -77.5t14.5 -98v-36h-346v-13q0 -83 43 -131t114 -48q57 0 90.5 22.5t52.5 58.5l35 -22q-9 -25 -25.5 -48t-40.5 -40.5t-55.5 -28t-70.5 -10.5q-66 0 -117 31.5t-71 86.5
h-5q-7 -24 -21.5 -45.5t-37 -37.5t-53.5 -25.5t-72 -9.5zM244 46q24 0 44.5 6t36.5 18t25 30t9 43v105h-64q-43 0 -72 -5.5t-46 -17t-24.5 -30.5t-7.5 -46v-20q0 -42 26 -62.5t73 -20.5zM448 294h254v25q0 34 -6.5 63t-21 50.5t-37.5 33.5t-56 12t-57.5 -11.5t-41.5 -32.5
t-25.5 -49.5t-8.5 -62.5v-28z" />
    <glyph glyph-name="ccedilla" unicode="&#xe7;" horiz-adv-x="529" 
d="M299 -207q-37 0 -57.5 13.5t-31.5 27.5l21 22q10 -11 23.5 -17.5t33.5 -6.5q24 0 38 10t14 31q0 15 -11.5 28.5t-49.5 18.5l-27 3l13 66q-53 3 -93.5 24t-69 56.5t-43 83.5t-14.5 105q0 61 18 111t51 85.5t79 54.5t101 19q42 0 76 -9.5t57.5 -26t36.5 -40t13 -50.5
q0 -33 -18 -52.5t-49 -19.5q-32 0 -48.5 19.5t-16.5 45.5q0 23 12 39.5t33 25.5v3q-12 7 -33 11.5t-53 4.5q-35 0 -64.5 -13t-50.5 -35.5t-33 -53.5t-12 -67v-76q0 -40 11 -73t31 -56t49 -36t65 -13q62 0 97.5 25t56.5 66l35 -22q-9 -25 -24.5 -48.5t-38.5 -42t-53 -30.5
t-67 -15l-10 -50l3 -3q9 2 19 4t18 2q32 0 53 -17t21 -49q0 -21 -9 -37t-24.5 -26t-35.5 -15t-42 -5z" />
    <glyph glyph-name="egrave" unicode="&#xe8;" horiz-adv-x="549" 
d="M286 -12q-57 0 -102 19.5t-76 55t-47 85.5t-16 110t18 109.5t49.5 85.5t74.5 55.5t94 19.5q52 0 93.5 -18t70 -50.5t44 -77.5t15.5 -98v-24h-360v-25q0 -83 42.5 -131t113.5 -48q63 0 100 25t58 66l35 -22q-10 -27 -27.5 -51.5t-43.5 -43.5t-60 -30.5t-76 -11.5zM144 308
h266v11q0 34 -7.5 63t-23 50.5t-40 33.5t-58.5 12t-59.5 -11.5t-43 -32.5t-26 -49.5t-8.5 -62.5v-14zM158 738l84 41l73 -180l-29 -14z" />
    <glyph glyph-name="eacute" unicode="&#xe9;" horiz-adv-x="549" 
d="M286 -12q-57 0 -102 19.5t-76 55t-47 85.5t-16 110t18 109.5t49.5 85.5t74.5 55.5t94 19.5q52 0 93.5 -18t70 -50.5t44 -77.5t15.5 -98v-24h-360v-25q0 -83 42.5 -131t113.5 -48q63 0 100 25t58 66l35 -22q-10 -27 -27.5 -51.5t-43.5 -43.5t-60 -30.5t-76 -11.5zM144 308
h266v11q0 34 -7.5 63t-23 50.5t-40 33.5t-58.5 12t-59.5 -11.5t-43 -32.5t-26 -49.5t-8.5 -62.5v-14zM246 599l72 180l83 -41l-126 -153z" />
    <glyph glyph-name="ecircumflex" unicode="&#xea;" horiz-adv-x="549" 
d="M286 -12q-57 0 -102 19.5t-76 55t-47 85.5t-16 110t18 109.5t49.5 85.5t74.5 55.5t94 19.5q52 0 93.5 -18t70 -50.5t44 -77.5t15.5 -98v-24h-360v-25q0 -83 42.5 -131t113.5 -48q63 0 100 25t58 66l35 -22q-10 -27 -27.5 -51.5t-43.5 -43.5t-60 -30.5t-76 -11.5zM144 308
h266v11q0 34 -7.5 63t-23 50.5t-40 33.5t-58.5 12t-59.5 -11.5t-43 -32.5t-26 -49.5t-8.5 -62.5v-14zM128 615l122 150h60l122 -150l-25 -17l-127 93l-127 -93z" />
    <glyph glyph-name="edieresis" unicode="&#xeb;" horiz-adv-x="549" 
d="M286 -12q-57 0 -102 19.5t-76 55t-47 85.5t-16 110t18 109.5t49.5 85.5t74.5 55.5t94 19.5q52 0 93.5 -18t70 -50.5t44 -77.5t15.5 -98v-24h-360v-25q0 -83 42.5 -131t113.5 -48q63 0 100 25t58 66l35 -22q-10 -27 -27.5 -51.5t-43.5 -43.5t-60 -30.5t-76 -11.5zM144 308
h266v11q0 34 -7.5 63t-23 50.5t-40 33.5t-58.5 12t-59.5 -11.5t-43 -32.5t-26 -49.5t-8.5 -62.5v-14zM189 616q-24 0 -38.5 15t-14.5 36v5q0 21 14.5 36t38.5 15t38.5 -15t14.5 -36v-5q0 -21 -14.5 -36t-38.5 -15zM371 616q-24 0 -38.5 15t-14.5 36v5q0 21 14.5 36t38.5 15
t38.5 -15t14.5 -36v-5q0 -21 -14.5 -36t-38.5 -15z" />
    <glyph glyph-name="igrave" unicode="&#xec;" horiz-adv-x="324" 
d="M50 48h75v399l-75 14v36l164 31v-480h75v-48h-239v48zM48 738l84 41l73 -180l-29 -14z" />
    <glyph glyph-name="iacute" unicode="&#xed;" horiz-adv-x="324" 
d="M50 48h75v399l-75 14v36l164 31v-480h75v-48h-239v48zM136 599l72 180l83 -41l-126 -153z" />
    <glyph glyph-name="icircumflex" unicode="&#xee;" horiz-adv-x="324" 
d="M50 48h75v399l-75 14v36l164 31v-480h75v-48h-239v48zM18 615l122 150h60l122 -150l-25 -17l-127 93l-127 -93z" />
    <glyph glyph-name="idieresis" unicode="&#xef;" horiz-adv-x="324" 
d="M50 48h75v399l-75 14v36l164 31v-480h75v-48h-239v48zM79 616q-24 0 -38.5 15t-14.5 36v5q0 21 14.5 36t38.5 15t38.5 -15t14.5 -36v-5q0 -21 -14.5 -36t-38.5 -15zM261 616q-24 0 -38.5 15t-14.5 36v5q0 21 14.5 36t38.5 15t38.5 -15t14.5 -36v-5q0 -21 -14.5 -36
t-38.5 -15z" />
    <glyph glyph-name="eth" unicode="&#xf0;" horiz-adv-x="580" 
d="M285 -12q-57 0 -101.5 18t-75.5 52t-47.5 81.5t-16.5 106.5t16 106.5t45.5 81.5t71.5 52t93 18q82 0 130 -62l4 2q-17 51 -45 100t-70 94l-87 -62l-31 41l81 58q-54 49 -123 83h89q19 -9 39.5 -20.5t43.5 -27.5l83 60l33 -41l-73 -52q35 -30 67.5 -69t58 -89.5t41 -112.5
t15.5 -137q0 -143 -65 -212t-176 -69zM285 40q66 0 105.5 40t39.5 123v86q0 83 -39.5 123t-105.5 40t-105.5 -40t-39.5 -123v-86q0 -83 39.5 -123t105.5 -40z" />
    <glyph glyph-name="ntilde" unicode="&#xf1;" horiz-adv-x="655" 
d="M50 48h75v399l-75 14v36l161 31v-90h4q6 15 19 31t32 29t44.5 21.5t56.5 8.5q96 0 137 -48.5t41 -145.5v-286h75v-48h-239v48h75v279q0 71 -29 106t-92 35q-22 0 -43.5 -6t-39 -18.5t-28 -31t-10.5 -43.5v-321h75v-48h-239v48zM404 616q-19 0 -37 9t-35 18t-37.5 19
t-35.5 10t-24 -7.5t-28 -26.5l-20 22q13 16 23.5 29t22 22.5t23.5 14.5t28 5q19 0 36.5 -8.5t35.5 -18.5t38 -19.5t35 -9.5q7 0 12.5 1.5t11 5.5t12 10.5l16.5 16.5l20 -22q-13 -16 -23.5 -29t-22 -22.5t-23.5 -14.5t-28 -5z" />
    <glyph glyph-name="ograve" unicode="&#xf2;" horiz-adv-x="578" 
d="M289 40q37 0 64.5 12.5t44.5 34t25.5 51t8.5 63.5v114q0 34 -8.5 63.5t-25.5 51t-44.5 34t-64.5 12.5q-38 0 -65 -12.5t-44 -34t-25.5 -51t-8.5 -63.5v-114q0 -34 8.5 -63.5t25.5 -51t44 -34t65 -12.5zM289 -12q-55 0 -100 19.5t-77 54.5t-49.5 85t-17.5 111t17.5 111
t49.5 85t77 54.5t100 19.5t100 -19.5t77 -54.5t49.5 -85t17.5 -111t-17.5 -111t-49.5 -85t-77 -54.5t-100 -19.5zM168 738l84 41l73 -180l-29 -14z" />
    <glyph glyph-name="oacute" unicode="&#xf3;" horiz-adv-x="578" 
d="M289 40q37 0 64.5 12.5t44.5 34t25.5 51t8.5 63.5v114q0 34 -8.5 63.5t-25.5 51t-44.5 34t-64.5 12.5q-38 0 -65 -12.5t-44 -34t-25.5 -51t-8.5 -63.5v-114q0 -34 8.5 -63.5t25.5 -51t44 -34t65 -12.5zM289 -12q-55 0 -100 19.5t-77 54.5t-49.5 85t-17.5 111t17.5 111
t49.5 85t77 54.5t100 19.5t100 -19.5t77 -54.5t49.5 -85t17.5 -111t-17.5 -111t-49.5 -85t-77 -54.5t-100 -19.5zM256 599l72 180l83 -41l-126 -153z" />
    <glyph glyph-name="ocircumflex" unicode="&#xf4;" horiz-adv-x="578" 
d="M289 40q37 0 64.5 12.5t44.5 34t25.5 51t8.5 63.5v114q0 34 -8.5 63.5t-25.5 51t-44.5 34t-64.5 12.5q-38 0 -65 -12.5t-44 -34t-25.5 -51t-8.5 -63.5v-114q0 -34 8.5 -63.5t25.5 -51t44 -34t65 -12.5zM289 -12q-55 0 -100 19.5t-77 54.5t-49.5 85t-17.5 111t17.5 111
t49.5 85t77 54.5t100 19.5t100 -19.5t77 -54.5t49.5 -85t17.5 -111t-17.5 -111t-49.5 -85t-77 -54.5t-100 -19.5zM138 615l122 150h60l122 -150l-25 -17l-127 93l-127 -93z" />
    <glyph glyph-name="otilde" unicode="&#xf5;" horiz-adv-x="578" 
d="M289 40q37 0 64.5 12.5t44.5 34t25.5 51t8.5 63.5v114q0 34 -8.5 63.5t-25.5 51t-44.5 34t-64.5 12.5q-38 0 -65 -12.5t-44 -34t-25.5 -51t-8.5 -63.5v-114q0 -34 8.5 -63.5t25.5 -51t44 -34t65 -12.5zM289 -12q-55 0 -100 19.5t-77 54.5t-49.5 85t-17.5 111t17.5 111
t49.5 85t77 54.5t100 19.5t100 -19.5t77 -54.5t49.5 -85t17.5 -111t-17.5 -111t-49.5 -85t-77 -54.5t-100 -19.5zM350 616q-19 0 -37 9t-35 18t-37.5 19t-35.5 10t-24 -7.5t-28 -26.5l-20 22q13 16 23.5 29t22 22.5t23.5 14.5t28 5q19 0 36.5 -8.5t35.5 -18.5t38 -19.5
t35 -9.5q7 0 12.5 1.5t11 5.5t12 10.5l16.5 16.5l20 -22q-13 -16 -23.5 -29t-22 -22.5t-23.5 -14.5t-28 -5z" />
    <glyph glyph-name="odieresis" unicode="&#xf6;" horiz-adv-x="578" 
d="M289 40q37 0 64.5 12.5t44.5 34t25.5 51t8.5 63.5v114q0 34 -8.5 63.5t-25.5 51t-44.5 34t-64.5 12.5q-38 0 -65 -12.5t-44 -34t-25.5 -51t-8.5 -63.5v-114q0 -34 8.5 -63.5t25.5 -51t44 -34t65 -12.5zM289 -12q-55 0 -100 19.5t-77 54.5t-49.5 85t-17.5 111t17.5 111
t49.5 85t77 54.5t100 19.5t100 -19.5t77 -54.5t49.5 -85t17.5 -111t-17.5 -111t-49.5 -85t-77 -54.5t-100 -19.5zM199 616q-24 0 -38.5 15t-14.5 36v5q0 21 14.5 36t38.5 15t38.5 -15t14.5 -36v-5q0 -21 -14.5 -36t-38.5 -15zM381 616q-24 0 -38.5 15t-14.5 36v5
q0 21 14.5 36t38.5 15t38.5 -15t14.5 -36v-5q0 -21 -14.5 -36t-38.5 -15z" />
    <glyph glyph-name="divide" unicode="&#xf7;" 
d="M300 58q-29 0 -45.5 18t-16.5 42v6q0 24 16.5 42t45.5 18t45.5 -18t16.5 -42v-6q0 -24 -16.5 -42t-45.5 -18zM300 426q-29 0 -45.5 18t-16.5 42v6q0 24 16.5 42t45.5 18t45.5 -18t16.5 -42v-6q0 -24 -16.5 -42t-45.5 -18zM67 333h466v-56h-466v56z" />
    <glyph glyph-name="oslash" unicode="&#xf8;" horiz-adv-x="578" 
d="M48 -11l61 77q-31 35 -47.5 83.5t-16.5 108.5q0 61 17.5 111t49.5 85t77 54.5t100 19.5q43 0 79.5 -11.5t65.5 -33.5l58 73l38 -29l-61 -77q31 -35 47.5 -83.5t16.5 -108.5q0 -61 -17.5 -111t-49.5 -85t-77 -54.5t-100 -19.5q-43 0 -79.5 11.5t-65.5 33.5l-58 -73z
M396 432q-36 44 -107 44q-38 0 -65 -12.5t-44 -34t-25.5 -51t-8.5 -63.5v-114q0 -41 12 -74zM289 40q37 0 64.5 12.5t44.5 34t25.5 51t8.5 63.5v114q0 41 -12 74l-238 -305q36 -44 107 -44z" />
    <glyph glyph-name="ugrave" unicode="&#xf9;" horiz-adv-x="635" 
d="M283 -12q-96 0 -137 48.5t-41 146.5v264l-75 14v36l164 31v-338q0 -72 29 -107t92 -35q22 0 43.5 6t38.5 18.5t28 31t11 43.5v300l-75 14v36l164 31v-459l75 -14v-36l-161 -31v90h-4q-6 -15 -19 -31t-32 -29t-44.5 -21.5t-56.5 -8.5zM185 738l84 41l73 -180l-29 -14z" />
    <glyph glyph-name="uacute" unicode="&#xfa;" horiz-adv-x="635" 
d="M283 -12q-96 0 -137 48.5t-41 146.5v264l-75 14v36l164 31v-338q0 -72 29 -107t92 -35q22 0 43.5 6t38.5 18.5t28 31t11 43.5v300l-75 14v36l164 31v-459l75 -14v-36l-161 -31v90h-4q-6 -15 -19 -31t-32 -29t-44.5 -21.5t-56.5 -8.5zM273 599l72 180l83 -41l-126 -153z
" />
    <glyph glyph-name="ucircumflex" unicode="&#xfb;" horiz-adv-x="635" 
d="M283 -12q-96 0 -137 48.5t-41 146.5v264l-75 14v36l164 31v-338q0 -72 29 -107t92 -35q22 0 43.5 6t38.5 18.5t28 31t11 43.5v300l-75 14v36l164 31v-459l75 -14v-36l-161 -31v90h-4q-6 -15 -19 -31t-32 -29t-44.5 -21.5t-56.5 -8.5zM155 615l122 150h60l122 -150
l-25 -17l-127 93l-127 -93z" />
    <glyph glyph-name="udieresis" unicode="&#xfc;" horiz-adv-x="635" 
d="M283 -12q-96 0 -137 48.5t-41 146.5v264l-75 14v36l164 31v-338q0 -72 29 -107t92 -35q22 0 43.5 6t38.5 18.5t28 31t11 43.5v300l-75 14v36l164 31v-459l75 -14v-36l-161 -31v90h-4q-6 -15 -19 -31t-32 -29t-44.5 -21.5t-56.5 -8.5zM216 616q-24 0 -38.5 15t-14.5 36v5
q0 21 14.5 36t38.5 15t38.5 -15t14.5 -36v-5q0 -21 -14.5 -36t-38.5 -15zM398 616q-24 0 -38.5 15t-14.5 36v5q0 21 14.5 36t38.5 15t38.5 -15t14.5 -36v-5q0 -21 -14.5 -36t-38.5 -15z" />
    <glyph glyph-name="yacute" unicode="&#xfd;" horiz-adv-x="549" 
d="M127 -212q-53 0 -77 22.5t-24 58.5q0 27 14.5 43.5t42.5 16.5q24 0 37.5 -14t13.5 -38q0 -17 -9 -28t-19 -14v-3q11 -4 26 -4q26 0 51 22t45 72l22 56l-195 490h-53v48h221v-48h-71l141 -370h4l134 370h-71v48h187v-48h-53l-220 -555q-21 -53 -57.5 -89t-89.5 -36z
M258 599l72 180l83 -41l-126 -153z" />
    <glyph glyph-name="thorn" unicode="&#xfe;" horiz-adv-x="613" 
d="M25 -152h75v841l-75 14v36l164 31v-331h4q17 37 54.5 63t99.5 26q49 0 88.5 -17.5t68 -52t44 -84.5t15.5 -116t-15.5 -116t-44 -84.5t-68 -52t-88.5 -17.5q-62 0 -99.5 25.5t-54.5 62.5h-4v-228h95v-48h-259v48zM321 48q69 0 107 45.5t38 121.5v86q0 76 -38 121.5
t-107 45.5q-24 0 -48 -7t-42.5 -19.5t-30 -31.5t-11.5 -43v-218q0 -24 11.5 -43t30 -31.5t42.5 -19.5t48 -7z" />
    <glyph glyph-name="ydieresis" unicode="&#xff;" horiz-adv-x="549" 
d="M127 -212q-53 0 -77 22.5t-24 58.5q0 27 14.5 43.5t42.5 16.5q24 0 37.5 -14t13.5 -38q0 -17 -9 -28t-19 -14v-3q11 -4 26 -4q26 0 51 22t45 72l22 56l-195 490h-53v48h221v-48h-71l141 -370h4l134 370h-71v48h187v-48h-53l-220 -555q-21 -53 -57.5 -89t-89.5 -36z
M201 616q-24 0 -38.5 15t-14.5 36v5q0 21 14.5 36t38.5 15t38.5 -15t14.5 -36v-5q0 -21 -14.5 -36t-38.5 -15zM383 616q-24 0 -38.5 15t-14.5 36v5q0 21 14.5 36t38.5 15t38.5 -15t14.5 -36v-5q0 -21 -14.5 -36t-38.5 -15z" />
    <glyph glyph-name="Amacron" unicode="&#x100;" horiz-adv-x="701" 
d="M16 48h53l230 650h103l230 -650h53v-48h-244v48h90l-63 179h-274l-61 -179h90v-48h-207v48zM209 277h244l-117 344h-7zM210 872h280v-62h-280v62z" />
    <glyph glyph-name="amacron" unicode="&#x101;" horiz-adv-x="558" 
d="M206 -12q-73 0 -114.5 37.5t-41.5 102.5q0 37 12.5 66t40.5 48t73 29t110 10h73v74q0 60 -29.5 92.5t-89.5 32.5q-23 0 -45.5 -4t-36.5 -12v-2q12 -7 23 -19t11 -35q0 -28 -16 -43t-43 -15q-26 0 -42 15.5t-16 45.5q0 22 13 43t38 37.5t62 26.5t84 10q83 0 129.5 -42
t46.5 -118v-322h75v-38q-11 -8 -30 -14t-43 -6q-42 0 -64 23t-22 61v3h-5q-8 -17 -19.5 -32.5t-29.5 -27.5t-43.5 -19.5t-60.5 -7.5zM244 46q24 0 44.5 6t36.5 18t25 30t9 43v95h-64q-43 0 -72 -6t-46 -18t-24.5 -30t-7.5 -42v-20q0 -38 26 -57t73 -19zM133 702h280v-62
h-280v62z" />
    <glyph glyph-name="Abreve" unicode="&#x102;" horiz-adv-x="701" 
d="M16 48h53l230 650h103l230 -650h53v-48h-244v48h90l-63 179h-274l-61 -179h90v-48h-207v48zM209 277h244l-117 344h-7zM350 768q-38 0 -62 13t-39 33t-24.5 44t-16.5 46l29 14l21 -39q11 -20 30.5 -31t61.5 -11t61.5 11t30.5 31l21 39l29 -14q-8 -22 -17 -46t-24 -44
t-39.5 -33t-61.5 -13z" />
    <glyph glyph-name="abreve" unicode="&#x103;" horiz-adv-x="558" 
d="M206 -12q-73 0 -114.5 37.5t-41.5 102.5q0 37 12.5 66t40.5 48t73 29t110 10h73v74q0 60 -29.5 92.5t-89.5 32.5q-23 0 -45.5 -4t-36.5 -12v-2q12 -7 23 -19t11 -35q0 -28 -16 -43t-43 -15q-26 0 -42 15.5t-16 45.5q0 22 13 43t38 37.5t62 26.5t84 10q83 0 129.5 -42
t46.5 -118v-322h75v-38q-11 -8 -30 -14t-43 -6q-42 0 -64 23t-22 61v3h-5q-8 -17 -19.5 -32.5t-29.5 -27.5t-43.5 -19.5t-60.5 -7.5zM244 46q24 0 44.5 6t36.5 18t25 30t9 43v95h-64q-43 0 -72 -6t-46 -18t-24.5 -30t-7.5 -42v-20q0 -38 26 -57t73 -19zM273 598
q-38 0 -62 13t-39 33t-24.5 44t-16.5 46l29 14l21 -39q11 -20 30.5 -31t61.5 -11t61.5 11t30.5 31l21 39l29 -14q-8 -22 -17 -46t-24 -44t-39.5 -33t-61.5 -13z" />
    <glyph glyph-name="Aogonek" unicode="&#x104;" horiz-adv-x="701" 
d="M611 -207q-38 0 -64.5 18t-26.5 58q0 18 9.5 35t26 32.5t38 30.5t45.5 29l-1 4h-197v48h90l-63 179h-274l-61 -179h90v-48h-207v48h53l230 650h103l230 -650h53v-48q-32 -24 -50.5 -43t-27.5 -34t-11 -26.5t-2 -19.5q0 -20 11 -32.5t30 -12.5q26 0 42 21l22 -21
q-9 -16 -31 -27.5t-57 -11.5zM209 277h244l-117 344h-7z" />
    <glyph glyph-name="aogonek" unicode="&#x105;" horiz-adv-x="558" 
d="M447 -207q-39 0 -67 18t-28 58q0 35 25 60.5t77 57.5v3h-4q-42 0 -64 23t-22 61v1h-5q-8 -17 -19.5 -32.5t-29.5 -27.5t-43.5 -19.5t-60.5 -7.5q-73 0 -114.5 37.5t-41.5 102.5q0 37 12.5 66t40.5 48t73 29t110 10h73v74q0 60 -29.5 92.5t-89.5 32.5q-23 0 -45.5 -4
t-36.5 -12v-2q12 -7 23 -19t11 -35q0 -28 -16 -43t-43 -15q-26 0 -42 15.5t-16 45.5q0 22 13 43t38 37.5t62 26.5t84 10q83 0 129.5 -42t46.5 -118v-320h75v-38l-17 -11q-28 -18 -44 -36t-24 -34.5t-10 -29.5t-2 -22q0 -20 12.5 -32.5t32.5 -12.5q26 0 42 21l22 -21
q-9 -16 -31 -27.5t-57 -11.5zM244 46q24 0 44.5 6t36.5 18t25 30t9 43v95h-64q-43 0 -72 -6t-46 -18t-24.5 -30t-7.5 -42v-20q0 -38 26 -57t73 -19z" />
    <glyph glyph-name="Cacute" unicode="&#x106;" horiz-adv-x="662" 
d="M349 -12q-68 0 -123 25.5t-94 72.5t-60.5 113.5t-21.5 149.5q0 86 21.5 153.5t60.5 113.5t93 70t119 24q63 0 108 -20.5t59 -52.5h4v61h77v-204h-77v51q0 49 -44 79t-115 30q-54 0 -92 -19.5t-62.5 -52t-35.5 -75.5t-11 -90v-128q0 -53 14.5 -95.5t42 -73.5t67.5 -47.5
t91 -16.5q71 0 120 37t71 93l41 -20q-9 -29 -29 -60t-51.5 -57.5t-74.5 -43.5t-98 -17zM310 774l72 180l83 -41l-126 -153z" />
    <glyph glyph-name="cacute" unicode="&#x107;" horiz-adv-x="529" 
d="M286 -12q-57 0 -102 19.5t-76 55t-47 85.5t-16 110q0 61 18 111t51 85.5t79 54.5t101 19q42 0 76 -9.5t57.5 -26t36.5 -40t13 -50.5q0 -33 -18 -52.5t-49 -19.5q-32 0 -48.5 19.5t-16.5 45.5q0 23 12 39.5t33 25.5v3q-12 7 -33 11.5t-53 4.5q-35 0 -64.5 -13t-50.5 -35.5
t-33 -53.5t-12 -67v-76q0 -40 11 -73t31 -56t49 -36t65 -13q62 0 97.5 25t56.5 66l35 -22q-10 -27 -27 -51.5t-42 -43.5t-58.5 -30.5t-75.5 -11.5zM253 599l72 180l83 -41l-126 -153z" />
    <glyph glyph-name="Ccircumflex" unicode="&#x108;" horiz-adv-x="662" 
d="M349 -12q-68 0 -123 25.5t-94 72.5t-60.5 113.5t-21.5 149.5q0 86 21.5 153.5t60.5 113.5t93 70t119 24q63 0 108 -20.5t59 -52.5h4v61h77v-204h-77v51q0 49 -44 79t-115 30q-54 0 -92 -19.5t-62.5 -52t-35.5 -75.5t-11 -90v-128q0 -53 14.5 -95.5t42 -73.5t67.5 -47.5
t91 -16.5q71 0 120 37t71 93l41 -20q-9 -29 -29 -60t-51.5 -57.5t-74.5 -43.5t-98 -17zM192 785l122 150h60l122 -150l-25 -17l-127 93l-127 -93z" />
    <glyph glyph-name="ccircumflex" unicode="&#x109;" horiz-adv-x="529" 
d="M286 -12q-57 0 -102 19.5t-76 55t-47 85.5t-16 110q0 61 18 111t51 85.5t79 54.5t101 19q42 0 76 -9.5t57.5 -26t36.5 -40t13 -50.5q0 -33 -18 -52.5t-49 -19.5q-32 0 -48.5 19.5t-16.5 45.5q0 23 12 39.5t33 25.5v3q-12 7 -33 11.5t-53 4.5q-35 0 -64.5 -13t-50.5 -35.5
t-33 -53.5t-12 -67v-76q0 -40 11 -73t31 -56t49 -36t65 -13q62 0 97.5 25t56.5 66l35 -22q-10 -27 -27 -51.5t-42 -43.5t-58.5 -30.5t-75.5 -11.5zM135 615l122 150h60l122 -150l-25 -17l-127 93l-127 -93z" />
    <glyph glyph-name="Cdotaccent" unicode="&#x10a;" horiz-adv-x="662" 
d="M349 -12q-68 0 -123 25.5t-94 72.5t-60.5 113.5t-21.5 149.5q0 86 21.5 153.5t60.5 113.5t93 70t119 24q63 0 108 -20.5t59 -52.5h4v61h77v-204h-77v51q0 49 -44 79t-115 30q-54 0 -92 -19.5t-62.5 -52t-35.5 -75.5t-11 -90v-128q0 -53 14.5 -95.5t42 -73.5t67.5 -47.5
t91 -16.5q71 0 120 37t71 93l41 -20q-9 -29 -29 -60t-51.5 -57.5t-74.5 -43.5t-98 -17zM344 787q-24 0 -38.5 15t-14.5 36v5q0 21 14.5 36t38.5 15t38.5 -15t14.5 -36v-5q0 -21 -14.5 -36t-38.5 -15z" />
    <glyph glyph-name="cdotaccent" unicode="&#x10b;" horiz-adv-x="529" 
d="M286 -12q-57 0 -102 19.5t-76 55t-47 85.5t-16 110q0 61 18 111t51 85.5t79 54.5t101 19q42 0 76 -9.5t57.5 -26t36.5 -40t13 -50.5q0 -33 -18 -52.5t-49 -19.5q-32 0 -48.5 19.5t-16.5 45.5q0 23 12 39.5t33 25.5v3q-12 7 -33 11.5t-53 4.5q-35 0 -64.5 -13t-50.5 -35.5
t-33 -53.5t-12 -67v-76q0 -40 11 -73t31 -56t49 -36t65 -13q62 0 97.5 25t56.5 66l35 -22q-10 -27 -27 -51.5t-42 -43.5t-58.5 -30.5t-75.5 -11.5zM287 616q-24 0 -38.5 15t-14.5 36v5q0 21 14.5 36t38.5 15t38.5 -15t14.5 -36v-5q0 -21 -14.5 -36t-38.5 -15z" />
    <glyph glyph-name="Ccaron" unicode="&#x10c;" horiz-adv-x="662" 
d="M349 -12q-68 0 -123 25.5t-94 72.5t-60.5 113.5t-21.5 149.5q0 86 21.5 153.5t60.5 113.5t93 70t119 24q63 0 108 -20.5t59 -52.5h4v61h77v-204h-77v51q0 49 -44 79t-115 30q-54 0 -92 -19.5t-62.5 -52t-35.5 -75.5t-11 -90v-128q0 -53 14.5 -95.5t42 -73.5t67.5 -47.5
t91 -16.5q71 0 120 37t71 93l41 -20q-9 -29 -29 -60t-51.5 -57.5t-74.5 -43.5t-98 -17zM192 922l25 17l127 -93l127 93l25 -17l-122 -150h-60z" />
    <glyph glyph-name="ccaron" unicode="&#x10d;" horiz-adv-x="529" 
d="M286 -12q-57 0 -102 19.5t-76 55t-47 85.5t-16 110q0 61 18 111t51 85.5t79 54.5t101 19q42 0 76 -9.5t57.5 -26t36.5 -40t13 -50.5q0 -33 -18 -52.5t-49 -19.5q-32 0 -48.5 19.5t-16.5 45.5q0 23 12 39.5t33 25.5v3q-12 7 -33 11.5t-53 4.5q-35 0 -64.5 -13t-50.5 -35.5
t-33 -53.5t-12 -67v-76q0 -40 11 -73t31 -56t49 -36t65 -13q62 0 97.5 25t56.5 66l35 -22q-10 -27 -27 -51.5t-42 -43.5t-58.5 -30.5t-75.5 -11.5zM135 752l25 17l127 -93l127 93l25 -17l-122 -150h-60z" />
    <glyph glyph-name="Dcaron" unicode="&#x10e;" horiz-adv-x="724" 
d="M55 48h76v602h-76v48h301q70 0 128.5 -21.5t100.5 -65t65.5 -109t23.5 -153.5t-23.5 -153.5t-65.5 -109t-100.5 -65t-128.5 -21.5h-301v48zM225 52h121q51 0 92 17t70.5 48t45 74t15.5 96v124q0 52 -15.5 95.5t-45 74.5t-70.5 48t-92 17h-121v-594zM175 922l25 17
l127 -93l127 93l25 -17l-122 -150h-60z" />
    <glyph glyph-name="dcaron" unicode="&#x10f;" horiz-adv-x="623" 
d="M266 -12q-49 0 -88.5 17.5t-68 52t-44 84.5t-15.5 116t15.5 116t44 84.5t68 52t88.5 17.5q62 0 99.5 -26t54.5 -63h4v250l-75 14v36l164 31v-701l75 -14v-36l-164 -31v88h-4q-17 -37 -54.5 -62.5t-99.5 -25.5zM292 48q24 0 48 7t42.5 19.5t30 31.5t11.5 43v218
q0 24 -11.5 43t-30 31.5t-42.5 19.5t-48 7q-69 0 -107 -45.5t-38 -121.5v-86q0 -76 38 -121.5t107 -45.5zM581 758h88l-70 -185h-30z" />
    <glyph glyph-name="Dcroat" unicode="&#x110;" horiz-adv-x="724" 
d="M55 48h76v276h-91v50h91v276h-76v48h301q70 0 128.5 -21.5t100.5 -65t65.5 -109t23.5 -153.5t-23.5 -153.5t-65.5 -109t-100.5 -65t-128.5 -21.5h-301v48zM225 52h121q51 0 92 17t70.5 48t45 74t15.5 96v124q0 52 -15.5 95.5t-45 74.5t-70.5 48t-92 17h-121v-272h138v-50
h-138v-272z" />
    <glyph glyph-name="dcroat" unicode="&#x111;" horiz-adv-x="623" 
d="M266 -12q-49 0 -88.5 17.5t-68 52t-44 84.5t-15.5 116t15.5 116t44 84.5t68 52t88.5 17.5q62 0 99.5 -26t54.5 -63h4v179h-199v48h199v87l89 17v-104h90v-48h-90v-549l75 -14v-36l-164 -31v88h-4q-17 -37 -54.5 -62.5t-99.5 -25.5zM292 48q24 0 48 7t42.5 19.5t30 31.5
t11.5 43v218q0 24 -11.5 43t-30 31.5t-42.5 19.5t-48 7q-69 0 -107 -45.5t-38 -121.5v-86q0 -76 38 -121.5t107 -45.5z" />
    <glyph glyph-name="Emacron" unicode="&#x112;" horiz-adv-x="658" 
d="M55 48h76v602h-76v48h533v-170h-77v118h-286v-261h197v80h64v-212h-64v80h-197v-281h296v128h77v-180h-543v48zM204 872h280v-62h-280v62z" />
    <glyph glyph-name="emacron" unicode="&#x113;" horiz-adv-x="549" 
d="M286 -12q-57 0 -102 19.5t-76 55t-47 85.5t-16 110t18 109.5t49.5 85.5t74.5 55.5t94 19.5q52 0 93.5 -18t70 -50.5t44 -77.5t15.5 -98v-24h-360v-25q0 -83 42.5 -131t113.5 -48q63 0 100 25t58 66l35 -22q-10 -27 -27.5 -51.5t-43.5 -43.5t-60 -30.5t-76 -11.5zM144 308
h266v11q0 34 -7.5 63t-23 50.5t-40 33.5t-58.5 12t-59.5 -11.5t-43 -32.5t-26 -49.5t-8.5 -62.5v-14zM140 702h280v-62h-280v62z" />
    <glyph glyph-name="Ebreve" unicode="&#x114;" horiz-adv-x="658" 
d="M55 48h76v602h-76v48h533v-170h-77v118h-286v-261h197v80h64v-212h-64v80h-197v-281h296v128h77v-180h-543v48zM344 768q-38 0 -62 13t-39 33t-24.5 44t-16.5 46l29 14l21 -39q11 -20 30.5 -31t61.5 -11t61.5 11t30.5 31l21 39l29 -14q-8 -22 -17 -46t-24 -44t-39.5 -33
t-61.5 -13z" />
    <glyph glyph-name="ebreve" unicode="&#x115;" horiz-adv-x="549" 
d="M286 -12q-57 0 -102 19.5t-76 55t-47 85.5t-16 110t18 109.5t49.5 85.5t74.5 55.5t94 19.5q52 0 93.5 -18t70 -50.5t44 -77.5t15.5 -98v-24h-360v-25q0 -83 42.5 -131t113.5 -48q63 0 100 25t58 66l35 -22q-10 -27 -27.5 -51.5t-43.5 -43.5t-60 -30.5t-76 -11.5zM144 308
h266v11q0 34 -7.5 63t-23 50.5t-40 33.5t-58.5 12t-59.5 -11.5t-43 -32.5t-26 -49.5t-8.5 -62.5v-14zM280 598q-38 0 -62 13t-39 33t-24.5 44t-16.5 46l29 14l21 -39q11 -20 30.5 -31t61.5 -11t61.5 11t30.5 31l21 39l29 -14q-8 -22 -17 -46t-24 -44t-39.5 -33t-61.5 -13z
" />
    <glyph glyph-name="Edotaccent" unicode="&#x116;" horiz-adv-x="658" 
d="M55 48h76v602h-76v48h533v-170h-77v118h-286v-261h197v80h64v-212h-64v80h-197v-281h296v128h77v-180h-543v48zM344 787q-24 0 -38.5 15t-14.5 36v5q0 21 14.5 36t38.5 15t38.5 -15t14.5 -36v-5q0 -21 -14.5 -36t-38.5 -15z" />
    <glyph glyph-name="edotaccent" unicode="&#x117;" horiz-adv-x="549" 
d="M286 -12q-57 0 -102 19.5t-76 55t-47 85.5t-16 110t18 109.5t49.5 85.5t74.5 55.5t94 19.5q52 0 93.5 -18t70 -50.5t44 -77.5t15.5 -98v-24h-360v-25q0 -83 42.5 -131t113.5 -48q63 0 100 25t58 66l35 -22q-10 -27 -27.5 -51.5t-43.5 -43.5t-60 -30.5t-76 -11.5zM144 308
h266v11q0 34 -7.5 63t-23 50.5t-40 33.5t-58.5 12t-59.5 -11.5t-43 -32.5t-26 -49.5t-8.5 -62.5v-14zM280 616q-24 0 -38.5 15t-14.5 36v5q0 21 14.5 36t38.5 15t38.5 -15t14.5 -36v-5q0 -21 -14.5 -36t-38.5 -15z" />
    <glyph glyph-name="Eogonek" unicode="&#x118;" horiz-adv-x="658" 
d="M544 -207q-39 0 -67 18t-28 58q0 38 30.5 68t77.5 59l-1 4h-501v48h76v602h-76v48h533v-170h-77v118h-286v-261h197v80h64v-212h-64v80h-197v-281h296v128h77v-180q-28 -26 -43 -45t-22 -33.5t-8.5 -25.5t-1.5 -19q0 -20 12.5 -32.5t32.5 -12.5q26 0 42 21l22 -21
q-9 -16 -31 -27.5t-57 -11.5z" />
    <glyph glyph-name="eogonek" unicode="&#x119;" horiz-adv-x="549" 
d="M352 -207q-39 0 -67 18t-28 58q0 21 9.5 39.5t24.5 34t34 29.5t38 26l-1 5q-14 -8 -31.5 -11.5t-44.5 -3.5q-57 0 -102 19.5t-76 55t-47 85.5t-16 110t18 109.5t49.5 85.5t74.5 55.5t94 19.5q52 0 93.5 -18t70 -50.5t44 -77.5t15.5 -98v-24h-360v-25q0 -83 42.5 -131
t113.5 -48q63 0 100 25t58 66l35 -22q-16 -44 -55 -82q-57 -54 -82 -93.5t-25 -72.5q0 -20 12.5 -32.5t32.5 -12.5q26 0 42 21l22 -21q-9 -16 -31 -27.5t-57 -11.5zM144 308h266v11q0 34 -7.5 63t-23 50.5t-40 33.5t-58.5 12t-59.5 -11.5t-43 -32.5t-26 -49.5t-8.5 -62.5
v-14z" />
    <glyph glyph-name="Ecaron" unicode="&#x11a;" horiz-adv-x="658" 
d="M55 48h76v602h-76v48h533v-170h-77v118h-286v-261h197v80h64v-212h-64v80h-197v-281h296v128h77v-180h-543v48zM192 922l25 17l127 -93l127 93l25 -17l-122 -150h-60z" />
    <glyph glyph-name="ecaron" unicode="&#x11b;" horiz-adv-x="549" 
d="M286 -12q-57 0 -102 19.5t-76 55t-47 85.5t-16 110t18 109.5t49.5 85.5t74.5 55.5t94 19.5q52 0 93.5 -18t70 -50.5t44 -77.5t15.5 -98v-24h-360v-25q0 -83 42.5 -131t113.5 -48q63 0 100 25t58 66l35 -22q-10 -27 -27.5 -51.5t-43.5 -43.5t-60 -30.5t-76 -11.5zM144 308
h266v11q0 34 -7.5 63t-23 50.5t-40 33.5t-58.5 12t-59.5 -11.5t-43 -32.5t-26 -49.5t-8.5 -62.5v-14zM128 752l25 17l127 -93l127 93l25 -17l-122 -150h-60z" />
    <glyph glyph-name="Gcircumflex" unicode="&#x11c;" horiz-adv-x="735" 
d="M347 -12q-67 0 -121.5 25t-93.5 71.5t-60.5 113.5t-21.5 151q0 87 21.5 154.5t61.5 113t96.5 69.5t126.5 24q82 0 126.5 -22t57.5 -52h5v62h77v-204h-77v47q0 56 -47 84.5t-129 28.5q-56 0 -96 -17t-66.5 -48.5t-39 -75t-12.5 -95.5v-136q0 -52 14.5 -95t41 -73.5t64 -47
t83.5 -16.5q39 0 71.5 9.5t56.5 28.5t37.5 46t13.5 63v93h-125v48h283v-48h-64v-290h-35l-53 95h-4q-8 -19 -23.5 -38t-39.5 -34.5t-56 -25t-73 -9.5zM203 785l122 150h60l122 -150l-25 -17l-127 93l-127 -93z" />
    <glyph glyph-name="gcircumflex" unicode="&#x11d;" horiz-adv-x="559" 
d="M267 -212q-62 0 -104.5 9t-69 25t-38.5 39t-12 51q0 20 9.5 36.5t24.5 29t34.5 22t39.5 14.5v4q-65 23 -65 87q0 40 26 63t61 33v5q-48 20 -76.5 58.5t-28.5 93.5q0 39 15.5 70.5t42.5 53.5t64 34t81 12t82 -12h172v-50h-59l-33 2v-2q20 -21 31 -48t11 -60
q0 -39 -15.5 -70.5t-42.5 -53.5t-64.5 -34t-81.5 -12q-14 0 -27 1.5t-26 3.5q-26 -5 -47 -20.5t-21 -38.5q0 -26 19.5 -35t64.5 -9h120q90 0 133.5 -36t43.5 -103q0 -73 -66.5 -118t-197.5 -45zM271 233q54 0 81.5 28t27.5 78v37q0 50 -27.5 78.5t-81.5 28.5t-81 -28.5
t-27 -78.5v-37q0 -50 27 -78t81 -28zM121 -83q0 -40 34.5 -59t92.5 -19h48q75 0 118 24.5t43 65.5q0 37 -26 56t-91 19h-160q-32 -15 -45.5 -37.5t-13.5 -49.5zM118 615l122 150h60l122 -150l-25 -17l-127 93l-127 -93z" />
    <glyph glyph-name="Gbreve" unicode="&#x11e;" horiz-adv-x="735" 
d="M347 -12q-67 0 -121.5 25t-93.5 71.5t-60.5 113.5t-21.5 151q0 87 21.5 154.5t61.5 113t96.5 69.5t126.5 24q82 0 126.5 -22t57.5 -52h5v62h77v-204h-77v47q0 56 -47 84.5t-129 28.5q-56 0 -96 -17t-66.5 -48.5t-39 -75t-12.5 -95.5v-136q0 -52 14.5 -95t41 -73.5t64 -47
t83.5 -16.5q39 0 71.5 9.5t56.5 28.5t37.5 46t13.5 63v93h-125v48h283v-48h-64v-290h-35l-53 95h-4q-8 -19 -23.5 -38t-39.5 -34.5t-56 -25t-73 -9.5zM355 768q-38 0 -62 13t-39 33t-24.5 44t-16.5 46l29 14l21 -39q11 -20 30.5 -31t61.5 -11t61.5 11t30.5 31l21 39l29 -14
q-8 -22 -17 -46t-24 -44t-39.5 -33t-61.5 -13z" />
    <glyph glyph-name="gbreve" unicode="&#x11f;" horiz-adv-x="559" 
d="M267 -212q-62 0 -104.5 9t-69 25t-38.5 39t-12 51q0 20 9.5 36.5t24.5 29t34.5 22t39.5 14.5v4q-65 23 -65 87q0 40 26 63t61 33v5q-48 20 -76.5 58.5t-28.5 93.5q0 39 15.5 70.5t42.5 53.5t64 34t81 12t82 -12h172v-50h-59l-33 2v-2q20 -21 31 -48t11 -60
q0 -39 -15.5 -70.5t-42.5 -53.5t-64.5 -34t-81.5 -12q-14 0 -27 1.5t-26 3.5q-26 -5 -47 -20.5t-21 -38.5q0 -26 19.5 -35t64.5 -9h120q90 0 133.5 -36t43.5 -103q0 -73 -66.5 -118t-197.5 -45zM271 233q54 0 81.5 28t27.5 78v37q0 50 -27.5 78.5t-81.5 28.5t-81 -28.5
t-27 -78.5v-37q0 -50 27 -78t81 -28zM121 -83q0 -40 34.5 -59t92.5 -19h48q75 0 118 24.5t43 65.5q0 37 -26 56t-91 19h-160q-32 -15 -45.5 -37.5t-13.5 -49.5zM270 598q-38 0 -62 13t-39 33t-24.5 44t-16.5 46l29 14l21 -39q11 -20 30.5 -31t61.5 -11t61.5 11t30.5 31
l21 39l29 -14q-8 -22 -17 -46t-24 -44t-39.5 -33t-61.5 -13z" />
    <glyph glyph-name="Gdotaccent" unicode="&#x120;" horiz-adv-x="735" 
d="M347 -12q-67 0 -121.5 25t-93.5 71.5t-60.5 113.5t-21.5 151q0 87 21.5 154.5t61.5 113t96.5 69.5t126.5 24q82 0 126.5 -22t57.5 -52h5v62h77v-204h-77v47q0 56 -47 84.5t-129 28.5q-56 0 -96 -17t-66.5 -48.5t-39 -75t-12.5 -95.5v-136q0 -52 14.5 -95t41 -73.5t64 -47
t83.5 -16.5q39 0 71.5 9.5t56.5 28.5t37.5 46t13.5 63v93h-125v48h283v-48h-64v-290h-35l-53 95h-4q-8 -19 -23.5 -38t-39.5 -34.5t-56 -25t-73 -9.5zM355 787q-24 0 -38.5 15t-14.5 36v5q0 21 14.5 36t38.5 15t38.5 -15t14.5 -36v-5q0 -21 -14.5 -36t-38.5 -15z" />
    <glyph glyph-name="gdotaccent" unicode="&#x121;" horiz-adv-x="559" 
d="M267 -212q-62 0 -104.5 9t-69 25t-38.5 39t-12 51q0 20 9.5 36.5t24.5 29t34.5 22t39.5 14.5v4q-65 23 -65 87q0 40 26 63t61 33v5q-48 20 -76.5 58.5t-28.5 93.5q0 39 15.5 70.5t42.5 53.5t64 34t81 12q48 0 82.5 -12.5t58.5 -29.5q0 30 6.5 49t17 30t24 15.5t28.5 4.5
q23 0 38.5 -13.5t15.5 -36.5q0 -22 -14 -35.5t-40 -13.5q-13 0 -25 4.5t-20 14.5h-3v-45q12 -15 23.5 -39.5t11.5 -62.5q0 -39 -15.5 -70.5t-42.5 -53.5t-64.5 -34t-81.5 -12q-14 0 -27 1.5t-26 3.5q-26 -5 -47 -20.5t-21 -38.5q0 -26 19.5 -35t64.5 -9h120q90 0 133.5 -36
t43.5 -103q0 -73 -66.5 -118t-197.5 -45zM271 233q54 0 81.5 28t27.5 78v38q0 50 -27 78t-81 28t-81.5 -28t-27.5 -78v-38q0 -50 27 -78t81 -28zM121 -83q0 -39 34.5 -58t92.5 -19h48q75 0 118 24t43 65q0 37 -26 56t-91 19h-160q-32 -15 -45.5 -37.5t-13.5 -49.5zM270 616
q-24 0 -38.5 15t-14.5 36v5q0 21 14.5 36t38.5 15t38.5 -15t14.5 -36v-5q0 -21 -14.5 -36t-38.5 -15z" />
    <glyph glyph-name="Gcommaaccent" unicode="&#x122;" horiz-adv-x="735" 
d="M347 -12q-67 0 -121.5 25t-93.5 71.5t-60.5 113.5t-21.5 151q0 87 21.5 154.5t61.5 113t96.5 69.5t126.5 24q82 0 126.5 -22t57.5 -52h5v62h77v-204h-77v47q0 56 -47 84.5t-129 28.5q-56 0 -96 -17t-66.5 -48.5t-39 -75t-12.5 -95.5v-136q0 -52 14.5 -95t41 -73.5t64 -47
t83.5 -16.5q39 0 71.5 9.5t56.5 28.5t37.5 46t13.5 63v93h-125v48h283v-48h-64v-290h-35l-53 95h-4q-8 -19 -23.5 -38t-39.5 -34.5t-56 -25t-73 -9.5zM296 -250q19 19 33 42.5t21 44.5q-29 1 -44 15t-15 37v5q0 22 16 37t43 15q26 0 40.5 -16t14.5 -39v-7q0 -32 -18.5 -69.5
t-48.5 -64.5h-42v0z" />
    <glyph glyph-name="gcommaaccent" unicode="&#x123;" horiz-adv-x="559" 
d="M267 -212q-62 0 -104.5 9t-69 25t-38.5 39t-12 51q0 20 9.5 36.5t24.5 29t34.5 22t39.5 14.5v4q-65 23 -65 87q0 40 26 63t61 33v5q-48 20 -76.5 58.5t-28.5 93.5q0 39 15.5 70.5t42.5 53.5t64 34t81 12q48 0 82.5 -12.5t58.5 -29.5q0 30 6.5 49t17 30t24 15.5t28.5 4.5
q23 0 38.5 -13.5t15.5 -36.5q0 -22 -14 -35.5t-40 -13.5q-13 0 -25 4.5t-20 14.5h-3v-45q12 -15 23.5 -39.5t11.5 -62.5q0 -39 -15.5 -70.5t-42.5 -53.5t-64.5 -34t-81.5 -12q-14 0 -27 1.5t-26 3.5q-26 -5 -47 -20.5t-21 -38.5q0 -26 19.5 -35t64.5 -9h120q90 0 133.5 -36
t43.5 -103q0 -73 -66.5 -118t-197.5 -45zM271 233q54 0 81.5 28t27.5 78v38q0 50 -27 78t-81 28t-81.5 -28t-27.5 -78v-38q0 -50 27 -78t81 -28zM121 -83q0 -39 34.5 -58t92.5 -19h48q75 0 118 24t43 65q0 37 -26 56t-91 19h-160q-32 -15 -45.5 -37.5t-13.5 -49.5zM270 584
q-26 0 -40.5 16t-14.5 39v7q0 32 18.5 69.5t48.5 64.5h42q-19 -19 -33 -42.5t-21 -44.5q29 -1 44 -15t15 -37v-5q0 -22 -16 -37t-43 -15z" />
    <glyph glyph-name="Hcircumflex" unicode="&#x124;" horiz-adv-x="806" 
d="M55 48h76v602h-76v48h246v-48h-76v-269h356v269h-76v48h246v-48h-76v-602h76v-48h-246v48h76v281h-356v-281h76v-48h-246v48zM251 785l122 150h60l122 -150l-25 -17l-127 93l-127 -93z" />
    <glyph glyph-name="hcircumflex" unicode="&#x125;" horiz-adv-x="640" 
d="M35 48h75v641l-75 14v36l164 31v-331h4q6 15 18.5 31t31 29t43.5 21t56 8q96 0 137 -48.5t41 -145.5v-286h75v-48h-239v48h75v279q0 71 -29 106t-92 35q-22 0 -43.5 -6t-39 -18.5t-28 -31t-10.5 -43.5v-321h75v-48h-239v48zM3 793l122 150h60l122 -150l-25 -17l-127 93
l-127 -93z" />
    <glyph glyph-name="Hbar" unicode="&#x126;" horiz-adv-x="806" 
d="M55 48h76v450h-91v50h91v102h-76v48h246v-48h-76v-102h356v102h-76v48h246v-48h-76v-102h91v-50h-91v-450h76v-48h-246v48h76v281h-356v-281h76v-48h-246v48zM225 381h356v117h-356v-117z" />
    <glyph glyph-name="hbar" unicode="&#x127;" horiz-adv-x="640" 
d="M35 48h75v570h-90v48h90v87l89 17v-104h199v-48h-199v-179h4q6 15 18.5 31t31 29t43.5 21t56 8q96 0 137 -48.5t41 -145.5v-286h75v-48h-239v48h75v279q0 71 -29 106t-92 35q-22 0 -43.5 -6t-39 -18.5t-28 -31t-10.5 -43.5v-321h75v-48h-239v48z" />
    <glyph glyph-name="Itilde" unicode="&#x128;" horiz-adv-x="356" 
d="M55 48h76v602h-76v48h246v-48h-76v-602h76v-48h-246v48zM239 783q-19 0 -37 9t-35 18t-37.5 19t-35.5 10t-24 -7.5t-28 -26.5l-20 22q13 16 23.5 29t22 22.5t23.5 14.5t28 5q19 0 36.5 -8.5t35.5 -18.5t38 -19.5t35 -9.5q7 0 12.5 1.5t11 5.5t12 10.5l16.5 16.5l20 -22
q-13 -16 -23.5 -29t-22 -22.5t-23.5 -14.5t-28 -5z" />
    <glyph glyph-name="itilde" unicode="&#x129;" horiz-adv-x="324" 
d="M50 48h75v399l-75 14v36l164 31v-480h75v-48h-239v48zM230 616q-19 0 -37 9t-35 18t-37.5 19t-35.5 10t-24 -7.5t-28 -26.5l-20 22q13 16 23.5 29t22 22.5t23.5 14.5t28 5q19 0 36.5 -8.5t35.5 -18.5t38 -19.5t35 -9.5q7 0 12.5 1.5t11 5.5t12 10.5l16.5 16.5l20 -22
q-13 -16 -23.5 -29t-22 -22.5t-23.5 -14.5t-28 -5z" />
    <glyph glyph-name="Imacron" unicode="&#x12a;" horiz-adv-x="356" 
d="M55 48h76v602h-76v48h246v-48h-76v-602h76v-48h-246v48zM39 872h280v-62h-280v62z" />
    <glyph glyph-name="imacron" unicode="&#x12b;" horiz-adv-x="324" 
d="M50 48h75v399l-75 14v36l164 31v-480h75v-48h-239v48zM30 702h280v-62h-280v62z" />
    <glyph glyph-name="Ibreve" unicode="&#x12c;" horiz-adv-x="356" 
d="M55 48h76v602h-76v48h246v-48h-76v-602h76v-48h-246v48zM179 768q-38 0 -62 13t-39 33t-24.5 44t-16.5 46l29 14l21 -39q11 -20 30.5 -31t61.5 -11t61.5 11t30.5 31l21 39l29 -14q-8 -22 -17 -46t-24 -44t-39.5 -33t-61.5 -13z" />
    <glyph glyph-name="ibreve" unicode="&#x12d;" horiz-adv-x="324" 
d="M50 48h75v399l-75 14v36l164 31v-480h75v-48h-239v48zM170 598q-38 0 -62 13t-39 33t-24.5 44t-16.5 46l29 14l21 -39q11 -20 30.5 -31t61.5 -11t61.5 11t30.5 31l21 39l29 -14q-8 -22 -17 -46t-24 -44t-39.5 -33t-61.5 -13z" />
    <glyph glyph-name="Iogonek" unicode="&#x12e;" horiz-adv-x="356" 
d="M227 -207q-38 0 -64.5 18t-26.5 58q0 18 9.5 35t26 32.5t38 30.5t45.5 29l-1 4h-199v48h76v602h-76v48h246v-48h-76v-602h76v-48q-32 -24 -50.5 -43t-27.5 -34t-11 -26.5t-2 -19.5q0 -20 11 -32.5t30 -12.5q26 0 42 21l22 -21q-9 -16 -31 -27.5t-57 -11.5z" />
    <glyph glyph-name="iogonek" unicode="&#x12f;" horiz-adv-x="324" 
d="M215 -207q-38 0 -64.5 18t-26.5 58q0 18 9.5 35t26 32.5t38 30.5t45.5 29l-1 4h-192v48h75v399l-75 14v36l164 31v-480h75v-48q-32 -24 -50.5 -43t-27.5 -34t-11 -26.5t-2 -19.5q0 -20 11 -32.5t30 -12.5q26 0 42 21l22 -21q-9 -16 -31 -27.5t-57 -11.5zM169 632
q-27 0 -42 16t-15 39v6q0 23 15 39t42 16t42 -16t15 -39v-6q0 -23 -15 -39t-42 -16z" />
    <glyph glyph-name="Idotaccent" unicode="&#x130;" horiz-adv-x="356" 
d="M55 48h76v602h-76v48h246v-48h-76v-602h76v-48h-246v48zM179 787q-24 0 -38.5 15t-14.5 36v5q0 21 14.5 36t38.5 15t38.5 -15t14.5 -36v-5q0 -21 -14.5 -36t-38.5 -15z" />
    <glyph glyph-name="dotlessi" unicode="&#x131;" horiz-adv-x="324" 
d="M50 48h75v399l-75 14v36l164 31v-480h75v-48h-239v48z" />
    <glyph glyph-name="IJ" unicode="&#x132;" horiz-adv-x="827" 
d="M55 48h76v602h-76v48h246v-48h-76v-602h76v-48h-246v48zM514 -12q-72 0 -107.5 27.5t-35.5 70.5q0 29 17 48.5t47 19.5q27 0 42 -17t15 -43q0 -21 -10.5 -33.5t-21.5 -16.5v-3q19 -6 54 -6q98 0 98 119v496h-96v48h266v-48h-76v-487q0 -88 -50.5 -131.5t-141.5 -43.5z
" />
    <glyph glyph-name="ij" unicode="&#x133;" horiz-adv-x="638" 
d="M169 632q-27 0 -42 16t-15 39v6q0 23 15 39t42 16t42 -16t15 -39v-6q0 -23 -15 -39t-42 -16zM50 48h75v399l-75 14v36l164 31v-480h75v-48h-239v48zM386 -212q-51 0 -76.5 23t-25.5 58q0 23 14 38.5t38 15.5q23 0 35.5 -13.5t12.5 -35.5q0 -15 -6.5 -26.5t-16.5 -14.5v-3
q9 -4 25 -4q63 0 63 79v542l-75 14v36l164 31v-576q0 -83 -40 -123.5t-112 -40.5zM493 632q-27 0 -42 16t-15 39v6q0 23 15 39t42 16t42 -16t15 -39v-6q0 -23 -15 -39t-42 -16z" />
    <glyph glyph-name="Jcircumflex" unicode="&#x134;" horiz-adv-x="471" 
d="M158 -12q-72 0 -107.5 27.5t-35.5 70.5q0 29 17 48.5t47 19.5q27 0 42 -17t15 -43q0 -21 -10.5 -33.5t-21.5 -16.5v-3q19 -6 54 -6q98 0 98 119v496h-96v48h266v-48h-76v-487q0 -88 -50.5 -131.5t-141.5 -43.5zM142 785l122 150h60l122 -150l-25 -17l-127 93l-127 -93z
" />
    <glyph glyph-name="jcircumflex" unicode="&#x135;" horiz-adv-x="314" 
d="M62 -212q-51 0 -76.5 23t-25.5 58q0 23 14 38.5t38 15.5q23 0 35.5 -13.5t12.5 -35.5q0 -15 -6.5 -26.5t-16.5 -14.5v-3q9 -4 25 -4q63 0 63 79v542l-75 14v36l164 31v-576q0 -83 -40 -123.5t-112 -40.5zM18 615l122 150h60l122 -150l-25 -17l-127 93l-127 -93z" />
    <glyph glyph-name="Kcommaaccent" unicode="&#x136;" horiz-adv-x="725" 
d="M55 48h76v602h-76v48h246v-48h-76v-328h4l91 102l212 226h-81v48h223v-48h-69l-217 -230l244 -372h71v-48h-249v48h71l-203 306l-97 -103v-203h76v-48h-246v48zM314 -250q19 19 33 42.5t21 44.5q-29 1 -44 15t-15 37v5q0 22 16 37t43 15q26 0 40.5 -16t14.5 -39v-7
q0 -32 -18.5 -69.5t-48.5 -64.5h-42v0z" />
    <glyph glyph-name="kcommaaccent" unicode="&#x137;" horiz-adv-x="599" 
d="M35 48h75v641l-75 14v36l164 31v-531h5l85 94l125 135h-69v48h223v-48h-76l-144 -147l182 -273h57v-48h-221v48h64l-143 214l-88 -90v-124h75v-48h-239v48zM268 -250q19 19 33 42.5t21 44.5q-29 1 -44 15t-15 37v5q0 22 16 37t43 15q26 0 40.5 -16t14.5 -39v-7
q0 -32 -18.5 -69.5t-48.5 -64.5h-42v0z" />
    <glyph glyph-name="kgreenlandic" unicode="&#x138;" horiz-adv-x="599" 
d="M35 48h75v399l-75 14v36l164 31v-289h5l85 94l125 135h-69v48h223v-48h-76l-144 -147l182 -273h57v-48h-221v48h64l-143 214l-88 -90v-124h75v-48h-239v48z" />
    <glyph glyph-name="Lacute" unicode="&#x139;" horiz-adv-x="608" 
d="M55 48h76v602h-76v48h246v-48h-76v-598h256v128h77v-180h-503v48zM145 774l72 180l83 -41l-126 -153z" />
    <glyph glyph-name="lacute" unicode="&#x13a;" horiz-adv-x="309" 
d="M35 48h75v641l-75 14v36l164 31v-722h75v-48h-239v48zM121 799l72 180l83 -41l-126 -153z" />
    <glyph glyph-name="Lcommaaccent" unicode="&#x13b;" horiz-adv-x="608" 
d="M55 48h76v602h-76v48h246v-48h-76v-598h256v128h77v-180h-503v48zM266 -250q19 19 33 42.5t21 44.5q-29 1 -44 15t-15 37v5q0 22 16 37t43 15q26 0 40.5 -16t14.5 -39v-7q0 -32 -18.5 -69.5t-48.5 -64.5h-42v0z" />
    <glyph glyph-name="lcommaaccent" unicode="&#x13c;" horiz-adv-x="309" 
d="M35 48h75v641l-75 14v36l164 31v-722h75v-48h-239v48zM103 -250q19 19 33 42.5t21 44.5q-29 1 -44 15t-15 37v5q0 22 16 37t43 15q26 0 40.5 -16t14.5 -39v-7q0 -32 -18.5 -69.5t-48.5 -64.5h-42v0z" />
    <glyph glyph-name="Lcaron" unicode="&#x13d;" horiz-adv-x="608" 
d="M55 48h76v602h-76v48h246v-48h-76v-598h256v128h77v-180h-503v48zM393 741h88l-70 -185h-30z" />
    <glyph glyph-name="lcaron" unicode="&#x13e;" horiz-adv-x="309" 
d="M35 48h75v641l-75 14v36l164 31v-722h75v-48h-239v48zM268 758h88l-70 -185h-30z" />
    <glyph glyph-name="Ldot" unicode="&#x13f;" horiz-adv-x="608" 
d="M55 48h76v602h-76v48h246v-48h-76v-598h256v128h77v-180h-503v48zM376 293q-24 0 -38.5 15t-14.5 36v5q0 21 14.5 36t38.5 15t38.5 -15t14.5 -36v-5q0 -21 -14.5 -36t-38.5 -15z" />
    <glyph glyph-name="ldot" unicode="&#x140;" horiz-adv-x="347" 
d="M35 48h75v641l-75 14v36l164 31v-722h75v-48h-239v48zM325 245q-24 0 -38.5 15t-14.5 36v5q0 21 14.5 36t38.5 15t38.5 -15t14.5 -36v-5q0 -21 -14.5 -36t-38.5 -15z" />
    <glyph glyph-name="Lslash" unicode="&#x141;" horiz-adv-x="608" 
d="M55 48h76v232l-94 -32v53l94 32v317h-76v48h246v-48h-76v-286l159 54v-53l-159 -54v-259h256v128h77v-180h-503v48z" />
    <glyph glyph-name="lslash" unicode="&#x142;" horiz-adv-x="319" 
d="M40 48h75v293l-90 -28v50l90 28v298l-75 14v36l164 31v-351l90 28v-50l-90 -28v-321h75v-48h-239v48z" />
    <glyph glyph-name="Nacute" unicode="&#x143;" horiz-adv-x="796" 
d="M55 48h76v602h-76v48h178l379 -551h4v503h-76v48h211v-48h-76v-650h-72l-409 595h-4v-547h76v-48h-211v48zM368 774l72 180l83 -41l-126 -153z" />
    <glyph glyph-name="nacute" unicode="&#x144;" horiz-adv-x="655" 
d="M50 48h75v399l-75 14v36l161 31v-90h4q6 15 19 31t32 29t44.5 21.5t56.5 8.5q96 0 137 -48.5t41 -145.5v-286h75v-48h-239v48h75v279q0 71 -29 106t-92 35q-22 0 -43.5 -6t-39 -18.5t-28 -31t-10.5 -43.5v-321h75v-48h-239v48zM310 599l72 180l83 -41l-126 -153z" />
    <glyph glyph-name="Ncommaaccent" unicode="&#x145;" horiz-adv-x="796" 
d="M55 48h76v602h-76v48h178l379 -551h4v503h-76v48h211v-48h-76v-650h-72l-409 595h-4v-547h76v-48h-211v48zM351 -250q19 19 33 42.5t21 44.5q-29 1 -44 15t-15 37v5q0 22 16 37t43 15q26 0 40.5 -16t14.5 -39v-7q0 -32 -18.5 -69.5t-48.5 -64.5h-42v0z" />
    <glyph glyph-name="ncommaaccent" unicode="&#x146;" horiz-adv-x="655" 
d="M50 48h75v399l-75 14v36l161 31v-90h4q6 15 19 31t32 29t44.5 21.5t56.5 8.5q96 0 137 -48.5t41 -145.5v-286h75v-48h-239v48h75v279q0 71 -29 106t-92 35q-22 0 -43.5 -6t-39 -18.5t-28 -31t-10.5 -43.5v-321h75v-48h-239v48zM283 -250q19 19 33 42.5t21 44.5
q-29 1 -44 15t-15 37v5q0 22 16 37t43 15q26 0 40.5 -16t14.5 -39v-7q0 -32 -18.5 -69.5t-48.5 -64.5h-42v0z" />
    <glyph glyph-name="Ncaron" unicode="&#x147;" horiz-adv-x="796" 
d="M55 48h76v602h-76v48h178l379 -551h4v503h-76v48h211v-48h-76v-650h-72l-409 595h-4v-547h76v-48h-211v48zM250 922l25 17l127 -93l127 93l25 -17l-122 -150h-60z" />
    <glyph glyph-name="ncaron" unicode="&#x148;" horiz-adv-x="655" 
d="M50 48h75v399l-75 14v36l161 31v-90h4q6 15 19 31t32 29t44.5 21.5t56.5 8.5q96 0 137 -48.5t41 -145.5v-286h75v-48h-239v48h75v279q0 71 -29 106t-92 35q-22 0 -43.5 -6t-39 -18.5t-28 -31t-10.5 -43.5v-321h75v-48h-239v48zM192 752l25 17l127 -93l127 93l25 -17
l-122 -150h-60z" />
    <glyph glyph-name="napostrophe" unicode="&#x149;" horiz-adv-x="897" 
d="M44 485q34 29 58 60.5t31 60.5h-2q-29 0 -45 19t-16 44v6q0 27 18 46t48 19q31 0 48.5 -20t17.5 -49v-10q0 -22 -8 -46.5t-22 -48t-33 -45t-41 -36.5h-54v0zM292 48h75v399l-75 14v36l161 31v-90h4q6 15 19 31t32 29t44.5 21.5t56.5 8.5q96 0 137 -48.5t41 -145.5v-286
h75v-48h-239v48h75v279q0 71 -29 106t-92 35q-22 0 -43.5 -6t-39 -18.5t-28 -31t-10.5 -43.5v-321h75v-48h-239v48z" />
    <glyph glyph-name="Eng" unicode="&#x14a;" horiz-adv-x="796" 
d="M553 -212q-51 0 -76.5 23t-25.5 58q0 23 14 38.5t38 15.5q23 0 35.5 -13.5t12.5 -35.5q0 -15 -6.5 -26.5t-16.5 -14.5v-3q9 -4 25 -4q63 0 63 85v89h-13l-409 595h-4v-547h76v-48h-211v48h76v602h-76v48h178l379 -551h4v503h-76v48h211v-48h-76v-739q0 -60 -34 -91.5
t-88 -31.5z" />
    <glyph glyph-name="eng" unicode="&#x14b;" horiz-adv-x="645" 
d="M393 -212q-51 0 -76.5 23t-25.5 58q0 23 14 38.5t38 15.5q23 0 35.5 -13.5t12.5 -35.5q0 -15 -6.5 -26.5t-16.5 -14.5v-3q9 -4 25 -4q63 0 63 79v422q0 71 -29 106t-92 35q-22 0 -43.5 -6t-39 -18.5t-28 -31t-10.5 -43.5v-321h75v-48h-239v48h75v399l-75 14v36l161 31
v-90h4q6 15 19 31t32 29t44.5 21.5t56.5 8.5q96 0 137 -48.5t41 -145.5v-382q0 -83 -40 -123.5t-112 -40.5z" />
    <glyph glyph-name="Omacron" unicode="&#x14c;" horiz-adv-x="734" 
d="M367 44q52 0 91.5 18.5t66.5 51.5t40.5 77.5t13.5 97.5v120q0 52 -13.5 97t-40.5 78t-66.5 51.5t-91.5 18.5t-91.5 -18.5t-66.5 -51.5t-40.5 -78t-13.5 -97v-120q0 -53 13.5 -97.5t40.5 -77.5t66.5 -51.5t91.5 -18.5zM367 -12q-71 0 -129.5 25t-100 72t-64.5 114t-23 150
t23 150t64.5 114t100 72t129.5 25t129.5 -25t100 -72t64.5 -114t23 -150t-23 -150t-64.5 -114t-100 -72t-129.5 -25zM227 872h280v-62h-280v62z" />
    <glyph glyph-name="omacron" unicode="&#x14d;" horiz-adv-x="578" 
d="M289 40q37 0 64.5 12.5t44.5 34t25.5 51t8.5 63.5v114q0 34 -8.5 63.5t-25.5 51t-44.5 34t-64.5 12.5q-38 0 -65 -12.5t-44 -34t-25.5 -51t-8.5 -63.5v-114q0 -34 8.5 -63.5t25.5 -51t44 -34t65 -12.5zM289 -12q-55 0 -100 19.5t-77 54.5t-49.5 85t-17.5 111t17.5 111
t49.5 85t77 54.5t100 19.5t100 -19.5t77 -54.5t49.5 -85t17.5 -111t-17.5 -111t-49.5 -85t-77 -54.5t-100 -19.5zM150 702h280v-62h-280v62z" />
    <glyph glyph-name="Obreve" unicode="&#x14e;" horiz-adv-x="734" 
d="M367 44q52 0 91.5 18.5t66.5 51.5t40.5 77.5t13.5 97.5v120q0 52 -13.5 97t-40.5 78t-66.5 51.5t-91.5 18.5t-91.5 -18.5t-66.5 -51.5t-40.5 -78t-13.5 -97v-120q0 -53 13.5 -97.5t40.5 -77.5t66.5 -51.5t91.5 -18.5zM367 -12q-71 0 -129.5 25t-100 72t-64.5 114t-23 150
t23 150t64.5 114t100 72t129.5 25t129.5 -25t100 -72t64.5 -114t23 -150t-23 -150t-64.5 -114t-100 -72t-129.5 -25zM367 768q-38 0 -62 13t-39 33t-24.5 44t-16.5 46l29 14l21 -39q11 -20 30.5 -31t61.5 -11t61.5 11t30.5 31l21 39l29 -14q-8 -22 -17 -46t-24 -44
t-39.5 -33t-61.5 -13z" />
    <glyph glyph-name="obreve" unicode="&#x14f;" horiz-adv-x="578" 
d="M289 40q37 0 64.5 12.5t44.5 34t25.5 51t8.5 63.5v114q0 34 -8.5 63.5t-25.5 51t-44.5 34t-64.5 12.5q-38 0 -65 -12.5t-44 -34t-25.5 -51t-8.5 -63.5v-114q0 -34 8.5 -63.5t25.5 -51t44 -34t65 -12.5zM289 -12q-55 0 -100 19.5t-77 54.5t-49.5 85t-17.5 111t17.5 111
t49.5 85t77 54.5t100 19.5t100 -19.5t77 -54.5t49.5 -85t17.5 -111t-17.5 -111t-49.5 -85t-77 -54.5t-100 -19.5zM290 598q-38 0 -62 13t-39 33t-24.5 44t-16.5 46l29 14l21 -39q11 -20 30.5 -31t61.5 -11t61.5 11t30.5 31l21 39l29 -14q-8 -22 -17 -46t-24 -44t-39.5 -33
t-61.5 -13z" />
    <glyph glyph-name="Ohungarumlaut" unicode="&#x150;" horiz-adv-x="734" 
d="M367 44q52 0 91.5 18.5t66.5 51.5t40.5 77.5t13.5 97.5v120q0 52 -13.5 97t-40.5 78t-66.5 51.5t-91.5 18.5t-91.5 -18.5t-66.5 -51.5t-40.5 -78t-13.5 -97v-120q0 -53 13.5 -97.5t40.5 -77.5t66.5 -51.5t91.5 -18.5zM367 -12q-71 0 -129.5 25t-100 72t-64.5 114t-23 150
t23 150t64.5 114t100 72t129.5 25t129.5 -25t100 -72t64.5 -114t23 -150t-23 -150t-64.5 -114t-100 -72t-129.5 -25zM253 774l72 180l83 -41l-126 -153zM413 774l72 180l83 -41l-126 -153z" />
    <glyph glyph-name="ohungarumlaut" unicode="&#x151;" horiz-adv-x="578" 
d="M289 40q37 0 64.5 12.5t44.5 34t25.5 51t8.5 63.5v114q0 34 -8.5 63.5t-25.5 51t-44.5 34t-64.5 12.5q-38 0 -65 -12.5t-44 -34t-25.5 -51t-8.5 -63.5v-114q0 -34 8.5 -63.5t25.5 -51t44 -34t65 -12.5zM289 -12q-55 0 -100 19.5t-77 54.5t-49.5 85t-17.5 111t17.5 111
t49.5 85t77 54.5t100 19.5t100 -19.5t77 -54.5t49.5 -85t17.5 -111t-17.5 -111t-49.5 -85t-77 -54.5t-100 -19.5zM176 599l72 180l83 -41l-126 -153zM336 599l72 180l83 -41l-126 -153z" />
    <glyph glyph-name="OE" unicode="&#x152;" horiz-adv-x="1038" 
d="M377 -12q-77 0 -137.5 25t-102.5 72t-64.5 114t-22.5 150t22.5 150t64.5 114t102.5 72t137.5 25q48 0 92 -12h499v-170h-77v118h-286v-261h197v80h64v-212h-64v80h-197v-281h296v128h77v-180h-509q-44 -12 -92 -12zM377 44q42 0 76.5 9t57.5 28v536q-23 19 -57.5 28
t-76.5 9q-57 0 -98.5 -18.5t-69 -51.5t-41 -78t-13.5 -97v-120q0 -53 13 -97.5t40.5 -77.5t69.5 -51.5t99 -18.5z" />
    <glyph glyph-name="oe" unicode="&#x153;" horiz-adv-x="935" 
d="M288 -12q-55 0 -99.5 19.5t-76.5 54.5t-49.5 85t-17.5 111t17.5 111t49.5 85t76.5 54.5t99.5 19.5q63 0 116 -27.5t75 -85.5h4q23 57 74 85t110 28q52 0 93.5 -18t70 -50.5t44 -77.5t15.5 -98v-24h-360v-25q0 -83 42 -131t114 -48q63 0 100 25t58 66l35 -22
q-10 -27 -27.5 -51.5t-43.5 -43.5t-60 -30.5t-76 -11.5q-66 0 -113.5 26.5t-76.5 83.5h-4q-29 -57 -78 -83.5t-112 -26.5zM289 40q38 0 65 12.5t44.5 34t26 51t8.5 63.5v114q0 34 -8.5 63.5t-26 51t-44.5 34t-65 12.5t-65 -12.5t-44 -34t-25.5 -51t-8.5 -63.5v-114
q0 -34 8.5 -63.5t25.5 -51t44 -34t65 -12.5zM530 306h266v13q0 34 -7.5 63t-23 50.5t-40 33.5t-58.5 12t-59.5 -11.5t-43 -32.5t-26 -49.5t-8.5 -62.5v-16z" />
    <glyph glyph-name="Racute" unicode="&#x154;" horiz-adv-x="688" 
d="M55 48h76v602h-76v48h335q95 0 148 -46t53 -139q0 -70 -39.5 -117.5t-116.5 -62.5l118 -214q20 -37 46 -54t64 -17h8v-48h-68q-30 0 -50.5 5.5t-36 17t-27.5 28.5t-24 40l-125 229h-115v-272h76v-48h-246v48zM225 372h156q53 0 82 32.5t29 80.5v48q0 48 -29 80.5
t-82 32.5h-156v-274zM281 774l72 180l83 -41l-126 -153z" />
    <glyph glyph-name="racute" unicode="&#x155;" horiz-adv-x="458" 
d="M50 48h75v399l-75 14v36l161 31v-89h5q7 16 18 31.5t26.5 28.5t36.5 21t48 8q46 0 74.5 -22t28.5 -64q0 -32 -16 -49.5t-42 -17.5q-29 0 -46 15.5t-17 38.5q0 22 9 34.5t21 14.5v2q-5 1 -10.5 1.5t-15.5 0.5q-21 0 -42 -10t-37.5 -26.5t-27 -37t-10.5 -40.5v-320h95v-48
h-259v48zM238 599l72 180l83 -41l-126 -153z" />
    <glyph glyph-name="Rcommaaccent" unicode="&#x156;" horiz-adv-x="688" 
d="M55 48h76v602h-76v48h335q95 0 148 -46t53 -139q0 -70 -39.5 -117.5t-116.5 -62.5l118 -214q20 -37 46 -54t64 -17h8v-48h-68q-30 0 -50.5 5.5t-36 17t-27.5 28.5t-24 40l-125 229h-115v-272h76v-48h-246v48zM225 372h156q53 0 82 32.5t29 80.5v48q0 48 -29 80.5
t-82 32.5h-156v-274zM338 -250q19 19 33 42.5t21 44.5q-29 1 -44 15t-15 37v5q0 22 16 37t43 15q26 0 40.5 -16t14.5 -39v-7q0 -32 -18.5 -69.5t-48.5 -64.5h-42v0z" />
    <glyph glyph-name="rcommaaccent" unicode="&#x157;" horiz-adv-x="458" 
d="M50 48h75v399l-75 14v36l161 31v-89h5q7 16 18 31.5t26.5 28.5t36.5 21t48 8q46 0 74.5 -22t28.5 -64q0 -32 -16 -49.5t-42 -17.5q-29 0 -46 15.5t-17 38.5q0 22 9 34.5t21 14.5v2q-5 1 -10.5 1.5t-15.5 0.5q-21 0 -42 -10t-37.5 -26.5t-27 -37t-10.5 -40.5v-320h95v-48
h-259v48zM118 -250q19 19 33 42.5t21 44.5q-29 1 -44 15t-15 37v5q0 22 16 37t43 15q26 0 40.5 -16t14.5 -39v-7q0 -32 -18.5 -69.5t-48.5 -64.5h-42v0z" />
    <glyph glyph-name="Rcaron" unicode="&#x158;" horiz-adv-x="688" 
d="M55 48h76v602h-76v48h335q95 0 148 -46t53 -139q0 -70 -39.5 -117.5t-116.5 -62.5l118 -214q20 -37 46 -54t64 -17h8v-48h-68q-30 0 -50.5 5.5t-36 17t-27.5 28.5t-24 40l-125 229h-115v-272h76v-48h-246v48zM225 372h156q53 0 82 32.5t29 80.5v48q0 48 -29 80.5
t-82 32.5h-156v-274zM163 922l25 17l127 -93l127 93l25 -17l-122 -150h-60z" />
    <glyph glyph-name="rcaron" unicode="&#x159;" horiz-adv-x="458" 
d="M50 48h75v399l-75 14v36l161 31v-89h5q7 16 18 31.5t26.5 28.5t36.5 21t48 8q46 0 74.5 -22t28.5 -64q0 -32 -16 -49.5t-42 -17.5q-29 0 -46 15.5t-17 38.5q0 22 9 34.5t21 14.5v2q-5 1 -10.5 1.5t-15.5 0.5q-21 0 -42 -10t-37.5 -26.5t-27 -37t-10.5 -40.5v-320h95v-48
h-259v48zM120 752l25 17l127 -93l127 93l25 -17l-122 -150h-60z" />
    <glyph glyph-name="Sacute" unicode="&#x15a;" horiz-adv-x="601" 
d="M302 -12q-61 0 -102 19t-57 52h-6v-59h-77v204h77v-44q0 -25 8 -46t25.5 -36.5t46 -24.5t69.5 -9q88 0 126 36t38 97q0 51 -28.5 80.5t-92.5 46.5l-55 14q-94 24 -147.5 72t-53.5 134q0 42 16.5 76.5t46.5 59t71.5 37.5t91.5 13q57 0 93.5 -16.5t52.5 -47.5h6v52h77v-194
h-77v44q0 24 -7.5 44t-25 33.5t-47 21t-72.5 7.5q-70 0 -104.5 -31t-34.5 -82t31 -81.5t100 -48.5l51 -13q91 -23 142.5 -71t51.5 -128q0 -46 -15.5 -84.5t-45.5 -66.5t-73.5 -44t-99.5 -16zM265 774l72 180l83 -41l-126 -153z" />
    <glyph glyph-name="sacute" unicode="&#x15b;" horiz-adv-x="499" 
d="M258 -12q-24 0 -45 5.5t-37.5 14t-28.5 19.5t-18 23h-4v-50h-65v156h65v-20q0 -42 26.5 -68.5t89.5 -26.5q57 0 88.5 18.5t31.5 63.5q0 33 -21.5 55.5t-62.5 30.5l-62 13q-76 16 -114.5 54.5t-38.5 104.5q0 69 48 108t130 39q48 0 79 -14.5t41 -38.5h4v41h65v-156h-65v39
q0 38 -27 57.5t-85 19.5q-51 0 -79.5 -19t-28.5 -59q0 -34 23 -57t62 -31l58 -12q79 -17 118.5 -54.5t39.5 -103.5q0 -32 -13 -59.5t-37 -48t-58.5 -32.5t-78.5 -12zM208 599l72 180l83 -41l-126 -153z" />
    <glyph glyph-name="Scircumflex" unicode="&#x15c;" horiz-adv-x="601" 
d="M302 -12q-61 0 -102 19t-57 52h-6v-59h-77v204h77v-44q0 -25 8 -46t25.5 -36.5t46 -24.5t69.5 -9q88 0 126 36t38 97q0 51 -28.5 80.5t-92.5 46.5l-55 14q-94 24 -147.5 72t-53.5 134q0 42 16.5 76.5t46.5 59t71.5 37.5t91.5 13q57 0 93.5 -16.5t52.5 -47.5h6v52h77v-194
h-77v44q0 24 -7.5 44t-25 33.5t-47 21t-72.5 7.5q-70 0 -104.5 -31t-34.5 -82t31 -81.5t100 -48.5l51 -13q91 -23 142.5 -71t51.5 -128q0 -46 -15.5 -84.5t-45.5 -66.5t-73.5 -44t-99.5 -16zM147 785l122 150h60l122 -150l-25 -17l-127 93l-127 -93z" />
    <glyph glyph-name="scircumflex" unicode="&#x15d;" horiz-adv-x="499" 
d="M258 -12q-24 0 -45 5.5t-37.5 14t-28.5 19.5t-18 23h-4v-50h-65v156h65v-20q0 -42 26.5 -68.5t89.5 -26.5q57 0 88.5 18.5t31.5 63.5q0 33 -21.5 55.5t-62.5 30.5l-62 13q-76 16 -114.5 54.5t-38.5 104.5q0 69 48 108t130 39q48 0 79 -14.5t41 -38.5h4v41h65v-156h-65v39
q0 38 -27 57.5t-85 19.5q-51 0 -79.5 -19t-28.5 -59q0 -34 23 -57t62 -31l58 -12q79 -17 118.5 -54.5t39.5 -103.5q0 -32 -13 -59.5t-37 -48t-58.5 -32.5t-78.5 -12zM90 615l122 150h60l122 -150l-25 -17l-127 93l-127 -93z" />
    <glyph glyph-name="Scedilla" unicode="&#x15e;" horiz-adv-x="601" 
d="M313 -207q-37 0 -57.5 13.5t-31.5 27.5l21 22q10 -11 23.5 -17.5t33.5 -6.5q24 0 38 10t14 31q0 15 -11.5 28.5t-49.5 18.5l-27 3l13 66q-52 3 -87 21.5t-49 48.5h-6v-59h-77v204h77v-44q0 -25 8 -46t25.5 -36.5t46 -24.5t69.5 -9q88 0 126 36t38 97q0 51 -28.5 80.5
t-92.5 46.5l-55 14q-94 24 -147.5 72t-53.5 134q0 42 16.5 76.5t46.5 59t71.5 37.5t91.5 13q57 0 93.5 -16.5t52.5 -47.5h6v52h77v-194h-77v44q0 24 -7.5 44t-25 33.5t-47 21t-72.5 7.5q-70 0 -104.5 -31t-34.5 -82t31 -81.5t100 -48.5l51 -13q91 -23 142.5 -71t51.5 -128
q0 -44 -14.5 -81.5t-42 -65.5t-67.5 -44.5t-92 -19.5l-10 -49l3 -3q9 2 19 4t18 2q32 0 53 -17t21 -49q0 -21 -9 -37t-24.5 -26t-35.5 -15t-42 -5z" />
    <glyph glyph-name="scedilla" unicode="&#x15f;" horiz-adv-x="499" 
d="M264 -207q-37 0 -57.5 13.5t-31.5 27.5l21 22q10 -11 23.5 -17.5t33.5 -6.5q24 0 38 10t14 31q0 15 -11.5 28.5t-49.5 18.5l-27 3l13 67q-38 5 -64.5 22.5t-36.5 37.5h-4v-50h-65v156h65v-20q0 -42 26.5 -68.5t89.5 -26.5q57 0 88.5 18.5t31.5 63.5q0 33 -21.5 55.5
t-62.5 30.5l-62 13q-76 16 -114.5 54.5t-38.5 104.5q0 69 48 108t130 39q48 0 79 -14.5t41 -38.5h4v41h65v-156h-65v39q0 38 -27 57.5t-85 19.5q-51 0 -79.5 -19t-28.5 -59q0 -34 23 -57t62 -31l58 -12q79 -17 118.5 -54.5t39.5 -103.5q0 -62 -46 -105t-128 -47l-10 -49
l3 -3q9 2 19 4t18 2q32 0 53 -17t21 -49q0 -21 -9 -37t-24.5 -26t-35.5 -15t-42 -5z" />
    <glyph glyph-name="Scaron" unicode="&#x160;" horiz-adv-x="601" 
d="M302 -12q-61 0 -102 19t-57 52h-6v-59h-77v204h77v-44q0 -25 8 -46t25.5 -36.5t46 -24.5t69.5 -9q88 0 126 36t38 97q0 51 -28.5 80.5t-92.5 46.5l-55 14q-94 24 -147.5 72t-53.5 134q0 42 16.5 76.5t46.5 59t71.5 37.5t91.5 13q57 0 93.5 -16.5t52.5 -47.5h6v52h77v-194
h-77v44q0 24 -7.5 44t-25 33.5t-47 21t-72.5 7.5q-70 0 -104.5 -31t-34.5 -82t31 -81.5t100 -48.5l51 -13q91 -23 142.5 -71t51.5 -128q0 -46 -15.5 -84.5t-45.5 -66.5t-73.5 -44t-99.5 -16zM147 922l25 17l127 -93l127 93l25 -17l-122 -150h-60z" />
    <glyph glyph-name="scaron" unicode="&#x161;" horiz-adv-x="499" 
d="M258 -12q-24 0 -45 5.5t-37.5 14t-28.5 19.5t-18 23h-4v-50h-65v156h65v-20q0 -42 26.5 -68.5t89.5 -26.5q57 0 88.5 18.5t31.5 63.5q0 33 -21.5 55.5t-62.5 30.5l-62 13q-76 16 -114.5 54.5t-38.5 104.5q0 69 48 108t130 39q48 0 79 -14.5t41 -38.5h4v41h65v-156h-65v39
q0 38 -27 57.5t-85 19.5q-51 0 -79.5 -19t-28.5 -59q0 -34 23 -57t62 -31l58 -12q79 -17 118.5 -54.5t39.5 -103.5q0 -32 -13 -59.5t-37 -48t-58.5 -32.5t-78.5 -12zM90 752l25 17l127 -93l127 93l25 -17l-122 -150h-60z" />
    <glyph glyph-name="Tcommaaccent" unicode="&#x162;" horiz-adv-x="668" 
d="M191 48h96v598h-175v-118h-77v170h598v-170h-77v118h-175v-598h96v-48h-286v48zM282 -250q19 19 33 42.5t21 44.5q-29 1 -44 15t-15 37v5q0 22 16 37t43 15q26 0 40.5 -16t14.5 -39v-7q0 -32 -18.5 -69.5t-48.5 -64.5h-42v0z" />
    <glyph glyph-name="tcommaaccent" unicode="&#x163;" horiz-adv-x="363" 
d="M210 -6q-57 0 -78.5 22.5t-21.5 77.5v370h-67v52h8q22 0 35 3t21 8.5t12 14t7 19.5l25 89h48v-134h135v-52h-135v-412h135v-35q-17 -10 -52.5 -16.5t-71.5 -6.5zM169 -250q19 19 33 42.5t21 44.5q-29 1 -44 15t-15 37v5q0 22 16 37t43 15q26 0 40.5 -16t14.5 -39v-7
q0 -32 -18.5 -69.5t-48.5 -64.5h-42v0z" />
    <glyph glyph-name="Tcaron" unicode="&#x164;" horiz-adv-x="668" 
d="M191 48h96v598h-175v-118h-77v170h598v-170h-77v118h-175v-598h96v-48h-286v48zM182 922l25 17l127 -93l127 93l25 -17l-122 -150h-60z" />
    <glyph glyph-name="tcaron" unicode="&#x165;" horiz-adv-x="363" 
d="M210 -6q-57 0 -78.5 22.5t-21.5 77.5v370h-67v52h8q22 0 35 3t21 8.5t12 14t7 19.5l25 89h48v-134h135v-52h-135v-412h135v-35q-17 -10 -52.5 -16.5t-71.5 -6.5zM274 758h88l-70 -185h-30z" />
    <glyph glyph-name="Tbar" unicode="&#x166;" horiz-adv-x="668" 
d="M191 48h96v285h-157v50h157v263h-175v-118h-77v170h598v-170h-77v118h-175v-263h157v-50h-157v-285h96v-48h-286v48z" />
    <glyph glyph-name="tbar" unicode="&#x167;" horiz-adv-x="368" 
d="M215 -6q-57 0 -78.5 22.5t-21.5 77.5v160h-52v48h52v162h-67v52h8q22 0 35 3t21 8.5t12 14t7 19.5l25 89h48v-134h135v-52h-135v-162h120v-48h-120v-202h135v-35q-17 -10 -52.5 -16.5t-71.5 -6.5z" />
    <glyph glyph-name="Utilde" unicode="&#x168;" horiz-adv-x="751" 
d="M384 -12q-70 0 -120 15t-81.5 49t-46.5 87t-15 130v381h-76v48h246v-48h-76v-398q0 -51 9 -89.5t29.5 -64t53.5 -38t82 -12.5q99 0 140.5 51t41.5 153v398h-76v48h211v-48h-76v-367q0 -76 -12.5 -131.5t-41.5 -92t-76 -54t-116 -17.5zM453 783q-19 0 -37 9t-35 18
t-37.5 19t-35.5 10t-24 -7.5t-28 -26.5l-20 22q13 16 23.5 29t22 22.5t23.5 14.5t28 5q19 0 36.5 -8.5t35.5 -18.5t38 -19.5t35 -9.5q7 0 12.5 1.5t11 5.5t12 10.5l16.5 16.5l20 -22q-13 -16 -23.5 -29t-22 -22.5t-23.5 -14.5t-28 -5z" />
    <glyph glyph-name="utilde" unicode="&#x169;" horiz-adv-x="635" 
d="M283 -12q-96 0 -137 48.5t-41 146.5v264l-75 14v36l164 31v-338q0 -72 29 -107t92 -35q22 0 43.5 6t38.5 18.5t28 31t11 43.5v300l-75 14v36l164 31v-459l75 -14v-36l-161 -31v90h-4q-6 -15 -19 -31t-32 -29t-44.5 -21.5t-56.5 -8.5zM367 616q-19 0 -37 9t-35 18
t-37.5 19t-35.5 10t-24 -7.5t-28 -26.5l-20 22q13 16 23.5 29t22 22.5t23.5 14.5t28 5q19 0 36.5 -8.5t35.5 -18.5t38 -19.5t35 -9.5q7 0 12.5 1.5t11 5.5t12 10.5l16.5 16.5l20 -22q-13 -16 -23.5 -29t-22 -22.5t-23.5 -14.5t-28 -5z" />
    <glyph glyph-name="Umacron" unicode="&#x16a;" horiz-adv-x="751" 
d="M384 -12q-70 0 -120 15t-81.5 49t-46.5 87t-15 130v381h-76v48h246v-48h-76v-398q0 -51 9 -89.5t29.5 -64t53.5 -38t82 -12.5q99 0 140.5 51t41.5 153v398h-76v48h211v-48h-76v-367q0 -76 -12.5 -131.5t-41.5 -92t-76 -54t-116 -17.5zM253 872h280v-62h-280v62z" />
    <glyph glyph-name="umacron" unicode="&#x16b;" horiz-adv-x="635" 
d="M283 -12q-96 0 -137 48.5t-41 146.5v264l-75 14v36l164 31v-338q0 -72 29 -107t92 -35q22 0 43.5 6t38.5 18.5t28 31t11 43.5v300l-75 14v36l164 31v-459l75 -14v-36l-161 -31v90h-4q-6 -15 -19 -31t-32 -29t-44.5 -21.5t-56.5 -8.5zM167 702h280v-62h-280v62z" />
    <glyph glyph-name="Ubreve" unicode="&#x16c;" horiz-adv-x="751" 
d="M384 -12q-70 0 -120 15t-81.5 49t-46.5 87t-15 130v381h-76v48h246v-48h-76v-398q0 -51 9 -89.5t29.5 -64t53.5 -38t82 -12.5q99 0 140.5 51t41.5 153v398h-76v48h211v-48h-76v-367q0 -76 -12.5 -131.5t-41.5 -92t-76 -54t-116 -17.5zM393 768q-38 0 -62 13t-39 33
t-24.5 44t-16.5 46l29 14l21 -39q11 -20 30.5 -31t61.5 -11t61.5 11t30.5 31l21 39l29 -14q-8 -22 -17 -46t-24 -44t-39.5 -33t-61.5 -13z" />
    <glyph glyph-name="ubreve" unicode="&#x16d;" horiz-adv-x="635" 
d="M283 -12q-96 0 -137 48.5t-41 146.5v264l-75 14v36l164 31v-338q0 -72 29 -107t92 -35q22 0 43.5 6t38.5 18.5t28 31t11 43.5v300l-75 14v36l164 31v-459l75 -14v-36l-161 -31v90h-4q-6 -15 -19 -31t-32 -29t-44.5 -21.5t-56.5 -8.5zM307 598q-38 0 -62 13t-39 33
t-24.5 44t-16.5 46l29 14l21 -39q11 -20 30.5 -31t61.5 -11t61.5 11t30.5 31l21 39l29 -14q-8 -22 -17 -46t-24 -44t-39.5 -33t-61.5 -13z" />
    <glyph glyph-name="Uring" unicode="&#x16e;" horiz-adv-x="751" 
d="M384 -12q-70 0 -120 15t-81.5 49t-46.5 87t-15 130v381h-76v48h246v-48h-76v-398q0 -51 9 -89.5t29.5 -64t53.5 -38t82 -12.5q99 0 140.5 51t41.5 153v398h-76v48h211v-48h-76v-367q0 -76 -12.5 -131.5t-41.5 -92t-76 -54t-116 -17.5zM393 782q27 0 42.5 16.5t15.5 46.5
v32q0 30 -15.5 46.5t-42.5 16.5t-42.5 -16.5t-15.5 -46.5v-32q0 -30 15.5 -46.5t42.5 -16.5zM393 746q-25 0 -47 8.5t-38 24t-25.5 36.5t-9.5 46t9.5 46t25.5 36.5t38 24t47 8.5t47 -8.5t38 -24t25.5 -36.5t9.5 -46t-9.5 -46t-25.5 -36.5t-38 -24t-47 -8.5z" />
    <glyph glyph-name="uring" unicode="&#x16f;" horiz-adv-x="635" 
d="M283 -12q-96 0 -137 48.5t-41 146.5v264l-75 14v36l164 31v-338q0 -72 29 -107t92 -35q22 0 43.5 6t38.5 18.5t28 31t11 43.5v300l-75 14v36l164 31v-459l75 -14v-36l-161 -31v90h-4q-6 -15 -19 -31t-32 -29t-44.5 -21.5t-56.5 -8.5zM307 612q27 0 42.5 16.5t15.5 46.5
v32q0 30 -15.5 46.5t-42.5 16.5t-42.5 -16.5t-15.5 -46.5v-32q0 -30 15.5 -46.5t42.5 -16.5zM307 576q-25 0 -47 8.5t-38 24t-25.5 36.5t-9.5 46t9.5 46t25.5 36.5t38 24t47 8.5t47 -8.5t38 -24t25.5 -36.5t9.5 -46t-9.5 -46t-25.5 -36.5t-38 -24t-47 -8.5z" />
    <glyph glyph-name="Uhungarumlaut" unicode="&#x170;" horiz-adv-x="751" 
d="M384 -12q-70 0 -120 15t-81.5 49t-46.5 87t-15 130v381h-76v48h246v-48h-76v-398q0 -51 9 -89.5t29.5 -64t53.5 -38t82 -12.5q99 0 140.5 51t41.5 153v398h-76v48h211v-48h-76v-367q0 -76 -12.5 -131.5t-41.5 -92t-76 -54t-116 -17.5zM279 774l72 180l83 -41l-126 -153z
M439 774l72 180l83 -41l-126 -153z" />
    <glyph glyph-name="uhungarumlaut" unicode="&#x171;" horiz-adv-x="635" 
d="M283 -12q-96 0 -137 48.5t-41 146.5v264l-75 14v36l164 31v-338q0 -72 29 -107t92 -35q22 0 43.5 6t38.5 18.5t28 31t11 43.5v300l-75 14v36l164 31v-459l75 -14v-36l-161 -31v90h-4q-6 -15 -19 -31t-32 -29t-44.5 -21.5t-56.5 -8.5zM193 599l72 180l83 -41l-126 -153z
M353 599l72 180l83 -41l-126 -153z" />
    <glyph glyph-name="Uogonek" unicode="&#x172;" horiz-adv-x="751" 
d="M481 -207q-39 0 -67 18t-28 58q0 34 27.5 65t65.5 60l-2 4q-19 -5 -43 -7.5t-50 -2.5q-70 0 -120 15t-81.5 49t-46.5 87t-15 130v381h-76v48h246v-48h-76v-398q0 -51 9 -89.5t29.5 -64t53.5 -38t82 -12.5q99 0 140.5 51t41.5 153v398h-76v48h211v-48h-76v-367
q0 -91 -18.5 -152t-60.5 -98q-32 -28 -50.5 -52t-27.5 -43.5t-11 -35t-2 -25.5q0 -20 12.5 -32.5t32.5 -12.5q26 0 42 21l22 -21q-9 -16 -31 -27.5t-57 -11.5z" />
    <glyph glyph-name="uogonek" unicode="&#x173;" horiz-adv-x="635" 
d="M536 -207q-39 0 -67 18t-28 58t31.5 71t79.5 66l-1 4l-112 -22v90h-4q-6 -15 -19 -31t-32 -29t-44.5 -21.5t-56.5 -8.5q-96 0 -137 48.5t-41 146.5v264l-75 14v36l164 31v-338q0 -72 29 -107t92 -35q22 0 43.5 6t38.5 18.5t28 31t11 43.5v300l-75 14v36l164 31v-459
l75 -14v-36q-32 -30 -49 -52t-25 -39t-9.5 -29.5t-1.5 -21.5q0 -20 12.5 -32.5t32.5 -12.5q26 0 42 21l22 -21q-9 -16 -31 -27.5t-57 -11.5z" />
    <glyph glyph-name="Wcircumflex" unicode="&#x174;" horiz-adv-x="987" 
d="M76 650h-53v48h242v-48h-90l129 -542h4l154 590h91l158 -590h4l131 542h-90v48h208v-48h-53l-168 -650h-89l-161 576h-4l-155 -576h-90zM356 785l122 150h60l122 -150l-25 -17l-127 93l-127 -93z" />
    <glyph glyph-name="wcircumflex" unicode="&#x175;" horiz-adv-x="795" 
d="M61 468h-53v48h214v-48h-71l103 -383h4l125 431h75l115 -431h4l104 383h-71v48h177v-48h-53l-132 -468h-87l-110 398h-4l-122 -398h-86zM268 615l122 150h60l122 -150l-25 -17l-127 93l-127 -93z" />
    <glyph glyph-name="Ycircumflex" unicode="&#x176;" horiz-adv-x="648" 
d="M181 48h96v233l-204 369h-53v48h249v-48h-90l162 -305h4l165 305h-90v48h208v-48h-53l-204 -364v-238h96v-48h-286v48zM192 785l122 150h60l122 -150l-25 -17l-127 93l-127 -93z" />
    <glyph glyph-name="ycircumflex" unicode="&#x177;" horiz-adv-x="549" 
d="M127 -212q-53 0 -77 22.5t-24 58.5q0 27 14.5 43.5t42.5 16.5q24 0 37.5 -14t13.5 -38q0 -17 -9 -28t-19 -14v-3q11 -4 26 -4q26 0 51 22t45 72l22 56l-195 490h-53v48h221v-48h-71l141 -370h4l134 370h-71v48h187v-48h-53l-220 -555q-21 -53 -57.5 -89t-89.5 -36z
M140 615l122 150h60l122 -150l-25 -17l-127 93l-127 -93z" />
    <glyph glyph-name="Ydieresis" unicode="&#x178;" horiz-adv-x="648" 
d="M181 48h96v233l-204 369h-53v48h249v-48h-90l162 -305h4l165 305h-90v48h208v-48h-53l-204 -364v-238h96v-48h-286v48zM253 788q-24 0 -38.5 15t-14.5 36v5q0 21 14.5 36t38.5 15t38.5 -15t14.5 -36v-5q0 -21 -14.5 -36t-38.5 -15zM435 788q-24 0 -38.5 15t-14.5 36v5
q0 21 14.5 36t38.5 15t38.5 -15t14.5 -36v-5q0 -21 -14.5 -36t-38.5 -15z" />
    <glyph glyph-name="Zacute" unicode="&#x179;" horiz-adv-x="651" 
d="M60 52l408 594h-322v-118h-77v170h508v-52l-408 -594h340v128h77v-180h-526v52zM280 774l72 180l83 -41l-126 -153z" />
    <glyph glyph-name="zacute" unicode="&#x17a;" horiz-adv-x="521" 
d="M50 36l298 430h-225v-106h-65v156h405v-36l-298 -430h241v106h65v-156h-421v36zM229 599l72 180l83 -41l-126 -153z" />
    <glyph glyph-name="Zdotaccent" unicode="&#x17b;" horiz-adv-x="651" 
d="M60 52l408 594h-322v-118h-77v170h508v-52l-408 -594h340v128h77v-180h-526v52zM314 787q-24 0 -38.5 15t-14.5 36v5q0 21 14.5 36t38.5 15t38.5 -15t14.5 -36v-5q0 -21 -14.5 -36t-38.5 -15z" />
    <glyph glyph-name="zdotaccent" unicode="&#x17c;" horiz-adv-x="521" 
d="M50 36l298 430h-225v-106h-65v156h405v-36l-298 -430h241v106h65v-156h-421v36zM263 616q-24 0 -38.5 15t-14.5 36v5q0 21 14.5 36t38.5 15t38.5 -15t14.5 -36v-5q0 -21 -14.5 -36t-38.5 -15z" />
    <glyph glyph-name="Zcaron" unicode="&#x17d;" horiz-adv-x="651" 
d="M60 52l408 594h-322v-118h-77v170h508v-52l-408 -594h340v128h77v-180h-526v52zM162 922l25 17l127 -93l127 93l25 -17l-122 -150h-60z" />
    <glyph glyph-name="zcaron" unicode="&#x17e;" horiz-adv-x="521" 
d="M50 36l298 430h-225v-106h-65v156h405v-36l-298 -430h241v106h65v-156h-421v36zM111 752l25 17l127 -93l127 93l25 -17l-122 -150h-60z" />
    <glyph glyph-name="uni018F" unicode="&#x18f;" horiz-adv-x="717" 
d="M355 -12q-72 0 -129 25t-96 66t-59.5 93.5t-20.5 106.5v52h512v78q0 50 -14.5 92.5t-43.5 74t-74 49t-106 17.5q-80 0 -135.5 -36.5t-78.5 -93.5l-41 20q9 29 30.5 60.5t56.5 57.5t82 43t107 17q76 0 136 -25t101 -72t63 -113.5t22 -150.5q0 -83 -22.5 -150t-63.5 -114
t-98.5 -72t-127.5 -25zM355 44q49 0 87.5 18t65 49.5t40.5 74.5t14 94v1h-407v-1q0 -51 13.5 -94t39 -74.5t63 -49.5t84.5 -18z" />
    <glyph glyph-name="florin" unicode="&#x192;" horiz-adv-x="485" 
d="M47 -146q-52 0 -82.5 21t-30.5 59q0 26 17.5 44.5t44.5 18.5q22 0 35.5 -13t13.5 -34q0 -17 -10 -30.5t-27 -19.5v-2q6 -2 17 -3t22 -1q20 0 37 6.5t30.5 23t22.5 43.5t13 68l27 258h-150l6 49h149l18 175q20 193 194 193q52 0 82.5 -21t30.5 -59q0 -26 -17.5 -44.5
t-44.5 -18.5q-22 0 -35.5 13t-13.5 34q0 17 10 30.5t27 19.5v2q-6 2 -17 3t-22 1q-20 0 -37 -6.5t-30 -23t-22.5 -43.5t-13.5 -68l-19 -187h180l-6 -49h-179l-26 -246q-20 -193 -194 -193z" />
    <glyph glyph-name="Ohorn" unicode="&#x1a0;" horiz-adv-x="734" 
d="M367 -12q-71 0 -129.5 25t-100 72t-64.5 114t-23 150t23 150t64.5 114t100 72t129.5 25q48 0 92 -12h127v112h83v-85q0 -27 -18 -45t-55 -18h-56q68 -45 106 -124.5t38 -188.5q0 -83 -23 -150t-64.5 -114t-100 -72t-129.5 -25zM367 44q52 0 91.5 18.5t66.5 51.5
t40.5 77.5t13.5 97.5v120q0 52 -13.5 97t-40.5 78t-66.5 51.5t-91.5 18.5t-91.5 -18.5t-66.5 -51.5t-40.5 -78t-13.5 -97v-120q0 -53 13.5 -97.5t40.5 -77.5t66.5 -51.5t91.5 -18.5z" />
    <glyph glyph-name="ohorn" unicode="&#x1a1;" horiz-adv-x="579" 
d="M289 -12q-55 0 -100 19.5t-77 54.5t-49.5 85t-17.5 111t17.5 111t49.5 85t77 54.5t100 19.5q22 0 42.5 -3.5t37.5 -8.5h78v112h83v-85q0 -27 -18 -45t-55 -18h-19q45 -35 70 -91.5t25 -130.5q0 -61 -17.5 -111t-49.5 -85t-77 -54.5t-100 -19.5zM289 40q37 0 64.5 12.5
t44.5 34t25.5 51t8.5 63.5v114q0 34 -8.5 63.5t-25.5 51t-44.5 34t-64.5 12.5q-38 0 -65 -12.5t-44 -34t-25.5 -51t-8.5 -63.5v-114q0 -34 8.5 -63.5t25.5 -51t44 -34t65 -12.5z" />
    <glyph glyph-name="Uhorn" unicode="&#x1af;" horiz-adv-x="751" 
d="M384 -12q-70 0 -120 15t-81.5 49t-46.5 87t-15 130v381h-76v48h246v-48h-76v-398q0 -51 9 -89.5t29.5 -64t53.5 -38t82 -12.5q99 0 140.5 51t41.5 153v398h-76v48h150v112h83v-85q0 -27 -18 -45t-55 -18h-25v-379q0 -76 -12.5 -131.5t-41.5 -92t-76 -54t-116 -17.5z" />
    <glyph glyph-name="uhorn" unicode="&#x1b0;" horiz-adv-x="635" 
d="M283 -12q-96 0 -137 48.5t-41 146.5v264l-75 14v36l164 31v-338q0 -72 29 -107t92 -35q22 0 43.5 6t38.5 18.5t28 31t11 43.5v300l-75 14v36l174 29v102h83v-79q0 -27 -16.5 -45t-53.5 -18h-23v-417l75 -14v-36l-161 -31v90h-4q-6 -15 -19 -31t-32 -29t-44.5 -21.5
t-56.5 -8.5z" />
    <glyph glyph-name="Aringacute" unicode="&#x1fa;" horiz-adv-x="701" 
d="M16 48h53l230 650h103l230 -650h53v-48h-244v48h90l-63 179h-274l-61 -179h90v-48h-207v48zM209 277h244l-117 344h-7zM350 772q27 0 42.5 16.5t15.5 46.5v32q0 30 -15.5 46.5t-42.5 16.5t-42.5 -16.5t-15.5 -46.5v-32q0 -30 15.5 -46.5t42.5 -16.5zM350 736
q-25 0 -47 8.5t-38 24t-25.5 36.5t-9.5 46t9.5 46t25.5 36.5t38 24t47 8.5t47 -8.5t38 -24t25.5 -36.5t9.5 -46t-9.5 -46t-25.5 -36.5t-38 -24t-47 -8.5zM328 1005l67 122l58 -37l-100 -101z" />
    <glyph glyph-name="aringacute" unicode="&#x1fb;" horiz-adv-x="558" 
d="M206 -12q-73 0 -114.5 37.5t-41.5 102.5q0 37 12.5 66t40.5 48t73 29t110 10h73v74q0 60 -29.5 92.5t-89.5 32.5q-23 0 -45.5 -4t-36.5 -12v-2q12 -7 23 -19t11 -35q0 -28 -16 -43t-43 -15q-26 0 -42 15.5t-16 45.5q0 22 13 43t38 37.5t62 26.5t84 10q83 0 129.5 -42
t46.5 -118v-322h75v-38q-11 -8 -30 -14t-43 -6q-42 0 -64 23t-22 61v3h-5q-8 -17 -19.5 -32.5t-29.5 -27.5t-43.5 -19.5t-60.5 -7.5zM244 46q24 0 44.5 6t36.5 18t25 30t9 43v95h-64q-43 0 -72 -6t-46 -18t-24.5 -30t-7.5 -42v-20q0 -38 26 -57t73 -19zM273 602
q27 0 42.5 16.5t15.5 46.5v32q0 30 -15.5 46.5t-42.5 16.5t-42.5 -16.5t-15.5 -46.5v-32q0 -30 15.5 -46.5t42.5 -16.5zM273 566q-25 0 -47 8.5t-38 24t-25.5 36.5t-9.5 46t9.5 46t25.5 36.5t38 24t47 8.5t47 -8.5t38 -24t25.5 -36.5t9.5 -46t-9.5 -46t-25.5 -36.5t-38 -24
t-47 -8.5zM251 835l67 122l58 -37l-100 -101z" />
    <glyph glyph-name="AEacute" unicode="&#x1fc;" horiz-adv-x="975" 
d="M11 48h53l311 602h-76v48h606v-170h-77v118h-286v-261h197v80h64v-212h-64v80h-197v-281h296v128h77v-180h-543v48h76v179h-228l-91 -179h76v-48h-194v48zM243 277h205v373h-10zM584 774l72 180l83 -41l-126 -153z" />
    <glyph glyph-name="aeacute" unicode="&#x1fd;" horiz-adv-x="839" 
d="M214 -12q-79 0 -121.5 39t-42.5 105q0 42 12.5 72.5t40.5 50.5t73 29.5t110 9.5h73v61q0 60 -32 92.5t-97 32.5q-20 0 -39.5 -4.5t-32.5 -11.5v-2q12 -7 23 -19t11 -35q0 -28 -16 -43t-43 -15q-26 0 -42 15.5t-16 45.5q0 21 12.5 42t36 37.5t58.5 27t80 10.5
q69 0 107.5 -31.5t45.5 -75.5h6q5 21 19.5 40.5t35.5 34.5t48 23.5t57 8.5q50 0 89.5 -18t67 -50.5t42 -77.5t14.5 -98v-36h-346v-13q0 -83 43 -131t114 -48q57 0 90.5 22.5t52.5 58.5l35 -22q-9 -25 -25.5 -48t-40.5 -40.5t-55.5 -28t-70.5 -10.5q-66 0 -117 31.5t-71 86.5
h-5q-7 -24 -21.5 -45.5t-37 -37.5t-53.5 -25.5t-72 -9.5zM244 46q24 0 44.5 6t36.5 18t25 30t9 43v105h-64q-43 0 -72 -5.5t-46 -17t-24.5 -30.5t-7.5 -46v-20q0 -42 26 -62.5t73 -20.5zM448 294h254v25q0 34 -6.5 63t-21 50.5t-37.5 33.5t-56 12t-57.5 -11.5t-41.5 -32.5
t-25.5 -49.5t-8.5 -62.5v-28zM385 599l72 180l83 -41l-126 -153z" />
    <glyph glyph-name="Oslashacute" unicode="&#x1fe;" horiz-adv-x="734" 
d="M92 -17l59 88q-48 48 -74.5 117.5t-26.5 160.5q0 83 23 150t64.5 114t100 72t129.5 25q51 0 95.5 -13t81.5 -38l56 84l42 -28l-59 -88q48 -48 74.5 -117.5t26.5 -160.5q0 -83 -23 -150t-64.5 -114t-100 -72t-129.5 -25q-51 0 -95.5 13t-81.5 38l-56 -84zM507 603
q-26 24 -61 37.5t-79 13.5q-52 0 -91.5 -18.5t-66.5 -51.5t-40.5 -78t-13.5 -97v-120q0 -91 39 -154zM367 44q52 0 91.5 18.5t66.5 51.5t40.5 77.5t13.5 97.5v120q0 91 -39 154l-313 -468q26 -24 61 -37.5t79 -13.5zM333 774l72 180l83 -41l-126 -153z" />
    <glyph glyph-name="oslashacute" unicode="&#x1ff;" horiz-adv-x="578" 
d="M48 -11l61 77q-31 35 -47.5 83.5t-16.5 108.5q0 61 17.5 111t49.5 85t77 54.5t100 19.5q43 0 79.5 -11.5t65.5 -33.5l58 73l38 -29l-61 -77q31 -35 47.5 -83.5t16.5 -108.5q0 -61 -17.5 -111t-49.5 -85t-77 -54.5t-100 -19.5q-43 0 -79.5 11.5t-65.5 33.5l-58 -73z
M396 432q-36 44 -107 44q-38 0 -65 -12.5t-44 -34t-25.5 -51t-8.5 -63.5v-114q0 -41 12 -74zM289 40q37 0 64.5 12.5t44.5 34t25.5 51t8.5 63.5v114q0 41 -12 74l-238 -305q36 -44 107 -44zM256 599l72 180l83 -41l-126 -153z" />
    <glyph glyph-name="Scommaaccent" unicode="&#x218;" horiz-adv-x="601" 
d="M302 -12q-61 0 -102 19t-57 52h-6v-59h-77v204h77v-44q0 -25 8 -46t25.5 -36.5t46 -24.5t69.5 -9q88 0 126 36t38 97q0 51 -28.5 80.5t-92.5 46.5l-55 14q-94 24 -147.5 72t-53.5 134q0 42 16.5 76.5t46.5 59t71.5 37.5t91.5 13q57 0 93.5 -16.5t52.5 -47.5h6v52h77v-194
h-77v44q0 24 -7.5 44t-25 33.5t-47 21t-72.5 7.5q-70 0 -104.5 -31t-34.5 -82t31 -81.5t100 -48.5l51 -13q91 -23 142.5 -71t51.5 -128q0 -46 -15.5 -84.5t-45.5 -66.5t-73.5 -44t-99.5 -16zM249 -250q19 19 33 42.5t21 44.5q-29 1 -44 15t-15 37v5q0 22 16 37t43 15
q26 0 40.5 -16t14.5 -39v-7q0 -32 -18.5 -69.5t-48.5 -64.5h-42v0z" />
    <glyph glyph-name="scommaaccent" unicode="&#x219;" horiz-adv-x="499" 
d="M258 -12q-24 0 -45 5.5t-37.5 14t-28.5 19.5t-18 23h-4v-50h-65v156h65v-20q0 -42 26.5 -68.5t89.5 -26.5q57 0 88.5 18.5t31.5 63.5q0 33 -21.5 55.5t-62.5 30.5l-62 13q-76 16 -114.5 54.5t-38.5 104.5q0 69 48 108t130 39q48 0 79 -14.5t41 -38.5h4v41h65v-156h-65v39
q0 38 -27 57.5t-85 19.5q-51 0 -79.5 -19t-28.5 -59q0 -34 23 -57t62 -31l58 -12q79 -17 118.5 -54.5t39.5 -103.5q0 -32 -13 -59.5t-37 -48t-58.5 -32.5t-78.5 -12zM206 -250q19 19 33 42.5t21 44.5q-29 1 -44 15t-15 37v5q0 22 16 37t43 15q26 0 40.5 -16t14.5 -39v-7
q0 -32 -18.5 -69.5t-48.5 -64.5h-42v0z" />
    <glyph glyph-name="uni021A" unicode="&#x21a;" horiz-adv-x="668" 
d="M191 48h96v598h-175v-118h-77v170h598v-170h-77v118h-175v-598h96v-48h-286v48zM282 -250q19 19 33 42.5t21 44.5q-29 1 -44 15t-15 37v5q0 22 16 37t43 15q26 0 40.5 -16t14.5 -39v-7q0 -32 -18.5 -69.5t-48.5 -64.5h-42v0z" />
    <glyph glyph-name="uni021B" unicode="&#x21b;" horiz-adv-x="363" 
d="M210 -6q-57 0 -78.5 22.5t-21.5 77.5v370h-67v52h8q22 0 35 3t21 8.5t12 14t7 19.5l25 89h48v-134h135v-52h-135v-412h135v-35q-17 -10 -52.5 -16.5t-71.5 -6.5zM169 -250q19 19 33 42.5t21 44.5q-29 1 -44 15t-15 37v5q0 22 16 37t43 15q26 0 40.5 -16t14.5 -39v-7
q0 -32 -18.5 -69.5t-48.5 -64.5h-42v0z" />
    <glyph glyph-name="uni0237" unicode="&#x237;" horiz-adv-x="314" 
d="M62 -212q-51 0 -76.5 23t-25.5 58q0 23 14 38.5t38 15.5q23 0 35.5 -13.5t12.5 -35.5q0 -15 -6.5 -26.5t-16.5 -14.5v-3q9 -4 25 -4q63 0 63 79v542l-75 14v36l164 31v-576q0 -83 -40 -123.5t-112 -40.5z" />
    <glyph glyph-name="uni0259" unicode="&#x259;" horiz-adv-x="549" 
d="M268 -12q-52 0 -93.5 18t-70 50.5t-44 77.5t-15.5 98v24h360v25q0 83 -42.5 131t-113.5 48q-63 0 -100 -25t-58 -66l-35 22q10 27 27.5 51.5t43.5 43.5t60 30.5t76 11.5q57 0 102 -19.5t76 -55t47 -85.5t16 -110t-18 -109.5t-49.5 -85.5t-74.5 -55.5t-94 -19.5zM268 38
q34 0 59.5 11.5t42.5 32.5t26 49.5t9 62.5v14h-266v-11q0 -34 7.5 -63t23 -50.5t40 -33.5t58.5 -12z" />
    <glyph glyph-name="uni02BB" unicode="&#x2bb;" 
d="M300 584q-26 0 -40.5 16t-14.5 39v7q0 32 18.5 69.5t48.5 64.5h42q-19 -19 -33 -42.5t-21 -44.5q29 -1 44 -15t15 -37v-5q0 -22 -16 -37t-43 -15z" />
    <glyph glyph-name="uni02BC" unicode="&#x2bc;" 
d="M322 758h88l-70 -185h-30z" />
    <glyph glyph-name="circumflex" unicode="&#x2c6;" 
d="M148 615l122 150h60l122 -150l-25 -17l-127 93l-127 -93z" />
    <glyph glyph-name="caron" unicode="&#x2c7;" 
d="M148 752l25 17l127 -93l127 93l25 -17l-122 -150h-60z" />
    <glyph glyph-name="breve" unicode="&#x2d8;" 
d="M300 598q-38 0 -62 13t-39 33t-24.5 44t-16.5 46l29 14l21 -39q11 -20 30.5 -31t61.5 -11t61.5 11t30.5 31l21 39l29 -14q-8 -22 -17 -46t-24 -44t-39.5 -33t-61.5 -13z" />
    <glyph glyph-name="dotaccent" unicode="&#x2d9;" 
d="M300 616q-24 0 -38.5 15t-14.5 36v5q0 21 14.5 36t38.5 15t38.5 -15t14.5 -36v-5q0 -21 -14.5 -36t-38.5 -15z" />
    <glyph glyph-name="ring" unicode="&#x2da;" 
d="M300 612q27 0 42.5 16.5t15.5 46.5v32q0 30 -15.5 46.5t-42.5 16.5t-42.5 -16.5t-15.5 -46.5v-32q0 -30 15.5 -46.5t42.5 -16.5zM300 576q-25 0 -47 8.5t-38 24t-25.5 36.5t-9.5 46t9.5 46t25.5 36.5t38 24t47 8.5t47 -8.5t38 -24t25.5 -36.5t9.5 -46t-9.5 -46
t-25.5 -36.5t-38 -24t-47 -8.5z" />
    <glyph glyph-name="ogonek" unicode="&#x2db;" 
d="M246 -207q-39 0 -67 18t-28 58q0 20 8.5 37t23.5 33t36 31.5t45 33.5l-5 18h33l8 -22q-28 -26 -43 -45t-22 -33.5t-8.5 -25.5t-1.5 -19q0 -20 12.5 -32.5t32.5 -12.5q26 0 42 21l22 -21q-9 -16 -31 -27.5t-57 -11.5z" />
    <glyph glyph-name="tilde" unicode="&#x2dc;" 
d="M360 616q-19 0 -37 9t-35 18t-37.5 19t-35.5 10t-24 -7.5t-28 -26.5l-20 22q13 16 23.5 29t22 22.5t23.5 14.5t28 5q19 0 36.5 -8.5t35.5 -18.5t38 -19.5t35 -9.5q7 0 12.5 1.5t11 5.5t12 10.5l16.5 16.5l20 -22q-13 -16 -23.5 -29t-22 -22.5t-23.5 -14.5t-28 -5z" />
    <glyph glyph-name="hungarumlaut" unicode="&#x2dd;" 
d="M186 599l72 180l83 -41l-126 -153zM346 599l72 180l83 -41l-126 -153z" />
    <glyph glyph-name="uni0300" unicode="&#x300;" horiz-adv-x="0" 
d="M-121 738l84 41l73 -180l-29 -14z" />
    <glyph glyph-name="uni0301" unicode="&#x301;" horiz-adv-x="0" 
d="M-33 599l72 180l83 -41l-126 -153z" />
    <glyph glyph-name="uni0302" unicode="&#x302;" horiz-adv-x="0" 
d="M-151 615l122 150h60l122 -150l-25 -17l-127 93l-127 -93z" />
    <glyph glyph-name="uni0303" unicode="&#x303;" horiz-adv-x="0" 
d="M61 616q-19 0 -37 9t-35 18t-37.5 19t-35.5 10t-24 -7.5t-28 -26.5l-20 22q13 16 23.5 29t22 22.5t23.5 14.5t28 5q19 0 36.5 -8.5t35.5 -18.5t38 -19.5t35 -9.5q7 0 12.5 1.5t11 5.5t12 10.5l16.5 16.5l20 -22q-13 -16 -23.5 -29t-22 -22.5t-23.5 -14.5t-28 -5z" />
    <glyph glyph-name="uni0304" unicode="&#x304;" horiz-adv-x="0" 
d="M-139 702h280v-62h-280v62z" />
    <glyph glyph-name="uni0306" unicode="&#x306;" horiz-adv-x="0" 
d="M1 598q-38 0 -62 13t-39 33t-24.5 44t-16.5 46l29 14l21 -39q11 -20 30.5 -31t61.5 -11t61.5 11t30.5 31l21 39l29 -14q-8 -22 -17 -46t-24 -44t-39.5 -33t-61.5 -13z" />
    <glyph glyph-name="uni0307" unicode="&#x307;" horiz-adv-x="0" 
d="M1 616q-24 0 -38.5 15t-14.5 36v5q0 21 14.5 36t38.5 15t38.5 -15t14.5 -36v-5q0 -21 -14.5 -36t-38.5 -15z" />
    <glyph glyph-name="uni0308" unicode="&#x308;" horiz-adv-x="0" 
d="M-90 616q-24 0 -38.5 15t-14.5 36v5q0 21 14.5 36t38.5 15t38.5 -15t14.5 -36v-5q0 -21 -14.5 -36t-38.5 -15zM92 616q-24 0 -38.5 15t-14.5 36v5q0 21 14.5 36t38.5 15t38.5 -15t14.5 -36v-5q0 -21 -14.5 -36t-38.5 -15z" />
    <glyph glyph-name="uni0309" unicode="&#x309;" horiz-adv-x="0" 
d="M-15 592l52 106h-121v67h102q38 0 54 -16t16 -39q0 -22 -13 -48t-36 -55l-24 -30z" />
    <glyph glyph-name="uni030A" unicode="&#x30a;" horiz-adv-x="0" 
d="M1 612q27 0 42.5 16.5t15.5 46.5v32q0 30 -15.5 46.5t-42.5 16.5t-42.5 -16.5t-15.5 -46.5v-32q0 -30 15.5 -46.5t42.5 -16.5zM1 576q-25 0 -47 8.5t-38 24t-25.5 36.5t-9.5 46t9.5 46t25.5 36.5t38 24t47 8.5t47 -8.5t38 -24t25.5 -36.5t9.5 -46t-9.5 -46t-25.5 -36.5
t-38 -24t-47 -8.5z" />
    <glyph glyph-name="uni030B" unicode="&#x30b;" horiz-adv-x="0" 
d="M-113 599l72 180l83 -41l-126 -153zM47 599l72 180l83 -41l-126 -153z" />
    <glyph glyph-name="uni030C" unicode="&#x30c;" horiz-adv-x="0" 
d="M-151 752l25 17l127 -93l127 93l25 -17l-122 -150h-60z" />
    <glyph glyph-name="uni0312" unicode="&#x312;" horiz-adv-x="0" 
d="M1 584q-26 0 -40.5 16t-14.5 39v7q0 32 18.5 69.5t48.5 64.5h42q-19 -19 -33 -42.5t-21 -44.5q29 -1 44 -15t15 -37v-5q0 -22 -16 -37t-43 -15z" />
    <glyph glyph-name="uni0315" unicode="&#x315;" horiz-adv-x="0" 
d="M23 758h88l-70 -185h-30z" />
    <glyph glyph-name="uni031B" unicode="&#x31b;" horiz-adv-x="0" 
d="M-91 516h91v112h83v-85q0 -27 -18 -45t-55 -18h-101v36z" />
    <glyph glyph-name="uni0323" unicode="&#x323;" horiz-adv-x="0" 
d="M0 -165q-24 0 -38.5 15t-14.5 35v5q0 21 15 36.5t38 15.5q24 0 38.5 -15.5t14.5 -36.5v-5q0 -20 -13.5 -35t-39.5 -15z" />
    <glyph glyph-name="uni0326" unicode="&#x326;" horiz-adv-x="0" 
d="M-52 -250q19 19 33 42.5t21 44.5q-29 1 -44 15t-15 37v5q0 22 16 37t43 15q26 0 40.5 -16t14.5 -39v-7q0 -32 -18.5 -69.5t-48.5 -64.5h-42v0z" />
    <glyph glyph-name="uni0327" unicode="&#x327;" horiz-adv-x="0" 
d="M13 -207q-37 0 -57.5 13.5t-31.5 27.5l21 22q10 -11 23.5 -17.5t33.5 -6.5q24 0 38 10t14 31q0 15 -11.5 28.5t-49.5 18.5l-27 3l19 97h41l-16 -81l3 -3q9 2 19 4t18 2q32 0 53 -17t21 -49q0 -21 -9 -37t-24.5 -26t-35.5 -15t-42 -5z" />
    <glyph glyph-name="uni0328" unicode="&#x328;" horiz-adv-x="0" 
d="M-53 -207q-39 0 -67 18t-28 58q0 20 8.5 37t23.5 33t36 31.5t45 33.5l-5 18h33l8 -22q-28 -26 -43 -45t-22 -33.5t-8.5 -25.5t-1.5 -19q0 -20 12.5 -32.5t32.5 -12.5q26 0 42 21l22 -21q-9 -16 -31 -27.5t-57 -11.5z" />
    <glyph glyph-name="pi" unicode="&#x3c0;" horiz-adv-x="630" 
d="M516 -10q-57 0 -78.5 22.5t-21.5 77.5v374h-212v-464h-89v464h-95v52h580v-52h-95v-416h95v-35q-15 -9 -36 -16t-48 -7z" />
    <glyph glyph-name="uni0400" unicode="&#x400;" horiz-adv-x="658" 
d="M55 48h76v602h-76v48h533v-170h-77v118h-286v-261h197v80h64v-212h-64v80h-197v-281h296v128h77v-180h-543v48zM222 913l84 41l73 -180l-29 -14z" />
    <glyph glyph-name="uni0401" unicode="&#x401;" horiz-adv-x="658" 
d="M55 48h76v602h-76v48h533v-170h-77v118h-286v-261h197v80h64v-212h-64v80h-197v-281h296v128h77v-180h-543v48zM253 788q-24 0 -38.5 15t-14.5 36v5q0 21 14.5 36t38.5 15t38.5 -15t14.5 -36v-5q0 -21 -14.5 -36t-38.5 -15zM435 788q-24 0 -38.5 15t-14.5 36v5
q0 21 14.5 36t38.5 15t38.5 -15t14.5 -36v-5q0 -21 -14.5 -36t-38.5 -15z" />
    <glyph glyph-name="uni0402" unicode="&#x402;" horiz-adv-x="826" 
d="M526 -112h108q9 9 17 19t13.5 23.5t9 31.5t3.5 43v191q0 48 -7.5 81t-24.5 53.5t-46 29.5t-72 9q-46 0 -81 -9.5t-65 -27.5v-284h76v-48h-246v48h76v598h-175v-118h-77v170h598v-170h-77v118h-175v-262h4q36 19 75.5 28t90.5 9q61 0 103.5 -13.5t68 -40.5t37 -68.5
t11.5 -98.5v-200q0 -45 -13.5 -76t-35.5 -50.5t-48.5 -28.5t-53.5 -9h-94v52z" />
    <glyph glyph-name="uni0403" unicode="&#x403;" horiz-adv-x="573" 
d="M55 48h76v602h-76v48h483v-170h-77v118h-236v-598h96v-48h-266v48zM282 774l72 180l83 -41l-126 -153z" />
    <glyph glyph-name="uni0404" unicode="&#x404;" horiz-adv-x="662" 
d="M363 -12q-73 0 -131 25.5t-98.5 72.5t-62 113.5t-21.5 149.5q0 86 21.5 153.5t60.5 113.5t93 70t119 24q61 0 102.5 -20t64.5 -53h4v61h77v-214h-77v61q0 24 -11.5 45t-32.5 36.5t-50.5 24t-65.5 8.5q-52 0 -89.5 -18t-62 -50t-36.5 -75.5t-12 -94.5v-40h291v-52h-291
v-40q0 -53 14.5 -98.5t42 -79t69 -53t95.5 -19.5q53 0 87 7.5t53 18.5v2q-13 5 -25 21.5t-12 38.5q0 29 17 47t46 18t46.5 -19t17.5 -51q0 -24 -15.5 -48t-46 -43t-76 -31t-105.5 -12z" />
    <glyph glyph-name="uni0405" unicode="&#x405;" horiz-adv-x="601" 
d="M302 -12q-61 0 -102 19t-57 52h-6v-59h-77v204h77v-44q0 -25 8 -46t25.5 -36.5t46 -24.5t69.5 -9q88 0 126 36t38 97q0 51 -28.5 80.5t-92.5 46.5l-55 14q-94 24 -147.5 72t-53.5 134q0 42 16.5 76.5t46.5 59t71.5 37.5t91.5 13q57 0 93.5 -16.5t52.5 -47.5h6v52h77v-194
h-77v44q0 24 -7.5 44t-25 33.5t-47 21t-72.5 7.5q-70 0 -104.5 -31t-34.5 -82t31 -81.5t100 -48.5l51 -13q91 -23 142.5 -71t51.5 -128q0 -46 -15.5 -84.5t-45.5 -66.5t-73.5 -44t-99.5 -16z" />
    <glyph glyph-name="uni0406" unicode="&#x406;" horiz-adv-x="356" 
d="M55 48h76v602h-76v48h246v-48h-76v-602h76v-48h-246v48z" />
    <glyph glyph-name="uni0407" unicode="&#x407;" horiz-adv-x="356" 
d="M55 48h76v602h-76v48h246v-48h-76v-602h76v-48h-246v48zM88 788q-24 0 -38.5 15t-14.5 36v5q0 21 14.5 36t38.5 15t38.5 -15t14.5 -36v-5q0 -21 -14.5 -36t-38.5 -15zM270 788q-24 0 -38.5 15t-14.5 36v5q0 21 14.5 36t38.5 15t38.5 -15t14.5 -36v-5q0 -21 -14.5 -36
t-38.5 -15z" />
    <glyph glyph-name="uni0408" unicode="&#x408;" horiz-adv-x="471" 
d="M158 -12q-72 0 -107.5 27.5t-35.5 70.5q0 29 17 48.5t47 19.5q27 0 42 -17t15 -43q0 -21 -10.5 -33.5t-21.5 -16.5v-3q19 -6 54 -6q98 0 98 119v496h-96v48h266v-48h-76v-487q0 -88 -50.5 -131.5t-141.5 -43.5z" />
    <glyph glyph-name="uni0409" unicode="&#x409;" horiz-adv-x="953" 
d="M117 -12q-51 0 -79 27.5t-28 66.5q0 33 16.5 53t46.5 20q27 0 42.5 -16.5t15.5 -42.5q0 -19 -10.5 -33t-21.5 -18v-4q3 -2 7 -2h9q12 0 24 4.5t23 15.5q15 15 26.5 43.5t20 84t12.5 144t4 223.5v96h-76v48h480v-48h-76v-241h150q101 0 153.5 -49.5t52.5 -152.5t-54 -155
t-154 -52h-318v48h76v598h-169v-86q0 -137 -4.5 -229.5t-14 -153t-25 -96t-37.5 -57.5q-20 -20 -44 -28t-48 -8zM696 52q56 0 85 33.5t29 87.5v63q0 54 -29 87.5t-85 33.5h-143v-305h143z" />
    <glyph glyph-name="uni040A" unicode="&#x40a;" horiz-adv-x="1039" 
d="M55 48h76v602h-76v48h246v-48h-76v-269h320v269h-76v48h246v-48h-76v-241h148q100 0 154 -51.5t54 -152.5q0 -102 -54 -153.5t-154 -51.5h-318v48h76v281h-320v-281h76v-48h-246v48zM782 52q56 0 85 33.5t29 87.5v63q0 54 -29 87.5t-85 33.5h-143v-305h143z" />
    <glyph glyph-name="uni040B" unicode="&#x40b;" horiz-adv-x="912" 
d="M211 48h76v598h-175v-118h-77v170h598v-170h-77v118h-175v-262h4q35 18 73.5 27.5t94.5 9.5q63 0 106.5 -13t70.5 -40t39 -68.5t12 -99.5v-152h76v-48h-246v48h76v148q0 48 -8 81.5t-26 53.5t-47 29t-72 9q-49 0 -88 -10t-65 -27v-284h76v-48h-246v48z" />
    <glyph glyph-name="uni040C" unicode="&#x40c;" horiz-adv-x="705" 
d="M55 48h76v602h-76v48h246v-48h-76v-271h98l97 191q21 41 39.5 68t37.5 43t38 22.5t42 6.5q38 0 58.5 -21t20.5 -53q0 -28 -15.5 -48t-47.5 -20q-29 0 -45.5 18.5t-16.5 45.5h-3q-12 -17 -27 -42t-26 -46l-93 -183q19 -3 34 -13t32 -36l174 -264h71v-48h-153l-217 329h-98
v-281h76v-48h-246v48zM351 774l72 180l83 -41l-126 -153z" />
    <glyph glyph-name="uni040D" unicode="&#x40d;" horiz-adv-x="806" 
d="M55 48h76v602h-76v48h243v-48h-76v-307l-11 -189h4l369 472v24h-76v48h243v-48h-76v-602h76v-48h-243v48h76v307l11 189h-4l-369 -472v-24h76v-48h-243v48zM281 913l84 41l73 -180l-29 -14z" />
    <glyph glyph-name="uni040E" unicode="&#x40e;" horiz-adv-x="665" 
d="M224 -12q-60 0 -94.5 27.5t-34.5 70.5q0 29 17 48.5t47 19.5q27 0 42 -17t15 -43q0 -21 -10.5 -33.5t-21.5 -16.5v-3q18 -6 38 -6q18 0 33 4t28 14.5t24.5 28.5t23.5 46l16 38l-274 484h-58v48h254v-48h-90l138 -244l72 -130h3l53 129l99 245h-87v48h208v-48h-58
l-221 -535q-30 -72 -68.5 -99.5t-93.5 -27.5zM363 768q-44 0 -74.5 9.5t-50 25.5t-28.5 36t-9 41q0 28 15 42t39 14t38.5 -13.5t14.5 -39.5q0 -21 -11.5 -33.5t-25.5 -17.5v-2q34 -14 92 -14t92 14v2q-15 5 -26 17.5t-11 33.5q0 26 14.5 39.5t38.5 13.5t39 -14t15 -42
q0 -21 -9 -41t-28.5 -36t-50.5 -25.5t-74 -9.5z" />
    <glyph glyph-name="uni040F" unicode="&#x40f;" horiz-adv-x="787" 
d="M351 0h-296v48h76v602h-76v48h246v-48h-76v-598h337v598h-76v48h246v-48h-76v-602h76v-48h-296v-160h-85v160z" />
    <glyph glyph-name="uni0410" unicode="&#x410;" horiz-adv-x="701" 
d="M16 48h53l230 650h103l230 -650h53v-48h-244v48h90l-63 179h-274l-61 -179h90v-48h-207v48zM209 277h244l-117 344h-7z" />
    <glyph glyph-name="uni0411" unicode="&#x411;" horiz-adv-x="633" 
d="M55 48h76v602h-76v48h475v-170h-77v118h-228v-247h146q100 0 154 -51t54 -148q0 -98 -54 -149t-154 -51h-316v48zM366 52q56 0 85 33.5t29 87.5v53q0 54 -29 87.5t-85 33.5h-141v-295h141z" />
    <glyph glyph-name="uni0412" unicode="&#x412;" horiz-adv-x="685" 
d="M55 48h76v602h-76v48h343q90 0 141.5 -45.5t51.5 -119.5q0 -37 -11.5 -66.5t-31 -50.5t-44 -33.5t-49.5 -16.5v-4q26 -2 55 -12.5t53 -31.5t39.5 -51.5t15.5 -72.5q0 -44 -14 -80t-39.5 -61.5t-60 -39t-74.5 -13.5h-375v48zM225 52h170q58 0 91 33t33 86v44q0 53 -33 86
t-91 33h-170v-282zM225 386h154q53 0 83 30.5t30 78.5v42q0 48 -30 78.5t-83 30.5h-154v-260z" />
    <glyph glyph-name="uni0413" unicode="&#x413;" horiz-adv-x="573" 
d="M55 48h76v602h-76v48h483v-170h-77v118h-236v-598h96v-48h-266v48z" />
    <glyph glyph-name="uni0414" unicode="&#x414;" horiz-adv-x="706" 
d="M5 52h78q31 44 57.5 100t45 125t29 151t10.5 179v43h-76v48h488v-48h-76v-598h105v-212h-85v160h-491v-160h-85v212zM467 52v594h-177v-39q0 -175 -34 -319t-99 -236h310z" />
    <glyph glyph-name="uni0415" unicode="&#x415;" horiz-adv-x="658" 
d="M55 48h76v602h-76v48h533v-170h-77v118h-286v-261h197v80h64v-212h-64v80h-197v-281h296v128h77v-180h-543v48z" />
    <glyph glyph-name="uni0416" unicode="&#x416;" horiz-adv-x="1010" 
d="M12 48h71l163 262q17 28 31.5 38t31.5 13l-79 179q-14 30 -28 54t-26 38h-3q0 -27 -16.5 -44.5t-45.5 -17.5q-30 0 -45.5 20t-15.5 48q0 29 18.5 50.5t56.5 21.5q49 0 86.5 -33t74.5 -115l81 -183h92v271h-76v48h244v-48h-76v-271h92l81 183q18 41 36.5 69.5t38 46
t40.5 25t46 7.5q38 0 56.5 -21.5t18.5 -50.5q0 -28 -15.5 -48t-45.5 -20q-29 0 -45.5 17.5t-16.5 44.5h-3q-12 -14 -26 -38t-28 -54l-79 -179q17 -3 31.5 -13t31.5 -38l163 -262h71v-48h-150l-205 329h-92v-281h76v-48h-244v48h76v281h-92l-205 -329h-150v48z" />
    <glyph glyph-name="uni0417" unicode="&#x417;" horiz-adv-x="617" 
d="M289 -12q-54 0 -97 12t-72.5 31t-45 43t-15.5 48q0 32 17.5 51t46.5 19t46 -18t17 -47q0 -22 -12 -38.5t-25 -21.5v-2q18 -11 50 -18.5t77 -7.5q85 0 128.5 38t43.5 100v30q0 57 -32 89.5t-93 32.5h-118v52h110q51 0 85.5 33t34.5 87v38q0 51 -32 85.5t-98 34.5
q-34 0 -62.5 -8.5t-49 -24t-32 -36.5t-11.5 -45v-61h-77v214h77v-61h4q23 33 64.5 53t106.5 20q50 0 89.5 -13.5t66.5 -37t41.5 -56t14.5 -70.5q0 -72 -41 -115t-101 -56v-4q29 -5 57 -16t49.5 -31t35 -49.5t13.5 -70.5q0 -45 -19 -82.5t-53 -64t-82.5 -41.5t-106.5 -15z
" />
    <glyph glyph-name="uni0418" unicode="&#x418;" horiz-adv-x="806" 
d="M55 48h76v602h-76v48h243v-48h-76v-307l-11 -189h4l369 472v24h-76v48h243v-48h-76v-602h76v-48h-243v48h76v307l11 189h-4l-369 -472v-24h76v-48h-243v48z" />
    <glyph glyph-name="uni0419" unicode="&#x419;" horiz-adv-x="806" 
d="M55 48h76v602h-76v48h243v-48h-76v-307l-11 -189h4l369 472v24h-76v48h243v-48h-76v-602h76v-48h-243v48h76v307l11 189h-4l-369 -472v-24h76v-48h-243v48zM403 768q-44 0 -74.5 9.5t-50 25.5t-28.5 36t-9 41q0 28 15 42t39 14t38.5 -13.5t14.5 -39.5q0 -21 -11.5 -33.5
t-25.5 -17.5v-2q34 -14 92 -14t92 14v2q-15 5 -26 17.5t-11 33.5q0 26 14.5 39.5t38.5 13.5t39 -14t15 -42q0 -21 -9 -41t-28.5 -36t-50.5 -25.5t-74 -9.5z" />
    <glyph glyph-name="uni041A" unicode="&#x41a;" horiz-adv-x="705" 
d="M55 48h76v602h-76v48h246v-48h-76v-271h98l97 191q21 41 39.5 68t37.5 43t38 22.5t42 6.5q38 0 58.5 -21t20.5 -53q0 -28 -15.5 -48t-47.5 -20q-29 0 -45.5 18.5t-16.5 45.5h-3q-12 -17 -27 -42t-26 -46l-93 -183q19 -3 34 -13t32 -36l174 -264h71v-48h-153l-217 329h-98
v-281h76v-48h-246v48z" />
    <glyph glyph-name="uni041B" unicode="&#x41b;" horiz-adv-x="694" 
d="M117 -12q-51 0 -79 27.5t-28 66.5q0 33 16.5 53t46.5 20q27 0 42.5 -16.5t15.5 -42.5q0 -19 -10.5 -33t-21.5 -18v-4q3 -2 7 -2h9q12 0 24 4.5t23 15.5q15 15 26.5 43.5t20 84t12.5 144t4 223.5v96h-76v48h490v-48h-76v-602h76v-48h-246v48h76v598h-179v-86
q0 -137 -4.5 -229.5t-14 -153t-25 -96t-37.5 -57.5q-20 -20 -44 -28t-48 -8z" />
    <glyph glyph-name="uni041C" unicode="&#x41c;" horiz-adv-x="891" 
d="M55 48h76v602h-76v48h185l204 -433h4l215 433h173v-48h-76v-602h76v-48h-246v48h76v542h-4l-41 -91l-198 -392l-175 365l-54 118h-4v-542h76v-48h-211v48z" />
    <glyph glyph-name="uni041D" unicode="&#x41d;" horiz-adv-x="806" 
d="M55 48h76v602h-76v48h246v-48h-76v-269h356v269h-76v48h246v-48h-76v-602h76v-48h-246v48h76v281h-356v-281h76v-48h-246v48z" />
    <glyph glyph-name="uni041E" unicode="&#x41e;" horiz-adv-x="734" 
d="M367 44q52 0 91.5 18.5t66.5 51.5t40.5 77.5t13.5 97.5v120q0 52 -13.5 97t-40.5 78t-66.5 51.5t-91.5 18.5t-91.5 -18.5t-66.5 -51.5t-40.5 -78t-13.5 -97v-120q0 -53 13.5 -97.5t40.5 -77.5t66.5 -51.5t91.5 -18.5zM367 -12q-71 0 -129.5 25t-100 72t-64.5 114t-23 150
t23 150t64.5 114t100 72t129.5 25t129.5 -25t100 -72t64.5 -114t23 -150t-23 -150t-64.5 -114t-100 -72t-129.5 -25z" />
    <glyph glyph-name="uni041F" unicode="&#x41f;" horiz-adv-x="806" 
d="M55 48h76v602h-76v48h696v-48h-76v-602h76v-48h-246v48h76v598h-356v-598h76v-48h-246v48z" />
    <glyph glyph-name="uni0420" unicode="&#x420;" horiz-adv-x="639" 
d="M55 48h76v602h-76v48h334q98 0 150 -47.5t52 -139.5t-53.5 -142t-150.5 -50h-162v-271h96v-48h-266v48zM225 371h157q53 0 81.5 32.5t28.5 80.5v49q0 48 -28.5 80.5t-81.5 32.5h-157v-275z" />
    <glyph glyph-name="uni0421" unicode="&#x421;" horiz-adv-x="662" 
d="M349 -12q-68 0 -123 25.5t-94 72.5t-60.5 113.5t-21.5 149.5q0 86 21.5 153.5t60.5 113.5t93 70t119 24q63 0 108 -20.5t59 -52.5h4v61h77v-204h-77v51q0 49 -44 79t-115 30q-54 0 -92 -19.5t-62.5 -52t-35.5 -75.5t-11 -90v-128q0 -53 14.5 -95.5t42 -73.5t67.5 -47.5
t91 -16.5q71 0 120 37t71 93l41 -20q-9 -29 -29 -60t-51.5 -57.5t-74.5 -43.5t-98 -17z" />
    <glyph glyph-name="uni0422" unicode="&#x422;" horiz-adv-x="668" 
d="M191 48h96v598h-175v-118h-77v170h598v-170h-77v118h-175v-598h96v-48h-286v48z" />
    <glyph glyph-name="uni0423" unicode="&#x423;" horiz-adv-x="665" 
d="M224 -12q-60 0 -94.5 27.5t-34.5 70.5q0 29 17 48.5t47 19.5q27 0 42 -17t15 -43q0 -21 -10.5 -33.5t-21.5 -16.5v-3q18 -6 38 -6q18 0 33 4t28 14.5t24.5 28.5t23.5 46l16 38l-274 484h-58v48h254v-48h-90l138 -244l72 -130h3l53 129l99 245h-87v48h208v-48h-58
l-221 -535q-30 -72 -68.5 -99.5t-93.5 -27.5z" />
    <glyph glyph-name="uni0424" unicode="&#x424;" horiz-adv-x="846" 
d="M300 36h76v79h-56q-130 0 -202.5 61t-72.5 174q0 116 72.5 177.5t202.5 61.5h56v73h-76v48h246v-48h-76v-73h56q130 0 202.5 -61t72.5 -174q0 -116 -72.5 -177.5t-202.5 -61.5h-56v-79h76v-48h-246v48zM376 165v374h-50q-81 0 -131.5 -38.5t-50.5 -113.5v-70
q0 -75 50.5 -113.5t131.5 -38.5h50zM520 165q81 0 131.5 38.5t50.5 113.5v70q0 75 -50.5 113.5t-131.5 38.5h-50v-374h50z" />
    <glyph glyph-name="uni0425" unicode="&#x425;" horiz-adv-x="684" 
d="M18 48h61l214 291l-210 311h-61v48h247v-48h-73l159 -242h4l167 242h-65v48h199v-48h-61l-210 -286l214 -316h61v-48h-247v48h73l-162 246h-4l-170 -246h65v-48h-201v48z" />
    <glyph glyph-name="uni0426" unicode="&#x426;" horiz-adv-x="801" 
d="M676 0h-621v48h76v602h-76v48h246v-48h-76v-598h337v598h-76v48h246v-48h-76v-598h105v-212h-85v160z" />
    <glyph glyph-name="uni0427" unicode="&#x427;" horiz-adv-x="736" 
d="M415 48h96v254h-4q-35 -18 -73.5 -27.5t-94.5 -9.5q-63 0 -106.5 13t-70.5 40t-39 68.5t-12 99.5v164h-76v48h246v-48h-76v-160q0 -48 8 -81.5t26 -53.5t47 -29t72 -9q49 0 88 10t65 27v296h-76v48h246v-48h-76v-602h76v-48h-266v48z" />
    <glyph glyph-name="uni0428" unicode="&#x428;" horiz-adv-x="1032" 
d="M55 48h76v602h-76v48h246v-48h-76v-598h244v598h-76v48h246v-48h-76v-598h244v598h-76v48h246v-48h-76v-602h76v-48h-922v48z" />
    <glyph glyph-name="uni0429" unicode="&#x429;" horiz-adv-x="1046" 
d="M921 0h-866v48h76v602h-76v48h246v-48h-76v-598h244v598h-76v48h246v-48h-76v-598h244v598h-76v48h246v-48h-76v-598h105v-212h-85v160z" />
    <glyph glyph-name="uni042A" unicode="&#x42a;" horiz-adv-x="761" 
d="M181 48h76v598h-145v-118h-77v170h392v-48h-76v-241h158q100 0 154 -51.5t54 -152.5q0 -102 -54 -153.5t-154 -51.5h-328v48zM504 52q56 0 85 33.5t29 87.5v63q0 54 -29 87.5t-85 33.5h-153v-305h153z" />
    <glyph glyph-name="uni042B" unicode="&#x42b;" horiz-adv-x="933" 
d="M55 48h76v602h-76v48h246v-48h-76v-241h148q100 0 154 -51.5t54 -152.5q0 -102 -54 -153.5t-154 -51.5h-318v48zM632 48h76v602h-76v48h246v-48h-76v-602h76v-48h-246v48zM368 52q56 0 85 33.5t29 87.5v63q0 54 -29 87.5t-85 33.5h-143v-305h143z" />
    <glyph glyph-name="uni042C" unicode="&#x42c;" horiz-adv-x="635" 
d="M55 48h76v602h-76v48h246v-48h-76v-241h158q100 0 154 -51.5t54 -152.5q0 -102 -54 -153.5t-154 -51.5h-328v48zM378 52q56 0 85 33.5t29 87.5v63q0 54 -29 87.5t-85 33.5h-153v-305h153z" />
    <glyph glyph-name="uni042D" unicode="&#x42d;" horiz-adv-x="665" 
d="M299 -12q-57 0 -102 12t-75.5 31t-46.5 43t-16 48q0 32 17.5 51t46.5 19t46 -18t17 -47q0 -22 -12 -38.5t-25 -21.5v-2q19 -11 53 -18.5t87 -7.5q54 0 95.5 19.5t69 53t42 79t14.5 98.5v40h-291v52h291v40q0 51 -12 94.5t-36.5 75.5t-62 50t-89.5 18q-36 0 -65.5 -8.5
t-50.5 -24t-32.5 -36.5t-11.5 -45v-61h-77v214h77v-61h4q23 33 65 53t109 20q63 0 115.5 -24.5t91 -70.5t59.5 -113.5t21 -152.5q0 -83 -22 -150t-62.5 -114t-99.5 -72t-132 -25z" />
    <glyph glyph-name="uni042E" unicode="&#x42e;" horiz-adv-x="1011" 
d="M659 -12q-68 0 -122 23t-92 67t-59.5 107.5t-23.5 144.5h-137v-282h76v-48h-246v48h76v602h-76v48h246v-48h-76v-270h138q4 78 26 139.5t60 103.5t91 64.5t119 22.5q69 0 124.5 -24.5t93.5 -71t58.5 -113.5t20.5 -152t-20.5 -152t-58.5 -113.5t-93.5 -71t-124.5 -24.5z
M659 44q50 0 86.5 18t60 49.5t34.5 75.5t11 97v130q0 52 -11 96.5t-34.5 76t-60 49.5t-86.5 18t-86.5 -18t-60 -49.5t-34.5 -76t-11 -96.5v-130q0 -53 11 -97t34.5 -75.5t60 -49.5t86.5 -18z" />
    <glyph glyph-name="uni042F" unicode="&#x42f;" horiz-adv-x="685" 
d="M14 48h71l139 219q17 27 33 40.5t34 18.5v4q-107 6 -152 50.5t-45 125.5q0 89 53.5 140.5t150.5 51.5h332v-48h-76v-602h76v-48h-246v48h76v272h-93l-203 -320h-150v48zM460 646h-156q-53 0 -82 -32.5t-29 -80.5v-48q0 -48 29 -80.5t82 -32.5h156v274z" />
    <glyph glyph-name="uni0430" unicode="&#x430;" horiz-adv-x="558" 
d="M206 -12q-73 0 -114.5 37.5t-41.5 102.5q0 37 12.5 66t40.5 48t73 29t110 10h73v74q0 60 -29.5 92.5t-89.5 32.5q-23 0 -45.5 -4t-36.5 -12v-2q12 -7 23 -19t11 -35q0 -28 -16 -43t-43 -15q-26 0 -42 15.5t-16 45.5q0 22 13 43t38 37.5t62 26.5t84 10q83 0 129.5 -42
t46.5 -118v-322h75v-38q-11 -8 -30 -14t-43 -6q-42 0 -64 23t-22 61v3h-5q-8 -17 -19.5 -32.5t-29.5 -27.5t-43.5 -19.5t-60.5 -7.5zM244 46q24 0 44.5 6t36.5 18t25 30t9 43v95h-64q-43 0 -72 -6t-46 -18t-24.5 -30t-7.5 -42v-20q0 -38 26 -57t73 -19z" />
    <glyph glyph-name="uni0431" unicode="&#x431;" horiz-adv-x="559" 
d="M280 -12q-95 0 -156 63q-37 38 -58 99.5t-21 149.5q0 71 5 126t16 97t27 72t39 53q16 16 33 27t40 19t54 13.5t75 10.5q35 4 62.5 7.5t42.5 6.5l5 38h43q6 -18 6 -44q0 -24 -5.5 -40t-18.5 -29q-7 -7 -17.5 -13t-27 -10.5t-41.5 -8t-62 -5.5q-38 -2 -64 -5.5t-44.5 -9
t-31.5 -13.5t-24 -19q-12 -12 -21 -27.5t-15.5 -37t-11 -50.5t-7.5 -69h4q26 56 69 86.5t115 30.5q102 0 163 -65.5t61 -188.5q0 -60 -16.5 -109t-47 -83.5t-74 -53t-96.5 -18.5zM279 40q35 0 60.5 12t42 33t24 50t7.5 63v98q0 34 -7.5 63t-24 50t-42 33t-60.5 12t-60 -12
t-41.5 -33t-24 -50t-7.5 -63v-98q0 -34 7.5 -63t24 -50t41.5 -33t60 -12z" />
    <glyph glyph-name="uni0432" unicode="&#x432;" horiz-adv-x="572" 
d="M50 48h75v420h-75v48h296q74 0 114 -34t40 -88q0 -29 -8.5 -50t-23 -35.5t-34 -23.5t-41.5 -13v-4q22 -2 44 -11t40 -24.5t29 -38t11 -51.5q0 -72 -45 -107.5t-126 -35.5h-296v48zM338 52q42 0 63.5 22t21.5 56v29q0 35 -22 56.5t-63 21.5h-124v-185h124zM328 289
q38 0 58 20.5t20 52.5v29q0 32 -20 52.5t-58 20.5h-114v-175h114z" />
    <glyph glyph-name="uni0433" unicode="&#x433;" horiz-adv-x="498" 
d="M50 48h75v420h-75v48h414v-152h-65v100h-185v-416h95v-48h-259v48z" />
    <glyph glyph-name="uni0434" unicode="&#x434;" horiz-adv-x="628" 
d="M18 52h75q48 63 75.5 155.5t27.5 220.5v40h-75v48h443v-48h-75v-416h103v-202h-80v150h-414v-150h-80v202zM400 52v412h-139v-36q0 -121 -25.5 -218.5t-68.5 -157.5h233z" />
    <glyph glyph-name="uni0435" unicode="&#x435;" horiz-adv-x="549" 
d="M286 -12q-57 0 -102 19.5t-76 55t-47 85.5t-16 110t18 109.5t49.5 85.5t74.5 55.5t94 19.5q52 0 93.5 -18t70 -50.5t44 -77.5t15.5 -98v-24h-360v-25q0 -83 42.5 -131t113.5 -48q63 0 100 25t58 66l35 -22q-10 -27 -27.5 -51.5t-43.5 -43.5t-60 -30.5t-76 -11.5zM144 308
h266v11q0 34 -7.5 63t-23 50.5t-40 33.5t-58.5 12t-59.5 -11.5t-43 -32.5t-26 -49.5t-8.5 -62.5v-14z" />
    <glyph glyph-name="uni0436" unicode="&#x436;" horiz-adv-x="819" 
d="M15 48h57l111 175q14 21 29 31.5t35 13.5l-54 121q-9 20 -19 37.5t-18 26.5h-3q0 -26 -15 -42.5t-41 -16.5t-43 18t-17 47t19.5 49t54.5 20q36 0 66.5 -25t61.5 -94l55 -123h72v182h-75v48h237v-48h-75v-182h72l55 123q31 69 61.5 94t66.5 25q35 0 54.5 -20t19.5 -49
t-17 -47t-43 -18t-41 16.5t-15 42.5h-3q-8 -9 -18 -26.5t-19 -37.5l-54 -121q20 -3 35 -13.5t29 -31.5l111 -175h57v-48h-128l-151 238h-72v-190h75v-48h-237v48h75v190h-72l-151 -238h-128v48z" />
    <glyph glyph-name="uni0437" unicode="&#x437;" horiz-adv-x="515" 
d="M246 -12q-47 0 -84 10t-62.5 27.5t-39.5 40t-14 47.5q0 31 16.5 48.5t44.5 17.5q30 0 45 -17.5t15 -42.5q0 -20 -9.5 -35t-29.5 -23v-3q18 -11 42 -16.5t68 -5.5q62 0 93 27t31 63v26q0 17 -6 32.5t-18.5 27.5t-31.5 19t-46 7h-74v52h69q44 0 69 23t25 60v20
q0 37 -24.5 62t-70.5 25q-57 0 -92 -24.5t-35 -66.5v-29h-65v156h65v-47h3q20 27 52.5 43t82.5 16q86 0 132 -36.5t46 -99.5q0 -47 -29 -77.5t-76 -41.5v-4q54 -11 86 -42.5t32 -83.5q0 -35 -16 -64t-44.5 -49t-67 -31t-82.5 -11z" />
    <glyph glyph-name="uni0438" unicode="&#x438;" horiz-adv-x="676" 
d="M50 48h75v420h-75v48h237v-48h-75v-182l-10 -137h4l258 289v30h-75v48h237v-48h-75v-420h75v-48h-237v48h75v182l10 137h-4l-258 -289v-30h75v-48h-237v48z" />
    <glyph glyph-name="uni0439" unicode="&#x439;" horiz-adv-x="676" 
d="M50 48h75v420h-75v48h237v-48h-75v-182l-10 -137h4l258 289v30h-75v48h237v-48h-75v-420h75v-48h-237v48h75v182l10 137h-4l-258 -289v-30h75v-48h-237v48zM338 596q-44 0 -74.5 9.5t-50 25.5t-28.5 36t-9 41q0 28 15 42t39 14t38.5 -13.5t14.5 -39.5q0 -21 -11.5 -33.5
t-25.5 -17.5v-2q34 -14 92 -14t92 14v2q-15 5 -26 17.5t-11 33.5q0 26 14.5 39.5t38.5 13.5t39 -14t15 -42q0 -21 -9 -41t-28.5 -36t-50.5 -25.5t-74 -9.5z" />
    <glyph glyph-name="uni043A" unicode="&#x43a;" horiz-adv-x="596" 
d="M50 48h75v420h-75v48h239v-48h-75v-182h81l54 121q30 67 62 94t73 27q35 0 54 -20t19 -50t-16.5 -48.5t-45.5 -18.5t-43.5 18t-14.5 44h-3q-8 -10 -17.5 -27t-18.5 -37l-54 -121q21 -3 36.5 -13.5t29.5 -31.5l114 -175h57v-48h-131l-155 238h-81v-190h75v-48h-239v48z
" />
    <glyph glyph-name="uni043B" unicode="&#x43b;" horiz-adv-x="619" 
d="M99 -12q-47 0 -70.5 24t-23.5 59q0 27 14.5 43.5t42.5 16.5q24 0 37.5 -13.5t13.5 -36.5q0 -17 -9 -28.5t-18 -15.5v-3q3 -2 7 -2h8q23 0 39 16q10 10 20 29.5t17.5 60t12 107t4.5 171.5v52h-75v48h450v-48h-75v-420h75v-48h-239v48h75v416h-146v-42q0 -106 -4.5 -175.5
t-13 -114.5t-21.5 -70.5t-30 -42.5t-41 -24t-50 -7z" />
    <glyph glyph-name="uni043C" unicode="&#x43c;" horiz-adv-x="768" 
d="M50 48h75v420h-75v48h191l147 -288h4l147 288h179v-48h-75v-420h75v-48h-238v48h75v388h-3l-35 -74l-145 -283l-145 283l-35 74h-3v-388h75v-48h-214v48z" />
    <glyph glyph-name="uni043D" unicode="&#x43d;" horiz-adv-x="676" 
d="M50 48h75v420h-75v48h239v-48h-75v-180h248v180h-75v48h239v-48h-75v-420h75v-48h-239v48h75v188h-248v-188h75v-48h-239v48z" />
    <glyph glyph-name="uni043E" unicode="&#x43e;" horiz-adv-x="578" 
d="M289 40q37 0 64.5 12.5t44.5 34t25.5 51t8.5 63.5v114q0 34 -8.5 63.5t-25.5 51t-44.5 34t-64.5 12.5q-38 0 -65 -12.5t-44 -34t-25.5 -51t-8.5 -63.5v-114q0 -34 8.5 -63.5t25.5 -51t44 -34t65 -12.5zM289 -12q-55 0 -100 19.5t-77 54.5t-49.5 85t-17.5 111t17.5 111
t49.5 85t77 54.5t100 19.5t100 -19.5t77 -54.5t49.5 -85t17.5 -111t-17.5 -111t-49.5 -85t-77 -54.5t-100 -19.5z" />
    <glyph glyph-name="uni043F" unicode="&#x43f;" horiz-adv-x="676" 
d="M50 48h75v420h-75v48h576v-48h-75v-420h75v-48h-239v48h75v416h-248v-416h75v-48h-239v48z" />
    <glyph glyph-name="uni0440" unicode="&#x440;" horiz-adv-x="628" 
d="M40 -152h75v599l-75 14v36l164 31v-89h4q17 37 54.5 63t99.5 26q49 0 88.5 -17.5t68 -52t44 -84.5t15.5 -116t-15.5 -116t-44 -84.5t-68 -52t-88.5 -17.5q-62 0 -99.5 25.5t-54.5 62.5h-4v-228h95v-48h-259v48zM336 48q69 0 107 45.5t38 121.5v86q0 76 -38 121.5
t-107 45.5q-24 0 -48 -7t-42.5 -19.5t-30 -31.5t-11.5 -43v-218q0 -24 11.5 -43t30 -31.5t42.5 -19.5t48 -7z" />
    <glyph glyph-name="uni0441" unicode="&#x441;" horiz-adv-x="529" 
d="M286 -12q-57 0 -102 19.5t-76 55t-47 85.5t-16 110q0 61 18 111t51 85.5t79 54.5t101 19q42 0 76 -9.5t57.5 -26t36.5 -40t13 -50.5q0 -33 -18 -52.5t-49 -19.5q-32 0 -48.5 19.5t-16.5 45.5q0 23 12 39.5t33 25.5v3q-12 7 -33 11.5t-53 4.5q-35 0 -64.5 -13t-50.5 -35.5
t-33 -53.5t-12 -67v-76q0 -40 11 -73t31 -56t49 -36t65 -13q62 0 97.5 25t56.5 66l35 -22q-10 -27 -27 -51.5t-42 -43.5t-58.5 -30.5t-75.5 -11.5z" />
    <glyph glyph-name="uni0442" unicode="&#x442;" horiz-adv-x="535" 
d="M128 48h95v416h-124v-100h-65v152h467v-152h-65v100h-124v-416h95v-48h-279v48z" />
    <glyph glyph-name="uni0443" unicode="&#x443;" horiz-adv-x="549" 
d="M127 -212q-53 0 -77 22.5t-24 58.5q0 27 14.5 43.5t42.5 16.5q24 0 37.5 -14t13.5 -38q0 -17 -9 -28t-19 -14v-3q11 -4 26 -4q26 0 51 22t45 72l22 56l-195 490h-53v48h221v-48h-71l141 -370h4l134 370h-71v48h187v-48h-53l-220 -555q-21 -53 -57.5 -89t-89.5 -36z" />
    <glyph glyph-name="uni0444" unicode="&#x444;" horiz-adv-x="795" 
d="M278 -152h75v199h-4q-34 -59 -113 -59q-40 0 -74 16.5t-59 50t-39 84.5t-14 119t14 119t39 84.5t59 50t74 16.5q79 0 113 -59h4v195l-75 14v36l164 31v-276h4q34 59 113 59q40 0 74 -16.5t59 -50t39 -84.5t14 -119t-14 -119t-39 -84.5t-59 -50t-74 -16.5q-79 0 -113 59
h-4v-199h75v-48h-239v48zM260 40q41 0 67.5 20t26.5 58v280q0 38 -26.5 58t-67.5 20q-49 0 -81 -37.5t-32 -117.5v-126q0 -80 32 -117.5t81 -37.5zM535 40q49 0 81 37.5t32 117.5v126q0 80 -32 117.5t-81 37.5q-41 0 -67.5 -20t-26.5 -58v-280q0 -38 26.5 -58t67.5 -20z" />
    <glyph glyph-name="uni0445" unicode="&#x445;" horiz-adv-x="572" 
d="M31 48h58l152 203l-155 217h-52v48h218v-48h-58l110 -159h4l105 159h-62v48h186v-48h-58l-144 -200l155 -220h52v-48h-219v48h58l-109 162h-4l-112 -162h62v-48h-187v48z" />
    <glyph glyph-name="uni0446" unicode="&#x446;" horiz-adv-x="682" 
d="M566 0h-516v48h75v420h-75v48h239v-48h-75v-416h240v416h-75v48h239v-48h-75v-416h103v-202h-80v150z" />
    <glyph glyph-name="uni0447" unicode="&#x447;" horiz-adv-x="640" 
d="M331 48h95v204h-4q-26 -29 -62.5 -46.5t-90.5 -17.5q-81 0 -120.5 35.5t-39.5 118.5v126h-75v48h234v-48h-70v-117q0 -56 24 -79.5t86 -23.5q53 0 85.5 18.5t32.5 54.5v147h-70v48h234v-48h-75v-420h75v-48h-259v48z" />
    <glyph glyph-name="uni0448" unicode="&#x448;" horiz-adv-x="893" 
d="M50 48h75v420h-75v48h229v-48h-65v-416h188v416h-65v48h219v-48h-65v-416h188v416h-65v48h229v-48h-75v-420h75v-48h-793v48z" />
    <glyph glyph-name="uni0449" unicode="&#x449;" horiz-adv-x="907" 
d="M791 0h-741v48h75v420h-75v48h229v-48h-65v-416h188v416h-65v48h219v-48h-65v-416h188v416h-65v48h229v-48h-75v-416h103v-202h-80v150z" />
    <glyph glyph-name="uni044A" unicode="&#x44a;" horiz-adv-x="641" 
d="M138 48h75v416h-114v-100h-65v152h343v-48h-75v-150h129q83 0 126.5 -40t43.5 -117t-45 -119t-126 -42h-292v48zM417 52q45 0 66 24.5t21 63.5v38q0 40 -21 64t-66 24h-115v-214h115z" />
    <glyph glyph-name="uni044B" unicode="&#x44b;" horiz-adv-x="824" 
d="M50 48h75v420h-75v48h239v-48h-75v-150h121q83 0 126.5 -40t43.5 -117t-45 -119t-126 -42h-284v48zM535 48h75v420h-75v48h239v-48h-75v-420h75v-48h-239v48zM321 52q45 0 66 24.5t21 63.5v38q0 40 -21 64t-66 24h-107v-214h107z" />
    <glyph glyph-name="uni044C" unicode="&#x44c;" horiz-adv-x="553" 
d="M50 48h75v420h-75v48h239v-48h-75v-150h129q83 0 126.5 -40t43.5 -117t-45 -119t-126 -42h-292v48zM329 52q45 0 66 24.5t21 63.5v38q0 40 -21 64t-66 24h-115v-214h115z" />
    <glyph glyph-name="uni044D" unicode="&#x44d;" horiz-adv-x="541" 
d="M244 -12q-45 0 -82 10t-62.5 27.5t-39.5 40t-14 47.5q0 31 16.5 48.5t44.5 17.5q30 0 45 -17.5t15 -42.5q0 -20 -9.5 -35t-29.5 -23v-3q20 -11 46 -16.5t56 -5.5q37 0 68 12.5t53 36t34 57t12 74.5v22h-205v52h205v16q0 79 -36 126.5t-107 47.5q-57 0 -92 -24.5
t-35 -66.5v-29h-65v156h65v-47h3q20 27 52.5 43t82.5 16q107 0 169 -71t62 -199q0 -62 -18.5 -112t-51.5 -85t-79.5 -54t-102.5 -19z" />
    <glyph glyph-name="uni044E" unicode="&#x44e;" horiz-adv-x="837" 
d="M568 -12q-100 0 -159.5 65.5t-65.5 183.5h-129v-189h75v-48h-239v48h75v420h-75v48h239v-48h-75v-181h130q7 115 66 178t157 63q52 0 93.5 -18.5t70.5 -53t45 -85t16 -113.5t-15.5 -113.5t-44.5 -85t-70.5 -53t-93.5 -18.5zM567 40q67 0 95.5 42.5t28.5 115.5v120
q0 73 -28 115.5t-95 42.5t-95.5 -42.5t-28.5 -115.5v-120q0 -73 28 -115.5t95 -42.5z" />
    <glyph glyph-name="uni044F" unicode="&#x44f;" horiz-adv-x="591" 
d="M24 48h57l84 130q17 26 34 39t40 16v4q-78 5 -119.5 39t-41.5 93q0 30 10.5 56.5t32 47t53 32t73.5 11.5h294v-48h-75v-420h75v-48h-239v48h75v174h-80l-145 -222h-128v48zM377 270v194h-117q-24 0 -40.5 -8t-26 -20t-14 -27t-4.5 -29v-26q0 -39 23.5 -61.5t61.5 -22.5
h117z" />
    <glyph glyph-name="uni0450" unicode="&#x450;" horiz-adv-x="549" 
d="M286 -12q-57 0 -102 19.5t-76 55t-47 85.5t-16 110t18 109.5t49.5 85.5t74.5 55.5t94 19.5q52 0 93.5 -18t70 -50.5t44 -77.5t15.5 -98v-24h-360v-25q0 -83 42.5 -131t113.5 -48q63 0 100 25t58 66l35 -22q-10 -27 -27.5 -51.5t-43.5 -43.5t-60 -30.5t-76 -11.5zM144 308
h266v11q0 34 -7.5 63t-23 50.5t-40 33.5t-58.5 12t-59.5 -11.5t-43 -32.5t-26 -49.5t-8.5 -62.5v-14zM158 738l84 41l73 -180l-29 -14z" />
    <glyph glyph-name="uni0451" unicode="&#x451;" horiz-adv-x="549" 
d="M286 -12q-57 0 -102 19.5t-76 55t-47 85.5t-16 110t18 109.5t49.5 85.5t74.5 55.5t94 19.5q52 0 93.5 -18t70 -50.5t44 -77.5t15.5 -98v-24h-360v-25q0 -83 42.5 -131t113.5 -48q63 0 100 25t58 66l35 -22q-10 -27 -27.5 -51.5t-43.5 -43.5t-60 -30.5t-76 -11.5zM144 308
h266v11q0 34 -7.5 63t-23 50.5t-40 33.5t-58.5 12t-59.5 -11.5t-43 -32.5t-26 -49.5t-8.5 -62.5v-14zM189 616q-24 0 -38.5 15t-14.5 36v5q0 21 14.5 36t38.5 15t38.5 -15t14.5 -36v-5q0 -21 -14.5 -36t-38.5 -15zM371 616q-24 0 -38.5 15t-14.5 36v5q0 21 14.5 36t38.5 15
t38.5 -15t14.5 -36v-5q0 -21 -14.5 -36t-38.5 -15z" />
    <glyph glyph-name="uni0452" unicode="&#x452;" horiz-adv-x="630" 
d="M378 -212q-51 0 -76.5 23t-25.5 58q0 23 14 38.5t38 15.5q23 0 35.5 -13.5t12.5 -35.5q0 -15 -6.5 -26.5t-16.5 -14.5v-3q9 -4 25 -4q63 0 63 79v422q0 71 -29 106t-92 35q-22 0 -43.5 -6t-39 -18.5t-28 -31t-10.5 -43.5v-321h75v-48h-239v48h75v570h-90v48h90v87l89 17
v-104h199v-48h-199v-179h4q6 15 18.5 31t31 29t43.5 21t56 8q96 0 137 -48.5t41 -145.5v-382q0 -83 -40 -123.5t-112 -40.5z" />
    <glyph glyph-name="uni0453" unicode="&#x453;" horiz-adv-x="498" 
d="M50 48h75v420h-75v48h414v-152h-65v100h-185v-416h95v-48h-259v48zM239 599l72 180l83 -41l-126 -153z" />
    <glyph glyph-name="uni0454" unicode="&#x454;" horiz-adv-x="541" 
d="M296 -12q-59 0 -105.5 19t-79 54t-49.5 85t-17 112q0 61 17.5 111t49.5 85t76 54.5t98 19.5q47 0 77.5 -16t47.5 -43h3v47h65v-156h-65v29q0 42 -33 66.5t-84 24.5q-35 0 -63 -12.5t-48 -35.5t-31 -55t-11 -71v-16h205v-52h-205v-22q0 -40 10.5 -73t31 -57t50.5 -37
t69 -13q38 0 64.5 6t43.5 16v3q-20 8 -29.5 23t-9.5 35q0 25 15 42.5t45 17.5q28 0 44.5 -17.5t16.5 -48.5q0 -25 -14 -47.5t-40 -40t-62.5 -27.5t-82.5 -10z" />
    <glyph glyph-name="uni0455" unicode="&#x455;" horiz-adv-x="499" 
d="M258 -12q-24 0 -45 5.5t-37.5 14t-28.5 19.5t-18 23h-4v-50h-65v156h65v-20q0 -42 26.5 -68.5t89.5 -26.5q57 0 88.5 18.5t31.5 63.5q0 33 -21.5 55.5t-62.5 30.5l-62 13q-76 16 -114.5 54.5t-38.5 104.5q0 69 48 108t130 39q48 0 79 -14.5t41 -38.5h4v41h65v-156h-65v39
q0 38 -27 57.5t-85 19.5q-51 0 -79.5 -19t-28.5 -59q0 -34 23 -57t62 -31l58 -12q79 -17 118.5 -54.5t39.5 -103.5q0 -32 -13 -59.5t-37 -48t-58.5 -32.5t-78.5 -12z" />
    <glyph glyph-name="uni0456" unicode="&#x456;" horiz-adv-x="324" 
d="M169 632q-27 0 -42 16t-15 39v6q0 23 15 39t42 16t42 -16t15 -39v-6q0 -23 -15 -39t-42 -16zM50 48h75v399l-75 14v36l164 31v-480h75v-48h-239v48z" />
    <glyph glyph-name="uni0457" unicode="&#x457;" horiz-adv-x="324" 
d="M50 48h75v399l-75 14v36l164 31v-480h75v-48h-239v48zM79 616q-24 0 -38.5 15t-14.5 36v5q0 21 14.5 36t38.5 15t38.5 -15t14.5 -36v-5q0 -21 -14.5 -36t-38.5 -15zM261 616q-24 0 -38.5 15t-14.5 36v5q0 21 14.5 36t38.5 15t38.5 -15t14.5 -36v-5q0 -21 -14.5 -36
t-38.5 -15z" />
    <glyph glyph-name="uni0458" unicode="&#x458;" horiz-adv-x="314" 
d="M62 -212q-51 0 -76.5 23t-25.5 58q0 23 14 38.5t38 15.5q23 0 35.5 -13.5t12.5 -35.5q0 -15 -6.5 -26.5t-16.5 -14.5v-3q9 -4 25 -4q63 0 63 79v542l-75 14v36l164 31v-576q0 -83 -40 -123.5t-112 -40.5zM169 632q-27 0 -42 16t-15 39v6q0 23 15 39t42 16t42 -16t15 -39
v-6q0 -23 -15 -39t-42 -16z" />
    <glyph glyph-name="uni0459" unicode="&#x459;" horiz-adv-x="815" 
d="M99 -12q-47 0 -70.5 24t-23.5 59q0 27 14.5 43.5t42.5 16.5q24 0 37.5 -13.5t13.5 -36.5q0 -17 -9 -28.5t-18 -15.5v-3q3 -2 7 -2h8q23 0 39 16q10 10 20 29.5t17.5 60t12 107t4.5 171.5v52h-75v48h440v-48h-75v-150h121q83 0 126.5 -40t43.5 -117t-45 -119t-126 -42
h-284v48h75v416h-136v-42q0 -106 -4.5 -175.5t-13 -114.5t-21.5 -70.5t-30 -42.5t-41 -24t-50 -7zM591 52q45 0 66 24.5t21 63.5v38q0 40 -21 64t-66 24h-107v-214h107z" />
    <glyph glyph-name="uni045A" unicode="&#x45a;" horiz-adv-x="872" 
d="M50 48h75v420h-75v48h239v-48h-75v-180h238v180h-75v48h239v-48h-75v-150h121q83 0 126.5 -40t43.5 -117t-45 -119t-126 -42h-284v48h75v188h-238v-188h75v-48h-239v48zM648 52q45 0 66 24.5t21 63.5v38q0 40 -21 64t-66 24h-107v-214h107z" />
    <glyph glyph-name="uni045B" unicode="&#x45b;" horiz-adv-x="640" 
d="M35 48h75v570h-90v48h90v87l89 17v-104h199v-48h-199v-179h4q6 15 18.5 31t31 29t43.5 21t56 8q96 0 137 -48.5t41 -145.5v-286h75v-48h-239v48h75v279q0 71 -29 106t-92 35q-22 0 -43.5 -6t-39 -18.5t-28 -31t-10.5 -43.5v-321h75v-48h-239v48z" />
    <glyph glyph-name="uni045C" unicode="&#x45c;" horiz-adv-x="596" 
d="M50 48h75v420h-75v48h239v-48h-75v-182h81l54 121q30 67 62 94t73 27q35 0 54 -20t19 -50t-16.5 -48.5t-45.5 -18.5t-43.5 18t-14.5 44h-3q-8 -10 -17.5 -27t-18.5 -37l-54 -121q21 -3 36.5 -13.5t29.5 -31.5l114 -175h57v-48h-131l-155 238h-81v-190h75v-48h-239v48z
M302 599l72 180l83 -41l-126 -153z" />
    <glyph glyph-name="uni045D" unicode="&#x45d;" horiz-adv-x="676" 
d="M50 48h75v420h-75v48h237v-48h-75v-182l-10 -137h4l258 289v30h-75v48h237v-48h-75v-420h75v-48h-237v48h75v182l10 137h-4l-258 -289v-30h75v-48h-237v48zM216 738l84 41l73 -180l-29 -14z" />
    <glyph glyph-name="uni045E" unicode="&#x45e;" horiz-adv-x="549" 
d="M127 -212q-53 0 -77 22.5t-24 58.5q0 27 14.5 43.5t42.5 16.5q24 0 37.5 -14t13.5 -38q0 -17 -9 -28t-19 -14v-3q11 -4 26 -4q26 0 51 22t45 72l22 56l-195 490h-53v48h221v-48h-71l141 -370h4l134 370h-71v48h187v-48h-53l-220 -555q-21 -53 -57.5 -89t-89.5 -36z
M292 596q-44 0 -74.5 9.5t-50 25.5t-28.5 36t-9 41q0 28 15 42t39 14t38.5 -13.5t14.5 -39.5q0 -21 -11.5 -33.5t-25.5 -17.5v-2q34 -14 92 -14t92 14v2q-15 5 -26 17.5t-11 33.5q0 26 14.5 39.5t38.5 13.5t39 -14t15 -42q0 -21 -9 -41t-28.5 -36t-50.5 -25.5t-74 -9.5z" />
    <glyph glyph-name="uni045F" unicode="&#x45f;" horiz-adv-x="668" 
d="M294 0h-244v48h75v420h-75v48h239v-48h-75v-416h240v416h-75v48h239v-48h-75v-420h75v-48h-244v-150h-80v150z" />
    <glyph glyph-name="uni0472" unicode="&#x472;" horiz-adv-x="734" 
d="M367 44q52 0 91.5 18.5t66.5 51.5t40.5 77.5t13.5 97.5v42h-424v-42q0 -53 13.5 -97.5t40.5 -77.5t66.5 -51.5t91.5 -18.5zM579 381v28q0 52 -13.5 97t-40.5 78t-66.5 51.5t-91.5 18.5t-91.5 -18.5t-66.5 -51.5t-40.5 -78t-13.5 -97v-28h424zM367 -12q-71 0 -129.5 25
t-100 72t-64.5 114t-23 150t23 150t64.5 114t100 72t129.5 25t129.5 -25t100 -72t64.5 -114t23 -150t-23 -150t-64.5 -114t-100 -72t-129.5 -25z" />
    <glyph glyph-name="uni0473" unicode="&#x473;" horiz-adv-x="578" 
d="M289 40q37 0 64.5 12.5t44.5 34t25.5 51t8.5 63.5v37h-286v-37q0 -34 8.5 -63.5t25.5 -51t44 -34t65 -12.5zM432 286v29q0 34 -8.5 63.5t-25.5 51t-44.5 34t-64.5 12.5q-38 0 -65 -12.5t-44 -34t-25.5 -51t-8.5 -63.5v-29h286zM289 -12q-55 0 -100 19.5t-77 54.5
t-49.5 85t-17.5 111t17.5 111t49.5 85t77 54.5t100 19.5t100 -19.5t77 -54.5t49.5 -85t17.5 -111t-17.5 -111t-49.5 -85t-77 -54.5t-100 -19.5z" />
    <glyph glyph-name="uni0490" unicode="&#x490;" horiz-adv-x="573" 
d="M55 48h76v602h-76v48h398v160h85v-212h-313v-598h96v-48h-266v48z" />
    <glyph glyph-name="uni0491" unicode="&#x491;" horiz-adv-x="498" 
d="M50 48h75v420h-75v48h334v150h80v-202h-250v-416h95v-48h-259v48z" />
    <glyph glyph-name="uni0492" unicode="&#x492;" horiz-adv-x="573" 
d="M55 48h76v285h-91v50h91v267h-76v48h483v-170h-77v118h-236v-263h175v-50h-175v-285h96v-48h-266v48z" />
    <glyph glyph-name="uni0493" unicode="&#x493;" horiz-adv-x="498" 
d="M50 48h75v190h-85v48h85v182h-75v48h414v-152h-65v100h-185v-178h133v-48h-133v-190h95v-48h-259v48z" />
    <glyph glyph-name="uni0494" unicode="&#x494;" horiz-adv-x="660" 
d="M370 -112h108q9 9 17 19t13.5 23.5t9 31.5t3.5 43v155q0 48 -7.5 81t-24.5 53.5t-46 29.5t-72 9q-46 0 -81 -9.5t-65 -27.5v-248h76v-48h-246v48h76v602h-76v48h483v-170h-77v118h-236v-298h4q36 19 75.5 28t90.5 9q61 0 103.5 -13.5t68 -40.5t37 -68.5t11.5 -98.5v-164
q0 -45 -13.5 -76t-35.5 -50.5t-48.5 -28.5t-53.5 -9h-94v52z" />
    <glyph glyph-name="uni0495" unicode="&#x495;" horiz-adv-x="566" 
d="M294 -148h95q9 9 17 19t13.5 23.5t9 31.5t3.5 43v159q0 55 -22 79t-83 24q-53 0 -83 -18.5t-30 -54.5v-110h95v-48h-259v48h75v420h-75v48h414v-152h-65v100h-185v-237h4q26 29 60 46.5t88 17.5q81 0 118 -35.5t37 -118.5v-172q0 -45 -13 -76t-33.5 -51t-46.5 -29t-53 -9
h-81v52z" />
    <glyph glyph-name="uni0496" unicode="&#x496;" horiz-adv-x="1024" 
d="M935 0h-87l-205 329h-92v-281h76v-48h-244v48h76v281h-92l-205 -329h-150v48h71l163 262q17 28 31.5 38t31.5 13l-79 179q-14 30 -28 54t-26 38h-3q0 -27 -16.5 -44.5t-45.5 -17.5q-30 0 -45.5 20t-15.5 48q0 29 18.5 50.5t56.5 21.5q49 0 86.5 -33t74.5 -115l81 -183h92
v271h-76v48h244v-48h-76v-271h92l81 183q18 41 36.5 69.5t38 46t40.5 25t46 7.5q38 0 56.5 -21.5t18.5 -50.5q0 -28 -15.5 -48t-45.5 -20q-29 0 -45.5 17.5t-16.5 44.5h-3q-12 -14 -26 -38t-28 -54l-79 -179q17 -3 31.5 -13t31.5 -38l161 -258h95v-212h-85v160z" />
    <glyph glyph-name="uni0497" unicode="&#x497;" horiz-adv-x="840" 
d="M758 0h-82l-151 238h-72v-190h75v-48h-237v48h75v190h-72l-151 -238h-128v48h57l111 175q14 21 29 31.5t35 13.5l-54 121q-9 20 -19 37.5t-18 26.5h-3q0 -26 -15 -42.5t-41 -16.5t-43 18t-17 47t19.5 49t54.5 20q36 0 66.5 -25t61.5 -94l55 -123h72v182h-75v48h237v-48
h-75v-182h72l55 123q31 69 61.5 94t66.5 25q35 0 54.5 -20t19.5 -49t-17 -47t-43 -18t-41 16.5t-15 42.5h-3q-8 -9 -18 -26.5t-19 -37.5l-54 -121q20 -3 35 -13.5t29 -31.5l108 -171h94v-202h-80v150z" />
    <glyph glyph-name="uni0498" unicode="&#x498;" horiz-adv-x="617" 
d="M252 -10q-46 4 -82 16.5t-60.5 31t-37.5 40.5t-13 44q0 32 17.5 51t46.5 19t46 -18t17 -47q0 -22 -12 -38.5t-25 -21.5v-2q18 -11 50 -18.5t77 -7.5q85 0 128.5 38t43.5 100v30q0 57 -32 89.5t-93 32.5h-118v52h110q51 0 85.5 33t34.5 87v38q0 51 -32 85.5t-98 34.5
q-34 0 -62.5 -8.5t-49 -24t-32 -36.5t-11.5 -45v-61h-77v214h77v-61h4q23 33 64.5 53t106.5 20q50 0 89.5 -13.5t66.5 -37t41.5 -56t14.5 -70.5q0 -72 -41 -115t-101 -56v-4q29 -5 57 -16t49.5 -31t35 -49.5t13.5 -70.5q0 -40 -15 -74t-43 -60.5t-67.5 -43t-87.5 -22.5v-151
h-85v150z" />
    <glyph glyph-name="uni0499" unicode="&#x499;" horiz-adv-x="515" 
d="M210 -10q-76 8 -120 42.5t-44 80.5q0 31 16.5 48.5t44.5 17.5q30 0 45 -17.5t15 -42.5q0 -20 -9.5 -35t-29.5 -23v-3q18 -11 42 -16.5t68 -5.5q62 0 93 27t31 63v26q0 17 -6 32.5t-18.5 27.5t-31.5 19t-46 7h-74v52h69q44 0 69 23t25 60v20q0 37 -24.5 62t-70.5 25
q-57 0 -92 -24.5t-35 -66.5v-29h-65v156h65v-47h3q20 27 52.5 43t82.5 16q86 0 132 -36.5t46 -99.5q0 -47 -29 -77.5t-76 -41.5v-4q54 -11 86 -42.5t32 -83.5q0 -32 -13 -58t-35.5 -45.5t-53 -32t-64.5 -16.5v-141h-80v140z" />
    <glyph glyph-name="uni049A" unicode="&#x49a;" horiz-adv-x="718" 
d="M629 0h-89l-217 329h-98v-281h76v-48h-246v48h76v602h-76v48h246v-48h-76v-271h98l97 191q21 41 39.5 68t37.5 43t38 22.5t42 6.5q38 0 58.5 -21t20.5 -53q0 -28 -15.5 -48t-47.5 -20q-29 0 -45.5 18.5t-16.5 45.5h-3q-12 -17 -27 -42t-26 -46l-93 -183q19 -3 34 -13
t32 -36l171 -260h95v-212h-85v160z" />
    <glyph glyph-name="uni049B" unicode="&#x49b;" horiz-adv-x="618" 
d="M535 0h-85l-155 238h-81v-190h75v-48h-239v48h75v420h-75v48h239v-48h-75v-182h81l54 121q30 67 62 94t73 27q35 0 54 -20t19 -50t-16.5 -48.5t-45.5 -18.5t-43.5 18t-14.5 44h-3q-8 -10 -17.5 -27t-18.5 -37l-54 -121q21 -3 36.5 -13.5t29.5 -31.5l111 -171h94v-202h-80
v150z" />
    <glyph glyph-name="uni049C" unicode="&#x49c;" horiz-adv-x="719" 
d="M265 329h-40v-281h76v-48h-246v48h76v602h-76v48h246v-48h-76v-271h40v158h56v-158h32l86 190q35 78 70 109.5t82 31.5q38 0 58.5 -21t20.5 -53q0 -28 -15.5 -48t-47.5 -20q-29 0 -45.5 18.5t-16.5 45.5h-3q-9 -14 -21 -36t-26 -52l-83 -183q19 -3 33.5 -14t30.5 -37
l160 -262h71v-48h-153l-201 329h-32v-158h-56v158z" />
    <glyph glyph-name="uni049D" unicode="&#x49d;" horiz-adv-x="616" 
d="M50 48h75v420h-75v48h239v-48h-75v-182h33v106h50v-106h28l46 121q25 65 57 93t76 28q35 0 54 -20t19 -50t-16.5 -48.5t-45.5 -18.5t-43.5 18t-14.5 44h-3q-8 -8 -15.5 -22.5t-18.5 -41.5l-46 -121q39 -6 63 -46l107 -174h57v-48h-131l-145 238h-28v-106h-50v106h-33
v-190h75v-48h-239v48z" />
    <glyph glyph-name="uni04A0" unicode="&#x4a0;" horiz-adv-x="831" 
d="M181 48h76v598h-145v-118h-77v170h392v-48h-76v-271h98l97 191q21 41 39.5 68t37.5 43t38 22.5t42 6.5q38 0 58.5 -21t20.5 -53q0 -28 -15.5 -48t-47.5 -20q-29 0 -45.5 18.5t-16.5 45.5h-3q-12 -17 -27 -42t-26 -46l-93 -183q19 -3 34 -13t32 -36l174 -264h71v-48h-153
l-217 329h-98v-281h76v-48h-246v48z" />
    <glyph glyph-name="uni04A1" unicode="&#x4a1;" horiz-adv-x="684" 
d="M138 48h75v416h-114v-100h-65v152h343v-48h-75v-182h81l54 121q30 67 62 94t73 27q35 0 54 -20t19 -50t-16.5 -48.5t-45.5 -18.5t-43.5 18t-14.5 44h-3q-8 -10 -17.5 -27t-18.5 -37l-54 -121q21 -3 36.5 -13.5t29.5 -31.5l114 -175h57v-48h-131l-155 238h-81v-190h75v-48
h-239v48z" />
    <glyph glyph-name="uni04A2" unicode="&#x4a2;" horiz-adv-x="820" 
d="M695 0h-190v48h76v281h-356v-281h76v-48h-246v48h76v602h-76v48h246v-48h-76v-269h356v269h-76v48h246v-48h-76v-598h105v-212h-85v160z" />
    <glyph glyph-name="uni04A3" unicode="&#x4a3;" horiz-adv-x="690" 
d="M574 0h-187v48h75v188h-248v-188h75v-48h-239v48h75v420h-75v48h239v-48h-75v-180h248v180h-75v48h239v-48h-75v-416h103v-202h-80v150z" />
    <glyph glyph-name="uni04A4" unicode="&#x4a4;" horiz-adv-x="997" 
d="M55 48h76v602h-76v48h246v-48h-76v-269h330v269h-76v48h483v-170h-77v118h-236v-598h96v-48h-266v48h76v281h-330v-281h76v-48h-246v48z" />
    <glyph glyph-name="uni04A5" unicode="&#x4a5;" horiz-adv-x="815" 
d="M50 48h75v420h-75v48h239v-48h-75v-180h238v180h-75v48h404v-152h-65v100h-175v-416h95v-48h-259v48h75v188h-238v-188h75v-48h-239v48z" />
    <glyph glyph-name="uni04AA" unicode="&#x4aa;" horiz-adv-x="662" 
d="M312 -10q-60 7 -108 35t-82.5 74.5t-53 109.5t-18.5 140q0 86 21.5 153.5t60.5 113.5t93 70t119 24q63 0 108 -20.5t59 -52.5h4v61h77v-204h-77v51q0 49 -44 79t-115 30q-54 0 -92 -19.5t-62.5 -52t-35.5 -75.5t-11 -90v-128q0 -53 14.5 -95.5t42 -73.5t67.5 -47.5
t91 -16.5q71 0 120 37t71 93l41 -20q-8 -26 -24.5 -53.5t-42 -52t-60.5 -43t-78 -25.5v-152h-85v150z" />
    <glyph glyph-name="uni04AB" unicode="&#x4ab;" horiz-adv-x="529" 
d="M245 -9q-94 13 -147 84t-53 183q0 61 18 111t51 85.5t79 54.5t101 19q42 0 76 -9.5t57.5 -26t36.5 -40t13 -50.5q0 -33 -18 -52.5t-49 -19.5q-32 0 -48.5 19.5t-16.5 45.5q0 23 12 39.5t33 25.5v3q-12 7 -33 11.5t-53 4.5q-35 0 -64.5 -13t-50.5 -35.5t-33 -53.5t-12 -67
v-76q0 -40 11 -73t31 -56t49 -36t65 -13q62 0 97.5 25t56.5 66l35 -22q-17 -48 -58.5 -86.5t-105.5 -47.5v-141h-80v141z" />
    <glyph glyph-name="uni04AE" unicode="&#x4ae;" horiz-adv-x="648" 
d="M181 48h96v233l-204 369h-53v48h249v-48h-90l162 -305h4l165 305h-90v48h208v-48h-53l-204 -364v-238h96v-48h-286v48z" />
    <glyph glyph-name="uni04AF" unicode="&#x4af;" horiz-adv-x="549" 
d="M156 -152h75v152l-176 468h-53v48h221v-48h-71l140 -382h4l135 382h-71v48h187v-48h-53l-174 -468v-152h75v-48h-239v48z" />
    <glyph glyph-name="uni04B0" unicode="&#x4b0;" horiz-adv-x="648" 
d="M181 48h96v188h-145v50h144l-203 364h-53v48h249v-48h-90l162 -305h4l165 305h-90v48h208v-48h-53l-204 -364h145v-50h-145v-188h96v-48h-286v48z" />
    <glyph glyph-name="uni04B1" unicode="&#x4b1;" horiz-adv-x="549" 
d="M156 -152h75v104h-105v48h105l-176 468h-53v48h221v-48h-71l140 -382h4l135 382h-71v48h187v-48h-53l-174 -468h105v-48h-105v-104h75v-48h-239v48z" />
    <glyph glyph-name="uni04B2" unicode="&#x4b2;" horiz-adv-x="694" 
d="M605 0h-188v48h73l-162 246h-4l-170 -246h65v-48h-201v48h61l214 291l-210 311h-61v48h247v-48h-73l159 -242h4l167 242h-65v48h199v-48h-61l-210 -286l211 -312h90v-212h-85v160z" />
    <glyph glyph-name="uni04B3" unicode="&#x4b3;" horiz-adv-x="582" 
d="M496 0h-173v48h58l-109 162h-4l-112 -162h62v-48h-187v48h58l152 203l-155 217h-52v48h218v-48h-58l110 -159h4l105 159h-62v48h186v-48h-58l-144 -200l152 -216h89v-202h-80v150z" />
    <glyph glyph-name="uni04B6" unicode="&#x4b6;" horiz-adv-x="750" 
d="M625 0h-210v48h96v254h-4q-35 -18 -73.5 -27.5t-94.5 -9.5q-63 0 -106.5 13t-70.5 40t-39 68.5t-12 99.5v164h-76v48h246v-48h-76v-160q0 -48 8 -81.5t26 -53.5t47 -29t72 -9q49 0 88 10t65 27v296h-76v48h246v-48h-76v-598h105v-212h-85v160z" />
    <glyph glyph-name="uni04B7" unicode="&#x4b7;" horiz-adv-x="654" 
d="M538 0h-207v48h95v204h-4q-26 -29 -62.5 -46.5t-90.5 -17.5q-81 0 -120.5 35.5t-39.5 118.5v126h-75v48h234v-48h-70v-117q0 -56 24 -79.5t86 -23.5q53 0 85.5 18.5t32.5 54.5v147h-70v48h234v-48h-75v-416h103v-202h-80v150z" />
    <glyph glyph-name="uni04B8" unicode="&#x4b8;" horiz-adv-x="736" 
d="M333 265q-62 0 -104 13.5t-68.5 40.5t-38 68.5t-11.5 98.5v164h-76v48h246v-48h-76v-160q0 -89 28.5 -128.5t99.5 -43.5v166h56v-166q38 2 68.5 12t53.5 24v296h-76v48h246v-48h-76v-602h76v-48h-266v48h96v254h-4q-27 -14 -55 -22.5t-63 -12.5v-149h-56v147z" />
    <glyph glyph-name="uni04B9" unicode="&#x4b9;" horiz-adv-x="640" 
d="M285 188h-16q-81 0 -120.5 35.5t-39.5 118.5v126h-75v48h234v-48h-70v-117q0 -51 19 -74.5t68 -27.5v104h50v-104q42 5 66.5 22.5t24.5 49.5v147h-70v48h234v-48h-75v-420h75v-48h-259v48h95v204h-4q-34 -39 -87 -55v-104h-50v95z" />
    <glyph glyph-name="uni04BA" unicode="&#x4ba;" horiz-adv-x="736" 
d="M55 48h76v602h-76v48h246v-48h-76v-254h4q35 18 73.5 27.5t94.5 9.5q63 0 106.5 -13t70.5 -40t39 -68.5t12 -99.5v-164h76v-48h-246v48h76v160q0 48 -8 81.5t-26 53.5t-47 29t-72 9q-49 0 -88 -10t-65 -27v-296h76v-48h-246v48z" />
    <glyph glyph-name="uni04BB" unicode="&#x4bb;" horiz-adv-x="640" 
d="M35 48h75v641l-75 14v36l164 31v-331h4q6 15 18.5 31t31 29t43.5 21t56 8q96 0 137 -48.5t41 -145.5v-286h75v-48h-239v48h75v279q0 71 -29 106t-92 35q-22 0 -43.5 -6t-39 -18.5t-28 -31t-10.5 -43.5v-321h75v-48h-239v48z" />
    <glyph glyph-name="uni04C0" unicode="&#x4c0;" horiz-adv-x="356" 
d="M55 48h76v602h-76v48h246v-48h-76v-602h76v-48h-246v48z" />
    <glyph glyph-name="uni04C1" unicode="&#x4c1;" horiz-adv-x="1010" 
d="M12 48h71l163 262q17 28 31.5 38t31.5 13l-79 179q-14 30 -28 54t-26 38h-3q0 -27 -16.5 -44.5t-45.5 -17.5q-30 0 -45.5 20t-15.5 48q0 29 18.5 50.5t56.5 21.5q49 0 86.5 -33t74.5 -115l81 -183h92v271h-76v48h244v-48h-76v-271h92l81 183q18 41 36.5 69.5t38 46
t40.5 25t46 7.5q38 0 56.5 -21.5t18.5 -50.5q0 -28 -15.5 -48t-45.5 -20q-29 0 -45.5 17.5t-16.5 44.5h-3q-12 -14 -26 -38t-28 -54l-79 -179q17 -3 31.5 -13t31.5 -38l163 -262h71v-48h-150l-205 329h-92v-281h76v-48h-244v48h76v281h-92l-205 -329h-150v48zM505 768
q-44 0 -74.5 9.5t-50 25.5t-28.5 36t-9 41q0 28 15 42t39 14t38.5 -13.5t14.5 -39.5q0 -21 -11.5 -33.5t-25.5 -17.5v-2q34 -14 92 -14t92 14v2q-15 5 -26 17.5t-11 33.5q0 26 14.5 39.5t38.5 13.5t39 -14t15 -42q0 -21 -9 -41t-28.5 -36t-50.5 -25.5t-74 -9.5z" />
    <glyph glyph-name="uni04C2" unicode="&#x4c2;" horiz-adv-x="819" 
d="M15 48h57l111 175q14 21 29 31.5t35 13.5l-54 121q-9 20 -19 37.5t-18 26.5h-3q0 -26 -15 -42.5t-41 -16.5t-43 18t-17 47t19.5 49t54.5 20q36 0 66.5 -25t61.5 -94l55 -123h72v182h-75v48h237v-48h-75v-182h72l55 123q31 69 61.5 94t66.5 25q35 0 54.5 -20t19.5 -49
t-17 -47t-43 -18t-41 16.5t-15 42.5h-3q-8 -9 -18 -26.5t-19 -37.5l-54 -121q20 -3 35 -13.5t29 -31.5l111 -175h57v-48h-128l-151 238h-72v-190h75v-48h-237v48h75v190h-72l-151 -238h-128v48zM409 596q-44 0 -74.5 9.5t-50 25.5t-28.5 36t-9 41q0 28 15 42t39 14
t38.5 -13.5t14.5 -39.5q0 -21 -11.5 -33.5t-25.5 -17.5v-2q34 -14 92 -14t92 14v2q-15 5 -26 17.5t-11 33.5q0 26 14.5 39.5t38.5 13.5t39 -14t15 -42q0 -21 -9 -41t-28.5 -36t-50.5 -25.5t-74 -9.5z" />
    <glyph glyph-name="uni04CF" unicode="&#x4cf;" horiz-adv-x="309" 
d="M35 48h75v662h-75v48h239v-48h-75v-662h75v-48h-239v48z" />
    <glyph glyph-name="uni04D0" unicode="&#x4d0;" horiz-adv-x="701" 
d="M16 48h53l230 650h103l230 -650h53v-48h-244v48h90l-63 179h-274l-61 -179h90v-48h-207v48zM209 277h244l-117 344h-7zM350 768q-44 0 -74.5 9.5t-50 25.5t-28.5 36t-9 41q0 28 15 42t39 14t38.5 -13.5t14.5 -39.5q0 -21 -11.5 -33.5t-25.5 -17.5v-2q34 -14 92 -14t92 14
v2q-15 5 -26 17.5t-11 33.5q0 26 14.5 39.5t38.5 13.5t39 -14t15 -42q0 -21 -9 -41t-28.5 -36t-50.5 -25.5t-74 -9.5z" />
    <glyph glyph-name="uni04D1" unicode="&#x4d1;" horiz-adv-x="558" 
d="M206 -12q-73 0 -114.5 37.5t-41.5 102.5q0 37 12.5 66t40.5 48t73 29t110 10h73v74q0 60 -29.5 92.5t-89.5 32.5q-23 0 -45.5 -4t-36.5 -12v-2q12 -7 23 -19t11 -35q0 -28 -16 -43t-43 -15q-26 0 -42 15.5t-16 45.5q0 22 13 43t38 37.5t62 26.5t84 10q83 0 129.5 -42
t46.5 -118v-322h75v-38q-11 -8 -30 -14t-43 -6q-42 0 -64 23t-22 61v3h-5q-8 -17 -19.5 -32.5t-29.5 -27.5t-43.5 -19.5t-60.5 -7.5zM244 46q24 0 44.5 6t36.5 18t25 30t9 43v95h-64q-43 0 -72 -6t-46 -18t-24.5 -30t-7.5 -42v-20q0 -38 26 -57t73 -19zM273 596
q-44 0 -74.5 9.5t-50 25.5t-28.5 36t-9 41q0 28 15 42t39 14t38.5 -13.5t14.5 -39.5q0 -21 -11.5 -33.5t-25.5 -17.5v-2q34 -14 92 -14t92 14v2q-15 5 -26 17.5t-11 33.5q0 26 14.5 39.5t38.5 13.5t39 -14t15 -42q0 -21 -9 -41t-28.5 -36t-50.5 -25.5t-74 -9.5z" />
    <glyph glyph-name="uni04D2" unicode="&#x4d2;" horiz-adv-x="701" 
d="M16 48h53l230 650h103l230 -650h53v-48h-244v48h90l-63 179h-274l-61 -179h90v-48h-207v48zM209 277h244l-117 344h-7zM259 788q-24 0 -38.5 15t-14.5 36v5q0 21 14.5 36t38.5 15t38.5 -15t14.5 -36v-5q0 -21 -14.5 -36t-38.5 -15zM441 788q-24 0 -38.5 15t-14.5 36v5
q0 21 14.5 36t38.5 15t38.5 -15t14.5 -36v-5q0 -21 -14.5 -36t-38.5 -15z" />
    <glyph glyph-name="uni04D3" unicode="&#x4d3;" horiz-adv-x="558" 
d="M206 -12q-73 0 -114.5 37.5t-41.5 102.5q0 37 12.5 66t40.5 48t73 29t110 10h73v74q0 60 -29.5 92.5t-89.5 32.5q-23 0 -45.5 -4t-36.5 -12v-2q12 -7 23 -19t11 -35q0 -28 -16 -43t-43 -15q-26 0 -42 15.5t-16 45.5q0 22 13 43t38 37.5t62 26.5t84 10q83 0 129.5 -42
t46.5 -118v-322h75v-38q-11 -8 -30 -14t-43 -6q-42 0 -64 23t-22 61v3h-5q-8 -17 -19.5 -32.5t-29.5 -27.5t-43.5 -19.5t-60.5 -7.5zM244 46q24 0 44.5 6t36.5 18t25 30t9 43v95h-64q-43 0 -72 -6t-46 -18t-24.5 -30t-7.5 -42v-20q0 -38 26 -57t73 -19zM182 616
q-24 0 -38.5 15t-14.5 36v5q0 21 14.5 36t38.5 15t38.5 -15t14.5 -36v-5q0 -21 -14.5 -36t-38.5 -15zM364 616q-24 0 -38.5 15t-14.5 36v5q0 21 14.5 36t38.5 15t38.5 -15t14.5 -36v-5q0 -21 -14.5 -36t-38.5 -15z" />
    <glyph glyph-name="uni04D4" unicode="&#x4d4;" horiz-adv-x="975" 
d="M11 48h53l311 602h-76v48h606v-170h-77v118h-286v-261h197v80h64v-212h-64v80h-197v-281h296v128h77v-180h-543v48h76v179h-228l-91 -179h76v-48h-194v48zM243 277h205v373h-10z" />
    <glyph glyph-name="uni04D5" unicode="&#x4d5;" horiz-adv-x="839" 
d="M214 -12q-79 0 -121.5 39t-42.5 105q0 42 12.5 72.5t40.5 50.5t73 29.5t110 9.5h73v61q0 60 -32 92.5t-97 32.5q-20 0 -39.5 -4.5t-32.5 -11.5v-2q12 -7 23 -19t11 -35q0 -28 -16 -43t-43 -15q-26 0 -42 15.5t-16 45.5q0 21 12.5 42t36 37.5t58.5 27t80 10.5
q69 0 107.5 -31.5t45.5 -75.5h6q5 21 19.5 40.5t35.5 34.5t48 23.5t57 8.5q50 0 89.5 -18t67 -50.5t42 -77.5t14.5 -98v-36h-346v-13q0 -83 43 -131t114 -48q57 0 90.5 22.5t52.5 58.5l35 -22q-9 -25 -25.5 -48t-40.5 -40.5t-55.5 -28t-70.5 -10.5q-66 0 -117 31.5t-71 86.5
h-5q-7 -24 -21.5 -45.5t-37 -37.5t-53.5 -25.5t-72 -9.5zM244 46q24 0 44.5 6t36.5 18t25 30t9 43v105h-64q-43 0 -72 -5.5t-46 -17t-24.5 -30.5t-7.5 -46v-20q0 -42 26 -62.5t73 -20.5zM448 294h254v25q0 34 -6.5 63t-21 50.5t-37.5 33.5t-56 12t-57.5 -11.5t-41.5 -32.5
t-25.5 -49.5t-8.5 -62.5v-28z" />
    <glyph glyph-name="uni04D6" unicode="&#x4d6;" horiz-adv-x="658" 
d="M55 48h76v602h-76v48h533v-170h-77v118h-286v-261h197v80h64v-212h-64v80h-197v-281h296v128h77v-180h-543v48zM344 768q-44 0 -74.5 9.5t-50 25.5t-28.5 36t-9 41q0 28 15 42t39 14t38.5 -13.5t14.5 -39.5q0 -21 -11.5 -33.5t-25.5 -17.5v-2q34 -14 92 -14t92 14v2
q-15 5 -26 17.5t-11 33.5q0 26 14.5 39.5t38.5 13.5t39 -14t15 -42q0 -21 -9 -41t-28.5 -36t-50.5 -25.5t-74 -9.5z" />
    <glyph glyph-name="uni04D7" unicode="&#x4d7;" horiz-adv-x="549" 
d="M286 -12q-57 0 -102 19.5t-76 55t-47 85.5t-16 110t18 109.5t49.5 85.5t74.5 55.5t94 19.5q52 0 93.5 -18t70 -50.5t44 -77.5t15.5 -98v-24h-360v-25q0 -83 42.5 -131t113.5 -48q63 0 100 25t58 66l35 -22q-10 -27 -27.5 -51.5t-43.5 -43.5t-60 -30.5t-76 -11.5zM144 308
h266v11q0 34 -7.5 63t-23 50.5t-40 33.5t-58.5 12t-59.5 -11.5t-43 -32.5t-26 -49.5t-8.5 -62.5v-14zM280 596q-44 0 -74.5 9.5t-50 25.5t-28.5 36t-9 41q0 28 15 42t39 14t38.5 -13.5t14.5 -39.5q0 -21 -11.5 -33.5t-25.5 -17.5v-2q34 -14 92 -14t92 14v2q-15 5 -26 17.5
t-11 33.5q0 26 14.5 39.5t38.5 13.5t39 -14t15 -42q0 -21 -9 -41t-28.5 -36t-50.5 -25.5t-74 -9.5z" />
    <glyph glyph-name="uni04D8" unicode="&#x4d8;" horiz-adv-x="717" 
d="M355 -12q-72 0 -129 25t-96 66t-59.5 93.5t-20.5 106.5v52h512v78q0 50 -14.5 92.5t-43.5 74t-74 49t-106 17.5q-80 0 -135.5 -36.5t-78.5 -93.5l-41 20q9 29 30.5 60.5t56.5 57.5t82 43t107 17q76 0 136 -25t101 -72t63 -113.5t22 -150.5q0 -83 -22.5 -150t-63.5 -114
t-98.5 -72t-127.5 -25zM355 44q49 0 87.5 18t65 49.5t40.5 74.5t14 94v1h-407v-1q0 -51 13.5 -94t39 -74.5t63 -49.5t84.5 -18z" />
    <glyph glyph-name="uni04D9" unicode="&#x4d9;" horiz-adv-x="549" 
d="M268 -12q-52 0 -93.5 18t-70 50.5t-44 77.5t-15.5 98v24h360v25q0 83 -42.5 131t-113.5 48q-63 0 -100 -25t-58 -66l-35 22q10 27 27.5 51.5t43.5 43.5t60 30.5t76 11.5q57 0 102 -19.5t76 -55t47 -85.5t16 -110t-18 -109.5t-49.5 -85.5t-74.5 -55.5t-94 -19.5zM268 38
q34 0 59.5 11.5t42.5 32.5t26 49.5t9 62.5v14h-266v-11q0 -34 7.5 -63t23 -50.5t40 -33.5t58.5 -12z" />
    <glyph glyph-name="uni04DC" unicode="&#x4dc;" horiz-adv-x="1010" 
d="M12 48h71l163 262q17 28 31.5 38t31.5 13l-79 179q-14 30 -28 54t-26 38h-3q0 -27 -16.5 -44.5t-45.5 -17.5q-30 0 -45.5 20t-15.5 48q0 29 18.5 50.5t56.5 21.5q49 0 86.5 -33t74.5 -115l81 -183h92v271h-76v48h244v-48h-76v-271h92l81 183q18 41 36.5 69.5t38 46
t40.5 25t46 7.5q38 0 56.5 -21.5t18.5 -50.5q0 -28 -15.5 -48t-45.5 -20q-29 0 -45.5 17.5t-16.5 44.5h-3q-12 -14 -26 -38t-28 -54l-79 -179q17 -3 31.5 -13t31.5 -38l163 -262h71v-48h-150l-205 329h-92v-281h76v-48h-244v48h76v281h-92l-205 -329h-150v48zM414 788
q-24 0 -38.5 15t-14.5 36v5q0 21 14.5 36t38.5 15t38.5 -15t14.5 -36v-5q0 -21 -14.5 -36t-38.5 -15zM596 788q-24 0 -38.5 15t-14.5 36v5q0 21 14.5 36t38.5 15t38.5 -15t14.5 -36v-5q0 -21 -14.5 -36t-38.5 -15z" />
    <glyph glyph-name="uni04DD" unicode="&#x4dd;" horiz-adv-x="819" 
d="M15 48h57l111 175q14 21 29 31.5t35 13.5l-54 121q-9 20 -19 37.5t-18 26.5h-3q0 -26 -15 -42.5t-41 -16.5t-43 18t-17 47t19.5 49t54.5 20q36 0 66.5 -25t61.5 -94l55 -123h72v182h-75v48h237v-48h-75v-182h72l55 123q31 69 61.5 94t66.5 25q35 0 54.5 -20t19.5 -49
t-17 -47t-43 -18t-41 16.5t-15 42.5h-3q-8 -9 -18 -26.5t-19 -37.5l-54 -121q20 -3 35 -13.5t29 -31.5l111 -175h57v-48h-128l-151 238h-72v-190h75v-48h-237v48h75v190h-72l-151 -238h-128v48zM318 616q-24 0 -38.5 15t-14.5 36v5q0 21 14.5 36t38.5 15t38.5 -15t14.5 -36
v-5q0 -21 -14.5 -36t-38.5 -15zM500 616q-24 0 -38.5 15t-14.5 36v5q0 21 14.5 36t38.5 15t38.5 -15t14.5 -36v-5q0 -21 -14.5 -36t-38.5 -15z" />
    <glyph glyph-name="uni04DE" unicode="&#x4de;" horiz-adv-x="617" 
d="M289 -12q-54 0 -97 12t-72.5 31t-45 43t-15.5 48q0 32 17.5 51t46.5 19t46 -18t17 -47q0 -22 -12 -38.5t-25 -21.5v-2q18 -11 50 -18.5t77 -7.5q85 0 128.5 38t43.5 100v30q0 57 -32 89.5t-93 32.5h-118v52h110q51 0 85.5 33t34.5 87v38q0 51 -32 85.5t-98 34.5
q-34 0 -62.5 -8.5t-49 -24t-32 -36.5t-11.5 -45v-61h-77v214h77v-61h4q23 33 64.5 53t106.5 20q50 0 89.5 -13.5t66.5 -37t41.5 -56t14.5 -70.5q0 -72 -41 -115t-101 -56v-4q29 -5 57 -16t49.5 -31t35 -49.5t13.5 -70.5q0 -45 -19 -82.5t-53 -64t-82.5 -41.5t-106.5 -15z
M224 788q-24 0 -38.5 15t-14.5 36v5q0 21 14.5 36t38.5 15t38.5 -15t14.5 -36v-5q0 -21 -14.5 -36t-38.5 -15zM406 788q-24 0 -38.5 15t-14.5 36v5q0 21 14.5 36t38.5 15t38.5 -15t14.5 -36v-5q0 -21 -14.5 -36t-38.5 -15z" />
    <glyph glyph-name="uni04DF" unicode="&#x4df;" horiz-adv-x="515" 
d="M246 -12q-47 0 -84 10t-62.5 27.5t-39.5 40t-14 47.5q0 31 16.5 48.5t44.5 17.5q30 0 45 -17.5t15 -42.5q0 -20 -9.5 -35t-29.5 -23v-3q18 -11 42 -16.5t68 -5.5q62 0 93 27t31 63v26q0 17 -6 32.5t-18.5 27.5t-31.5 19t-46 7h-74v52h69q44 0 69 23t25 60v20
q0 37 -24.5 62t-70.5 25q-57 0 -92 -24.5t-35 -66.5v-29h-65v156h65v-47h3q20 27 52.5 43t82.5 16q86 0 132 -36.5t46 -99.5q0 -47 -29 -77.5t-76 -41.5v-4q54 -11 86 -42.5t32 -83.5q0 -35 -16 -64t-44.5 -49t-67 -31t-82.5 -11zM175 616q-24 0 -38.5 15t-14.5 36v5
q0 21 14.5 36t38.5 15t38.5 -15t14.5 -36v-5q0 -21 -14.5 -36t-38.5 -15zM357 616q-24 0 -38.5 15t-14.5 36v5q0 21 14.5 36t38.5 15t38.5 -15t14.5 -36v-5q0 -21 -14.5 -36t-38.5 -15z" />
    <glyph glyph-name="uni04E2" unicode="&#x4e2;" horiz-adv-x="806" 
d="M55 48h76v602h-76v48h243v-48h-76v-307l-11 -189h4l369 472v24h-76v48h243v-48h-76v-602h76v-48h-243v48h76v307l11 189h-4l-369 -472v-24h76v-48h-243v48zM263 872h280v-62h-280v62z" />
    <glyph glyph-name="uni04E3" unicode="&#x4e3;" horiz-adv-x="676" 
d="M50 48h75v420h-75v48h237v-48h-75v-182l-10 -137h4l258 289v30h-75v48h237v-48h-75v-420h75v-48h-237v48h75v182l10 137h-4l-258 -289v-30h75v-48h-237v48zM198 702h280v-62h-280v62z" />
    <glyph glyph-name="uni04E4" unicode="&#x4e4;" horiz-adv-x="806" 
d="M55 48h76v602h-76v48h243v-48h-76v-307l-11 -189h4l369 472v24h-76v48h243v-48h-76v-602h76v-48h-243v48h76v307l11 189h-4l-369 -472v-24h76v-48h-243v48zM312 788q-24 0 -38.5 15t-14.5 36v5q0 21 14.5 36t38.5 15t38.5 -15t14.5 -36v-5q0 -21 -14.5 -36t-38.5 -15z
M494 788q-24 0 -38.5 15t-14.5 36v5q0 21 14.5 36t38.5 15t38.5 -15t14.5 -36v-5q0 -21 -14.5 -36t-38.5 -15z" />
    <glyph glyph-name="uni04E5" unicode="&#x4e5;" horiz-adv-x="676" 
d="M50 48h75v420h-75v48h237v-48h-75v-182l-10 -137h4l258 289v30h-75v48h237v-48h-75v-420h75v-48h-237v48h75v182l10 137h-4l-258 -289v-30h75v-48h-237v48zM247 616q-24 0 -38.5 15t-14.5 36v5q0 21 14.5 36t38.5 15t38.5 -15t14.5 -36v-5q0 -21 -14.5 -36t-38.5 -15z
M429 616q-24 0 -38.5 15t-14.5 36v5q0 21 14.5 36t38.5 15t38.5 -15t14.5 -36v-5q0 -21 -14.5 -36t-38.5 -15z" />
    <glyph glyph-name="uni04E6" unicode="&#x4e6;" horiz-adv-x="734" 
d="M367 44q52 0 91.5 18.5t66.5 51.5t40.5 77.5t13.5 97.5v120q0 52 -13.5 97t-40.5 78t-66.5 51.5t-91.5 18.5t-91.5 -18.5t-66.5 -51.5t-40.5 -78t-13.5 -97v-120q0 -53 13.5 -97.5t40.5 -77.5t66.5 -51.5t91.5 -18.5zM367 -12q-71 0 -129.5 25t-100 72t-64.5 114t-23 150
t23 150t64.5 114t100 72t129.5 25t129.5 -25t100 -72t64.5 -114t23 -150t-23 -150t-64.5 -114t-100 -72t-129.5 -25zM276 788q-24 0 -38.5 15t-14.5 36v5q0 21 14.5 36t38.5 15t38.5 -15t14.5 -36v-5q0 -21 -14.5 -36t-38.5 -15zM458 788q-24 0 -38.5 15t-14.5 36v5
q0 21 14.5 36t38.5 15t38.5 -15t14.5 -36v-5q0 -21 -14.5 -36t-38.5 -15z" />
    <glyph glyph-name="uni04E7" unicode="&#x4e7;" horiz-adv-x="578" 
d="M289 40q37 0 64.5 12.5t44.5 34t25.5 51t8.5 63.5v114q0 34 -8.5 63.5t-25.5 51t-44.5 34t-64.5 12.5q-38 0 -65 -12.5t-44 -34t-25.5 -51t-8.5 -63.5v-114q0 -34 8.5 -63.5t25.5 -51t44 -34t65 -12.5zM289 -12q-55 0 -100 19.5t-77 54.5t-49.5 85t-17.5 111t17.5 111
t49.5 85t77 54.5t100 19.5t100 -19.5t77 -54.5t49.5 -85t17.5 -111t-17.5 -111t-49.5 -85t-77 -54.5t-100 -19.5zM199 616q-24 0 -38.5 15t-14.5 36v5q0 21 14.5 36t38.5 15t38.5 -15t14.5 -36v-5q0 -21 -14.5 -36t-38.5 -15zM381 616q-24 0 -38.5 15t-14.5 36v5
q0 21 14.5 36t38.5 15t38.5 -15t14.5 -36v-5q0 -21 -14.5 -36t-38.5 -15z" />
    <glyph glyph-name="uni04E8" unicode="&#x4e8;" horiz-adv-x="734" 
d="M367 44q52 0 91.5 18.5t66.5 51.5t40.5 77.5t13.5 97.5v42h-424v-42q0 -53 13.5 -97.5t40.5 -77.5t66.5 -51.5t91.5 -18.5zM579 381v28q0 52 -13.5 97t-40.5 78t-66.5 51.5t-91.5 18.5t-91.5 -18.5t-66.5 -51.5t-40.5 -78t-13.5 -97v-28h424zM367 -12q-71 0 -129.5 25
t-100 72t-64.5 114t-23 150t23 150t64.5 114t100 72t129.5 25t129.5 -25t100 -72t64.5 -114t23 -150t-23 -150t-64.5 -114t-100 -72t-129.5 -25z" />
    <glyph glyph-name="uni04E9" unicode="&#x4e9;" horiz-adv-x="578" 
d="M289 40q37 0 64.5 12.5t44.5 34t25.5 51t8.5 63.5v37h-286v-37q0 -34 8.5 -63.5t25.5 -51t44 -34t65 -12.5zM432 286v29q0 34 -8.5 63.5t-25.5 51t-44.5 34t-64.5 12.5q-38 0 -65 -12.5t-44 -34t-25.5 -51t-8.5 -63.5v-29h286zM289 -12q-55 0 -100 19.5t-77 54.5
t-49.5 85t-17.5 111t17.5 111t49.5 85t77 54.5t100 19.5t100 -19.5t77 -54.5t49.5 -85t17.5 -111t-17.5 -111t-49.5 -85t-77 -54.5t-100 -19.5z" />
    <glyph glyph-name="uni04EE" unicode="&#x4ee;" horiz-adv-x="665" 
d="M224 -12q-60 0 -94.5 27.5t-34.5 70.5q0 29 17 48.5t47 19.5q27 0 42 -17t15 -43q0 -21 -10.5 -33.5t-21.5 -16.5v-3q18 -6 38 -6q18 0 33 4t28 14.5t24.5 28.5t23.5 46l16 38l-274 484h-58v48h254v-48h-90l138 -244l72 -130h3l53 129l99 245h-87v48h208v-48h-58
l-221 -535q-30 -72 -68.5 -99.5t-93.5 -27.5zM223 872h280v-62h-280v62z" />
    <glyph glyph-name="uni04EF" unicode="&#x4ef;" horiz-adv-x="549" 
d="M127 -212q-53 0 -77 22.5t-24 58.5q0 27 14.5 43.5t42.5 16.5q24 0 37.5 -14t13.5 -38q0 -17 -9 -28t-19 -14v-3q11 -4 26 -4q26 0 51 22t45 72l22 56l-195 490h-53v48h221v-48h-71l141 -370h4l134 370h-71v48h187v-48h-53l-220 -555q-21 -53 -57.5 -89t-89.5 -36z
M152 702h280v-62h-280v62z" />
    <glyph glyph-name="uni04F0" unicode="&#x4f0;" horiz-adv-x="665" 
d="M224 -12q-60 0 -94.5 27.5t-34.5 70.5q0 29 17 48.5t47 19.5q27 0 42 -17t15 -43q0 -21 -10.5 -33.5t-21.5 -16.5v-3q18 -6 38 -6q18 0 33 4t28 14.5t24.5 28.5t23.5 46l16 38l-274 484h-58v48h254v-48h-90l138 -244l72 -130h3l53 129l99 245h-87v48h208v-48h-58
l-221 -535q-30 -72 -68.5 -99.5t-93.5 -27.5zM272 788q-24 0 -38.5 15t-14.5 36v5q0 21 14.5 36t38.5 15t38.5 -15t14.5 -36v-5q0 -21 -14.5 -36t-38.5 -15zM454 788q-24 0 -38.5 15t-14.5 36v5q0 21 14.5 36t38.5 15t38.5 -15t14.5 -36v-5q0 -21 -14.5 -36t-38.5 -15z" />
    <glyph glyph-name="uni04F1" unicode="&#x4f1;" horiz-adv-x="549" 
d="M127 -212q-53 0 -77 22.5t-24 58.5q0 27 14.5 43.5t42.5 16.5q24 0 37.5 -14t13.5 -38q0 -17 -9 -28t-19 -14v-3q11 -4 26 -4q26 0 51 22t45 72l22 56l-195 490h-53v48h221v-48h-71l141 -370h4l134 370h-71v48h187v-48h-53l-220 -555q-21 -53 -57.5 -89t-89.5 -36z
M201 616q-24 0 -38.5 15t-14.5 36v5q0 21 14.5 36t38.5 15t38.5 -15t14.5 -36v-5q0 -21 -14.5 -36t-38.5 -15zM383 616q-24 0 -38.5 15t-14.5 36v5q0 21 14.5 36t38.5 15t38.5 -15t14.5 -36v-5q0 -21 -14.5 -36t-38.5 -15z" />
    <glyph glyph-name="uni04F2" unicode="&#x4f2;" horiz-adv-x="665" 
d="M224 -12q-60 0 -94.5 27.5t-34.5 70.5q0 29 17 48.5t47 19.5q27 0 42 -17t15 -43q0 -21 -10.5 -33.5t-21.5 -16.5v-3q18 -6 38 -6q18 0 33 4t28 14.5t24.5 28.5t23.5 46l16 38l-274 484h-58v48h254v-48h-90l138 -244l72 -130h3l53 129l99 245h-87v48h208v-48h-58
l-221 -535q-30 -72 -68.5 -99.5t-93.5 -27.5zM249 774l72 180l83 -41l-126 -153zM409 774l72 180l83 -41l-126 -153z" />
    <glyph glyph-name="uni04F3" unicode="&#x4f3;" horiz-adv-x="549" 
d="M127 -212q-53 0 -77 22.5t-24 58.5q0 27 14.5 43.5t42.5 16.5q24 0 37.5 -14t13.5 -38q0 -17 -9 -28t-19 -14v-3q11 -4 26 -4q26 0 51 22t45 72l22 56l-195 490h-53v48h221v-48h-71l141 -370h4l134 370h-71v48h187v-48h-53l-220 -555q-21 -53 -57.5 -89t-89.5 -36z
M178 599l72 180l83 -41l-126 -153zM338 599l72 180l83 -41l-126 -153z" />
    <glyph glyph-name="uni04F4" unicode="&#x4f4;" horiz-adv-x="736" 
d="M415 48h96v254h-4q-35 -18 -73.5 -27.5t-94.5 -9.5q-63 0 -106.5 13t-70.5 40t-39 68.5t-12 99.5v164h-76v48h246v-48h-76v-160q0 -48 8 -81.5t26 -53.5t47 -29t72 -9q49 0 88 10t65 27v296h-76v48h246v-48h-76v-602h76v-48h-266v48zM267 788q-24 0 -38.5 15t-14.5 36v5
q0 21 14.5 36t38.5 15t38.5 -15t14.5 -36v-5q0 -21 -14.5 -36t-38.5 -15zM449 788q-24 0 -38.5 15t-14.5 36v5q0 21 14.5 36t38.5 15t38.5 -15t14.5 -36v-5q0 -21 -14.5 -36t-38.5 -15z" />
    <glyph glyph-name="uni04F5" unicode="&#x4f5;" horiz-adv-x="640" 
d="M331 48h95v204h-4q-26 -29 -62.5 -46.5t-90.5 -17.5q-81 0 -120.5 35.5t-39.5 118.5v126h-75v48h234v-48h-70v-117q0 -56 24 -79.5t86 -23.5q53 0 85.5 18.5t32.5 54.5v147h-70v48h234v-48h-75v-420h75v-48h-259v48zM221 616q-24 0 -38.5 15t-14.5 36v5q0 21 14.5 36
t38.5 15t38.5 -15t14.5 -36v-5q0 -21 -14.5 -36t-38.5 -15zM403 616q-24 0 -38.5 15t-14.5 36v5q0 21 14.5 36t38.5 15t38.5 -15t14.5 -36v-5q0 -21 -14.5 -36t-38.5 -15z" />
    <glyph glyph-name="uni04F8" unicode="&#x4f8;" horiz-adv-x="933" 
d="M55 48h76v602h-76v48h246v-48h-76v-241h148q100 0 154 -51.5t54 -152.5q0 -102 -54 -153.5t-154 -51.5h-318v48zM632 48h76v602h-76v48h246v-48h-76v-602h76v-48h-246v48zM368 52q56 0 85 33.5t29 87.5v63q0 54 -29 87.5t-85 33.5h-143v-305h143zM375 788q-24 0 -38.5 15
t-14.5 36v5q0 21 14.5 36t38.5 15t38.5 -15t14.5 -36v-5q0 -21 -14.5 -36t-38.5 -15zM557 788q-24 0 -38.5 15t-14.5 36v5q0 21 14.5 36t38.5 15t38.5 -15t14.5 -36v-5q0 -21 -14.5 -36t-38.5 -15z" />
    <glyph glyph-name="uni04F9" unicode="&#x4f9;" horiz-adv-x="824" 
d="M50 48h75v420h-75v48h239v-48h-75v-150h121q83 0 126.5 -40t43.5 -117t-45 -119t-126 -42h-284v48zM535 48h75v420h-75v48h239v-48h-75v-420h75v-48h-239v48zM321 52q45 0 66 24.5t21 63.5v38q0 40 -21 64t-66 24h-107v-214h107zM321 616q-24 0 -38.5 15t-14.5 36v5
q0 21 14.5 36t38.5 15t38.5 -15t14.5 -36v-5q0 -21 -14.5 -36t-38.5 -15zM503 616q-24 0 -38.5 15t-14.5 36v5q0 21 14.5 36t38.5 15t38.5 -15t14.5 -36v-5q0 -21 -14.5 -36t-38.5 -15z" />
    <glyph glyph-name="uni0E3F" unicode="&#xe3f;" horiz-adv-x="644" 
d="M312 21h-260v48h76v560h-76v48h260v103h55v-103h23q42 0 76.5 -12.5t59 -34t38 -50t13.5 -61.5q0 -35 -13 -61.5t-33.5 -45.5t-46 -31t-50.5 -17v-4q27 -2 55.5 -13.5t52 -31.5t39 -49t15.5 -67t-14 -70.5t-38.5 -56.5t-57.5 -37.5t-72 -13.5h-47v-103h-55v103zM365 72
h15q56 0 88 32.5t32 83.5v30q0 51 -32 83.5t-88 32.5h-15v-262zM365 384h6q51 0 80.5 29.5t29.5 76.5v30q0 47 -29.5 76.5t-80.5 29.5h-6v-242zM219 72h95v262h-95v-262zM219 384h95v242h-95v-242z" />
    <glyph glyph-name="Wgrave" unicode="&#x1e80;" horiz-adv-x="987" 
d="M76 650h-53v48h242v-48h-90l129 -542h4l154 590h91l158 -590h4l131 542h-90v48h208v-48h-53l-168 -650h-89l-161 576h-4l-155 -576h-90zM386 913l84 41l73 -180l-29 -14z" />
    <glyph glyph-name="wgrave" unicode="&#x1e81;" horiz-adv-x="795" 
d="M61 468h-53v48h214v-48h-71l103 -383h4l125 431h75l115 -431h4l104 383h-71v48h177v-48h-53l-132 -468h-87l-110 398h-4l-122 -398h-86zM298 738l84 41l73 -180l-29 -14z" />
    <glyph glyph-name="Wacute" unicode="&#x1e82;" horiz-adv-x="987" 
d="M76 650h-53v48h242v-48h-90l129 -542h4l154 590h91l158 -590h4l131 542h-90v48h208v-48h-53l-168 -650h-89l-161 576h-4l-155 -576h-90zM474 774l72 180l83 -41l-126 -153z" />
    <glyph glyph-name="wacute" unicode="&#x1e83;" horiz-adv-x="795" 
d="M61 468h-53v48h214v-48h-71l103 -383h4l125 431h75l115 -431h4l104 383h-71v48h177v-48h-53l-132 -468h-87l-110 398h-4l-122 -398h-86zM386 599l72 180l83 -41l-126 -153z" />
    <glyph glyph-name="Wdieresis" unicode="&#x1e84;" horiz-adv-x="987" 
d="M76 650h-53v48h242v-48h-90l129 -542h4l154 590h91l158 -590h4l131 542h-90v48h208v-48h-53l-168 -650h-89l-161 576h-4l-155 -576h-90zM417 788q-24 0 -38.5 15t-14.5 36v5q0 21 14.5 36t38.5 15t38.5 -15t14.5 -36v-5q0 -21 -14.5 -36t-38.5 -15zM599 788
q-24 0 -38.5 15t-14.5 36v5q0 21 14.5 36t38.5 15t38.5 -15t14.5 -36v-5q0 -21 -14.5 -36t-38.5 -15z" />
    <glyph glyph-name="wdieresis" unicode="&#x1e85;" horiz-adv-x="795" 
d="M61 468h-53v48h214v-48h-71l103 -383h4l125 431h75l115 -431h4l104 383h-71v48h177v-48h-53l-132 -468h-87l-110 398h-4l-122 -398h-86zM329 616q-24 0 -38.5 15t-14.5 36v5q0 21 14.5 36t38.5 15t38.5 -15t14.5 -36v-5q0 -21 -14.5 -36t-38.5 -15zM511 616
q-24 0 -38.5 15t-14.5 36v5q0 21 14.5 36t38.5 15t38.5 -15t14.5 -36v-5q0 -21 -14.5 -36t-38.5 -15z" />
    <glyph glyph-name="uni1E9E" unicode="&#x1e9e;" horiz-adv-x="737" 
d="M455 -12q-77 0 -115 28.5t-38 70.5q0 30 17 49t47 19q27 0 42 -16t15 -42q0 -22 -10.5 -34.5t-21.5 -17.5v-3q11 -3 27.5 -4.5t36.5 -1.5q57 0 95 33t38 100v42q0 40 -8.5 66.5t-26.5 42.5t-45.5 22.5t-65.5 6.5h-65v50l174 247h-326v-646h-170v48h76v602h-76v48h603v-43
l-178 -254v-4q212 0 212 -205q0 -51 -17 -89.5t-48 -64t-75 -38t-97 -12.5z" />
    <glyph glyph-name="uni1EA0" unicode="&#x1ea0;" horiz-adv-x="701" 
d="M16 48h53l230 650h103l230 -650h53v-48h-244v48h90l-63 179h-274l-61 -179h90v-48h-207v48zM209 277h244l-117 344h-7zM332 -165q-24 0 -38.5 15t-14.5 35v5q0 21 15 36.5t38 15.5q24 0 38.5 -15.5t14.5 -36.5v-5q0 -20 -13.5 -35t-39.5 -15z" />
    <glyph glyph-name="uni1EA1" unicode="&#x1ea1;" horiz-adv-x="558" 
d="M206 -12q-73 0 -114.5 37.5t-41.5 102.5q0 37 12.5 66t40.5 48t73 29t110 10h73v74q0 60 -29.5 92.5t-89.5 32.5q-23 0 -45.5 -4t-36.5 -12v-2q12 -7 23 -19t11 -35q0 -28 -16 -43t-43 -15q-26 0 -42 15.5t-16 45.5q0 22 13 43t38 37.5t62 26.5t84 10q83 0 129.5 -42
t46.5 -118v-322h75v-38q-11 -8 -30 -14t-43 -6q-42 0 -64 23t-22 61v3h-5q-8 -17 -19.5 -32.5t-29.5 -27.5t-43.5 -19.5t-60.5 -7.5zM244 46q24 0 44.5 6t36.5 18t25 30t9 43v95h-64q-43 0 -72 -6t-46 -18t-24.5 -30t-7.5 -42v-20q0 -38 26 -57t73 -19zM250 -165
q-24 0 -38.5 15t-14.5 35v5q0 21 15 36.5t38 15.5q24 0 38.5 -15.5t14.5 -36.5v-5q0 -20 -13.5 -35t-39.5 -15z" />
    <glyph glyph-name="uni1EA2" unicode="&#x1ea2;" horiz-adv-x="701" 
d="M16 48h53l230 650h103l230 -650h53v-48h-244v48h90l-63 179h-274l-61 -179h90v-48h-207v48zM209 277h244l-117 344h-7zM335 762l52 106h-121v67h102q38 0 54 -16t16 -39q0 -22 -13 -48t-36 -55l-24 -30z" />
    <glyph glyph-name="uni1EA3" unicode="&#x1ea3;" horiz-adv-x="558" 
d="M206 -12q-73 0 -114.5 37.5t-41.5 102.5q0 37 12.5 66t40.5 48t73 29t110 10h73v74q0 60 -29.5 92.5t-89.5 32.5q-23 0 -45.5 -4t-36.5 -12v-2q12 -7 23 -19t11 -35q0 -28 -16 -43t-43 -15q-26 0 -42 15.5t-16 45.5q0 22 13 43t38 37.5t62 26.5t84 10q83 0 129.5 -42
t46.5 -118v-322h75v-38q-11 -8 -30 -14t-43 -6q-42 0 -64 23t-22 61v3h-5q-8 -17 -19.5 -32.5t-29.5 -27.5t-43.5 -19.5t-60.5 -7.5zM244 46q24 0 44.5 6t36.5 18t25 30t9 43v95h-64q-43 0 -72 -6t-46 -18t-24.5 -30t-7.5 -42v-20q0 -38 26 -57t73 -19zM257 592l52 106h-121
v67h102q38 0 54 -16t16 -39q0 -22 -13 -48t-36 -55l-24 -30z" />
    <glyph glyph-name="uni1EA4" unicode="&#x1ea4;" horiz-adv-x="701" 
d="M16 48h53l230 650h103l230 -650h53v-48h-244v48h90l-63 179h-274l-61 -179h90v-48h-207v48zM209 277h244l-117 344h-7zM198 765l122 150h60l122 -150l-25 -17l-127 97l-127 -97zM454 887l72 175l79 -38l-122 -151z" />
    <glyph glyph-name="uni1EA5" unicode="&#x1ea5;" horiz-adv-x="558" 
d="M206 -12q-73 0 -114.5 37.5t-41.5 102.5q0 37 12.5 66t40.5 48t73 29t110 10h73v74q0 60 -29.5 92.5t-89.5 32.5q-23 0 -45.5 -4t-36.5 -12v-2q12 -7 23 -19t11 -35q0 -28 -16 -43t-43 -15q-26 0 -42 15.5t-16 45.5q0 22 13 43t38 37.5t62 26.5t84 10q83 0 129.5 -42
t46.5 -118v-322h75v-38q-11 -8 -30 -14t-43 -6q-42 0 -64 23t-22 61v3h-5q-8 -17 -19.5 -32.5t-29.5 -27.5t-43.5 -19.5t-60.5 -7.5zM244 46q24 0 44.5 6t36.5 18t25 30t9 43v95h-64q-43 0 -72 -6t-46 -18t-24.5 -30t-7.5 -42v-20q0 -38 26 -57t73 -19zM120 595l122 150h60
l122 -150l-25 -17l-127 97l-127 -97zM376 717l72 175l79 -38l-122 -151z" />
    <glyph glyph-name="uni1EA6" unicode="&#x1ea6;" horiz-adv-x="701" 
d="M16 48h53l230 650h103l230 -650h53v-48h-244v48h90l-63 179h-274l-61 -179h90v-48h-207v48zM209 277h244l-117 344h-7zM198 765l122 150h60l122 -150l-25 -17l-127 97l-127 -97zM85 1024l80 38l73 -174l-29 -14z" />
    <glyph glyph-name="uni1EA7" unicode="&#x1ea7;" horiz-adv-x="558" 
d="M206 -12q-73 0 -114.5 37.5t-41.5 102.5q0 37 12.5 66t40.5 48t73 29t110 10h73v74q0 60 -29.5 92.5t-89.5 32.5q-23 0 -45.5 -4t-36.5 -12v-2q12 -7 23 -19t11 -35q0 -28 -16 -43t-43 -15q-26 0 -42 15.5t-16 45.5q0 22 13 43t38 37.5t62 26.5t84 10q83 0 129.5 -42
t46.5 -118v-322h75v-38q-11 -8 -30 -14t-43 -6q-42 0 -64 23t-22 61v3h-5q-8 -17 -19.5 -32.5t-29.5 -27.5t-43.5 -19.5t-60.5 -7.5zM244 46q24 0 44.5 6t36.5 18t25 30t9 43v95h-64q-43 0 -72 -6t-46 -18t-24.5 -30t-7.5 -42v-20q0 -38 26 -57t73 -19zM120 595l122 150h60
l122 -150l-25 -17l-127 97l-127 -97zM7 854l80 38l73 -174l-29 -14z" />
    </font>
</defs>
</svg>
